<?xml version="1.0" encoding="UTF-8" standalone="no"?><svg xmlns="http://www.w3.org/2000/svg" xmlns:xlink="http://www.w3.org/1999/xlink" contentScriptType="application/ecmascript" contentStyleType="text/css" height="414px" preserveAspectRatio="none" style="width:303px;height:414px;background:#FFFFFF;" version="1.1" viewBox="0 0 303 414" width="303px" zoomAndPan="magnify"><defs><filter height="300%" id="f12k8r0jxykbpc" width="300%" x="-1" y="-1"><feGaussianBlur result="blurOut" stdDeviation="2.0"/><feColorMatrix in="blurOut" result="blurOut2" type="matrix" values="0 0 0 0 0 0 0 0 0 0 0 0 0 0 0 0 0 0 .4 0"/><feOffset dx="4.0" dy="4.0" in="blurOut2" result="blurOut3"/><feBlend in="SourceGraphic" in2="blurOut3" mode="normal"/></filter></defs><g><text fill="#000000" font-family="sans-serif" font-size="18" lengthAdjust="spacing" textLength="294" x="2" y="17.4023">Klondike  - Use Case - ResetDeck</text><g id="OUT_GAME"><rect fill="#FEFECE" filter="url(#f12k8r0jxykbpc)" height="50" rx="12.5" ry="12.5" style="stroke:#A80036;stroke-width:1.5;" width="97" x="58.0837" y="89.1992"/><line style="stroke:#A80036;stroke-width:1.5;" x1="58.0837" x2="155.0837" y1="115.6875" y2="115.6875"/><text fill="#000000" font-family="sans-serif" font-size="14" lengthAdjust="spacing" textLength="77" x="68.0837" y="107.7344">OUT_GAME</text></g><g id="State"><rect fill="#FEFECE" filter="url(#f12k8r0jxykbpc)" height="50" rx="12.5" ry="12.5" style="stroke:#A80036;stroke-width:1.5;" width="54" x="79.5837" y="192.1992"/><line style="stroke:#A80036;stroke-width:1.5;" x1="79.5837" x2="133.5837" y1="218.6875" y2="218.6875"/><text fill="#000000" font-family="sans-serif" font-size="14" lengthAdjust="spacing" textLength="34" x="89.5837" y="210.7344">State</text></g><g id="IN_GAME"><rect fill="#FEFECE" filter="url(#f12k8r0jxykbpc)" height="50" rx="12.5" ry="12.5" style="stroke:#A80036;stroke-width:1.5;" width="81" x="24.0837" y="295.1992"/><line style="stroke:#A80036;stroke-width:1.5;" x1="24.0837" x2="105.0837" y1="321.6875" y2="321.6875"/><text fill="#000000" font-family="sans-serif" font-size="14" lengthAdjust="spacing" textLength="61" x="34.0837" y="313.7344">IN_GAME</text></g><g id="EXIT"><rect fill="#FEFECE" filter="url(#f12k8r0jxykbpc)" height="50" rx="12.5" ry="12.5" style="stroke:#A80036;stroke-width:1.5;" width="50" x="143.5837" y="295.1992"/><line style="stroke:#A80036;stroke-width:1.5;" x1="143.5837" x2="193.5837" y1="321.6875" y2="321.6875"/><text fill="#000000" font-family="sans-serif" font-size="14" lengthAdjust="spacing" textLength="30" x="153.5837" y="313.7344">EXIT</text></g><ellipse cx="106.5837" cy="38.1992" fill="#000000" filter="url(#f12k8r0jxykbpc)" rx="10" ry="10" style="stroke:none;stroke-width:1.0;"/><ellipse cx="125.5837" cy="392.1992" filter="url(#f12k8r0jxykbpc)" rx="10" ry="10" style="stroke:#000000;stroke-width:1.0;fill:none;"/><ellipse cx="126.0837" cy="392.6992" fill="#000000" rx="6" ry="6" style="stroke:none;stroke-width:1.0;"/><path d="M106.5837,52.4492 C106.5837,62.1787 106.5837,76.5829 106.5837,88.9237 " fill="none" style="stroke:#A80036;stroke-width:1.0;"/><polygon fill="#A80036" points="106.5837,88.9237,110.5837,79.9237,106.5837,83.9237,102.5837,79.9237,106.5837,88.9237" style="stroke:#A80036;stroke-width:1.0;"/><path d="M106.5837,139.3912 C106.5837,155.265 106.5837,175.9501 106.5837,191.8546 " fill="none" style="stroke:#A80036;stroke-width:1.0;"/><polygon fill="#A80036" points="106.5837,191.8546,110.5837,182.8546,106.5837,186.8546,102.5837,182.8546,106.5837,191.8546" style="stroke:#A80036;stroke-width:1.0;"/><text fill="#000000" font-family="sans-serif" font-size="13" lengthAdjust="spacing" textLength="90" x="107.5837" y="170.7676">Deck is Empty</text><path d="M79.2564,224.4569 C60.5798,230.3112 37.186,241.114 25.5837,260.1992 C18.5039,271.8453 24.8957,284.4843 34.4078,295.0656 " fill="none" style="stroke:#A80036;stroke-width:1.0;"/><polygon fill="#A80036" points="34.4078,295.0656,31.3657,285.6983,31.0651,291.3472,25.4163,291.0466,34.4078,295.0656" style="stroke:#A80036;stroke-width:1.0;"/><text fill="#000000" font-family="sans-serif" font-size="13" lengthAdjust="spacing" textLength="139" x="26.5837" y="273.7676">Stock is the new Deck</text><path d="M133.8561,230.1576 C146.1237,237.0565 159.4303,247.0104 166.5837,260.1992 C172.252,270.6498 173.194,283.7435 172.5292,294.9393 " fill="none" style="stroke:#A80036;stroke-width:1.0;"/><polygon fill="#A80036" points="172.5292,294.9393,177.0556,286.1923,172.8256,289.9481,169.0697,285.7181,172.5292,294.9393" style="stroke:#A80036;stroke-width:1.0;"/><text fill="#000000" font-family="sans-serif" font-size="13" lengthAdjust="spacing" textLength="120" x="173.5837" y="273.7676">No moves possible</text><path d="M85.2356,345.5751 C95.7429,357.9772 107.9971,372.4412 116.2195,382.1463 " fill="none" style="stroke:#A80036;stroke-width:1.0;"/><polygon fill="#A80036" points="116.2195,382.1463,113.4537,372.6938,112.9874,378.3314,107.3498,377.8651,116.2195,382.1463" style="stroke:#A80036;stroke-width:1.0;"/><path d="M154.0259,345.5751 C146.6191,357.9772 137.9809,372.4412 132.1848,382.1463 " fill="none" style="stroke:#A80036;stroke-width:1.0;"/><polygon fill="#A80036" points="132.1848,382.1463,140.2336,376.4704,134.7485,377.8536,133.3653,372.3685,132.1848,382.1463" style="stroke:#A80036;stroke-width:1.0;"/><!--MD5=[62fcb8c952d90d184798e8ba9c8f7244]
@startuml resetDeckUseCaseSpecification
!pragma layout smetana

title Klondike  - Use Case - ResetDeck
state OUT_GAME
state State 
state IN_GAME
state EXIT
[*] - -> OUT_GAME
OUT_GAME - -> State: Deck is Empty 
State - -> IN_GAME: Stock is the new Deck
State - -> EXIT: No moves possible
IN_GAME - -> [*]
EXIT - -> [*]
@enduml

PlantUML version 1.2022.0(Tue Jan 11 11:16:42 ECT 2022)
(GPL source distribution)
Java Runtime: OpenJDK Runtime Environment
JVM: OpenJDK 64-Bit Server VM
Default Encoding: UTF-8
Language: es
Country: EC
--></g></svg>