<?xml version="1.0" encoding="UTF-8" standalone="no"?><svg xmlns="http://www.w3.org/2000/svg" xmlns:xlink="http://www.w3.org/1999/xlink" contentStyleType="text/css" height="481px" preserveAspectRatio="none" style="width:289px;height:481px;background:#FFFFFF;" version="1.1" viewBox="0 0 289 481" width="289px" zoomAndPan="magnify"><defs/><g><rect height="26.4883" style="stroke:#00000000;stroke-width:1.0;fill:none;" width="271" x="5" y="5"/><text fill="#000000" font-family="sans-serif" font-size="14" font-weight="bold" lengthAdjust="spacing" textLength="261" x="10" y="23.5352">Klondike - Undo - Context Diagram</text><!--MD5=[de2effd8dc5bf946a609466312d0f75f]
entity Player--><g id="elem_Player"><ellipse cx="150.25" cy="51.0234" fill="#F1F1F1" rx="8" ry="8" style="stroke:#181818;stroke-width:0.5;"/><path d="M150.25,59.0234 L150.25,86.0234 M137.25,67.0234 L163.25,67.0234 M150.25,86.0234 L137.25,101.0234 M150.25,86.0234 L163.25,101.0234 " fill="none" style="stroke:#181818;stroke-width:0.5;"/><text fill="#000000" font-family="sans-serif" font-size="14" lengthAdjust="spacing" textLength="41" x="129.75" y="116.0586">Player</text></g><!--MD5=[cc916e2450bd8ac826b77ecf1f8bbe0e]
entity UndoView--><g id="elem_UndoView"><rect fill="#F1F1F1" height="36.4883" rx="2.5" ry="2.5" style="stroke:#181818;stroke-width:0.5;" width="89" x="105.75" y="171.5234"/><text fill="#000000" font-family="sans-serif" font-size="14" lengthAdjust="spacing" textLength="69" x="115.75" y="195.0586">UndoView</text></g><!--MD5=[57a303f84960f48c5f86f387d777d830]
entity UndoController--><g id="elem_UndoController"><rect fill="#F1F1F1" height="36.4883" rx="2.5" ry="2.5" style="stroke:#181818;stroke-width:0.5;" width="127" x="86.75" y="349.5234"/><text fill="#000000" font-family="sans-serif" font-size="14" lengthAdjust="spacing" textLength="107" x="96.75" y="373.0586">UndoController</text></g><!--MD5=[e2aabbe86860f03f4048795bb6d0424c]
entity SavePosition--><g id="elem_SavePosition"><rect fill="#F1F1F1" height="36.4883" rx="2.5" ry="2.5" style="stroke:#181818;stroke-width:0.5;" width="106" x="36.25" y="438.5234"/><text fill="#000000" font-family="sans-serif" font-size="14" lengthAdjust="spacing" textLength="86" x="46.25" y="462.0586">SavePosition</text></g><!--MD5=[a692b5b426e3ec7ce038e6f66f98bf20]
entity RecoverPosition--><g id="elem_RecoverPosition"><rect fill="#F1F1F1" height="36.4883" rx="2.5" ry="2.5" style="stroke:#181818;stroke-width:0.5;" width="129" x="85.75" y="260.5234"/><text fill="#000000" font-family="sans-serif" font-size="14" lengthAdjust="spacing" textLength="109" x="95.75" y="284.0586">RecoverPosition</text></g><!--MD5=[21bd99f6779f42d570c72f27248b4aa0]
entity CardModel--><g id="elem_CardModel"><rect fill="#F1F1F1" height="36.4883" rx="2.5" ry="2.5" style="stroke:#181818;stroke-width:0.5;" width="95" x="164.75" y="438.5234"/><text fill="#000000" font-family="sans-serif" font-size="14" lengthAdjust="spacing" textLength="75" x="174.75" y="462.0586">CardModel</text></g><path d="M150.25,118.6466 C150.25,136.513 150.25,157.0762 150.25,171.2466 " fill="none" style="stroke:#181818;stroke-width:1.0;"/><polygon fill="#181818" points="150.25,171.2466,154.25,162.2466,150.25,166.2466,146.25,162.2466,150.25,171.2466" style="stroke:#181818;stroke-width:1.0;"/><text fill="#000000" font-family="sans-serif" font-size="13" lengthAdjust="spacing" textLength="83" x="151.25" y="150.0918">RequestUndo</text><path d="M150.25,207.7118 C150.25,222.9641 150.25,245.1293 150.25,260.3707 " fill="none" style="stroke:#181818;stroke-width:1.0;"/><polygon fill="#181818" points="150.25,260.3707,154.25,251.3707,150.25,255.3707,146.25,251.3707,150.25,260.3707" style="stroke:#181818;stroke-width:1.0;"/><text fill="#000000" font-family="sans-serif" font-size="13" lengthAdjust="spacing" textLength="105" x="151.25" y="239.0918">getLastPosition()</text><path d="M150.25,296.7118 C150.25,311.9641 150.25,334.1293 150.25,349.3707 " fill="none" style="stroke:#181818;stroke-width:1.0;"/><polygon fill="#181818" points="150.25,349.3707,154.25,340.3707,150.25,344.3707,146.25,340.3707,150.25,349.3707" style="stroke:#181818;stroke-width:1.0;"/><text fill="#000000" font-family="sans-serif" font-size="13" lengthAdjust="spacing" textLength="33" x="151.25" y="328.0918">Undo</text><path d="M180.4931,385.7623 C187.1392,390.7543 193.5785,396.7226 198.25,403.5234 C205.3432,413.8499 208.8466,427.6132 210.5747,438.386 " fill="none" style="stroke:#181818;stroke-width:1.0;"/><polygon fill="none" points="180.4931,385.7623,182.8883,392.564,190.088,392.9692,187.6928,386.1675,180.4931,385.7623" style="stroke:#181818;stroke-width:1.0;"/><polygon fill="#181818" points="210.5747,438.386,213.0987,428.8661,209.7827,433.4491,205.1997,430.1332,210.5747,438.386" style="stroke:#181818;stroke-width:1.0;"/><path d="M108.0245,385.5758 C100.9476,390.3288 94.5246,396.2441 90.25,403.5234 C84.1231,413.957 84.1364,427.7152 85.5404,438.459 " fill="none" style="stroke:#181818;stroke-width:1.0;"/><polygon fill="#181818" points="85.5404,438.459,88.3404,429.0165,84.8925,433.5011,80.4079,430.0532,85.5404,438.459" style="stroke:#181818;stroke-width:1.0;"/><text fill="#000000" font-family="sans-serif" font-size="13" lengthAdjust="spacing" textLength="106" x="91.25" y="417.0918">setSavePosition()</text><!--MD5=[12bed4a7837e487d69927473a1efc778]
@startuml ContextDiagramUndo
title Klondike - Undo - Context Diagram
!pragma layout smetana
left to right direction

actor Player
rectangle UndoView

rectangle UndoController
rectangle SavePosition
rectangle RecoverPosition
rectangle CardModel


Player - -> UndoView : RequestUndo
UndoView - -> RecoverPosition: getLastPosition()
RecoverPosition - -> UndoController: Undo
UndoController O- -> CardModel
UndoController - -> SavePosition: setSavePosition()
@enduml

PlantUML version 1.2022.5(Sat Apr 30 05:55:52 ECT 2022)
(GPL source distribution)
Java Runtime: OpenJDK Runtime Environment
JVM: OpenJDK 64-Bit Server VM
Default Encoding: UTF-8
Language: es
Country: EC
--></g></svg>