<?xml version="1.0" encoding="UTF-8" standalone="no"?><svg xmlns="http://www.w3.org/2000/svg" xmlns:xlink="http://www.w3.org/1999/xlink" contentScriptType="application/ecmascript" contentStyleType="text/css" height="516px" preserveAspectRatio="none" style="width:523px;height:516px;background:#FFFFFF;" version="1.1" viewBox="0 0 523 516" width="523px" zoomAndPan="magnify"><defs><filter height="300%" id="foeol7psmhxt3" width="300%" x="-1" y="-1"><feGaussianBlur result="blurOut" stdDeviation="2.0"/><feColorMatrix in="blurOut" result="blurOut2" type="matrix" values="0 0 0 0 0 0 0 0 0 0 0 0 0 0 0 0 0 0 .4 0"/><feOffset dx="4.0" dy="4.0" in="blurOut2" result="blurOut3"/><feBlend in="SourceGraphic" in2="blurOut3" mode="normal"/></filter></defs><g><text fill="#000000" font-family="sans-serif" font-size="18" lengthAdjust="spacing" textLength="228" x="141.0198" y="17.4023">Klondike  - Class Diagram</text><!--MD5=[ce135f397e71694d574a1221b16fe9d6]
class Klondike--><rect codeLine="4" fill="#FEFECE" filter="url(#foeol7psmhxt3)" height="48" id="Klondike" style="stroke:#A80036;stroke-width:1.5;" width="82" x="27.0395" y="34.1992"/><ellipse cx="42.0395" cy="50.1992" fill="#ADD1B2" rx="11" ry="11" style="stroke:#A80036;stroke-width:1.0;"/><path d="M44.5127,56.3423 Q43.9316,56.6411 43.2925,56.7905 Q42.6533,56.9399 41.9477,56.9399 Q39.4409,56.9399 38.1211,55.2881 Q36.8013,53.6362 36.8013,50.5151 Q36.8013,47.3857 38.1211,45.7339 Q39.4409,44.082 41.9477,44.082 Q42.6533,44.082 43.3008,44.2314 Q43.9482,44.3809 44.5127,44.6797 L44.5127,47.4023 Q43.8818,46.8213 43.2883,46.5515 Q42.6948,46.2817 42.064,46.2817 Q40.7192,46.2817 40.0344,47.3484 Q39.3496,48.415 39.3496,50.5151 Q39.3496,52.6069 40.0344,53.6736 Q40.7192,54.7402 42.064,54.7402 Q42.6948,54.7402 43.2883,54.4705 Q43.8818,54.2007 44.5127,53.6196 Z " fill="#000000"/><text fill="#000000" font-family="sans-serif" font-size="12" lengthAdjust="spacing" textLength="50" x="56.0395" y="54.7344">Klondike</text><line style="stroke:#A80036;stroke-width:1.5;" x1="28.0395" x2="108.0395" y1="66.1992" y2="66.1992"/><line style="stroke:#A80036;stroke-width:1.5;" x1="28.0395" x2="108.0395" y1="74.1992" y2="74.1992"/><!--MD5=[2cb47ba637a0d19583e6199456f6ad0b]
class Player--><rect codeLine="5" fill="#FEFECE" filter="url(#foeol7psmhxt3)" height="48" id="Player" style="stroke:#A80036;stroke-width:1.5;" width="67" x="34.5395" y="118.1992"/><ellipse cx="49.5395" cy="134.1992" fill="#ADD1B2" rx="11" ry="11" style="stroke:#A80036;stroke-width:1.0;"/><path d="M52.0127,140.3423 Q51.4316,140.6411 50.7925,140.7905 Q50.1533,140.9399 49.4477,140.9399 Q46.9409,140.9399 45.6211,139.2881 Q44.3013,137.6362 44.3013,134.5151 Q44.3013,131.3857 45.6211,129.7339 Q46.9409,128.082 49.4477,128.082 Q50.1533,128.082 50.8008,128.2314 Q51.4482,128.3809 52.0127,128.6797 L52.0127,131.4023 Q51.3818,130.8213 50.7883,130.5515 Q50.1948,130.2817 49.564,130.2817 Q48.2192,130.2817 47.5344,131.3484 Q46.8496,132.415 46.8496,134.5151 Q46.8496,136.6069 47.5344,137.6736 Q48.2192,138.7402 49.564,138.7402 Q50.1948,138.7402 50.7883,138.4705 Q51.3818,138.2007 52.0127,137.6196 Z " fill="#000000"/><text fill="#000000" font-family="sans-serif" font-size="12" lengthAdjust="spacing" textLength="35" x="63.5395" y="138.7344">Player</text><line style="stroke:#A80036;stroke-width:1.5;" x1="35.5395" x2="100.5395" y1="150.1992" y2="150.1992"/><line style="stroke:#A80036;stroke-width:1.5;" x1="35.5395" x2="100.5395" y1="158.1992" y2="158.1992"/><!--MD5=[d01ad859d436f6e28b36a553834670aa]
class Foundation--><rect codeLine="6" fill="#FEFECE" filter="url(#foeol7psmhxt3)" height="48" id="Foundation" style="stroke:#A80036;stroke-width:1.5;" width="95" x="119.5395" y="118.1992"/><ellipse cx="134.5395" cy="134.1992" fill="#ADD1B2" rx="11" ry="11" style="stroke:#A80036;stroke-width:1.0;"/><path d="M137.0127,140.3423 Q136.4316,140.6411 135.7925,140.7905 Q135.1533,140.9399 134.4477,140.9399 Q131.9409,140.9399 130.6211,139.2881 Q129.3013,137.6362 129.3013,134.5151 Q129.3013,131.3857 130.6211,129.7339 Q131.9409,128.082 134.4477,128.082 Q135.1533,128.082 135.8008,128.2314 Q136.4482,128.3809 137.0127,128.6797 L137.0127,131.4023 Q136.3818,130.8213 135.7883,130.5515 Q135.1948,130.2817 134.564,130.2817 Q133.2192,130.2817 132.5344,131.3484 Q131.8496,132.415 131.8496,134.5151 Q131.8496,136.6069 132.5344,137.6736 Q133.2192,138.7402 134.564,138.7402 Q135.1948,138.7402 135.7883,138.4705 Q136.3818,138.2007 137.0127,137.6196 Z " fill="#000000"/><text fill="#000000" font-family="sans-serif" font-size="12" lengthAdjust="spacing" textLength="63" x="148.5395" y="138.7344">Foundation</text><line style="stroke:#A80036;stroke-width:1.5;" x1="120.5395" x2="213.5395" y1="150.1992" y2="150.1992"/><line style="stroke:#A80036;stroke-width:1.5;" x1="120.5395" x2="213.5395" y1="158.1992" y2="158.1992"/><!--MD5=[9d65f55e1ae89a5b4cf38812aa4a03f3]
class Pile--><rect codeLine="7" fill="#FEFECE" filter="url(#foeol7psmhxt3)" height="48" id="Pile" style="stroke:#A80036;stroke-width:1.5;" width="52" x="99.0395" y="370.1992"/><ellipse cx="114.0395" cy="386.1992" fill="#ADD1B2" rx="11" ry="11" style="stroke:#A80036;stroke-width:1.0;"/><path d="M116.5127,392.3423 Q115.9316,392.6411 115.2925,392.7905 Q114.6533,392.9399 113.9477,392.9399 Q111.4409,392.9399 110.1211,391.2881 Q108.8013,389.6362 108.8013,386.5151 Q108.8013,383.3857 110.1211,381.7339 Q111.4409,380.082 113.9477,380.082 Q114.6533,380.082 115.3008,380.2314 Q115.9482,380.3809 116.5127,380.6797 L116.5127,383.4023 Q115.8818,382.8213 115.2883,382.5515 Q114.6948,382.2817 114.064,382.2817 Q112.7192,382.2817 112.0344,383.3484 Q111.3496,384.415 111.3496,386.5151 Q111.3496,388.6069 112.0344,389.6736 Q112.7192,390.7402 114.064,390.7402 Q114.6948,390.7402 115.2883,390.4705 Q115.8818,390.2007 116.5127,389.6196 Z " fill="#000000"/><text fill="#000000" font-family="sans-serif" font-size="12" lengthAdjust="spacing" textLength="20" x="128.0395" y="390.7344">Pile</text><line style="stroke:#A80036;stroke-width:1.5;" x1="100.0395" x2="150.0395" y1="402.1992" y2="402.1992"/><line style="stroke:#A80036;stroke-width:1.5;" x1="100.0395" x2="150.0395" y1="410.1992" y2="410.1992"/><!--MD5=[30299a58ba6b78debaaed5ddbb42f29a]
class Deck--><rect codeLine="8" fill="#FEFECE" filter="url(#foeol7psmhxt3)" height="48" id="Deck" style="stroke:#A80036;stroke-width:1.5;" width="61" x="332.5395" y="370.1992"/><ellipse cx="347.5395" cy="386.1992" fill="#ADD1B2" rx="11" ry="11" style="stroke:#A80036;stroke-width:1.0;"/><path d="M350.0127,392.3423 Q349.4316,392.6411 348.7925,392.7905 Q348.1533,392.9399 347.4477,392.9399 Q344.9409,392.9399 343.6211,391.2881 Q342.3013,389.6362 342.3013,386.5151 Q342.3013,383.3857 343.6211,381.7339 Q344.9409,380.082 347.4477,380.082 Q348.1533,380.082 348.8008,380.2314 Q349.4482,380.3809 350.0127,380.6797 L350.0127,383.4023 Q349.3818,382.8213 348.7883,382.5515 Q348.1948,382.2817 347.564,382.2817 Q346.2192,382.2817 345.5344,383.3484 Q344.8496,384.415 344.8496,386.5151 Q344.8496,388.6069 345.5344,389.6736 Q346.2192,390.7402 347.564,390.7402 Q348.1948,390.7402 348.7883,390.4705 Q349.3818,390.2007 350.0127,389.6196 Z " fill="#000000"/><text fill="#000000" font-family="sans-serif" font-size="12" lengthAdjust="spacing" textLength="29" x="361.5395" y="390.7344">Deck</text><line style="stroke:#A80036;stroke-width:1.5;" x1="333.5395" x2="392.5395" y1="402.1992" y2="402.1992"/><line style="stroke:#A80036;stroke-width:1.5;" x1="333.5395" x2="392.5395" y1="410.1992" y2="410.1992"/><!--MD5=[a4cb0f987c11031dc931233a0e7767af]
class Stock--><rect codeLine="9" fill="#FEFECE" filter="url(#foeol7psmhxt3)" height="48" id="Stock" style="stroke:#A80036;stroke-width:1.5;" width="62" x="417.0395" y="454.1992"/><ellipse cx="432.0395" cy="470.1992" fill="#ADD1B2" rx="11" ry="11" style="stroke:#A80036;stroke-width:1.0;"/><path d="M434.5127,476.3423 Q433.9316,476.6411 433.2925,476.7905 Q432.6533,476.9399 431.9477,476.9399 Q429.4409,476.9399 428.1211,475.2881 Q426.8013,473.6362 426.8013,470.5151 Q426.8013,467.3857 428.1211,465.7339 Q429.4409,464.082 431.9477,464.082 Q432.6533,464.082 433.3008,464.2314 Q433.9482,464.3809 434.5127,464.6797 L434.5127,467.4023 Q433.8818,466.8213 433.2883,466.5515 Q432.6948,466.2817 432.064,466.2817 Q430.7192,466.2817 430.0344,467.3484 Q429.3496,468.415 429.3496,470.5151 Q429.3496,472.6069 430.0344,473.6736 Q430.7192,474.7402 432.064,474.7402 Q432.6948,474.7402 433.2883,474.4705 Q433.8818,474.2007 434.5127,473.6196 Z " fill="#000000"/><text fill="#000000" font-family="sans-serif" font-size="12" lengthAdjust="spacing" textLength="30" x="446.0395" y="474.7344">Stock</text><line style="stroke:#A80036;stroke-width:1.5;" x1="418.0395" x2="478.0395" y1="486.1992" y2="486.1992"/><line style="stroke:#A80036;stroke-width:1.5;" x1="418.0395" x2="478.0395" y1="494.1992" y2="494.1992"/><!--MD5=[1a47157467d69c83c0a10e9152875283]
class Stack--><rect codeLine="10" fill="#FEFECE" filter="url(#foeol7psmhxt3)" height="48" id="Stack" style="stroke:#A80036;stroke-width:1.5;" width="62" x="329.0395" y="34.1992"/><ellipse cx="344.0395" cy="50.1992" fill="#ADD1B2" rx="11" ry="11" style="stroke:#A80036;stroke-width:1.0;"/><path d="M346.5127,56.3423 Q345.9316,56.6411 345.2925,56.7905 Q344.6533,56.9399 343.9477,56.9399 Q341.4409,56.9399 340.1211,55.2881 Q338.8013,53.6362 338.8013,50.5151 Q338.8013,47.3857 340.1211,45.7339 Q341.4409,44.082 343.9477,44.082 Q344.6533,44.082 345.3008,44.2314 Q345.9482,44.3809 346.5127,44.6797 L346.5127,47.4023 Q345.8818,46.8213 345.2883,46.5515 Q344.6948,46.2817 344.064,46.2817 Q342.7192,46.2817 342.0344,47.3484 Q341.3496,48.415 341.3496,50.5151 Q341.3496,52.6069 342.0344,53.6736 Q342.7192,54.7402 344.064,54.7402 Q344.6948,54.7402 345.2883,54.4705 Q345.8818,54.2007 346.5127,53.6196 Z " fill="#000000"/><text fill="#000000" font-family="sans-serif" font-size="12" lengthAdjust="spacing" textLength="30" x="358.0395" y="54.7344">Stack</text><line style="stroke:#A80036;stroke-width:1.5;" x1="330.0395" x2="390.0395" y1="66.1992" y2="66.1992"/><line style="stroke:#A80036;stroke-width:1.5;" x1="330.0395" x2="390.0395" y1="74.1992" y2="74.1992"/><!--MD5=[0992d3fdc9d3d7c02b735131bb70871d]
class Goal--><rect codeLine="11" fill="#FEFECE" filter="url(#foeol7psmhxt3)" height="48" id="Goal" style="stroke:#A80036;stroke-width:1.5;" width="58" x="56.0395" y="202.1992"/><ellipse cx="71.0395" cy="218.1992" fill="#ADD1B2" rx="11" ry="11" style="stroke:#A80036;stroke-width:1.0;"/><path d="M73.5127,224.3423 Q72.9316,224.6411 72.2925,224.7905 Q71.6533,224.9399 70.9477,224.9399 Q68.4409,224.9399 67.1211,223.2881 Q65.8013,221.6362 65.8013,218.5151 Q65.8013,215.3857 67.1211,213.7339 Q68.4409,212.082 70.9477,212.082 Q71.6533,212.082 72.3008,212.2314 Q72.9482,212.3809 73.5127,212.6797 L73.5127,215.4023 Q72.8818,214.8213 72.2883,214.5515 Q71.6948,214.2817 71.064,214.2817 Q69.7192,214.2817 69.0344,215.3484 Q68.3496,216.415 68.3496,218.5151 Q68.3496,220.6069 69.0344,221.6736 Q69.7192,222.7402 71.064,222.7402 Q71.6948,222.7402 72.2883,222.4705 Q72.8818,222.2007 73.5127,221.6196 Z " fill="#000000"/><text fill="#000000" font-family="sans-serif" font-size="12" lengthAdjust="spacing" textLength="26" x="85.0395" y="222.7344">Goal</text><line style="stroke:#A80036;stroke-width:1.5;" x1="57.0395" x2="113.0395" y1="234.1992" y2="234.1992"/><line style="stroke:#A80036;stroke-width:1.5;" x1="57.0395" x2="113.0395" y1="242.1992" y2="242.1992"/><!--MD5=[5e305716458bbdabbd2d7f572ed2bae2]
class Card--><rect codeLine="12" fill="#FEFECE" filter="url(#foeol7psmhxt3)" height="48" id="Card" style="stroke:#A80036;stroke-width:1.5;" width="60" x="242.0395" y="454.1992"/><ellipse cx="257.0395" cy="470.1992" fill="#ADD1B2" rx="11" ry="11" style="stroke:#A80036;stroke-width:1.0;"/><path d="M259.5127,476.3423 Q258.9316,476.6411 258.2925,476.7905 Q257.6533,476.9399 256.9477,476.9399 Q254.4409,476.9399 253.1211,475.2881 Q251.8013,473.6362 251.8013,470.5151 Q251.8013,467.3857 253.1211,465.7339 Q254.4409,464.082 256.9477,464.082 Q257.6533,464.082 258.3008,464.2314 Q258.9482,464.3809 259.5127,464.6797 L259.5127,467.4023 Q258.8818,466.8213 258.2883,466.5515 Q257.6948,466.2817 257.064,466.2817 Q255.7192,466.2817 255.0344,467.3484 Q254.3496,468.415 254.3496,470.5151 Q254.3496,472.6069 255.0344,473.6736 Q255.7192,474.7402 257.064,474.7402 Q257.6948,474.7402 258.2883,474.4705 Q258.8818,474.2007 259.5127,473.6196 Z " fill="#000000"/><text fill="#000000" font-family="sans-serif" font-size="12" lengthAdjust="spacing" textLength="28" x="271.0395" y="474.7344">Card</text><line style="stroke:#A80036;stroke-width:1.5;" x1="243.0395" x2="301.0395" y1="486.1992" y2="486.1992"/><line style="stroke:#A80036;stroke-width:1.5;" x1="243.0395" x2="301.0395" y1="494.1992" y2="494.1992"/><!--MD5=[f8e7078f77c005d15b486c0c98deb1e6]
class Action--><rect codeLine="13" fill="#FEFECE" filter="url(#foeol7psmhxt3)" height="48" id="Action" style="stroke:#A80036;stroke-width:1.5;" width="67" x="210.5395" y="202.1992"/><ellipse cx="225.5395" cy="218.1992" fill="#ADD1B2" rx="11" ry="11" style="stroke:#A80036;stroke-width:1.0;"/><path d="M228.0127,224.3423 Q227.4316,224.6411 226.7925,224.7905 Q226.1533,224.9399 225.4477,224.9399 Q222.9409,224.9399 221.6211,223.2881 Q220.3013,221.6362 220.3013,218.5151 Q220.3013,215.3857 221.6211,213.7339 Q222.9409,212.082 225.4477,212.082 Q226.1533,212.082 226.8008,212.2314 Q227.4482,212.3809 228.0127,212.6797 L228.0127,215.4023 Q227.3818,214.8213 226.7883,214.5515 Q226.1948,214.2817 225.564,214.2817 Q224.2192,214.2817 223.5344,215.3484 Q222.8496,216.415 222.8496,218.5151 Q222.8496,220.6069 223.5344,221.6736 Q224.2192,222.7402 225.564,222.7402 Q226.1948,222.7402 226.7883,222.4705 Q227.3818,222.2007 228.0127,221.6196 Z " fill="#000000"/><text fill="#000000" font-family="sans-serif" font-size="12" lengthAdjust="spacing" textLength="35" x="239.5395" y="222.7344">Action</text><line style="stroke:#A80036;stroke-width:1.5;" x1="211.5395" x2="276.5395" y1="234.1992" y2="234.1992"/><line style="stroke:#A80036;stroke-width:1.5;" x1="211.5395" x2="276.5395" y1="242.1992" y2="242.1992"/><!--MD5=[2743c34aa2b8a300d8bab9b4b445451e]
class Shuffle--><rect codeLine="14" fill="#FEFECE" filter="url(#foeol7psmhxt3)" height="48" id="Shuffle" style="stroke:#A80036;stroke-width:1.5;" width="70" x="228.0395" y="286.1992"/><ellipse cx="243.0395" cy="302.1992" fill="#ADD1B2" rx="11" ry="11" style="stroke:#A80036;stroke-width:1.0;"/><path d="M245.5127,308.3423 Q244.9316,308.6411 244.2925,308.7905 Q243.6533,308.9399 242.9477,308.9399 Q240.4409,308.9399 239.1211,307.2881 Q237.8013,305.6362 237.8013,302.5151 Q237.8013,299.3857 239.1211,297.7339 Q240.4409,296.082 242.9477,296.082 Q243.6533,296.082 244.3008,296.2314 Q244.9482,296.3809 245.5127,296.6797 L245.5127,299.4023 Q244.8818,298.8213 244.2883,298.5515 Q243.6948,298.2817 243.064,298.2817 Q241.7192,298.2817 241.0344,299.3484 Q240.3496,300.415 240.3496,302.5151 Q240.3496,304.6069 241.0344,305.6736 Q241.7192,306.7402 243.064,306.7402 Q243.6948,306.7402 244.2883,306.4705 Q244.8818,306.2007 245.5127,305.6196 Z " fill="#000000"/><text fill="#000000" font-family="sans-serif" font-size="12" lengthAdjust="spacing" textLength="38" x="257.0395" y="306.7344">Shuffle</text><line style="stroke:#A80036;stroke-width:1.5;" x1="229.0395" x2="297.0395" y1="318.1992" y2="318.1992"/><line style="stroke:#A80036;stroke-width:1.5;" x1="229.0395" x2="297.0395" y1="326.1992" y2="326.1992"/><!--MD5=[1981719fa3982d92ef7fd3f06d73b3e7]
class Move--><rect codeLine="15" fill="#FEFECE" filter="url(#foeol7psmhxt3)" height="48" id="Move" style="stroke:#A80036;stroke-width:1.5;" width="62" x="72.0395" y="286.1992"/><ellipse cx="87.0395" cy="302.1992" fill="#ADD1B2" rx="11" ry="11" style="stroke:#A80036;stroke-width:1.0;"/><path d="M89.5127,308.3423 Q88.9316,308.6411 88.2925,308.7905 Q87.6533,308.9399 86.9477,308.9399 Q84.4409,308.9399 83.1211,307.2881 Q81.8013,305.6362 81.8013,302.5151 Q81.8013,299.3857 83.1211,297.7339 Q84.4409,296.082 86.9477,296.082 Q87.6533,296.082 88.3008,296.2314 Q88.9482,296.3809 89.5127,296.6797 L89.5127,299.4023 Q88.8818,298.8213 88.2883,298.5515 Q87.6948,298.2817 87.064,298.2817 Q85.7192,298.2817 85.0344,299.3484 Q84.3496,300.415 84.3496,302.5151 Q84.3496,304.6069 85.0344,305.6736 Q85.7192,306.7402 87.064,306.7402 Q87.6948,306.7402 88.2883,306.4705 Q88.8818,306.2007 89.5127,305.6196 Z " fill="#000000"/><text fill="#000000" font-family="sans-serif" font-size="12" lengthAdjust="spacing" textLength="30" x="101.0395" y="306.7344">Move</text><line style="stroke:#A80036;stroke-width:1.5;" x1="73.0395" x2="133.0395" y1="318.1992" y2="318.1992"/><line style="stroke:#A80036;stroke-width:1.5;" x1="73.0395" x2="133.0395" y1="326.1992" y2="326.1992"/><!--MD5=[fe139ee4e479f23285df0f8136f9d541]
class Deal--><rect codeLine="16" fill="#FEFECE" filter="url(#foeol7psmhxt3)" height="48" id="Deal" style="stroke:#A80036;stroke-width:1.5;" width="58" x="316.0395" y="286.1992"/><ellipse cx="331.0395" cy="302.1992" fill="#ADD1B2" rx="11" ry="11" style="stroke:#A80036;stroke-width:1.0;"/><path d="M333.5127,308.3423 Q332.9316,308.6411 332.2925,308.7905 Q331.6533,308.9399 330.9477,308.9399 Q328.4409,308.9399 327.1211,307.2881 Q325.8013,305.6362 325.8013,302.5151 Q325.8013,299.3857 327.1211,297.7339 Q328.4409,296.082 330.9477,296.082 Q331.6533,296.082 332.3008,296.2314 Q332.9482,296.3809 333.5127,296.6797 L333.5127,299.4023 Q332.8818,298.8213 332.2883,298.5515 Q331.6948,298.2817 331.064,298.2817 Q329.7192,298.2817 329.0344,299.3484 Q328.3496,300.415 328.3496,302.5151 Q328.3496,304.6069 329.0344,305.6736 Q329.7192,306.7402 331.064,306.7402 Q331.6948,306.7402 332.2883,306.4705 Q332.8818,306.2007 333.5127,305.6196 Z " fill="#000000"/><text fill="#000000" font-family="sans-serif" font-size="12" lengthAdjust="spacing" textLength="26" x="345.0395" y="306.7344">Deal</text><line style="stroke:#A80036;stroke-width:1.5;" x1="317.0395" x2="373.0395" y1="318.1992" y2="318.1992"/><line style="stroke:#A80036;stroke-width:1.5;" x1="317.0395" x2="373.0395" y1="326.1992" y2="326.1992"/><path d="M68.0395,82.4778 C68.0395,93.6522 68.0395,107.0014 68.0395,118.1463 " fill="none" style="stroke:#A80036;stroke-width:1.0;"/><polygon fill="#A80036" points="68.0395,82.4778,64.0395,88.4778,68.0395,94.4778,72.0395,88.4778,68.0395,82.4778" style="stroke:#A80036;stroke-width:1.0;"/><polygon fill="#A80036" points="68.0395,118.1463,72.0395,109.1463,68.0395,113.1463,64.0395,109.1463,68.0395,118.1463" style="stroke:#A80036;stroke-width:1.0;"/><text fill="#000000" font-family="sans-serif" font-size="13" lengthAdjust="spacing" textLength="8" x="59.0395" y="114.7146">1</text><path d="M101.5558,162.6803 C104.3794,163.9738 107.2296,165.1691 110.0395,166.1992 C185.0027,193.6809 214.4168,166.9161 286.0395,202.1992 C337.1982,227.4012 359.3409,234.3271 383.0395,286.1992 C395.4475,313.3581 384.921,347.7512 375.0433,370.1034 " fill="none" style="stroke:#A80036;stroke-width:1.0;"/><polygon fill="#A80036" points="101.5558,162.6803,105.3446,168.8158,112.4654,167.6782,108.6766,161.5427,101.5558,162.6803" style="stroke:#A80036;stroke-width:1.0;"/><polygon fill="#A80036" points="375.0433,370.1034,382.3398,363.4882,377.0643,365.5301,375.0224,360.2546,375.0433,370.1034" style="stroke:#A80036;stroke-width:1.0;"/><text fill="#000000" font-family="sans-serif" font-size="13" lengthAdjust="spacing" textLength="8" x="366.0433" y="366.6718">1</text><path d="M337.206,418.4778 C324.8051,429.6522 309.9908,443.0014 297.6227,454.1463 " fill="none" style="stroke:#A80036;stroke-width:1.0;"/><polygon fill="#A80036" points="337.206,418.4778,330.071,419.5227,328.2913,426.5108,335.4263,425.4658,337.206,418.4778" style="stroke:#A80036;stroke-width:1.0;"/><polygon fill="#A80036" points="297.6227,454.1463,306.9864,451.0931,301.3371,450.7992,301.631,445.15,297.6227,454.1463" style="stroke:#A80036;stroke-width:1.0;"/><text fill="#000000" font-family="sans-serif" font-size="13" lengthAdjust="spacing" textLength="16" x="280.6227" y="450.7146">52</text><path d="M72.8656,166.4778 C75.1822,177.6522 77.9497,191.0014 80.2603,202.1463 " fill="none" style="stroke:#A80036;stroke-width:1.0;"/><polygon fill="#FFFFFF" points="72.8656,166.4778,70.1669,173.1649,75.3016,178.2279,78.0003,171.5409,72.8656,166.4778" style="stroke:#A80036;stroke-width:1.0;"/><polygon fill="#A80036" points="80.2603,202.1463,82.35,192.5216,79.2453,197.2504,74.5165,194.1457,80.2603,202.1463" style="stroke:#A80036;stroke-width:1.0;"/><text fill="#000000" font-family="sans-serif" font-size="13" lengthAdjust="spacing" textLength="8" x="71.2603" y="198.7146">1</text><path d="M249.4334,250.4778 C252.0225,261.6522 255.1156,275.0014 257.698,286.1463 " fill="none" style="stroke:#A80036;stroke-width:1.0;"/><polygon fill="#FFFFFF" points="249.4334,250.4778,247.1998,267.4192,258.8901,264.7105,249.4334,250.4778" style="stroke:#A80036;stroke-width:1.0;"/><text fill="#000000" font-family="sans-serif" font-size="13" lengthAdjust="spacing" textLength="8" x="248.698" y="282.7146">1</text><path d="M210.2665,246.8403 C187.1285,260.2964 156.6678,278.0111 134.1271,291.1199 " fill="none" style="stroke:#A80036;stroke-width:1.0;"/><polygon fill="#FFFFFF" points="210.2665,246.8403,193.419,249.6972,199.4518,260.0706,210.2665,246.8403" style="stroke:#A80036;stroke-width:1.0;"/><text fill="#000000" font-family="sans-serif" font-size="13" lengthAdjust="spacing" textLength="6" x="135.1271" y="287.6883">*</text><path d="M272.4425,250.259 C286.2122,261.4384 302.7122,274.8344 316.4999,286.0284 " fill="none" style="stroke:#A80036;stroke-width:1.0;"/><polygon fill="#FFFFFF" points="272.4425,250.259,281.0822,265.002,288.6459,255.6858,272.4425,250.259" style="stroke:#A80036;stroke-width:1.0;"/><text fill="#000000" font-family="sans-serif" font-size="13" lengthAdjust="spacing" textLength="6" x="309.4999" y="282.5968">*</text><path d="M99.0211,376.3194 C85.5527,365.9675 70.418,351.406 63.0395,334.1992 C51.3051,306.834 62.2382,272.7898 72.4491,250.5512 " fill="none" style="stroke:#A80036;stroke-width:1.0;stroke-dasharray:7.0,7.0;"/><polygon fill="#A80036" points="99.0211,376.3194,94.3229,367.6633,95.0568,373.2724,89.4478,374.0062,99.0211,376.3194" style="stroke:#A80036;stroke-width:1.0;"/><text fill="#000000" font-family="sans-serif" font-size="13" lengthAdjust="spacing" textLength="8" x="90.0211" y="372.8877">1</text><path d="M143.761,166.4778 C132.5866,177.6522 119.2374,191.0014 108.0925,202.1463 " fill="none" style="stroke:#A80036;stroke-width:1.0;stroke-dasharray:7.0,7.0;"/><polygon fill="#A80036" points="143.761,166.4778,134.5686,170.0133,140.2254,170.0133,140.2254,175.6702,143.761,166.4778" style="stroke:#A80036;stroke-width:1.0;"/><text fill="#000000" font-family="sans-serif" font-size="13" lengthAdjust="spacing" textLength="8" x="134.761" y="180.0461">1</text><path d="M90.1495,250.4778 C92.6024,261.6522 95.5327,275.0014 97.9791,286.1463 " fill="none" style="stroke:#A80036;stroke-width:1.0;stroke-dasharray:7.0,7.0;"/><polygon fill="#A80036" points="97.9791,286.1463,99.9564,276.4979,96.9071,281.2625,92.1425,278.2132,97.9791,286.1463" style="stroke:#A80036;stroke-width:1.0;"/><text fill="#000000" font-family="sans-serif" font-size="13" lengthAdjust="spacing" textLength="8" x="88.9791" y="282.7146">1</text><path d="M350.1495,334.4778 C352.6024,345.6522 355.5327,359.0014 357.9791,370.1463 " fill="none" style="stroke:#A80036;stroke-width:1.0;stroke-dasharray:7.0,7.0;"/><polygon fill="#A80036" points="357.9791,370.1463,359.9564,360.4979,356.9071,365.2625,352.1425,362.2132,357.9791,370.1463" style="stroke:#A80036;stroke-width:1.0;"/><text fill="#000000" font-family="sans-serif" font-size="13" lengthAdjust="spacing" textLength="6" x="350.9791" y="366.7146">*</text><path d="M231.6947,250.3292 C226.7061,260.9407 221.5419,273.8799 219.0395,286.1992 C214.793,307.1056 215.2734,313.2009 219.0395,334.1992 C226.9388,378.2421 247.5063,426.4549 260.5735,454.1379 " fill="none" style="stroke:#A80036;stroke-width:1.0;stroke-dasharray:7.0,7.0;"/><polygon fill="#A80036" points="260.5735,454.1379,260.3489,444.2916,258.4391,449.6163,253.1144,447.7065,260.5735,454.1379" style="stroke:#A80036;stroke-width:1.0;"/><text fill="#000000" font-family="sans-serif" font-size="13" lengthAdjust="spacing" textLength="6" x="253.5735" y="450.7062">*</text><path d="M109.285,334.4778 C112.283,345.6522 115.8645,359.0014 118.8546,370.1463 " fill="none" style="stroke:#A80036;stroke-width:1.0;stroke-dasharray:7.0,7.0;"/><polygon fill="#A80036" points="118.8546,370.1463,120.3858,360.4172,117.559,365.317,112.6591,362.4902,118.8546,370.1463" style="stroke:#A80036;stroke-width:1.0;"/><text fill="#000000" font-family="sans-serif" font-size="13" lengthAdjust="spacing" textLength="6" x="111.8546" y="366.7146">*</text><path d="M95.88,82.259 C109.3771,93.4384 125.5503,106.8344 139.065,118.0284 " fill="none" style="stroke:#A80036;stroke-width:1.0;"/><polygon fill="#A80036" points="95.88,82.259,97.9493,89.1668,105.1216,89.9136,103.0523,83.0058,95.88,82.259" style="stroke:#A80036;stroke-width:1.0;"/><polygon fill="#A80036" points="139.065,118.0284,134.6854,109.2069,135.2144,114.839,129.5823,115.3679,139.065,118.0284" style="stroke:#A80036;stroke-width:1.0;"/><text fill="#000000" font-family="sans-serif" font-size="13" lengthAdjust="spacing" textLength="8" x="130.065" y="114.5968">4</text><path d="M214.9082,151.651 C251.3556,159.8915 301.3411,175.239 338.0395,202.1992 C375.4345,229.6711 385.0113,242.2989 400.0395,286.1992 C419.0424,341.7101 433.8188,368.8773 402.0395,418.1992 C380.0908,452.2641 333.1509,466.8826 302.0951,472.9993 " fill="none" style="stroke:#A80036;stroke-width:1.0;"/><polygon fill="#A80036" points="214.9082,151.651,219.8783,156.8757,226.6127,154.2973,221.6426,149.0726,214.9082,151.651" style="stroke:#A80036;stroke-width:1.0;"/><polygon fill="#A80036" points="302.0951,472.9993,311.6984,475.1847,307.0008,472.0331,310.1525,467.3355,302.0951,472.9993" style="stroke:#A80036;stroke-width:1.0;"/><text fill="#000000" font-family="sans-serif" font-size="13" lengthAdjust="spacing" textLength="32" x="303.0951" y="469.5677">0..13</text><path d="M46.0203,82.2253 C37.7491,92.417 29.3185,105.063 25.0395,118.1992 C6,176.6492 28.7112,290.389 54.0395,334.1992 C64.7083,352.6529 83.4554,367.8569 99.0072,378.2069 " fill="none" style="stroke:#A80036;stroke-width:1.0;"/><polygon fill="#A80036" points="46.0203,82.2253,39.1335,84.3635,38.4585,91.543,45.3453,89.4047,46.0203,82.2253" style="stroke:#A80036;stroke-width:1.0;"/><polygon fill="#A80036" points="99.0072,378.2069,93.731,369.8906,94.8448,375.4367,89.2986,376.5506,99.0072,378.2069" style="stroke:#A80036;stroke-width:1.0;"/><text fill="#000000" font-family="sans-serif" font-size="13" lengthAdjust="spacing" textLength="8" x="90.0072" y="391.7753">7</text><path d="M151.3202,409.8592 C176.7557,424.0477 215.2747,445.5345 241.9316,460.4043 " fill="none" style="stroke:#A80036;stroke-width:1.0;"/><polygon fill="#A80036" points="151.3202,409.8592,154.6115,416.2754,161.8,415.705,158.5087,409.2888,151.3202,409.8592" style="stroke:#A80036;stroke-width:1.0;"/><polygon fill="#A80036" points="241.9316,460.4043,236.0204,452.5267,237.565,457.9685,232.1232,459.5132,241.9316,460.4043" style="stroke:#A80036;stroke-width:1.0;"/><text fill="#000000" font-family="sans-serif" font-size="13" lengthAdjust="spacing" textLength="24" x="216.9316" y="456.9727">0..7</text><path d="M151.0708,394.1992 C211.515,394.1992 271.9592,394.1992 332.4034,394.1992 " fill="none" style="stroke:#A80036;stroke-width:1.0;stroke-dasharray:7.0,7.0;"/><polygon fill="#A80036" points="332.4034,394.1992,323.4034,390.1992,327.4034,394.1992,323.4034,398.1992,332.4034,394.1992" style="stroke:#A80036;stroke-width:1.0;"/><text fill="#000000" font-family="sans-serif" font-size="13" lengthAdjust="spacing" textLength="8" x="323.4034" y="390.7676">1</text><path d="M387.1698,418.4778 C398.753,429.6522 412.5905,443.0014 424.1432,454.1463 " fill="none" style="stroke:#A80036;stroke-width:1.0;stroke-dasharray:7.0,7.0;"/><polygon fill="#A80036" points="387.1698,418.4778,390.8698,427.6052,390.7682,421.9493,396.4242,421.8476,387.1698,418.4778" style="stroke:#A80036;stroke-width:1.0;"/><text fill="#000000" font-family="sans-serif" font-size="13" lengthAdjust="spacing" textLength="8" x="378.1698" y="432.0461">1</text><path d="M369.9088,82.4607 C388.8445,130.4007 426.1776,243.3223 400.0395,334.1992 C396.3633,346.9807 389.015,359.6714 381.829,369.9894 " fill="none" style="stroke:#A80036;stroke-width:1.0;"/><polygon fill="#FFFFFF" points="369.9088,82.4607,370.2062,99.5462,381.3671,95.1377,369.9088,82.4607" style="stroke:#A80036;stroke-width:1.0;"/><text fill="#000000" font-family="sans-serif" font-size="13" lengthAdjust="spacing" textLength="8" x="382.829" y="366.5577">1</text><path d="M391.2335,74.5441 C436.7583,99.3913 516.0395,153.0236 516.0395,225.1992 C516.0395,225.1992 516.0395,225.1992 516.0395,311.1992 C516.0395,365.545 484.4444,422.9314 464.3272,453.9624 " fill="none" style="stroke:#A80036;stroke-width:1.0;"/><polygon fill="#FFFFFF" points="391.2335,74.5441,402.4034,87.4761,408.1524,76.9428,391.2335,74.5441" style="stroke:#A80036;stroke-width:1.0;"/><text fill="#000000" font-family="sans-serif" font-size="13" lengthAdjust="spacing" textLength="8" x="455.3272" y="450.5307">1</text><path d="M329.0308,72.3739 C298.1295,85.503 250.2642,105.8395 214.5656,121.0068 " fill="none" style="stroke:#A80036;stroke-width:1.0;"/><polygon fill="#FFFFFF" points="329.0308,72.3739,311.9585,73.1083,316.651,84.1528,329.0308,72.3739" style="stroke:#A80036;stroke-width:1.0;"/><text fill="#000000" font-family="sans-serif" font-size="13" lengthAdjust="spacing" textLength="8" x="215.5656" y="117.5752">1</text><path d="M328.9165,80.3596 C293.6867,105.7023 236.5881,151.1757 201.0395,202.1992 C181.2503,230.603 147.8089,325.6447 132.7714,370.0146 " fill="none" style="stroke:#A80036;stroke-width:1.0;"/><polygon fill="#FFFFFF" points="328.9165,80.3596,312.4242,84.8322,319.4317,94.5736,328.9165,80.3596" style="stroke:#A80036;stroke-width:1.0;"/><text fill="#000000" font-family="sans-serif" font-size="13" lengthAdjust="spacing" textLength="8" x="123.7714" y="366.5829">1</text><!--MD5=[9af555a5857aefdff521a5d7494307a6]
@startuml Class Diagram
!pragma layout smetana
title Klondike  - Class Diagram

class Klondike
class Player
class Foundation
class Pile
class Deck
class Stock
class Stack
class Goal
class Card
class Action
class Shuffle
class Move
class Deal


Klondike *-down-> "1" Player
Player *-down-> "1" Deck
Deck *-down-> "52" Card
Player o-down-> "1" Goal
Action <|-down- "1" Shuffle
Action <|-down- "*" Move
Action <|-down- "*" Deal
Goal .up.> "1" Pile
Goal .up.> "1" Foundation
Goal .down.> "1" Move
Deal .down.> "*" Deck
Action .down.> "*" Card
Move .down.> "*" Pile

Klondike *-down-> "4" Foundation
Foundation *-down-> "0..13" Card
Klondike *-down-> "7" Pile
Pile *-down-> "0..7" Card
Pile .right.> "1" Deck
Stock .up.> "1" Deck

Stack <|-down- "1" Deck
Stack <|-down- "1" Stock
Stack <|-down- "1" Foundation
Stack <|-down- "1" Pile

@enduml

PlantUML version 1.2022.0(Tue Jan 11 11:16:42 ECT 2022)
(GPL source distribution)
Java Runtime: OpenJDK Runtime Environment
JVM: OpenJDK 64-Bit Server VM
Default Encoding: UTF-8
Language: es
Country: EC
--></g></svg>