<?xml version="1.0" encoding="UTF-8" standalone="no"?><svg xmlns="http://www.w3.org/2000/svg" xmlns:xlink="http://www.w3.org/1999/xlink" contentScriptType="application/ecmascript" contentStyleType="text/css" height="271px" preserveAspectRatio="none" style="width:935px;height:271px;background:#FFFFFF;" version="1.1" viewBox="0 0 935 271" width="935px" zoomAndPan="magnify"><defs><filter height="300%" id="fyf6hznnaprpb" width="300%" x="-1" y="-1"><feGaussianBlur result="blurOut" stdDeviation="2.0"/><feColorMatrix in="blurOut" result="blurOut2" type="matrix" values="0 0 0 0 0 0 0 0 0 0 0 0 0 0 0 0 0 0 .4 0"/><feOffset dx="4.0" dy="4.0" in="blurOut2" result="blurOut3"/><feBlend in="SourceGraphic" in2="blurOut3" mode="normal"/></filter></defs><g><rect fill="#FEFECE" filter="url(#fyf6hznnaprpb)" height="34.1328" style="stroke:#A80036;stroke-width:1.5;" width="68" x="302" y="13.1328"/><text fill="#000000" font-family="sans-serif" font-size="12" lengthAdjust="spacing" textLength="54" x="309" y="26.7344">:Klondike</text><line style="stroke:#A80036;stroke-width:1.5;" x1="303" x2="369" y1="31.2656" y2="31.2656"/><rect fill="#FEFECE" filter="url(#fyf6hznnaprpb)" height="34.1328" style="stroke:#A80036;stroke-width:1.5;" width="47" x="67.5" y="83.1328"/><text fill="#000000" font-family="sans-serif" font-size="12" lengthAdjust="spacing" textLength="33" x="74.5" y="96.7344">:Deck</text><line style="stroke:#A80036;stroke-width:1.5;" x1="68.5" x2="113.5" y1="101.2656" y2="101.2656"/><rect fill="#FEFECE" filter="url(#fyf6hznnaprpb)" height="34.1328" style="stroke:#A80036;stroke-width:1.5;" width="48" x="10" y="153.1328"/><text fill="#000000" font-family="sans-serif" font-size="12" lengthAdjust="spacing" textLength="34" x="17" y="166.7344">:Stock</text><line style="stroke:#A80036;stroke-width:1.5;" x1="11" x2="57" y1="171.2656" y2="171.2656"/><rect fill="#FEFECE" filter="url(#fyf6hznnaprpb)" height="34.1328" style="stroke:#A80036;stroke-width:1.5;" width="38" x="317" y="83.1328"/><text fill="#000000" font-family="sans-serif" font-size="12" lengthAdjust="spacing" textLength="24" x="324" y="96.7344">:Pile</text><line style="stroke:#A80036;stroke-width:1.5;" x1="318" x2="354" y1="101.2656" y2="101.2656"/><rect fill="#FEFECE" filter="url(#fyf6hznnaprpb)" height="34.1328" style="stroke:#A80036;stroke-width:1.5;" width="87" x="644.5" y="83.1328"/><text fill="#000000" font-family="sans-serif" font-size="12" lengthAdjust="spacing" textLength="73" x="651.5" y="96.7344">:Foundations</text><line style="stroke:#A80036;stroke-width:1.5;" x1="645.5" x2="730.5" y1="101.2656" y2="101.2656"/><rect fill="#FEFECE" filter="url(#fyf6hznnaprpb)" height="34.1328" style="stroke:#A80036;stroke-width:1.5;" width="39" x="487.5" y="153.1328"/><text fill="#000000" font-family="sans-serif" font-size="12" lengthAdjust="spacing" textLength="25" x="494.5" y="166.7344">:pile</text><line style="stroke:#A80036;stroke-width:1.5;" x1="488.5" x2="525.5" y1="171.2656" y2="171.2656"/><rect fill="#FEFECE" filter="url(#fyf6hznnaprpb)" height="34.1328" style="stroke:#A80036;stroke-width:1.5;" width="39" x="430.5" y="153.1328"/><text fill="#000000" font-family="sans-serif" font-size="12" lengthAdjust="spacing" textLength="25" x="437.5" y="166.7344">:pile</text><line style="stroke:#A80036;stroke-width:1.5;" x1="431.5" x2="468.5" y1="171.2656" y2="171.2656"/><rect fill="#FEFECE" filter="url(#fyf6hznnaprpb)" height="34.1328" style="stroke:#A80036;stroke-width:1.5;" width="39" x="373.5" y="153.1328"/><text fill="#000000" font-family="sans-serif" font-size="12" lengthAdjust="spacing" textLength="25" x="380.5" y="166.7344">:pile</text><line style="stroke:#A80036;stroke-width:1.5;" x1="374.5" x2="411.5" y1="171.2656" y2="171.2656"/><rect fill="#FEFECE" filter="url(#fyf6hznnaprpb)" height="34.1328" style="stroke:#A80036;stroke-width:1.5;" width="39" x="316.5" y="153.1328"/><text fill="#000000" font-family="sans-serif" font-size="12" lengthAdjust="spacing" textLength="25" x="323.5" y="166.7344">:pile</text><line style="stroke:#A80036;stroke-width:1.5;" x1="317.5" x2="354.5" y1="171.2656" y2="171.2656"/><rect fill="#FEFECE" filter="url(#fyf6hznnaprpb)" height="34.1328" style="stroke:#A80036;stroke-width:1.5;" width="39" x="259.5" y="153.1328"/><text fill="#000000" font-family="sans-serif" font-size="12" lengthAdjust="spacing" textLength="25" x="266.5" y="166.7344">:pile</text><line style="stroke:#A80036;stroke-width:1.5;" x1="260.5" x2="297.5" y1="171.2656" y2="171.2656"/><rect fill="#FEFECE" filter="url(#fyf6hznnaprpb)" height="34.1328" style="stroke:#A80036;stroke-width:1.5;" width="39" x="202.5" y="153.1328"/><text fill="#000000" font-family="sans-serif" font-size="12" lengthAdjust="spacing" textLength="25" x="209.5" y="166.7344">:pile</text><line style="stroke:#A80036;stroke-width:1.5;" x1="203.5" x2="240.5" y1="171.2656" y2="171.2656"/><rect fill="#FEFECE" filter="url(#fyf6hznnaprpb)" height="34.1328" style="stroke:#A80036;stroke-width:1.5;" width="39" x="145.5" y="153.1328"/><text fill="#000000" font-family="sans-serif" font-size="12" lengthAdjust="spacing" textLength="25" x="152.5" y="166.7344">:pile</text><line style="stroke:#A80036;stroke-width:1.5;" x1="146.5" x2="183.5" y1="171.2656" y2="171.2656"/><rect fill="#FEFECE" filter="url(#fyf6hznnaprpb)" height="34.1328" style="stroke:#A80036;stroke-width:1.5;" width="79" x="842.5" y="153.1328"/><text fill="#000000" font-family="sans-serif" font-size="12" lengthAdjust="spacing" textLength="65" x="849.5" y="166.7344">:foundation</text><line style="stroke:#A80036;stroke-width:1.5;" x1="843.5" x2="920.5" y1="171.2656" y2="171.2656"/><rect fill="#FEFECE" filter="url(#fyf6hznnaprpb)" height="34.1328" style="stroke:#A80036;stroke-width:1.5;" width="79" x="745.5" y="153.1328"/><text fill="#000000" font-family="sans-serif" font-size="12" lengthAdjust="spacing" textLength="65" x="752.5" y="166.7344">:foundation</text><line style="stroke:#A80036;stroke-width:1.5;" x1="746.5" x2="823.5" y1="171.2656" y2="171.2656"/><rect fill="#FEFECE" filter="url(#fyf6hznnaprpb)" height="34.1328" style="stroke:#A80036;stroke-width:1.5;" width="79" x="648.5" y="153.1328"/><text fill="#000000" font-family="sans-serif" font-size="12" lengthAdjust="spacing" textLength="65" x="655.5" y="166.7344">:foundation</text><line style="stroke:#A80036;stroke-width:1.5;" x1="649.5" x2="726.5" y1="171.2656" y2="171.2656"/><rect fill="#FEFECE" filter="url(#fyf6hznnaprpb)" height="34.1328" style="stroke:#A80036;stroke-width:1.5;" width="79" x="551.5" y="153.1328"/><text fill="#000000" font-family="sans-serif" font-size="12" lengthAdjust="spacing" textLength="65" x="558.5" y="166.7344">:foundation</text><line style="stroke:#A80036;stroke-width:1.5;" x1="552.5" x2="629.5" y1="171.2656" y2="171.2656"/><rect fill="#FEFECE" filter="url(#fyf6hznnaprpb)" height="34.1328" style="stroke:#A80036;stroke-width:1.5;" width="44" x="503" y="223.1328"/><text fill="#000000" font-family="sans-serif" font-size="12" lengthAdjust="spacing" textLength="30" x="510" y="236.7344">:card</text><line style="stroke:#A80036;stroke-width:1.5;" x1="504" x2="546" y1="241.2656" y2="241.2656"/><rect fill="#FEFECE" filter="url(#fyf6hznnaprpb)" height="34.1328" style="stroke:#A80036;stroke-width:1.5;" width="44" x="441" y="223.1328"/><text fill="#000000" font-family="sans-serif" font-size="12" lengthAdjust="spacing" textLength="30" x="448" y="236.7344">:card</text><line style="stroke:#A80036;stroke-width:1.5;" x1="442" x2="484" y1="241.2656" y2="241.2656"/><rect fill="#FEFECE" filter="url(#fyf6hznnaprpb)" height="34.1328" style="stroke:#A80036;stroke-width:1.5;" width="44" x="379" y="223.1328"/><text fill="#000000" font-family="sans-serif" font-size="12" lengthAdjust="spacing" textLength="30" x="386" y="236.7344">:card</text><line style="stroke:#A80036;stroke-width:1.5;" x1="380" x2="422" y1="241.2656" y2="241.2656"/><rect fill="#FEFECE" filter="url(#fyf6hznnaprpb)" height="34.1328" style="stroke:#A80036;stroke-width:1.5;" width="44" x="317" y="223.1328"/><text fill="#000000" font-family="sans-serif" font-size="12" lengthAdjust="spacing" textLength="30" x="324" y="236.7344">:card</text><line style="stroke:#A80036;stroke-width:1.5;" x1="318" x2="360" y1="241.2656" y2="241.2656"/><rect fill="#FEFECE" filter="url(#fyf6hznnaprpb)" height="34.1328" style="stroke:#A80036;stroke-width:1.5;" width="44" x="255" y="223.1328"/><text fill="#000000" font-family="sans-serif" font-size="12" lengthAdjust="spacing" textLength="30" x="262" y="236.7344">:card</text><line style="stroke:#A80036;stroke-width:1.5;" x1="256" x2="298" y1="241.2656" y2="241.2656"/><rect fill="#FEFECE" filter="url(#fyf6hznnaprpb)" height="34.1328" style="stroke:#A80036;stroke-width:1.5;" width="44" x="193" y="223.1328"/><text fill="#000000" font-family="sans-serif" font-size="12" lengthAdjust="spacing" textLength="30" x="200" y="236.7344">:card</text><line style="stroke:#A80036;stroke-width:1.5;" x1="194" x2="236" y1="241.2656" y2="241.2656"/><rect fill="#FEFECE" filter="url(#fyf6hznnaprpb)" height="34.1328" style="stroke:#A80036;stroke-width:1.5;" width="44" x="131" y="223.1328"/><text fill="#000000" font-family="sans-serif" font-size="12" lengthAdjust="spacing" textLength="30" x="138" y="236.7344">:card</text><line style="stroke:#A80036;stroke-width:1.5;" x1="132" x2="174" y1="241.2656" y2="241.2656"/><rect fill="#FEFECE" filter="url(#fyf6hznnaprpb)" height="34.1328" style="stroke:#A80036;stroke-width:1.5;" width="44" x="69" y="223.1328"/><text fill="#000000" font-family="sans-serif" font-size="12" lengthAdjust="spacing" textLength="30" x="76" y="236.7344">:card</text><line style="stroke:#A80036;stroke-width:1.5;" x1="70" x2="112" y1="241.2656" y2="241.2656"/><rect fill="#FEFECE" filter="url(#fyf6hznnaprpb)" height="34.1328" style="stroke:#A80036;stroke-width:1.5;" width="44" x="7" y="223.1328"/><text fill="#000000" font-family="sans-serif" font-size="12" lengthAdjust="spacing" textLength="30" x="14" y="236.7344">:card</text><line style="stroke:#A80036;stroke-width:1.5;" x1="8" x2="50" y1="241.2656" y2="241.2656"/><path d="M301.9338,40.5879 C251.5758,54.5648 158.525,80.3912 114.8329,92.518 " fill="none" style="stroke:#A80036;stroke-width:1.0;"/><polygon fill="#A80036" points="301.9338,40.5879,295.0826,38.3383,290.3709,43.7972,297.2221,46.0469,301.9338,40.5879" style="stroke:#A80036;stroke-width:1.0;"/><polygon fill="#A80036" points="114.8329,92.518,124.5748,93.9653,119.6507,91.1808,122.4353,86.2567,114.8329,92.518" style="stroke:#A80036;stroke-width:1.0;"/><path d="M91,222.7072 C91,196.0475 91,143.6822 91,117.2332 " fill="none" style="stroke:#A80036;stroke-width:1.0;"/><polygon fill="#A80036" points="91,222.7072,95,213.7072,91,217.7072,87,213.7072,91,222.7072" style="stroke:#A80036;stroke-width:1.0;"/><polygon fill="#A80036" points="91,117.2332,87,123.2332,91,129.2332,95,123.2332,91,117.2332" style="stroke:#A80036;stroke-width:1.0;"/><text fill="#000000" font-family="sans-serif" font-size="13" lengthAdjust="spacing" textLength="16" x="74" y="219.2755">21</text><path d="M77.4918,117.2479 C68.5372,127.9305 56.8223,141.9062 47.8072,152.6611 " fill="none" style="stroke:#A80036;stroke-width:1.0;"/><polygon fill="#A80036" points="77.4918,117.2479,70.5719,119.2765,69.783,126.4443,76.7029,124.4157,77.4918,117.2479" style="stroke:#A80036;stroke-width:1.0;"/><polygon fill="#A80036" points="47.8072,152.6611,56.6543,148.3333,51.0192,148.8292,50.5233,143.1941,47.8072,152.6611" style="stroke:#A80036;stroke-width:1.0;"/><path d="M32.8151,187.2479 C32.0296,197.9305 31.002,211.9062 30.2112,222.6611 " fill="none" style="stroke:#A80036;stroke-width:1.0;"/><polygon fill="#A80036" points="32.8151,187.2479,28.3859,192.9384,31.9351,199.2156,36.3643,193.525,32.8151,187.2479" style="stroke:#A80036;stroke-width:1.0;"/><polygon fill="#A80036" points="30.2112,222.6611,34.8604,213.9786,30.5778,217.6745,26.8819,213.392,30.2112,222.6611" style="stroke:#A80036;stroke-width:1.0;"/><text fill="#000000" font-family="sans-serif" font-size="13" lengthAdjust="spacing" textLength="8" x="21.2112" y="219.2294">3</text><path d="M336,47.2479 C336,57.9305 336,71.9062 336,82.6611 " fill="none" style="stroke:#A80036;stroke-width:1.0;"/><polygon fill="#A80036" points="336,47.2479,332,53.2479,336,59.2479,340,53.2479,336,47.2479" style="stroke:#A80036;stroke-width:1.0;"/><polygon fill="#A80036" points="336,82.6611,340,73.6611,336,77.6611,332,73.6611,336,82.6611" style="stroke:#A80036;stroke-width:1.0;"/><path d="M316.9735,104.4079 C288.6129,109.8444 234.1788,122.4459 193,145.1328 C189.0746,147.2955 185.2024,150.0698 181.6478,152.9597 " fill="none" style="stroke:#A80036;stroke-width:1.0;"/><polygon fill="#A80036" points="181.6478,152.9597,191.1544,150.386,185.5274,149.8056,186.1078,144.1786,181.6478,152.9597" style="stroke:#A80036;stroke-width:1.0;"/><path d="M162.1562,187.2479 C160.271,197.9305 157.8047,211.9062 155.9068,222.6611 " fill="none" style="stroke:#A80036;stroke-width:1.0;"/><polygon fill="#A80036" points="162.1562,187.2479,157.1743,192.4614,160.0707,199.0653,165.0526,193.8517,162.1562,187.2479" style="stroke:#A80036;stroke-width:1.0;"/><polygon fill="#A80036" points="155.9068,222.6611,161.41,214.4932,156.7757,217.7371,153.5317,213.1029,155.9068,222.6611" style="stroke:#A80036;stroke-width:1.0;"/><text fill="#000000" font-family="sans-serif" font-size="13" lengthAdjust="spacing" textLength="8" x="146.9068" y="219.2294">1</text><path d="M316.831,109.3583 C298.9107,117.4089 271.7288,130.56 250,145.1328 C246.4906,147.4865 242.9296,150.2217 239.5769,152.9854 " fill="none" style="stroke:#A80036;stroke-width:1.0;"/><polygon fill="#A80036" points="239.5769,152.9854,249.0659,150.3473,243.4351,149.8051,243.9773,144.1743,239.5769,152.9854" style="stroke:#A80036;stroke-width:1.0;"/><path d="M220.3411,187.2479 C219.2414,197.9305 217.8027,211.9062 216.6956,222.6611 " fill="none" style="stroke:#A80036;stroke-width:1.0;"/><polygon fill="#A80036" points="220.3411,187.2479,215.7477,192.8067,219.1123,199.1848,223.7057,193.6259,220.3411,187.2479" style="stroke:#A80036;stroke-width:1.0;"/><polygon fill="#A80036" points="216.6956,222.6611,221.5962,214.118,217.2076,217.6873,213.6382,213.2988,216.6956,222.6611" style="stroke:#A80036;stroke-width:1.0;"/><text fill="#000000" font-family="sans-serif" font-size="13" lengthAdjust="spacing" textLength="8" x="207.6956" y="219.2294">2</text><path d="M322.4918,117.2479 C313.5372,127.9305 301.8223,141.9062 292.8072,152.6611 " fill="none" style="stroke:#A80036;stroke-width:1.0;"/><polygon fill="#A80036" points="292.8072,152.6611,301.6543,148.3333,296.0192,148.8292,295.5233,143.1941,292.8072,152.6611" style="stroke:#A80036;stroke-width:1.0;"/><path d="M278.526,187.2479 C278.2118,197.9305 277.8008,211.9062 277.4845,222.6611 " fill="none" style="stroke:#A80036;stroke-width:1.0;"/><polygon fill="#A80036" points="278.526,187.2479,274.3514,193.1277,278.1732,199.2427,282.3479,193.3629,278.526,187.2479" style="stroke:#A80036;stroke-width:1.0;"/><polygon fill="#A80036" points="277.4845,222.6611,281.7473,213.7826,277.6315,217.6632,273.7508,213.5474,277.4845,222.6611" style="stroke:#A80036;stroke-width:1.0;"/><text fill="#000000" font-family="sans-serif" font-size="13" lengthAdjust="spacing" textLength="8" x="268.4845" y="219.2294">3</text><path d="M336,117.2479 C336,127.9305 336,141.9062 336,152.6611 " fill="none" style="stroke:#A80036;stroke-width:1.0;"/><polygon fill="#A80036" points="336,152.6611,340,143.6611,336,147.6611,332,143.6611,336,152.6611" style="stroke:#A80036;stroke-width:1.0;"/><path d="M336.711,187.2479 C337.1823,197.9305 337.7988,211.9062 338.2733,222.6611 " fill="none" style="stroke:#A80036;stroke-width:1.0;"/><polygon fill="#A80036" points="336.711,187.2479,332.9793,193.4183,337.2399,199.2362,340.9715,193.0657,336.711,187.2479" style="stroke:#A80036;stroke-width:1.0;"/><polygon fill="#A80036" points="338.2733,222.6611,341.8727,213.4935,338.0529,217.6659,333.8805,213.8461,338.2733,222.6611" style="stroke:#A80036;stroke-width:1.0;"/><text fill="#000000" font-family="sans-serif" font-size="13" lengthAdjust="spacing" textLength="8" x="329.2733" y="219.2294">4</text><path d="M349.5082,117.2479 C358.4628,127.9305 370.1777,141.9062 379.1928,152.6611 " fill="none" style="stroke:#A80036;stroke-width:1.0;"/><polygon fill="#A80036" points="379.1928,152.6611,376.4767,143.1941,375.9808,148.8292,370.3457,148.3333,379.1928,152.6611" style="stroke:#A80036;stroke-width:1.0;"/><path d="M394.8959,187.2479 C396.1527,197.9305 397.7969,211.9062 399.0621,222.6611 " fill="none" style="stroke:#A80036;stroke-width:1.0;"/><polygon fill="#A80036" points="394.8959,187.2479,391.6243,193.6741,396.298,199.1657,399.5695,192.7394,394.8959,187.2479" style="stroke:#A80036;stroke-width:1.0;"/><polygon fill="#A80036" points="399.0621,222.6611,401.9832,213.2553,398.4779,217.6953,394.038,214.1901,399.0621,222.6611" style="stroke:#A80036;stroke-width:1.0;"/><text fill="#000000" font-family="sans-serif" font-size="13" lengthAdjust="spacing" textLength="8" x="390.0621" y="219.2294">5</text><path d="M355.2216,109.6387 C372.8904,117.7887 399.5197,130.921 421,145.1328 C424.5972,147.5128 428.2672,150.2608 431.7332,153.0289 " fill="none" style="stroke:#A80036;stroke-width:1.0;"/><polygon fill="#A80036" points="431.7332,153.0289,427.1969,144.287,427.8263,149.9087,422.2046,150.5381,431.7332,153.0289" style="stroke:#A80036;stroke-width:1.0;"/><path d="M453.0808,187.2479 C455.1231,197.9305 457.7949,211.9062 459.851,222.6611 " fill="none" style="stroke:#A80036;stroke-width:1.0;"/><polygon fill="#A80036" points="453.0808,187.2479,450.2786,193.8922,455.3341,199.0344,458.1363,192.39,453.0808,187.2479" style="stroke:#A80036;stroke-width:1.0;"/><polygon fill="#A80036" points="459.851,222.6611,462.0899,213.0701,458.9121,217.75,454.2322,214.5723,459.851,222.6611" style="stroke:#A80036;stroke-width:1.0;"/><text fill="#000000" font-family="sans-serif" font-size="13" lengthAdjust="spacing" textLength="8" x="450.851" y="219.2294">6</text><path d="M355.3109,104.6193 C383.5366,110.2548 437.1398,123.0275 478,145.1328 C482.0236,147.3096 486.0151,150.0904 489.6911,152.9821 " fill="none" style="stroke:#A80036;stroke-width:1.0;"/><polygon fill="#A80036" points="489.6911,152.9821,485.0905,144.2738,485.7613,149.8907,480.1444,150.5615,489.6911,152.9821" style="stroke:#A80036;stroke-width:1.0;"/><path d="M511.2657,187.2479 C514.0935,197.9305 517.7929,211.9062 520.6398,222.6611 " fill="none" style="stroke:#A80036;stroke-width:1.0;"/><polygon fill="#A80036" points="511.2657,187.2479,508.9343,194.0717,514.3365,198.8483,516.6679,192.0245,511.2657,187.2479" style="stroke:#A80036;stroke-width:1.0;"/><polygon fill="#A80036" points="520.6398,222.6611,522.2036,212.9371,519.3604,217.8275,514.47,214.9843,520.6398,222.6611" style="stroke:#A80036;stroke-width:1.0;"/><text fill="#000000" font-family="sans-serif" font-size="13" lengthAdjust="spacing" textLength="8" x="511.6398" y="219.2294">7</text><path d="M370.0711,37.7147 C434.3408,50.1305 573.377,76.9897 644.3698,90.7043 " fill="none" style="stroke:#A80036;stroke-width:1.0;"/><polygon fill="#A80036" points="370.0711,37.7147,375.2035,42.7802,381.8532,39.9908,376.7209,34.9254,370.0711,37.7147" style="stroke:#A80036;stroke-width:1.0;"/><polygon fill="#A80036" points="644.3698,90.7043,636.2919,85.0698,639.4606,89.7559,634.7745,92.9246,644.3698,90.7043" style="stroke:#A80036;stroke-width:1.0;"/><path d="M731.7863,112.2227 C761.1389,120.1669 800.4174,131.7903 834,145.1328 C839.8878,147.4721 846.0345,150.262 851.887,153.098 " fill="none" style="stroke:#A80036;stroke-width:1.0;"/><polygon fill="#A80036" points="851.887,153.098,845.5322,145.5737,847.3875,150.9176,842.0435,152.7729,851.887,153.098" style="stroke:#A80036;stroke-width:1.0;"/><path d="M710.9876,117.2479 C726.3382,128.0091 746.4554,142.1119 761.8412,152.8978 " fill="none" style="stroke:#A80036;stroke-width:1.0;"/><polygon fill="#A80036" points="761.8412,152.8978,756.7678,144.4562,757.747,150.0276,752.1756,151.0069,761.8412,152.8978" style="stroke:#A80036;stroke-width:1.0;"/><path d="M688,117.2479 C688,127.9305 688,141.9062 688,152.6611 " fill="none" style="stroke:#A80036;stroke-width:1.0;"/><polygon fill="#A80036" points="688,152.6611,692,143.6611,688,147.6611,684,143.6611,688,152.6611" style="stroke:#A80036;stroke-width:1.0;"/><path d="M665.0124,117.2479 C649.6618,128.0091 629.5446,142.1119 614.1588,152.8978 " fill="none" style="stroke:#A80036;stroke-width:1.0;"/><polygon fill="#A80036" points="614.1588,152.8978,623.8244,151.0069,618.253,150.0276,619.2322,144.4562,614.1588,152.8978" style="stroke:#A80036;stroke-width:1.0;"/><!--MD5=[6890cacfc139e069d1030a3825d7e167]
@startuml initialState
!pragma layout smetana
object ":Klondike" as Klondike
object ":Deck" as Deck
object ":Stock" as Stock
object ":Pile" as Pile
object ":Foundations" as Foundation

together {
    object ":pile" as Pile1
    object ":pile" as Pile2
    object ":pile" as Pile3
    object ":pile" as Pile4
    object ":pile" as Pile5
    object ":pile" as Pile6
    object ":pile" as Pile7
}

together {
    object ":foundation" as Foundation1
    object ":foundation" as Foundation2
    object ":foundation" as Foundation3
    object ":foundation" as Foundation4
}

together {
    object ":card" as Card1
    object ":card" as Card2
    object ":card" as Card3
    object ":card" as Card4
    object ":card" as Card5
    object ":card" as Card6
    object ":card" as Card7
    object ":card" as Card8
    object ":card" as Card9
}

Klondike *-down-> Deck
Deck *-left-> "21" Card8

Deck *-down-> Stock
Stock *-down-> "3" Card9

Klondike *-down-> Pile

Pile - ->  Pile7
Pile7 *-down-> "1" Card7

Pile - ->  Pile6
Pile6 *-down-> "2" Card6

Pile - ->  Pile5
Pile5 *-down-> "3" Card5

Pile - ->  Pile4
Pile4 *-down-> "4" Card4

Pile - ->  Pile3
Pile3 *-down-> "5" Card3

Pile - ->  Pile2
Pile2 *-down-> "6" Card2

Pile - ->  Pile1
Pile1 *-down-> "7" Card1

Klondike *-down-> Foundation

Foundation - ->  Foundation1
Foundation - ->  Foundation2
Foundation - ->  Foundation3
Foundation - ->  Foundation4

@enduml

PlantUML version 1.2022.0(Tue Jan 11 11:16:42 ECT 2022)
(GPL source distribution)
Java Runtime: OpenJDK Runtime Environment
JVM: OpenJDK 64-Bit Server VM
Default Encoding: UTF-8
Language: es
Country: EC
--></g></svg>