<?xml version="1.0" encoding="UTF-8" standalone="no"?><svg xmlns="http://www.w3.org/2000/svg" xmlns:xlink="http://www.w3.org/1999/xlink" contentScriptType="application/ecmascript" contentStyleType="text/css" height="717px" preserveAspectRatio="none" style="width:454px;height:717px;background:#FFFFFF;" version="1.1" viewBox="0 0 454 717" width="454px" zoomAndPan="magnify"><defs><filter height="300%" id="f1lc3ja1089x1v" width="300%" x="-1" y="-1"><feGaussianBlur result="blurOut" stdDeviation="2.0"/><feColorMatrix in="blurOut" result="blurOut2" type="matrix" values="0 0 0 0 0 0 0 0 0 0 0 0 0 0 0 0 0 0 .4 0"/><feOffset dx="4.0" dy="4.0" in="blurOut2" result="blurOut3"/><feBlend in="SourceGraphic" in2="blurOut3" mode="normal"/></filter></defs><g><polygon fill="#FEFECE" filter="url(#f1lc3ja1089x1v)" points="28,84,40,96,28,108,16,96,28,84" style="stroke:#A80036;stroke-width:1.5;"/><g id="State2"><rect fill="#FEFECE" filter="url(#f1lc3ja1089x1v)" height="50" rx="12.5" ry="12.5" style="stroke:#A80036;stroke-width:1.5;" width="63" x="89.5" y="161"/><line style="stroke:#A80036;stroke-width:1.5;" x1="89.5" x2="152.5" y1="187.4883" y2="187.4883"/><text fill="#000000" font-family="sans-serif" font-size="14" lengthAdjust="spacing" textLength="43" x="99.5" y="179.5352">State2</text></g><polygon fill="#FEFECE" filter="url(#f1lc3ja1089x1v)" points="127,264,139,276,127,288,115,276,127,264" style="stroke:#A80036;stroke-width:1.5;"/><g id="CardInPile"><rect fill="#FEFECE" filter="url(#f1lc3ja1089x1v)" height="50" rx="12.5" ry="12.5" style="stroke:#A80036;stroke-width:1.5;" width="90" x="141" y="598"/><line style="stroke:#A80036;stroke-width:1.5;" x1="141" x2="231" y1="624.4883" y2="624.4883"/><text fill="#000000" font-family="sans-serif" font-size="14" lengthAdjust="spacing" textLength="70" x="151" y="616.5352">CardInPile</text></g><polygon fill="#FEFECE" filter="url(#f1lc3ja1089x1v)" points="127,341,139,353,127,365,115,353,127,341" style="stroke:#A80036;stroke-width:1.5;"/><polygon fill="#FEFECE" filter="url(#f1lc3ja1089x1v)" points="174,418,186,430,174,442,162,430,174,418" style="stroke:#A80036;stroke-width:1.5;"/><g id="CardInFoundation"><rect fill="#FEFECE" filter="url(#f1lc3ja1089x1v)" height="50" rx="12.5" ry="12.5" style="stroke:#A80036;stroke-width:1.5;" width="145" x="40.5" y="495"/><line style="stroke:#A80036;stroke-width:1.5;" x1="40.5" x2="185.5" y1="521.4883" y2="521.4883"/><text fill="#000000" font-family="sans-serif" font-size="14" lengthAdjust="spacing" textLength="125" x="50.5" y="513.5352">CardInFoundation</text></g><polygon fill="#FEFECE" filter="url(#f1lc3ja1089x1v)" points="216,508,228,520,216,532,204,520,216,508" style="stroke:#A80036;stroke-width:1.5;"/><ellipse cx="28" cy="17" fill="#000000" filter="url(#f1lc3ja1089x1v)" rx="10" ry="10" style="stroke:none;stroke-width:1.0;"/><ellipse cx="137" cy="695" filter="url(#f1lc3ja1089x1v)" rx="10" ry="10" style="stroke:#000000;stroke-width:1.0;fill:none;"/><ellipse cx="137.5" cy="695.5" fill="#000000" rx="6" ry="6" style="stroke:none;stroke-width:1.0;"/><path d="M28,31.0665 C28,45.2465 28,69.6862 28,83.8881 " fill="none" style="stroke:#A80036;stroke-width:1.0;"/><polygon fill="#A80036" points="28,83.8881,32,74.8881,28,78.8881,24,74.8881,28,83.8881" style="stroke:#A80036;stroke-width:1.0;"/><text fill="#000000" font-family="sans-serif" font-size="13" lengthAdjust="spacing" textLength="80" x="29" y="62.5684">[IsPileEmpty]</text><path d="M39.7785,108.1453 C53.6596,121.28 77.1314,143.4899 95.2834,160.666 " fill="none" style="stroke:#A80036;stroke-width:1.0;"/><polygon fill="#A80036" points="95.2834,160.666,91.4953,151.5747,91.6515,157.2294,85.9968,157.3856,95.2834,160.666" style="stroke:#A80036;stroke-width:1.0;"/><text fill="#000000" font-family="sans-serif" font-size="13" lengthAdjust="spacing" textLength="103" x="76" y="139.5684">TurnUpFirstCard</text><path d="M122.6395,211.0464 C123.8053,228.1451 125.3189,250.3443 126.2218,263.5858 " fill="none" style="stroke:#A80036;stroke-width:1.0;"/><polygon fill="#A80036" points="126.2218,263.5858,129.6003,254.3345,125.8816,258.5973,121.6188,254.8787,126.2218,263.5858" style="stroke:#A80036;stroke-width:1.0;"/><text fill="#000000" font-family="sans-serif" font-size="13" lengthAdjust="spacing" textLength="141" x="126" y="242.5684">[IsMovementAvailable]</text><path d="M139.004,277.87 C189.6162,281.8601 383,300.4773 383,352 C383,352 383,352 383,521 C383,588.8367 289.3569,611.1428 231.1958,618.4549 " fill="none" style="stroke:#A80036;stroke-width:1.0;"/><polygon fill="#A80036" points="231.1958,618.4549,240.6244,621.301,236.1567,617.8312,239.6265,613.3635,231.1958,618.4549" style="stroke:#A80036;stroke-width:1.0;"/><text fill="#000000" font-family="sans-serif" font-size="13" lengthAdjust="spacing" textLength="62" x="384" y="435.0684">MoveCard</text><path d="M127,288.0665 C127,302.2465 127,326.6862 127,340.8881 " fill="none" style="stroke:#A80036;stroke-width:1.0;"/><polygon fill="#A80036" points="127,340.8881,131,331.8881,127,335.8881,123,331.8881,127,340.8881" style="stroke:#A80036;stroke-width:1.0;"/><text fill="#000000" font-family="sans-serif" font-size="13" lengthAdjust="spacing" textLength="64" x="128" y="319.5684">[IsCardAs]</text><path d="M117.6337,365.3846 C108.2866,377.5463 94.5414,397.813 89,418 C81.8436,444.0701 91.3134,474.2649 100.3825,494.8003 " fill="none" style="stroke:#A80036;stroke-width:1.0;"/><polygon fill="#A80036" points="100.3825,494.8003,100.4056,484.9515,98.3625,490.2265,93.0875,488.1834,100.3825,494.8003" style="stroke:#A80036;stroke-width:1.0;"/><text fill="#000000" font-family="sans-serif" font-size="13" lengthAdjust="spacing" textLength="62" x="90" y="435.0684">MoveCard</text><path d="M133.935,365.0665 C142.8211,379.2465 158.1367,403.6862 167.0365,417.8881 " fill="none" style="stroke:#A80036;stroke-width:1.0;"/><polygon fill="#A80036" points="167.0365,417.8881,165.6469,408.1378,164.3815,413.6513,158.868,412.3859,167.0365,417.8881" style="stroke:#A80036;stroke-width:1.0;"/><text fill="#000000" font-family="sans-serif" font-size="13" lengthAdjust="spacing" textLength="141" x="156" y="396.5684">[IsMovementAvailable]</text><path d="M161.7853,436.1324 C147.7662,442.2761 126.052,452.6541 121,460 C114.0882,470.0501 111.8485,483.3706 111.4423,494.8113 " fill="none" style="stroke:#A80036;stroke-width:1.0;"/><polygon fill="#A80036" points="111.4423,494.8113,115.7591,485.9589,111.6197,489.8144,107.7642,485.675,111.4423,494.8113" style="stroke:#A80036;stroke-width:1.0;"/><text fill="#000000" font-family="sans-serif" font-size="13" lengthAdjust="spacing" textLength="62" x="122" y="473.5684">MoveCard</text><path d="M179.3193,442.1453 C187.3982,459.0725 202.6707,491.0719 210.7239,507.9452 " fill="none" style="stroke:#A80036;stroke-width:1.0;"/><polygon fill="#A80036" points="210.7239,507.9452,210.4572,498.1,208.5702,503.4328,203.2374,501.5458,210.7239,507.9452" style="stroke:#A80036;stroke-width:1.0;"/><text fill="#000000" font-family="sans-serif" font-size="13" lengthAdjust="spacing" textLength="166" x="196" y="473.5684">[IsCardKAndAnyPileEmpty]</text><path d="M24.6068,108.2722 C19.9102,124.8983 12,157.0492 12,185 C12,185 12,185 12,624 C12,676.8428 96.9171,691.4898 126.7707,695.0063 " fill="none" style="stroke:#A80036;stroke-width:1.0;"/><polygon fill="#A80036" points="126.7707,695.0063,118.3005,689.9809,121.8051,694.4214,117.3646,697.926,126.7707,695.0063" style="stroke:#A80036;stroke-width:1.0;"/><path d="M206.2131,532.1181 C197.6694,542.1111 186.2868,556.2253 184,563 C180.2633,574.0701 180.2512,586.9808 181.3875,597.8976 " fill="none" style="stroke:#A80036;stroke-width:1.0;"/><polygon fill="#A80036" points="181.3875,597.8976,184.4343,588.5318,180.8699,592.9244,176.4772,589.36,181.3875,597.8976" style="stroke:#A80036;stroke-width:1.0;"/><text fill="#000000" font-family="sans-serif" font-size="13" lengthAdjust="spacing" textLength="62" x="185" y="576.5684">MoveCard</text><path d="M227.8737,532.2474 C235.2308,540.0725 244.0128,551.1878 248,563 C255.5219,585.284 258.7457,622.0673 240,648 C217.2318,679.4974 168.5109,690.9429 147.263,694.5455 " fill="none" style="stroke:#A80036;stroke-width:1.0;"/><polygon fill="#A80036" points="147.263,694.5455,156.805,696.9847,152.1926,693.7097,155.4677,689.0973,147.263,694.5455" style="stroke:#A80036;stroke-width:1.0;"/><path d="M116.3371,545.333 C121.5921,583.6509 131.5931,656.5747 135.4392,684.619 " fill="none" style="stroke:#A80036;stroke-width:1.0;"/><polygon fill="#A80036" points="135.4392,684.619,138.1792,675.1589,134.7598,679.6653,130.2534,676.2459,135.4392,684.619" style="stroke:#A80036;stroke-width:1.0;"/><path d="M169.4108,648.3759 C160.9705,660.778 151.127,675.242 144.5221,684.9471 " fill="none" style="stroke:#A80036;stroke-width:1.0;"/><polygon fill="#A80036" points="144.5221,684.9471,152.8926,679.7572,147.3352,680.8135,146.2789,675.2562,144.5221,684.9471" style="stroke:#A80036;stroke-width:1.0;"/><!--MD5=[a0f6a2d584a699acec4222469a30aff7]
@startuml Diagrama de estados
!pragma layout smetana
state State1 <<choice>>
state State2
state State3  <<choice>>
state CardInPile
state State5 <<choice>>
state State7 <<choice>>
state CardInFoundation
state State8 <<choice>>


[*] - -> State1: [IsPileEmpty]
State1 - -> State2: TurnUpFirstCard
State2 - -> State3: [IsMovementAvailable]
State3 - -> CardInPile: MoveCard
State3 - -> State5: [IsCardAs]
State5 - -> CardInFoundation: MoveCard
State5 - -> State7: [IsMovementAvailable]
State7 - -> CardInFoundation: MoveCard
State7 - -> State8: [IsCardKAndAnyPileEmpty]
State1 - -> [*]
State8 - -> CardInPile: MoveCard
State8 - -> [*]
CardInFoundation - -> [*]
CardInPile - -> [*]

' note right:"Si las condiciones son diamantes o estados"



@end

@startuml Diagrama de estados
!pragma layout smetana
state State1 <<choice>>
state State2
state State3  <<choice>>
state CardInPile
state State5 <<choice>>
state State7 <<choice>>
state CardInFoundation
state State8 <<choice>>


[*] - -> State1: [IsPileEmpty]
State1 - -> State2: TurnUpFirstCard
State2 - -> State3: [IsMovementAvailable]
State3 - -> CardInPile: MoveCard
State3 - -> State5: [IsCardAs]
State5 - -> CardInFoundation: MoveCard
State5 - -> State7: [IsMovementAvailable]
State7 - -> CardInFoundation: MoveCard
State7 - -> State8: [IsCardKAndAnyPileEmpty]
State1 - -> [*]
State8 - -> CardInPile: MoveCard
State8 - -> [*]
CardInFoundation - -> [*]
CardInPile - -> [*]




@end

PlantUML version 1.2022.0(Tue Jan 11 11:16:42 ECT 2022)
(GPL source distribution)
Java Runtime: OpenJDK Runtime Environment
JVM: OpenJDK 64-Bit Server VM
Default Encoding: UTF-8
Language: es
Country: EC
--></g></svg>