<?xml version="1.0" encoding="UTF-8" standalone="no"?><svg xmlns="http://www.w3.org/2000/svg" xmlns:xlink="http://www.w3.org/1999/xlink" contentScriptType="application/ecmascript" contentStyleType="text/css" height="652px" preserveAspectRatio="none" style="width:1122px;height:652px;background:#FFFFFF;" version="1.1" viewBox="0 0 1122 652" width="1122px" zoomAndPan="magnify"><defs><filter height="300%" id="f1rdfpxyefnm8k" width="300%" x="-1" y="-1"><feGaussianBlur result="blurOut" stdDeviation="2.0"/><feColorMatrix in="blurOut" result="blurOut2" type="matrix" values="0 0 0 0 0 0 0 0 0 0 0 0 0 0 0 0 0 0 .4 0"/><feOffset dx="4.0" dy="4.0" in="blurOut2" result="blurOut3"/><feBlend in="SourceGraphic" in2="blurOut3" mode="normal"/></filter></defs><g><text fill="#000000" font-family="sans-serif" font-size="18" lengthAdjust="spacing" textLength="228" x="440.75" y="17.4023">Klondike  - Class Diagram</text><!--MD5=[ce135f397e71694d574a1221b16fe9d6]
class Klondike--><rect codeLine="4" fill="#FEFECE" filter="url(#f1rdfpxyefnm8k)" height="48" id="Klondike" style="stroke:#A80036;stroke-width:1.5;" width="82" x="905.5" y="34.1992"/><ellipse cx="920.5" cy="50.1992" fill="#ADD1B2" rx="11" ry="11" style="stroke:#A80036;stroke-width:1.0;"/><path d="M922.9731,56.3423 Q922.3921,56.6411 921.7529,56.7905 Q921.1138,56.9399 920.4082,56.9399 Q917.9014,56.9399 916.5815,55.2881 Q915.2617,53.6362 915.2617,50.5151 Q915.2617,47.3857 916.5815,45.7339 Q917.9014,44.082 920.4082,44.082 Q921.1138,44.082 921.7612,44.2314 Q922.4087,44.3809 922.9731,44.6797 L922.9731,47.4023 Q922.3423,46.8213 921.7488,46.5515 Q921.1553,46.2817 920.5244,46.2817 Q919.1797,46.2817 918.4949,47.3484 Q917.8101,48.415 917.8101,50.5151 Q917.8101,52.6069 918.4949,53.6736 Q919.1797,54.7402 920.5244,54.7402 Q921.1553,54.7402 921.7488,54.4705 Q922.3423,54.2007 922.9731,53.6196 Z " fill="#000000"/><text fill="#000000" font-family="sans-serif" font-size="12" lengthAdjust="spacing" textLength="50" x="934.5" y="54.7344">Klondike</text><line style="stroke:#A80036;stroke-width:1.5;" x1="906.5" x2="986.5" y1="66.1992" y2="66.1992"/><line style="stroke:#A80036;stroke-width:1.5;" x1="906.5" x2="986.5" y1="74.1992" y2="74.1992"/><!--MD5=[2cb47ba637a0d19583e6199456f6ad0b]
class Player--><rect codeLine="5" fill="#FEFECE" filter="url(#f1rdfpxyefnm8k)" height="48" id="Player" style="stroke:#A80036;stroke-width:1.5;" width="67" x="755" y="118.1992"/><ellipse cx="770" cy="134.1992" fill="#ADD1B2" rx="11" ry="11" style="stroke:#A80036;stroke-width:1.0;"/><path d="M772.4731,140.3423 Q771.8921,140.6411 771.2529,140.7905 Q770.6138,140.9399 769.9082,140.9399 Q767.4014,140.9399 766.0815,139.2881 Q764.7617,137.6362 764.7617,134.5151 Q764.7617,131.3857 766.0815,129.7339 Q767.4014,128.082 769.9082,128.082 Q770.6138,128.082 771.2612,128.2314 Q771.9087,128.3809 772.4731,128.6797 L772.4731,131.4023 Q771.8423,130.8213 771.2488,130.5515 Q770.6553,130.2817 770.0244,130.2817 Q768.6797,130.2817 767.9949,131.3484 Q767.3101,132.415 767.3101,134.5151 Q767.3101,136.6069 767.9949,137.6736 Q768.6797,138.7402 770.0244,138.7402 Q770.6553,138.7402 771.2488,138.4705 Q771.8423,138.2007 772.4731,137.6196 Z " fill="#000000"/><text fill="#000000" font-family="sans-serif" font-size="12" lengthAdjust="spacing" textLength="35" x="784" y="138.7344">Player</text><line style="stroke:#A80036;stroke-width:1.5;" x1="756" x2="821" y1="150.1992" y2="150.1992"/><line style="stroke:#A80036;stroke-width:1.5;" x1="756" x2="821" y1="158.1992" y2="158.1992"/><!--MD5=[c033d16283544a66478df33ee92fe5a6]
class Tableau--><rect codeLine="6" fill="#FEFECE" filter="url(#f1rdfpxyefnm8k)" height="48" id="Tableau" style="stroke:#A80036;stroke-width:1.5;" width="79" x="907" y="202.1992"/><ellipse cx="922" cy="218.1992" fill="#ADD1B2" rx="11" ry="11" style="stroke:#A80036;stroke-width:1.0;"/><path d="M924.4731,224.3423 Q923.8921,224.6411 923.2529,224.7905 Q922.6138,224.9399 921.9082,224.9399 Q919.4014,224.9399 918.0815,223.2881 Q916.7617,221.6362 916.7617,218.5151 Q916.7617,215.3857 918.0815,213.7339 Q919.4014,212.082 921.9082,212.082 Q922.6138,212.082 923.2612,212.2314 Q923.9087,212.3809 924.4731,212.6797 L924.4731,215.4023 Q923.8423,214.8213 923.2488,214.5515 Q922.6553,214.2817 922.0244,214.2817 Q920.6797,214.2817 919.9949,215.3484 Q919.3101,216.415 919.3101,218.5151 Q919.3101,220.6069 919.9949,221.6736 Q920.6797,222.7402 922.0244,222.7402 Q922.6553,222.7402 923.2488,222.4705 Q923.8423,222.2007 924.4731,221.6196 Z " fill="#000000"/><text fill="#000000" font-family="sans-serif" font-size="12" lengthAdjust="spacing" textLength="47" x="936" y="222.7344">Tableau</text><line style="stroke:#A80036;stroke-width:1.5;" x1="908" x2="985" y1="234.1992" y2="234.1992"/><line style="stroke:#A80036;stroke-width:1.5;" x1="908" x2="985" y1="242.1992" y2="242.1992"/><!--MD5=[d01ad859d436f6e28b36a553834670aa]
class Foundation--><rect codeLine="7" fill="#FEFECE" filter="url(#f1rdfpxyefnm8k)" height="48" id="Foundation" style="stroke:#A80036;stroke-width:1.5;" width="95" x="828" y="286.1992"/><ellipse cx="843" cy="302.1992" fill="#ADD1B2" rx="11" ry="11" style="stroke:#A80036;stroke-width:1.0;"/><path d="M845.4731,308.3423 Q844.8921,308.6411 844.2529,308.7905 Q843.6138,308.9399 842.9082,308.9399 Q840.4014,308.9399 839.0815,307.2881 Q837.7617,305.6362 837.7617,302.5151 Q837.7617,299.3857 839.0815,297.7339 Q840.4014,296.082 842.9082,296.082 Q843.6138,296.082 844.2612,296.2314 Q844.9087,296.3809 845.4731,296.6797 L845.4731,299.4023 Q844.8423,298.8213 844.2488,298.5515 Q843.6553,298.2817 843.0244,298.2817 Q841.6797,298.2817 840.9949,299.3484 Q840.3101,300.415 840.3101,302.5151 Q840.3101,304.6069 840.9949,305.6736 Q841.6797,306.7402 843.0244,306.7402 Q843.6553,306.7402 844.2488,306.4705 Q844.8423,306.2007 845.4731,305.6196 Z " fill="#000000"/><text fill="#000000" font-family="sans-serif" font-size="12" lengthAdjust="spacing" textLength="63" x="857" y="306.7344">Foundation</text><line style="stroke:#A80036;stroke-width:1.5;" x1="829" x2="922" y1="318.1992" y2="318.1992"/><line style="stroke:#A80036;stroke-width:1.5;" x1="829" x2="922" y1="326.1992" y2="326.1992"/><!--MD5=[9d65f55e1ae89a5b4cf38812aa4a03f3]
class Pile--><rect codeLine="8" fill="#FEFECE" filter="url(#f1rdfpxyefnm8k)" height="48" id="Pile" style="stroke:#A80036;stroke-width:1.5;" width="52" x="803.5" y="370.1992"/><ellipse cx="818.5" cy="386.1992" fill="#ADD1B2" rx="11" ry="11" style="stroke:#A80036;stroke-width:1.0;"/><path d="M820.9731,392.3423 Q820.3921,392.6411 819.7529,392.7905 Q819.1138,392.9399 818.4082,392.9399 Q815.9014,392.9399 814.5815,391.2881 Q813.2617,389.6362 813.2617,386.5151 Q813.2617,383.3857 814.5815,381.7339 Q815.9014,380.082 818.4082,380.082 Q819.1138,380.082 819.7612,380.2314 Q820.4087,380.3809 820.9731,380.6797 L820.9731,383.4023 Q820.3423,382.8213 819.7488,382.5515 Q819.1553,382.2817 818.5244,382.2817 Q817.1797,382.2817 816.4949,383.3484 Q815.8101,384.415 815.8101,386.5151 Q815.8101,388.6069 816.4949,389.6736 Q817.1797,390.7402 818.5244,390.7402 Q819.1553,390.7402 819.7488,390.4705 Q820.3423,390.2007 820.9731,389.6196 Z " fill="#000000"/><text fill="#000000" font-family="sans-serif" font-size="12" lengthAdjust="spacing" textLength="20" x="832.5" y="390.7344">Pile</text><line style="stroke:#A80036;stroke-width:1.5;" x1="804.5" x2="854.5" y1="402.1992" y2="402.1992"/><line style="stroke:#A80036;stroke-width:1.5;" x1="804.5" x2="854.5" y1="410.1992" y2="410.1992"/><!--MD5=[a4cb0f987c11031dc931233a0e7767af]
class Stock--><rect codeLine="9" fill="#FEFECE" filter="url(#f1rdfpxyefnm8k)" height="48" id="Stock" style="stroke:#A80036;stroke-width:1.5;" width="62" x="981.5" y="286.1992"/><ellipse cx="996.5" cy="302.1992" fill="#ADD1B2" rx="11" ry="11" style="stroke:#A80036;stroke-width:1.0;"/><path d="M998.9731,308.3423 Q998.3921,308.6411 997.7529,308.7905 Q997.1138,308.9399 996.4082,308.9399 Q993.9014,308.9399 992.5815,307.2881 Q991.2617,305.6362 991.2617,302.5151 Q991.2617,299.3857 992.5815,297.7339 Q993.9014,296.082 996.4082,296.082 Q997.1138,296.082 997.7612,296.2314 Q998.4087,296.3809 998.9731,296.6797 L998.9731,299.4023 Q998.3423,298.8213 997.7488,298.5515 Q997.1553,298.2817 996.5244,298.2817 Q995.1797,298.2817 994.4949,299.3484 Q993.8101,300.415 993.8101,302.5151 Q993.8101,304.6069 994.4949,305.6736 Q995.1797,306.7402 996.5244,306.7402 Q997.1553,306.7402 997.7488,306.4705 Q998.3423,306.2007 998.9731,305.6196 Z " fill="#000000"/><text fill="#000000" font-family="sans-serif" font-size="12" lengthAdjust="spacing" textLength="30" x="1010.5" y="306.7344">Stock</text><line style="stroke:#A80036;stroke-width:1.5;" x1="982.5" x2="1042.5" y1="318.1992" y2="318.1992"/><line style="stroke:#A80036;stroke-width:1.5;" x1="982.5" x2="1042.5" y1="326.1992" y2="326.1992"/><!--MD5=[1a47157467d69c83c0a10e9152875283]
class Stack--><rect codeLine="10" fill="#FEFECE" filter="url(#f1rdfpxyefnm8k)" height="48" id="Stack" style="stroke:#A80036;stroke-width:1.5;" width="62" x="788.5" y="202.1992"/><ellipse cx="803.5" cy="218.1992" fill="#ADD1B2" rx="11" ry="11" style="stroke:#A80036;stroke-width:1.0;"/><path d="M805.9731,224.3423 Q805.3921,224.6411 804.7529,224.7905 Q804.1138,224.9399 803.4082,224.9399 Q800.9014,224.9399 799.5815,223.2881 Q798.2617,221.6362 798.2617,218.5151 Q798.2617,215.3857 799.5815,213.7339 Q800.9014,212.082 803.4082,212.082 Q804.1138,212.082 804.7612,212.2314 Q805.4087,212.3809 805.9731,212.6797 L805.9731,215.4023 Q805.3423,214.8213 804.7488,214.5515 Q804.1553,214.2817 803.5244,214.2817 Q802.1797,214.2817 801.4949,215.3484 Q800.8101,216.415 800.8101,218.5151 Q800.8101,220.6069 801.4949,221.6736 Q802.1797,222.7402 803.5244,222.7402 Q804.1553,222.7402 804.7488,222.4705 Q805.3423,222.2007 805.9731,221.6196 Z " fill="#000000"/><text fill="#000000" font-family="sans-serif" font-size="12" lengthAdjust="spacing" textLength="30" x="817.5" y="222.7344">Stack</text><line style="stroke:#A80036;stroke-width:1.5;" x1="789.5" x2="849.5" y1="234.1992" y2="234.1992"/><line style="stroke:#A80036;stroke-width:1.5;" x1="789.5" x2="849.5" y1="242.1992" y2="242.1992"/><!--MD5=[0992d3fdc9d3d7c02b735131bb70871d]
class Goal--><rect codeLine="11" fill="#FEFECE" filter="url(#f1rdfpxyefnm8k)" height="48" id="Goal" style="stroke:#A80036;stroke-width:1.5;" width="58" x="674.5" y="202.1992"/><ellipse cx="689.5" cy="218.1992" fill="#ADD1B2" rx="11" ry="11" style="stroke:#A80036;stroke-width:1.0;"/><path d="M691.9731,224.3423 Q691.3921,224.6411 690.7529,224.7905 Q690.1138,224.9399 689.4082,224.9399 Q686.9014,224.9399 685.5815,223.2881 Q684.2617,221.6362 684.2617,218.5151 Q684.2617,215.3857 685.5815,213.7339 Q686.9014,212.082 689.4082,212.082 Q690.1138,212.082 690.7612,212.2314 Q691.4087,212.3809 691.9731,212.6797 L691.9731,215.4023 Q691.3423,214.8213 690.7488,214.5515 Q690.1553,214.2817 689.5244,214.2817 Q688.1797,214.2817 687.4949,215.3484 Q686.8101,216.415 686.8101,218.5151 Q686.8101,220.6069 687.4949,221.6736 Q688.1797,222.7402 689.5244,222.7402 Q690.1553,222.7402 690.7488,222.4705 Q691.3423,222.2007 691.9731,221.6196 Z " fill="#000000"/><text fill="#000000" font-family="sans-serif" font-size="12" lengthAdjust="spacing" textLength="26" x="703.5" y="222.7344">Goal</text><line style="stroke:#A80036;stroke-width:1.5;" x1="675.5" x2="731.5" y1="234.1992" y2="234.1992"/><line style="stroke:#A80036;stroke-width:1.5;" x1="675.5" x2="731.5" y1="242.1992" y2="242.1992"/><!--MD5=[5e305716458bbdabbd2d7f572ed2bae2]
class Card--><rect codeLine="12" fill="#FEFECE" filter="url(#f1rdfpxyefnm8k)" height="99.8203" id="Card" style="stroke:#A80036;stroke-width:1.5;" width="108" x="865.5" y="454.1992"/><ellipse cx="902.1" cy="470.1992" fill="#ADD1B2" rx="11" ry="11" style="stroke:#A80036;stroke-width:1.0;"/><path d="M904.5731,476.3423 Q903.9921,476.6411 903.3529,476.7905 Q902.7138,476.9399 902.0082,476.9399 Q899.5014,476.9399 898.1815,475.2881 Q896.8617,473.6362 896.8617,470.5151 Q896.8617,467.3857 898.1815,465.7339 Q899.5014,464.082 902.0082,464.082 Q902.7138,464.082 903.3612,464.2314 Q904.0087,464.3809 904.5731,464.6797 L904.5731,467.4023 Q903.9423,466.8213 903.3488,466.5515 Q902.7553,466.2817 902.1244,466.2817 Q900.7797,466.2817 900.0949,467.3484 Q899.4101,468.415 899.4101,470.5151 Q899.4101,472.6069 900.0949,473.6736 Q900.7797,474.7402 902.1244,474.7402 Q902.7553,474.7402 903.3488,474.4705 Q903.9423,474.2007 904.5731,473.6196 Z " fill="#000000"/><text fill="#000000" font-family="sans-serif" font-size="12" lengthAdjust="spacing" textLength="28" x="920.9" y="474.7344">Card</text><line style="stroke:#A80036;stroke-width:1.5;" x1="866.5" x2="972.5" y1="486.1992" y2="486.1992"/><ellipse cx="876.5" cy="497.1992" rx="3" ry="3" style="stroke:#038048;stroke-width:1.0;fill:none;"/><text fill="#000000" font-family="sans-serif" font-size="11" lengthAdjust="spacing" textLength="45" x="885.5" y="500.834">Int color</text><ellipse cx="876.5" cy="510.1543" rx="3" ry="3" style="stroke:#038048;stroke-width:1.0;fill:none;"/><text fill="#000000" font-family="sans-serif" font-size="11" lengthAdjust="spacing" textLength="59" x="885.5" y="513.7891">Int number</text><ellipse cx="876.5" cy="523.1094" rx="3" ry="3" style="stroke:#038048;stroke-width:1.0;fill:none;"/><text fill="#000000" font-family="sans-serif" font-size="11" lengthAdjust="spacing" textLength="58" x="885.5" y="526.7441">String type</text><ellipse cx="876.5" cy="536.0645" rx="3" ry="3" style="stroke:#038048;stroke-width:1.0;fill:none;"/><text fill="#000000" font-family="sans-serif" font-size="11" lengthAdjust="spacing" textLength="82" x="885.5" y="539.6992">boolean turned</text><line style="stroke:#A80036;stroke-width:1.5;" x1="866.5" x2="972.5" y1="546.0195" y2="546.0195"/><!--MD5=[f8e7078f77c005d15b486c0c98deb1e6]
class Action--><rect codeLine="18" fill="#FEFECE" filter="url(#f1rdfpxyefnm8k)" height="48" id="Action" style="stroke:#A80036;stroke-width:1.5;" width="67" x="647" y="286.1992"/><ellipse cx="662" cy="302.1992" fill="#ADD1B2" rx="11" ry="11" style="stroke:#A80036;stroke-width:1.0;"/><path d="M664.4731,308.3423 Q663.8921,308.6411 663.2529,308.7905 Q662.6138,308.9399 661.9082,308.9399 Q659.4014,308.9399 658.0815,307.2881 Q656.7617,305.6362 656.7617,302.5151 Q656.7617,299.3857 658.0815,297.7339 Q659.4014,296.082 661.9082,296.082 Q662.6138,296.082 663.2612,296.2314 Q663.9087,296.3809 664.4731,296.6797 L664.4731,299.4023 Q663.8423,298.8213 663.2488,298.5515 Q662.6553,298.2817 662.0244,298.2817 Q660.6797,298.2817 659.9949,299.3484 Q659.3101,300.415 659.3101,302.5151 Q659.3101,304.6069 659.9949,305.6736 Q660.6797,306.7402 662.0244,306.7402 Q662.6553,306.7402 663.2488,306.4705 Q663.8423,306.2007 664.4731,305.6196 Z " fill="#000000"/><text fill="#000000" font-family="sans-serif" font-size="12" lengthAdjust="spacing" textLength="35" x="676" y="306.7344">Action</text><line style="stroke:#A80036;stroke-width:1.5;" x1="648" x2="713" y1="318.1992" y2="318.1992"/><line style="stroke:#A80036;stroke-width:1.5;" x1="648" x2="713" y1="326.1992" y2="326.1992"/><!--MD5=[2743c34aa2b8a300d8bab9b4b445451e]
class Shuffle--><rect codeLine="19" fill="#FEFECE" filter="url(#f1rdfpxyefnm8k)" height="48" id="Shuffle" style="stroke:#A80036;stroke-width:1.5;" width="70" x="544.5" y="370.1992"/><ellipse cx="559.5" cy="386.1992" fill="#ADD1B2" rx="11" ry="11" style="stroke:#A80036;stroke-width:1.0;"/><path d="M561.9731,392.3423 Q561.3921,392.6411 560.7529,392.7905 Q560.1138,392.9399 559.4082,392.9399 Q556.9014,392.9399 555.5815,391.2881 Q554.2617,389.6362 554.2617,386.5151 Q554.2617,383.3857 555.5815,381.7339 Q556.9014,380.082 559.4082,380.082 Q560.1138,380.082 560.7612,380.2314 Q561.4087,380.3809 561.9731,380.6797 L561.9731,383.4023 Q561.3423,382.8213 560.7488,382.5515 Q560.1553,382.2817 559.5244,382.2817 Q558.1797,382.2817 557.4949,383.3484 Q556.8101,384.415 556.8101,386.5151 Q556.8101,388.6069 557.4949,389.6736 Q558.1797,390.7402 559.5244,390.7402 Q560.1553,390.7402 560.7488,390.4705 Q561.3423,390.2007 561.9731,389.6196 Z " fill="#000000"/><text fill="#000000" font-family="sans-serif" font-size="12" lengthAdjust="spacing" textLength="38" x="573.5" y="390.7344">Shuffle</text><line style="stroke:#A80036;stroke-width:1.5;" x1="545.5" x2="613.5" y1="402.1992" y2="402.1992"/><line style="stroke:#A80036;stroke-width:1.5;" x1="545.5" x2="613.5" y1="410.1992" y2="410.1992"/><!--MD5=[1981719fa3982d92ef7fd3f06d73b3e7]
class Move--><rect codeLine="20" fill="#FEFECE" filter="url(#f1rdfpxyefnm8k)" height="48" id="Move" style="stroke:#A80036;stroke-width:1.5;" width="62" x="632.5" y="370.1992"/><ellipse cx="647.5" cy="386.1992" fill="#ADD1B2" rx="11" ry="11" style="stroke:#A80036;stroke-width:1.0;"/><path d="M649.9731,392.3423 Q649.3921,392.6411 648.7529,392.7905 Q648.1138,392.9399 647.4082,392.9399 Q644.9014,392.9399 643.5815,391.2881 Q642.2617,389.6362 642.2617,386.5151 Q642.2617,383.3857 643.5815,381.7339 Q644.9014,380.082 647.4082,380.082 Q648.1138,380.082 648.7612,380.2314 Q649.4087,380.3809 649.9731,380.6797 L649.9731,383.4023 Q649.3423,382.8213 648.7488,382.5515 Q648.1553,382.2817 647.5244,382.2817 Q646.1797,382.2817 645.4949,383.3484 Q644.8101,384.415 644.8101,386.5151 Q644.8101,388.6069 645.4949,389.6736 Q646.1797,390.7402 647.5244,390.7402 Q648.1553,390.7402 648.7488,390.4705 Q649.3423,390.2007 649.9731,389.6196 Z " fill="#000000"/><text fill="#000000" font-family="sans-serif" font-size="12" lengthAdjust="spacing" textLength="30" x="661.5" y="390.7344">Move</text><line style="stroke:#A80036;stroke-width:1.5;" x1="633.5" x2="693.5" y1="402.1992" y2="402.1992"/><line style="stroke:#A80036;stroke-width:1.5;" x1="633.5" x2="693.5" y1="410.1992" y2="410.1992"/><!--MD5=[73996485a1235a03139d317d8108c082]
class PileToPileMove--><rect codeLine="21" fill="#FEFECE" filter="url(#f1rdfpxyefnm8k)" height="48" id="PileToPileMove" style="stroke:#A80036;stroke-width:1.5;" width="117" x="730" y="480.1992"/><ellipse cx="745" cy="496.1992" fill="#ADD1B2" rx="11" ry="11" style="stroke:#A80036;stroke-width:1.0;"/><path d="M747.4731,502.3423 Q746.8921,502.6411 746.2529,502.7905 Q745.6138,502.9399 744.9082,502.9399 Q742.4014,502.9399 741.0815,501.2881 Q739.7617,499.6362 739.7617,496.5151 Q739.7617,493.3857 741.0815,491.7339 Q742.4014,490.082 744.9082,490.082 Q745.6138,490.082 746.2612,490.2314 Q746.9087,490.3809 747.4731,490.6797 L747.4731,493.4023 Q746.8423,492.8213 746.2488,492.5515 Q745.6553,492.2817 745.0244,492.2817 Q743.6797,492.2817 742.9949,493.3484 Q742.3101,494.415 742.3101,496.5151 Q742.3101,498.6069 742.9949,499.6736 Q743.6797,500.7402 745.0244,500.7402 Q745.6553,500.7402 746.2488,500.4705 Q746.8423,500.2007 747.4731,499.6196 Z " fill="#000000"/><text fill="#000000" font-family="sans-serif" font-size="12" lengthAdjust="spacing" textLength="85" x="759" y="500.7344">PileToPileMove</text><line style="stroke:#A80036;stroke-width:1.5;" x1="731" x2="846" y1="512.1992" y2="512.1992"/><line style="stroke:#A80036;stroke-width:1.5;" x1="731" x2="846" y1="520.1992" y2="520.1992"/><!--MD5=[6abfd00d8de9d1b868c4aefaef2f5c5f]
class PileToFoundationMove--><rect codeLine="22" fill="#FEFECE" filter="url(#f1rdfpxyefnm8k)" height="48" id="PileToFoundationMove" style="stroke:#A80036;stroke-width:1.5;" width="160" x="240.5" y="590.1992"/><ellipse cx="255.5" cy="606.1992" fill="#ADD1B2" rx="11" ry="11" style="stroke:#A80036;stroke-width:1.0;"/><path d="M257.9731,612.3423 Q257.3921,612.6411 256.7529,612.7905 Q256.1138,612.9399 255.4082,612.9399 Q252.9014,612.9399 251.5815,611.2881 Q250.2617,609.6362 250.2617,606.5151 Q250.2617,603.3857 251.5815,601.7339 Q252.9014,600.082 255.4082,600.082 Q256.1138,600.082 256.7612,600.2314 Q257.4087,600.3809 257.9731,600.6797 L257.9731,603.4023 Q257.3423,602.8213 256.7488,602.5515 Q256.1553,602.2817 255.5244,602.2817 Q254.1797,602.2817 253.4949,603.3484 Q252.8101,604.415 252.8101,606.5151 Q252.8101,608.6069 253.4949,609.6736 Q254.1797,610.7402 255.5244,610.7402 Q256.1553,610.7402 256.7488,610.4705 Q257.3423,610.2007 257.9731,609.6196 Z " fill="#000000"/><text fill="#000000" font-family="sans-serif" font-size="12" lengthAdjust="spacing" textLength="128" x="269.5" y="610.7344">PileToFoundationMove</text><line style="stroke:#A80036;stroke-width:1.5;" x1="241.5" x2="399.5" y1="622.1992" y2="622.1992"/><line style="stroke:#A80036;stroke-width:1.5;" x1="241.5" x2="399.5" y1="630.1992" y2="630.1992"/><!--MD5=[11bec0262649df79c277d56ebd0dc31b]
class FoundationToPileMove--><rect codeLine="23" fill="#FEFECE" filter="url(#f1rdfpxyefnm8k)" height="48" id="FoundationToPileMove" style="stroke:#A80036;stroke-width:1.5;" width="160" x="412.5" y="480.1992"/><ellipse cx="427.5" cy="496.1992" fill="#ADD1B2" rx="11" ry="11" style="stroke:#A80036;stroke-width:1.0;"/><path d="M429.9731,502.3423 Q429.3921,502.6411 428.7529,502.7905 Q428.1138,502.9399 427.4082,502.9399 Q424.9014,502.9399 423.5815,501.2881 Q422.2617,499.6362 422.2617,496.5151 Q422.2617,493.3857 423.5815,491.7339 Q424.9014,490.082 427.4082,490.082 Q428.1138,490.082 428.7612,490.2314 Q429.4087,490.3809 429.9731,490.6797 L429.9731,493.4023 Q429.3423,492.8213 428.7488,492.5515 Q428.1553,492.2817 427.5244,492.2817 Q426.1797,492.2817 425.4949,493.3484 Q424.8101,494.415 424.8101,496.5151 Q424.8101,498.6069 425.4949,499.6736 Q426.1797,500.7402 427.5244,500.7402 Q428.1553,500.7402 428.7488,500.4705 Q429.3423,500.2007 429.9731,499.6196 Z " fill="#000000"/><text fill="#000000" font-family="sans-serif" font-size="12" lengthAdjust="spacing" textLength="128" x="441.5" y="500.7344">FoundationToPileMove</text><line style="stroke:#A80036;stroke-width:1.5;" x1="413.5" x2="571.5" y1="512.1992" y2="512.1992"/><line style="stroke:#A80036;stroke-width:1.5;" x1="413.5" x2="571.5" y1="520.1992" y2="520.1992"/><!--MD5=[c14fb894f9d1867c83512862ef54e19e]
class WasteToFoundationMove--><rect codeLine="24" fill="#FEFECE" filter="url(#f1rdfpxyefnm8k)" height="48" id="WasteToFoundationMove" style="stroke:#A80036;stroke-width:1.5;" width="174" x="418.5" y="590.1992"/><ellipse cx="433.5" cy="606.1992" fill="#ADD1B2" rx="11" ry="11" style="stroke:#A80036;stroke-width:1.0;"/><path d="M435.9731,612.3423 Q435.3921,612.6411 434.7529,612.7905 Q434.1138,612.9399 433.4082,612.9399 Q430.9014,612.9399 429.5815,611.2881 Q428.2617,609.6362 428.2617,606.5151 Q428.2617,603.3857 429.5815,601.7339 Q430.9014,600.082 433.4082,600.082 Q434.1138,600.082 434.7612,600.2314 Q435.4087,600.3809 435.9731,600.6797 L435.9731,603.4023 Q435.3423,602.8213 434.7488,602.5515 Q434.1553,602.2817 433.5244,602.2817 Q432.1797,602.2817 431.4949,603.3484 Q430.8101,604.415 430.8101,606.5151 Q430.8101,608.6069 431.4949,609.6736 Q432.1797,610.7402 433.5244,610.7402 Q434.1553,610.7402 434.7488,610.4705 Q435.3423,610.2007 435.9731,609.6196 Z " fill="#000000"/><text fill="#000000" font-family="sans-serif" font-size="12" lengthAdjust="spacing" textLength="142" x="447.5" y="610.7344">WasteToFoundationMove</text><line style="stroke:#A80036;stroke-width:1.5;" x1="419.5" x2="591.5" y1="622.1992" y2="622.1992"/><line style="stroke:#A80036;stroke-width:1.5;" x1="419.5" x2="591.5" y1="630.1992" y2="630.1992"/><!--MD5=[f57d89e5a045da3f571e7896de50289b]
class WasteToPileMove--><rect codeLine="25" fill="#FEFECE" filter="url(#f1rdfpxyefnm8k)" height="48" id="WasteToPileMove" style="stroke:#A80036;stroke-width:1.5;" width="131" x="611" y="590.1992"/><ellipse cx="626" cy="606.1992" fill="#ADD1B2" rx="11" ry="11" style="stroke:#A80036;stroke-width:1.0;"/><path d="M628.4731,612.3423 Q627.8921,612.6411 627.2529,612.7905 Q626.6138,612.9399 625.9082,612.9399 Q623.4014,612.9399 622.0815,611.2881 Q620.7617,609.6362 620.7617,606.5151 Q620.7617,603.3857 622.0815,601.7339 Q623.4014,600.082 625.9082,600.082 Q626.6138,600.082 627.2612,600.2314 Q627.9087,600.3809 628.4731,600.6797 L628.4731,603.4023 Q627.8423,602.8213 627.2488,602.5515 Q626.6553,602.2817 626.0244,602.2817 Q624.6797,602.2817 623.9949,603.3484 Q623.3101,604.415 623.3101,606.5151 Q623.3101,608.6069 623.9949,609.6736 Q624.6797,610.7402 626.0244,610.7402 Q626.6553,610.7402 627.2488,610.4705 Q627.8423,610.2007 628.4731,609.6196 Z " fill="#000000"/><text fill="#000000" font-family="sans-serif" font-size="12" lengthAdjust="spacing" textLength="99" x="640" y="610.7344">WasteToPileMove</text><line style="stroke:#A80036;stroke-width:1.5;" x1="612" x2="741" y1="622.1992" y2="622.1992"/><line style="stroke:#A80036;stroke-width:1.5;" x1="612" x2="741" y1="630.1992" y2="630.1992"/><!--MD5=[3cc7e0b497f48ca1baeb6be482167b90]
class WasteToStockMove--><rect codeLine="26" fill="#FEFECE" filter="url(#f1rdfpxyefnm8k)" height="48" id="WasteToStockMove" style="stroke:#A80036;stroke-width:1.5;" width="141" x="760" y="590.1992"/><ellipse cx="775" cy="606.1992" fill="#ADD1B2" rx="11" ry="11" style="stroke:#A80036;stroke-width:1.0;"/><path d="M777.4731,612.3423 Q776.8921,612.6411 776.2529,612.7905 Q775.6138,612.9399 774.9082,612.9399 Q772.4014,612.9399 771.0815,611.2881 Q769.7617,609.6362 769.7617,606.5151 Q769.7617,603.3857 771.0815,601.7339 Q772.4014,600.082 774.9082,600.082 Q775.6138,600.082 776.2612,600.2314 Q776.9087,600.3809 777.4731,600.6797 L777.4731,603.4023 Q776.8423,602.8213 776.2488,602.5515 Q775.6553,602.2817 775.0244,602.2817 Q773.6797,602.2817 772.9949,603.3484 Q772.3101,604.415 772.3101,606.5151 Q772.3101,608.6069 772.9949,609.6736 Q773.6797,610.7402 775.0244,610.7402 Q775.6553,610.7402 776.2488,610.4705 Q776.8423,610.2007 777.4731,609.6196 Z " fill="#000000"/><text fill="#000000" font-family="sans-serif" font-size="12" lengthAdjust="spacing" textLength="109" x="789" y="610.7344">WasteToStockMove</text><line style="stroke:#A80036;stroke-width:1.5;" x1="761" x2="900" y1="622.1992" y2="622.1992"/><line style="stroke:#A80036;stroke-width:1.5;" x1="761" x2="900" y1="630.1992" y2="630.1992"/><!--MD5=[fe139ee4e479f23285df0f8136f9d541]
class Deal--><rect codeLine="27" fill="#FEFECE" filter="url(#f1rdfpxyefnm8k)" height="48" id="Deal" style="stroke:#A80036;stroke-width:1.5;" width="58" x="170.5" y="370.1992"/><ellipse cx="185.5" cy="386.1992" fill="#ADD1B2" rx="11" ry="11" style="stroke:#A80036;stroke-width:1.0;"/><path d="M187.9731,392.3423 Q187.3921,392.6411 186.7529,392.7905 Q186.1138,392.9399 185.4082,392.9399 Q182.9014,392.9399 181.5815,391.2881 Q180.2617,389.6362 180.2617,386.5151 Q180.2617,383.3857 181.5815,381.7339 Q182.9014,380.082 185.4082,380.082 Q186.1138,380.082 186.7612,380.2314 Q187.4087,380.3809 187.9731,380.6797 L187.9731,383.4023 Q187.3423,382.8213 186.7488,382.5515 Q186.1553,382.2817 185.5244,382.2817 Q184.1797,382.2817 183.4949,383.3484 Q182.8101,384.415 182.8101,386.5151 Q182.8101,388.6069 183.4949,389.6736 Q184.1797,390.7402 185.5244,390.7402 Q186.1553,390.7402 186.7488,390.4705 Q187.3423,390.2007 187.9731,389.6196 Z " fill="#000000"/><text fill="#000000" font-family="sans-serif" font-size="12" lengthAdjust="spacing" textLength="26" x="199.5" y="390.7344">Deal</text><line style="stroke:#A80036;stroke-width:1.5;" x1="171.5" x2="227.5" y1="402.1992" y2="402.1992"/><line style="stroke:#A80036;stroke-width:1.5;" x1="171.5" x2="227.5" y1="410.1992" y2="410.1992"/><!--MD5=[3291e6fcbecebcb6315ae20bcec80e4c]
class DealToPile--><rect codeLine="28" fill="#FEFECE" filter="url(#f1rdfpxyefnm8k)" height="48" id="DealToPile" style="stroke:#A80036;stroke-width:1.5;" width="93" x="212" y="480.1992"/><ellipse cx="227" cy="496.1992" fill="#ADD1B2" rx="11" ry="11" style="stroke:#A80036;stroke-width:1.0;"/><path d="M229.4731,502.3423 Q228.8921,502.6411 228.2529,502.7905 Q227.6138,502.9399 226.9082,502.9399 Q224.4014,502.9399 223.0815,501.2881 Q221.7617,499.6362 221.7617,496.5151 Q221.7617,493.3857 223.0815,491.7339 Q224.4014,490.082 226.9082,490.082 Q227.6138,490.082 228.2612,490.2314 Q228.9087,490.3809 229.4731,490.6797 L229.4731,493.4023 Q228.8423,492.8213 228.2488,492.5515 Q227.6553,492.2817 227.0244,492.2817 Q225.6797,492.2817 224.9949,493.3484 Q224.3101,494.415 224.3101,496.5151 Q224.3101,498.6069 224.9949,499.6736 Q225.6797,500.7402 227.0244,500.7402 Q227.6553,500.7402 228.2488,500.4705 Q228.8423,500.2007 229.4731,499.6196 Z " fill="#000000"/><text fill="#000000" font-family="sans-serif" font-size="12" lengthAdjust="spacing" textLength="61" x="241" y="500.7344">DealToPile</text><line style="stroke:#A80036;stroke-width:1.5;" x1="213" x2="304" y1="512.1992" y2="512.1992"/><line style="stroke:#A80036;stroke-width:1.5;" x1="213" x2="304" y1="520.1992" y2="520.1992"/><!--MD5=[6acd6b7774c4d21d2642e186decdd3f5]
class DealToStock--><rect codeLine="29" fill="#FEFECE" filter="url(#f1rdfpxyefnm8k)" height="48" id="DealToStock" style="stroke:#A80036;stroke-width:1.5;" width="103" x="7" y="590.1992"/><ellipse cx="22" cy="606.1992" fill="#ADD1B2" rx="11" ry="11" style="stroke:#A80036;stroke-width:1.0;"/><path d="M24.4731,612.3423 Q23.8921,612.6411 23.2529,612.7905 Q22.6138,612.9399 21.9082,612.9399 Q19.4014,612.9399 18.0815,611.2881 Q16.7617,609.6362 16.7617,606.5151 Q16.7617,603.3857 18.0815,601.7339 Q19.4014,600.082 21.9082,600.082 Q22.6138,600.082 23.2612,600.2314 Q23.9087,600.3809 24.4731,600.6797 L24.4731,603.4023 Q23.8423,602.8213 23.2488,602.5515 Q22.6553,602.2817 22.0244,602.2817 Q20.6797,602.2817 19.9949,603.3484 Q19.3101,604.415 19.3101,606.5151 Q19.3101,608.6069 19.9949,609.6736 Q20.6797,610.7402 22.0244,610.7402 Q22.6553,610.7402 23.2488,610.4705 Q23.8423,610.2007 24.4731,609.6196 Z " fill="#000000"/><text fill="#000000" font-family="sans-serif" font-size="12" lengthAdjust="spacing" textLength="71" x="36" y="610.7344">DealToStock</text><line style="stroke:#A80036;stroke-width:1.5;" x1="8" x2="109" y1="622.1992" y2="622.1992"/><line style="stroke:#A80036;stroke-width:1.5;" x1="8" x2="109" y1="630.1992" y2="630.1992"/><!--MD5=[8c2369c73edf58d465a4a02ad89323f7]
class DealToWaste--><rect codeLine="30" fill="#FEFECE" filter="url(#f1rdfpxyefnm8k)" height="48" id="DealToWaste" style="stroke:#A80036;stroke-width:1.5;" width="107" x="87" y="480.1992"/><ellipse cx="102" cy="496.1992" fill="#ADD1B2" rx="11" ry="11" style="stroke:#A80036;stroke-width:1.0;"/><path d="M104.4731,502.3423 Q103.8921,502.6411 103.2529,502.7905 Q102.6138,502.9399 101.9082,502.9399 Q99.4014,502.9399 98.0815,501.2881 Q96.7617,499.6362 96.7617,496.5151 Q96.7617,493.3857 98.0815,491.7339 Q99.4014,490.082 101.9082,490.082 Q102.6138,490.082 103.2612,490.2314 Q103.9087,490.3809 104.4731,490.6797 L104.4731,493.4023 Q103.8423,492.8213 103.2488,492.5515 Q102.6553,492.2817 102.0244,492.2817 Q100.6797,492.2817 99.9949,493.3484 Q99.3101,494.415 99.3101,496.5151 Q99.3101,498.6069 99.9949,499.6736 Q100.6797,500.7402 102.0244,500.7402 Q102.6553,500.7402 103.2488,500.4705 Q103.8423,500.2007 104.4731,499.6196 Z " fill="#000000"/><text fill="#000000" font-family="sans-serif" font-size="12" lengthAdjust="spacing" textLength="75" x="116" y="500.7344">DealToWaste</text><line style="stroke:#A80036;stroke-width:1.5;" x1="88" x2="193" y1="512.1992" y2="512.1992"/><line style="stroke:#A80036;stroke-width:1.5;" x1="88" x2="193" y1="520.1992" y2="520.1992"/><!--MD5=[c3c256aac7e3870d53c0042288b21bdc]
class Waste--><rect fill="#FEFECE" filter="url(#f1rdfpxyefnm8k)" height="48" id="Waste" style="stroke:#A80036;stroke-width:1.5;" width="66" x="1042.5" y="118.1992"/><ellipse cx="1057.5" cy="134.1992" fill="#ADD1B2" rx="11" ry="11" style="stroke:#A80036;stroke-width:1.0;"/><path d="M1059.9731,140.3423 Q1059.3921,140.6411 1058.7529,140.7905 Q1058.1138,140.9399 1057.4082,140.9399 Q1054.9014,140.9399 1053.5815,139.2881 Q1052.2617,137.6362 1052.2617,134.5151 Q1052.2617,131.3857 1053.5815,129.7339 Q1054.9014,128.082 1057.4082,128.082 Q1058.1138,128.082 1058.7612,128.2314 Q1059.4087,128.3809 1059.9731,128.6797 L1059.9731,131.4023 Q1059.3423,130.8213 1058.7488,130.5515 Q1058.1553,130.2817 1057.5244,130.2817 Q1056.1797,130.2817 1055.4949,131.3484 Q1054.8101,132.415 1054.8101,134.5151 Q1054.8101,136.6069 1055.4949,137.6736 Q1056.1797,138.7402 1057.5244,138.7402 Q1058.1553,138.7402 1058.7488,138.4705 Q1059.3423,138.2007 1059.9731,137.6196 Z " fill="#000000"/><text fill="#000000" font-family="sans-serif" font-size="12" lengthAdjust="spacing" textLength="34" x="1071.5" y="138.7344">Waste</text><line style="stroke:#A80036;stroke-width:1.5;" x1="1043.5" x2="1107.5" y1="150.1992" y2="150.1992"/><line style="stroke:#A80036;stroke-width:1.5;" x1="1043.5" x2="1107.5" y1="158.1992" y2="158.1992"/><path d="M905.3998,80.5297 C879.5237,93.9591 846.5382,111.0781 822.208,123.7052 " fill="none" style="stroke:#A80036;stroke-width:1.0;"/><polygon fill="#A80036" points="905.3998,80.5297,898.2317,79.7432,894.7488,86.0574,901.9169,86.8439,905.3998,80.5297" style="stroke:#A80036;stroke-width:1.0;"/><polygon fill="#A80036" points="822.208,123.7052,832.0388,123.1097,826.6459,121.402,828.3537,116.0091,822.208,123.7052" style="stroke:#A80036;stroke-width:1.0;"/><text fill="#000000" font-family="sans-serif" font-size="13" lengthAdjust="spacing" textLength="8" x="823.208" y="120.2736">1</text><path d="M937.603,82.1992 C927.0006,110.2221 909.2472,159.1597 897.5,202.1992 C889.7099,230.7406 883.2446,264.2303 879.3822,286.0391 " fill="none" style="stroke:#A80036;stroke-width:1.0;"/><polygon fill="#A80036" points="937.603,82.1992,931.7386,86.3956,933.3566,93.4228,939.221,89.2265,937.603,82.1992" style="stroke:#A80036;stroke-width:1.0;"/><polygon fill="#A80036" points="879.3822,286.0391,884.8904,277.8746,880.2541,281.1157,877.013,276.4794,879.3822,286.0391" style="stroke:#A80036;stroke-width:1.0;"/><text fill="#000000" font-family="sans-serif" font-size="13" lengthAdjust="spacing" textLength="8" x="870.3822" y="282.6075">4</text><path d="M946.5,82.2808 C946.5,113.9065 946.5,170.3839 946.5,202.0467 " fill="none" style="stroke:#A80036;stroke-width:1.0;"/><polygon fill="#A80036" points="946.5,82.2808,942.5,88.2808,946.5,94.2808,950.5,88.2808,946.5,82.2808" style="stroke:#A80036;stroke-width:1.0;"/><polygon fill="#A80036" points="946.5,202.0467,950.5,193.0467,946.5,197.0467,942.5,193.0467,946.5,202.0467" style="stroke:#A80036;stroke-width:1.0;"/><text fill="#000000" font-family="sans-serif" font-size="13" lengthAdjust="spacing" textLength="8" x="937.5" y="198.615">1</text><path d="M955.6399,82.6452 C966.2775,110.698 983.7542,159.2664 994.5,202.1992 C1001.6351,230.7062 1006.7584,264.2034 1009.6722,286.0234 " fill="none" style="stroke:#A80036;stroke-width:1.0;"/><polygon fill="#A80036" points="955.6399,82.6452,954.0271,89.6736,959.8946,93.8656,961.5074,86.8371,955.6399,82.6452" style="stroke:#A80036;stroke-width:1.0;"/><polygon fill="#A80036" points="1009.6722,286.0234,1012.4457,276.5731,1009.0104,281.0674,1004.5161,277.632,1009.6722,286.0234" style="stroke:#A80036;stroke-width:1.0;"/><text fill="#000000" font-family="sans-serif" font-size="13" lengthAdjust="spacing" textLength="8" x="1000.6722" y="282.5917">1</text><path d="M982.777,82.259 C1001.4073,94.1016 1023.9509,108.4316 1042.1443,119.9964 " fill="none" style="stroke:#A80036;stroke-width:1.0;"/><polygon fill="#A80036" points="982.777,82.259,985.6948,88.8534,992.9042,88.6964,989.9864,82.102,982.777,82.259" style="stroke:#A80036;stroke-width:1.0;"/><polygon fill="#A80036" points="1042.1443,119.9964,1036.6947,111.7926,1037.9247,117.3141,1032.4031,118.544,1042.1443,119.9964" style="stroke:#A80036;stroke-width:1.0;"/><text fill="#000000" font-family="sans-serif" font-size="13" lengthAdjust="spacing" textLength="8" x="1033.1443" y="116.5647">1</text><path d="M880.8074,334.3589 C887.573,363.8815 899.4481,415.6999 908.2635,454.1672 " fill="none" style="stroke:#A80036;stroke-width:1.0;"/><polygon fill="#A80036" points="880.8074,334.3589,878.2488,341.1008,883.4879,346.0557,886.0466,339.3138,880.8074,334.3589" style="stroke:#A80036;stroke-width:1.0;"/><polygon fill="#A80036" points="908.2635,454.1672,910.152,444.5011,907.1466,449.2935,902.3542,446.2881,908.2635,454.1672" style="stroke:#A80036;stroke-width:1.0;"/><text fill="#000000" font-family="sans-serif" font-size="13" lengthAdjust="spacing" textLength="32" x="909.2635" y="450.7356">0..52</text><path d="M948.8281,250.5536 C949.9358,273.7337 948.2686,309.3077 931.5,334.1992 C913.6695,360.6671 879.6934,376.7862 855.8704,385.3405 " fill="none" style="stroke:#A80036;stroke-width:1.0;"/><polygon fill="#A80036" points="948.8281,250.5536,945.1191,256.7377,949.4009,262.5399,953.11,256.3558,948.8281,250.5536" style="stroke:#A80036;stroke-width:1.0;"/><polygon fill="#A80036" points="855.8704,385.3405,865.6927,386.0636,860.5762,383.6508,862.989,378.5343,855.8704,385.3405" style="stroke:#A80036;stroke-width:1.0;"/><text fill="#000000" font-family="sans-serif" font-size="13" lengthAdjust="spacing" textLength="8" x="856.8704" y="381.9089">7</text><path d="M848.8073,418.3679 C857.4845,428.7806 868.0785,441.4934 878.3972,453.8758 " fill="none" style="stroke:#A80036;stroke-width:1.0;"/><polygon fill="#A80036" points="848.8073,418.3679,849.5755,425.538,856.4895,427.5866,855.7212,420.4165,848.8073,418.3679" style="stroke:#A80036;stroke-width:1.0;"/><polygon fill="#A80036" points="878.3972,453.8758,875.7084,444.4011,875.1963,450.0347,869.5626,449.5226,878.3972,453.8758" style="stroke:#A80036;stroke-width:1.0;"/><text fill="#000000" font-family="sans-serif" font-size="13" lengthAdjust="spacing" textLength="22" x="855.3972" y="450.4442">0..*</text><path d="M1001.282,334.3589 C986.982,363.8815 961.8825,415.6999 943.2499,454.1672 " fill="none" style="stroke:#A80036;stroke-width:1.0;"/><polygon fill="#A80036" points="1001.282,334.3589,995.0665,338.0151,996.0509,345.1587,1002.2664,341.5025,1001.282,334.3589" style="stroke:#A80036;stroke-width:1.0;"/><polygon fill="#A80036" points="943.2499,454.1672,950.7732,447.8111,945.4295,449.6673,943.5733,444.3236,943.2499,454.1672" style="stroke:#A80036;stroke-width:1.0;"/><text fill="#000000" font-family="sans-serif" font-size="13" lengthAdjust="spacing" textLength="32" x="944.2499" y="450.7356">0..24</text><path d="M1076.5917,166.2322 C1077.5078,203.1442 1075.8825,277.1861 1052.5,334.1992 C1033.9407,379.452 999.5488,422.6451 970.3879,454.0367 " fill="none" style="stroke:#A80036;stroke-width:1.0;"/><polygon fill="#A80036" points="1076.5917,166.2322,1072.7418,172.3296,1076.8894,178.2285,1080.7393,172.1311,1076.5917,166.2322" style="stroke:#A80036;stroke-width:1.0;"/><polygon fill="#A80036" points="970.3879,454.0367,979.4439,450.1652,973.7909,450.3734,973.5826,444.7204,970.3879,454.0367" style="stroke:#A80036;stroke-width:1.0;"/><text fill="#000000" font-family="sans-serif" font-size="13" lengthAdjust="spacing" textLength="24" x="971.3879" y="467.6051">0..3</text><path d="M764.3698,166.4778 C752.7865,177.6522 738.949,191.0014 727.3964,202.1463 " fill="none" style="stroke:#A80036;stroke-width:1.0;"/><polygon fill="#FFFFFF" points="764.3698,166.4778,757.2744,167.7648,755.7335,174.8093,762.8288,173.5223,764.3698,166.4778" style="stroke:#A80036;stroke-width:1.0;"/><polygon fill="#A80036" points="727.3964,202.1463,736.6508,198.7764,730.9948,198.6748,731.0964,193.0189,727.3964,202.1463" style="stroke:#A80036;stroke-width:1.0;"/><text fill="#000000" font-family="sans-serif" font-size="13" lengthAdjust="spacing" textLength="8" x="718.3964" y="198.7146">1</text><path d="M781.6107,166.458 C768.1528,216.8584 743.8791,338.0547 794.5,418.1992 C811.3111,444.815 829.3995,436.5988 855.5,454.1992 C858.7486,456.3899 862.0523,458.6875 865.36,461.0425 " fill="none" style="stroke:#A80036;stroke-width:1.0;"/><polygon fill="#A80036" points="865.36,461.0425,860.3483,452.5641,861.2869,458.1426,855.7084,459.0811,865.36,461.0425" style="stroke:#A80036;stroke-width:1.0;"/><path d="M797.3004,166.4778 C801.5249,177.6522 806.5715,191.0014 810.7849,202.1463 " fill="none" style="stroke:#A80036;stroke-width:1.0;"/><polygon fill="#A80036" points="810.7849,202.1463,811.3438,192.3133,809.0167,197.4693,803.8607,195.1423,810.7849,202.1463" style="stroke:#A80036;stroke-width:1.0;"/><path d="M732.6775,241.1094 C758.7471,253.538 797.4261,271.9779 827.9594,286.5345 " fill="none" style="stroke:#A80036;stroke-width:1.0;stroke-dasharray:7.0,7.0;"/><polygon fill="#A80036" points="827.9594,286.5345,821.5568,279.0508,823.4461,284.3828,818.1141,286.2721,827.9594,286.5345" style="stroke:#A80036;stroke-width:1.0;"/><text fill="#000000" font-family="sans-serif" font-size="13" lengthAdjust="spacing" textLength="8" x="818.9594" y="283.1029">1</text><path d="M696.9706,250.4778 C693.8364,261.6522 690.0921,275.0014 686.9661,286.1463 " fill="none" style="stroke:#A80036;stroke-width:1.0;stroke-dasharray:7.0,7.0;"/><polygon fill="#A80036" points="686.9661,286.1463,693.248,278.5609,688.3164,281.332,685.5453,276.4004,686.9661,286.1463" style="stroke:#A80036;stroke-width:1.0;"/><text fill="#000000" font-family="sans-serif" font-size="13" lengthAdjust="spacing" textLength="8" x="677.9661" y="282.7146">1</text><path d="M652.0971,334.259 C638.3274,345.4384 621.8274,358.8344 608.0397,370.0284 " fill="none" style="stroke:#A80036;stroke-width:1.0;"/><polygon fill="#FFFFFF" points="652.0971,334.259,635.8937,339.6858,643.4573,349.002,652.0971,334.259" style="stroke:#A80036;stroke-width:1.0;"/><text fill="#000000" font-family="sans-serif" font-size="13" lengthAdjust="spacing" textLength="8" x="599.0397" y="366.5968">1</text><path d="M675.674,334.4778 C673.3573,345.6522 670.5898,359.0014 668.2793,370.1463 " fill="none" style="stroke:#A80036;stroke-width:1.0;"/><polygon fill="#FFFFFF" points="675.674,334.4778,666.5509,348.9266,678.301,351.3626,675.674,334.4778" style="stroke:#A80036;stroke-width:1.0;"/><text fill="#000000" font-family="sans-serif" font-size="13" lengthAdjust="spacing" textLength="6" x="661.2793" y="366.7146">*</text><path d="M690.3156,418.3679 C711.4062,436.5902 740.6496,461.8565 761.7287,480.0688 " fill="none" style="stroke:#A80036;stroke-width:1.0;"/><polygon fill="#FFFFFF" points="690.3156,418.3679,698.5,433.3685,706.3453,424.2882,690.3156,418.3679" style="stroke:#A80036;stroke-width:1.0;"/><path d="M632.1211,414.6083 C629.2654,415.9537 626.3677,417.1783 623.5,418.1992 C530.1604,451.4288 483.7939,396.1528 403.5,454.1992 C357.3195,487.5842 334.7496,554.4884 325.6328,589.9299 " fill="none" style="stroke:#A80036;stroke-width:1.0;"/><polygon fill="#FFFFFF" points="632.1211,414.6083,615.0898,415.9996,620.2041,426.8552,632.1211,414.6083" style="stroke:#A80036;stroke-width:1.0;"/><path d="M632.136,415.0081 C603.0176,433.3986 559.6683,460.7772 529.0068,480.1423 " fill="none" style="stroke:#A80036;stroke-width:1.0;"/><polygon fill="#FFFFFF" points="632.136,415.0081,615.4042,418.479,621.8121,428.6249,632.136,415.0081" style="stroke:#A80036;stroke-width:1.0;"/><path d="M664.8912,418.529 C667.3934,460.4879 672.6239,548.2006 675.1188,590.0371 " fill="none" style="stroke:#A80036;stroke-width:1.0;"/><polygon fill="#FFFFFF" points="664.8912,418.529,659.8543,434.8578,671.833,434.1435,664.8912,418.529" style="stroke:#A80036;stroke-width:1.0;"/><path d="M671.6876,418.2023 C687.3176,462.0931 719.9182,553.5242 720.5,554.1992 C733.5161,569.3012 751.3834,581.1685 768.9341,590.1757 " fill="none" style="stroke:#A80036;stroke-width:1.0;"/><polygon fill="#FFFFFF" points="671.6876,418.2023,671.4028,435.2879,682.7074,431.2623,671.6876,418.2023" style="stroke:#A80036;stroke-width:1.0;"/><path d="M655.2474,418.3695 C642.8216,451.081 616.9352,511.5616 581.5,554.1992 C570.1831,567.8164 555.208,580.2722 541.5443,590.1939 " fill="none" style="stroke:#A80036;stroke-width:1.0;"/><polygon fill="#FFFFFF" points="655.2474,418.3695,643.9568,431.1961,655.1747,435.4573,655.2474,418.3695" style="stroke:#A80036;stroke-width:1.0;"/><path d="M646.677,316.9653 C556.7575,332.2946 312.9099,373.8653 228.6252,388.234 " fill="none" style="stroke:#A80036;stroke-width:1.0;"/><polygon fill="#FFFFFF" points="646.677,316.9653,629.8962,313.7395,631.9129,325.5688,646.677,316.9653" style="stroke:#A80036;stroke-width:1.0;"/><text fill="#000000" font-family="sans-serif" font-size="13" lengthAdjust="spacing" textLength="6" x="229.6252" y="384.8024">*</text><path d="M212.157,418.3679 C222.1117,436.5902 235.9146,461.8565 245.864,480.0688 " fill="none" style="stroke:#A80036;stroke-width:1.0;"/><polygon fill="#FFFFFF" points="212.157,418.3679,214.5622,435.2858,225.0932,429.5328,212.157,418.3679" style="stroke:#A80036;stroke-width:1.0;"/><path d="M170.3886,400.8712 C141.8162,408.0724 99.4297,423.4582 77.5,454.1992 C48.5198,494.8238 50.8386,556.6498 54.8123,589.9728 " fill="none" style="stroke:#A80036;stroke-width:1.0;"/><polygon fill="#FFFFFF" points="170.3886,400.8712,153.4075,398.9633,156.3401,410.5995,170.3886,400.8712" style="stroke:#A80036;stroke-width:1.0;"/><path d="M186.843,418.3679 C176.8883,436.5902 163.0854,461.8565 153.136,480.0688 " fill="none" style="stroke:#A80036;stroke-width:1.0;"/><polygon fill="#FFFFFF" points="186.843,418.3679,173.9068,429.5328,184.4378,435.2858,186.843,418.3679" style="stroke:#A80036;stroke-width:1.0;"/><path d="M689.249,334.5719 C699.459,358.7982 718.5824,396.1473 746.5,418.1992 C786.5352,449.8227 810.3942,430.3594 855.5,454.1992 C858.7167,455.8994 861.9402,457.7596 865.1359,459.7298 " fill="none" style="stroke:#A80036;stroke-width:1.0;stroke-dasharray:7.0,7.0;"/><polygon fill="#A80036" points="865.1359,459.7298,859.5742,451.6017,860.8798,457.1058,855.3757,458.4114,865.1359,459.7298" style="stroke:#A80036;stroke-width:1.0;"/><text fill="#000000" font-family="sans-serif" font-size="13" lengthAdjust="spacing" textLength="6" x="858.1359" y="473.2982">*</text><path d="M714.3104,329.8063 C741.271,344.6437 778.4872,365.125 803.2395,378.7471 " fill="none" style="stroke:#A80036;stroke-width:1.0;stroke-dasharray:7.0,7.0;"/><polygon fill="#A80036" points="803.2395,378.7471,797.2833,370.9035,798.8591,376.3364,793.4261,377.9122,803.2395,378.7471" style="stroke:#A80036;stroke-width:1.0;"/><text fill="#000000" font-family="sans-serif" font-size="13" lengthAdjust="spacing" textLength="6" x="796.2395" y="375.3155">*</text><path d="M835.3976,250.4778 C843.0289,261.6522 852.1454,275.0014 859.7565,286.1463 " fill="none" style="stroke:#A80036;stroke-width:1.0;"/><polygon fill="#FFFFFF" points="835.3976,250.4778,839.4661,267.0744,849.3758,260.3068,835.3976,250.4778" style="stroke:#A80036;stroke-width:1.0;"/><text fill="#000000" font-family="sans-serif" font-size="13" lengthAdjust="spacing" textLength="8" x="850.7565" y="282.7146">1</text><path d="M817.9405,250.2146 C816.7876,271.9212 815.8329,305.3418 818.5,334.1992 C819.6028,346.1309 821.9345,359.2487 824.1686,370.0793 " fill="none" style="stroke:#A80036;stroke-width:1.0;"/><polygon fill="#FFFFFF" points="817.9405,250.2146,811.1004,265.8739,823.0835,266.5104,817.9405,250.2146" style="stroke:#A80036;stroke-width:1.0;"/><text fill="#000000" font-family="sans-serif" font-size="13" lengthAdjust="spacing" textLength="8" x="815.1686" y="366.6476">1</text><!--MD5=[c96ced1130f180b30b0b49e7fbeec608]
@startuml Class Diagram
title Klondike  - Class Diagram
!pragma layout smetana

class Klondike
class Player
class Tableau
class Foundation
class Pile
class Stock
class Stack
class Goal
class Card {
  +Int color
  +Int number
  +String type
  +boolean turned
}
class Action
class Shuffle
class Move
class PileToPileMove
class PileToFoundationMove
class FoundationToPileMove
class WasteToFoundationMove
class WasteToPileMove
class WasteToStockMove
class Deal
class DealToPile
class DealToStock
class DealToWaste


Klondike *-down-> "1" Player
Klondike *-down-> "4" Foundation
Klondike *-down-> "1" Tableau
Klondike *-down-> "1" Stock
Klondike *-down-> "1" Waste

Foundation *-down-> "0..52" Card

Tableau *-down-> "7" Pile
Pile *-down-> "0..*" Card

Stock *-down-> "0..24" Card
Waste *-down-> "0..3" Card

Player o-down-> "1" Goal
Player -down-> Card
Player -down-> Stack
Goal .down.> "1" Foundation

Goal .down.> "1" Action
Action <|-down- "1" Shuffle
Action <|-down- "*" Move
Move <|-down- PileToPileMove
Move <|-down- - PileToFoundationMove
Move <|-down- FoundationToPileMove
Move <|-down- - WasteToPileMove
Move <|-down- - WasteToStockMove
Move <|-down- - WasteToFoundationMove
Action <|-down- "*" Deal
Deal <|-down- DealToPile
Deal <|-down- - DealToStock
Deal <|-down- DealToWaste
Action .down.> "*" Card
Action .down.> "*" Pile

Stack <|-down- "1" Foundation
Stack <|-down- "1" Pile

@enduml

PlantUML version 1.2022.0(Tue Jan 11 11:16:42 ECT 2022)
(GPL source distribution)
Java Runtime: OpenJDK Runtime Environment
JVM: OpenJDK 64-Bit Server VM
Default Encoding: UTF-8
Language: es
Country: EC
--></g></svg>