<?xml version="1.0" encoding="UTF-8" standalone="no"?><svg xmlns="http://www.w3.org/2000/svg" xmlns:xlink="http://www.w3.org/1999/xlink" contentStyleType="text/css" height="668px" preserveAspectRatio="none" style="width:1185px;height:668px;background:#FFFFFF;" version="1.1" viewBox="0 0 1185 668" width="1185px" zoomAndPan="magnify"><defs/><g><rect height="26.4883" style="stroke:#00000000;stroke-width:1.0;fill:none;" width="348" x="411.75" y="5"/><text fill="#000000" font-family="sans-serif" font-size="14" font-weight="bold" lengthAdjust="spacing" textLength="338" x="416.75" y="23.5352">Klondike  - Class Diagram Domain Vocabulary</text><!--MD5=[ce135f397e71694d574a1221b16fe9d6]
class Klondike--><g id="elem_Klondike"><rect codeLine="4" fill="#F1F1F1" height="48" id="Klondike" rx="2.5" ry="2.5" style="stroke:#181818;stroke-width:0.5;" width="92" x="960.5" y="43.4883"/><ellipse cx="975.5" cy="59.4883" fill="#ADD1B2" rx="11" ry="11" style="stroke:#181818;stroke-width:1.0;"/><path d="M977.9731,65.6313 Q977.3921,65.9302 976.7529,66.0796 Q976.1138,66.229 975.4082,66.229 Q972.9014,66.229 971.5815,64.5771 Q970.2617,62.9253 970.2617,59.8042 Q970.2617,56.6748 971.5815,55.0229 Q972.9014,53.3711 975.4082,53.3711 Q976.1138,53.3711 976.7612,53.5205 Q977.4087,53.6699 977.9731,53.9688 L977.9731,56.6914 Q977.3423,56.1104 976.7488,55.8406 Q976.1553,55.5708 975.5244,55.5708 Q974.1797,55.5708 973.4949,56.6375 Q972.8101,57.7041 972.8101,59.8042 Q972.8101,61.896 973.4949,62.9626 Q974.1797,64.0293 975.5244,64.0293 Q976.1553,64.0293 976.7488,63.7595 Q977.3423,63.4897 977.9731,62.9087 Z " fill="#000000"/><text fill="#000000" font-family="sans-serif" font-size="14" lengthAdjust="spacing" textLength="60" x="989.5" y="64.7793">Klondike</text><line style="stroke:#181818;stroke-width:0.5;" x1="961.5" x2="1051.5" y1="75.4883" y2="75.4883"/><line style="stroke:#181818;stroke-width:0.5;" x1="961.5" x2="1051.5" y1="83.4883" y2="83.4883"/></g><!--MD5=[2cb47ba637a0d19583e6199456f6ad0b]
class Player--><g id="elem_Player"><rect codeLine="5" fill="#F1F1F1" height="48" id="Player" rx="2.5" ry="2.5" style="stroke:#181818;stroke-width:0.5;" width="73" x="804" y="127.4883"/><ellipse cx="819" cy="143.4883" fill="#ADD1B2" rx="11" ry="11" style="stroke:#181818;stroke-width:1.0;"/><path d="M821.4731,149.6313 Q820.8921,149.9302 820.2529,150.0796 Q819.6138,150.229 818.9082,150.229 Q816.4014,150.229 815.0815,148.5771 Q813.7617,146.9253 813.7617,143.8042 Q813.7617,140.6748 815.0815,139.0229 Q816.4014,137.3711 818.9082,137.3711 Q819.6138,137.3711 820.2612,137.5205 Q820.9087,137.6699 821.4731,137.9688 L821.4731,140.6914 Q820.8423,140.1104 820.2488,139.8406 Q819.6553,139.5708 819.0244,139.5708 Q817.6797,139.5708 816.9949,140.6375 Q816.3101,141.7041 816.3101,143.8042 Q816.3101,145.896 816.9949,146.9626 Q817.6797,148.0293 819.0244,148.0293 Q819.6553,148.0293 820.2488,147.7595 Q820.8423,147.4897 821.4731,146.9087 Z " fill="#000000"/><text fill="#000000" font-family="sans-serif" font-size="14" lengthAdjust="spacing" textLength="41" x="833" y="148.7793">Player</text><line style="stroke:#181818;stroke-width:0.5;" x1="805" x2="876" y1="159.4883" y2="159.4883"/><line style="stroke:#181818;stroke-width:0.5;" x1="805" x2="876" y1="167.4883" y2="167.4883"/></g><!--MD5=[c033d16283544a66478df33ee92fe5a6]
class Tableau--><g id="elem_Tableau"><rect codeLine="6" fill="#F1F1F1" height="48" id="Tableau" rx="2.5" ry="2.5" style="stroke:#181818;stroke-width:0.5;" width="87" x="963" y="211.4883"/><ellipse cx="978" cy="227.4883" fill="#ADD1B2" rx="11" ry="11" style="stroke:#181818;stroke-width:1.0;"/><path d="M980.4731,233.6313 Q979.8921,233.9302 979.2529,234.0796 Q978.6138,234.229 977.9082,234.229 Q975.4014,234.229 974.0815,232.5771 Q972.7617,230.9253 972.7617,227.8042 Q972.7617,224.6748 974.0815,223.0229 Q975.4014,221.3711 977.9082,221.3711 Q978.6138,221.3711 979.2612,221.5205 Q979.9087,221.6699 980.4731,221.9688 L980.4731,224.6914 Q979.8423,224.1104 979.2488,223.8406 Q978.6553,223.5708 978.0244,223.5708 Q976.6797,223.5708 975.9949,224.6375 Q975.3101,225.7041 975.3101,227.8042 Q975.3101,229.896 975.9949,230.9626 Q976.6797,232.0293 978.0244,232.0293 Q978.6553,232.0293 979.2488,231.7595 Q979.8423,231.4897 980.4731,230.9087 Z " fill="#000000"/><text fill="#000000" font-family="sans-serif" font-size="14" lengthAdjust="spacing" textLength="55" x="992" y="232.7793">Tableau</text><line style="stroke:#181818;stroke-width:0.5;" x1="964" x2="1049" y1="243.4883" y2="243.4883"/><line style="stroke:#181818;stroke-width:0.5;" x1="964" x2="1049" y1="251.4883" y2="251.4883"/></g><!--MD5=[d01ad859d436f6e28b36a553834670aa]
class Foundation--><g id="elem_Foundation"><rect codeLine="7" fill="#F1F1F1" height="48" id="Foundation" rx="2.5" ry="2.5" style="stroke:#181818;stroke-width:0.5;" width="111" x="877" y="295.4883"/><ellipse cx="892" cy="311.4883" fill="#ADD1B2" rx="11" ry="11" style="stroke:#181818;stroke-width:1.0;"/><path d="M894.4731,317.6313 Q893.8921,317.9302 893.2529,318.0796 Q892.6138,318.229 891.9082,318.229 Q889.4014,318.229 888.0815,316.5771 Q886.7617,314.9253 886.7617,311.8042 Q886.7617,308.6748 888.0815,307.0229 Q889.4014,305.3711 891.9082,305.3711 Q892.6138,305.3711 893.2612,305.5205 Q893.9087,305.6699 894.4731,305.9688 L894.4731,308.6914 Q893.8423,308.1104 893.2488,307.8406 Q892.6553,307.5708 892.0244,307.5708 Q890.6797,307.5708 889.9949,308.6375 Q889.3101,309.7041 889.3101,311.8042 Q889.3101,313.896 889.9949,314.9626 Q890.6797,316.0293 892.0244,316.0293 Q892.6553,316.0293 893.2488,315.7595 Q893.8423,315.4897 894.4731,314.9087 Z " fill="#000000"/><text fill="#000000" font-family="sans-serif" font-size="14" lengthAdjust="spacing" textLength="79" x="906" y="316.7793">Foundation</text><line style="stroke:#181818;stroke-width:0.5;" x1="878" x2="987" y1="327.4883" y2="327.4883"/><line style="stroke:#181818;stroke-width:0.5;" x1="878" x2="987" y1="335.4883" y2="335.4883"/></g><!--MD5=[9d65f55e1ae89a5b4cf38812aa4a03f3]
class Pile--><g id="elem_Pile"><rect codeLine="8" fill="#F1F1F1" height="48" id="Pile" rx="2.5" ry="2.5" style="stroke:#181818;stroke-width:0.5;" width="56" x="870.5" y="379.4883"/><ellipse cx="885.5" cy="395.4883" fill="#ADD1B2" rx="11" ry="11" style="stroke:#181818;stroke-width:1.0;"/><path d="M887.9731,401.6313 Q887.3921,401.9302 886.7529,402.0796 Q886.1138,402.229 885.4082,402.229 Q882.9014,402.229 881.5815,400.5771 Q880.2617,398.9253 880.2617,395.8042 Q880.2617,392.6748 881.5815,391.0229 Q882.9014,389.3711 885.4082,389.3711 Q886.1138,389.3711 886.7612,389.5205 Q887.4087,389.6699 887.9731,389.9688 L887.9731,392.6914 Q887.3423,392.1104 886.7488,391.8406 Q886.1553,391.5708 885.5244,391.5708 Q884.1797,391.5708 883.4949,392.6375 Q882.8101,393.7041 882.8101,395.8042 Q882.8101,397.896 883.4949,398.9626 Q884.1797,400.0293 885.5244,400.0293 Q886.1553,400.0293 886.7488,399.7595 Q887.3423,399.4897 887.9731,398.9087 Z " fill="#000000"/><text fill="#000000" font-family="sans-serif" font-size="14" lengthAdjust="spacing" textLength="24" x="899.5" y="400.7793">Pile</text><line style="stroke:#181818;stroke-width:0.5;" x1="871.5" x2="925.5" y1="411.4883" y2="411.4883"/><line style="stroke:#181818;stroke-width:0.5;" x1="871.5" x2="925.5" y1="419.4883" y2="419.4883"/></g><!--MD5=[a4cb0f987c11031dc931233a0e7767af]
class Stock--><g id="elem_Stock"><rect codeLine="9" fill="#F1F1F1" height="48" id="Stock" rx="2.5" ry="2.5" style="stroke:#181818;stroke-width:0.5;" width="69" x="1045" y="295.4883"/><ellipse cx="1060" cy="311.4883" fill="#ADD1B2" rx="11" ry="11" style="stroke:#181818;stroke-width:1.0;"/><path d="M1062.4731,317.6313 Q1061.8921,317.9302 1061.2529,318.0796 Q1060.6138,318.229 1059.9082,318.229 Q1057.4014,318.229 1056.0815,316.5771 Q1054.7617,314.9253 1054.7617,311.8042 Q1054.7617,308.6748 1056.0815,307.0229 Q1057.4014,305.3711 1059.9082,305.3711 Q1060.6138,305.3711 1061.2612,305.5205 Q1061.9087,305.6699 1062.4731,305.9688 L1062.4731,308.6914 Q1061.8423,308.1104 1061.2488,307.8406 Q1060.6553,307.5708 1060.0244,307.5708 Q1058.6797,307.5708 1057.9949,308.6375 Q1057.3101,309.7041 1057.3101,311.8042 Q1057.3101,313.896 1057.9949,314.9626 Q1058.6797,316.0293 1060.0244,316.0293 Q1060.6553,316.0293 1061.2488,315.7595 Q1061.8423,315.4897 1062.4731,314.9087 Z " fill="#000000"/><text fill="#000000" font-family="sans-serif" font-size="14" lengthAdjust="spacing" textLength="37" x="1074" y="316.7793">Stock</text><line style="stroke:#181818;stroke-width:0.5;" x1="1046" x2="1113" y1="327.4883" y2="327.4883"/><line style="stroke:#181818;stroke-width:0.5;" x1="1046" x2="1113" y1="335.4883" y2="335.4883"/></g><!--MD5=[1a47157467d69c83c0a10e9152875283]
class Stack--><g id="elem_Stack"><rect codeLine="10" fill="#F1F1F1" height="48" id="Stack" rx="2.5" ry="2.5" style="stroke:#181818;stroke-width:0.5;" width="68" x="838.5" y="211.4883"/><ellipse cx="853.5" cy="227.4883" fill="#ADD1B2" rx="11" ry="11" style="stroke:#181818;stroke-width:1.0;"/><path d="M855.9731,233.6313 Q855.3921,233.9302 854.7529,234.0796 Q854.1138,234.229 853.4082,234.229 Q850.9014,234.229 849.5815,232.5771 Q848.2617,230.9253 848.2617,227.8042 Q848.2617,224.6748 849.5815,223.0229 Q850.9014,221.3711 853.4082,221.3711 Q854.1138,221.3711 854.7612,221.5205 Q855.4087,221.6699 855.9731,221.9688 L855.9731,224.6914 Q855.3423,224.1104 854.7488,223.8406 Q854.1553,223.5708 853.5244,223.5708 Q852.1797,223.5708 851.4949,224.6375 Q850.8101,225.7041 850.8101,227.8042 Q850.8101,229.896 851.4949,230.9626 Q852.1797,232.0293 853.5244,232.0293 Q854.1553,232.0293 854.7488,231.7595 Q855.3423,231.4897 855.9731,230.9087 Z " fill="#000000"/><text fill="#000000" font-family="sans-serif" font-size="14" lengthAdjust="spacing" textLength="36" x="867.5" y="232.7793">Stack</text><line style="stroke:#181818;stroke-width:0.5;" x1="839.5" x2="905.5" y1="243.4883" y2="243.4883"/><line style="stroke:#181818;stroke-width:0.5;" x1="839.5" x2="905.5" y1="251.4883" y2="251.4883"/></g><!--MD5=[0992d3fdc9d3d7c02b735131bb70871d]
class Goal--><g id="elem_Goal"><rect codeLine="11" fill="#F1F1F1" height="48" id="Goal" rx="2.5" ry="2.5" style="stroke:#181818;stroke-width:0.5;" width="63" x="719" y="211.4883"/><ellipse cx="734" cy="227.4883" fill="#ADD1B2" rx="11" ry="11" style="stroke:#181818;stroke-width:1.0;"/><path d="M736.4731,233.6313 Q735.8921,233.9302 735.2529,234.0796 Q734.6138,234.229 733.9082,234.229 Q731.4014,234.229 730.0815,232.5771 Q728.7617,230.9253 728.7617,227.8042 Q728.7617,224.6748 730.0815,223.0229 Q731.4014,221.3711 733.9082,221.3711 Q734.6138,221.3711 735.2612,221.5205 Q735.9087,221.6699 736.4731,221.9688 L736.4731,224.6914 Q735.8423,224.1104 735.2488,223.8406 Q734.6553,223.5708 734.0244,223.5708 Q732.6797,223.5708 731.9949,224.6375 Q731.3101,225.7041 731.3101,227.8042 Q731.3101,229.896 731.9949,230.9626 Q732.6797,232.0293 734.0244,232.0293 Q734.6553,232.0293 735.2488,231.7595 Q735.8423,231.4897 736.4731,230.9087 Z " fill="#000000"/><text fill="#000000" font-family="sans-serif" font-size="14" lengthAdjust="spacing" textLength="31" x="748" y="232.7793">Goal</text><line style="stroke:#181818;stroke-width:0.5;" x1="720" x2="781" y1="243.4883" y2="243.4883"/><line style="stroke:#181818;stroke-width:0.5;" x1="720" x2="781" y1="251.4883" y2="251.4883"/></g><!--MD5=[5e305716458bbdabbd2d7f572ed2bae2]
class Card--><g id="elem_Card"><rect codeLine="12" fill="#F1F1F1" height="113.9531" id="Card" rx="2.5" ry="2.5" style="stroke:#181818;stroke-width:0.5;" width="132" x="928.5" y="463.4883"/><ellipse cx="973.75" cy="479.4883" fill="#ADD1B2" rx="11" ry="11" style="stroke:#181818;stroke-width:1.0;"/><path d="M976.2231,485.6313 Q975.6421,485.9302 975.0029,486.0796 Q974.3638,486.229 973.6582,486.229 Q971.1514,486.229 969.8315,484.5771 Q968.5117,482.9253 968.5117,479.8042 Q968.5117,476.6748 969.8315,475.0229 Q971.1514,473.3711 973.6582,473.3711 Q974.3638,473.3711 975.0112,473.5205 Q975.6587,473.6699 976.2231,473.9688 L976.2231,476.6914 Q975.5923,476.1104 974.9988,475.8406 Q974.4053,475.5708 973.7744,475.5708 Q972.4297,475.5708 971.7449,476.6375 Q971.0601,477.7041 971.0601,479.8042 Q971.0601,481.896 971.7449,482.9626 Q972.4297,484.0293 973.7744,484.0293 Q974.4053,484.0293 974.9988,483.7595 Q975.5923,483.4897 976.2231,482.9087 Z " fill="#000000"/><text fill="#000000" font-family="sans-serif" font-size="14" lengthAdjust="spacing" textLength="33" x="994.25" y="484.7793">Card</text><line style="stroke:#181818;stroke-width:0.5;" x1="929.5" x2="1059.5" y1="495.4883" y2="495.4883"/><ellipse cx="939.5" cy="506.4883" fill="none" rx="3" ry="3" style="stroke:#038048;stroke-width:1.0;"/><text fill="#000000" font-family="sans-serif" font-size="14" lengthAdjust="spacing" textLength="57" x="948.5" y="513.0234">Int color</text><ellipse cx="939.5" cy="522.9766" fill="none" rx="3" ry="3" style="stroke:#038048;stroke-width:1.0;"/><text fill="#000000" font-family="sans-serif" font-size="14" lengthAdjust="spacing" textLength="76" x="948.5" y="529.5117">Int number</text><ellipse cx="939.5" cy="539.4648" fill="none" rx="3" ry="3" style="stroke:#038048;stroke-width:1.0;"/><text fill="#000000" font-family="sans-serif" font-size="14" lengthAdjust="spacing" textLength="86" x="948.5" y="546">String figure</text><ellipse cx="939.5" cy="555.9531" fill="none" rx="3" ry="3" style="stroke:#038048;stroke-width:1.0;"/><text fill="#000000" font-family="sans-serif" font-size="14" lengthAdjust="spacing" textLength="106" x="948.5" y="562.4883">boolean turned</text><line style="stroke:#181818;stroke-width:0.5;" x1="929.5" x2="1059.5" y1="569.4414" y2="569.4414"/></g><!--MD5=[f8e7078f77c005d15b486c0c98deb1e6]
class Action--><g id="elem_Action"><rect codeLine="18" fill="#F1F1F1" height="48" id="Action" rx="2.5" ry="2.5" style="stroke:#181818;stroke-width:0.5;" width="76" x="689.5" y="295.4883"/><ellipse cx="704.5" cy="311.4883" fill="#ADD1B2" rx="11" ry="11" style="stroke:#181818;stroke-width:1.0;"/><path d="M706.9731,317.6313 Q706.3921,317.9302 705.7529,318.0796 Q705.1138,318.229 704.4082,318.229 Q701.9014,318.229 700.5815,316.5771 Q699.2617,314.9253 699.2617,311.8042 Q699.2617,308.6748 700.5815,307.0229 Q701.9014,305.3711 704.4082,305.3711 Q705.1138,305.3711 705.7612,305.5205 Q706.4087,305.6699 706.9731,305.9688 L706.9731,308.6914 Q706.3423,308.1104 705.7488,307.8406 Q705.1553,307.5708 704.5244,307.5708 Q703.1797,307.5708 702.4949,308.6375 Q701.8101,309.7041 701.8101,311.8042 Q701.8101,313.896 702.4949,314.9626 Q703.1797,316.0293 704.5244,316.0293 Q705.1553,316.0293 705.7488,315.7595 Q706.3423,315.4897 706.9731,314.9087 Z " fill="#000000"/><text fill="#000000" font-family="sans-serif" font-size="14" lengthAdjust="spacing" textLength="44" x="718.5" y="316.7793">Action</text><line style="stroke:#181818;stroke-width:0.5;" x1="690.5" x2="764.5" y1="327.4883" y2="327.4883"/><line style="stroke:#181818;stroke-width:0.5;" x1="690.5" x2="764.5" y1="335.4883" y2="335.4883"/></g><!--MD5=[2743c34aa2b8a300d8bab9b4b445451e]
class Shuffle--><g id="elem_Shuffle"><rect codeLine="19" fill="#F1F1F1" height="48" id="Shuffle" rx="2.5" ry="2.5" style="stroke:#181818;stroke-width:0.5;" width="80" x="578.5" y="379.4883"/><ellipse cx="593.5" cy="395.4883" fill="#ADD1B2" rx="11" ry="11" style="stroke:#181818;stroke-width:1.0;"/><path d="M595.9731,401.6313 Q595.3921,401.9302 594.7529,402.0796 Q594.1138,402.229 593.4082,402.229 Q590.9014,402.229 589.5815,400.5771 Q588.2617,398.9253 588.2617,395.8042 Q588.2617,392.6748 589.5815,391.0229 Q590.9014,389.3711 593.4082,389.3711 Q594.1138,389.3711 594.7612,389.5205 Q595.4087,389.6699 595.9731,389.9688 L595.9731,392.6914 Q595.3423,392.1104 594.7488,391.8406 Q594.1553,391.5708 593.5244,391.5708 Q592.1797,391.5708 591.4949,392.6375 Q590.8101,393.7041 590.8101,395.8042 Q590.8101,397.896 591.4949,398.9626 Q592.1797,400.0293 593.5244,400.0293 Q594.1553,400.0293 594.7488,399.7595 Q595.3423,399.4897 595.9731,398.9087 Z " fill="#000000"/><text fill="#000000" font-family="sans-serif" font-size="14" lengthAdjust="spacing" textLength="48" x="607.5" y="400.7793">Shuffle</text><line style="stroke:#181818;stroke-width:0.5;" x1="579.5" x2="657.5" y1="411.4883" y2="411.4883"/><line style="stroke:#181818;stroke-width:0.5;" x1="579.5" x2="657.5" y1="419.4883" y2="419.4883"/></g><!--MD5=[1981719fa3982d92ef7fd3f06d73b3e7]
class Move--><g id="elem_Move"><rect codeLine="20" fill="#F1F1F1" height="48" id="Move" rx="2.5" ry="2.5" style="stroke:#181818;stroke-width:0.5;" width="68" x="676.5" y="379.4883"/><ellipse cx="691.5" cy="395.4883" fill="#ADD1B2" rx="11" ry="11" style="stroke:#181818;stroke-width:1.0;"/><path d="M693.9731,401.6313 Q693.3921,401.9302 692.7529,402.0796 Q692.1138,402.229 691.4082,402.229 Q688.9014,402.229 687.5815,400.5771 Q686.2617,398.9253 686.2617,395.8042 Q686.2617,392.6748 687.5815,391.0229 Q688.9014,389.3711 691.4082,389.3711 Q692.1138,389.3711 692.7612,389.5205 Q693.4087,389.6699 693.9731,389.9688 L693.9731,392.6914 Q693.3423,392.1104 692.7488,391.8406 Q692.1553,391.5708 691.5244,391.5708 Q690.1797,391.5708 689.4949,392.6375 Q688.8101,393.7041 688.8101,395.8042 Q688.8101,397.896 689.4949,398.9626 Q690.1797,400.0293 691.5244,400.0293 Q692.1553,400.0293 692.7488,399.7595 Q693.3423,399.4897 693.9731,398.9087 Z " fill="#000000"/><text fill="#000000" font-family="sans-serif" font-size="14" lengthAdjust="spacing" textLength="36" x="705.5" y="400.7793">Move</text><line style="stroke:#181818;stroke-width:0.5;" x1="677.5" x2="743.5" y1="411.4883" y2="411.4883"/><line style="stroke:#181818;stroke-width:0.5;" x1="677.5" x2="743.5" y1="419.4883" y2="419.4883"/></g><!--MD5=[73996485a1235a03139d317d8108c082]
class PileToPileMove--><g id="elem_PileToPileMove"><rect codeLine="21" fill="#F1F1F1" height="48" id="PileToPileMove" rx="2.5" ry="2.5" style="stroke:#181818;stroke-width:0.5;" width="134" x="776.5" y="496.4883"/><ellipse cx="791.5" cy="512.4883" fill="#ADD1B2" rx="11" ry="11" style="stroke:#181818;stroke-width:1.0;"/><path d="M793.9731,518.6313 Q793.3921,518.9302 792.7529,519.0796 Q792.1138,519.229 791.4082,519.229 Q788.9014,519.229 787.5815,517.5771 Q786.2617,515.9253 786.2617,512.8042 Q786.2617,509.6748 787.5815,508.0229 Q788.9014,506.3711 791.4082,506.3711 Q792.1138,506.3711 792.7612,506.5205 Q793.4087,506.6699 793.9731,506.9688 L793.9731,509.6914 Q793.3423,509.1104 792.7488,508.8406 Q792.1553,508.5708 791.5244,508.5708 Q790.1797,508.5708 789.4949,509.6375 Q788.8101,510.7041 788.8101,512.8042 Q788.8101,514.896 789.4949,515.9626 Q790.1797,517.0293 791.5244,517.0293 Q792.1553,517.0293 792.7488,516.7595 Q793.3423,516.4897 793.9731,515.9087 Z " fill="#000000"/><text fill="#000000" font-family="sans-serif" font-size="14" lengthAdjust="spacing" textLength="102" x="805.5" y="517.7793">PileToPileMove</text><line style="stroke:#181818;stroke-width:0.5;" x1="777.5" x2="909.5" y1="528.4883" y2="528.4883"/><line style="stroke:#181818;stroke-width:0.5;" x1="777.5" x2="909.5" y1="536.4883" y2="536.4883"/></g><!--MD5=[6abfd00d8de9d1b868c4aefaef2f5c5f]
class PileToFoundationMove--><g id="elem_PileToFoundationMove"><rect codeLine="22" fill="#F1F1F1" height="48" id="PileToFoundationMove" rx="2.5" ry="2.5" style="stroke:#181818;stroke-width:0.5;" width="189" x="205" y="613.4883"/><ellipse cx="220" cy="629.4883" fill="#ADD1B2" rx="11" ry="11" style="stroke:#181818;stroke-width:1.0;"/><path d="M222.4731,635.6313 Q221.8921,635.9302 221.2529,636.0796 Q220.6138,636.229 219.9082,636.229 Q217.4014,636.229 216.0815,634.5771 Q214.7617,632.9253 214.7617,629.8042 Q214.7617,626.6748 216.0815,625.0229 Q217.4014,623.3711 219.9082,623.3711 Q220.6138,623.3711 221.2612,623.5205 Q221.9087,623.6699 222.4731,623.9688 L222.4731,626.6914 Q221.8423,626.1104 221.2488,625.8406 Q220.6553,625.5708 220.0244,625.5708 Q218.6797,625.5708 217.9949,626.6375 Q217.3101,627.7041 217.3101,629.8042 Q217.3101,631.896 217.9949,632.9626 Q218.6797,634.0293 220.0244,634.0293 Q220.6553,634.0293 221.2488,633.7595 Q221.8423,633.4897 222.4731,632.9087 Z " fill="#000000"/><text fill="#000000" font-family="sans-serif" font-size="14" lengthAdjust="spacing" textLength="157" x="234" y="634.7793">PileToFoundationMove</text><line style="stroke:#181818;stroke-width:0.5;" x1="206" x2="393" y1="645.4883" y2="645.4883"/><line style="stroke:#181818;stroke-width:0.5;" x1="206" x2="393" y1="653.4883" y2="653.4883"/></g><!--MD5=[11bec0262649df79c277d56ebd0dc31b]
class FoundationToPileMove--><g id="elem_FoundationToPileMove"><rect codeLine="23" fill="#F1F1F1" height="48" id="FoundationToPileMove" rx="2.5" ry="2.5" style="stroke:#181818;stroke-width:0.5;" width="189" x="392" y="496.4883"/><ellipse cx="407" cy="512.4883" fill="#ADD1B2" rx="11" ry="11" style="stroke:#181818;stroke-width:1.0;"/><path d="M409.4731,518.6313 Q408.8921,518.9302 408.2529,519.0796 Q407.6138,519.229 406.9082,519.229 Q404.4014,519.229 403.0815,517.5771 Q401.7617,515.9253 401.7617,512.8042 Q401.7617,509.6748 403.0815,508.0229 Q404.4014,506.3711 406.9082,506.3711 Q407.6138,506.3711 408.2612,506.5205 Q408.9087,506.6699 409.4731,506.9688 L409.4731,509.6914 Q408.8423,509.1104 408.2488,508.8406 Q407.6553,508.5708 407.0244,508.5708 Q405.6797,508.5708 404.9949,509.6375 Q404.3101,510.7041 404.3101,512.8042 Q404.3101,514.896 404.9949,515.9626 Q405.6797,517.0293 407.0244,517.0293 Q407.6553,517.0293 408.2488,516.7595 Q408.8423,516.4897 409.4731,515.9087 Z " fill="#000000"/><text fill="#000000" font-family="sans-serif" font-size="14" lengthAdjust="spacing" textLength="157" x="421" y="517.7793">FoundationToPileMove</text><line style="stroke:#181818;stroke-width:0.5;" x1="393" x2="580" y1="528.4883" y2="528.4883"/><line style="stroke:#181818;stroke-width:0.5;" x1="393" x2="580" y1="536.4883" y2="536.4883"/></g><!--MD5=[c14fb894f9d1867c83512862ef54e19e]
class WasteToFoundationMove--><g id="elem_WasteToFoundationMove"><rect codeLine="24" fill="#F1F1F1" height="48" id="WasteToFoundationMove" rx="2.5" ry="2.5" style="stroke:#181818;stroke-width:0.5;" width="205" x="412" y="613.4883"/><ellipse cx="427" cy="629.4883" fill="#ADD1B2" rx="11" ry="11" style="stroke:#181818;stroke-width:1.0;"/><path d="M429.4731,635.6313 Q428.8921,635.9302 428.2529,636.0796 Q427.6138,636.229 426.9082,636.229 Q424.4014,636.229 423.0815,634.5771 Q421.7617,632.9253 421.7617,629.8042 Q421.7617,626.6748 423.0815,625.0229 Q424.4014,623.3711 426.9082,623.3711 Q427.6138,623.3711 428.2612,623.5205 Q428.9087,623.6699 429.4731,623.9688 L429.4731,626.6914 Q428.8423,626.1104 428.2488,625.8406 Q427.6553,625.5708 427.0244,625.5708 Q425.6797,625.5708 424.9949,626.6375 Q424.3101,627.7041 424.3101,629.8042 Q424.3101,631.896 424.9949,632.9626 Q425.6797,634.0293 427.0244,634.0293 Q427.6553,634.0293 428.2488,633.7595 Q428.8423,633.4897 429.4731,632.9087 Z " fill="#000000"/><text fill="#000000" font-family="sans-serif" font-size="14" lengthAdjust="spacing" textLength="173" x="441" y="634.7793">WasteToFoundationMove</text><line style="stroke:#181818;stroke-width:0.5;" x1="413" x2="616" y1="645.4883" y2="645.4883"/><line style="stroke:#181818;stroke-width:0.5;" x1="413" x2="616" y1="653.4883" y2="653.4883"/></g><!--MD5=[f57d89e5a045da3f571e7896de50289b]
class WasteToPileMove--><g id="elem_WasteToPileMove"><rect codeLine="25" fill="#F1F1F1" height="48" id="WasteToPileMove" rx="2.5" ry="2.5" style="stroke:#181818;stroke-width:0.5;" width="150" x="635.5" y="613.4883"/><ellipse cx="650.5" cy="629.4883" fill="#ADD1B2" rx="11" ry="11" style="stroke:#181818;stroke-width:1.0;"/><path d="M652.9731,635.6313 Q652.3921,635.9302 651.7529,636.0796 Q651.1138,636.229 650.4082,636.229 Q647.9014,636.229 646.5815,634.5771 Q645.2617,632.9253 645.2617,629.8042 Q645.2617,626.6748 646.5815,625.0229 Q647.9014,623.3711 650.4082,623.3711 Q651.1138,623.3711 651.7612,623.5205 Q652.4087,623.6699 652.9731,623.9688 L652.9731,626.6914 Q652.3423,626.1104 651.7488,625.8406 Q651.1553,625.5708 650.5244,625.5708 Q649.1797,625.5708 648.4949,626.6375 Q647.8101,627.7041 647.8101,629.8042 Q647.8101,631.896 648.4949,632.9626 Q649.1797,634.0293 650.5244,634.0293 Q651.1553,634.0293 651.7488,633.7595 Q652.3423,633.4897 652.9731,632.9087 Z " fill="#000000"/><text fill="#000000" font-family="sans-serif" font-size="14" lengthAdjust="spacing" textLength="118" x="664.5" y="634.7793">WasteToPileMove</text><line style="stroke:#181818;stroke-width:0.5;" x1="636.5" x2="784.5" y1="645.4883" y2="645.4883"/><line style="stroke:#181818;stroke-width:0.5;" x1="636.5" x2="784.5" y1="653.4883" y2="653.4883"/></g><!--MD5=[3cc7e0b497f48ca1baeb6be482167b90]
class WasteToStockMove--><g id="elem_WasteToStockMove"><rect codeLine="26" fill="#F1F1F1" height="48" id="WasteToStockMove" rx="2.5" ry="2.5" style="stroke:#181818;stroke-width:0.5;" width="163" x="804" y="613.4883"/><ellipse cx="819" cy="629.4883" fill="#ADD1B2" rx="11" ry="11" style="stroke:#181818;stroke-width:1.0;"/><path d="M821.4731,635.6313 Q820.8921,635.9302 820.2529,636.0796 Q819.6138,636.229 818.9082,636.229 Q816.4014,636.229 815.0815,634.5771 Q813.7617,632.9253 813.7617,629.8042 Q813.7617,626.6748 815.0815,625.0229 Q816.4014,623.3711 818.9082,623.3711 Q819.6138,623.3711 820.2612,623.5205 Q820.9087,623.6699 821.4731,623.9688 L821.4731,626.6914 Q820.8423,626.1104 820.2488,625.8406 Q819.6553,625.5708 819.0244,625.5708 Q817.6797,625.5708 816.9949,626.6375 Q816.3101,627.7041 816.3101,629.8042 Q816.3101,631.896 816.9949,632.9626 Q817.6797,634.0293 819.0244,634.0293 Q819.6553,634.0293 820.2488,633.7595 Q820.8423,633.4897 821.4731,632.9087 Z " fill="#000000"/><text fill="#000000" font-family="sans-serif" font-size="14" lengthAdjust="spacing" textLength="131" x="833" y="634.7793">WasteToStockMove</text><line style="stroke:#181818;stroke-width:0.5;" x1="805" x2="966" y1="645.4883" y2="645.4883"/><line style="stroke:#181818;stroke-width:0.5;" x1="805" x2="966" y1="653.4883" y2="653.4883"/></g><!--MD5=[fe139ee4e479f23285df0f8136f9d541]
class Deal--><g id="elem_Deal"><rect codeLine="27" fill="#F1F1F1" height="48" id="Deal" rx="2.5" ry="2.5" style="stroke:#181818;stroke-width:0.5;" width="62" x="187.5" y="379.4883"/><ellipse cx="202.5" cy="395.4883" fill="#ADD1B2" rx="11" ry="11" style="stroke:#181818;stroke-width:1.0;"/><path d="M204.9731,401.6313 Q204.3921,401.9302 203.7529,402.0796 Q203.1138,402.229 202.4082,402.229 Q199.9014,402.229 198.5815,400.5771 Q197.2617,398.9253 197.2617,395.8042 Q197.2617,392.6748 198.5815,391.0229 Q199.9014,389.3711 202.4082,389.3711 Q203.1138,389.3711 203.7612,389.5205 Q204.4087,389.6699 204.9731,389.9688 L204.9731,392.6914 Q204.3423,392.1104 203.7488,391.8406 Q203.1553,391.5708 202.5244,391.5708 Q201.1797,391.5708 200.4949,392.6375 Q199.8101,393.7041 199.8101,395.8042 Q199.8101,397.896 200.4949,398.9626 Q201.1797,400.0293 202.5244,400.0293 Q203.1553,400.0293 203.7488,399.7595 Q204.3423,399.4897 204.9731,398.9087 Z " fill="#000000"/><text fill="#000000" font-family="sans-serif" font-size="14" lengthAdjust="spacing" textLength="30" x="216.5" y="400.7793">Deal</text><line style="stroke:#181818;stroke-width:0.5;" x1="188.5" x2="248.5" y1="411.4883" y2="411.4883"/><line style="stroke:#181818;stroke-width:0.5;" x1="188.5" x2="248.5" y1="419.4883" y2="419.4883"/></g><!--MD5=[3291e6fcbecebcb6315ae20bcec80e4c]
class DealToPile--><g id="elem_DealToPile"><rect codeLine="28" fill="#F1F1F1" height="48" id="DealToPile" rx="2.5" ry="2.5" style="stroke:#181818;stroke-width:0.5;" width="104" x="231.5" y="496.4883"/><ellipse cx="246.5" cy="512.4883" fill="#ADD1B2" rx="11" ry="11" style="stroke:#181818;stroke-width:1.0;"/><path d="M248.9731,518.6313 Q248.3921,518.9302 247.7529,519.0796 Q247.1138,519.229 246.4082,519.229 Q243.9014,519.229 242.5815,517.5771 Q241.2617,515.9253 241.2617,512.8042 Q241.2617,509.6748 242.5815,508.0229 Q243.9014,506.3711 246.4082,506.3711 Q247.1138,506.3711 247.7612,506.5205 Q248.4087,506.6699 248.9731,506.9688 L248.9731,509.6914 Q248.3423,509.1104 247.7488,508.8406 Q247.1553,508.5708 246.5244,508.5708 Q245.1797,508.5708 244.4949,509.6375 Q243.8101,510.7041 243.8101,512.8042 Q243.8101,514.896 244.4949,515.9626 Q245.1797,517.0293 246.5244,517.0293 Q247.1553,517.0293 247.7488,516.7595 Q248.3423,516.4897 248.9731,515.9087 Z " fill="#000000"/><text fill="#000000" font-family="sans-serif" font-size="14" lengthAdjust="spacing" textLength="72" x="260.5" y="517.7793">DealToPile</text><line style="stroke:#181818;stroke-width:0.5;" x1="232.5" x2="334.5" y1="528.4883" y2="528.4883"/><line style="stroke:#181818;stroke-width:0.5;" x1="232.5" x2="334.5" y1="536.4883" y2="536.4883"/></g><!--MD5=[6acd6b7774c4d21d2642e186decdd3f5]
class DealToStock--><g id="elem_DealToStock"><rect codeLine="29" fill="#F1F1F1" height="48" id="DealToStock" rx="2.5" ry="2.5" style="stroke:#181818;stroke-width:0.5;" width="117" x="7" y="613.4883"/><ellipse cx="22" cy="629.4883" fill="#ADD1B2" rx="11" ry="11" style="stroke:#181818;stroke-width:1.0;"/><path d="M24.4731,635.6313 Q23.8921,635.9302 23.2529,636.0796 Q22.6138,636.229 21.9082,636.229 Q19.4014,636.229 18.0815,634.5771 Q16.7617,632.9253 16.7617,629.8042 Q16.7617,626.6748 18.0815,625.0229 Q19.4014,623.3711 21.9082,623.3711 Q22.6138,623.3711 23.2612,623.5205 Q23.9087,623.6699 24.4731,623.9688 L24.4731,626.6914 Q23.8423,626.1104 23.2488,625.8406 Q22.6553,625.5708 22.0244,625.5708 Q20.6797,625.5708 19.9949,626.6375 Q19.3101,627.7041 19.3101,629.8042 Q19.3101,631.896 19.9949,632.9626 Q20.6797,634.0293 22.0244,634.0293 Q22.6553,634.0293 23.2488,633.7595 Q23.8423,633.4897 24.4731,632.9087 Z " fill="#000000"/><text fill="#000000" font-family="sans-serif" font-size="14" lengthAdjust="spacing" textLength="85" x="36" y="634.7793">DealToStock</text><line style="stroke:#181818;stroke-width:0.5;" x1="8" x2="123" y1="645.4883" y2="645.4883"/><line style="stroke:#181818;stroke-width:0.5;" x1="8" x2="123" y1="653.4883" y2="653.4883"/></g><!--MD5=[8c2369c73edf58d465a4a02ad89323f7]
class DealToWaste--><g id="elem_DealToWaste"><rect codeLine="30" fill="#F1F1F1" height="48" id="DealToWaste" rx="2.5" ry="2.5" style="stroke:#181818;stroke-width:0.5;" width="120" x="93.5" y="496.4883"/><ellipse cx="108.5" cy="512.4883" fill="#ADD1B2" rx="11" ry="11" style="stroke:#181818;stroke-width:1.0;"/><path d="M110.9731,518.6313 Q110.3921,518.9302 109.7529,519.0796 Q109.1138,519.229 108.4082,519.229 Q105.9014,519.229 104.5815,517.5771 Q103.2617,515.9253 103.2617,512.8042 Q103.2617,509.6748 104.5815,508.0229 Q105.9014,506.3711 108.4082,506.3711 Q109.1138,506.3711 109.7612,506.5205 Q110.4087,506.6699 110.9731,506.9688 L110.9731,509.6914 Q110.3423,509.1104 109.7488,508.8406 Q109.1553,508.5708 108.5244,508.5708 Q107.1797,508.5708 106.4949,509.6375 Q105.8101,510.7041 105.8101,512.8042 Q105.8101,514.896 106.4949,515.9626 Q107.1797,517.0293 108.5244,517.0293 Q109.1553,517.0293 109.7488,516.7595 Q110.3423,516.4897 110.9731,515.9087 Z " fill="#000000"/><text fill="#000000" font-family="sans-serif" font-size="14" lengthAdjust="spacing" textLength="88" x="122.5" y="517.7793">DealToWaste</text><line style="stroke:#181818;stroke-width:0.5;" x1="94.5" x2="212.5" y1="528.4883" y2="528.4883"/><line style="stroke:#181818;stroke-width:0.5;" x1="94.5" x2="212.5" y1="536.4883" y2="536.4883"/></g><!--MD5=[c3c256aac7e3870d53c0042288b21bdc]
class Waste--><g id="elem_Waste"><rect fill="#F1F1F1" height="48" id="Waste" rx="2.5" ry="2.5" style="stroke:#181818;stroke-width:0.5;" width="72" x="1106.5" y="127.4883"/><ellipse cx="1121.5" cy="143.4883" fill="#ADD1B2" rx="11" ry="11" style="stroke:#181818;stroke-width:1.0;"/><path d="M1123.9731,149.6313 Q1123.3921,149.9302 1122.7529,150.0796 Q1122.1138,150.229 1121.4082,150.229 Q1118.9014,150.229 1117.5815,148.5771 Q1116.2617,146.9253 1116.2617,143.8042 Q1116.2617,140.6748 1117.5815,139.0229 Q1118.9014,137.3711 1121.4082,137.3711 Q1122.1138,137.3711 1122.7612,137.5205 Q1123.4087,137.6699 1123.9731,137.9688 L1123.9731,140.6914 Q1123.3423,140.1104 1122.7488,139.8406 Q1122.1553,139.5708 1121.5244,139.5708 Q1120.1797,139.5708 1119.4949,140.6375 Q1118.8101,141.7041 1118.8101,143.8042 Q1118.8101,145.896 1119.4949,146.9626 Q1120.1797,148.0293 1121.5244,148.0293 Q1122.1553,148.0293 1122.7488,147.7595 Q1123.3423,147.4897 1123.9731,146.9087 Z " fill="#000000"/><text fill="#000000" font-family="sans-serif" font-size="14" lengthAdjust="spacing" textLength="40" x="1135.5" y="148.7793">Waste</text><line style="stroke:#181818;stroke-width:0.5;" x1="1107.5" x2="1177.5" y1="159.4883" y2="159.4883"/><line style="stroke:#181818;stroke-width:0.5;" x1="1107.5" x2="1177.5" y1="167.4883" y2="167.4883"/></g><path d="M960.2597,91.3299 C933.9739,104.3144 901.5239,120.344 877.0353,132.4407 " fill="none" style="stroke:#181818;stroke-width:1.0;"/><polygon fill="#181818" points="960.2597,91.3299,953.1087,90.4009,949.5008,96.6445,956.6518,97.5735,960.2597,91.3299" style="stroke:#181818;stroke-width:1.0;"/><polygon fill="#181818" points="877.0353,132.4407,886.8761,132.041,881.5182,130.2263,883.333,124.8684,877.0353,132.4407" style="stroke:#181818;stroke-width:1.0;"/><text fill="#000000" font-family="sans-serif" font-size="13" lengthAdjust="spacing" textLength="8" x="878.0353" y="129.0091">1</text><path d="M996.4974,91.886 C984.8377,119.8925 965.6232,168.4163 953.5,211.4883 C945.4987,239.9157 939.4509,273.4304 935.9469,295.276 " fill="none" style="stroke:#181818;stroke-width:1.0;"/><polygon fill="#181818" points="996.4974,91.886,990.4986,95.8878,991.8853,102.9643,997.8841,98.9625,996.4974,91.886" style="stroke:#181818;stroke-width:1.0;"/><polygon fill="#181818" points="935.9469,295.276,941.3218,287.0231,936.7388,290.3391,933.4228,285.7561,935.9469,295.276" style="stroke:#181818;stroke-width:1.0;"/><text fill="#000000" font-family="sans-serif" font-size="13" lengthAdjust="spacing" textLength="8" x="926.9469" y="291.8444">4</text><path d="M1006.5,91.5699 C1006.5,123.1956 1006.5,179.6729 1006.5,211.3357 " fill="none" style="stroke:#181818;stroke-width:1.0;"/><polygon fill="#181818" points="1006.5,91.5699,1002.5,97.5699,1006.5,103.5699,1010.5,97.5699,1006.5,91.5699" style="stroke:#181818;stroke-width:1.0;"/><polygon fill="#181818" points="1006.5,211.3357,1010.5,202.3357,1006.5,206.3357,1002.5,202.3357,1006.5,211.3357" style="stroke:#181818;stroke-width:1.0;"/><text fill="#000000" font-family="sans-serif" font-size="13" lengthAdjust="spacing" textLength="8" x="997.5" y="207.9041">1</text><path d="M1016.29,91.9069 C1027.7067,119.9335 1046.5366,168.4766 1058.5,211.4883 C1066.4137,239.9402 1072.4807,273.4495 1076.013,295.2872 " fill="none" style="stroke:#181818;stroke-width:1.0;"/><polygon fill="#181818" points="1016.29,91.9069,1014.8491,98.9726,1020.817,103.0202,1022.2579,95.9545,1016.29,91.9069" style="stroke:#181818;stroke-width:1.0;"/><polygon fill="#181818" points="1076.013,295.2872,1078.5245,285.764,1075.2146,290.3514,1070.6272,287.0414,1076.013,295.2872" style="stroke:#181818;stroke-width:1.0;"/><text fill="#000000" font-family="sans-serif" font-size="13" lengthAdjust="spacing" textLength="8" x="1067.013" y="291.8556">1</text><path d="M1044.7455,91.5481 C1064.0726,103.2011 1087.3942,117.2627 1106.4102,128.7282 " fill="none" style="stroke:#181818;stroke-width:1.0;"/><polygon fill="#181818" points="1044.7455,91.5481,1047.8184,98.0717,1055.0221,97.7442,1051.9492,91.2206,1044.7455,91.5481" style="stroke:#181818;stroke-width:1.0;"/><polygon fill="#181818" points="1106.4102,128.7282,1100.7681,120.6556,1102.1283,126.1465,1096.6374,127.5066,1106.4102,128.7282" style="stroke:#181818;stroke-width:1.0;"/><text fill="#000000" font-family="sans-serif" font-size="13" lengthAdjust="spacing" textLength="8" x="1097.4102" y="125.2966">1</text><path d="M939.7335,343.7056 C948.8054,372.8233 964.6636,423.7231 976.9884,463.2815 " fill="none" style="stroke:#181818;stroke-width:1.0;"/><polygon fill="#181818" points="939.7335,343.7056,937.6993,350.6238,943.303,355.1624,945.3372,348.2442,939.7335,343.7056" style="stroke:#181818;stroke-width:1.0;"/><polygon fill="#181818" points="976.9884,463.2815,978.1302,453.4991,975.5011,458.5079,970.4923,455.8787,976.9884,463.2815" style="stroke:#181818;stroke-width:1.0;"/><text fill="#000000" font-family="sans-serif" font-size="13" lengthAdjust="spacing" textLength="32" x="943.9884" y="459.8499">0..52</text><path d="M1010.0366,259.6806 C1012.3185,282.7347 1012.3829,318.2126 996.5,343.4883 C980.6505,368.7108 949.729,384.6317 926.8395,393.4919 " fill="none" style="stroke:#181818;stroke-width:1.0;"/><polygon fill="#181818" points="1010.0366,259.6806,1006.647,266.0454,1011.2185,271.6222,1014.6081,265.2574,1010.0366,259.6806" style="stroke:#181818;stroke-width:1.0;"/><polygon fill="#181818" points="926.8395,393.4919,936.6766,393.9733,931.5023,391.687,933.7887,386.5127,926.8395,393.4919" style="stroke:#181818;stroke-width:1.0;"/><text fill="#000000" font-family="sans-serif" font-size="13" lengthAdjust="spacing" textLength="8" x="927.8395" y="390.0602">7</text><path d="M917.927,427.7602 C926.5835,438.13 937.1894,450.835 947.7172,463.4463 " fill="none" style="stroke:#181818;stroke-width:1.0;"/><polygon fill="#181818" points="917.927,427.7602,918.7014,434.9297,925.6171,436.9723,924.8428,429.8029,917.927,427.7602" style="stroke:#181818;stroke-width:1.0;"/><polygon fill="#181818" points="947.7172,463.4463,945.0203,453.9739,944.513,459.608,938.8789,459.1006,947.7172,463.4463" style="stroke:#181818;stroke-width:1.0;"/><text fill="#000000" font-family="sans-serif" font-size="13" lengthAdjust="spacing" textLength="22" x="924.7172" y="460.0147">0..*</text><path d="M1069.5831,343.7056 C1057.1458,372.8233 1035.4047,423.7231 1018.5079,463.2815 " fill="none" style="stroke:#181818;stroke-width:1.0;"/><polygon fill="#181818" points="1069.5831,343.7056,1063.5478,347.6521,1064.8694,354.741,1070.9047,350.7945,1069.5831,343.7056" style="stroke:#181818;stroke-width:1.0;"/><polygon fill="#181818" points="1018.5079,463.2815,1025.7216,456.5762,1020.4719,458.6834,1018.3646,453.4337,1018.5079,463.2815" style="stroke:#181818;stroke-width:1.0;"/><text fill="#000000" font-family="sans-serif" font-size="13" lengthAdjust="spacing" textLength="32" x="985.5079" y="459.8499">0..24</text><path d="M1143.8615,175.7241 C1145.2,212.602 1144.4875,286.2165 1122.5,343.4883 C1105.5056,387.7544 1074.4114,430.917 1047.1262,463.4196 " fill="none" style="stroke:#181818;stroke-width:1.0;"/><polygon fill="#181818" points="1143.8615,175.7241,1140.0818,181.8653,1144.2968,187.7162,1148.0765,181.5751,1143.8615,175.7241" style="stroke:#181818;stroke-width:1.0;"/><polygon fill="#181818" points="1047.1262,463.4196,1055.9764,459.0983,1050.341,459.5901,1049.8492,453.9546,1047.1262,463.4196" style="stroke:#181818;stroke-width:1.0;"/><text fill="#000000" font-family="sans-serif" font-size="13" lengthAdjust="spacing" textLength="24" x="1022.1262" y="459.9879">0..3</text><path d="M814.9503,175.7669 C802.6858,186.9413 788.0342,200.2904 775.802,211.4353 " fill="none" style="stroke:#181818;stroke-width:1.0;"/><polygon fill="none" points="814.9503,175.7669,807.8212,176.851,806.08,183.8487,813.2091,182.7646,814.9503,175.7669" style="stroke:#181818;stroke-width:1.0;"/><polygon fill="#181818" points="775.802,211.4353,785.1488,208.3307,779.498,208.0679,779.7608,202.4171,775.802,211.4353" style="stroke:#181818;stroke-width:1.0;"/><text fill="#000000" font-family="sans-serif" font-size="13" lengthAdjust="spacing" textLength="8" x="766.802" y="208.0037">1</text><path d="M835.1372,175.6351 C824.79,226.3377 807.5594,348.9409 861.5,427.4883 C878.6751,452.4984 894.4327,446.3966 919.5,463.4883 C922.4537,465.5022 925.4537,467.5836 928.4701,469.706 " fill="none" style="stroke:#181818;stroke-width:1.0;"/><polygon fill="#181818" points="928.4701,469.706,923.4113,461.2557,924.3809,466.8288,918.8078,467.7985,928.4701,469.706" style="stroke:#181818;stroke-width:1.0;"/><path d="M849.5843,175.7669 C853.9451,186.9413 859.1545,200.2904 863.5037,211.4353 " fill="none" style="stroke:#181818;stroke-width:1.0;"/><polygon fill="#181818" points="863.5037,211.4353,863.9582,201.597,861.686,206.7774,856.5055,204.5053,863.5037,211.4353" style="stroke:#181818;stroke-width:1.0;"/><path d="M782.202,250.7716 C809.4962,263.069 849.3965,281.046 881.2276,295.3875 " fill="none" style="stroke:#181818;stroke-width:1.0;stroke-dasharray:7.0,7.0;"/><polygon fill="#181818" points="881.2276,295.3875,874.6651,288.0435,876.6689,293.3336,871.3788,295.3374,881.2276,295.3875" style="stroke:#181818;stroke-width:1.0;"/><text fill="#000000" font-family="sans-serif" font-size="13" lengthAdjust="spacing" textLength="8" x="872.2276" y="291.9559">1</text><path d="M743.9706,259.7669 C740.8364,270.9413 737.0921,284.2904 733.9661,295.4353 " fill="none" style="stroke:#181818;stroke-width:1.0;stroke-dasharray:7.0,7.0;"/><polygon fill="#181818" points="733.9661,295.4353,740.248,287.85,735.3164,290.6211,732.5453,285.6895,733.9661,295.4353" style="stroke:#181818;stroke-width:1.0;"/><text fill="#000000" font-family="sans-serif" font-size="13" lengthAdjust="spacing" textLength="8" x="724.9661" y="292.0037">1</text><path d="M696.8474,343.5481 C681.987,354.7274 664.1801,368.1235 649.3002,379.3175 " fill="none" style="stroke:#181818;stroke-width:1.0;"/><polygon fill="#FFFFFF" points="696.8474,343.5481,680.4544,348.3721,687.6685,357.9615,696.8474,343.5481" style="stroke:#181818;stroke-width:1.0;"/><text fill="#000000" font-family="sans-serif" font-size="13" lengthAdjust="spacing" textLength="8" x="640.3002" y="375.8858">1</text><path d="M722.674,343.7669 C720.3573,354.9413 717.5898,368.2904 715.2793,379.4353 " fill="none" style="stroke:#181818;stroke-width:1.0;"/><polygon fill="#FFFFFF" points="722.674,343.7669,713.5509,358.2157,725.301,360.6517,722.674,343.7669" style="stroke:#181818;stroke-width:1.0;"/><text fill="#000000" font-family="sans-serif" font-size="13" lengthAdjust="spacing" textLength="6" x="708.2793" y="376.0037">*</text><path d="M737.4145,427.7602 C760.4894,447.7122 793.5622,476.3089 816.6255,496.2509 " fill="none" style="stroke:#181818;stroke-width:1.0;"/><polygon fill="#FFFFFF" points="737.4145,427.7602,745.5932,442.7639,753.4419,433.6866,737.4145,427.7602" style="stroke:#181818;stroke-width:1.0;"/><path d="M676.2459,424.202 C673.3416,425.4434 670.404,426.5631 667.5,427.4883 C606.6753,446.8653 431.8413,422.9846 382.5,463.4883 C341.2198,497.3747 369.4778,530.2818 344.5,577.4883 C337.8124,590.1275 328.464,602.8983 320.0196,613.3105 " fill="none" style="stroke:#181818;stroke-width:1.0;"/><polygon fill="#FFFFFF" points="676.2459,424.202,659.1753,424.9733,663.8917,436.0076,676.2459,424.202" style="stroke:#181818;stroke-width:1.0;"/><path d="M676.2773,422.9026 C673.314,424.464 670.3574,426.0101 667.5,427.4883 C635.7231,443.927 627.4119,447.3133 595.5,463.4883 C574.3411,474.2129 550.9362,486.2186 531.2556,496.355 " fill="none" style="stroke:#181818;stroke-width:1.0;"/><polygon fill="#FFFFFF" points="676.2773,422.9026,659.3251,425.0526,664.9188,435.6691,676.2773,422.9026" style="stroke:#181818;stroke-width:1.0;"/><path d="M710.5,427.5815 C710.5,471.9366 710.5,568.5926 710.5,613.1441 " fill="none" style="stroke:#181818;stroke-width:1.0;"/><polygon fill="#FFFFFF" points="710.5,427.5815,704.5,443.5815,716.5,443.5815,710.5,427.5815" style="stroke:#181818;stroke-width:1.0;"/><path d="M715.7613,427.5379 C725.6274,469.1381 747.7009,554.5795 767.5,577.4883 C780.7545,592.8245 798.947,604.6083 817.0793,613.463 " fill="none" style="stroke:#181818;stroke-width:1.0;"/><polygon fill="#FFFFFF" points="715.7613,427.5379,713.6154,444.4906,725.2915,441.7214,715.7613,427.5379" style="stroke:#181818;stroke-width:1.0;"/><path d="M697.3325,427.6324 C676.9197,462.3913 635.1986,529.1455 589.5,577.4883 C577.095,590.611 561.657,603.255 548.0175,613.4489 " fill="none" style="stroke:#181818;stroke-width:1.0;"/><polygon fill="#FFFFFF" points="697.3325,427.6324,684.0563,438.3908,694.4039,444.4676,697.3325,427.6324" style="stroke:#181818;stroke-width:1.0;"/><path d="M689.2423,326.6516 C592.2544,342.2764 338.1832,383.2073 249.5457,397.4868 " fill="none" style="stroke:#181818;stroke-width:1.0;"/><polygon fill="#FFFFFF" points="689.2423,326.6516,672.4916,323.2728,674.4002,335.12,689.2423,326.6516" style="stroke:#181818;stroke-width:1.0;"/><text fill="#000000" font-family="sans-serif" font-size="13" lengthAdjust="spacing" textLength="6" x="250.5457" y="394.0552">*</text><path d="M231.6537,427.7602 C242.9309,447.7122 259.0943,476.3089 270.3658,496.2509 " fill="none" style="stroke:#181818;stroke-width:1.0;"/><polygon fill="#FFFFFF" points="231.6537,427.7602,234.3033,444.6416,244.75,438.7369,231.6537,427.7602" style="stroke:#181818;stroke-width:1.0;"/><path d="M187.4168,409.079 C156.0429,415.4747 108.8505,430.2806 84.5,463.4883 C51.7133,508.2006 56.1673,577.7007 61.3196,613.4798 " fill="none" style="stroke:#181818;stroke-width:1.0;"/><polygon fill="#FFFFFF" points="187.4168,409.079,170.5407,406.3959,172.9377,418.154,187.4168,409.079" style="stroke:#181818;stroke-width:1.0;"/><path d="M205.3463,427.7602 C194.0691,447.7122 177.9057,476.3089 166.6342,496.2509 " fill="none" style="stroke:#181818;stroke-width:1.0;"/><polygon fill="#FFFFFF" points="205.3463,427.7602,192.25,438.7369,202.6967,444.6416,205.3463,427.7602" style="stroke:#181818;stroke-width:1.0;"/><path d="M736.5751,343.6097 C747.3054,367.9866 767.4538,405.7994 796.5,427.4883 C842.1402,461.5679 868.5381,438.0456 919.5,463.4883 C922.4078,464.94 925.319,466.5067 928.2153,468.1615 " fill="none" style="stroke:#181818;stroke-width:1.0;stroke-dasharray:7.0,7.0;"/><polygon fill="#181818" points="928.2153,468.1615,922.3852,460.2236,923.8739,465.681,918.4165,467.1698,928.2153,468.1615" style="stroke:#181818;stroke-width:1.0;"/><text fill="#000000" font-family="sans-serif" font-size="13" lengthAdjust="spacing" textLength="6" x="921.2153" y="481.7298">*</text><path d="M765.8757,338.8907 C797.583,354.0953 841.8644,375.3297 870.3631,388.9957 " fill="none" style="stroke:#181818;stroke-width:1.0;stroke-dasharray:7.0,7.0;"/><polygon fill="#181818" points="870.3631,388.9957,863.9775,381.4975,865.8547,386.8338,860.5184,388.711,870.3631,388.9957" style="stroke:#181818;stroke-width:1.0;"/><text fill="#000000" font-family="sans-serif" font-size="13" lengthAdjust="spacing" textLength="6" x="863.3631" y="385.5641">*</text><path d="M889.5331,259.7669 C897.7095,270.9413 907.4772,284.2904 915.632,295.4353 " fill="none" style="stroke:#181818;stroke-width:1.0;"/><polygon fill="#FFFFFF" points="889.5331,259.7669,894.1391,276.2224,903.8234,269.1363,889.5331,259.7669" style="stroke:#181818;stroke-width:1.0;"/><text fill="#000000" font-family="sans-serif" font-size="13" lengthAdjust="spacing" textLength="8" x="906.632" y="292.0037">1</text><path d="M867.6261,259.8201 C863.9276,281.7503 860.5508,315.3221 867.5,343.4883 C870.6043,356.0704 876.9259,368.9361 883.0555,379.429 " fill="none" style="stroke:#181818;stroke-width:1.0;"/><polygon fill="#FFFFFF" points="867.6261,259.8201,859.0489,274.5995,870.8818,276.5951,867.6261,259.8201" style="stroke:#181818;stroke-width:1.0;"/><text fill="#000000" font-family="sans-serif" font-size="13" lengthAdjust="spacing" textLength="8" x="874.0555" y="375.9974">1</text><!--MD5=[69d4ded99c6f1d69ba1d0369a6795613]
@startuml Class Diagram
title Klondike  - Class Diagram Domain Vocabulary
!pragma layout smetana

class Klondike
class Player
class Tableau
class Foundation
class Pile
class Stock
class Stack
class Goal
class Card {
  +Int color
  +Int number
  +String figure
  +boolean turned
}
class Action
class Shuffle
class Move
class PileToPileMove
class PileToFoundationMove
class FoundationToPileMove
class WasteToFoundationMove
class WasteToPileMove
class WasteToStockMove
class Deal
class DealToPile
class DealToStock
class DealToWaste


Klondike *-down-> "1" Player
Klondike *-down-> "4" Foundation
Klondike *-down-> "1" Tableau
Klondike *-down-> "1" Stock
Klondike *-down-> "1" Waste

Foundation *-down-> "0..52" Card

Tableau *-down-> "7" Pile
Pile *-down-> "0..*" Card

Stock *-down-> "0..24" Card
Waste *-down-> "0..3" Card

Player o-down-> "1" Goal
Player -down-> Card
Player -down-> Stack
Goal .down.> "1" Foundation

Goal .down.> "1" Action
Action <|-down- "1" Shuffle
Action <|-down- "*" Move
Move <|-down- PileToPileMove
Move <|-down- - PileToFoundationMove
Move <|-down- FoundationToPileMove
Move <|-down- - WasteToPileMove
Move <|-down- - WasteToStockMove
Move <|-down- - WasteToFoundationMove
Action <|-down- "*" Deal
Deal <|-down- DealToPile
Deal <|-down- - DealToStock
Deal <|-down- DealToWaste
Action .down.> "*" Card
Action .down.> "*" Pile

Stack <|-down- "1" Foundation
Stack <|-down- "1" Pile

@enduml

PlantUML version 1.2022.5(Sat Apr 30 05:55:52 ECT 2022)
(GPL source distribution)
Java Runtime: OpenJDK Runtime Environment
JVM: OpenJDK 64-Bit Server VM
Default Encoding: UTF-8
Language: es
Country: EC
--></g></svg>