<?xml version="1.0" encoding="UTF-8" standalone="no"?><svg xmlns="http://www.w3.org/2000/svg" xmlns:xlink="http://www.w3.org/1999/xlink" contentScriptType="application/ecmascript" contentStyleType="text/css" height="517px" preserveAspectRatio="none" style="width:354px;height:517px;background:#FFFFFF;" version="1.1" viewBox="0 0 354 517" width="354px" zoomAndPan="magnify"><defs><filter height="300%" id="f1nesgmsvkwac7" width="300%" x="-1" y="-1"><feGaussianBlur result="blurOut" stdDeviation="2.0"/><feColorMatrix in="blurOut" result="blurOut2" type="matrix" values="0 0 0 0 0 0 0 0 0 0 0 0 0 0 0 0 0 0 .4 0"/><feOffset dx="4.0" dy="4.0" in="blurOut2" result="blurOut3"/><feBlend in="SourceGraphic" in2="blurOut3" mode="normal"/></filter></defs><g><text fill="#000000" font-family="sans-serif" font-size="18" lengthAdjust="spacing" textLength="345" x="2" y="17.4023">Klondike  - DealStock - Status Diagram</text><g id="PileBuild"><rect fill="#FEFECE" filter="url(#f1nesgmsvkwac7)" height="50" rx="12.5" ry="12.5" style="stroke:#A80036;stroke-width:1.5;" width="78" x="88" y="89.1992"/><line style="stroke:#A80036;stroke-width:1.5;" x1="88" x2="166" y1="115.6875" y2="115.6875"/><text fill="#000000" font-family="sans-serif" font-size="14" lengthAdjust="spacing" textLength="58" x="98" y="107.7344">PileBuild</text></g><g id="DeckBuild"><rect fill="#FEFECE" filter="url(#f1nesgmsvkwac7)" height="50" rx="12.5" ry="12.5" style="stroke:#A80036;stroke-width:1.5;" width="87" x="83.5" y="192.1992"/><line style="stroke:#A80036;stroke-width:1.5;" x1="83.5" x2="170.5" y1="218.6875" y2="218.6875"/><text fill="#000000" font-family="sans-serif" font-size="14" lengthAdjust="spacing" textLength="67" x="93.5" y="210.7344">DeckBuild</text></g><g id="StockBuild"><rect fill="#FEFECE" filter="url(#f1nesgmsvkwac7)" height="50" rx="12.5" ry="12.5" style="stroke:#A80036;stroke-width:1.5;" width="91" x="81.5" y="295.1992"/><line style="stroke:#A80036;stroke-width:1.5;" x1="81.5" x2="172.5" y1="321.6875" y2="321.6875"/><text fill="#000000" font-family="sans-serif" font-size="14" lengthAdjust="spacing" textLength="71" x="91.5" y="313.7344">StockBuild</text></g><g id="StockReady"><rect fill="#FEFECE" filter="url(#f1nesgmsvkwac7)" height="50" rx="12.5" ry="12.5" style="stroke:#A80036;stroke-width:1.5;" width="98" x="78" y="398.1992"/><line style="stroke:#A80036;stroke-width:1.5;" x1="78" x2="176" y1="424.6875" y2="424.6875"/><text fill="#000000" font-family="sans-serif" font-size="14" lengthAdjust="spacing" textLength="78" x="88" y="416.7344">StockReady</text></g><ellipse cx="127" cy="38.1992" fill="#000000" filter="url(#f1nesgmsvkwac7)" rx="10" ry="10" style="stroke:none;stroke-width:1.0;"/><ellipse cx="127" cy="495.1992" filter="url(#f1nesgmsvkwac7)" rx="10" ry="10" style="stroke:#000000;stroke-width:1.0;fill:none;"/><ellipse cx="127.5" cy="495.6992" fill="#000000" rx="6" ry="6" style="stroke:none;stroke-width:1.0;"/><path d="M127,52.4492 C127,62.1787 127,76.5829 127,88.9237 " fill="none" style="stroke:#A80036;stroke-width:1.0;"/><polygon fill="#A80036" points="127,88.9237,131,79.9237,127,83.9237,123,79.9237,127,88.9237" style="stroke:#A80036;stroke-width:1.0;"/><path d="M127,139.3912 C127,155.265 127,175.9501 127,191.8546 " fill="none" style="stroke:#A80036;stroke-width:1.0;"/><polygon fill="#A80036" points="127,191.8546,131,182.8546,127,186.8546,123,182.8546,127,191.8546" style="stroke:#A80036;stroke-width:1.0;"/><text fill="#000000" font-family="sans-serif" font-size="13" lengthAdjust="spacing" textLength="155" x="128" y="170.7676">MoveRemaingCardsDeck</text><path d="M127,242.3912 C127,258.265 127,278.9501 127,294.8546 " fill="none" style="stroke:#A80036;stroke-width:1.0;"/><polygon fill="#A80036" points="127,294.8546,131,285.8546,127,289.8546,123,285.8546,127,294.8546" style="stroke:#A80036;stroke-width:1.0;"/><text fill="#000000" font-family="sans-serif" font-size="13" lengthAdjust="spacing" textLength="99" x="128" y="273.7676">DealCardsStock</text><path d="M127,345.3912 C127,361.265 127,381.9501 127,397.8546 " fill="none" style="stroke:#A80036;stroke-width:1.0;"/><polygon fill="#A80036" points="127,397.8546,131,388.8546,127,392.8546,123,388.8546,127,397.8546" style="stroke:#A80036;stroke-width:1.0;"/><text fill="#000000" font-family="sans-serif" font-size="13" lengthAdjust="spacing" textLength="103" x="128" y="376.7676">TurnUpFirstCard</text><path d="M127,448.5751 C127,460.9772 127,475.4412 127,485.1463 " fill="none" style="stroke:#A80036;stroke-width:1.0;"/><polygon fill="#A80036" points="127,485.1463,131,476.1463,127,480.1463,123,476.1463,127,485.1463" style="stroke:#A80036;stroke-width:1.0;"/><!--MD5=[57e9b06c47e7d7e9e56343e474150e7c]
@startuml CUDealStock
!pragma layout smetana
title Klondike  - DealStock - Status Diagram

state PileBuild
state DeckBuild
state StockBuild
state StockReady

[*] - -> PileBuild
PileBuild - -> DeckBuild: MoveRemaingCardsDeck
DeckBuild - -> StockBuild: DealCardsStock
StockBuild - -> StockReady: TurnUpFirstCard
StockReady - -> [*]

@enduml

PlantUML version 1.2022.0(Tue Jan 11 11:16:42 ECT 2022)
(GPL source distribution)
Java Runtime: OpenJDK Runtime Environment
JVM: OpenJDK 64-Bit Server VM
Default Encoding: UTF-8
Language: es
Country: EC
--></g></svg>