<?xml version="1.0" encoding="UTF-8" standalone="no"?><svg xmlns="http://www.w3.org/2000/svg" xmlns:xlink="http://www.w3.org/1999/xlink" contentScriptType="application/ecmascript" contentStyleType="text/css" height="327px" preserveAspectRatio="none" style="width:274px;height:327px;background:#FFFFFF;" version="1.1" viewBox="0 0 274 327" width="274px" zoomAndPan="magnify"><defs><filter height="300%" id="f1fk8m807pj3xh" width="300%" x="-1" y="-1"><feGaussianBlur result="blurOut" stdDeviation="2.0"/><feColorMatrix in="blurOut" result="blurOut2" type="matrix" values="0 0 0 0 0 0 0 0 0 0 0 0 0 0 0 0 0 0 .4 0"/><feOffset dx="4.0" dy="4.0" in="blurOut2" result="blurOut3"/><feBlend in="SourceGraphic" in2="blurOut3" mode="normal"/></filter></defs><g><text fill="#000000" font-family="sans-serif" font-size="18" lengthAdjust="spacing" textLength="265" x="2" y="17.4023">Klondike  - Use Case - Shuffle</text><g id="INITIAL"><rect fill="#FEFECE" filter="url(#f1fk8m807pj3xh)" height="50" rx="12.5" ry="12.5" style="stroke:#A80036;stroke-width:1.5;" width="68" x="32.25" y="105.1992"/><line style="stroke:#A80036;stroke-width:1.5;" x1="32.25" x2="100.25" y1="131.6875" y2="131.6875"/><text fill="#000000" font-family="sans-serif" font-size="14" lengthAdjust="spacing" textLength="48" x="42.25" y="123.7344">INITIAL</text></g><g id="IN_GAME"><rect fill="#FEFECE" filter="url(#f1fk8m807pj3xh)" height="50" rx="12.5" ry="12.5" style="stroke:#A80036;stroke-width:1.5;" width="81" x="25.75" y="208.1992"/><line style="stroke:#A80036;stroke-width:1.5;" x1="25.75" x2="106.75" y1="234.6875" y2="234.6875"/><text fill="#000000" font-family="sans-serif" font-size="14" lengthAdjust="spacing" textLength="61" x="35.75" y="226.7344">IN_GAME</text></g><ellipse cx="66.25" cy="38.1992" fill="#000000" filter="url(#f1fk8m807pj3xh)" rx="10" ry="10" style="stroke:none;stroke-width:1.0;"/><ellipse cx="66.25" cy="305.1992" filter="url(#f1fk8m807pj3xh)" rx="10" ry="10" style="stroke:#000000;stroke-width:1.0;fill:none;"/><ellipse cx="66.75" cy="305.6992" fill="#000000" rx="6" ry="6" style="stroke:none;stroke-width:1.0;"/><path d="M66.25,52.3445 C66.25,65.4792 66.25,87.6892 66.25,104.8652 " fill="none" style="stroke:#A80036;stroke-width:1.0;"/><polygon fill="#A80036" points="66.25,104.8652,70.25,95.8652,66.25,99.8652,62.25,95.8652,66.25,104.8652" style="stroke:#A80036;stroke-width:1.0;"/><text fill="#000000" font-family="sans-serif" font-size="13" lengthAdjust="spacing" textLength="188" x="67.25" y="83.7676">Player shuffle all Deck's cards</text><path d="M66.25,155.3912 C66.25,171.265 66.25,191.9501 66.25,207.8546 " fill="none" style="stroke:#A80036;stroke-width:1.0;"/><polygon fill="#A80036" points="66.25,207.8546,70.25,198.8546,66.25,202.8546,62.25,198.8546,66.25,207.8546" style="stroke:#A80036;stroke-width:1.0;"/><text fill="#000000" font-family="sans-serif" font-size="13" lengthAdjust="spacing" textLength="73" x="67.25" y="186.7676">DealToPiles</text><path d="M66.25,258.5751 C66.25,270.9772 66.25,285.4412 66.25,295.1463 " fill="none" style="stroke:#A80036;stroke-width:1.0;"/><polygon fill="#A80036" points="66.25,295.1463,70.25,286.1463,66.25,290.1463,62.25,286.1463,66.25,295.1463" style="stroke:#A80036;stroke-width:1.0;"/><!--MD5=[81b9701d271e93caefac761a0f5a6344]
@startuml shuffleUseCaseSpecification
!pragma layout smetana

title Klondike  - Use Case - Shuffle
state INITIAL
state IN_GAME
[*] - -> INITIAL:  Player shuffle all Deck's cards
INITIAL - -> IN_GAME: DealToPiles
IN_GAME - -> [*]
@enduml

PlantUML version 1.2022.0(Tue Jan 11 11:16:42 ECT 2022)
(GPL source distribution)
Java Runtime: OpenJDK Runtime Environment
JVM: OpenJDK 64-Bit Server VM
Default Encoding: UTF-8
Language: es
Country: EC
--></g></svg>