<?xml version="1.0" encoding="UTF-8" standalone="no"?><svg xmlns="http://www.w3.org/2000/svg" xmlns:xlink="http://www.w3.org/1999/xlink" contentScriptType="application/ecmascript" contentStyleType="text/css" height="327px" preserveAspectRatio="none" style="width:304px;height:327px;background:#FFFFFF;" version="1.1" viewBox="0 0 304 327" width="304px" zoomAndPan="magnify"><defs><filter height="300%" id="f1i12dgx66ff04" width="300%" x="-1" y="-1"><feGaussianBlur result="blurOut" stdDeviation="2.0"/><feColorMatrix in="blurOut" result="blurOut2" type="matrix" values="0 0 0 0 0 0 0 0 0 0 0 0 0 0 0 0 0 0 .4 0"/><feOffset dx="4.0" dy="4.0" in="blurOut2" result="blurOut3"/><feBlend in="SourceGraphic" in2="blurOut3" mode="normal"/></filter></defs><g><text fill="#000000" font-family="sans-serif" font-size="18" lengthAdjust="spacing" textLength="295" x="2" y="17.4023">Klondike  - Use Case - StartGame</text><g id="INITIAL"><rect fill="#FEFECE" filter="url(#f1i12dgx66ff04)" height="50" rx="12.5" ry="12.5" style="stroke:#A80036;stroke-width:1.5;" width="68" x="47.25" y="105.1992"/><line style="stroke:#A80036;stroke-width:1.5;" x1="47.25" x2="115.25" y1="131.6875" y2="131.6875"/><text fill="#000000" font-family="sans-serif" font-size="14" lengthAdjust="spacing" textLength="48" x="57.25" y="123.7344">INITIAL</text></g><g id="IN_GAME"><rect fill="#FEFECE" filter="url(#f1i12dgx66ff04)" height="50" rx="12.5" ry="12.5" style="stroke:#A80036;stroke-width:1.5;" width="81" x="40.75" y="208.1992"/><line style="stroke:#A80036;stroke-width:1.5;" x1="40.75" x2="121.75" y1="234.6875" y2="234.6875"/><text fill="#000000" font-family="sans-serif" font-size="14" lengthAdjust="spacing" textLength="61" x="50.75" y="226.7344">IN_GAME</text></g><ellipse cx="81.25" cy="38.1992" fill="#000000" filter="url(#f1i12dgx66ff04)" rx="10" ry="10" style="stroke:none;stroke-width:1.0;"/><ellipse cx="81.25" cy="305.1992" filter="url(#f1i12dgx66ff04)" rx="10" ry="10" style="stroke:#000000;stroke-width:1.0;fill:none;"/><ellipse cx="81.75" cy="305.6992" fill="#000000" rx="6" ry="6" style="stroke:none;stroke-width:1.0;"/><path d="M81.25,52.3445 C81.25,65.4792 81.25,87.6892 81.25,104.8652 " fill="none" style="stroke:#A80036;stroke-width:1.0;"/><polygon fill="#A80036" points="81.25,104.8652,85.25,95.8652,81.25,99.8652,77.25,95.8652,81.25,104.8652" style="stroke:#A80036;stroke-width:1.0;"/><text fill="#000000" font-family="sans-serif" font-size="13" lengthAdjust="spacing" textLength="188" x="82.25" y="83.7676">Player shuffle all Deck's cards</text><path d="M81.25,155.3912 C81.25,171.265 81.25,191.9501 81.25,207.8546 " fill="none" style="stroke:#A80036;stroke-width:1.0;"/><polygon fill="#A80036" points="81.25,207.8546,85.25,198.8546,81.25,202.8546,77.25,198.8546,81.25,207.8546" style="stroke:#A80036;stroke-width:1.0;"/><text fill="#000000" font-family="sans-serif" font-size="13" lengthAdjust="spacing" textLength="73" x="82.25" y="186.7676">DealToPiles</text><path d="M81.25,258.5751 C81.25,270.9772 81.25,285.4412 81.25,295.1463 " fill="none" style="stroke:#A80036;stroke-width:1.0;"/><polygon fill="#A80036" points="81.25,295.1463,85.25,286.1463,81.25,290.1463,77.25,286.1463,81.25,295.1463" style="stroke:#A80036;stroke-width:1.0;"/><!--MD5=[dff33b6617b417992758f1d7f97ed5e9]
@startuml UseCaseStartGame
!pragma layout smetana

title Klondike  - Use Case - StartGame
state INITIAL
state IN_GAME
[*] - -> INITIAL:  Player shuffle all Deck's cards
INITIAL - -> IN_GAME: DealToPiles
IN_GAME - -> [*]
@enduml

PlantUML version 1.2022.0(Tue Jan 11 11:16:42 ECT 2022)
(GPL source distribution)
Java Runtime: OpenJDK Runtime Environment
JVM: OpenJDK 64-Bit Server VM
Default Encoding: UTF-8
Language: es
Country: EC
--></g></svg>