<?xml version="1.0" encoding="UTF-8" standalone="no"?><svg xmlns="http://www.w3.org/2000/svg" xmlns:xlink="http://www.w3.org/1999/xlink" contentScriptType="application/ecmascript" contentStyleType="text/css" height="297px" preserveAspectRatio="none" style="width:373px;height:297px;background:#FFFFFF;" version="1.1" viewBox="0 0 373 297" width="373px" zoomAndPan="magnify"><defs><filter height="300%" id="fy7fokynwis5r" width="300%" x="-1" y="-1"><feGaussianBlur result="blurOut" stdDeviation="2.0"/><feColorMatrix in="blurOut" result="blurOut2" type="matrix" values="0 0 0 0 0 0 0 0 0 0 0 0 0 0 0 0 0 0 .4 0"/><feOffset dx="4.0" dy="4.0" in="blurOut2" result="blurOut3"/><feBlend in="SourceGraphic" in2="blurOut3" mode="normal"/></filter></defs><g><text fill="#000000" font-family="sans-serif" font-size="18" lengthAdjust="spacing" textLength="364" x="2" y="17.4023">Klondike  - ResetDeck - Context Diagram</text><!--MD5=[de2effd8dc5bf946a609466312d0f75f]
entity Player--><ellipse cx="190" cy="35.7344" fill="#FEFECE" filter="url(#fy7fokynwis5r)" rx="8" ry="8" style="stroke:#A80036;stroke-width:1.5;"/><path d="M190,43.7344 L190,70.7344 M177,51.7344 L203,51.7344 M190,70.7344 L177,85.7344 M190,70.7344 L203,85.7344 " fill="none" filter="url(#fy7fokynwis5r)" style="stroke:#A80036;stroke-width:1.5;"/><text fill="#000000" font-family="sans-serif" font-size="14" lengthAdjust="spacing" textLength="41" x="169.5" y="104.7695">Player</text><!--MD5=[0f13da524718cfa35bb6930040822af4]
entity DeckView--><rect fill="#FEFECE" filter="url(#fy7fokynwis5r)" height="36.4883" style="stroke:#000000;stroke-width:1.5;" width="85" x="147.5" y="160.2344"/><text fill="#000000" font-family="sans-serif" font-size="14" lengthAdjust="spacing" textLength="65" x="157.5" y="183.7695">DeckView</text><!--MD5=[ebc385f0a347590bd3e05234f8bea194]
entity ResetDeckController--><rect fill="#FEFECE" filter="url(#fy7fokynwis5r)" height="36.4883" style="stroke:#000000;stroke-width:1.5;" width="160" x="47" y="249.2344"/><text fill="#000000" font-family="sans-serif" font-size="14" lengthAdjust="spacing" textLength="140" x="57" y="272.7695">ResetDeckController</text><!--MD5=[8283ea39739ba8606af0d2930335bf54]
entity Stock--><rect fill="#FEFECE" filter="url(#fy7fokynwis5r)" height="36.4883" style="stroke:#000000;stroke-width:1.5;" width="57" x="225.5" y="249.2344"/><text fill="#000000" font-family="sans-serif" font-size="14" lengthAdjust="spacing" textLength="37" x="235.5" y="272.7695">Stock</text><path d="M190,107.2664 C190,125.3993 190,145.9513 190,160.0648 " fill="none" style="stroke:#A80036;stroke-width:1.0;"/><polygon fill="#A80036" points="190,160.0648,194,151.0648,190,155.0648,186,151.0648,190,160.0648" style="stroke:#A80036;stroke-width:1.0;"/><text fill="#000000" font-family="sans-serif" font-size="13" lengthAdjust="spacing" textLength="66" x="191" y="138.8027">ResetDeck</text><path d="M177.2344,196.2726 C172.9979,201.9657 168.2734,208.357 164,214.2344 C155.6598,225.7051 146.4098,238.7051 139.2449,248.8374 " fill="none" style="stroke:#A80036;stroke-width:1.0;"/><polygon fill="#A80036" points="139.2449,248.8374,147.7071,243.7985,142.1317,244.755,141.1753,239.1796,139.2449,248.8374" style="stroke:#A80036;stroke-width:1.0;"/><text fill="#000000" font-family="sans-serif" font-size="13" lengthAdjust="spacing" textLength="66" x="165" y="227.8027">ResetDeck</text><path d="M214.532,196.3649 C220.8019,201.5768 227.1373,207.678 232,214.2344 C239.7081,224.6272 245.3163,238.1276 248.9408,248.7678 " fill="none" style="stroke:#A80036;stroke-width:1.0;"/><polygon fill="#A80036" points="248.9408,248.7678,249.8251,238.9587,247.3286,244.0349,242.2524,241.5383,248.9408,248.7678" style="stroke:#A80036;stroke-width:1.0;"/><text fill="#000000" font-family="sans-serif" font-size="13" lengthAdjust="spacing" textLength="90" x="243" y="227.8027">setNewCards()</text><!--MD5=[8dfe062effc1f4ff5882e45d8b8a754d]
@startuml ResetDeckContextDiagram
!pragma layout smetana
title Klondike  - ResetDeck - Context Diagram
left to right direction

actor Player
rectangle DeckView
rectangle ResetDeckController
rectangle Stock

Player - -> DeckView: ResetDeck
DeckView - -> ResetDeckController: ResetDeck
DeckView - -> Stock: setNewCards()

@enduml

PlantUML version 1.2022.0(Tue Jan 11 11:16:42 ECT 2022)
(GPL source distribution)
Java Runtime: OpenJDK Runtime Environment
JVM: OpenJDK 64-Bit Server VM
Default Encoding: UTF-8
Language: es
Country: EC
--></g></svg>