<?xml version="1.0" encoding="UTF-8" standalone="no"?><svg xmlns="http://www.w3.org/2000/svg" xmlns:xlink="http://www.w3.org/1999/xlink" contentScriptType="application/ecmascript" contentStyleType="text/css" height="142px" preserveAspectRatio="none" style="width:551px;height:142px;background:#FFFFFF;" version="1.1" viewBox="0 0 551 142" width="551px" zoomAndPan="magnify"><defs><filter height="300%" id="f1metmstmquwj9" width="300%" x="-1" y="-1"><feGaussianBlur result="blurOut" stdDeviation="2.0"/><feColorMatrix in="blurOut" result="blurOut2" type="matrix" values="0 0 0 0 0 0 0 0 0 0 0 0 0 0 0 0 0 0 .4 0"/><feOffset dx="4.0" dy="4.0" in="blurOut2" result="blurOut3"/><feBlend in="SourceGraphic" in2="blurOut3" mode="normal"/></filter></defs><g><!--MD5=[4a65e84059005d12693a083370a06717]
entity client--><polygon fill="#FEFECE" filter="url(#f1metmstmquwj9)" points="98.5,16.4883,108.5,6.4883,175.5,6.4883,175.5,42.9766,165.5,52.9766,98.5,52.9766,98.5,16.4883" style="stroke:#000000;stroke-width:1.5;"/><line style="stroke:#000000;stroke-width:1.5;" x1="165.5" x2="175.5" y1="16.4883" y2="6.4883"/><line style="stroke:#000000;stroke-width:1.5;" x1="98.5" x2="165.5" y1="16.4883" y2="16.4883"/><line style="stroke:#000000;stroke-width:1.5;" x1="165.5" x2="165.5" y1="16.4883" y2="52.9766"/><text fill="#000000" font-family="sans-serif" font-size="14" lengthAdjust="spacing" textLength="37" x="113.5" y="40.0234">client</text><!--MD5=[e530b2378a69f5a648e2b8a424358e49]
entity webServer--><polygon fill="#FEFECE" filter="url(#f1metmstmquwj9)" points="221.5,16.4883,231.5,6.4883,332.5,6.4883,332.5,42.9766,322.5,52.9766,221.5,52.9766,221.5,16.4883" style="stroke:#000000;stroke-width:1.5;"/><line style="stroke:#000000;stroke-width:1.5;" x1="322.5" x2="332.5" y1="16.4883" y2="6.4883"/><line style="stroke:#000000;stroke-width:1.5;" x1="221.5" x2="322.5" y1="16.4883" y2="16.4883"/><line style="stroke:#000000;stroke-width:1.5;" x1="322.5" x2="322.5" y1="16.4883" y2="52.9766"/><text fill="#000000" font-family="sans-serif" font-size="14" lengthAdjust="spacing" textLength="71" x="236.5" y="40.0234">webServer</text><!--MD5=[d8070484cf3e597f18b4b49fb47ab3e7]
entity baseDataServer--><polygon fill="#FEFECE" filter="url(#f1metmstmquwj9)" points="388,16.4883,398,6.4883,534,6.4883,534,42.9766,524,52.9766,388,52.9766,388,16.4883" style="stroke:#000000;stroke-width:1.5;"/><line style="stroke:#000000;stroke-width:1.5;" x1="524" x2="534" y1="16.4883" y2="6.4883"/><line style="stroke:#000000;stroke-width:1.5;" x1="388" x2="524" y1="16.4883" y2="16.4883"/><line style="stroke:#000000;stroke-width:1.5;" x1="524" x2="524" y1="16.4883" y2="52.9766"/><text fill="#000000" font-family="sans-serif" font-size="14" lengthAdjust="spacing" textLength="106" x="403" y="40.0234">baseDataServer</text><!--MD5=[9d5d8f7b7fc5fdf144b813412fbdebc4]
entity webClient--><polygon fill="#FEFECE" filter="url(#f1metmstmquwj9)" points="16,99.4883,26,89.4883,124,89.4883,124,125.9766,114,135.9766,16,135.9766,16,99.4883" style="stroke:#000000;stroke-width:1.5;"/><line style="stroke:#000000;stroke-width:1.5;" x1="114" x2="124" y1="99.4883" y2="89.4883"/><line style="stroke:#000000;stroke-width:1.5;" x1="16" x2="114" y1="99.4883" y2="99.4883"/><line style="stroke:#000000;stroke-width:1.5;" x1="114" x2="114" y1="99.4883" y2="135.9766"/><text fill="#000000" font-family="sans-serif" font-size="14" lengthAdjust="spacing" textLength="68" x="31" y="123.0234">webClient</text><!--MD5=[bbe7976e4fb84ec706f14a2bfb40f059]
entity movileClient--><polygon fill="#FEFECE" filter="url(#f1metmstmquwj9)" points="142.5,99.4883,152.5,89.4883,267.5,89.4883,267.5,125.9766,257.5,135.9766,142.5,135.9766,142.5,99.4883" style="stroke:#000000;stroke-width:1.5;"/><line style="stroke:#000000;stroke-width:1.5;" x1="257.5" x2="267.5" y1="99.4883" y2="89.4883"/><line style="stroke:#000000;stroke-width:1.5;" x1="142.5" x2="257.5" y1="99.4883" y2="99.4883"/><line style="stroke:#000000;stroke-width:1.5;" x1="257.5" x2="257.5" y1="99.4883" y2="135.9766"/><text fill="#000000" font-family="sans-serif" font-size="14" lengthAdjust="spacing" textLength="85" x="157.5" y="123.0234">movileClient</text><path d="M175.6262,29.4883 C189.79,29.4883 206.1145,29.4883 221.468,29.4883 " fill="none" style="stroke:#A80036;stroke-width:1.0;"/><polygon fill="#A80036" points="221.468,29.4883,212.468,25.4883,216.468,29.4883,212.468,33.4883,221.468,29.4883" style="stroke:#A80036;stroke-width:1.0;"/><text fill="#000000" font-family="sans-serif" font-size="13" lengthAdjust="spacing" textLength="26" x="185.5" y="23.0566">http</text><path d="M332.7054,29.4883 C350.0522,29.4883 369.4493,29.4883 387.8034,29.4883 " fill="none" style="stroke:#A80036;stroke-width:1.0;"/><polygon fill="#A80036" points="387.8034,29.4883,378.8034,25.4883,382.8034,29.4883,378.8034,33.4883,387.8034,29.4883" style="stroke:#A80036;stroke-width:1.0;"/><text fill="#000000" font-family="sans-serif" font-size="13" lengthAdjust="spacing" textLength="36" x="342.25" y="23.0566">ODBC</text><path d="M118.692,52.6219 C109.2382,64.0511 97.7365,77.9561 88.2859,89.3814 " fill="none" style="stroke:#A80036;stroke-width:1.0;"/><polygon fill="#A80036" points="118.692,52.6219,109.8734,57.0074,115.5051,56.4747,116.0378,62.1064,118.692,52.6219" style="stroke:#A80036;stroke-width:1.0;"/><path d="M155.5813,52.6219 C165.1762,64.0511 176.8495,77.9561 186.4412,89.3814 " fill="none" style="stroke:#A80036;stroke-width:1.0;"/><polygon fill="#A80036" points="155.5813,52.6219,158.3045,62.0868,158.7962,56.4513,164.4316,56.943,155.5813,52.6219" style="stroke:#A80036;stroke-width:1.0;"/><!--MD5=[f254b04c8b06ef9e946c6d59f15188d7]
@startuml Diagrama de Hardware
!pragma layout smetana
node client
node webServer
node baseDataServer
node webClient
node movileClient
client -right-> webServer : http
webServer -right-> baseDataServer : ODBC
webClient -up-> client 
movileClient -up-> client

@enduml

PlantUML version 1.2022.0(Tue Jan 11 11:16:42 ECT 2022)
(GPL source distribution)
Java Runtime: OpenJDK Runtime Environment
JVM: OpenJDK 64-Bit Server VM
Default Encoding: UTF-8
Language: es
Country: EC
--></g></svg>