<?xml version="1.0" encoding="UTF-8" standalone="no"?><svg xmlns="http://www.w3.org/2000/svg" xmlns:xlink="http://www.w3.org/1999/xlink" contentScriptType="application/ecmascript" contentStyleType="text/css" height="671px" preserveAspectRatio="none" style="width:406px;height:671px;background:#FFFFFF;" version="1.1" viewBox="0 0 406 671" width="406px" zoomAndPan="magnify"><defs><filter height="300%" id="f1pydywx4t6yab" width="300%" x="-1" y="-1"><feGaussianBlur result="blurOut" stdDeviation="2.0"/><feColorMatrix in="blurOut" result="blurOut2" type="matrix" values="0 0 0 0 0 0 0 0 0 0 0 0 0 0 0 0 0 0 .4 0"/><feOffset dx="4.0" dy="4.0" in="blurOut2" result="blurOut3"/><feBlend in="SourceGraphic" in2="blurOut3" mode="normal"/></filter></defs><g><text fill="#000000" font-family="sans-serif" font-size="18" lengthAdjust="spacing" textLength="331" x="31.1746" y="17.4023">Klondike  - UseCase - Status Diagram</text><g id="INITIAL"><rect fill="#FEFECE" filter="url(#f1pydywx4t6yab)" height="50" rx="12.5" ry="12.5" style="stroke:#A80036;stroke-width:1.5;" width="68" x="184.3492" y="105.1992"/><line style="stroke:#A80036;stroke-width:1.5;" x1="184.3492" x2="252.3492" y1="131.6875" y2="131.6875"/><text fill="#000000" font-family="sans-serif" font-size="14" lengthAdjust="spacing" textLength="48" x="194.3492" y="123.7344">INITIAL</text></g><g id="IN_GAME"><rect fill="#FEFECE" filter="url(#f1pydywx4t6yab)" height="50" rx="12.5" ry="12.5" style="stroke:#A80036;stroke-width:1.5;" width="81" x="177.8492" y="208.1992"/><line style="stroke:#A80036;stroke-width:1.5;" x1="177.8492" x2="258.8492" y1="234.6875" y2="234.6875"/><text fill="#000000" font-family="sans-serif" font-size="14" lengthAdjust="spacing" textLength="61" x="187.8492" y="226.7344">IN_GAME</text></g><g id="OUT_GAME"><rect fill="#FEFECE" filter="url(#f1pydywx4t6yab)" height="50" rx="12.5" ry="12.5" style="stroke:#A80036;stroke-width:1.5;" width="97" x="178.8492" y="388.1992"/><line style="stroke:#A80036;stroke-width:1.5;" x1="178.8492" x2="275.8492" y1="414.6875" y2="414.6875"/><text fill="#000000" font-family="sans-serif" font-size="14" lengthAdjust="spacing" textLength="77" x="188.8492" y="406.7344">OUT_GAME</text></g><g id="EXIT"><rect fill="#FEFECE" filter="url(#f1pydywx4t6yab)" height="50" rx="12.5" ry="12.5" style="stroke:#A80036;stroke-width:1.5;" width="50" x="247.3492" y="552.1992"/><line style="stroke:#A80036;stroke-width:1.5;" x1="247.3492" x2="297.3492" y1="578.6875" y2="578.6875"/><text fill="#000000" font-family="sans-serif" font-size="14" lengthAdjust="spacing" textLength="30" x="257.3492" y="570.7344">EXIT</text></g><polygon fill="#FEFECE" filter="url(#f1pydywx4t6yab)" points="218.3492,311.1992,230.3492,323.1992,218.3492,335.1992,206.3492,323.1992,218.3492,311.1992" style="stroke:#A80036;stroke-width:1.5;"/><polygon fill="#FEFECE" filter="url(#f1pydywx4t6yab)" points="272.3492,491.1992,284.3492,503.1992,272.3492,515.1992,260.3492,503.1992,272.3492,491.1992" style="stroke:#A80036;stroke-width:1.5;"/><ellipse cx="218.3492" cy="38.1992" fill="#000000" filter="url(#f1pydywx4t6yab)" rx="10" ry="10" style="stroke:none;stroke-width:1.0;"/><ellipse cx="272.3492" cy="649.1992" filter="url(#f1pydywx4t6yab)" rx="10" ry="10" style="stroke:#000000;stroke-width:1.0;fill:none;"/><ellipse cx="272.8492" cy="649.6992" fill="#000000" rx="6" ry="6" style="stroke:none;stroke-width:1.0;"/><path d="M218.3492,52.3445 C218.3492,65.4792 218.3492,87.6892 218.3492,104.8652 " fill="none" style="stroke:#A80036;stroke-width:1.0;"/><polygon fill="#A80036" points="218.3492,104.8652,222.3492,95.8652,218.3492,99.8652,214.3492,95.8652,218.3492,104.8652" style="stroke:#A80036;stroke-width:1.0;"/><text fill="#000000" font-family="sans-serif" font-size="13" lengthAdjust="spacing" textLength="44" x="219.3492" y="83.7676">Shuffle</text><path d="M218.3492,155.3912 C218.3492,171.265 218.3492,191.9501 218.3492,207.8546 " fill="none" style="stroke:#A80036;stroke-width:1.0;"/><polygon fill="#A80036" points="218.3492,207.8546,222.3492,198.8546,218.3492,202.8546,214.3492,198.8546,218.3492,207.8546" style="stroke:#A80036;stroke-width:1.0;"/><text fill="#000000" font-family="sans-serif" font-size="13" lengthAdjust="spacing" textLength="50" x="219.3492" y="186.7676">DealPile</text><path d="M177.8331,234.8665 C115.2304,237.2966 6,247.9294 44.3492,293.1992 C65.2827,317.9104 170.3923,321.5844 206.3018,322.1151 " fill="none" style="stroke:#A80036;stroke-width:1.0;"/><polygon fill="#A80036" points="206.3018,322.1151,197.3619,317.9825,201.3024,322.0412,197.2437,325.9817,206.3018,322.1151" style="stroke:#A80036;stroke-width:1.0;"/><text fill="#000000" font-family="sans-serif" font-size="13" lengthAdjust="spacing" textLength="63" x="45.3492" y="289.7676">DealStock</text><path d="M177.589,245.0198 C148.3279,254.894 116.6128,271.2856 132.3492,293.1992 C149.3521,316.8763 186.6925,321.4773 206.0969,322.2082 " fill="none" style="stroke:#A80036;stroke-width:1.0;"/><polygon fill="#A80036" points="206.0969,322.2082,197.2538,317.8723,201.1004,322.02,196.9527,325.8666,206.0969,322.2082" style="stroke:#A80036;stroke-width:1.0;"/><text fill="#000000" font-family="sans-serif" font-size="13" lengthAdjust="spacing" textLength="62" x="133.3492" y="289.7676">MoveCard</text><path d="M218.3492,258.2456 C218.3492,275.3443 218.3492,297.5435 218.3492,310.785 " fill="none" style="stroke:#A80036;stroke-width:1.0;"/><polygon fill="#A80036" points="218.3492,310.785,222.3492,301.785,218.3492,305.785,214.3492,301.785,218.3492,310.785" style="stroke:#A80036;stroke-width:1.0;"/><text fill="#000000" font-family="sans-serif" font-size="13" lengthAdjust="spacing" textLength="55" x="219.3492" y="289.7676">MovePile</text><path d="M230.6732,319.9782 C244.5347,316.7495 266.4059,309.2879 276.3492,293.1992 C285.1844,278.9037 273.8288,265.3513 258.8925,254.8489 " fill="none" style="stroke:#A80036;stroke-width:1.0;"/><polygon fill="#A80036" points="258.8925,254.8489,263.9539,263.2977,262.9826,257.7249,268.5555,256.7536,258.8925,254.8489" style="stroke:#A80036;stroke-width:1.0;"/><path d="M219.4891,335.3445 C220.8324,348.4792 223.1039,370.6892 224.8605,387.8652 " fill="none" style="stroke:#A80036;stroke-width:1.0;"/><polygon fill="#A80036" points="224.8605,387.8652,227.9241,378.5049,224.3518,382.8911,219.9656,379.3189,224.8605,387.8652" style="stroke:#A80036;stroke-width:1.0;"/><text fill="#000000" font-family="sans-serif" font-size="13" lengthAdjust="spacing" textLength="59" x="224.3492" y="366.7676">[finished]</text><path d="M225.4747,438.2276 C225.6372,449.4997 227.4016,462.7237 233.3492,473.1992 C239.4315,483.9119 251.2612,491.8378 260.3043,496.6713 " fill="none" style="stroke:#A80036;stroke-width:1.0;"/><polygon fill="#A80036" points="260.3043,496.6713,254.2525,488.9012,255.8947,494.3144,250.4814,495.9566,260.3043,496.6713" style="stroke:#A80036;stroke-width:1.0;"/><text fill="#000000" font-family="sans-serif" font-size="13" lengthAdjust="spacing" textLength="66" x="234.3492" y="469.7676">ResetDeck</text><path d="M284.5331,493.7716 C290.8372,488.6424 297.916,481.4877 301.3492,473.1992 C334.8903,392.2241 338.3301,350.8165 292.3492,276.1992 C284.677,263.7488 271.872,254.6468 259.0514,248.1655 " fill="none" style="stroke:#A80036;stroke-width:1.0;"/><polygon fill="#A80036" points="259.0514,248.1655,265.2787,255.7957,263.5136,250.4213,268.888,248.6562,259.0514,248.1655" style="stroke:#A80036;stroke-width:1.0;"/><text fill="#000000" font-family="sans-serif" font-size="13" lengthAdjust="spacing" textLength="71" x="327.3492" y="366.7676">[continued]</text><path d="M272.3492,515.4492 C272.3492,525.1787 272.3492,539.5829 272.3492,551.9237 " fill="none" style="stroke:#A80036;stroke-width:1.0;"/><polygon fill="#A80036" points="272.3492,551.9237,276.3492,542.9237,272.3492,546.9237,268.3492,542.9237,272.3492,551.9237" style="stroke:#A80036;stroke-width:1.0;"/><path d="M272.3492,602.5751 C272.3492,614.9772 272.3492,629.4412 272.3492,639.1463 " fill="none" style="stroke:#A80036;stroke-width:1.0;"/><polygon fill="#A80036" points="272.3492,639.1463,276.3492,630.1463,272.3492,634.1463,268.3492,630.1463,272.3492,639.1463" style="stroke:#A80036;stroke-width:1.0;"/><!--MD5=[a92b99259f8f980b2e22df5387edd186]
@startuml StateDiagram
!pragma layout smetana
title Klondike  - UseCase - Status Diagram

state INITIAL
state IN_GAME
state OUT_GAME
state EXIT
state if_finished <<choice>>
state if_resumed <<choice>>

[*] - -> INITIAL: Shuffle
INITIAL - -> IN_GAME: DealPile
IN_GAME - -> if_finished: DealStock
IN_GAME - -> if_finished: MoveCard
IN_GAME - -> if_finished: MovePile
if_finished - -> IN_GAME
if_finished - -> OUT_GAME: [finished]
OUT_GAME - -> if_resumed: ResetDeck
if_resumed - -> IN_GAME: [continued]
if_resumed - -> EXIT
EXIT - -> [*]
@enduml

PlantUML version 1.2022.0(Tue Jan 11 11:16:42 ECT 2022)
(GPL source distribution)
Java Runtime: OpenJDK Runtime Environment
JVM: OpenJDK 64-Bit Server VM
Default Encoding: UTF-8
Language: es
Country: EC
--></g></svg>