<?xml version="1.0" encoding="UTF-8" standalone="no"?><svg xmlns="http://www.w3.org/2000/svg" xmlns:xlink="http://www.w3.org/1999/xlink" contentScriptType="application/ecmascript" contentStyleType="text/css" height="881px" preserveAspectRatio="none" style="width:355px;height:881px;background:#FFFFFF;" version="1.1" viewBox="0 0 355 881" width="355px" zoomAndPan="magnify"><defs><filter height="300%" id="f652tvivrei8c" width="300%" x="-1" y="-1"><feGaussianBlur result="blurOut" stdDeviation="2.0"/><feColorMatrix in="blurOut" result="blurOut2" type="matrix" values="0 0 0 0 0 0 0 0 0 0 0 0 0 0 0 0 0 0 .4 0"/><feOffset dx="4.0" dy="4.0" in="blurOut2" result="blurOut3"/><feBlend in="SourceGraphic" in2="blurOut3" mode="normal"/></filter></defs><g><text fill="#000000" font-family="sans-serif" font-size="18" lengthAdjust="spacing" textLength="346" x="2" y="17.4023">Klondike  - UseCase - Context Diagram</text><g id="INITIAL"><rect fill="#FEFECE" filter="url(#f652tvivrei8c)" height="50" rx="12.5" ry="12.5" style="stroke:#A80036;stroke-width:1.5;" width="68" x="96.4441" y="212.6836"/><line style="stroke:#A80036;stroke-width:1.5;" x1="96.4441" x2="164.4441" y1="239.1719" y2="239.1719"/><text fill="#000000" font-family="sans-serif" font-size="14" lengthAdjust="spacing" textLength="48" x="106.4441" y="231.2188">INITIAL</text></g><g id="_"><rect fill="#FEFECE" filter="url(#f652tvivrei8c)" height="50" rx="12.5" ry="12.5" style="stroke:#A80036;stroke-width:1.5;" width="50" x="48.4441" y="315.6836"/><line style="stroke:#A80036;stroke-width:1.5;" x1="48.4441" x2="98.4441" y1="342.1719" y2="342.1719"/><text fill="#000000" font-family="sans-serif" font-size="14" lengthAdjust="spacing" textLength="7" x="69.9441" y="334.2188">_</text></g><g id="IN_GAME"><rect fill="#FEFECE" filter="url(#f652tvivrei8c)" height="50" rx="12.5" ry="12.5" style="stroke:#A80036;stroke-width:1.5;" width="81" x="28.9441" y="418.6836"/><line style="stroke:#A80036;stroke-width:1.5;" x1="28.9441" x2="109.9441" y1="445.1719" y2="445.1719"/><text fill="#000000" font-family="sans-serif" font-size="14" lengthAdjust="spacing" textLength="61" x="38.9441" y="437.2188">IN_GAME</text></g><g id="OUT_GAME"><rect fill="#FEFECE" filter="url(#f652tvivrei8c)" height="50" rx="12.5" ry="12.5" style="stroke:#A80036;stroke-width:1.5;" width="97" x="37.9441" y="598.6836"/><line style="stroke:#A80036;stroke-width:1.5;" x1="37.9441" x2="134.9441" y1="625.1719" y2="625.1719"/><text fill="#000000" font-family="sans-serif" font-size="14" lengthAdjust="spacing" textLength="77" x="47.9441" y="617.2188">OUT_GAME</text></g><g id="EXIT"><rect fill="#FEFECE" filter="url(#f652tvivrei8c)" height="50" rx="12.5" ry="12.5" style="stroke:#A80036;stroke-width:1.5;" width="50" x="101.4441" y="762.6836"/><line style="stroke:#A80036;stroke-width:1.5;" x1="101.4441" x2="151.4441" y1="789.1719" y2="789.1719"/><text fill="#000000" font-family="sans-serif" font-size="14" lengthAdjust="spacing" textLength="30" x="111.4441" y="781.2188">EXIT</text></g><polygon fill="#FEFECE" filter="url(#f652tvivrei8c)" points="86.4441,521.6836,98.4441,533.6836,86.4441,545.6836,74.4441,533.6836,86.4441,521.6836" style="stroke:#A80036;stroke-width:1.5;"/><polygon fill="#FEFECE" filter="url(#f652tvivrei8c)" points="126.4441,701.6836,138.4441,713.6836,126.4441,725.6836,114.4441,713.6836,126.4441,701.6836" style="stroke:#A80036;stroke-width:1.5;"/><path d="M158.4441,27.6836 L158.4441,160.168 L336.4441,160.168 L336.4441,37.6836 L326.4441,27.6836 L158.4441,27.6836 " fill="#FBFB77" filter="url(#f652tvivrei8c)" style="stroke:#A80036;stroke-width:1.0;"/><path d="M326.4441,27.6836 L326.4441,37.6836 L336.4441,37.6836 L326.4441,27.6836 " fill="#FBFB77" style="stroke:#A80036;stroke-width:1.0;"/><text fill="#000000" font-family="sans-serif" font-size="13" lengthAdjust="spacing" textLength="93" x="164.4441" y="45.252">PileToPileMove</text><text fill="#000000" font-family="sans-serif" font-size="13" lengthAdjust="spacing" textLength="142" x="164.4441" y="60.5625">PileToFoundationMove</text><text fill="#000000" font-family="sans-serif" font-size="13" lengthAdjust="spacing" textLength="157" x="164.4441" y="75.873">WasteToFoundationMove</text><text fill="#000000" font-family="sans-serif" font-size="13" lengthAdjust="spacing" textLength="108" x="164.4441" y="91.1836">WasteToPileMove</text><text fill="#000000" font-family="sans-serif" font-size="13" lengthAdjust="spacing" textLength="134" x="164.4441" y="106.4941">FondationToPileMove</text><text fill="#000000" font-family="sans-serif" font-size="13" lengthAdjust="spacing" textLength="125" x="164.4441" y="121.8047">WaisteToStockMove</text><text fill="#000000" font-family="sans-serif" font-size="13" lengthAdjust="spacing" textLength="33" x="164.4441" y="137.1152">Undo</text><text fill="#000000" font-family="sans-serif" font-size="13" lengthAdjust="spacing" textLength="31" x="164.4441" y="152.4258">Redo</text><ellipse cx="130.4441" cy="91.6836" fill="#000000" filter="url(#f652tvivrei8c)" rx="10" ry="10" style="stroke:none;stroke-width:1.0;"/><ellipse cx="126.4441" cy="859.6836" filter="url(#f652tvivrei8c)" rx="10" ry="10" style="stroke:#000000;stroke-width:1.0;fill:none;"/><ellipse cx="126.9441" cy="860.1836" fill="#000000" rx="6" ry="6" style="stroke:none;stroke-width:1.0;"/><path d="M130.4441,105.8261 C130.4441,128.7095 130.4441,181.4568 130.4441,212.545 " fill="none" style="stroke:#A80036;stroke-width:1.0;"/><polygon fill="#A80036" points="130.4441,212.545,134.4441,203.545,130.4441,207.545,126.4441,203.545,130.4441,212.545" style="stroke:#A80036;stroke-width:1.0;"/><text fill="#000000" font-family="sans-serif" font-size="13" lengthAdjust="spacing" textLength="35" x="131.4441" y="191.252">Login</text><path d="M101.0296,262.9126 C95.888,268.3057 91.0425,274.3265 87.4441,280.6836 C81.4286,291.3111 77.9901,304.4214 76.0284,315.5825 " fill="none" style="stroke:#A80036;stroke-width:1.0;"/><polygon fill="#A80036" points="76.0284,315.5825,81.526,307.4108,76.894,310.658,73.6468,306.0259,76.0284,315.5825" style="stroke:#A80036;stroke-width:1.0;"/><text fill="#000000" font-family="sans-serif" font-size="13" lengthAdjust="spacing" textLength="64" x="88.4441" y="294.252">StartGame</text><path d="M71.4747,366.1004 C71.0724,371.8629 70.6957,377.9872 70.4441,383.6836 C69.938,395.1463 69.6833,407.8721 69.5569,418.5618 " fill="none" style="stroke:#A80036;stroke-width:1.0;"/><polygon fill="#A80036" points="69.5569,418.5618,73.663,409.6097,69.616,413.5621,65.6636,409.5151,69.5569,418.5618" style="stroke:#A80036;stroke-width:1.0;"/><text fill="#000000" font-family="sans-serif" font-size="13" lengthAdjust="spacing" textLength="81" x="71.4441" y="397.252">DealToWaste</text><path d="M40.6507,468.9405 C31.5972,479.5437 25.5559,492.1656 32.4441,503.6836 C41.4015,518.6614 61.0439,526.3505 74.005,529.9426 " fill="none" style="stroke:#A80036;stroke-width:1.0;"/><polygon fill="#A80036" points="74.005,529.9426,66.4002,523.6842,69.1866,528.6072,64.2636,531.3936,74.005,529.9426" style="stroke:#A80036;stroke-width:1.0;"/><text fill="#000000" font-family="sans-serif" font-size="13" lengthAdjust="spacing" textLength="62" x="33.4441" y="500.252">MoveCard</text><path d="M91.9446,521.6047 C95.8717,512.217 99.8987,498.4457 96.4441,486.6836 C94.6365,480.5289 91.6179,474.4231 88.2394,468.852 " fill="none" style="stroke:#A80036;stroke-width:1.0;"/><polygon fill="#A80036" points="88.2394,468.852,89.486,478.6216,90.8321,473.1273,96.3264,474.4733,88.2394,468.852" style="stroke:#A80036;stroke-width:1.0;"/><path d="M86.4441,545.8289 C86.4441,558.9636 86.4441,581.1735 86.4441,598.3496 " fill="none" style="stroke:#A80036;stroke-width:1.0;"/><polygon fill="#A80036" points="86.4441,598.3496,90.4441,589.3496,86.4441,593.3496,82.4441,589.3496,86.4441,598.3496" style="stroke:#A80036;stroke-width:1.0;"/><text fill="#000000" font-family="sans-serif" font-size="13" lengthAdjust="spacing" textLength="59" x="87.4441" y="577.252">[finished]</text><path d="M82.1458,648.8341 C81.3039,660.0059 82.018,673.1111 87.4441,683.6836 C93.069,694.6433 104.963,702.5345 114.1459,707.2925 " fill="none" style="stroke:#A80036;stroke-width:1.0;"/><polygon fill="#A80036" points="114.1459,707.2925,107.9951,699.6005,109.7064,704.9923,104.3147,706.7036,114.1459,707.2925" style="stroke:#A80036;stroke-width:1.0;"/><text fill="#000000" font-family="sans-serif" font-size="13" lengthAdjust="spacing" textLength="64" x="88.4441" y="680.252">ReseGame</text><path d="M138.4591,702.463 C143.7826,697.3332 149.6793,690.7193 153.4441,683.6836 C166.1595,659.9214 167.4441,651.6339 167.4441,624.6836 C167.4441,339.6836 167.4441,339.6836 167.4441,339.6836 C167.4441,312.7333 163.1143,305.8393 153.4441,280.6836 C151.1771,274.7861 148.229,268.6886 145.204,263.0296 " fill="none" style="stroke:#A80036;stroke-width:1.0;"/><polygon fill="#A80036" points="145.204,263.0296,145.9191,272.8525,147.5611,267.4392,152.9744,269.0812,145.204,263.0296" style="stroke:#A80036;stroke-width:1.0;"/><text fill="#000000" font-family="sans-serif" font-size="13" lengthAdjust="spacing" textLength="71" x="168.4441" y="500.252">[continued]</text><path d="M126.4441,725.9336 C126.4441,735.6631 126.4441,750.0673 126.4441,762.4081 " fill="none" style="stroke:#A80036;stroke-width:1.0;"/><polygon fill="#A80036" points="126.4441,762.4081,130.4441,753.4081,126.4441,757.4081,122.4441,753.4081,126.4441,762.4081" style="stroke:#A80036;stroke-width:1.0;"/><path d="M126.4441,813.0595 C126.4441,825.4616 126.4441,839.9256 126.4441,849.6307 " fill="none" style="stroke:#A80036;stroke-width:1.0;"/><polygon fill="#A80036" points="126.4441,849.6307,130.4441,840.6307,126.4441,844.6307,122.4441,840.6307,126.4441,849.6307" style="stroke:#A80036;stroke-width:1.0;"/><!--MD5=[d90e58e9b05a984ddaab0f3d75a5164d]
@startuml UseCaseContextDiagram
!pragma layout smetana
title Klondike  - UseCase - Context Diagram

state INITIAL
state _
state IN_GAME
state OUT_GAME
state EXIT
state if_finished <<choice>>
state if_resumed <<choice>>


note "PileToPileMove\nPileToFoundationMove\nWasteToFoundationMove\nWasteToPileMove\nFondationToPileMove\nWaisteToStockMove\nUndo\nRedo" as PNote


[*] - -> INITIAL: Login

INITIAL - -> _: StartGame 
_ - -> IN_GAME: DealToWaste
IN_GAME - -> if_finished: MoveCard 
if_finished - -> IN_GAME
if_finished - -> OUT_GAME: [finished]
OUT_GAME - -> if_resumed: ReseGame
if_resumed - -> INITIAL: [continued]
if_resumed - -> EXIT
EXIT - -> [*]


@enduml

PlantUML version 1.2022.0(Tue Jan 11 11:16:42 ECT 2022)
(GPL source distribution)
Java Runtime: OpenJDK Runtime Environment
JVM: OpenJDK 64-Bit Server VM
Default Encoding: UTF-8
Language: es
Country: EC
--></g></svg>