<?xml version="1.0" encoding="UTF-8" standalone="no"?><svg xmlns="http://www.w3.org/2000/svg" xmlns:xlink="http://www.w3.org/1999/xlink" contentScriptType="application/ecmascript" contentStyleType="text/css" height="774px" preserveAspectRatio="none" style="width:1138px;height:774px;background:#FFFFFF;" version="1.1" viewBox="0 0 1138 774" width="1138px" zoomAndPan="magnify"><defs><filter height="300%" id="feiyq7n8sg35x" width="300%" x="-1" y="-1"><feGaussianBlur result="blurOut" stdDeviation="2.0"/><feColorMatrix in="blurOut" result="blurOut2" type="matrix" values="0 0 0 0 0 0 0 0 0 0 0 0 0 0 0 0 0 0 .4 0"/><feOffset dx="4.0" dy="4.0" in="blurOut2" result="blurOut3"/><feBlend in="SourceGraphic" in2="blurOut3" mode="normal"/></filter></defs><g><text fill="#000000" font-family="sans-serif" font-size="18" lengthAdjust="spacing" textLength="346" x="389.6083" y="17.4023">Klondike  - UseCase - Context Diagram</text><g id="INITIAL"><rect fill="#FEFECE" filter="url(#feiyq7n8sg35x)" height="50" rx="12.5" ry="12.5" style="stroke:#A80036;stroke-width:1.5;" width="68" x="1010.2167" y="105.1992"/><line style="stroke:#A80036;stroke-width:1.5;" x1="1010.2167" x2="1078.2167" y1="131.6875" y2="131.6875"/><text fill="#000000" font-family="sans-serif" font-size="14" lengthAdjust="spacing" textLength="48" x="1020.2167" y="123.7344">INITIAL</text></g><g id="_"><rect fill="#FEFECE" filter="url(#feiyq7n8sg35x)" height="50" rx="12.5" ry="12.5" style="stroke:#A80036;stroke-width:1.5;" width="50" x="683.2167" y="208.1992"/><line style="stroke:#A80036;stroke-width:1.5;" x1="683.2167" x2="733.2167" y1="234.6875" y2="234.6875"/><text fill="#000000" font-family="sans-serif" font-size="14" lengthAdjust="spacing" textLength="7" x="704.7167" y="226.7344">_</text></g><g id="IN_GAME"><rect fill="#FEFECE" filter="url(#feiyq7n8sg35x)" height="50" rx="12.5" ry="12.5" style="stroke:#A80036;stroke-width:1.5;" width="81" x="583.7167" y="311.1992"/><line style="stroke:#A80036;stroke-width:1.5;" x1="583.7167" x2="664.7167" y1="337.6875" y2="337.6875"/><text fill="#000000" font-family="sans-serif" font-size="14" lengthAdjust="spacing" textLength="61" x="593.7167" y="329.7344">IN_GAME</text></g><g id="OUT_GAME"><rect fill="#FEFECE" filter="url(#feiyq7n8sg35x)" height="50" rx="12.5" ry="12.5" style="stroke:#A80036;stroke-width:1.5;" width="97" x="789.7167" y="491.1992"/><line style="stroke:#A80036;stroke-width:1.5;" x1="789.7167" x2="886.7167" y1="517.6875" y2="517.6875"/><text fill="#000000" font-family="sans-serif" font-size="14" lengthAdjust="spacing" textLength="77" x="799.7167" y="509.7344">OUT_GAME</text></g><g id="EXIT"><rect fill="#FEFECE" filter="url(#feiyq7n8sg35x)" height="50" rx="12.5" ry="12.5" style="stroke:#A80036;stroke-width:1.5;" width="50" x="968.2167" y="655.1992"/><line style="stroke:#A80036;stroke-width:1.5;" x1="968.2167" x2="1018.2167" y1="681.6875" y2="681.6875"/><text fill="#000000" font-family="sans-serif" font-size="14" lengthAdjust="spacing" textLength="30" x="978.2167" y="673.7344">EXIT</text></g><polygon fill="#FEFECE" filter="url(#feiyq7n8sg35x)" points="633.2167,414.1992,645.2167,426.1992,633.2167,438.1992,621.2167,426.1992,633.2167,414.1992" style="stroke:#A80036;stroke-width:1.5;"/><polygon fill="#FEFECE" filter="url(#feiyq7n8sg35x)" points="993.2167,594.1992,1005.2167,606.1992,993.2167,618.1992,981.2167,606.1992,993.2167,594.1992" style="stroke:#A80036;stroke-width:1.5;"/><ellipse cx="1044.2167" cy="38.1992" fill="#000000" filter="url(#feiyq7n8sg35x)" rx="10" ry="10" style="stroke:none;stroke-width:1.0;"/><ellipse cx="993.2167" cy="752.1992" filter="url(#feiyq7n8sg35x)" rx="10" ry="10" style="stroke:#000000;stroke-width:1.0;fill:none;"/><ellipse cx="993.7167" cy="752.6992" fill="#000000" rx="6" ry="6" style="stroke:none;stroke-width:1.0;"/><path d="M1044.2167,52.3445 C1044.2167,65.4792 1044.2167,87.6892 1044.2167,104.8652 " fill="none" style="stroke:#A80036;stroke-width:1.0;"/><polygon fill="#A80036" points="1044.2167,104.8652,1048.2167,95.8652,1044.2167,99.8652,1040.2167,95.8652,1044.2167,104.8652" style="stroke:#A80036;stroke-width:1.0;"/><text fill="#000000" font-family="sans-serif" font-size="13" lengthAdjust="spacing" textLength="35" x="1045.2167" y="83.7676">Login</text><path d="M1010.1502,141.4395 C942.5808,161.7505 792.9868,206.7177 733.4122,224.6256 " fill="none" style="stroke:#A80036;stroke-width:1.0;"/><polygon fill="#A80036" points="733.4122,224.6256,743.1827,225.8654,738.2006,223.1862,740.8798,218.204,733.4122,224.6256" style="stroke:#A80036;stroke-width:1.0;"/><text fill="#000000" font-family="sans-serif" font-size="13" lengthAdjust="spacing" textLength="64" x="898.2167" y="186.7676">StartGame</text><path d="M688.0966,258.3912 C674.8947,274.265 657.6912,294.9501 644.4637,310.8546 " fill="none" style="stroke:#A80036;stroke-width:1.0;"/><polygon fill="#A80036" points="644.4637,310.8546,653.294,306.4927,647.6609,307.0103,647.1433,301.3772,644.4637,310.8546" style="stroke:#A80036;stroke-width:1.0;"/><text fill="#000000" font-family="sans-serif" font-size="13" lengthAdjust="spacing" textLength="81" x="673.2167" y="289.7676">DealToWaste</text><path d="M583.2765,336.8516 C452.3567,336.1635 50.1677,337.4881 11.2167,379.1992 C6.0599,384.7214 6,390.7336 11.2167,396.1992 C33.072,419.0973 535.7288,424.3717 620.9834,425.1027 " fill="none" style="stroke:#A80036;stroke-width:1.0;"/><polygon fill="#A80036" points="620.9834,425.1027,612.0181,421.0256,615.9836,425.0598,611.9495,429.0253,620.9834,425.1027" style="stroke:#A80036;stroke-width:1.0;"/><text fill="#000000" font-family="sans-serif" font-size="13" lengthAdjust="spacing" textLength="93" x="12.2167" y="392.7676">PileToPileMove</text><path d="M583.3717,337.5708 C470.3385,339.0205 159.7048,346.0147 129.2167,379.1992 C124.1049,384.7631 124.0298,390.7053 129.2167,396.1992 C146.6278,414.6409 544.6967,423.4439 620.7301,424.9599 " fill="none" style="stroke:#A80036;stroke-width:1.0;"/><polygon fill="#A80036" points="620.7301,424.9599,611.8117,420.7813,615.7311,424.8603,611.6522,428.7797,620.7301,424.9599" style="stroke:#A80036;stroke-width:1.0;"/><text fill="#000000" font-family="sans-serif" font-size="13" lengthAdjust="spacing" textLength="142" x="130.2167" y="392.7676">PileToFoundationMove</text><path d="M583.4685,338.1528 C487.1545,341.1262 256.4132,352.8234 296.2167,396.1992 C318.5996,420.591 563.0329,424.5128 620.959,425.1011 " fill="none" style="stroke:#A80036;stroke-width:1.0;"/><polygon fill="#A80036" points="620.959,425.1011,612.0001,421.0099,615.9593,425.0503,611.9189,429.0095,620.959,425.1011" style="stroke:#A80036;stroke-width:1.0;"/><text fill="#000000" font-family="sans-serif" font-size="13" lengthAdjust="spacing" textLength="157" x="297.2167" y="392.7676">WasteToFoundationMove</text><path d="M583.6057,339.8241 C530.325,344.782 447.0443,358.6536 478.2167,396.1992 C496.404,418.1049 587.3612,423.5584 620.8307,424.8333 " fill="none" style="stroke:#A80036;stroke-width:1.0;"/><polygon fill="#A80036" points="620.8307,424.8333,611.9895,420.4936,615.8343,424.643,611.685,428.4878,620.8307,424.8333" style="stroke:#A80036;stroke-width:1.0;"/><text fill="#000000" font-family="sans-serif" font-size="13" lengthAdjust="spacing" textLength="108" x="479.2167" y="392.7676">WasteToPileMove</text><path d="M613.042,361.3453 C609.5279,372.1535 607.4378,384.9655 611.2167,396.1992 C613.4331,402.7879 617.8066,409.0688 622.0743,414.0898 " fill="none" style="stroke:#A80036;stroke-width:1.0;"/><polygon fill="#A80036" points="622.0743,414.0898,619.2935,404.6417,618.8362,410.2801,613.1978,409.8228,622.0743,414.0898" style="stroke:#A80036;stroke-width:1.0;"/><text fill="#000000" font-family="sans-serif" font-size="13" lengthAdjust="spacing" textLength="134" x="612.2167" y="392.7676">FondationToPileMove</text><path d="M664.8759,339.3035 C693.0227,343.1364 728.642,353.229 747.2167,379.1992 C773.2897,415.6533 679.8746,423.2539 645.4618,424.8083 " fill="none" style="stroke:#A80036;stroke-width:1.0;"/><polygon fill="#A80036" points="645.4618,424.8083,654.6331,428.3981,650.4567,424.5827,654.2721,420.4063,645.4618,424.8083" style="stroke:#A80036;stroke-width:1.0;"/><text fill="#000000" font-family="sans-serif" font-size="13" lengthAdjust="spacing" textLength="125" x="753.2167" y="392.7676">WaisteToStockMove</text><path d="M664.7688,337.6451 C730.4747,339.3226 855.6522,346.8047 883.2167,379.1992 C888.113,384.9535 888.2421,390.5572 883.2167,396.1992 C867.1964,414.1852 693.302,422.7022 645.3816,424.7185 " fill="none" style="stroke:#A80036;stroke-width:1.0;"/><polygon fill="#A80036" points="645.3816,424.7185,654.5418,428.3366,650.3772,424.5083,654.2055,420.3437,645.3816,424.7185" style="stroke:#A80036;stroke-width:1.0;"/><text fill="#000000" font-family="sans-serif" font-size="13" lengthAdjust="spacing" textLength="33" x="888.2167" y="392.7676">Undo</text><path d="M664.8572,336.5758 C739.259,336.3983 892.8062,340.8207 926.2167,379.1992 C931.1777,384.8979 931.2893,390.5997 926.2167,396.1992 C907.0411,417.3664 698.0201,423.6778 645.2574,424.9392 " fill="none" style="stroke:#A80036;stroke-width:1.0;"/><polygon fill="#A80036" points="645.2574,424.9392,654.3505,428.7229,650.256,424.8197,654.1593,420.7252,645.2574,424.9392" style="stroke:#A80036;stroke-width:1.0;"/><text fill="#000000" font-family="sans-serif" font-size="13" lengthAdjust="spacing" textLength="31" x="931.2167" y="392.7676">Redo</text><path d="M645.4855,425.4545 C710.6423,426.6063 1011.5373,429.2779 967.2167,379.1992 C947.4608,356.8767 751.6387,343.8998 665.0422,339.2121 " fill="none" style="stroke:#A80036;stroke-width:1.0;"/><polygon fill="#A80036" points="665.0422,339.2121,673.8128,343.6927,670.0349,339.4823,674.2453,335.7044,665.0422,339.2121" style="stroke:#A80036;stroke-width:1.0;"/><path d="M645.4265,432.4405 C673.0956,444.318 741.8503,473.8322 789.2973,494.1997 " fill="none" style="stroke:#A80036;stroke-width:1.0;"/><polygon fill="#A80036" points="789.2973,494.1997,782.6049,486.9739,784.7027,492.2274,779.4492,494.3252,789.2973,494.1997" style="stroke:#A80036;stroke-width:1.0;"/><text fill="#000000" font-family="sans-serif" font-size="13" lengthAdjust="spacing" textLength="59" x="737.2167" y="469.7676">[finished]</text><path d="M880.5711,541.2456 C914.4528,560.4817 959.7046,586.173 981.0703,598.3032 " fill="none" style="stroke:#A80036;stroke-width:1.0;"/><polygon fill="#A80036" points="981.0703,598.3032,975.2185,590.3812,976.7222,595.8346,971.2688,597.3382,981.0703,598.3032" style="stroke:#A80036;stroke-width:1.0;"/><text fill="#000000" font-family="sans-serif" font-size="13" lengthAdjust="spacing" textLength="66" x="940.2167" y="572.7676">ResetDeck</text><path d="M1005.4427,596.7555 C1024.2716,582.6463 1058.2167,552.3373 1058.2167,517.1992 C1058.2167,232.1992 1058.2167,232.1992 1058.2167,232.1992 C1058.2167,205.8227 1053.474,175.9353 1049.5095,155.5592 " fill="none" style="stroke:#A80036;stroke-width:1.0;"/><polygon fill="#A80036" points="1049.5095,155.5592,1047.302,165.1575,1050.4644,160.4672,1055.1547,163.6296,1049.5095,155.5592" style="stroke:#A80036;stroke-width:1.0;"/><text fill="#000000" font-family="sans-serif" font-size="13" lengthAdjust="spacing" textLength="71" x="1059.2167" y="392.7676">[continued]</text><path d="M993.2167,618.4492 C993.2167,628.1787 993.2167,642.5829 993.2167,654.9237 " fill="none" style="stroke:#A80036;stroke-width:1.0;"/><polygon fill="#A80036" points="993.2167,654.9237,997.2167,645.9237,993.2167,649.9237,989.2167,645.9237,993.2167,654.9237" style="stroke:#A80036;stroke-width:1.0;"/><path d="M993.2167,705.5751 C993.2167,717.9772 993.2167,732.4412 993.2167,742.1463 " fill="none" style="stroke:#A80036;stroke-width:1.0;"/><polygon fill="#A80036" points="993.2167,742.1463,997.2167,733.1463,993.2167,737.1463,989.2167,733.1463,993.2167,742.1463" style="stroke:#A80036;stroke-width:1.0;"/><!--MD5=[46f6c03c16c6b4206887124e0702af3c]
@startuml UseCaseContextDiagram
!pragma layout smetana
title Klondike  - UseCase - Context Diagram

state INITIAL
state _
state IN_GAME
state OUT_GAME
state EXIT
state if_finished <<choice>>
state if_resumed <<choice>>

[*] - -> INITIAL: Login

INITIAL - -> _: StartGame 
_ - -> IN_GAME: DealToWaste
IN_GAME - -> if_finished: PileToPileMove
IN_GAME - -> if_finished: PileToFoundationMove
IN_GAME - -> if_finished: WasteToFoundationMove
IN_GAME - -> if_finished: WasteToPileMove
IN_GAME - -> if_finished: FondationToPileMove
IN_GAME - -> if_finished: WaisteToStockMove
IN_GAME - -> if_finished: Undo
IN_GAME - -> if_finished: Redo
if_finished - -> IN_GAME
if_finished - -> OUT_GAME: [finished]
OUT_GAME - -> if_resumed: ResetDeck
if_resumed - -> INITIAL: [continued]
if_resumed - -> EXIT
EXIT - -> [*]
@enduml

PlantUML version 1.2022.0(Tue Jan 11 11:16:42 ECT 2022)
(GPL source distribution)
Java Runtime: OpenJDK Runtime Environment
JVM: OpenJDK 64-Bit Server VM
Default Encoding: UTF-8
Language: es
Country: EC
--></g></svg>