<?xml version="1.0" encoding="UTF-8" standalone="no"?><svg xmlns="http://www.w3.org/2000/svg" xmlns:xlink="http://www.w3.org/1999/xlink" contentStyleType="text/css" height="886px" preserveAspectRatio="none" style="width:424px;height:886px;background:#FFFFFF;" version="1.1" viewBox="0 0 424 886" width="424px" zoomAndPan="magnify"><defs/><g><rect height="26.4883" style="stroke:#00000000;stroke-width:1.0;fill:none;" width="406" x="5" y="5"/><text fill="#000000" font-family="sans-serif" font-size="14" font-weight="bold" lengthAdjust="spacing" textLength="396" x="10" y="23.5352">Klondike  - Context Diagram - User Case Relationship</text><g id="INITIAL"><rect fill="#F1F1F1" height="50" rx="12.5" ry="12.5" style="stroke:#181818;stroke-width:0.5;" width="68" x="238" y="115.4883"/><line style="stroke:#181818;stroke-width:0.5;" x1="238" x2="306" y1="141.9766" y2="141.9766"/><text fill="#000000" font-family="sans-serif" font-size="14" lengthAdjust="spacing" textLength="48" x="248" y="134.0234">INITIAL</text></g><g id="GAME_READY"><rect fill="#F1F1F1" height="50" rx="12.5" ry="12.5" style="stroke:#181818;stroke-width:0.5;" width="113" x="158.5" y="218.4883"/><line style="stroke:#181818;stroke-width:0.5;" x1="158.5" x2="271.5" y1="244.9766" y2="244.9766"/><text fill="#000000" font-family="sans-serif" font-size="14" lengthAdjust="spacing" textLength="93" x="168.5" y="237.0234">GAME_READY</text></g><g id="IN_GAME"><rect fill="#F1F1F1" height="50" rx="12.5" ry="12.5" style="stroke:#181818;stroke-width:0.5;" width="81" x="170.5" y="321.4883"/><line style="stroke:#181818;stroke-width:0.5;" x1="170.5" x2="251.5" y1="347.9766" y2="347.9766"/><text fill="#000000" font-family="sans-serif" font-size="14" lengthAdjust="spacing" textLength="61" x="180.5" y="340.0234">IN_GAME</text></g><g id="OUT_GAME"><rect fill="#F1F1F1" height="50" rx="12.5" ry="12.5" style="stroke:#181818;stroke-width:0.5;" width="97" x="164.5" y="501.4883"/><line style="stroke:#181818;stroke-width:0.5;" x1="164.5" x2="261.5" y1="527.9766" y2="527.9766"/><text fill="#000000" font-family="sans-serif" font-size="14" lengthAdjust="spacing" textLength="77" x="174.5" y="520.0234">OUT_GAME</text></g><g id="EXIT"><rect fill="#F1F1F1" height="50" rx="12.5" ry="12.5" style="stroke:#181818;stroke-width:0.5;" width="50" x="257" y="773.4883"/><line style="stroke:#181818;stroke-width:0.5;" x1="257" x2="307" y1="799.9766" y2="799.9766"/><text fill="#000000" font-family="sans-serif" font-size="14" lengthAdjust="spacing" textLength="30" x="267" y="792.0234">EXIT</text></g><g id="elem_if_finished"><polygon fill="#F1F1F1" points="198,424.4883,210,436.4883,198,448.4883,186,436.4883,198,424.4883" style="stroke:#181818;stroke-width:0.5;"/></g><g id="elem_if_resumed"><polygon fill="#F1F1F1" points="282,658.4883,294,670.4883,282,682.4883,270,670.4883,282,658.4883" style="stroke:#181818;stroke-width:0.5;"/></g><g id="elem_PNote"><path d="M47,604.4883 L47,736.9727 L225,736.9727 L225,614.4883 L215,604.4883 L47,604.4883 " fill="#FEFFDD" style="stroke:#181818;stroke-width:0.5;"/><path d="M215,604.4883 L215,614.4883 L225,614.4883 L215,604.4883 " fill="#FEFFDD" style="stroke:#181818;stroke-width:1.0;"/><text fill="#000000" font-family="sans-serif" font-size="13" lengthAdjust="spacing" textLength="93" x="53" y="622.0566">PileToPileMove</text><text fill="#000000" font-family="sans-serif" font-size="13" lengthAdjust="spacing" textLength="142" x="53" y="637.3672">PileToFoundationMove</text><text fill="#000000" font-family="sans-serif" font-size="13" lengthAdjust="spacing" textLength="157" x="53" y="652.6777">WasteToFoundationMove</text><text fill="#000000" font-family="sans-serif" font-size="13" lengthAdjust="spacing" textLength="108" x="53" y="667.9883">WasteToPileMove</text><text fill="#000000" font-family="sans-serif" font-size="13" lengthAdjust="spacing" textLength="134" x="53" y="683.2988">FondationToPileMove</text><text fill="#000000" font-family="sans-serif" font-size="13" lengthAdjust="spacing" textLength="125" x="53" y="698.6094">WaisteToStockMove</text><text fill="#000000" font-family="sans-serif" font-size="13" lengthAdjust="spacing" textLength="33" x="53" y="713.9199">Undo</text><text fill="#000000" font-family="sans-serif" font-size="13" lengthAdjust="spacing" textLength="31" x="53" y="729.2305">Redo</text></g><ellipse cx="272" cy="48.4883" fill="#222222" rx="10" ry="10" style="stroke:none;stroke-width:1.0;"/><ellipse cx="282" cy="870.4883" fill="none" rx="10" ry="10" style="stroke:#222222;stroke-width:1.0;"/><ellipse cx="282.5" cy="870.9883" fill="#222222" rx="6" ry="6" style="stroke:none;stroke-width:1.0;"/><path d="M187.89,448.805 C177.7117,460.9112 162.4788,481.1333 155,501.4883 C143.0042,534.1371 138.0428,572.5572 136.1738,604.4101 " fill="none" style="stroke:#181818;stroke-width:1.0;"/><polygon fill="#181818" points="136.1738,604.4101,140.6941,595.6599,136.4667,599.4187,132.7078,595.1913,136.1738,604.4101" style="stroke:#181818;stroke-width:1.0;"/><path d="M272,62.6335 C272,75.7683 272,97.9782 272,115.1543 " fill="none" style="stroke:#181818;stroke-width:1.0;"/><polygon fill="#181818" points="272,115.1543,276,106.1543,272,110.1543,268,106.1543,272,115.1543" style="stroke:#181818;stroke-width:1.0;"/><text fill="#000000" font-family="sans-serif" font-size="13" lengthAdjust="spacing" textLength="35" x="273" y="94.0566">Login</text><path d="M242.5855,165.7173 C237.4438,171.1104 232.5983,177.1312 229,183.4883 C222.9845,194.1158 219.546,207.2261 217.5843,218.3872 " fill="none" style="stroke:#181818;stroke-width:1.0;"/><polygon fill="#181818" points="217.5843,218.3872,223.0819,210.2155,218.4498,213.4626,215.2027,208.8306,217.5843,218.3872" style="stroke:#181818;stroke-width:1.0;"/><text fill="#000000" font-family="sans-serif" font-size="13" lengthAdjust="spacing" textLength="64" x="230" y="197.0566">StartGame</text><path d="M213.0306,268.9051 C212.6283,274.6676 212.2515,280.7918 212,286.4883 C211.4939,297.951 211.2392,310.6768 211.1128,321.3665 " fill="none" style="stroke:#181818;stroke-width:1.0;"/><polygon fill="#181818" points="211.1128,321.3665,215.2189,312.4144,211.1719,316.3668,207.2195,312.3198,211.1128,321.3665" style="stroke:#181818;stroke-width:1.0;"/><text fill="#000000" font-family="sans-serif" font-size="13" lengthAdjust="spacing" textLength="81" x="213" y="300.0566">DealToWaste</text><path d="M207.4477,371.5347 C204.9217,388.6334 201.6423,410.8326 199.6862,424.074 " fill="none" style="stroke:#181818;stroke-width:1.0;"/><polygon fill="#181818" points="199.6862,424.074,204.9585,415.7552,200.4169,419.1277,197.0444,414.5861,199.6862,424.074" style="stroke:#181818;stroke-width:1.0;"/><text fill="#000000" font-family="sans-serif" font-size="13" lengthAdjust="spacing" textLength="62" x="206" y="403.0566">MoveCard</text><path d="M197.4513,424.4532 C197.1737,415.0923 197.2092,401.3357 199,389.4883 C199.884,383.6396 201.3434,377.4559 202.9454,371.6844 " fill="none" style="stroke:#181818;stroke-width:1.0;"/><polygon fill="#181818" points="202.9454,371.6844,196.684,379.2867,201.6081,376.5022,204.3926,381.4263,202.9454,371.6844" style="stroke:#181818;stroke-width:1.0;"/><path d="M199.8998,448.6335 C202.1386,461.7683 205.9244,483.9782 208.8522,501.1543 " fill="none" style="stroke:#181818;stroke-width:1.0;"/><polygon fill="#181818" points="208.8522,501.1543,211.283,491.6101,208.012,496.2253,203.3967,492.9543,208.8522,501.1543" style="stroke:#181818;stroke-width:1.0;"/><text fill="#000000" font-family="sans-serif" font-size="13" lengthAdjust="spacing" textLength="59" x="207" y="480.0566">[finished]</text><path d="M209.131,551.7099 C208.4181,562.7722 209.1159,575.7672 214,586.4883 C218.9577,597.371 225.9626,595.6332 234,604.4883 C250.0279,622.1469 265.9358,645.0163 274.815,658.3888 " fill="none" style="stroke:#181818;stroke-width:1.0;"/><polygon fill="#181818" points="274.815,658.3888,273.1689,648.6785,272.0492,654.2234,266.5043,653.1038,274.815,658.3888" style="stroke:#181818;stroke-width:1.0;"/><text fill="#000000" font-family="sans-serif" font-size="13" lengthAdjust="spacing" textLength="79" x="215" y="583.0566">RestartGame</text><path d="M285.6413,658.215 C293.0112,634.3646 309,576.9244 309,527.4883 C309,242.4883 309,242.4883 309,242.4883 C309,215.5379 304.6701,208.644 295,183.4883 C292.7329,177.5908 289.7849,171.4933 286.7599,165.8343 " fill="none" style="stroke:#181818;stroke-width:1.0;"/><polygon fill="#181818" points="286.7599,165.8343,287.475,175.6572,289.117,170.2439,294.5303,171.8859,286.7599,165.8343" style="stroke:#181818;stroke-width:1.0;"/><text fill="#000000" font-family="sans-serif" font-size="13" lengthAdjust="spacing" textLength="71" x="310" y="403.0566">[continued]</text><path d="M282,682.6699 C282,702.9067 282,746.0308 282,773.2874 " fill="none" style="stroke:#181818;stroke-width:1.0;"/><polygon fill="#181818" points="282,773.2874,286,764.2874,282,768.2874,278,764.2874,282,773.2874" style="stroke:#181818;stroke-width:1.0;"/><path d="M282,823.8642 C282,836.2663 282,850.7303 282,860.4354 " fill="none" style="stroke:#181818;stroke-width:1.0;"/><polygon fill="#181818" points="282,860.4354,286,851.4354,282,855.4354,278,851.4354,282,860.4354" style="stroke:#181818;stroke-width:1.0;"/><!--MD5=[bf4940885d34ae29c928fc43f1325eeb]
@startuml UseCaseContextDiagram
!pragma layout smetana
title Klondike  - Context Diagram - User Case Relationship

state INITIAL
state GAME_READY
state IN_GAME
state OUT_GAME
state EXIT
state if_finished <<choice>>
state if_resumed <<choice>>

note "PileToPileMove\nPileToFoundationMove\nWasteToFoundationMove\nWasteToPileMove\nFondationToPileMove\nWaisteToStockMove\nUndo\nRedo" as PNote

if_finished - - -> PNote
[*] - -> INITIAL: Login
INITIAL - -> GAME_READY: StartGame
GAME_READY- -> IN_GAME: DealToWaste
IN_GAME - -> if_finished: MoveCard
if_finished - -> IN_GAME
if_finished - -> OUT_GAME: [finished]
OUT_GAME - -> if_resumed: RestartGame
if_resumed - -> INITIAL: [continued]
if_resumed - -> EXIT
EXIT - -> [*]

@enduml

PlantUML version 1.2022.5(Sat Apr 30 05:55:52 ECT 2022)
(GPL source distribution)
Java Runtime: OpenJDK Runtime Environment
JVM: OpenJDK 64-Bit Server VM
Default Encoding: UTF-8
Language: es
Country: EC
--></g></svg>