<?xml version="1.0" encoding="UTF-8" standalone="no"?><svg xmlns="http://www.w3.org/2000/svg" xmlns:xlink="http://www.w3.org/1999/xlink" contentStyleType="text/css" height="180px" preserveAspectRatio="none" style="width:521px;height:180px;background:#FFFFFF;" version="1.1" viewBox="0 0 521 180" width="521px" zoomAndPan="magnify"><defs/><g><!--MD5=[999f80192410ad58725ac6d158b21eb2]
cluster Views--><g id="cluster_Views"><path d="M8.5,6 L52.5,6 A3.75,3.75 0 0 1 55,8.5 L62,28.4883 L511.5,28.4883 A2.5,2.5 0 0 1 514,30.9883 L514,170.5 A2.5,2.5 0 0 1 511.5,173 L8.5,173 A2.5,2.5 0 0 1 6,170.5 L6,8.5 A2.5,2.5 0 0 1 8.5,6 " style="stroke:#000000;stroke-width:1.5;fill:none;"/><line style="stroke:#000000;stroke-width:1.5;fill:none;" x1="6" x2="62" y1="28.4883" y2="28.4883"/><text fill="#000000" font-family="sans-serif" font-size="14" font-weight="bold" lengthAdjust="spacing" textLength="43" x="10" y="21.5352">Views</text></g><!--MD5=[76f994b4c1dd28b08e5b6d74bcdea3a4]
class KlondikeView--><g id="elem_KlondikeView"><rect codeLine="7" fill="#F1F1F1" height="48" id="KlondikeView" rx="2.5" ry="2.5" style="stroke:#181818;stroke-width:0.5;" width="124" x="181" y="33"/><ellipse cx="196" cy="49" fill="#ADD1B2" rx="11" ry="11" style="stroke:#181818;stroke-width:1.0;"/><path d="M198.4731,55.1431 Q197.8921,55.4419 197.2529,55.5913 Q196.6138,55.7407 195.9082,55.7407 Q193.4014,55.7407 192.0815,54.0889 Q190.7617,52.437 190.7617,49.3159 Q190.7617,46.1865 192.0815,44.5347 Q193.4014,42.8828 195.9082,42.8828 Q196.6138,42.8828 197.2612,43.0322 Q197.9087,43.1816 198.4731,43.4805 L198.4731,46.2031 Q197.8423,45.6221 197.2488,45.3523 Q196.6553,45.0825 196.0244,45.0825 Q194.6797,45.0825 193.9949,46.1492 Q193.3101,47.2158 193.3101,49.3159 Q193.3101,51.4077 193.9949,52.4744 Q194.6797,53.541 196.0244,53.541 Q196.6553,53.541 197.2488,53.2712 Q197.8423,53.0015 198.4731,52.4204 Z " fill="#000000"/><text fill="#000000" font-family="sans-serif" font-size="14" lengthAdjust="spacing" textLength="92" x="210" y="54.291">KlondikeView</text><line style="stroke:#181818;stroke-width:0.5;" x1="182" x2="304" y1="65" y2="65"/><line style="stroke:#181818;stroke-width:0.5;" x1="182" x2="304" y1="73" y2="73"/></g><!--MD5=[b82eaa36db8a0d76f3868c5da7ce8ca7]
class WasteView--><g id="elem_WasteView"><rect codeLine="8" fill="#F1F1F1" height="48" id="WasteView" rx="2.5" ry="2.5" style="stroke:#181818;stroke-width:0.5;" width="104" x="14" y="117"/><ellipse cx="29" cy="133" fill="#ADD1B2" rx="11" ry="11" style="stroke:#181818;stroke-width:1.0;"/><path d="M31.4731,139.1431 Q30.8921,139.4419 30.2529,139.5913 Q29.6138,139.7407 28.9082,139.7407 Q26.4014,139.7407 25.0815,138.0889 Q23.7617,136.437 23.7617,133.3159 Q23.7617,130.1865 25.0815,128.5347 Q26.4014,126.8828 28.9082,126.8828 Q29.6138,126.8828 30.2612,127.0322 Q30.9087,127.1816 31.4731,127.4805 L31.4731,130.2031 Q30.8423,129.6221 30.2488,129.3523 Q29.6553,129.0825 29.0244,129.0825 Q27.6797,129.0825 26.9949,130.1492 Q26.3101,131.2158 26.3101,133.3159 Q26.3101,135.4077 26.9949,136.4744 Q27.6797,137.541 29.0244,137.541 Q29.6553,137.541 30.2488,137.2712 Q30.8423,137.0015 31.4731,136.4204 Z " fill="#000000"/><text fill="#000000" font-family="sans-serif" font-size="14" lengthAdjust="spacing" textLength="72" x="43" y="138.291">WasteView</text><line style="stroke:#181818;stroke-width:0.5;" x1="15" x2="117" y1="149" y2="149"/><line style="stroke:#181818;stroke-width:0.5;" x1="15" x2="117" y1="157" y2="157"/></g><!--MD5=[c0ed3c2faa98f17089402fed9230ed1e]
class StockView--><g id="elem_StockView"><rect codeLine="9" fill="#F1F1F1" height="48" id="StockView" rx="2.5" ry="2.5" style="stroke:#181818;stroke-width:0.5;" width="101" x="136.5" y="117"/><ellipse cx="151.5" cy="133" fill="#ADD1B2" rx="11" ry="11" style="stroke:#181818;stroke-width:1.0;"/><path d="M153.9731,139.1431 Q153.3921,139.4419 152.7529,139.5913 Q152.1138,139.7407 151.4082,139.7407 Q148.9014,139.7407 147.5815,138.0889 Q146.2617,136.437 146.2617,133.3159 Q146.2617,130.1865 147.5815,128.5347 Q148.9014,126.8828 151.4082,126.8828 Q152.1138,126.8828 152.7612,127.0322 Q153.4087,127.1816 153.9731,127.4805 L153.9731,130.2031 Q153.3423,129.6221 152.7488,129.3523 Q152.1553,129.0825 151.5244,129.0825 Q150.1797,129.0825 149.4949,130.1492 Q148.8101,131.2158 148.8101,133.3159 Q148.8101,135.4077 149.4949,136.4744 Q150.1797,137.541 151.5244,137.541 Q152.1553,137.541 152.7488,137.2712 Q153.3423,137.0015 153.9731,136.4204 Z " fill="#000000"/><text fill="#000000" font-family="sans-serif" font-size="14" lengthAdjust="spacing" textLength="69" x="165.5" y="138.291">StockView</text><line style="stroke:#181818;stroke-width:0.5;" x1="137.5" x2="236.5" y1="149" y2="149"/><line style="stroke:#181818;stroke-width:0.5;" x1="137.5" x2="236.5" y1="157" y2="157"/></g><!--MD5=[cdff5bdf89a25a41e770b87ac92ad7cf]
class PilaView--><g id="elem_PilaView"><rect codeLine="10" fill="#F1F1F1" height="48" id="PilaView" rx="2.5" ry="2.5" style="stroke:#181818;stroke-width:0.5;" width="88" x="256" y="117"/><ellipse cx="271" cy="133" fill="#ADD1B2" rx="11" ry="11" style="stroke:#181818;stroke-width:1.0;"/><path d="M273.4731,139.1431 Q272.8921,139.4419 272.2529,139.5913 Q271.6138,139.7407 270.9082,139.7407 Q268.4014,139.7407 267.0815,138.0889 Q265.7617,136.437 265.7617,133.3159 Q265.7617,130.1865 267.0815,128.5347 Q268.4014,126.8828 270.9082,126.8828 Q271.6138,126.8828 272.2612,127.0322 Q272.9087,127.1816 273.4731,127.4805 L273.4731,130.2031 Q272.8423,129.6221 272.2488,129.3523 Q271.6553,129.0825 271.0244,129.0825 Q269.6797,129.0825 268.9949,130.1492 Q268.3101,131.2158 268.3101,133.3159 Q268.3101,135.4077 268.9949,136.4744 Q269.6797,137.541 271.0244,137.541 Q271.6553,137.541 272.2488,137.2712 Q272.8423,137.0015 273.4731,136.4204 Z " fill="#000000"/><text fill="#000000" font-family="sans-serif" font-size="14" lengthAdjust="spacing" textLength="56" x="285" y="138.291">PilaView</text><line style="stroke:#181818;stroke-width:0.5;" x1="257" x2="343" y1="149" y2="149"/><line style="stroke:#181818;stroke-width:0.5;" x1="257" x2="343" y1="157" y2="157"/></g><!--MD5=[960235927fb61f74e68df7a76c84005b]
class FoundationView--><g id="elem_FoundationView"><rect codeLine="11" fill="#F1F1F1" height="48" id="FoundationView" rx="2.5" ry="2.5" style="stroke:#181818;stroke-width:0.5;" width="143" x="362.5" y="117"/><ellipse cx="377.5" cy="133" fill="#ADD1B2" rx="11" ry="11" style="stroke:#181818;stroke-width:1.0;"/><path d="M379.9731,139.1431 Q379.3921,139.4419 378.7529,139.5913 Q378.1138,139.7407 377.4082,139.7407 Q374.9014,139.7407 373.5815,138.0889 Q372.2617,136.437 372.2617,133.3159 Q372.2617,130.1865 373.5815,128.5347 Q374.9014,126.8828 377.4082,126.8828 Q378.1138,126.8828 378.7612,127.0322 Q379.4087,127.1816 379.9731,127.4805 L379.9731,130.2031 Q379.3423,129.6221 378.7488,129.3523 Q378.1553,129.0825 377.5244,129.0825 Q376.1797,129.0825 375.4949,130.1492 Q374.8101,131.2158 374.8101,133.3159 Q374.8101,135.4077 375.4949,136.4744 Q376.1797,137.541 377.5244,137.541 Q378.1553,137.541 378.7488,137.2712 Q379.3423,137.0015 379.9731,136.4204 Z " fill="#000000"/><text fill="#000000" font-family="sans-serif" font-size="14" lengthAdjust="spacing" textLength="111" x="391.5" y="138.291">FoundationView</text><line style="stroke:#181818;stroke-width:0.5;" x1="363.5" x2="504.5" y1="149" y2="149"/><line style="stroke:#181818;stroke-width:0.5;" x1="363.5" x2="504.5" y1="157" y2="157"/></g><!--MD5=[2f72331edfc22a0f7db898a5844ea1e6]
class LoguinView--><g id="elem_LoguinView"><rect codeLine="12" fill="#F1F1F1" height="48" id="LoguinView" rx="2.5" ry="2.5" style="stroke:#181818;stroke-width:0.5;" width="111" x="323.5" y="33"/><ellipse cx="338.5" cy="49" fill="#ADD1B2" rx="11" ry="11" style="stroke:#181818;stroke-width:1.0;"/><path d="M340.9731,55.1431 Q340.3921,55.4419 339.7529,55.5913 Q339.1138,55.7407 338.4082,55.7407 Q335.9014,55.7407 334.5815,54.0889 Q333.2617,52.437 333.2617,49.3159 Q333.2617,46.1865 334.5815,44.5347 Q335.9014,42.8828 338.4082,42.8828 Q339.1138,42.8828 339.7612,43.0322 Q340.4087,43.1816 340.9731,43.4805 L340.9731,46.2031 Q340.3423,45.6221 339.7488,45.3523 Q339.1553,45.0825 338.5244,45.0825 Q337.1797,45.0825 336.4949,46.1492 Q335.8101,47.2158 335.8101,49.3159 Q335.8101,51.4077 336.4949,52.4744 Q337.1797,53.541 338.5244,53.541 Q339.1553,53.541 339.7488,53.2712 Q340.3423,53.0015 340.9731,52.4204 Z " fill="#000000"/><text fill="#000000" font-family="sans-serif" font-size="14" lengthAdjust="spacing" textLength="79" x="352.5" y="54.291">LoguinView</text><line style="stroke:#181818;stroke-width:0.5;" x1="324.5" x2="433.5" y1="65" y2="65"/><line style="stroke:#181818;stroke-width:0.5;" x1="324.5" x2="433.5" y1="73" y2="73"/></g><path d="M193.2246,81.0598 C168.9913,92.2865 139.9326,105.7488 115.7082,116.9714 " fill="none" style="stroke:#181818;stroke-width:1.0;"/><polygon fill="#181818" points="115.7082,116.9714,125.5558,116.8176,120.245,114.8696,122.193,109.5587,115.7082,116.9714" style="stroke:#181818;stroke-width:1.0;"/><path d="M227.1024,81.2786 C219.4711,92.453 210.3546,105.8021 202.7435,116.947 " fill="none" style="stroke:#181818;stroke-width:1.0;"/><polygon fill="#181818" points="202.7435,116.947,211.1223,111.7707,205.5633,112.818,204.5159,107.259,202.7435,116.947" style="stroke:#181818;stroke-width:1.0;"/><path d="M259.1814,81.2786 C266.949,92.453 276.2283,105.8021 283.9754,116.947 " fill="none" style="stroke:#181818;stroke-width:1.0;"/><polygon fill="#181818" points="283.9754,116.947,282.1229,107.274,281.1215,112.8415,275.554,111.8401,283.9754,116.947" style="stroke:#181818;stroke-width:1.0;"/><path d="M296.7124,81.0598 C322.8625,92.2865 354.2197,105.7488 380.3601,116.9714 " fill="none" style="stroke:#181818;stroke-width:1.0;"/><polygon fill="#181818" points="380.3601,116.9714,373.6681,109.7453,375.7656,114.9989,370.5121,117.0964,380.3601,116.9714" style="stroke:#181818;stroke-width:1.0;"/><path d="M305.1563,57 C311.2137,57 317.2712,57 323.3287,57 " fill="none" style="stroke:#181818;stroke-width:1.0;stroke-dasharray:7.0,7.0;"/><polygon fill="#181818" points="323.3287,57,314.3287,53,318.3287,57,314.3287,61,323.3287,57" style="stroke:#181818;stroke-width:1.0;"/><!--MD5=[8a1a15fdab538f2df3499899a72c2c66]
@startuml ArquitecturaMVC
!pragma layout smetana

top to bottom direction
' left to right direction

package Views {
    class KlondikeView
    class WasteView
    class StockView
    class PilaView
    class FoundationView
    class LoguinView

    KlondikeView O-down-> WasteView
    KlondikeView O-down-> StockView
    KlondikeView O-down-> PilaView
    KlondikeView O-down-> FoundationView

    KlondikeView .right.> LoguinView

}


@enduml 

@startuml ArquitecturaMVC
!pragma layout smetana

top to bottom direction

package Views {
    class KlondikeView
    class WasteView
    class StockView
    class PilaView
    class FoundationView
    class LoguinView

    KlondikeView O-down-> WasteView
    KlondikeView O-down-> StockView
    KlondikeView O-down-> PilaView
    KlondikeView O-down-> FoundationView

    KlondikeView .right.> LoguinView

}


@enduml 

PlantUML version 1.2022.5(Sat Apr 30 05:55:52 ECT 2022)
(GPL source distribution)
Java Runtime: OpenJDK Runtime Environment
JVM: OpenJDK 64-Bit Server VM
Default Encoding: UTF-8
Language: es
Country: EC
--></g></svg>