<?xml version="1.0" encoding="UTF-8" standalone="no"?><svg xmlns="http://www.w3.org/2000/svg" xmlns:xlink="http://www.w3.org/1999/xlink" contentScriptType="application/ecmascript" contentStyleType="text/css" height="629px" preserveAspectRatio="none" style="width:413px;height:629px;background:#FFFFFF;" version="1.1" viewBox="0 0 413 629" width="413px" zoomAndPan="magnify"><defs><filter height="300%" id="fitslph8gsw0e" width="300%" x="-1" y="-1"><feGaussianBlur result="blurOut" stdDeviation="2.0"/><feColorMatrix in="blurOut" result="blurOut2" type="matrix" values="0 0 0 0 0 0 0 0 0 0 0 0 0 0 0 0 0 0 .4 0"/><feOffset dx="4.0" dy="4.0" in="blurOut2" result="blurOut3"/><feBlend in="SourceGraphic" in2="blurOut3" mode="normal"/></filter></defs><g><text fill="#000000" font-family="sans-serif" font-size="18" lengthAdjust="spacing" textLength="327" x="36.75" y="17.4023">Klondike  - DealPile - Status Diagram</text><g id="State1"><rect fill="#FEFECE" filter="url(#fitslph8gsw0e)" height="50" rx="12.5" ry="12.5" style="stroke:#A80036;stroke-width:1.5;" width="63" x="192" y="105.1992"/><line style="stroke:#A80036;stroke-width:1.5;" x1="192" x2="255" y1="131.6875" y2="131.6875"/><text fill="#000000" font-family="sans-serif" font-size="14" lengthAdjust="spacing" textLength="43" x="202" y="123.7344">State1</text></g><g id="State2"><rect fill="#FEFECE" filter="url(#fitslph8gsw0e)" height="50" rx="12.5" ry="12.5" style="stroke:#A80036;stroke-width:1.5;" width="63" x="192" y="208.1992"/><line style="stroke:#A80036;stroke-width:1.5;" x1="192" x2="255" y1="234.6875" y2="234.6875"/><text fill="#000000" font-family="sans-serif" font-size="14" lengthAdjust="spacing" textLength="43" x="202" y="226.7344">State2</text></g><polygon fill="#FEFECE" filter="url(#fitslph8gsw0e)" points="148.5,311.1992,160.5,323.1992,148.5,335.1992,136.5,323.1992,148.5,311.1992" style="stroke:#A80036;stroke-width:1.5;"/><g id="State4"><rect fill="#FEFECE" filter="url(#fitslph8gsw0e)" height="50" rx="12.5" ry="12.5" style="stroke:#A80036;stroke-width:1.5;" width="63" x="7" y="388.1992"/><line style="stroke:#A80036;stroke-width:1.5;" x1="7" x2="70" y1="414.6875" y2="414.6875"/><text fill="#000000" font-family="sans-serif" font-size="14" lengthAdjust="spacing" textLength="43" x="17" y="406.7344">State4</text></g><g id="State6"><rect fill="#FEFECE" filter="url(#fitslph8gsw0e)" height="50" rx="12.5" ry="12.5" style="stroke:#A80036;stroke-width:1.5;" width="63" x="7" y="491.1992"/><line style="stroke:#A80036;stroke-width:1.5;" x1="7" x2="70" y1="517.6875" y2="517.6875"/><text fill="#000000" font-family="sans-serif" font-size="14" lengthAdjust="spacing" textLength="43" x="17" y="509.7344">State6</text></g><polygon fill="#FEFECE" filter="url(#fitslph8gsw0e)" points="151.5,594.1992,163.5,606.1992,151.5,618.1992,139.5,606.1992,151.5,594.1992" style="stroke:#A80036;stroke-width:1.5;"/><g id="State8"><rect fill="#FEFECE" filter="url(#fitslph8gsw0e)" height="50" rx="12.5" ry="12.5" style="stroke:#A80036;stroke-width:1.5;" width="63" x="117" y="388.1992"/><line style="stroke:#A80036;stroke-width:1.5;" x1="117" x2="180" y1="414.6875" y2="414.6875"/><text fill="#000000" font-family="sans-serif" font-size="14" lengthAdjust="spacing" textLength="43" x="127" y="406.7344">State8</text></g><ellipse cx="223.5" cy="38.1992" fill="#000000" filter="url(#fitslph8gsw0e)" rx="10" ry="10" style="stroke:none;stroke-width:1.0;"/><path d="M223.5,52.3445 C223.5,65.4792 223.5,87.6892 223.5,104.8652 " fill="none" style="stroke:#A80036;stroke-width:1.0;"/><polygon fill="#A80036" points="223.5,104.8652,227.5,95.8652,223.5,99.8652,219.5,95.8652,223.5,104.8652" style="stroke:#A80036;stroke-width:1.0;"/><text fill="#000000" font-family="sans-serif" font-size="13" lengthAdjust="spacing" textLength="80" x="224.5" y="83.7676">ShuffleCards</text><path d="M223.5,155.3912 C223.5,171.265 223.5,191.9501 223.5,207.8546 " fill="none" style="stroke:#A80036;stroke-width:1.0;"/><polygon fill="#A80036" points="223.5,207.8546,227.5,198.8546,223.5,202.8546,219.5,198.8546,223.5,207.8546" style="stroke:#A80036;stroke-width:1.0;"/><text fill="#000000" font-family="sans-serif" font-size="13" lengthAdjust="spacing" textLength="123" x="224.5" y="186.7676">DealCardToFirstPile</text><path d="M192.1458,258.2175 C185.9126,263.7528 179.6957,269.8823 174.5,276.1992 C165.6425,286.9682 158.1372,301.1658 153.5011,310.9241 " fill="none" style="stroke:#A80036;stroke-width:1.0;"/><polygon fill="#A80036" points="153.5011,310.9241,160.9762,304.5114,155.6467,306.4079,153.7503,301.0784,153.5011,310.9241" style="stroke:#A80036;stroke-width:1.0;"/><text fill="#000000" font-family="sans-serif" font-size="13" lengthAdjust="spacing" textLength="85" x="175.5" y="289.7676">[areSevenPile]</text><path d="M136.3966,324.6561 C117.0731,326.0411 79.2239,331.5412 57.5,353.1992 C48.2788,362.3924 43.5299,376.076 41.0855,387.9513 " fill="none" style="stroke:#A80036;stroke-width:1.0;"/><polygon fill="#A80036" points="41.0855,387.9513,46.8179,379.9426,42.0936,383.054,38.9821,378.3297,41.0855,387.9513" style="stroke:#A80036;stroke-width:1.0;"/><text fill="#000000" font-family="sans-serif" font-size="13" lengthAdjust="spacing" textLength="85" x="58.5" y="366.7676">MoveNextPile</text><path d="M38.5,438.3912 C38.5,454.265 38.5,474.9501 38.5,490.8546 " fill="none" style="stroke:#A80036;stroke-width:1.0;"/><polygon fill="#A80036" points="38.5,490.8546,42.5,481.8546,38.5,485.8546,34.5,481.8546,38.5,490.8546" style="stroke:#A80036;stroke-width:1.0;"/><text fill="#000000" font-family="sans-serif" font-size="13" lengthAdjust="spacing" textLength="79" x="39.5" y="469.7676">DealCardPile</text><path d="M25.2198,541.438 C20.8108,553.0269 18.7619,566.4604 26.5,576.1992 C40.5667,593.9031 110.9244,601.7649 139.454,604.2614 " fill="none" style="stroke:#A80036;stroke-width:1.0;"/><polygon fill="#A80036" points="139.454,604.2614,130.8369,599.4921,134.473,603.8255,130.1396,607.4616,139.454,604.2614" style="stroke:#A80036;stroke-width:1.0;"/><text fill="#000000" font-family="sans-serif" font-size="13" lengthAdjust="spacing" textLength="101" x="27.5" y="572.7676">[isPileComplete]</text><path d="M148.5524,594.0651 C145.3504,583.8573 139.3317,568.8971 129.5,559.1992 C113.1482,543.0699 89.4651,532.4074 70.3585,525.8624 " fill="none" style="stroke:#A80036;stroke-width:1.0;"/><polygon fill="#A80036" points="70.3585,525.8624,77.5766,532.5631,75.0887,527.4827,80.1691,524.9949,70.3585,525.8624" style="stroke:#A80036;stroke-width:1.0;"/><text fill="#000000" font-family="sans-serif" font-size="13" lengthAdjust="spacing" textLength="107" x="142.5" y="572.7676">DealAnotherCard</text><path d="M163.7016,605.2064 C184.9323,604.5555 228.8492,600.1745 254.5,576.1992 C274.8343,557.1931 275.5,545.0329 275.5,517.1992 C275.5,322.1992 275.5,322.1992 275.5,322.1992 C275.5,300.8289 272.0338,294.793 261.5,276.1992 C258.0102,270.0392 253.4775,264.0219 248.7647,258.5543 " fill="none" style="stroke:#A80036;stroke-width:1.0;"/><polygon fill="#A80036" points="248.7647,258.5543,251.6109,267.9829,252.0292,262.3416,257.6705,262.7598,248.7647,258.5543" style="stroke:#A80036;stroke-width:1.0;"/><text fill="#000000" font-family="sans-serif" font-size="13" lengthAdjust="spacing" textLength="129" x="276.5" y="418.2676">ContinueAnotherPile</text><path d="M148.5,335.3445 C148.5,348.4792 148.5,370.6892 148.5,387.8652 " fill="none" style="stroke:#A80036;stroke-width:1.0;"/><polygon fill="#A80036" points="148.5,387.8652,152.5,378.8652,148.5,382.8652,144.5,378.8652,148.5,387.8652" style="stroke:#A80036;stroke-width:1.0;"/><text fill="#000000" font-family="sans-serif" font-size="13" lengthAdjust="spacing" textLength="110" x="149.5" y="366.7676">TurnUpFirstCards</text><!--MD5=[2d11eb9939879aeda41f7d1ebbcd6821]
@startuml CUDealPile
!pragma layout smetana
title Klondike  - DealPile - Status Diagram

state State1
state State2
state State3  <<choice>>
state State4
state State6
state State5 <<choice>>
state State8

[*] - -> State1: ShuffleCards
State1 - -> State2: DealCardToFirstPile
State2 - -> State3: [areSevenPile]
State3 - -> State4: MoveNextPile
State4 - -> State6: DealCardPile
State6 - -> State5: [isPileComplete]
State5 - -> State6: DealAnotherCard
State5 - -> State2: ContinueAnotherPile
State3 - -> State8: TurnUpFirstCards

@enduml

PlantUML version 1.2022.0(Tue Jan 11 11:16:42 ECT 2022)
(GPL source distribution)
Java Runtime: OpenJDK Runtime Environment
JVM: OpenJDK 64-Bit Server VM
Default Encoding: UTF-8
Language: es
Country: EC
--></g></svg>