<?xml version="1.0" encoding="UTF-8" standalone="no"?><svg xmlns="http://www.w3.org/2000/svg" xmlns:xlink="http://www.w3.org/1999/xlink" contentStyleType="text/css" height="553px" preserveAspectRatio="none" style="width:338px;height:553px;background:#FFFFFF;" version="1.1" viewBox="0 0 338 553" width="338px" zoomAndPan="magnify"><defs/><g><rect height="26.4883" style="stroke:#00000000;stroke-width:1.0;fill:none;" width="320" x="5" y="5"/><text fill="#000000" font-family="sans-serif" font-size="14" font-weight="bold" lengthAdjust="spacing" textLength="310" x="10" y="23.5352">Klondike  - Restart - Case of Use Diagram</text><g id="RESTART"><rect fill="#F1F1F1" height="50" rx="12.5" ry="12.5" style="stroke:#181818;stroke-width:0.5;" width="82" x="52.25" y="115.4883"/><line style="stroke:#181818;stroke-width:0.5;" x1="52.25" x2="134.25" y1="141.9766" y2="141.9766"/><text fill="#000000" font-family="sans-serif" font-size="14" lengthAdjust="spacing" textLength="62" x="62.25" y="134.0234">RESTART</text></g><g id="SHUFFLE"><rect fill="#F1F1F1" height="50" rx="12.5" ry="12.5" style="stroke:#181818;stroke-width:0.5;" width="79" x="53.75" y="218.4883"/><line style="stroke:#181818;stroke-width:0.5;" x1="53.75" x2="132.75" y1="244.9766" y2="244.9766"/><text fill="#000000" font-family="sans-serif" font-size="14" lengthAdjust="spacing" textLength="59" x="63.75" y="237.0234">SHUFFLE</text></g><g id="CARD_TO__STOCK"><rect fill="#F1F1F1" height="50" rx="12.5" ry="12.5" style="stroke:#181818;stroke-width:0.5;" width="147" x="19.75" y="424.4883"/><line style="stroke:#181818;stroke-width:0.5;" x1="19.75" x2="166.75" y1="450.9766" y2="450.9766"/><text fill="#000000" font-family="sans-serif" font-size="14" lengthAdjust="spacing" textLength="127" x="29.75" y="443.0234">CARD_TO__STOCK</text></g><g id="DEAL"><rect fill="#F1F1F1" height="50" rx="12.5" ry="12.5" style="stroke:#181818;stroke-width:0.5;" width="55" x="65.75" y="321.4883"/><line style="stroke:#181818;stroke-width:0.5;" x1="65.75" x2="120.75" y1="347.9766" y2="347.9766"/><text fill="#000000" font-family="sans-serif" font-size="14" lengthAdjust="spacing" textLength="35" x="75.75" y="340.0234">DEAL</text></g><ellipse cx="93.25" cy="48.4883" fill="#222222" rx="10" ry="10" style="stroke:none;stroke-width:1.0;"/><ellipse cx="93.25" cy="537.4883" fill="none" rx="10" ry="10" style="stroke:#222222;stroke-width:1.0;"/><ellipse cx="93.75" cy="537.9883" fill="#222222" rx="6" ry="6" style="stroke:none;stroke-width:1.0;"/><path d="M93.25,62.6335 C93.25,75.7683 93.25,97.9782 93.25,115.1543 " fill="none" style="stroke:#181818;stroke-width:1.0;"/><polygon fill="#181818" points="93.25,115.1543,97.25,106.1543,93.25,110.1543,89.25,106.1543,93.25,115.1543" style="stroke:#181818;stroke-width:1.0;"/><text fill="#000000" font-family="sans-serif" font-size="13" lengthAdjust="spacing" textLength="127" x="94.25" y="94.0566">User request Restart</text><path d="M93.25,165.6803 C93.25,181.554 93.25,202.2392 93.25,218.1436 " fill="none" style="stroke:#181818;stroke-width:1.0;"/><polygon fill="#181818" points="93.25,218.1436,97.25,209.1436,93.25,213.1436,89.25,209.1436,93.25,218.1436" style="stroke:#181818;stroke-width:1.0;"/><text fill="#000000" font-family="sans-serif" font-size="13" lengthAdjust="spacing" textLength="131" x="94.25" y="197.0566">System shuffle cards</text><path d="M93.25,268.6803 C93.25,284.554 93.25,305.2392 93.25,321.1436 " fill="none" style="stroke:#181818;stroke-width:1.0;"/><polygon fill="#181818" points="93.25,321.1436,97.25,312.1436,93.25,316.1436,89.25,312.1436,93.25,321.1436" style="stroke:#181818;stroke-width:1.0;"/><text fill="#000000" font-family="sans-serif" font-size="13" lengthAdjust="spacing" textLength="113" x="94.25" y="300.0566">System deal cards</text><path d="M93.25,371.6803 C93.25,387.554 93.25,408.2392 93.25,424.1436 " fill="none" style="stroke:#181818;stroke-width:1.0;"/><polygon fill="#181818" points="93.25,424.1436,97.25,415.1436,93.25,419.1436,89.25,415.1436,93.25,424.1436" style="stroke:#181818;stroke-width:1.0;"/><text fill="#000000" font-family="sans-serif" font-size="13" lengthAdjust="spacing" textLength="229" x="94.25" y="403.0566">System move leftover cards to stock</text><path d="M93.25,474.5347 C93.25,491.6334 93.25,513.8326 93.25,527.074 " fill="none" style="stroke:#181818;stroke-width:1.0;"/><polygon fill="#181818" points="93.25,527.074,97.25,518.074,93.25,522.074,89.25,518.074,93.25,527.074" style="stroke:#181818;stroke-width:1.0;"/><text fill="#000000" font-family="sans-serif" font-size="13" lengthAdjust="spacing" textLength="158" x="94.25" y="506.0566">User sees restarted game</text><!--MD5=[ab354d7055d42d96461abc84b6553bcf]
@startuml DetailActivityDiagram
title Klondike  - Restart - Case of Use Diagram 
!pragma layout smetana

state RESTART
state SHUFFLE
state CARD_TO__STOCK
state DEAL

[*] - -> RESTART : User request Restart
RESTART - -> SHUFFLE: System shuffle cards
SHUFFLE - -> DEAL: System deal cards
DEAL- -> CARD_TO__STOCK: System move leftover cards to stock
CARD_TO__STOCK  - ->[*]: User sees restarted game
@enduml

PlantUML version 1.2022.5(Sat Apr 30 05:55:52 ECT 2022)
(GPL source distribution)
Java Runtime: OpenJDK Runtime Environment
JVM: OpenJDK 64-Bit Server VM
Default Encoding: UTF-8
Language: es
Country: EC
--></g></svg>