<?xml version="1.0" encoding="UTF-8" standalone="no"?><svg xmlns="http://www.w3.org/2000/svg" xmlns:xlink="http://www.w3.org/1999/xlink" contentStyleType="text/css" height="495px" preserveAspectRatio="none" style="width:427px;height:495px;background:#FFFFFF;" version="1.1" viewBox="0 0 427 495" width="427px" zoomAndPan="magnify"><defs/><g><rect height="26.4883" style="stroke:#00000000;stroke-width:1.0;fill:none;" width="409" x="5" y="5"/><text fill="#000000" font-family="sans-serif" font-size="14" font-weight="bold" lengthAdjust="spacing" textLength="399" x="10" y="23.5352">Klondike - FoundationtoPileMove  - Use Case Diagram</text><g id="IN_GAME"><rect fill="#F1F1F1" height="50" rx="12.5" ry="12.5" style="stroke:#181818;stroke-width:0.5;" width="81" x="115" y="99.4883"/><line style="stroke:#181818;stroke-width:0.5;" x1="115" x2="196" y1="125.9766" y2="125.9766"/><text fill="#000000" font-family="sans-serif" font-size="14" lengthAdjust="spacing" textLength="61" x="125" y="118.0234">IN_GAME</text></g><g id="CARD_IN_FOUNDATION"><rect fill="#F1F1F1" height="50" rx="12.5" ry="12.5" style="stroke:#181818;stroke-width:0.5;" width="180" x="65.5" y="202.4883"/><line style="stroke:#181818;stroke-width:0.5;" x1="65.5" x2="245.5" y1="228.9766" y2="228.9766"/><text fill="#000000" font-family="sans-serif" font-size="14" lengthAdjust="spacing" textLength="160" x="75.5" y="221.0234">CARD_IN_FOUNDATION</text></g><g id="elem_if"><polygon fill="#F1F1F1" points="155.5,305.4883,167.5,317.4883,155.5,329.4883,143.5,317.4883,155.5,305.4883" style="stroke:#181818;stroke-width:0.5;"/></g><g id="CARD_IN_PILE"><rect fill="#F1F1F1" height="50" rx="12.5" ry="12.5" style="stroke:#181818;stroke-width:0.5;" width="114" x="52.5" y="382.4883"/><line style="stroke:#181818;stroke-width:0.5;" x1="52.5" x2="166.5" y1="408.9766" y2="408.9766"/><text fill="#000000" font-family="sans-serif" font-size="14" lengthAdjust="spacing" textLength="94" x="62.5" y="401.0234">CARD_IN_PILE</text></g><ellipse cx="155.5" cy="48.4883" fill="#222222" rx="10" ry="10" style="stroke:none;stroke-width:1.0;"/><ellipse cx="197.5" cy="479.4883" fill="none" rx="10" ry="10" style="stroke:#222222;stroke-width:1.0;"/><ellipse cx="198" cy="479.9883" fill="#222222" rx="6" ry="6" style="stroke:none;stroke-width:1.0;"/><path d="M155.5,62.7383 C155.5,72.4678 155.5,86.872 155.5,99.2127 " fill="none" style="stroke:#181818;stroke-width:1.0;"/><polygon fill="#181818" points="155.5,99.2127,159.5,90.2127,155.5,94.2127,151.5,90.2127,155.5,99.2127" style="stroke:#181818;stroke-width:1.0;"/><path d="M155.5,149.6803 C155.5,165.554 155.5,186.2392 155.5,202.1436 " fill="none" style="stroke:#181818;stroke-width:1.0;"/><polygon fill="#181818" points="155.5,202.1436,159.5,193.1436,155.5,197.1436,151.5,193.1436,155.5,202.1436" style="stroke:#181818;stroke-width:1.0;"/><text fill="#000000" font-family="sans-serif" font-size="13" lengthAdjust="spacing" textLength="208" x="156.5" y="181.0566">Player take card from Foundation</text><path d="M155.5,252.5347 C155.5,269.6334 155.5,291.8326 155.5,305.074 " fill="none" style="stroke:#181818;stroke-width:1.0;"/><polygon fill="#181818" points="155.5,305.074,159.5,296.074,155.5,300.074,151.5,296.074,155.5,305.074" style="stroke:#181818;stroke-width:1.0;"/><text fill="#000000" font-family="sans-serif" font-size="13" lengthAdjust="spacing" textLength="223" x="156.5" y="284.0566">[&lt; CardNumber AND DiferentColor]</text><path d="M143.4775,318.9447 C125.5998,320.3486 92.5074,325.8975 77.5,347.4883 C69.9181,358.3961 75.4346,371.289 83.8871,382.236 " fill="none" style="stroke:#181818;stroke-width:1.0;"/><polygon fill="#181818" points="83.8871,382.236,81.5528,372.6678,80.8314,378.2785,75.2207,377.5571,83.8871,382.236" style="stroke:#181818;stroke-width:1.0;"/><text fill="#000000" font-family="sans-serif" font-size="13" lengthAdjust="spacing" textLength="142" x="78.5" y="361.0566">FoundationToPileMove</text><path d="M167.5449,319.8527 C183.0811,322.3309 209.5263,329.1485 221.5,347.4883 C247.0256,386.5851 218.3646,445.2656 204.336,469.4585 " fill="none" style="stroke:#181818;stroke-width:1.0;"/><polygon fill="#181818" points="204.336,469.4585,212.311,463.6793,206.8441,465.1331,205.3903,459.6663,204.336,469.4585" style="stroke:#181818;stroke-width:1.0;"/><text fill="#000000" font-family="sans-serif" font-size="13" lengthAdjust="spacing" textLength="135" x="232.5" y="412.5566">TryAnotherMovement</text><path d="M139.2928,432.8642 C155.8471,446.4086 175.407,462.4122 187.114,471.9906 " fill="none" style="stroke:#181818;stroke-width:1.0;"/><polygon fill="#181818" points="187.114,471.9906,182.6813,463.1957,183.2442,468.8244,177.6154,469.3873,187.114,471.9906" style="stroke:#181818;stroke-width:1.0;"/><!--MD5=[c16375bbd07fe1d7ea166eb177e98935]
@startuml UCFoundationtoPileMove
!pragma layout smetana
title Klondike - FoundationtoPileMove  - Use Case Diagram

state IN_GAME
state CARD_IN_FOUNDATION
state if <<choice>>
state CARD_IN_PILE

[*] - -> IN_GAME
IN_GAME - -> CARD_IN_FOUNDATION: Player take card from Foundation
CARD_IN_FOUNDATION - -> if: [< CardNumber AND DiferentColor]
if - -> CARD_IN_PILE: FoundationToPileMove
if - -> [*]: TryAnotherMovement
CARD_IN_PILE- -> [*]

@enduml

PlantUML version 1.2022.5(Sat Apr 30 05:55:52 ECT 2022)
(GPL source distribution)
Java Runtime: OpenJDK Runtime Environment
JVM: OpenJDK 64-Bit Server VM
Default Encoding: UTF-8
Language: es
Country: EC
--></g></svg>