<?xml version="1.0" encoding="UTF-8" standalone="no"?><svg xmlns="http://www.w3.org/2000/svg" xmlns:xlink="http://www.w3.org/1999/xlink" contentStyleType="text/css" height="495px" preserveAspectRatio="none" style="width:427px;height:495px;background:#FFFFFF;" version="1.1" viewBox="0 0 427 495" width="427px" zoomAndPan="magnify"><defs/><g><rect height="26.4883" style="stroke:#00000000;stroke-width:1.0;fill:none;" width="409" x="5" y="5"/><text fill="#000000" font-family="sans-serif" font-size="14" font-weight="bold" lengthAdjust="spacing" textLength="399" x="10" y="23.5352">Klondike - FoundationtoPileMove  - Use Case Diagram</text><g id="IN_GAME"><rect fill="#F1F1F1" height="50" rx="12.5" ry="12.5" style="stroke:#181818;stroke-width:0.5;" width="81" x="123.5852" y="99.4883"/><line style="stroke:#181818;stroke-width:0.5;" x1="123.5852" x2="204.5852" y1="125.9766" y2="125.9766"/><text fill="#000000" font-family="sans-serif" font-size="14" lengthAdjust="spacing" textLength="61" x="133.5852" y="118.0234">IN_GAME</text></g><g id="CARD_IN_FOUNDATION"><rect fill="#F1F1F1" height="50" rx="12.5" ry="12.5" style="stroke:#181818;stroke-width:0.5;" width="180" x="74.0852" y="202.4883"/><line style="stroke:#181818;stroke-width:0.5;" x1="74.0852" x2="254.0852" y1="228.9766" y2="228.9766"/><text fill="#000000" font-family="sans-serif" font-size="14" lengthAdjust="spacing" textLength="160" x="84.0852" y="221.0234">CARD_IN_FOUNDATION</text></g><g id="elem_if"><polygon fill="#F1F1F1" points="164.0852,305.4883,176.0852,317.4883,164.0852,329.4883,152.0852,317.4883,164.0852,305.4883" style="stroke:#181818;stroke-width:0.5;"/></g><g id="CARD_IN_PILE"><rect fill="#F1F1F1" height="50" rx="12.5" ry="12.5" style="stroke:#181818;stroke-width:0.5;" width="114" x="107.0852" y="382.4883"/><line style="stroke:#181818;stroke-width:0.5;" x1="107.0852" x2="221.0852" y1="408.9766" y2="408.9766"/><text fill="#000000" font-family="sans-serif" font-size="14" lengthAdjust="spacing" textLength="94" x="117.0852" y="401.0234">CARD_IN_PILE</text></g><ellipse cx="164.0852" cy="48.4883" fill="#222222" rx="10" ry="10" style="stroke:none;stroke-width:1.0;"/><ellipse cx="164.0852" cy="479.4883" fill="none" rx="10" ry="10" style="stroke:#222222;stroke-width:1.0;"/><ellipse cx="164.5852" cy="479.9883" fill="#222222" rx="6" ry="6" style="stroke:none;stroke-width:1.0;"/><path d="M164.0852,62.7383 C164.0852,72.4678 164.0852,86.872 164.0852,99.2127 " fill="none" style="stroke:#181818;stroke-width:1.0;"/><polygon fill="#181818" points="164.0852,99.2127,168.0852,90.2127,164.0852,94.2127,160.0852,90.2127,164.0852,99.2127" style="stroke:#181818;stroke-width:1.0;"/><path d="M164.0852,149.6803 C164.0852,165.554 164.0852,186.2392 164.0852,202.1436 " fill="none" style="stroke:#181818;stroke-width:1.0;"/><polygon fill="#181818" points="164.0852,202.1436,168.0852,193.1436,164.0852,197.1436,160.0852,193.1436,164.0852,202.1436" style="stroke:#181818;stroke-width:1.0;"/><text fill="#000000" font-family="sans-serif" font-size="13" lengthAdjust="spacing" textLength="208" x="165.0852" y="181.0566">Player take card from Foundation</text><path d="M73.9195,244.2386 C45.3505,253.2963 24.9148,267.062 41.0852,287.4883 C54.8392,304.8622 123.4699,312.8739 151.8115,315.4807 " fill="none" style="stroke:#181818;stroke-width:1.0;"/><polygon fill="#181818" points="151.8115,315.4807,143.2157,310.6732,146.8325,315.0228,142.4829,318.6396,151.8115,315.4807" style="stroke:#181818;stroke-width:1.0;"/><text fill="#000000" font-family="sans-serif" font-size="13" lengthAdjust="spacing" textLength="223" x="42.0852" y="284.0566">[&lt; CardNumber AND DiferentColor]</text><path d="M164.0852,329.6335 C164.0852,342.7683 164.0852,364.9782 164.0852,382.1543 " fill="none" style="stroke:#181818;stroke-width:1.0;"/><polygon fill="#181818" points="164.0852,382.1543,168.0852,373.1543,164.0852,377.1543,160.0852,373.1543,164.0852,382.1543" style="stroke:#181818;stroke-width:1.0;"/><text fill="#000000" font-family="sans-serif" font-size="13" lengthAdjust="spacing" textLength="142" x="165.0852" y="361.0566">FoundationToPileMove</text><path d="M176.3743,317.2557 C198.544,317.88 244.8918,315.5472 266.0852,287.4883 C277.0588,272.9598 268.0741,261.4021 251.6821,252.5056 " fill="none" style="stroke:#181818;stroke-width:1.0;"/><polygon fill="#181818" points="251.6821,252.5056,257.6841,260.3142,256.0766,254.8906,261.5002,253.2831,251.6821,252.5056" style="stroke:#181818;stroke-width:1.0;"/><text fill="#000000" font-family="sans-serif" font-size="13" lengthAdjust="spacing" textLength="135" x="271.0852" y="284.0566">TryAnotherMovement</text><path d="M164.0852,432.8642 C164.0852,445.2663 164.0852,459.7303 164.0852,469.4354 " fill="none" style="stroke:#181818;stroke-width:1.0;"/><polygon fill="#181818" points="164.0852,469.4354,168.0852,460.4354,164.0852,464.4354,160.0852,460.4354,164.0852,469.4354" style="stroke:#181818;stroke-width:1.0;"/><!--MD5=[cbaf1cce376f6a26e8b4b93ce5850bee]
@startuml UCFoundationtoPileMove
!pragma layout smetana
title Klondike - FoundationtoPileMove  - Use Case Diagram

state IN_GAME
state CARD_IN_FOUNDATION
state if <<choice>>
state CARD_IN_PILE

[*] - -> IN_GAME
IN_GAME - -> CARD_IN_FOUNDATION: Player take card from Foundation
CARD_IN_FOUNDATION - -> if: [< CardNumber AND DiferentColor]
if - -> CARD_IN_PILE: FoundationToPileMove
if - -> CARD_IN_FOUNDATION: TryAnotherMovement
CARD_IN_PILE- -> [*]

@enduml

PlantUML version 1.2022.5(Sat Apr 30 05:55:52 ECT 2022)
(GPL source distribution)
Java Runtime: OpenJDK Runtime Environment
JVM: OpenJDK 64-Bit Server VM
Default Encoding: UTF-8
Language: es
Country: EC
--></g></svg>