<?xml version="1.0" encoding="UTF-8" standalone="no"?><svg xmlns="http://www.w3.org/2000/svg" xmlns:xlink="http://www.w3.org/1999/xlink" contentScriptType="application/ecmascript" contentStyleType="text/css" height="388px" preserveAspectRatio="none" style="width:508px;height:388px;background:#FFFFFF;" version="1.1" viewBox="0 0 508 388" width="508px" zoomAndPan="magnify"><defs><filter height="300%" id="f1inctedbyrr2i" width="300%" x="-1" y="-1"><feGaussianBlur result="blurOut" stdDeviation="2.0"/><feColorMatrix in="blurOut" result="blurOut2" type="matrix" values="0 0 0 0 0 0 0 0 0 0 0 0 0 0 0 0 0 0 .4 0"/><feOffset dx="4.0" dy="4.0" in="blurOut2" result="blurOut3"/><feBlend in="SourceGraphic" in2="blurOut3" mode="normal"/></filter></defs><g><text fill="#000000" font-family="sans-serif" font-size="18" lengthAdjust="spacing" textLength="499" x="2" y="17.4023">Klondike  - Case of Use Diagram - FoundationtoPileMove</text><g id="IN_GAME"><rect fill="#FEFECE" filter="url(#f1inctedbyrr2i)" height="50" rx="12.5" ry="12.5" style="stroke:#A80036;stroke-width:1.5;" width="81" x="218" y="89.1992"/><line style="stroke:#A80036;stroke-width:1.5;" x1="218" x2="299" y1="115.6875" y2="115.6875"/><text fill="#000000" font-family="sans-serif" font-size="14" lengthAdjust="spacing" textLength="61" x="228" y="107.7344">IN_GAME</text></g><polygon fill="#FEFECE" filter="url(#f1inctedbyrr2i)" points="258.5,192.1992,270.5,204.1992,258.5,216.1992,246.5,204.1992,258.5,192.1992" style="stroke:#A80036;stroke-width:1.5;"/><g id="CardsInStock"><rect fill="#FEFECE" filter="url(#f1inctedbyrr2i)" height="50" rx="12.5" ry="12.5" style="stroke:#A80036;stroke-width:1.5;" width="110" x="162.5" y="269.1992"/><line style="stroke:#A80036;stroke-width:1.5;" x1="162.5" x2="272.5" y1="295.6875" y2="295.6875"/><text fill="#000000" font-family="sans-serif" font-size="14" lengthAdjust="spacing" textLength="90" x="172.5" y="287.7344">CardsInStock</text></g><ellipse cx="258.5" cy="38.1992" fill="#000000" filter="url(#f1inctedbyrr2i)" rx="10" ry="10" style="stroke:none;stroke-width:1.0;"/><ellipse cx="293.5" cy="366.1992" filter="url(#f1inctedbyrr2i)" rx="10" ry="10" style="stroke:#000000;stroke-width:1.0;fill:none;"/><ellipse cx="294" cy="366.6992" fill="#000000" rx="6" ry="6" style="stroke:none;stroke-width:1.0;"/><path d="M258.5,52.4492 C258.5,62.1787 258.5,76.5829 258.5,88.9237 " fill="none" style="stroke:#A80036;stroke-width:1.0;"/><polygon fill="#A80036" points="258.5,88.9237,262.5,79.9237,258.5,83.9237,254.5,79.9237,258.5,88.9237" style="stroke:#A80036;stroke-width:1.0;"/><path d="M258.5,139.2456 C258.5,156.3443 258.5,178.5435 258.5,191.785 " fill="none" style="stroke:#A80036;stroke-width:1.0;"/><polygon fill="#A80036" points="258.5,191.785,262.5,182.785,258.5,186.785,254.5,182.785,258.5,191.785" style="stroke:#A80036;stroke-width:1.0;"/><text fill="#000000" font-family="sans-serif" font-size="13" lengthAdjust="spacing" textLength="93" x="259.5" y="170.7676">[StockIsEmpty]</text><path d="M246.2792,206.5037 C230.5149,208.9155 203.6771,215.6598 191.5,234.1992 C184.4331,244.9585 188.9621,257.9573 196.0949,269.0123 " fill="none" style="stroke:#A80036;stroke-width:1.0;"/><polygon fill="#A80036" points="196.0949,269.0123,194.5766,259.2812,193.3841,264.8109,187.8544,263.6184,196.0949,269.0123" style="stroke:#A80036;stroke-width:1.0;"/><text fill="#000000" font-family="sans-serif" font-size="13" lengthAdjust="spacing" textLength="120" x="192.5" y="247.7676">MoveCardsToStock</text><path d="M270.6818,207.7426 C283.8662,211.217 304.2444,218.8556 313.5,234.1992 C337.3803,273.7871 312.3566,331.6988 299.792,355.908 " fill="none" style="stroke:#A80036;stroke-width:1.0;"/><polygon fill="#A80036" points="299.792,355.908,307.4882,349.7624,302.0953,351.4701,300.3876,346.0772,299.792,355.908" style="stroke:#A80036;stroke-width:1.0;"/><path d="M243.2301,319.5751 C257.0103,332.63 273.2019,347.9694 283.4078,357.6382 " fill="none" style="stroke:#A80036;stroke-width:1.0;"/><polygon fill="#A80036" points="283.4078,357.6382,279.6252,348.5447,279.778,354.1995,274.1232,354.3523,283.4078,357.6382" style="stroke:#A80036;stroke-width:1.0;"/><!--MD5=[d8f268891a16c0d62da0833e4778a050]
@startuml UseCaseFoundationtoPileMove
!pragma layout smetana
title Klondike  - Case of Use Diagram - FoundationtoPileMove
state IN_GAME

state if <<choice>>


state CardsInStock

[*] - -> IN_GAME
IN_GAME - -> if: [StockIsEmpty]
if - -> CardsInStock: MoveCardsToStock

if - -> [*]

CardsInStock- -> [*]

@enduml

PlantUML version 1.2022.0(Tue Jan 11 11:16:42 ECT 2022)
(GPL source distribution)
Java Runtime: OpenJDK Runtime Environment
JVM: OpenJDK 64-Bit Server VM
Default Encoding: UTF-8
Language: es
Country: EC
--></g></svg>