<?xml version="1.0" encoding="UTF-8" standalone="no"?><svg xmlns="http://www.w3.org/2000/svg" xmlns:xlink="http://www.w3.org/1999/xlink" contentStyleType="text/css" height="510px" preserveAspectRatio="none" style="width:431px;height:510px;background:#FFFFFF;" version="1.1" viewBox="0 0 431 510" width="431px" zoomAndPan="magnify"><defs/><g><rect height="26.4883" style="stroke:#00000000;stroke-width:1.0;fill:none;" width="413" x="5" y="5"/><text fill="#000000" font-family="sans-serif" font-size="14" font-weight="bold" lengthAdjust="spacing" textLength="403" x="10" y="23.5352">Klondike - PileToFoundationMove  - Use Case Diagram</text><g id="IN_GAME"><rect fill="#F1F1F1" height="50" rx="12.5" ry="12.5" style="stroke:#181818;stroke-width:0.5;" width="81" x="120.8647" y="99.4883"/><line style="stroke:#181818;stroke-width:0.5;" x1="120.8647" x2="201.8647" y1="125.9766" y2="125.9766"/><text fill="#000000" font-family="sans-serif" font-size="14" lengthAdjust="spacing" textLength="61" x="130.8647" y="118.0234">IN_GAME</text></g><g id="CARD_IN_PILE"><rect fill="#F1F1F1" height="50" rx="12.5" ry="12.5" style="stroke:#181818;stroke-width:0.5;" width="114" x="104.3647" y="202.4883"/><line style="stroke:#181818;stroke-width:0.5;" x1="104.3647" x2="218.3647" y1="228.9766" y2="228.9766"/><text fill="#000000" font-family="sans-serif" font-size="14" lengthAdjust="spacing" textLength="94" x="114.3647" y="221.0234">CARD_IN_PILE</text></g><g id="elem_if"><polygon fill="#F1F1F1" points="161.3647,320.4883,173.3647,332.4883,161.3647,344.4883,149.3647,332.4883,161.3647,320.4883" style="stroke:#181818;stroke-width:0.5;"/></g><g id="CARD_IN_FOUNDATION"><rect fill="#F1F1F1" height="50" rx="12.5" ry="12.5" style="stroke:#181818;stroke-width:0.5;" width="180" x="71.3647" y="397.4883"/><line style="stroke:#181818;stroke-width:0.5;" x1="71.3647" x2="251.3647" y1="423.9766" y2="423.9766"/><text fill="#000000" font-family="sans-serif" font-size="14" lengthAdjust="spacing" textLength="160" x="81.3647" y="416.0234">CARD_IN_FOUNDATION</text></g><ellipse cx="161.3647" cy="48.4883" fill="#222222" rx="10" ry="10" style="stroke:none;stroke-width:1.0;"/><ellipse cx="161.3647" cy="494.4883" fill="none" rx="10" ry="10" style="stroke:#222222;stroke-width:1.0;"/><ellipse cx="161.8647" cy="494.9883" fill="#222222" rx="6" ry="6" style="stroke:none;stroke-width:1.0;"/><path d="M161.3647,62.7383 C161.3647,72.4678 161.3647,86.872 161.3647,99.2127 " fill="none" style="stroke:#181818;stroke-width:1.0;"/><polygon fill="#181818" points="161.3647,99.2127,165.3647,90.2127,161.3647,94.2127,157.3647,90.2127,161.3647,99.2127" style="stroke:#181818;stroke-width:1.0;"/><path d="M161.3647,149.6803 C161.3647,165.554 161.3647,186.2392 161.3647,202.1436 " fill="none" style="stroke:#181818;stroke-width:1.0;"/><polygon fill="#181818" points="161.3647,202.1436,165.3647,193.1436,161.3647,197.1436,157.3647,193.1436,161.3647,202.1436" style="stroke:#181818;stroke-width:1.0;"/><text fill="#000000" font-family="sans-serif" font-size="13" lengthAdjust="spacing" textLength="208" x="162.3647" y="181.0566">Player take card from Foundation</text><path d="M104.1782,235.6344 C82.7192,241.4081 60.3939,251.8028 47.3647,270.4883 C39.23,282.1544 38.6353,291.2602 47.3647,302.4883 C59.8994,318.6109 122.4287,327.2421 149.1855,330.2468 " fill="none" style="stroke:#181818;stroke-width:1.0;"/><polygon fill="#181818" points="149.1855,330.2468,140.6881,325.2674,144.2167,329.6888,139.7953,333.2175,149.1855,330.2468" style="stroke:#181818;stroke-width:1.0;"/><text fill="#000000" font-family="sans-serif" font-size="13" lengthAdjust="spacing" textLength="201" x="48.3647" y="284.0566">[&gt; CardNumber AND SameColor</text><text fill="#000000" font-family="sans-serif" font-size="13" lengthAdjust="spacing" textLength="125" x="90.3647" y="299.3672">OR CardNumer is A]</text><path d="M161.3647,344.6335 C161.3647,357.7683 161.3647,379.9782 161.3647,397.1543 " fill="none" style="stroke:#181818;stroke-width:1.0;"/><polygon fill="#181818" points="161.3647,397.1543,165.3647,388.1543,161.3647,392.1543,157.3647,388.1543,161.3647,397.1543" style="stroke:#181818;stroke-width:1.0;"/><text fill="#000000" font-family="sans-serif" font-size="13" lengthAdjust="spacing" textLength="142" x="162.3647" y="376.0566">PileToFoundationMove</text><path d="M173.5759,331.8581 C194.1996,331.7344 235.5231,328.1 254.3647,302.4883 C262.7925,291.0321 262.0789,282.4366 254.3647,270.4883 C246.0046,257.5397 232.5858,248.5413 218.5123,242.3038 " fill="none" style="stroke:#181818;stroke-width:1.0;"/><polygon fill="#181818" points="218.5123,242.3038,225.1196,249.6075,223.0834,244.3298,228.3611,242.2936,218.5123,242.3038" style="stroke:#181818;stroke-width:1.0;"/><text fill="#000000" font-family="sans-serif" font-size="13" lengthAdjust="spacing" textLength="135" x="261.3647" y="291.5566">TryAnotherMovement</text><path d="M161.3647,447.8642 C161.3647,460.2663 161.3647,474.7303 161.3647,484.4354 " fill="none" style="stroke:#181818;stroke-width:1.0;"/><polygon fill="#181818" points="161.3647,484.4354,165.3647,475.4354,161.3647,479.4354,157.3647,475.4354,161.3647,484.4354" style="stroke:#181818;stroke-width:1.0;"/><!--MD5=[56ffbde09333eec82550275f3464a11d]
@startuml UCPileToPileMove
!pragma layout smetana
title Klondike - PileToFoundationMove  - Use Case Diagram

state IN_GAME
state CARD_IN_PILE
state if <<choice>>
state CARD_IN_FOUNDATION

[*] - -> IN_GAME
IN_GAME - -> CARD_IN_PILE: Player take card from Foundation
CARD_IN_PILE - -> if: [> CardNumber AND SameColor \n OR CardNumer is A]
if - -> CARD_IN_FOUNDATION: PileToFoundationMove
if - -> CARD_IN_PILE: TryAnotherMovement
CARD_IN_FOUNDATION- -> [*]

@enduml

PlantUML version 1.2022.5(Sat Apr 30 05:55:52 ECT 2022)
(GPL source distribution)
Java Runtime: OpenJDK Runtime Environment
JVM: OpenJDK 64-Bit Server VM
Default Encoding: UTF-8
Language: es
Country: EC
--></g></svg>