<?xml version="1.0" encoding="UTF-8" standalone="no"?><svg xmlns="http://www.w3.org/2000/svg" xmlns:xlink="http://www.w3.org/1999/xlink" contentStyleType="text/css" height="510px" preserveAspectRatio="none" style="width:431px;height:510px;background:#FFFFFF;" version="1.1" viewBox="0 0 431 510" width="431px" zoomAndPan="magnify"><defs/><g><rect height="26.4883" style="stroke:#00000000;stroke-width:1.0;fill:none;" width="413" x="5" y="5"/><text fill="#000000" font-family="sans-serif" font-size="14" font-weight="bold" lengthAdjust="spacing" textLength="403" x="10" y="23.5352">Klondike - PileToFoundationMove  - Use Case Diagram</text><g id="IN_GAME"><rect fill="#F1F1F1" height="50" rx="12.5" ry="12.5" style="stroke:#181818;stroke-width:0.5;" width="81" x="148" y="99.4883"/><line style="stroke:#181818;stroke-width:0.5;" x1="148" x2="229" y1="125.9766" y2="125.9766"/><text fill="#000000" font-family="sans-serif" font-size="14" lengthAdjust="spacing" textLength="61" x="158" y="118.0234">IN_GAME</text></g><g id="CARD_IN_PILE"><rect fill="#F1F1F1" height="50" rx="12.5" ry="12.5" style="stroke:#181818;stroke-width:0.5;" width="114" x="131.5" y="202.4883"/><line style="stroke:#181818;stroke-width:0.5;" x1="131.5" x2="245.5" y1="228.9766" y2="228.9766"/><text fill="#000000" font-family="sans-serif" font-size="14" lengthAdjust="spacing" textLength="94" x="141.5" y="221.0234">CARD_IN_PILE</text></g><g id="elem_if"><polygon fill="#F1F1F1" points="188.5,320.4883,200.5,332.4883,188.5,344.4883,176.5,332.4883,188.5,320.4883" style="stroke:#181818;stroke-width:0.5;"/></g><g id="CARD_IN_FOUNDATION"><rect fill="#F1F1F1" height="50" rx="12.5" ry="12.5" style="stroke:#181818;stroke-width:0.5;" width="180" x="36.5" y="397.4883"/><line style="stroke:#181818;stroke-width:0.5;" x1="36.5" x2="216.5" y1="423.9766" y2="423.9766"/><text fill="#000000" font-family="sans-serif" font-size="14" lengthAdjust="spacing" textLength="160" x="46.5" y="416.0234">CARD_IN_FOUNDATION</text></g><ellipse cx="188.5" cy="48.4883" fill="#222222" rx="10" ry="10" style="stroke:none;stroke-width:1.0;"/><ellipse cx="226.5" cy="494.4883" fill="none" rx="10" ry="10" style="stroke:#222222;stroke-width:1.0;"/><ellipse cx="227" cy="494.9883" fill="#222222" rx="6" ry="6" style="stroke:none;stroke-width:1.0;"/><path d="M188.5,62.7383 C188.5,72.4678 188.5,86.872 188.5,99.2127 " fill="none" style="stroke:#181818;stroke-width:1.0;"/><polygon fill="#181818" points="188.5,99.2127,192.5,90.2127,188.5,94.2127,184.5,90.2127,188.5,99.2127" style="stroke:#181818;stroke-width:1.0;"/><path d="M188.5,149.6803 C188.5,165.554 188.5,186.2392 188.5,202.1436 " fill="none" style="stroke:#181818;stroke-width:1.0;"/><polygon fill="#181818" points="188.5,202.1436,192.5,193.1436,188.5,197.1436,184.5,193.1436,188.5,202.1436" style="stroke:#181818;stroke-width:1.0;"/><text fill="#000000" font-family="sans-serif" font-size="13" lengthAdjust="spacing" textLength="208" x="189.5" y="181.0566">Player take card from Foundation</text><path d="M188.5,252.6372 C188.5,274.0429 188.5,304.3296 188.5,320.4258 " fill="none" style="stroke:#181818;stroke-width:1.0;"/><polygon fill="#181818" points="188.5,320.4258,192.5,311.4258,188.5,315.4258,184.5,311.4258,188.5,320.4258" style="stroke:#181818;stroke-width:1.0;"/><text fill="#000000" font-family="sans-serif" font-size="13" lengthAdjust="spacing" textLength="201" x="189.5" y="284.0566">[&gt; CardNumber AND SameColor</text><text fill="#000000" font-family="sans-serif" font-size="13" lengthAdjust="spacing" textLength="125" x="231.5" y="299.3672">OR CardNumer is A]</text><path d="M176.4775,333.9447 C158.5998,335.3486 125.5074,340.8975 110.5,362.4883 C103.4129,372.6844 106.1458,385.8844 111.2031,397.2128 " fill="none" style="stroke:#181818;stroke-width:1.0;"/><polygon fill="#181818" points="111.2031,397.2128,111.1869,387.3639,109.1649,392.6471,103.8817,390.6251,111.2031,397.2128" style="stroke:#181818;stroke-width:1.0;"/><text fill="#000000" font-family="sans-serif" font-size="13" lengthAdjust="spacing" textLength="142" x="111.5" y="376.0566">PileToFoundationMove</text><path d="M200.5449,334.8527 C216.0811,337.3309 242.5263,344.1485 254.5,362.4883 C280.0416,401.6095 249.3238,459.7764 234.0937,484.1252 " fill="none" style="stroke:#181818;stroke-width:1.0;"/><polygon fill="#181818" points="234.0937,484.1252,242.2577,478.6161,236.7452,479.8862,235.4752,474.3737,234.0937,484.1252" style="stroke:#181818;stroke-width:1.0;"/><text fill="#000000" font-family="sans-serif" font-size="13" lengthAdjust="spacing" textLength="135" x="264.5" y="427.5566">TryAnotherMovement</text><path d="M160.0767,447.6635 C179.8224,461.8804 203.4122,478.8651 216.4985,488.2872 " fill="none" style="stroke:#181818;stroke-width:1.0;"/><polygon fill="#181818" points="216.4985,488.2872,211.5319,479.7823,212.4408,485.3657,206.8575,486.2746,216.4985,488.2872" style="stroke:#181818;stroke-width:1.0;"/><!--MD5=[ba845c28d621b0ac47d2e8c2c48ec4ca]
@startuml UCPileToPileMove
!pragma layout smetana
title Klondike - PileToFoundationMove  - Use Case Diagram

state IN_GAME
state CARD_IN_PILE
state if <<choice>>
state CARD_IN_FOUNDATION

[*] - -> IN_GAME
IN_GAME - -> CARD_IN_PILE: Player take card from Foundation
CARD_IN_PILE - -> if: [> CardNumber AND SameColor \n OR CardNumer is A]
if - -> CARD_IN_FOUNDATION: PileToFoundationMove
if - -> [*]: TryAnotherMovement
CARD_IN_FOUNDATION- -> [*]

@enduml

PlantUML version 1.2022.5(Sat Apr 30 05:55:52 ECT 2022)
(GPL source distribution)
Java Runtime: OpenJDK Runtime Environment
JVM: OpenJDK 64-Bit Server VM
Default Encoding: UTF-8
Language: es
Country: EC
--></g></svg>