<?xml version="1.0" encoding="UTF-8" standalone="no"?><svg xmlns="http://www.w3.org/2000/svg" xmlns:xlink="http://www.w3.org/1999/xlink" contentStyleType="text/css" height="521px" preserveAspectRatio="none" style="width:360px;height:521px;background:#FFFFFF;" version="1.1" viewBox="0 0 360 521" width="360px" zoomAndPan="magnify"><defs/><g><rect height="26.4883" style="stroke:#00000000;stroke-width:1.0;fill:none;" width="342" x="5" y="5"/><text fill="#000000" font-family="sans-serif" font-size="14" font-weight="bold" lengthAdjust="spacing" textLength="332" x="10" y="23.5352">Klondike  - DealToWaste - Use Case Diagram</text><g id="IN_GAME"><rect fill="#F1F1F1" height="50" rx="12.5" ry="12.5" style="stroke:#181818;stroke-width:0.5;" width="81" x="87" y="99.4883"/><line style="stroke:#181818;stroke-width:0.5;" x1="87" x2="168" y1="125.9766" y2="125.9766"/><text fill="#000000" font-family="sans-serif" font-size="14" lengthAdjust="spacing" textLength="61" x="97" y="118.0234">IN_GAME</text></g><g id="CARDS_IN_STOCK"><rect fill="#F1F1F1" height="50" rx="12.5" ry="12.5" style="stroke:#181818;stroke-width:0.5;" width="142" x="56.5" y="202.4883"/><line style="stroke:#181818;stroke-width:0.5;" x1="56.5" x2="198.5" y1="228.9766" y2="228.9766"/><text fill="#000000" font-family="sans-serif" font-size="14" lengthAdjust="spacing" textLength="122" x="66.5" y="221.0234">CARDS_IN_STOCK</text></g><g id="WASTE_BUILD"><rect fill="#F1F1F1" height="50" rx="12.5" ry="12.5" style="stroke:#181818;stroke-width:0.5;" width="113" x="71" y="305.4883"/><line style="stroke:#181818;stroke-width:0.5;" x1="71" x2="184" y1="331.9766" y2="331.9766"/><text fill="#000000" font-family="sans-serif" font-size="14" lengthAdjust="spacing" textLength="93" x="81" y="324.0234">WASTE_BUILD</text></g><g id="WASTE_READY"><rect fill="#F1F1F1" height="50" rx="12.5" ry="12.5" style="stroke:#181818;stroke-width:0.5;" width="120" x="67.5" y="408.4883"/><line style="stroke:#181818;stroke-width:0.5;" x1="67.5" x2="187.5" y1="434.9766" y2="434.9766"/><text fill="#000000" font-family="sans-serif" font-size="14" lengthAdjust="spacing" textLength="100" x="77.5" y="427.0234">WASTE_READY</text></g><ellipse cx="127.5" cy="48.4883" fill="#222222" rx="10" ry="10" style="stroke:none;stroke-width:1.0;"/><ellipse cx="127.5" cy="505.4883" fill="none" rx="10" ry="10" style="stroke:#222222;stroke-width:1.0;"/><ellipse cx="128" cy="505.9883" fill="#222222" rx="6" ry="6" style="stroke:none;stroke-width:1.0;"/><path d="M127.5,62.7383 C127.5,72.4678 127.5,86.872 127.5,99.2127 " fill="none" style="stroke:#181818;stroke-width:1.0;"/><polygon fill="#181818" points="127.5,99.2127,131.5,90.2127,127.5,94.2127,123.5,90.2127,127.5,99.2127" style="stroke:#181818;stroke-width:1.0;"/><path d="M127.5,149.6803 C127.5,165.554 127.5,186.2392 127.5,202.1436 " fill="none" style="stroke:#181818;stroke-width:1.0;"/><polygon fill="#181818" points="127.5,202.1436,131.5,193.1436,127.5,197.1436,123.5,193.1436,127.5,202.1436" style="stroke:#181818;stroke-width:1.0;"/><text fill="#000000" font-family="sans-serif" font-size="13" lengthAdjust="spacing" textLength="165" x="128.5" y="181.0566">PlayerRequireDealToWaste</text><path d="M127.5,252.6803 C127.5,268.554 127.5,289.2392 127.5,305.1436 " fill="none" style="stroke:#181818;stroke-width:1.0;"/><polygon fill="#181818" points="127.5,305.1436,131.5,296.1436,127.5,300.1436,123.5,296.1436,127.5,305.1436" style="stroke:#181818;stroke-width:1.0;"/><text fill="#000000" font-family="sans-serif" font-size="13" lengthAdjust="spacing" textLength="102" x="128.5" y="284.0566">PlayerSelectDeal</text><path d="M127.5,355.6803 C127.5,371.554 127.5,392.2392 127.5,408.1436 " fill="none" style="stroke:#181818;stroke-width:1.0;"/><polygon fill="#181818" points="127.5,408.1436,131.5,399.1436,127.5,403.1436,123.5,399.1436,127.5,408.1436" style="stroke:#181818;stroke-width:1.0;"/><text fill="#000000" font-family="sans-serif" font-size="13" lengthAdjust="spacing" textLength="180" x="128.5" y="387.0566">SystemDealAndTurnUpCards</text><path d="M127.5,458.8642 C127.5,471.2663 127.5,485.7303 127.5,495.4354 " fill="none" style="stroke:#181818;stroke-width:1.0;"/><polygon fill="#181818" points="127.5,495.4354,131.5,486.4354,127.5,490.4354,123.5,486.4354,127.5,495.4354" style="stroke:#181818;stroke-width:1.0;"/><!--MD5=[d7ec4ac0627f18925f798f55500b4920]
@startuml UCDealStock
!pragma layout smetana
title Klondike  - DealToWaste - Use Case Diagram

state IN_GAME
state CARDS_IN_STOCK
state WASTE_BUILD
state WASTE_READY

[*] - -> IN_GAME
IN_GAME - -> CARDS_IN_STOCK: PlayerRequireDealToWaste
CARDS_IN_STOCK - -> WASTE_BUILD: PlayerSelectDeal
WASTE_BUILD - -> WASTE_READY: SystemDealAndTurnUpCards
WASTE_READY - -> [*]

@enduml

PlantUML version 1.2022.5(Sat Apr 30 05:55:52 ECT 2022)
(GPL source distribution)
Java Runtime: OpenJDK Runtime Environment
JVM: OpenJDK 64-Bit Server VM
Default Encoding: UTF-8
Language: es
Country: EC
--></g></svg>