<?xml version="1.0" encoding="UTF-8" standalone="no"?><svg xmlns="http://www.w3.org/2000/svg" xmlns:xlink="http://www.w3.org/1999/xlink" contentScriptType="application/ecmascript" contentStyleType="text/css" height="784px" preserveAspectRatio="none" style="width:531px;height:784px;background:#FFFFFF;" version="1.1" viewBox="0 0 531 784" width="531px" zoomAndPan="magnify"><defs><filter height="300%" id="f1mayfq44cu005" width="300%" x="-1" y="-1"><feGaussianBlur result="blurOut" stdDeviation="2.0"/><feColorMatrix in="blurOut" result="blurOut2" type="matrix" values="0 0 0 0 0 0 0 0 0 0 0 0 0 0 0 0 0 0 .4 0"/><feOffset dx="4.0" dy="4.0" in="blurOut2" result="blurOut3"/><feBlend in="SourceGraphic" in2="blurOut3" mode="normal"/></filter></defs><g><text fill="#000000" font-family="sans-serif" font-size="18" lengthAdjust="spacing" textLength="227" x="145.8326" y="17.4023">Klondike  - State Diagram</text><g id="CardInDeck"><rect fill="#FEFECE" filter="url(#f1mayfq44cu005)" height="50" rx="12.5" ry="12.5" style="stroke:#A80036;stroke-width:1.5;" width="99" x="129.1652" y="89.1992"/><line style="stroke:#A80036;stroke-width:1.5;" x1="129.1652" x2="228.1652" y1="115.6875" y2="115.6875"/><text fill="#000000" font-family="sans-serif" font-size="14" lengthAdjust="spacing" textLength="79" x="139.1652" y="107.7344">CardInDeck</text></g><g id="CardInPile"><rect fill="#FEFECE" filter="url(#f1mayfq44cu005)" height="50" rx="12.5" ry="12.5" style="stroke:#A80036;stroke-width:1.5;" width="90" x="117.6652" y="398.1992"/><line style="stroke:#A80036;stroke-width:1.5;" x1="117.6652" x2="207.6652" y1="424.6875" y2="424.6875"/><text fill="#000000" font-family="sans-serif" font-size="14" lengthAdjust="spacing" textLength="70" x="127.6652" y="416.7344">CardInPile</text></g><g id="CardInStock"><rect fill="#FEFECE" filter="url(#f1mayfq44cu005)" height="50" rx="12.5" ry="12.5" style="stroke:#A80036;stroke-width:1.5;" width="103" x="202.1652" y="192.1992"/><line style="stroke:#A80036;stroke-width:1.5;" x1="202.1652" x2="305.1652" y1="218.6875" y2="218.6875"/><text fill="#000000" font-family="sans-serif" font-size="14" lengthAdjust="spacing" textLength="83" x="212.1652" y="210.7344">CardInStock</text></g><g id="CardInFoundation"><rect fill="#FEFECE" filter="url(#f1mayfq44cu005)" height="50" rx="12.5" ry="12.5" style="stroke:#A80036;stroke-width:1.5;" width="145" x="125.1652" y="501.1992"/><line style="stroke:#A80036;stroke-width:1.5;" x1="125.1652" x2="270.1652" y1="527.6875" y2="527.6875"/><text fill="#000000" font-family="sans-serif" font-size="14" lengthAdjust="spacing" textLength="125" x="135.1652" y="519.7344">CardInFoundation</text></g><polygon fill="#FEFECE" filter="url(#f1mayfq44cu005)" points="197.6652,588.1992,209.6652,600.1992,197.6652,612.1992,185.6652,600.1992,197.6652,588.1992" style="stroke:#A80036;stroke-width:1.5;"/><g id="RestartGame"><rect fill="#FEFECE" filter="url(#f1mayfq44cu005)" height="50" rx="12.5" ry="12.5" style="stroke:#A80036;stroke-width:1.5;" width="107" x="87.1652" y="665.1992"/><line style="stroke:#A80036;stroke-width:1.5;" x1="87.1652" x2="194.1652" y1="691.6875" y2="691.6875"/><text fill="#000000" font-family="sans-serif" font-size="14" lengthAdjust="spacing" textLength="87" x="97.1652" y="683.7344">RestartGame</text></g><g id="GameWin"><rect fill="#FEFECE" filter="url(#f1mayfq44cu005)" height="50" rx="12.5" ry="12.5" style="stroke:#A80036;stroke-width:1.5;" width="84" x="214.6652" y="665.1992"/><line style="stroke:#A80036;stroke-width:1.5;" x1="214.6652" x2="298.6652" y1="691.6875" y2="691.6875"/><text fill="#000000" font-family="sans-serif" font-size="14" lengthAdjust="spacing" textLength="64" x="224.6652" y="683.7344">GameWin</text></g><ellipse cx="178.6652" cy="38.1992" fill="#000000" filter="url(#f1mayfq44cu005)" rx="10" ry="10" style="stroke:none;stroke-width:1.0;"/><g id="CardInWaste"><rect fill="#FEFECE" filter="url(#f1mayfq44cu005)" height="50" rx="12.5" ry="12.5" style="stroke:#A80036;stroke-width:1.5;" width="106" x="251.6652" y="295.1992"/><line style="stroke:#A80036;stroke-width:1.5;" x1="251.6652" x2="357.6652" y1="321.6875" y2="321.6875"/><text fill="#000000" font-family="sans-serif" font-size="14" lengthAdjust="spacing" textLength="86" x="261.6652" y="313.7344">CardInWaste</text></g><ellipse cx="209.6652" cy="762.1992" filter="url(#f1mayfq44cu005)" rx="10" ry="10" style="stroke:#000000;stroke-width:1.0;fill:none;"/><ellipse cx="210.1652" cy="762.6992" fill="#000000" rx="6" ry="6" style="stroke:none;stroke-width:1.0;"/><path d="M178.6652,52.4492 C178.6652,62.1787 178.6652,76.5829 178.6652,88.9237 " fill="none" style="stroke:#A80036;stroke-width:1.0;"/><polygon fill="#A80036" points="178.6652,88.9237,182.6652,79.9237,178.6652,83.9237,174.6652,79.9237,178.6652,88.9237" style="stroke:#A80036;stroke-width:1.0;"/><path d="M228.4106,106.6011 C238.7385,107.4009 246.1652,109.9336 246.1652,114.1992 C246.1652,118.4648 238.7385,120.9976 228.4106,121.7974 " fill="none" style="stroke:#A80036;stroke-width:1.0;"/><polygon fill="#A80036" points="228.4106,121.7974,237.6926,125.0905,233.3957,121.4113,237.0749,117.1144,228.4106,121.7974" style="stroke:#A80036;stroke-width:1.0;"/><text fill="#000000" font-family="sans-serif" font-size="13" lengthAdjust="spacing" textLength="43" x="247.1652" y="119.2676">Shuflle</text><path d="M177.4097,139.289 C174.4262,196.5367 166.937,340.2353 163.937,397.7965 " fill="none" style="stroke:#A80036;stroke-width:1.0;"/><polygon fill="#A80036" points="163.937,397.7965,168.4,389.0169,164.1973,392.8033,160.4109,388.6006,163.937,397.7965" style="stroke:#A80036;stroke-width:1.0;"/><text fill="#000000" font-family="sans-serif" font-size="13" lengthAdjust="spacing" textLength="66" x="172.6652" y="273.7676">DealToPile</text><path d="M196.6296,139.3912 C208.417,155.265 223.7773,175.9501 235.5875,191.8546 " fill="none" style="stroke:#A80036;stroke-width:1.0;"/><polygon fill="#A80036" points="235.5875,191.8546,233.4333,182.2442,232.6066,187.8403,227.0105,187.0136,235.5875,191.8546" style="stroke:#A80036;stroke-width:1.0;"/><text fill="#000000" font-family="sans-serif" font-size="13" lengthAdjust="spacing" textLength="79" x="221.6652" y="170.7676">DealToStock</text><path d="M207.6857,414.0308 C218.0511,414.8208 225.6652,417.877 225.6652,423.1992 C225.6652,428.5215 218.0511,431.5776 207.6857,432.3677 " fill="none" style="stroke:#A80036;stroke-width:1.0;"/><polygon fill="#A80036" points="207.6857,432.3677,216.9637,435.6721,212.6712,431.9877,216.3557,427.6952,207.6857,432.3677" style="stroke:#A80036;stroke-width:1.0;"/><text fill="#000000" font-family="sans-serif" font-size="13" lengthAdjust="spacing" textLength="93" x="226.6652" y="428.2676">PileToPileMove</text><path d="M117.3203,428.6575 C70.0018,435.1471 6,450.2316 31.6652,483.1992 C43.4896,498.3878 85.8294,508.9574 124.7858,515.6944 " fill="none" style="stroke:#A80036;stroke-width:1.0;"/><polygon fill="#A80036" points="124.7858,515.6944,116.599,510.2192,119.8589,514.8423,115.2358,518.1022,124.7858,515.6944" style="stroke:#A80036;stroke-width:1.0;"/><text fill="#000000" font-family="sans-serif" font-size="13" lengthAdjust="spacing" textLength="142" x="32.6652" y="479.7676">PileToFoundationMove</text><path d="M189.229,500.8546 C183.7175,484.9501 176.5494,464.265 171.0486,448.3912 " fill="none" style="stroke:#A80036;stroke-width:1.0;"/><polygon fill="#A80036" points="171.0486,448.3912,170.216,458.2048,172.6858,453.1156,177.775,455.5854,171.0486,448.3912" style="stroke:#A80036;stroke-width:1.0;"/><text fill="#000000" font-family="sans-serif" font-size="13" lengthAdjust="spacing" textLength="142" x="183.6652" y="479.7676">FoundationToPileMove</text><path d="M249.6501,242.2096 C248.8703,253.3507 249.5547,266.4706 254.6652,277.1992 C257.7854,283.7495 262.4705,289.6497 267.743,294.8154 " fill="none" style="stroke:#A80036;stroke-width:1.0;"/><polygon fill="#A80036" points="267.743,294.8154,264.1136,285.6596,264.1715,291.3162,258.5149,291.3741,267.743,294.8154" style="stroke:#A80036;stroke-width:1.0;"/><text fill="#000000" font-family="sans-serif" font-size="13" lengthAdjust="spacing" textLength="81" x="255.6652" y="273.7676">DealToWaste</text><path d="M330.579,295.0978 C339.0249,284.2983 344.6376,271.4807 337.6652,260.1992 C330.2077,248.1327 318.1175,239.4169 305.4047,233.168 " fill="none" style="stroke:#A80036;stroke-width:1.0;"/><polygon fill="#A80036" points="305.4047,233.168,311.7171,240.7279,309.8919,235.3736,315.2462,233.5484,305.4047,233.168" style="stroke:#A80036;stroke-width:1.0;"/><text fill="#000000" font-family="sans-serif" font-size="13" lengthAdjust="spacing" textLength="121" x="342.6652" y="273.7676">WasteToStockMove</text><path d="M260.5055,345.342 C251.125,350.9147 241.4168,357.0277 232.6652,363.1992 C217.5982,373.8244 201.8131,386.9346 189.0543,398.0961 " fill="none" style="stroke:#A80036;stroke-width:1.0;"/><polygon fill="#A80036" points="189.0543,398.0961,198.4618,395.1809,192.8175,394.8039,193.1944,389.1597,189.0543,398.0961" style="stroke:#A80036;stroke-width:1.0;"/><text fill="#000000" font-family="sans-serif" font-size="13" lengthAdjust="spacing" textLength="108" x="233.6652" y="376.7676">WasteToPileMove</text><path d="M331.7767,345.3237 C336.2284,350.7254 340.1908,356.7761 342.6652,363.1992 C355.37,396.1779 391.2877,409.8147 330.6652,483.1992 C315.6291,501.4007 292.7541,511.8301 270.1923,517.7672 " fill="none" style="stroke:#A80036;stroke-width:1.0;"/><polygon fill="#A80036" points="270.1923,517.7672,279.914,519.3451,275.0277,516.4948,277.8781,511.6085,270.1923,517.7672" style="stroke:#A80036;stroke-width:1.0;"/><text fill="#000000" font-family="sans-serif" font-size="13" lengthAdjust="spacing" textLength="157" x="366.6652" y="428.2676">WasteToFoundationMove</text><path d="M197.6652,551.5751 C197.6652,563.9772 197.6652,578.4412 197.6652,588.1463 " fill="none" style="stroke:#A80036;stroke-width:1.0;"/><polygon fill="#A80036" points="197.6652,588.1463,201.6652,579.1463,197.6652,583.1463,193.6652,579.1463,197.6652,588.1463" style="stroke:#A80036;stroke-width:1.0;"/><path d="M185.4397,603.1778 C171.1466,606.2167 148.1175,613.5381 137.6652,630.1992 C131.2337,640.4512 131.3686,653.7875 133.383,665.1866 " fill="none" style="stroke:#A80036;stroke-width:1.0;"/><polygon fill="#A80036" points="133.383,665.1866,135.7558,655.6278,132.5129,660.2628,127.8779,657.02,133.383,665.1866" style="stroke:#A80036;stroke-width:1.0;"/><text fill="#000000" font-family="sans-serif" font-size="13" lengthAdjust="spacing" textLength="97" x="138.6652" y="643.7676">[NoMoreMoves]</text><path d="M209.7845,607.5666 C218.3867,612.6486 229.615,620.5117 236.6652,630.1992 C244.1114,640.4307 248.9288,653.6338 251.9651,664.9551 " fill="none" style="stroke:#A80036;stroke-width:1.0;"/><polygon fill="#A80036" points="251.9651,664.9551,253.4972,655.2261,250.6699,660.1257,245.7703,657.2984,251.9651,664.9551" style="stroke:#A80036;stroke-width:1.0;"/><text fill="#000000" font-family="sans-serif" font-size="13" lengthAdjust="spacing" textLength="113" x="247.6652" y="643.7676">[IsFoundationFull]</text><path d="M164.0255,715.5751 C176.0672,728.1404 190.1372,742.8222 199.4376,752.5269 " fill="none" style="stroke:#A80036;stroke-width:1.0;"/><polygon fill="#A80036" points="199.4376,752.5269,196.0984,743.2614,195.9781,748.917,190.3225,748.7967,199.4376,752.5269" style="stroke:#A80036;stroke-width:1.0;"/><path d="M240.7532,715.5751 C232.6574,727.9772 223.2156,742.4412 216.8803,752.1463 " fill="none" style="stroke:#A80036;stroke-width:1.0;"/><polygon fill="#A80036" points="216.8803,752.1463,225.1494,746.7964,219.6134,747.9594,218.4504,742.4234,216.8803,752.1463" style="stroke:#A80036;stroke-width:1.0;"/><!--MD5=[e4e5bd2488248514dbe955564f598224]
@startuml StateDiagram
title Klondike  - State Diagram
!pragma layout smetana

state CardInDeck
state CardInPile
state CardInStock
state CardInFoundation
state GameFinal <<choice>>
state RestartGame
state GameWin

[*] - -> CardInDeck
CardInDeck - -> CardInDeck: Shuflle
CardInDeck - -> CardInPile: DealToPile
CardInDeck - -> CardInStock: DealToStock

CardInPile - -> CardInPile: PileToPileMove
CardInPile - -> CardInFoundation: PileToFoundationMove
CardInFoundation - -> CardInPile: FoundationToPileMove

CardInStock - -> CardInWaste: DealToWaste
CardInWaste - -> CardInStock: WasteToStockMove
CardInWaste - -> CardInPile: WasteToPileMove
CardInWaste - -> CardInFoundation: WasteToFoundationMove

CardInFoundation - -> GameFinal
GameFinal - -> RestartGame: [NoMoreMoves]
GameFinal - -> GameWin: [IsFoundationFull]

RestartGame - -> [*]
GameWin - -> [*]

@enduml

PlantUML version 1.2022.0(Tue Jan 11 11:16:42 ECT 2022)
(GPL source distribution)
Java Runtime: OpenJDK Runtime Environment
JVM: OpenJDK 64-Bit Server VM
Default Encoding: UTF-8
Language: es
Country: EC
--></g></svg>