<?xml version="1.0" encoding="UTF-8" standalone="no"?><svg xmlns="http://www.w3.org/2000/svg" xmlns:xlink="http://www.w3.org/1999/xlink" contentStyleType="text/css" height="682px" preserveAspectRatio="none" style="width:882px;height:682px;background:#FFFFFF;" version="1.1" viewBox="0 0 882 682" width="882px" zoomAndPan="magnify"><defs/><g><rect height="26.4883" style="stroke:#00000000;stroke-width:1.0;fill:none;" width="252" x="308" y="5"/><text fill="#000000" font-family="sans-serif" font-size="14" font-weight="bold" lengthAdjust="spacing" textLength="242" x="313" y="23.5352">Klondike  - State Diagram - Card</text><g id="CardInDeck"><rect fill="#F1F1F1" height="50" rx="12.5" ry="12.5" style="stroke:#181818;stroke-width:0.5;" width="99" x="409.5" y="99.4883"/><line style="stroke:#181818;stroke-width:0.5;" x1="409.5" x2="508.5" y1="125.9766" y2="125.9766"/><text fill="#000000" font-family="sans-serif" font-size="14" lengthAdjust="spacing" textLength="79" x="419.5" y="118.0234">CardInDeck</text></g><g id="CardInPile"><rect fill="#F1F1F1" height="50" rx="12.5" ry="12.5" style="stroke:#181818;stroke-width:0.5;" width="90" x="508" y="202.4883"/><line style="stroke:#181818;stroke-width:0.5;" x1="508" x2="598" y1="228.9766" y2="228.9766"/><text fill="#000000" font-family="sans-serif" font-size="14" lengthAdjust="spacing" textLength="70" x="518" y="221.0234">CardInPile</text></g><g id="CardInStock"><rect fill="#F1F1F1" height="50" rx="12.5" ry="12.5" style="stroke:#181818;stroke-width:0.5;" width="103" x="114.5" y="99.4883"/><line style="stroke:#181818;stroke-width:0.5;" x1="114.5" x2="217.5" y1="125.9766" y2="125.9766"/><text fill="#000000" font-family="sans-serif" font-size="14" lengthAdjust="spacing" textLength="83" x="124.5" y="118.0234">CardInStock</text></g><g id="CardInWaste"><rect fill="#F1F1F1" height="50" rx="12.5" ry="12.5" style="stroke:#181818;stroke-width:0.5;" width="106" x="7" y="202.4883"/><line style="stroke:#181818;stroke-width:0.5;" x1="7" x2="113" y1="228.9766" y2="228.9766"/><text fill="#000000" font-family="sans-serif" font-size="14" lengthAdjust="spacing" textLength="86" x="17" y="221.0234">CardInWaste</text></g><g id="CardInFoundation"><rect fill="#F1F1F1" height="50" rx="12.5" ry="12.5" style="stroke:#181818;stroke-width:0.5;" width="145" x="248.5" y="405.4883"/><line style="stroke:#181818;stroke-width:0.5;" x1="248.5" x2="393.5" y1="431.9766" y2="431.9766"/><text fill="#000000" font-family="sans-serif" font-size="14" lengthAdjust="spacing" textLength="125" x="258.5" y="424.0234">CardInFoundation</text></g><g id="elem_GameFinal"><polygon fill="#F1F1F1" points="321,492.4883,333,504.4883,321,516.4883,309,504.4883,321,492.4883" style="stroke:#181818;stroke-width:0.5;"/></g><g id="RestartGame"><rect fill="#F1F1F1" height="50" rx="12.5" ry="12.5" style="stroke:#181818;stroke-width:0.5;" width="107" x="210.5" y="569.4883"/><line style="stroke:#181818;stroke-width:0.5;" x1="210.5" x2="317.5" y1="595.9766" y2="595.9766"/><text fill="#000000" font-family="sans-serif" font-size="14" lengthAdjust="spacing" textLength="87" x="220.5" y="588.0234">RestartGame</text></g><g id="GameWin"><rect fill="#F1F1F1" height="50" rx="12.5" ry="12.5" style="stroke:#181818;stroke-width:0.5;" width="84" x="338" y="569.4883"/><line style="stroke:#181818;stroke-width:0.5;" x1="338" x2="422" y1="595.9766" y2="595.9766"/><text fill="#000000" font-family="sans-serif" font-size="14" lengthAdjust="spacing" textLength="64" x="348" y="588.0234">GameWin</text></g><g id="elem_PPDecision"><polygon fill="#F1F1F1" points="853,215.4883,865,227.4883,853,239.4883,841,227.4883,853,215.4883" style="stroke:#181818;stroke-width:0.5;"/></g><g id="elem_PFDecision"><polygon fill="#F1F1F1" points="342,324.4883,354,336.4883,342,348.4883,330,336.4883,342,324.4883" style="stroke:#181818;stroke-width:0.5;"/></g><g id="elem_FPDecision"><polygon fill="#F1F1F1" points="648,418.4883,660,430.4883,648,442.4883,636,430.4883,648,418.4883" style="stroke:#181818;stroke-width:0.5;"/></g><g id="elem_WPDecision"><polygon fill="#F1F1F1" points="368,215.4883,380,227.4883,368,239.4883,356,227.4883,368,215.4883" style="stroke:#181818;stroke-width:0.5;"/></g><g id="elem_WFDecision"><polygon fill="#F1F1F1" points="60,418.4883,72,430.4883,60,442.4883,48,430.4883,60,418.4883" style="stroke:#181818;stroke-width:0.5;"/></g><ellipse cx="459" cy="48.4883" fill="#222222" rx="10" ry="10" style="stroke:none;stroke-width:1.0;"/><ellipse cx="333" cy="666.4883" fill="none" rx="10" ry="10" style="stroke:#222222;stroke-width:1.0;"/><ellipse cx="333.5" cy="666.9883" fill="#222222" rx="6" ry="6" style="stroke:none;stroke-width:1.0;"/><path d="M459,62.7383 C459,72.4678 459,86.872 459,99.2127 " fill="none" style="stroke:#181818;stroke-width:1.0;"/><polygon fill="#181818" points="459,99.2127,463,90.2127,459,94.2127,455,90.2127,459,99.2127" style="stroke:#181818;stroke-width:1.0;"/><path d="M508.7454,116.8901 C519.0732,117.6899 526.5,120.2227 526.5,124.4883 C526.5,128.7539 519.0732,131.2866 508.7454,132.0864 " fill="none" style="stroke:#181818;stroke-width:1.0;"/><polygon fill="#181818" points="508.7454,132.0864,518.0274,135.3796,513.7305,131.7004,517.4097,127.4035,508.7454,132.0864" style="stroke:#181818;stroke-width:1.0;"/><text fill="#000000" font-family="sans-serif" font-size="13" lengthAdjust="spacing" textLength="43" x="527.5" y="129.5566">Shuflle</text><path d="M217.7081,124.4883 C271.7582,124.4883 355.9765,124.4883 409.2745,124.4883 " fill="none" style="stroke:#181818;stroke-width:1.0;"/><polygon fill="#181818" points="217.7081,124.4883,226.7081,128.4883,222.7081,124.4883,226.7081,120.4883,217.7081,124.4883" style="stroke:#181818;stroke-width:1.0;"/><text fill="#000000" font-family="sans-serif" font-size="13" lengthAdjust="spacing" textLength="79" x="274" y="118.0566">DealToStock</text><path d="M481.5153,149.6803 C496.2889,165.554 515.5404,186.2392 530.3426,202.1436 " fill="none" style="stroke:#181818;stroke-width:1.0;"/><polygon fill="#181818" points="530.3426,202.1436,527.1391,192.8303,526.9362,198.4835,521.283,198.2806,530.3426,202.1436" style="stroke:#181818;stroke-width:1.0;"/><text fill="#000000" font-family="sans-serif" font-size="13" lengthAdjust="spacing" textLength="66" x="513" y="181.0566">DealToPile</text><path d="M114.4606,133.5393 C94.3691,139.4531 73.2589,149.708 61,167.4883 C54.1382,177.4406 53.3897,190.7535 54.5766,202.2144 " fill="none" style="stroke:#181818;stroke-width:1.0;"/><polygon fill="#181818" points="54.5766,202.2144,57.6282,192.8502,54.0616,197.241,49.6708,193.6743,54.5766,202.2144" style="stroke:#181818;stroke-width:1.0;"/><text fill="#000000" font-family="sans-serif" font-size="13" lengthAdjust="spacing" textLength="81" x="62" y="181.0566">DealToWaste</text><path d="M161.3938,149.4887 C158.1501,161.1569 152.7681,174.7306 144,184.4883 C135.4998,193.9479 124.3813,201.5421 113.0291,207.5295 " fill="none" style="stroke:#181818;stroke-width:1.0;"/><polygon fill="#181818" points="161.3938,149.4887,155.1294,157.0884,160.0546,154.306,162.8371,159.2312,161.3938,149.4887" style="stroke:#181818;stroke-width:1.0;"/><text fill="#000000" font-family="sans-serif" font-size="13" lengthAdjust="spacing" textLength="121" x="156" y="181.0566">WasteToStockMove</text><path d="M113.2979,227.4883 C187.161,227.4883 316.062,227.4883 355.9131,227.4883 " fill="none" style="stroke:#181818;stroke-width:1.0;"/><polygon fill="#181818" points="355.9131,227.4883,346.9131,223.4883,350.9131,227.4883,346.9131,231.4883,355.9131,227.4883" style="stroke:#181818;stroke-width:1.0;"/><text fill="#000000" font-family="sans-serif" font-size="13" lengthAdjust="spacing" textLength="219" x="123" y="206.0566">[&lt; CardNumber AND DiferentColor</text><text fill="#000000" font-family="sans-serif" font-size="13" lengthAdjust="spacing" textLength="124" x="174.5" y="221.3672">OR CardNumer is K]</text><path d="M60,252.7336 C60,296.3785 60,386.5699 60,418.2159 " fill="none" style="stroke:#181818;stroke-width:1.0;"/><polygon fill="#181818" points="60,418.2159,64,409.2159,60,413.2159,56,409.2159,60,418.2159" style="stroke:#181818;stroke-width:1.0;"/><text fill="#000000" font-family="sans-serif" font-size="13" lengthAdjust="spacing" textLength="201" x="61" y="334.0566">[&gt; CardNumber AND SameColor</text><text fill="#000000" font-family="sans-serif" font-size="13" lengthAdjust="spacing" textLength="125" x="103" y="349.3672">OR CardNumer is A]</text><path d="M380.1384,227.4883 C405.6207,227.4883 465.8126,227.4883 507.9657,227.4883 " fill="none" style="stroke:#181818;stroke-width:1.0;"/><polygon fill="#181818" points="507.9657,227.4883,498.9657,223.4883,502.9657,227.4883,498.9657,231.4883,507.9657,227.4883" style="stroke:#181818;stroke-width:1.0;"/><text fill="#000000" font-family="sans-serif" font-size="13" lengthAdjust="spacing" textLength="108" x="390" y="221.0566">WasteToPileMove</text><path d="M507.7438,229.6807 C469.939,232.795 416.3711,242.3677 379,270.4883 C360.7389,284.2292 350.0985,309.799 345.2316,324.4382 " fill="none" style="stroke:#181818;stroke-width:1.0;"/><polygon fill="#181818" points="345.2316,324.4382,351.8667,317.1598,346.809,319.6936,344.2752,314.6359,345.2316,324.4382" style="stroke:#181818;stroke-width:1.0;"/><text fill="#000000" font-family="sans-serif" font-size="13" lengthAdjust="spacing" textLength="201" x="380" y="284.0566">[&gt; CardNumber AND SameColor</text><text fill="#000000" font-family="sans-serif" font-size="13" lengthAdjust="spacing" textLength="125" x="422" y="299.3672">OR CardNumer is A]</text><path d="M339.425,348.7693 C336.2269,362.78 330.6838,387.0641 326.5106,405.3464 " fill="none" style="stroke:#181818;stroke-width:1.0;"/><polygon fill="#181818" points="326.5106,405.3464,332.4132,397.4623,327.6233,400.4718,324.6138,395.682,326.5106,405.3464" style="stroke:#181818;stroke-width:1.0;"/><text fill="#000000" font-family="sans-serif" font-size="13" lengthAdjust="spacing" textLength="142" x="335" y="384.0566">PileToFoundationMove</text><path d="M598.2378,227.4883 C668.6232,227.4883 800.4765,227.4883 840.9053,227.4883 " fill="none" style="stroke:#181818;stroke-width:1.0;"/><polygon fill="#181818" points="840.9053,227.4883,831.9053,223.4883,835.9053,227.4883,831.9053,231.4883,840.9053,227.4883" style="stroke:#181818;stroke-width:1.0;"/><text fill="#000000" font-family="sans-serif" font-size="13" lengthAdjust="spacing" textLength="219" x="608" y="206.0566">[&lt; CardNumber AND DiferentColor</text><text fill="#000000" font-family="sans-serif" font-size="13" lengthAdjust="spacing" textLength="124" x="659.5" y="221.3672">OR CardNumer is K]</text><path d="M598.2649,236.9185 C620.388,241.06 647.4696,245.4413 672,247.4883 C714.076,250.9995 725.053,252.3016 767,247.4883 C793.8031,244.4127 824.4004,236.1129 840.9062,231.2259 " fill="none" style="stroke:#181818;stroke-width:1.0;"/><polygon fill="#181818" points="598.2649,236.9185,606.3752,242.5063,603.1795,237.8385,607.8473,234.6429,598.2649,236.9185" style="stroke:#181818;stroke-width:1.0;"/><text fill="#000000" font-family="sans-serif" font-size="13" lengthAdjust="spacing" textLength="93" x="673" y="244.0566">PileToPileMove</text><path d="M72.2385,430.4883 C103.2291,430.4883 186.7238,430.4883 248.4778,430.4883 " fill="none" style="stroke:#181818;stroke-width:1.0;"/><polygon fill="#181818" points="248.4778,430.4883,239.4778,426.4883,243.4778,430.4883,239.4778,434.4883,248.4778,430.4883" style="stroke:#181818;stroke-width:1.0;"/><text fill="#000000" font-family="sans-serif" font-size="13" lengthAdjust="spacing" textLength="157" x="81.75" y="424.0566">WasteToFoundationMove</text><path d="M393.5719,430.4883 C473.9153,430.4883 597.2108,430.4883 635.9344,430.4883 " fill="none" style="stroke:#181818;stroke-width:1.0;"/><polygon fill="#181818" points="635.9344,430.4883,626.9344,426.4883,630.9344,430.4883,626.9344,434.4883,635.9344,430.4883" style="stroke:#181818;stroke-width:1.0;"/><text fill="#000000" font-family="sans-serif" font-size="13" lengthAdjust="spacing" textLength="223" x="403.25" y="424.0566">[&lt; CardNumber AND DiferentColor]</text><path d="M573.8179,252.5043 C578.1767,258.1804 582.505,264.3683 586,270.4883 C615.6802,322.4601 637.1238,391.4104 644.8496,418.1864 " fill="none" style="stroke:#181818;stroke-width:1.0;"/><polygon fill="#181818" points="573.8179,252.5043,576.1269,262.0787,576.8632,256.47,582.4719,257.2062,573.8179,252.5043" style="stroke:#181818;stroke-width:1.0;"/><text fill="#000000" font-family="sans-serif" font-size="13" lengthAdjust="spacing" textLength="142" x="624" y="341.5566">FoundationToPileMove</text><path d="M321,455.8642 C321,468.2663 321,482.7303 321,492.4354 " fill="none" style="stroke:#181818;stroke-width:1.0;"/><polygon fill="#181818" points="321,492.4354,325,483.4354,321,487.4354,317,483.4354,321,492.4354" style="stroke:#181818;stroke-width:1.0;"/><path d="M308.7745,507.4669 C294.4814,510.5057 271.4523,517.8272 261,534.4883 C254.5684,544.7403 254.7034,558.0766 256.7178,569.4756 " fill="none" style="stroke:#181818;stroke-width:1.0;"/><polygon fill="#181818" points="256.7178,569.4756,259.0905,559.9169,255.8477,564.5519,251.2126,561.309,256.7178,569.4756" style="stroke:#181818;stroke-width:1.0;"/><text fill="#000000" font-family="sans-serif" font-size="13" lengthAdjust="spacing" textLength="97" x="262" y="548.0566">[NoMoreMoves]</text><path d="M333.1193,511.8557 C341.7215,516.9377 352.9498,524.8008 360,534.4883 C367.4461,544.7198 372.2636,557.9228 375.2998,569.2441 " fill="none" style="stroke:#181818;stroke-width:1.0;"/><polygon fill="#181818" points="375.2998,569.2441,376.832,559.5152,374.0047,564.4148,369.105,561.5874,375.2998,569.2441" style="stroke:#181818;stroke-width:1.0;"/><text fill="#000000" font-family="sans-serif" font-size="13" lengthAdjust="spacing" textLength="130" x="371" y="548.0566">[AreFoundationsFull]</text><path d="M287.3603,619.8642 C299.402,632.4295 313.472,647.1112 322.7724,656.816 " fill="none" style="stroke:#181818;stroke-width:1.0;"/><polygon fill="#181818" points="322.7724,656.816,319.4332,647.5505,319.3129,653.2061,313.6573,653.0857,322.7724,656.816" style="stroke:#181818;stroke-width:1.0;"/><path d="M364.0879,619.8642 C355.9921,632.2663 346.5504,646.7303 340.2151,656.4354 " fill="none" style="stroke:#181818;stroke-width:1.0;"/><polygon fill="#181818" points="340.2151,656.4354,348.4842,651.0855,342.9482,652.2485,341.7852,646.7125,340.2151,656.4354" style="stroke:#181818;stroke-width:1.0;"/><!--MD5=[276f2839d24ac3f360fcbf2143ebc75b]
@startuml StateDiagram
title Klondike  - State Diagram - Card
!pragma layout smetana

state CardInDeck
state CardInPile
state CardInStock
state CardInWaste
state CardInFoundation
state GameFinal <<choice>>
state RestartGame
state GameWin
state PPDecision <<choice>>
state PFDecision <<choice>>
state FPDecision <<choice>>
state WPDecision <<choice>>
state WFDecision <<choice>>

[*] -down-> CardInDeck
CardInDeck - -> CardInDeck: Shuflle
CardInDeck -left-> CardInStock: DealToStock
CardInDeck -down-> CardInPile: DealToPile


CardInStock -down-> CardInWaste: DealToWaste
CardInWaste -up-> CardInStock: WasteToStockMove

CardInWaste -right-> WPDecision: [< CardNumber AND DiferentColor \n OR CardNumer is K]
CardInWaste -down- -> WFDecision:[> CardNumber AND SameColor \n OR CardNumer is A]
WPDecision -right-> CardInPile: WasteToPileMove


CardInPile -down-> PFDecision: [> CardNumber AND SameColor \n OR CardNumer is A]
PFDecision -down-> CardInFoundation: PileToFoundationMove

CardInPile -right-> PPDecision: [< CardNumber AND DiferentColor \n OR CardNumer is K]
PPDecision -left-> CardInPile: PileToPileMove
' ' PFDecision - -> CardInPile
' ' WFDecision - -> CardInFoundation

WFDecision -right-> CardInFoundation: WasteToFoundationMove
CardInFoundation -right-> FPDecision: [< CardNumber AND DiferentColor]
FPDecision -up-> CardInPile: FoundationToPileMove





CardInFoundation -down-> GameFinal
GameFinal - -> RestartGame: [NoMoreMoves]
GameFinal - -> GameWin: [AreFoundationsFull]

RestartGame - -> [*]
GameWin - -> [*]

@enduml

@startuml StateDiagram
title Klondike  - State Diagram - Card
!pragma layout smetana

state CardInDeck
state CardInPile
state CardInStock
state CardInWaste
state CardInFoundation
state GameFinal <<choice>>
state RestartGame
state GameWin
state PPDecision <<choice>>
state PFDecision <<choice>>
state FPDecision <<choice>>
state WPDecision <<choice>>
state WFDecision <<choice>>

[*] -down-> CardInDeck
CardInDeck - -> CardInDeck: Shuflle
CardInDeck -left-> CardInStock: DealToStock
CardInDeck -down-> CardInPile: DealToPile


CardInStock -down-> CardInWaste: DealToWaste
CardInWaste -up-> CardInStock: WasteToStockMove

CardInWaste -right-> WPDecision: [< CardNumber AND DiferentColor \n OR CardNumer is K]
CardInWaste -down- -> WFDecision:[> CardNumber AND SameColor \n OR CardNumer is A]
WPDecision -right-> CardInPile: WasteToPileMove


CardInPile -down-> PFDecision: [> CardNumber AND SameColor \n OR CardNumer is A]
PFDecision -down-> CardInFoundation: PileToFoundationMove

CardInPile -right-> PPDecision: [< CardNumber AND DiferentColor \n OR CardNumer is K]
PPDecision -left-> CardInPile: PileToPileMove

WFDecision -right-> CardInFoundation: WasteToFoundationMove
CardInFoundation -right-> FPDecision: [< CardNumber AND DiferentColor]
FPDecision -up-> CardInPile: FoundationToPileMove





CardInFoundation -down-> GameFinal
GameFinal - -> RestartGame: [NoMoreMoves]
GameFinal - -> GameWin: [AreFoundationsFull]

RestartGame - -> [*]
GameWin - -> [*]

@enduml

PlantUML version 1.2022.5(Sat Apr 30 05:55:52 ECT 2022)
(GPL source distribution)
Java Runtime: OpenJDK Runtime Environment
JVM: OpenJDK 64-Bit Server VM
Default Encoding: UTF-8
Language: es
Country: EC
--></g></svg>