<?xml version="1.0" encoding="UTF-8" standalone="no"?><svg xmlns="http://www.w3.org/2000/svg" xmlns:xlink="http://www.w3.org/1999/xlink" contentStyleType="text/css" height="510px" preserveAspectRatio="none" style="width:453px;height:510px;background:#FFFFFF;" version="1.1" viewBox="0 0 453 510" width="453px" zoomAndPan="magnify"><defs/><g><rect height="26.4883" style="stroke:#00000000;stroke-width:1.0;fill:none;" width="435" x="5" y="5"/><text fill="#000000" font-family="sans-serif" font-size="14" font-weight="bold" lengthAdjust="spacing" textLength="425" x="10" y="23.5352">Klondike  - WasteToFoundationMove - User Case Diagram</text><g id="IN_GAME"><rect fill="#F1F1F1" height="50" rx="12.5" ry="12.5" style="stroke:#181818;stroke-width:0.5;" width="81" x="158" y="99.4883"/><line style="stroke:#181818;stroke-width:0.5;" x1="158" x2="239" y1="125.9766" y2="125.9766"/><text fill="#000000" font-family="sans-serif" font-size="14" lengthAdjust="spacing" textLength="61" x="168" y="118.0234">IN_GAME</text></g><g id="CARD_IN_WASTE"><rect fill="#F1F1F1" height="50" rx="12.5" ry="12.5" style="stroke:#181818;stroke-width:0.5;" width="134" x="131.5" y="202.4883"/><line style="stroke:#181818;stroke-width:0.5;" x1="131.5" x2="265.5" y1="228.9766" y2="228.9766"/><text fill="#000000" font-family="sans-serif" font-size="14" lengthAdjust="spacing" textLength="114" x="141.5" y="221.0234">CARD_IN_WASTE</text></g><g id="elem_if"><polygon fill="#F1F1F1" points="198.5,320.4883,210.5,332.4883,198.5,344.4883,186.5,332.4883,198.5,320.4883" style="stroke:#181818;stroke-width:0.5;"/></g><g id="CARD_IN_FOUNDATION"><rect fill="#F1F1F1" height="50" rx="12.5" ry="12.5" style="stroke:#181818;stroke-width:0.5;" width="180" x="45.5" y="397.4883"/><line style="stroke:#181818;stroke-width:0.5;" x1="45.5" x2="225.5" y1="423.9766" y2="423.9766"/><text fill="#000000" font-family="sans-serif" font-size="14" lengthAdjust="spacing" textLength="160" x="55.5" y="416.0234">CARD_IN_FOUNDATION</text></g><ellipse cx="198.5" cy="48.4883" fill="#222222" rx="10" ry="10" style="stroke:none;stroke-width:1.0;"/><ellipse cx="238.5" cy="494.4883" fill="none" rx="10" ry="10" style="stroke:#222222;stroke-width:1.0;"/><ellipse cx="239" cy="494.9883" fill="#222222" rx="6" ry="6" style="stroke:none;stroke-width:1.0;"/><path d="M198.5,62.7383 C198.5,72.4678 198.5,86.872 198.5,99.2127 " fill="none" style="stroke:#181818;stroke-width:1.0;"/><polygon fill="#181818" points="198.5,99.2127,202.5,90.2127,198.5,94.2127,194.5,90.2127,198.5,99.2127" style="stroke:#181818;stroke-width:1.0;"/><path d="M198.5,149.6803 C198.5,165.554 198.5,186.2392 198.5,202.1436 " fill="none" style="stroke:#181818;stroke-width:1.0;"/><polygon fill="#181818" points="198.5,202.1436,202.5,193.1436,198.5,197.1436,194.5,193.1436,198.5,202.1436" style="stroke:#181818;stroke-width:1.0;"/><text fill="#000000" font-family="sans-serif" font-size="13" lengthAdjust="spacing" textLength="174" x="199.5" y="181.0566">Player take card from Waste</text><path d="M198.5,252.6372 C198.5,274.0429 198.5,304.3296 198.5,320.4258 " fill="none" style="stroke:#181818;stroke-width:1.0;"/><polygon fill="#181818" points="198.5,320.4258,202.5,311.4258,198.5,315.4258,194.5,311.4258,198.5,320.4258" style="stroke:#181818;stroke-width:1.0;"/><text fill="#000000" font-family="sans-serif" font-size="13" lengthAdjust="spacing" textLength="201" x="199.5" y="284.0566">[&gt; CardNumber AND SameColor</text><text fill="#000000" font-family="sans-serif" font-size="13" lengthAdjust="spacing" textLength="125" x="241.5" y="299.3672">OR CardNumer is A]</text><path d="M186.496,333.6961 C167.884,334.7456 132.5402,339.8017 116.5,362.4883 C109.2314,372.7687 112.5754,385.9759 118.3497,397.2874 " fill="none" style="stroke:#181818;stroke-width:1.0;"/><polygon fill="#181818" points="118.3497,397.2874,117.8203,387.4528,116.0764,392.8341,110.695,391.0901,118.3497,397.2874" style="stroke:#181818;stroke-width:1.0;"/><text fill="#000000" font-family="sans-serif" font-size="13" lengthAdjust="spacing" textLength="149" x="117.5" y="376.0566">WasteToFondationMove</text><path d="M210.5208,334.596 C226.6592,336.8019 254.7716,343.3317 267.5,362.4883 C293.5268,401.6592 261.5664,460.2986 246.0438,484.4695 " fill="none" style="stroke:#181818;stroke-width:1.0;"/><polygon fill="#181818" points="246.0438,484.4695,254.2728,479.0581,248.7456,480.2624,247.5414,474.7352,246.0438,484.4695" style="stroke:#181818;stroke-width:1.0;"/><text fill="#000000" font-family="sans-serif" font-size="13" lengthAdjust="spacing" textLength="135" x="277.5" y="427.5566">TryAnotherMovement</text><path d="M170.084,447.6635 C190.422,461.8804 214.7195,478.8651 228.1984,488.2872 " fill="none" style="stroke:#181818;stroke-width:1.0;"/><polygon fill="#181818" points="228.1984,488.2872,223.1137,479.8524,224.1004,485.4226,218.5303,486.4093,228.1984,488.2872" style="stroke:#181818;stroke-width:1.0;"/><!--MD5=[73fc97f5fbcf7b0927ba2cc5bb6795ee]
@startuml UCWasteToFoundationMove
!pragma layout smetana
title Klondike  - WasteToFoundationMove - User Case Diagram

state IN_GAME
state CARD_IN_WASTE
state if <<choice>>
state CARD_IN_FOUNDATION

[*] - -> IN_GAME
IN_GAME - -> CARD_IN_WASTE: Player take card from Waste
CARD_IN_WASTE - -> if: [> CardNumber AND SameColor \n OR CardNumer is A]
if - -> CARD_IN_FOUNDATION: WasteToFondationMove
if - -> [*]: TryAnotherMovement
CARD_IN_FOUNDATION- -> [*]

@enduml

PlantUML version 1.2022.5(Sat Apr 30 05:55:52 ECT 2022)
(GPL source distribution)
Java Runtime: OpenJDK Runtime Environment
JVM: OpenJDK 64-Bit Server VM
Default Encoding: UTF-8
Language: es
Country: EC
--></g></svg>