<?xml version="1.0" encoding="UTF-8" standalone="no"?><svg xmlns="http://www.w3.org/2000/svg" xmlns:xlink="http://www.w3.org/1999/xlink" contentScriptType="application/ecmascript" contentStyleType="text/css" height="539px" preserveAspectRatio="none" style="width:626px;height:539px;background:#FFFFFF;" version="1.1" viewBox="0 0 626 539" width="626px" zoomAndPan="magnify"><defs><filter height="300%" id="f1l87kxnqatnx2" width="300%" x="-1" y="-1"><feGaussianBlur result="blurOut" stdDeviation="2.0"/><feColorMatrix in="blurOut" result="blurOut2" type="matrix" values="0 0 0 0 0 0 0 0 0 0 0 0 0 0 0 0 0 0 .4 0"/><feOffset dx="4.0" dy="4.0" in="blurOut2" result="blurOut3"/><feBlend in="SourceGraphic" in2="blurOut3" mode="normal"/></filter></defs><g><text fill="#000000" font-family="sans-serif" font-size="18" lengthAdjust="spacing" textLength="524" x="44.5" y="17.4023">Klondike  - Case of Use Diagram - WasteToFoundationMove</text><g id="IN_GAME"><rect fill="#FEFECE" filter="url(#f1l87kxnqatnx2)" height="50" rx="12.5" ry="12.5" style="stroke:#A80036;stroke-width:1.5;" width="81" x="273.5" y="89.1992"/><line style="stroke:#A80036;stroke-width:1.5;" x1="273.5" x2="354.5" y1="115.6875" y2="115.6875"/><text fill="#000000" font-family="sans-serif" font-size="14" lengthAdjust="spacing" textLength="61" x="283.5" y="107.7344">IN_GAME</text></g><g id="CARD_SELECTED"><rect fill="#FEFECE" filter="url(#f1l87kxnqatnx2)" height="50" rx="12.5" ry="12.5" style="stroke:#A80036;stroke-width:1.5;" width="134" x="247" y="192.1992"/><line style="stroke:#A80036;stroke-width:1.5;" x1="247" x2="381" y1="218.6875" y2="218.6875"/><text fill="#000000" font-family="sans-serif" font-size="14" lengthAdjust="spacing" textLength="114" x="257" y="210.7344">CARD_SELECTED</text></g><polygon fill="#FEFECE" filter="url(#f1l87kxnqatnx2)" points="314,295.1992,326,307.1992,314,319.1992,302,307.1992,314,295.1992" style="stroke:#A80036;stroke-width:1.5;"/><polygon fill="#FEFECE" filter="url(#f1l87kxnqatnx2)" points="187,385.1992,199,397.1992,187,409.1992,175,397.1992,187,385.1992" style="stroke:#A80036;stroke-width:1.5;"/><g id="CardToFoundatoin"><rect fill="#FEFECE" filter="url(#f1l87kxnqatnx2)" height="50" rx="12.5" ry="12.5" style="stroke:#A80036;stroke-width:1.5;" width="150" x="172" y="475.1992"/><line style="stroke:#A80036;stroke-width:1.5;" x1="172" x2="322" y1="501.6875" y2="501.6875"/><text fill="#000000" font-family="sans-serif" font-size="14" lengthAdjust="spacing" textLength="130" x="182" y="493.7344">CardToFoundatoin</text></g><ellipse cx="314" cy="38.1992" fill="#000000" filter="url(#f1l87kxnqatnx2)" rx="10" ry="10" style="stroke:none;stroke-width:1.0;"/><ellipse cx="113" cy="498.1992" filter="url(#f1l87kxnqatnx2)" rx="10" ry="10" style="stroke:#000000;stroke-width:1.0;fill:none;"/><ellipse cx="113.5" cy="498.6992" fill="#000000" rx="6" ry="6" style="stroke:none;stroke-width:1.0;"/><g id="CardToFoundation"><rect fill="#FEFECE" filter="url(#f1l87kxnqatnx2)" height="50" rx="12.5" ry="12.5" style="stroke:#A80036;stroke-width:1.5;" width="150" x="7" y="372.1992"/><line style="stroke:#A80036;stroke-width:1.5;" x1="7" x2="157" y1="398.6875" y2="398.6875"/><text fill="#000000" font-family="sans-serif" font-size="14" lengthAdjust="spacing" textLength="130" x="17" y="390.7344">CardToFoundation</text></g><path d="M314,52.4492 C314,62.1787 314,76.5829 314,88.9237 " fill="none" style="stroke:#A80036;stroke-width:1.0;"/><polygon fill="#A80036" points="314,88.9237,318,79.9237,314,83.9237,310,79.9237,314,88.9237" style="stroke:#A80036;stroke-width:1.0;"/><path d="M314,139.3912 C314,155.265 314,175.9501 314,191.8546 " fill="none" style="stroke:#A80036;stroke-width:1.0;"/><polygon fill="#A80036" points="314,191.8546,318,182.8546,314,186.8546,310,182.8546,314,191.8546" style="stroke:#A80036;stroke-width:1.0;"/><text fill="#000000" font-family="sans-serif" font-size="13" lengthAdjust="spacing" textLength="174" x="315" y="170.7676">Player take card from Waste</text><path d="M314,242.2456 C314,259.3443 314,281.5435 314,294.785 " fill="none" style="stroke:#A80036;stroke-width:1.0;"/><polygon fill="#A80036" points="314,294.785,318,285.785,314,289.785,310,285.785,314,294.785" style="stroke:#A80036;stroke-width:1.0;"/><text fill="#000000" font-family="sans-serif" font-size="13" lengthAdjust="spacing" textLength="199" x="315" y="273.7676">[isCardAsAndFoundationEmpty]</text><path d="M301.7667,308.299 C265.8222,308.8765 161.7557,312.6746 141,337.1992 C136.119,342.9665 137.5554,347.4746 141,354.1992 C147.242,366.385 155.8708,362.9875 166,372.1992 C170.2599,376.0732 174.5244,380.7605 178.0868,384.961 " fill="none" style="stroke:#A80036;stroke-width:1.0;"/><polygon fill="#A80036" points="178.0868,384.961,175.3162,375.5099,174.8528,381.1477,169.2149,380.6843,178.0868,384.961" style="stroke:#A80036;stroke-width:1.0;"/><text fill="#000000" font-family="sans-serif" font-size="13" lengthAdjust="spacing" textLength="331" x="142" y="350.7676">[isNextNumberAndSameColorThatCardInFoundation]</text><path d="M326.2869,308.483 C360.4139,309.5556 455.0913,314.5552 474,337.1992 C478.8428,342.9987 475.9696,346.9049 474,354.1992 C460.1891,405.3458 456.3396,425.3547 414,457.1992 C387.7184,476.9662 353.1891,487.5004 322.3524,493.0867 " fill="none" style="stroke:#A80036;stroke-width:1.0;"/><polygon fill="#A80036" points="322.3524,493.0867,331.9213,495.4183,327.2723,492.1954,330.4952,487.5465,322.3524,493.0867" style="stroke:#A80036;stroke-width:1.0;"/><text fill="#000000" font-family="sans-serif" font-size="13" lengthAdjust="spacing" textLength="149" x="469" y="402.2676">MoveCardToFoundation</text><path d="M193.6503,409.3939 C202.9867,425.1102 220.2193,454.1184 232.5748,474.9169 " fill="none" style="stroke:#A80036;stroke-width:1.0;"/><polygon fill="#A80036" points="232.5748,474.9169,231.4172,465.1363,230.0212,470.6182,224.5393,469.2222,232.5748,474.9169" style="stroke:#A80036;stroke-width:1.0;"/><text fill="#000000" font-family="sans-serif" font-size="13" lengthAdjust="spacing" textLength="188" x="221" y="453.7676">MoveCardToEmptyFoundation</text><path d="M178.798,409.3939 C164.5736,428.8082 135.4886,468.5053 121.2388,487.9544 " fill="none" style="stroke:#A80036;stroke-width:1.0;"/><polygon fill="#A80036" points="121.2388,487.9544,129.7846,483.0586,124.1939,483.9211,123.3313,478.3304,121.2388,487.9544" style="stroke:#A80036;stroke-width:1.0;"/><path d="M89.4253,422.3912 C95.802,443.1671 104.7085,472.1851 109.544,487.9392 " fill="none" style="stroke:#A80036;stroke-width:1.0;"/><polygon fill="#A80036" points="109.544,487.9392,110.7271,478.1617,108.0769,483.1593,103.0792,480.509,109.544,487.9392" style="stroke:#A80036;stroke-width:1.0;"/><!--MD5=[6443d30e6c97cc9573c3082b2485505e]
@startuml UseCaseWasteToFoundationMove
!pragma layout smetana
title Klondike  - Case of Use Diagram - WasteToFoundationMove


state IN_GAME
state CARD_SELECTED
state if <<choice>>
state if2 <<choice>>

state CardToFoundatoin


[*] - -> IN_GAME
IN_GAME - -> CARD_SELECTED: Player take card from Waste
CARD_SELECTED - -> if: [isCardAsAndFoundationEmpty]
if - -> if2:[isNextNumberAndSameColorThatCardInFoundation]
if - -> CardToFoundatoin: MoveCardToFoundation
if2 - -> CardToFoundatoin: MoveCardToEmptyFoundation
if2 - -> [*]


CardToFoundation- -> [*]

@enduml

PlantUML version 1.2022.0(Tue Jan 11 11:16:42 ECT 2022)
(GPL source distribution)
Java Runtime: OpenJDK Runtime Environment
JVM: OpenJDK 64-Bit Server VM
Default Encoding: UTF-8
Language: es
Country: EC
--></g></svg>