<?xml version="1.0" encoding="UTF-8" standalone="no"?><svg xmlns="http://www.w3.org/2000/svg" xmlns:xlink="http://www.w3.org/1999/xlink" contentScriptType="application/ecmascript" contentStyleType="text/css" height="1297px" preserveAspectRatio="none" style="width:1516px;height:1297px;background:#FFFFFF;" version="1.1" viewBox="0 0 1516 1297" width="1516px" zoomAndPan="magnify"><defs><filter height="300%" id="f10wdy8jznmxgp" width="300%" x="-1" y="-1"><feGaussianBlur result="blurOut" stdDeviation="2.0"/><feColorMatrix in="blurOut" result="blurOut2" type="matrix" values="0 0 0 0 0 0 0 0 0 0 0 0 0 0 0 0 0 0 .4 0"/><feOffset dx="4.0" dy="4.0" in="blurOut2" result="blurOut3"/><feBlend in="SourceGraphic" in2="blurOut3" mode="normal"/></filter></defs><g><text fill="#000000" font-family="sans-serif" font-size="18" lengthAdjust="spacing" textLength="302" x="606.25" y="27.4023">Klondike  - Detail Activity Diagram</text><ellipse cx="765.25" cy="41.1992" fill="#000000" filter="url(#f10wdy8jznmxgp)" rx="10" ry="10" style="stroke:none;stroke-width:1.0;"/><rect fill="#FEFECE" filter="url(#f10wdy8jznmxgp)" height="34.1328" rx="12.5" ry="12.5" style="stroke:#A80036;stroke-width:1.5;" width="58" x="736.25" y="71.1992"/><text fill="#000000" font-family="sans-serif" font-size="12" lengthAdjust="spacing" textLength="38" x="746.25" y="92.8008">Shuffle</text><rect fill="#FEFECE" filter="url(#f10wdy8jznmxgp)" height="34.1328" rx="12.5" ry="12.5" style="stroke:#A80036;stroke-width:1.5;" width="113" x="708.75" y="125.332"/><text fill="#000000" font-family="sans-serif" font-size="12" lengthAdjust="spacing" textLength="93" x="718.75" y="146.9336">DealToPile Pile1</text><rect fill="#FEFECE" filter="url(#f10wdy8jznmxgp)" height="34.1328" rx="12.5" ry="12.5" style="stroke:#A80036;stroke-width:1.5;" width="117" x="706.75" y="235.5996"/><text fill="#000000" font-family="sans-serif" font-size="12" lengthAdjust="spacing" textLength="97" x="716.75" y="257.2012">move toNext Pile</text><rect fill="#FEFECE" filter="url(#f10wdy8jznmxgp)" height="34.1328" rx="12.5" ry="12.5" style="stroke:#A80036;stroke-width:1.5;" width="81" x="724.75" y="289.7324"/><text fill="#000000" font-family="sans-serif" font-size="12" lengthAdjust="spacing" textLength="61" x="734.75" y="311.334">DealToPile</text><rect fill="#FEFECE" filter="url(#f10wdy8jznmxgp)" height="34.1328" rx="12.5" ry="12.5" style="stroke:#A80036;stroke-width:1.5;" width="81" x="724.75" y="412.9336"/><text fill="#000000" font-family="sans-serif" font-size="12" lengthAdjust="spacing" textLength="61" x="734.75" y="434.5352">DealToPile</text><polygon fill="#FEFECE" filter="url(#f10wdy8jznmxgp)" points="668.25,356.7988,862.25,356.7988,874.25,368.7988,862.25,380.7988,668.25,380.7988,656.25,368.7988,668.25,356.7988" style="stroke:#A80036;stroke-width:1.5;"/><text fill="#000000" font-family="sans-serif" font-size="11" lengthAdjust="spacing" textLength="15" x="769.25" y="391.4336">No</text><text fill="#000000" font-family="sans-serif" font-size="11" lengthAdjust="spacing" textLength="194" x="668.25" y="372.9561">areIn Pile oneCardMoreThanLast Pile</text><text fill="#000000" font-family="sans-serif" font-size="11" lengthAdjust="spacing" textLength="19" x="637.25" y="366.4785">Yes</text><polygon fill="#FEFECE" filter="url(#f10wdy8jznmxgp)" points="697.75,179.4648,832.75,179.4648,844.75,191.4648,832.75,203.4648,697.75,203.4648,685.75,191.4648,697.75,179.4648" style="stroke:#A80036;stroke-width:1.5;"/><text fill="#000000" font-family="sans-serif" font-size="11" lengthAdjust="spacing" textLength="15" x="769.25" y="214.0996">No</text><text fill="#000000" font-family="sans-serif" font-size="11" lengthAdjust="spacing" textLength="135" x="697.75" y="195.6221">areSeven Pile on Klondike</text><text fill="#000000" font-family="sans-serif" font-size="11" lengthAdjust="spacing" textLength="19" x="666.75" y="189.1445">Yes</text><rect fill="#FEFECE" filter="url(#f10wdy8jznmxgp)" height="34.1328" rx="12.5" ry="12.5" style="stroke:#A80036;stroke-width:1.5;" width="186" x="672.25" y="511.0664"/><text fill="#000000" font-family="sans-serif" font-size="12" lengthAdjust="spacing" textLength="166" x="682.25" y="532.668">turnUp firstCard on each Pile</text><rect fill="#FEFECE" filter="url(#f10wdy8jznmxgp)" height="34.1328" rx="12.5" ry="12.5" style="stroke:#A80036;stroke-width:1.5;" width="91" x="719.75" y="565.1992"/><text fill="#000000" font-family="sans-serif" font-size="12" lengthAdjust="spacing" textLength="71" x="729.75" y="586.8008">DealToStock</text><rect fill="#FEFECE" filter="url(#f10wdy8jznmxgp)" height="34.1328" rx="12.5" ry="12.5" style="stroke:#A80036;stroke-width:1.5;" width="95" x="717.75" y="619.332"/><text fill="#000000" font-family="sans-serif" font-size="12" lengthAdjust="spacing" textLength="75" x="727.75" y="640.9336">DealToWaste</text><polygon fill="#FEFECE" filter="url(#f10wdy8jznmxgp)" points="725.75,717.4648,804.75,717.4648,816.75,729.4648,804.75,741.4648,725.75,741.4648,713.75,729.4648,725.75,717.4648" style="stroke:#A80036;stroke-width:1.5;"/><text fill="#000000" font-family="sans-serif" font-size="11" lengthAdjust="spacing" textLength="79" x="725.75" y="733.6221">isSelectedCard</text><polygon fill="#FEFECE" filter="url(#f10wdy8jznmxgp)" points="230,761.4648,293,761.4648,305,773.4648,293,785.4648,230,785.4648,218,773.4648,230,761.4648" style="stroke:#A80036;stroke-width:1.5;"/><text fill="#000000" font-family="sans-serif" font-size="11" lengthAdjust="spacing" textLength="63" x="230" y="777.6221">isCardInPile</text><rect fill="#FEFECE" filter="url(#f10wdy8jznmxgp)" height="34.1328" rx="12.5" ry="12.5" style="stroke:#A80036;stroke-width:1.5;" width="105" x="89" y="855.8525"/><text fill="#000000" font-family="sans-serif" font-size="12" lengthAdjust="spacing" textLength="85" x="99" y="877.4541">PileToPileMove</text><polygon fill="#FEFECE" filter="url(#f10wdy8jznmxgp)" points="48,805.4648,235,805.4648,247,818.4199,235,831.375,48,831.375,36,818.4199,48,805.4648" style="stroke:#A80036;stroke-width:1.5;"/><text fill="#000000" font-family="sans-serif" font-size="11" lengthAdjust="spacing" textLength="18" x="145.5" y="842.0098">yes</text><text fill="#000000" font-family="sans-serif" font-size="11" lengthAdjust="spacing" textLength="184" x="48" y="816.0996">&lt; CardNumber AND DiferentColor</text><text fill="#000000" font-family="sans-serif" font-size="11" lengthAdjust="spacing" textLength="103" x="51" y="829.0547">OR CardNumer is K</text><text fill="#000000" font-family="sans-serif" font-size="11" lengthAdjust="spacing" textLength="14" x="247" y="816.0996">no</text><polygon fill="#FEFECE" filter="url(#f10wdy8jznmxgp)" points="141.5,914.4629,153.5,926.4629,141.5,938.4629,129.5,926.4629,141.5,914.4629" style="stroke:#A80036;stroke-width:1.5;"/><rect fill="#FEFECE" filter="url(#f10wdy8jznmxgp)" height="34.1328" rx="12.5" ry="12.5" style="stroke:#A80036;stroke-width:1.5;" width="148" x="303" y="855.8525"/><text fill="#000000" font-family="sans-serif" font-size="12" lengthAdjust="spacing" textLength="128" x="313" y="877.4541">PileToFoundationMove</text><polygon fill="#FEFECE" filter="url(#f10wdy8jznmxgp)" points="291,805.4648,463,805.4648,475,818.4199,463,831.375,291,831.375,279,818.4199,291,805.4648" style="stroke:#A80036;stroke-width:1.5;"/><text fill="#000000" font-family="sans-serif" font-size="11" lengthAdjust="spacing" textLength="18" x="381" y="842.0098">yes</text><text fill="#000000" font-family="sans-serif" font-size="11" lengthAdjust="spacing" textLength="169" x="291" y="816.0996">&gt; CardNumber AND SameColor</text><text fill="#000000" font-family="sans-serif" font-size="11" lengthAdjust="spacing" textLength="104" x="294" y="829.0547">OR CardNumer is A</text><text fill="#000000" font-family="sans-serif" font-size="11" lengthAdjust="spacing" textLength="14" x="475" y="816.0996">no</text><polygon fill="#FEFECE" filter="url(#f10wdy8jznmxgp)" points="377,914.4629,389,926.4629,377,938.4629,365,926.4629,377,914.4629" style="stroke:#A80036;stroke-width:1.5;"/><polygon fill="#FEFECE" filter="url(#f10wdy8jznmxgp)" points="261.5,981.418,261.5,981.418,273.5,993.418,261.5,1005.418,261.5,1005.418,249.5,993.418,261.5,981.418" style="stroke:#A80036;stroke-width:1.5;"/><polygon fill="#FEFECE" filter="url(#f10wdy8jznmxgp)" points="841.25,761.4648,917.25,761.4648,929.25,773.4648,917.25,785.4648,841.25,785.4648,829.25,773.4648,841.25,761.4648" style="stroke:#A80036;stroke-width:1.5;"/><text fill="#000000" font-family="sans-serif" font-size="11" lengthAdjust="spacing" textLength="76" x="841.25" y="777.6221">isCardInWaste</text><polygon fill="#FEFECE" filter="url(#f10wdy8jznmxgp)" points="582.5,805.4648,769.5,805.4648,781.5,818.4199,769.5,831.375,582.5,831.375,570.5,818.4199,582.5,805.4648" style="stroke:#A80036;stroke-width:1.5;"/><text fill="#000000" font-family="sans-serif" font-size="11" lengthAdjust="spacing" textLength="184" x="582.5" y="816.0996">&lt; CardNumber AND DiferentColor</text><text fill="#000000" font-family="sans-serif" font-size="11" lengthAdjust="spacing" textLength="103" x="585.5" y="829.0547">OR CardNumer is K</text><text fill="#000000" font-family="sans-serif" font-size="11" lengthAdjust="spacing" textLength="18" x="552.5" y="816.0996">yes</text><text fill="#000000" font-family="sans-serif" font-size="11" lengthAdjust="spacing" textLength="14" x="781.5" y="816.0996">no</text><rect fill="#FEFECE" filter="url(#f10wdy8jznmxgp)" height="34.1328" rx="12.5" ry="12.5" style="stroke:#A80036;stroke-width:1.5;" width="119" x="501" y="841.375"/><text fill="#000000" font-family="sans-serif" font-size="12" lengthAdjust="spacing" textLength="99" x="511" y="862.9766">WasteToPileMove</text><rect fill="#FEFECE" filter="url(#f10wdy8jznmxgp)" height="34.1328" rx="12.5" ry="12.5" style="stroke:#A80036;stroke-width:1.5;" width="129" x="727" y="841.375"/><text fill="#000000" font-family="sans-serif" font-size="12" lengthAdjust="spacing" textLength="109" x="737" y="862.9766">WasteToStockMove</text><polygon fill="#FEFECE" filter="url(#f10wdy8jznmxgp)" points="676,881.5078,688,893.5078,676,905.5078,664,893.5078,676,881.5078" style="stroke:#A80036;stroke-width:1.5;"/><polygon fill="#FEFECE" filter="url(#f10wdy8jznmxgp)" points="999,805.4648,1171,805.4648,1183,818.4199,1171,831.375,999,831.375,987,818.4199,999,805.4648" style="stroke:#A80036;stroke-width:1.5;"/><text fill="#000000" font-family="sans-serif" font-size="11" lengthAdjust="spacing" textLength="169" x="999" y="816.0996">&gt; CardNumber AND SameColor</text><text fill="#000000" font-family="sans-serif" font-size="11" lengthAdjust="spacing" textLength="104" x="1002" y="829.0547">OR CardNumer is A</text><text fill="#000000" font-family="sans-serif" font-size="11" lengthAdjust="spacing" textLength="18" x="969" y="816.0996">yes</text><text fill="#000000" font-family="sans-serif" font-size="11" lengthAdjust="spacing" textLength="14" x="1183" y="816.0996">no</text><rect fill="#FEFECE" filter="url(#f10wdy8jznmxgp)" height="34.1328" rx="12.5" ry="12.5" style="stroke:#A80036;stroke-width:1.5;" width="162" x="896" y="841.375"/><text fill="#000000" font-family="sans-serif" font-size="12" lengthAdjust="spacing" textLength="142" x="906" y="862.9766">WasteToFoundationMove</text><rect fill="#FEFECE" filter="url(#f10wdy8jznmxgp)" height="34.1328" rx="12.5" ry="12.5" style="stroke:#A80036;stroke-width:1.5;" width="129" x="1128.5" y="841.375"/><text fill="#000000" font-family="sans-serif" font-size="12" lengthAdjust="spacing" textLength="109" x="1138.5" y="862.9766">WasteToStockMove</text><polygon fill="#FEFECE" filter="url(#f10wdy8jznmxgp)" points="1085,881.5078,1097,893.5078,1085,905.5078,1073,893.5078,1085,881.5078" style="stroke:#A80036;stroke-width:1.5;"/><polygon fill="#FEFECE" filter="url(#f10wdy8jznmxgp)" points="879.25,948.4629,879.25,948.4629,891.25,960.4629,879.25,972.4629,879.25,972.4629,867.25,960.4629,879.25,948.4629" style="stroke:#A80036;stroke-width:1.5;"/><polygon fill="#FEFECE" filter="url(#f10wdy8jznmxgp)" points="1326,761.4648,1432,761.4648,1444,773.4648,1432,785.4648,1326,785.4648,1314,773.4648,1326,761.4648" style="stroke:#A80036;stroke-width:1.5;"/><text fill="#000000" font-family="sans-serif" font-size="11" lengthAdjust="spacing" textLength="106" x="1326" y="777.6221">isCardInFoundation</text><rect fill="#FEFECE" filter="url(#f10wdy8jznmxgp)" height="34.1328" rx="12.5" ry="12.5" style="stroke:#A80036;stroke-width:1.5;" width="105" x="1320.5" y="855.8525"/><text fill="#000000" font-family="sans-serif" font-size="12" lengthAdjust="spacing" textLength="85" x="1330.5" y="877.4541">PileToPileMove</text><polygon fill="#FEFECE" filter="url(#f10wdy8jznmxgp)" points="1279.5,805.4648,1466.5,805.4648,1478.5,818.4199,1466.5,831.375,1279.5,831.375,1267.5,818.4199,1279.5,805.4648" style="stroke:#A80036;stroke-width:1.5;"/><text fill="#000000" font-family="sans-serif" font-size="11" lengthAdjust="spacing" textLength="18" x="1377" y="842.0098">yes</text><text fill="#000000" font-family="sans-serif" font-size="11" lengthAdjust="spacing" textLength="184" x="1279.5" y="816.0996">&lt; CardNumber AND DiferentColor</text><text fill="#000000" font-family="sans-serif" font-size="11" lengthAdjust="spacing" textLength="103" x="1282.5" y="829.0547">OR CardNumer is K</text><text fill="#000000" font-family="sans-serif" font-size="11" lengthAdjust="spacing" textLength="14" x="1478.5" y="816.0996">no</text><polygon fill="#FEFECE" filter="url(#f10wdy8jznmxgp)" points="1373,914.4629,1385,926.4629,1373,938.4629,1361,926.4629,1373,914.4629" style="stroke:#A80036;stroke-width:1.5;"/><polygon fill="#FEFECE" filter="url(#f10wdy8jznmxgp)" points="1379,981.418,1379,981.418,1391,993.418,1379,1005.418,1379,1005.418,1367,993.418,1379,981.418" style="stroke:#A80036;stroke-width:1.5;"/><polygon fill="#FEFECE" filter="url(#f10wdy8jznmxgp)" points="765.25,1015.418,765.25,1015.418,777.25,1027.418,765.25,1039.418,765.25,1039.418,753.25,1027.418,765.25,1015.418" style="stroke:#A80036;stroke-width:1.5;"/><polygon fill="#FEFECE" filter="url(#f10wdy8jznmxgp)" points="720.75,1059.418,809.75,1059.418,821.75,1071.418,809.75,1083.418,720.75,1083.418,708.75,1071.418,720.75,1059.418" style="stroke:#A80036;stroke-width:1.5;"/><text fill="#000000" font-family="sans-serif" font-size="11" lengthAdjust="spacing" textLength="89" x="720.75" y="1075.5752">isFoundationFull</text><text fill="#000000" font-family="sans-serif" font-size="11" lengthAdjust="spacing" textLength="18" x="690.75" y="1069.0977">yes</text><text fill="#000000" font-family="sans-serif" font-size="11" lengthAdjust="spacing" textLength="14" x="821.75" y="1069.0977">no</text><rect fill="#FEFECE" filter="url(#f10wdy8jznmxgp)" height="34.1328" rx="12.5" ry="12.5" style="stroke:#A80036;stroke-width:1.5;" width="74" x="661.75" y="1093.418"/><text fill="#000000" font-family="sans-serif" font-size="12" lengthAdjust="spacing" textLength="54" x="671.75" y="1115.0195">WinGame</text><rect fill="#FEFECE" filter="url(#f10wdy8jznmxgp)" height="34.1328" rx="12.5" ry="12.5" style="stroke:#A80036;stroke-width:1.5;" width="61" x="801.25" y="1141.8955"/><text fill="#000000" font-family="sans-serif" font-size="12" lengthAdjust="spacing" textLength="41" x="811.25" y="1163.4971">Restart</text><polygon fill="#FEFECE" filter="url(#f10wdy8jznmxgp)" points="788.75,1093.418,874.75,1093.418,886.75,1105.418,874.75,1117.418,788.75,1117.418,776.75,1105.418,788.75,1093.418" style="stroke:#A80036;stroke-width:1.5;"/><text fill="#000000" font-family="sans-serif" font-size="11" lengthAdjust="spacing" textLength="14" x="835.75" y="1128.0527">no</text><text fill="#000000" font-family="sans-serif" font-size="11" lengthAdjust="spacing" textLength="86" x="788.75" y="1109.5752">haveMoreMoves</text><text fill="#000000" font-family="sans-serif" font-size="11" lengthAdjust="spacing" textLength="18" x="886.75" y="1103.0977">yes</text><polygon fill="#FEFECE" filter="url(#f10wdy8jznmxgp)" points="765.25,673.4648,765.25,673.4648,777.25,685.4648,765.25,697.4648,765.25,697.4648,753.25,685.4648,765.25,673.4648" style="stroke:#A80036;stroke-width:1.5;"/><ellipse cx="765.25" cy="1269.0283" fill="#FFFFFF" filter="url(#f10wdy8jznmxgp)" rx="11" ry="11" style="stroke:#000000;stroke-width:1.0;"/><ellipse cx="765.25" cy="1269.0283" fill="#000000" rx="6" ry="6" style="stroke:#7F7F7F;stroke-width:1.0;"/><line style="stroke:#A80036;stroke-width:1.5;" x1="765.25" x2="765.25" y1="51.1992" y2="71.1992"/><polygon fill="#A80036" points="761.25,61.1992,765.25,71.1992,769.25,61.1992,765.25,65.1992" style="stroke:#A80036;stroke-width:1.0;"/><line style="stroke:#A80036;stroke-width:1.5;" x1="765.25" x2="765.25" y1="105.332" y2="125.332"/><polygon fill="#A80036" points="761.25,115.332,765.25,125.332,769.25,115.332,765.25,119.332" style="stroke:#A80036;stroke-width:1.0;"/><line style="stroke:#A80036;stroke-width:1.5;" x1="765.25" x2="765.25" y1="269.7324" y2="289.7324"/><polygon fill="#A80036" points="761.25,279.7324,765.25,289.7324,769.25,279.7324,765.25,283.7324" style="stroke:#A80036;stroke-width:1.0;"/><line style="stroke:#A80036;stroke-width:1.5;" x1="765.25" x2="765.25" y1="380.7988" y2="412.9336"/><polygon fill="#A80036" points="761.25,402.9336,765.25,412.9336,769.25,402.9336,765.25,406.9336" style="stroke:#A80036;stroke-width:1.0;"/><line style="stroke:#A80036;stroke-width:1.5;" x1="765.25" x2="765.25" y1="447.0664" y2="457.0664"/><line style="stroke:#A80036;stroke-width:1.5;" x1="765.25" x2="886.25" y1="457.0664" y2="457.0664"/><polygon fill="#A80036" points="882.25,421.5225,886.25,411.5225,890.25,421.5225,886.25,417.5225" style="stroke:#A80036;stroke-width:1.5;"/><line style="stroke:#A80036;stroke-width:1.5;" x1="886.25" x2="886.25" y1="368.7988" y2="457.0664"/><line style="stroke:#A80036;stroke-width:1.5;" x1="886.25" x2="874.25" y1="368.7988" y2="368.7988"/><polygon fill="#A80036" points="884.25,364.7988,874.25,368.7988,884.25,372.7988,880.25,368.7988" style="stroke:#A80036;stroke-width:1.0;"/><line style="stroke:#A80036;stroke-width:1.5;" x1="656.25" x2="644.25" y1="368.7988" y2="368.7988"/><polygon fill="#A80036" points="640.25,407.5225,644.25,417.5225,648.25,407.5225,644.25,411.5225" style="stroke:#A80036;stroke-width:1.5;"/><line style="stroke:#A80036;stroke-width:1.5;" x1="644.25" x2="644.25" y1="368.7988" y2="469.0664"/><line style="stroke:#A80036;stroke-width:1.5;" x1="644.25" x2="898.25" y1="469.0664" y2="469.0664"/><line style="stroke:#A80036;stroke-width:1.5;" x1="898.25" x2="898.25" y1="191.4648" y2="469.0664"/><line style="stroke:#A80036;stroke-width:1.5;" x1="898.25" x2="844.75" y1="191.4648" y2="191.4648"/><polygon fill="#A80036" points="854.75,187.4648,844.75,191.4648,854.75,195.4648,850.75,191.4648" style="stroke:#A80036;stroke-width:1.0;"/><line style="stroke:#A80036;stroke-width:1.5;" x1="765.25" x2="765.25" y1="323.8652" y2="356.7988"/><polygon fill="#A80036" points="761.25,346.7988,765.25,356.7988,769.25,346.7988,765.25,350.7988" style="stroke:#A80036;stroke-width:1.0;"/><line style="stroke:#A80036;stroke-width:1.5;" x1="765.25" x2="765.25" y1="203.4648" y2="235.5996"/><polygon fill="#A80036" points="761.25,225.5996,765.25,235.5996,769.25,225.5996,765.25,229.5996" style="stroke:#A80036;stroke-width:1.0;"/><line style="stroke:#A80036;stroke-width:1.5;" x1="685.75" x2="620.25" y1="191.4648" y2="191.4648"/><polygon fill="#A80036" points="616.25,326.7988,620.25,336.7988,624.25,326.7988,620.25,330.7988" style="stroke:#A80036;stroke-width:1.5;"/><line style="stroke:#A80036;stroke-width:1.5;" x1="620.25" x2="620.25" y1="191.4648" y2="491.0664"/><line style="stroke:#A80036;stroke-width:1.5;" x1="620.25" x2="765.25" y1="491.0664" y2="491.0664"/><line style="stroke:#A80036;stroke-width:1.5;" x1="765.25" x2="765.25" y1="491.0664" y2="511.0664"/><polygon fill="#A80036" points="761.25,501.0664,765.25,511.0664,769.25,501.0664,765.25,505.0664" style="stroke:#A80036;stroke-width:1.0;"/><line style="stroke:#A80036;stroke-width:1.5;" x1="765.25" x2="765.25" y1="159.4648" y2="179.4648"/><polygon fill="#A80036" points="761.25,169.4648,765.25,179.4648,769.25,169.4648,765.25,173.4648" style="stroke:#A80036;stroke-width:1.0;"/><line style="stroke:#A80036;stroke-width:1.5;" x1="765.25" x2="765.25" y1="545.1992" y2="565.1992"/><polygon fill="#A80036" points="761.25,555.1992,765.25,565.1992,769.25,555.1992,765.25,559.1992" style="stroke:#A80036;stroke-width:1.0;"/><line style="stroke:#A80036;stroke-width:1.5;" x1="765.25" x2="765.25" y1="599.332" y2="619.332"/><polygon fill="#A80036" points="761.25,609.332,765.25,619.332,769.25,609.332,765.25,613.332" style="stroke:#A80036;stroke-width:1.0;"/><line style="stroke:#A80036;stroke-width:1.5;" x1="141.5" x2="141.5" y1="831.375" y2="855.8525"/><polygon fill="#A80036" points="137.5,845.8525,141.5,855.8525,145.5,845.8525,141.5,849.8525" style="stroke:#A80036;stroke-width:1.0;"/><line style="stroke:#A80036;stroke-width:1.5;" x1="247" x2="259" y1="818.4199" y2="818.4199"/><polygon fill="#A80036" points="255,862.4414,259,872.4414,263,862.4414,259,866.4414" style="stroke:#A80036;stroke-width:1.5;"/><line style="stroke:#A80036;stroke-width:1.5;" x1="259" x2="259" y1="818.4199" y2="926.4629"/><line style="stroke:#A80036;stroke-width:1.5;" x1="259" x2="153.5" y1="926.4629" y2="926.4629"/><polygon fill="#A80036" points="163.5,922.4629,153.5,926.4629,163.5,930.4629,159.5,926.4629" style="stroke:#A80036;stroke-width:1.0;"/><line style="stroke:#A80036;stroke-width:1.5;" x1="141.5" x2="141.5" y1="889.9854" y2="914.4629"/><polygon fill="#A80036" points="137.5,904.4629,141.5,914.4629,145.5,904.4629,141.5,908.4629" style="stroke:#A80036;stroke-width:1.0;"/><line style="stroke:#A80036;stroke-width:1.5;" x1="377" x2="377" y1="831.375" y2="855.8525"/><polygon fill="#A80036" points="373,845.8525,377,855.8525,381,845.8525,377,849.8525" style="stroke:#A80036;stroke-width:1.0;"/><line style="stroke:#A80036;stroke-width:1.5;" x1="475" x2="487" y1="818.4199" y2="818.4199"/><polygon fill="#A80036" points="483,862.4414,487,872.4414,491,862.4414,487,866.4414" style="stroke:#A80036;stroke-width:1.5;"/><line style="stroke:#A80036;stroke-width:1.5;" x1="487" x2="487" y1="818.4199" y2="926.4629"/><line style="stroke:#A80036;stroke-width:1.5;" x1="487" x2="389" y1="926.4629" y2="926.4629"/><polygon fill="#A80036" points="399,922.4629,389,926.4629,399,930.4629,395,926.4629" style="stroke:#A80036;stroke-width:1.0;"/><line style="stroke:#A80036;stroke-width:1.5;" x1="377" x2="377" y1="889.9854" y2="914.4629"/><polygon fill="#A80036" points="373,904.4629,377,914.4629,381,904.4629,377,908.4629" style="stroke:#A80036;stroke-width:1.0;"/><line style="stroke:#A80036;stroke-width:1.5;" x1="218" x2="141.5" y1="773.4648" y2="773.4648"/><line style="stroke:#A80036;stroke-width:1.5;" x1="141.5" x2="141.5" y1="773.4648" y2="805.4648"/><polygon fill="#A80036" points="137.5,795.4648,141.5,805.4648,145.5,795.4648,141.5,799.4648" style="stroke:#A80036;stroke-width:1.0;"/><line style="stroke:#A80036;stroke-width:1.5;" x1="305" x2="377" y1="773.4648" y2="773.4648"/><line style="stroke:#A80036;stroke-width:1.5;" x1="377" x2="377" y1="773.4648" y2="805.4648"/><polygon fill="#A80036" points="373,795.4648,377,805.4648,381,795.4648,377,799.4648" style="stroke:#A80036;stroke-width:1.0;"/><line style="stroke:#A80036;stroke-width:1.5;" x1="141.5" x2="141.5" y1="938.4629" y2="993.418"/><line style="stroke:#A80036;stroke-width:1.5;" x1="141.5" x2="249.5" y1="993.418" y2="993.418"/><polygon fill="#A80036" points="239.5,989.418,249.5,993.418,239.5,997.418,243.5,993.418" style="stroke:#A80036;stroke-width:1.0;"/><line style="stroke:#A80036;stroke-width:1.5;" x1="377" x2="377" y1="938.4629" y2="993.418"/><line style="stroke:#A80036;stroke-width:1.5;" x1="377" x2="273.5" y1="993.418" y2="993.418"/><polygon fill="#A80036" points="283.5,989.418,273.5,993.418,283.5,997.418,279.5,993.418" style="stroke:#A80036;stroke-width:1.0;"/><line style="stroke:#A80036;stroke-width:1.5;" x1="570.5" x2="560.5" y1="818.4199" y2="818.4199"/><line style="stroke:#A80036;stroke-width:1.5;" x1="560.5" x2="560.5" y1="818.4199" y2="841.375"/><polygon fill="#A80036" points="556.5,831.375,560.5,841.375,564.5,831.375,560.5,835.375" style="stroke:#A80036;stroke-width:1.0;"/><line style="stroke:#A80036;stroke-width:1.5;" x1="781.5" x2="791.5" y1="818.4199" y2="818.4199"/><line style="stroke:#A80036;stroke-width:1.5;" x1="791.5" x2="791.5" y1="818.4199" y2="841.375"/><polygon fill="#A80036" points="787.5,831.375,791.5,841.375,795.5,831.375,791.5,835.375" style="stroke:#A80036;stroke-width:1.0;"/><line style="stroke:#A80036;stroke-width:1.5;" x1="560.5" x2="560.5" y1="875.5078" y2="893.5078"/><line style="stroke:#A80036;stroke-width:1.5;" x1="560.5" x2="664" y1="893.5078" y2="893.5078"/><polygon fill="#A80036" points="654,889.5078,664,893.5078,654,897.5078,658,893.5078" style="stroke:#A80036;stroke-width:1.0;"/><line style="stroke:#A80036;stroke-width:1.5;" x1="791.5" x2="791.5" y1="875.5078" y2="893.5078"/><line style="stroke:#A80036;stroke-width:1.5;" x1="791.5" x2="688" y1="893.5078" y2="893.5078"/><polygon fill="#A80036" points="698,889.5078,688,893.5078,698,897.5078,694,893.5078" style="stroke:#A80036;stroke-width:1.0;"/><line style="stroke:#A80036;stroke-width:1.5;" x1="987" x2="977" y1="818.4199" y2="818.4199"/><line style="stroke:#A80036;stroke-width:1.5;" x1="977" x2="977" y1="818.4199" y2="841.375"/><polygon fill="#A80036" points="973,831.375,977,841.375,981,831.375,977,835.375" style="stroke:#A80036;stroke-width:1.0;"/><line style="stroke:#A80036;stroke-width:1.5;" x1="1183" x2="1193" y1="818.4199" y2="818.4199"/><line style="stroke:#A80036;stroke-width:1.5;" x1="1193" x2="1193" y1="818.4199" y2="841.375"/><polygon fill="#A80036" points="1189,831.375,1193,841.375,1197,831.375,1193,835.375" style="stroke:#A80036;stroke-width:1.0;"/><line style="stroke:#A80036;stroke-width:1.5;" x1="977" x2="977" y1="875.5078" y2="893.5078"/><line style="stroke:#A80036;stroke-width:1.5;" x1="977" x2="1073" y1="893.5078" y2="893.5078"/><polygon fill="#A80036" points="1063,889.5078,1073,893.5078,1063,897.5078,1067,893.5078" style="stroke:#A80036;stroke-width:1.0;"/><line style="stroke:#A80036;stroke-width:1.5;" x1="1193" x2="1193" y1="875.5078" y2="893.5078"/><line style="stroke:#A80036;stroke-width:1.5;" x1="1193" x2="1097" y1="893.5078" y2="893.5078"/><polygon fill="#A80036" points="1107,889.5078,1097,893.5078,1107,897.5078,1103,893.5078" style="stroke:#A80036;stroke-width:1.0;"/><line style="stroke:#A80036;stroke-width:1.5;" x1="829.25" x2="676" y1="773.4648" y2="773.4648"/><line style="stroke:#A80036;stroke-width:1.5;" x1="676" x2="676" y1="773.4648" y2="805.4648"/><polygon fill="#A80036" points="672,795.4648,676,805.4648,680,795.4648,676,799.4648" style="stroke:#A80036;stroke-width:1.0;"/><line style="stroke:#A80036;stroke-width:1.5;" x1="929.25" x2="1085" y1="773.4648" y2="773.4648"/><line style="stroke:#A80036;stroke-width:1.5;" x1="1085" x2="1085" y1="773.4648" y2="805.4648"/><polygon fill="#A80036" points="1081,795.4648,1085,805.4648,1089,795.4648,1085,799.4648" style="stroke:#A80036;stroke-width:1.0;"/><line style="stroke:#A80036;stroke-width:1.5;" x1="676" x2="676" y1="905.5078" y2="960.4629"/><line style="stroke:#A80036;stroke-width:1.5;" x1="676" x2="867.25" y1="960.4629" y2="960.4629"/><polygon fill="#A80036" points="857.25,956.4629,867.25,960.4629,857.25,964.4629,861.25,960.4629" style="stroke:#A80036;stroke-width:1.0;"/><line style="stroke:#A80036;stroke-width:1.5;" x1="1085" x2="1085" y1="905.5078" y2="960.4629"/><line style="stroke:#A80036;stroke-width:1.5;" x1="1085" x2="891.25" y1="960.4629" y2="960.4629"/><polygon fill="#A80036" points="901.25,956.4629,891.25,960.4629,901.25,964.4629,897.25,960.4629" style="stroke:#A80036;stroke-width:1.0;"/><line style="stroke:#A80036;stroke-width:1.5;" x1="1373" x2="1373" y1="831.375" y2="855.8525"/><polygon fill="#A80036" points="1369,845.8525,1373,855.8525,1377,845.8525,1373,849.8525" style="stroke:#A80036;stroke-width:1.0;"/><line style="stroke:#A80036;stroke-width:1.5;" x1="1478.5" x2="1490.5" y1="818.4199" y2="818.4199"/><polygon fill="#A80036" points="1486.5,862.4414,1490.5,872.4414,1494.5,862.4414,1490.5,866.4414" style="stroke:#A80036;stroke-width:1.5;"/><line style="stroke:#A80036;stroke-width:1.5;" x1="1490.5" x2="1490.5" y1="818.4199" y2="926.4629"/><line style="stroke:#A80036;stroke-width:1.5;" x1="1490.5" x2="1385" y1="926.4629" y2="926.4629"/><polygon fill="#A80036" points="1395,922.4629,1385,926.4629,1395,930.4629,1391,926.4629" style="stroke:#A80036;stroke-width:1.0;"/><line style="stroke:#A80036;stroke-width:1.5;" x1="1373" x2="1373" y1="889.9854" y2="914.4629"/><polygon fill="#A80036" points="1369,904.4629,1373,914.4629,1377,904.4629,1373,908.4629" style="stroke:#A80036;stroke-width:1.0;"/><line style="stroke:#A80036;stroke-width:1.5;" x1="1373" x2="1373" y1="785.4648" y2="805.4648"/><polygon fill="#A80036" points="1369,795.4648,1373,805.4648,1377,795.4648,1373,799.4648" style="stroke:#A80036;stroke-width:1.0;"/><line style="stroke:#A80036;stroke-width:1.5;" x1="1379" x2="1379" y1="938.4629" y2="981.418"/><polygon fill="#A80036" points="1375,971.418,1379,981.418,1383,971.418,1379,975.418" style="stroke:#A80036;stroke-width:1.0;"/><line style="stroke:#A80036;stroke-width:1.5;" x1="713.75" x2="261.5" y1="729.4648" y2="729.4648"/><line style="stroke:#A80036;stroke-width:1.5;" x1="261.5" x2="261.5" y1="729.4648" y2="761.4648"/><polygon fill="#A80036" points="257.5,751.4648,261.5,761.4648,265.5,751.4648,261.5,755.4648" style="stroke:#A80036;stroke-width:1.0;"/><line style="stroke:#A80036;stroke-width:1.5;" x1="816.75" x2="1379" y1="729.4648" y2="729.4648"/><line style="stroke:#A80036;stroke-width:1.5;" x1="1379" x2="1379" y1="729.4648" y2="761.4648"/><polygon fill="#A80036" points="1375,751.4648,1379,761.4648,1383,751.4648,1379,755.4648" style="stroke:#A80036;stroke-width:1.0;"/><line style="stroke:#A80036;stroke-width:1.5;" x1="879.25" x2="879.25" y1="729.4648" y2="761.4648"/><polygon fill="#A80036" points="875.25,751.4648,879.25,761.4648,883.25,751.4648,879.25,755.4648" style="stroke:#A80036;stroke-width:1.0;"/><line style="stroke:#A80036;stroke-width:1.5;" x1="261.5" x2="261.5" y1="1005.418" y2="1027.418"/><line style="stroke:#A80036;stroke-width:1.5;" x1="261.5" x2="753.25" y1="1027.418" y2="1027.418"/><polygon fill="#A80036" points="743.25,1023.418,753.25,1027.418,743.25,1031.418,747.25,1027.418" style="stroke:#A80036;stroke-width:1.0;"/><line style="stroke:#A80036;stroke-width:1.5;" x1="1379" x2="1379" y1="1005.418" y2="1027.418"/><line style="stroke:#A80036;stroke-width:1.5;" x1="1379" x2="777.25" y1="1027.418" y2="1027.418"/><polygon fill="#A80036" points="787.25,1023.418,777.25,1027.418,787.25,1031.418,783.25,1027.418" style="stroke:#A80036;stroke-width:1.0;"/><line style="stroke:#A80036;stroke-width:1.5;" x1="879.25" x2="879.25" y1="972.4629" y2="1027.418"/><polygon fill="#A80036" points="875.25,1017.418,879.25,1027.418,883.25,1017.418,879.25,1021.418" style="stroke:#A80036;stroke-width:1.0;"/><line style="stroke:#A80036;stroke-width:1.5;" x1="698.75" x2="698.75" y1="1127.5508" y2="1162.5508"/><line style="stroke:#A80036;stroke-width:1.5;" x1="698.75" x2="24" y1="1162.5508" y2="1162.5508"/><polygon fill="#A80036" points="34,1158.5508,24,1162.5508,34,1166.5508,30,1162.5508" style="stroke:#A80036;stroke-width:1.0;"/><line style="stroke:#A80036;stroke-width:1.5;" x1="831.75" x2="831.75" y1="1176.0283" y2="1190.0283"/><line style="stroke:#A80036;stroke-width:1.5;" x1="831.75" x2="24" y1="1190.0283" y2="1190.0283"/><polygon fill="#A80036" points="34,1186.0283,24,1190.0283,34,1194.0283,30,1190.0283" style="stroke:#A80036;stroke-width:1.0;"/><line style="stroke:#A80036;stroke-width:1.5;" x1="831.75" x2="831.75" y1="1117.418" y2="1141.8955"/><polygon fill="#A80036" points="827.75,1131.8955,831.75,1141.8955,835.75,1131.8955,831.75,1135.8955" style="stroke:#A80036;stroke-width:1.0;"/><line style="stroke:#A80036;stroke-width:1.5;" x1="886.75" x2="1502.5" y1="1105.418" y2="1105.418"/><line style="stroke:#A80036;stroke-width:1.5;" x1="1502.5" x2="1502.5" y1="685.4648" y2="1105.418"/><line style="stroke:#A80036;stroke-width:1.5;" x1="1502.5" x2="777.25" y1="685.4648" y2="685.4648"/><polygon fill="#A80036" points="787.25,681.4648,777.25,685.4648,787.25,689.4648,783.25,685.4648" style="stroke:#A80036;stroke-width:1.0;"/><line style="stroke:#A80036;stroke-width:1.5;" x1="708.75" x2="698.75" y1="1071.418" y2="1071.418"/><line style="stroke:#A80036;stroke-width:1.5;" x1="698.75" x2="698.75" y1="1071.418" y2="1093.418"/><polygon fill="#A80036" points="694.75,1083.418,698.75,1093.418,702.75,1083.418,698.75,1087.418" style="stroke:#A80036;stroke-width:1.0;"/><line style="stroke:#A80036;stroke-width:1.5;" x1="821.75" x2="831.75" y1="1071.418" y2="1071.418"/><line style="stroke:#A80036;stroke-width:1.5;" x1="831.75" x2="831.75" y1="1071.418" y2="1093.418"/><polygon fill="#A80036" points="827.75,1083.418,831.75,1093.418,835.75,1083.418,831.75,1087.418" style="stroke:#A80036;stroke-width:1.0;"/><line style="stroke:#A80036;stroke-width:1.5;" x1="765.25" x2="765.25" y1="1039.418" y2="1059.418"/><polygon fill="#A80036" points="761.25,1049.418,765.25,1059.418,769.25,1049.418,765.25,1053.418" style="stroke:#A80036;stroke-width:1.0;"/><line style="stroke:#A80036;stroke-width:1.5;" x1="765.25" x2="765.25" y1="697.4648" y2="717.4648"/><polygon fill="#A80036" points="761.25,707.4648,765.25,717.4648,769.25,707.4648,765.25,711.4648" style="stroke:#A80036;stroke-width:1.0;"/><line style="stroke:#A80036;stroke-width:1.5;" x1="753.25" x2="24" y1="685.4648" y2="685.4648"/><polygon fill="#A80036" points="20,990.4629,24,1000.4629,28,990.4629,24,994.4629" style="stroke:#A80036;stroke-width:1.5;"/><line style="stroke:#A80036;stroke-width:1.5;" x1="24" x2="24" y1="685.4648" y2="1238.0283"/><line style="stroke:#A80036;stroke-width:1.5;" x1="24" x2="765.25" y1="1238.0283" y2="1238.0283"/><line style="stroke:#A80036;stroke-width:1.5;" x1="765.25" x2="765.25" y1="1238.0283" y2="1258.0283"/><polygon fill="#A80036" points="761.25,1248.0283,765.25,1258.0283,769.25,1248.0283,765.25,1252.0283" style="stroke:#A80036;stroke-width:1.0;"/><line style="stroke:#A80036;stroke-width:1.5;" x1="765.25" x2="765.25" y1="653.4648" y2="673.4648"/><polygon fill="#A80036" points="761.25,663.4648,765.25,673.4648,769.25,663.4648,765.25,667.4648" style="stroke:#A80036;stroke-width:1.0;"/><!--MD5=[2c4056c121c9ec9952a061d4e5193a8b]
@startuml DetailActivityDiagram
title Klondike  - Detail Activity Diagram
!pragma layout smetana

start

:Shuffle;
:DealToPile Pile1;

while (areSeven Pile on Klondike)  is (No)
  :move toNext Pile;
  :DealToPile;
  while (areIn Pile oneCardMoreThanLast Pile)  is (No)
    :DealToPile;
  endwhile (Yes)
endwhile (Yes)

:turnUp firstCard on each Pile;
:DealToStock;
:DealToWaste;

while ()
  switch (isSelectedCard)
    case ()
      switch (isCardInPile)
        case ()
          if (< CardNumber AND DiferentColor \n OR CardNumer is K) then (yes)
           :PileToPileMove;
          else (no)
          endif
        case ()
          if (> CardNumber AND SameColor \n OR CardNumer is A) then (yes)
           :PileToFoundationMove;
          else (no)
          endif
      endswitch
    case ()
      switch (isCardInWaste)
        case ()
          if (< CardNumber AND DiferentColor \n OR CardNumer is K) then (yes)
           :WasteToPileMove;
          else (no)
            :WasteToStockMove;
          endif
        case ()
          if (> CardNumber AND SameColor \n OR CardNumer is A) then (yes)
           :WasteToFoundationMove;
          else (no)
            :WasteToStockMove;
          endif
      endswitch
    case ()
      switch (isCardInFoundation)
        case ()
          if (< CardNumber AND DiferentColor \n OR CardNumer is K) then (yes)
           :PileToPileMove;
          else (no)
          endif
      endswitch
  endswitch

  if (isFoundationFull) then (yes)
    :WinGame;
    break;
  else (no)
    if (haveMoreMoves) then (no)
      :Restart;
      break;
    else (yes)
    endif
  endif
endwhile

stop

@enduml

PlantUML version 1.2022.0(Tue Jan 11 11:16:42 ECT 2022)
(GPL source distribution)
Java Runtime: OpenJDK Runtime Environment
JVM: OpenJDK 64-Bit Server VM
Default Encoding: UTF-8
Language: es
Country: EC
--></g></svg>