<?xml version="1.0" encoding="UTF-8" standalone="no"?><svg xmlns="http://www.w3.org/2000/svg" xmlns:xlink="http://www.w3.org/1999/xlink" contentStyleType="text/css" height="1307px" preserveAspectRatio="none" style="width:1513px;height:1307px;background:#FFFFFF;" version="1.1" viewBox="0 0 1513 1307" width="1513px" zoomAndPan="magnify"><defs/><g><rect height="26.4883" style="stroke:#00000000;stroke-width:1.0;fill:none;" width="267" x="621.75" y="15"/><text fill="#000000" font-family="sans-serif" font-size="14" font-weight="bold" lengthAdjust="spacing" textLength="257" x="626.75" y="33.5352">Klondike  - Detail Activity Diagram</text><ellipse cx="763.75" cy="57.4883" fill="#222222" rx="10" ry="10" style="stroke:#222222;stroke-width:1.0;"/><rect fill="#F1F1F1" height="34.1328" rx="12.5" ry="12.5" style="stroke:#181818;stroke-width:0.5;" width="58" x="734.75" y="87.4883"/><text fill="#000000" font-family="sans-serif" font-size="12" lengthAdjust="spacing" textLength="38" x="744.75" y="109.0898">Shuffle</text><rect fill="#F1F1F1" height="34.1328" rx="12.5" ry="12.5" style="stroke:#181818;stroke-width:0.5;" width="113" x="707.25" y="141.6211"/><text fill="#000000" font-family="sans-serif" font-size="12" lengthAdjust="spacing" textLength="93" x="717.25" y="163.2227">DealToPile Pile1</text><rect fill="#F1F1F1" height="34.1328" rx="12.5" ry="12.5" style="stroke:#181818;stroke-width:0.5;" width="117" x="705.25" y="251.8887"/><text fill="#000000" font-family="sans-serif" font-size="12" lengthAdjust="spacing" textLength="97" x="715.25" y="273.4902">move toNext Pile</text><rect fill="#F1F1F1" height="34.1328" rx="12.5" ry="12.5" style="stroke:#181818;stroke-width:0.5;" width="81" x="723.25" y="306.0215"/><text fill="#000000" font-family="sans-serif" font-size="12" lengthAdjust="spacing" textLength="61" x="733.25" y="327.623">DealToPile</text><rect fill="#F1F1F1" height="34.1328" rx="12.5" ry="12.5" style="stroke:#181818;stroke-width:0.5;" width="81" x="723.25" y="429.2227"/><text fill="#000000" font-family="sans-serif" font-size="12" lengthAdjust="spacing" textLength="61" x="733.25" y="450.8242">DealToPile</text><polygon fill="#F1F1F1" points="666.75,373.0879,860.75,373.0879,872.75,385.0879,860.75,397.0879,666.75,397.0879,654.75,385.0879,666.75,373.0879" style="stroke:#181818;stroke-width:0.5;"/><text fill="#000000" font-family="sans-serif" font-size="11" lengthAdjust="spacing" textLength="15" x="767.75" y="407.7227">No</text><text fill="#000000" font-family="sans-serif" font-size="11" lengthAdjust="spacing" textLength="194" x="666.75" y="389.2451">areIn Pile oneCardMoreThanLast Pile</text><text fill="#000000" font-family="sans-serif" font-size="11" lengthAdjust="spacing" textLength="19" x="635.75" y="382.7676">Yes</text><polygon fill="#F1F1F1" points="696.25,195.7539,831.25,195.7539,843.25,207.7539,831.25,219.7539,696.25,219.7539,684.25,207.7539,696.25,195.7539" style="stroke:#181818;stroke-width:0.5;"/><text fill="#000000" font-family="sans-serif" font-size="11" lengthAdjust="spacing" textLength="15" x="767.75" y="230.3887">No</text><text fill="#000000" font-family="sans-serif" font-size="11" lengthAdjust="spacing" textLength="135" x="696.25" y="211.9111">areSeven Pile on Klondike</text><text fill="#000000" font-family="sans-serif" font-size="11" lengthAdjust="spacing" textLength="19" x="665.25" y="205.4336">Yes</text><rect fill="#F1F1F1" height="34.1328" rx="12.5" ry="12.5" style="stroke:#181818;stroke-width:0.5;" width="186" x="670.75" y="527.3555"/><text fill="#000000" font-family="sans-serif" font-size="12" lengthAdjust="spacing" textLength="166" x="680.75" y="548.957">turnUp firstCard on each Pile</text><rect fill="#F1F1F1" height="34.1328" rx="12.5" ry="12.5" style="stroke:#181818;stroke-width:0.5;" width="91" x="718.25" y="581.4883"/><text fill="#000000" font-family="sans-serif" font-size="12" lengthAdjust="spacing" textLength="71" x="728.25" y="603.0898">DealToStock</text><rect fill="#F1F1F1" height="34.1328" rx="12.5" ry="12.5" style="stroke:#181818;stroke-width:0.5;" width="95" x="716.25" y="635.6211"/><text fill="#000000" font-family="sans-serif" font-size="12" lengthAdjust="spacing" textLength="75" x="726.25" y="657.2227">DealToWaste</text><polygon fill="#F1F1F1" points="724.25,733.7539,803.25,733.7539,815.25,745.7539,803.25,757.7539,724.25,757.7539,712.25,745.7539,724.25,733.7539" style="stroke:#181818;stroke-width:0.5;"/><text fill="#000000" font-family="sans-serif" font-size="11" lengthAdjust="spacing" textLength="79" x="724.25" y="749.9111">isSelectedCard</text><polygon fill="#F1F1F1" points="230,777.7539,293,777.7539,305,789.7539,293,801.7539,230,801.7539,218,789.7539,230,777.7539" style="stroke:#181818;stroke-width:0.5;"/><text fill="#000000" font-family="sans-serif" font-size="11" lengthAdjust="spacing" textLength="63" x="230" y="793.9111">isCardInPile</text><rect fill="#F1F1F1" height="34.1328" rx="12.5" ry="12.5" style="stroke:#181818;stroke-width:0.5;" width="105" x="89" y="872.1416"/><text fill="#000000" font-family="sans-serif" font-size="12" lengthAdjust="spacing" textLength="85" x="99" y="893.7432">PileToPileMove</text><polygon fill="#F1F1F1" points="48,821.7539,235,821.7539,247,834.709,235,847.6641,48,847.6641,36,834.709,48,821.7539" style="stroke:#181818;stroke-width:0.5;"/><text fill="#000000" font-family="sans-serif" font-size="11" lengthAdjust="spacing" textLength="18" x="145.5" y="858.2988">yes</text><text fill="#000000" font-family="sans-serif" font-size="11" lengthAdjust="spacing" textLength="184" x="48" y="832.3887">&lt; CardNumber AND DiferentColor</text><text fill="#000000" font-family="sans-serif" font-size="11" lengthAdjust="spacing" textLength="103" x="51" y="845.3438">OR CardNumer is K</text><text fill="#000000" font-family="sans-serif" font-size="11" lengthAdjust="spacing" textLength="14" x="247" y="832.3887">no</text><polygon fill="#F1F1F1" points="141.5,930.752,153.5,942.752,141.5,954.752,129.5,942.752,141.5,930.752" style="stroke:#181818;stroke-width:0.5;"/><rect fill="#F1F1F1" height="34.1328" rx="12.5" ry="12.5" style="stroke:#181818;stroke-width:0.5;" width="148" x="303" y="872.1416"/><text fill="#000000" font-family="sans-serif" font-size="12" lengthAdjust="spacing" textLength="128" x="313" y="893.7432">PileToFoundationMove</text><polygon fill="#F1F1F1" points="291,821.7539,463,821.7539,475,834.709,463,847.6641,291,847.6641,279,834.709,291,821.7539" style="stroke:#181818;stroke-width:0.5;"/><text fill="#000000" font-family="sans-serif" font-size="11" lengthAdjust="spacing" textLength="18" x="381" y="858.2988">yes</text><text fill="#000000" font-family="sans-serif" font-size="11" lengthAdjust="spacing" textLength="169" x="291" y="832.3887">&gt; CardNumber AND SameColor</text><text fill="#000000" font-family="sans-serif" font-size="11" lengthAdjust="spacing" textLength="104" x="294" y="845.3438">OR CardNumer is A</text><text fill="#000000" font-family="sans-serif" font-size="11" lengthAdjust="spacing" textLength="14" x="475" y="832.3887">no</text><polygon fill="#F1F1F1" points="377,930.752,389,942.752,377,954.752,365,942.752,377,930.752" style="stroke:#181818;stroke-width:0.5;"/><polygon fill="#F1F1F1" points="261.5,997.707,261.5,997.707,273.5,1009.707,261.5,1021.707,261.5,1021.707,249.5,1009.707,261.5,997.707" style="stroke:#181818;stroke-width:0.5;"/><polygon fill="#F1F1F1" points="841.25,777.7539,917.25,777.7539,929.25,789.7539,917.25,801.7539,841.25,801.7539,829.25,789.7539,841.25,777.7539" style="stroke:#181818;stroke-width:0.5;"/><text fill="#000000" font-family="sans-serif" font-size="11" lengthAdjust="spacing" textLength="76" x="841.25" y="793.9111">isCardInWaste</text><polygon fill="#F1F1F1" points="582.5,821.7539,769.5,821.7539,781.5,834.709,769.5,847.6641,582.5,847.6641,570.5,834.709,582.5,821.7539" style="stroke:#181818;stroke-width:0.5;"/><text fill="#000000" font-family="sans-serif" font-size="11" lengthAdjust="spacing" textLength="184" x="582.5" y="832.3887">&lt; CardNumber AND DiferentColor</text><text fill="#000000" font-family="sans-serif" font-size="11" lengthAdjust="spacing" textLength="103" x="585.5" y="845.3438">OR CardNumer is K</text><text fill="#000000" font-family="sans-serif" font-size="11" lengthAdjust="spacing" textLength="18" x="552.5" y="832.3887">yes</text><text fill="#000000" font-family="sans-serif" font-size="11" lengthAdjust="spacing" textLength="14" x="781.5" y="832.3887">no</text><rect fill="#F1F1F1" height="34.1328" rx="12.5" ry="12.5" style="stroke:#181818;stroke-width:0.5;" width="119" x="501" y="857.6641"/><text fill="#000000" font-family="sans-serif" font-size="12" lengthAdjust="spacing" textLength="99" x="511" y="879.2656">WasteToPileMove</text><rect fill="#F1F1F1" height="34.1328" rx="12.5" ry="12.5" style="stroke:#181818;stroke-width:0.5;" width="129" x="727" y="857.6641"/><text fill="#000000" font-family="sans-serif" font-size="12" lengthAdjust="spacing" textLength="109" x="737" y="879.2656">WasteToStockMove</text><polygon fill="#F1F1F1" points="676,897.7969,688,909.7969,676,921.7969,664,909.7969,676,897.7969" style="stroke:#181818;stroke-width:0.5;"/><polygon fill="#F1F1F1" points="999,821.7539,1171,821.7539,1183,834.709,1171,847.6641,999,847.6641,987,834.709,999,821.7539" style="stroke:#181818;stroke-width:0.5;"/><text fill="#000000" font-family="sans-serif" font-size="11" lengthAdjust="spacing" textLength="169" x="999" y="832.3887">&gt; CardNumber AND SameColor</text><text fill="#000000" font-family="sans-serif" font-size="11" lengthAdjust="spacing" textLength="104" x="1002" y="845.3438">OR CardNumer is A</text><text fill="#000000" font-family="sans-serif" font-size="11" lengthAdjust="spacing" textLength="18" x="969" y="832.3887">yes</text><text fill="#000000" font-family="sans-serif" font-size="11" lengthAdjust="spacing" textLength="14" x="1183" y="832.3887">no</text><rect fill="#F1F1F1" height="34.1328" rx="12.5" ry="12.5" style="stroke:#181818;stroke-width:0.5;" width="162" x="896" y="857.6641"/><text fill="#000000" font-family="sans-serif" font-size="12" lengthAdjust="spacing" textLength="142" x="906" y="879.2656">WasteToFoundationMove</text><rect fill="#F1F1F1" height="34.1328" rx="12.5" ry="12.5" style="stroke:#181818;stroke-width:0.5;" width="129" x="1128.5" y="857.6641"/><text fill="#000000" font-family="sans-serif" font-size="12" lengthAdjust="spacing" textLength="109" x="1138.5" y="879.2656">WasteToStockMove</text><polygon fill="#F1F1F1" points="1085,897.7969,1097,909.7969,1085,921.7969,1073,909.7969,1085,897.7969" style="stroke:#181818;stroke-width:0.5;"/><polygon fill="#F1F1F1" points="879.25,964.752,879.25,964.752,891.25,976.752,879.25,988.752,879.25,988.752,867.25,976.752,879.25,964.752" style="stroke:#181818;stroke-width:0.5;"/><polygon fill="#F1F1F1" points="1324.5,777.7539,1430.5,777.7539,1442.5,789.7539,1430.5,801.7539,1324.5,801.7539,1312.5,789.7539,1324.5,777.7539" style="stroke:#181818;stroke-width:0.5;"/><text fill="#000000" font-family="sans-serif" font-size="11" lengthAdjust="spacing" textLength="106" x="1324.5" y="793.9111">isCardInFoundation</text><rect fill="#F1F1F1" height="34.1328" rx="12.5" ry="12.5" style="stroke:#181818;stroke-width:0.5;" width="141" x="1301" y="870.2314"/><text fill="#000000" font-family="sans-serif" font-size="12" lengthAdjust="spacing" textLength="121" x="1311" y="891.833">FoudationToPileMove</text><polygon fill="#F1F1F1" points="1279.5,821.7539,1463.5,821.7539,1475.5,833.7539,1463.5,845.7539,1279.5,845.7539,1267.5,833.7539,1279.5,821.7539" style="stroke:#181818;stroke-width:0.5;"/><text fill="#000000" font-family="sans-serif" font-size="11" lengthAdjust="spacing" textLength="18" x="1375.5" y="856.3887">yes</text><text fill="#000000" font-family="sans-serif" font-size="11" lengthAdjust="spacing" textLength="184" x="1279.5" y="837.9111">&lt; CardNumber AND DiferentColor</text><text fill="#000000" font-family="sans-serif" font-size="11" lengthAdjust="spacing" textLength="14" x="1475.5" y="831.4336">no</text><polygon fill="#F1F1F1" points="1371.5,928.8418,1383.5,940.8418,1371.5,952.8418,1359.5,940.8418,1371.5,928.8418" style="stroke:#181818;stroke-width:0.5;"/><polygon fill="#F1F1F1" points="1377.5,995.7969,1377.5,995.7969,1389.5,1007.7969,1377.5,1019.7969,1377.5,1019.7969,1365.5,1007.7969,1377.5,995.7969" style="stroke:#181818;stroke-width:0.5;"/><polygon fill="#F1F1F1" points="763.75,1031.707,763.75,1031.707,775.75,1043.707,763.75,1055.707,763.75,1055.707,751.75,1043.707,763.75,1031.707" style="stroke:#181818;stroke-width:0.5;"/><polygon fill="#F1F1F1" points="719.25,1075.707,808.25,1075.707,820.25,1087.707,808.25,1099.707,719.25,1099.707,707.25,1087.707,719.25,1075.707" style="stroke:#181818;stroke-width:0.5;"/><text fill="#000000" font-family="sans-serif" font-size="11" lengthAdjust="spacing" textLength="89" x="719.25" y="1091.8643">isFoundationFull</text><text fill="#000000" font-family="sans-serif" font-size="11" lengthAdjust="spacing" textLength="18" x="689.25" y="1085.3867">yes</text><text fill="#000000" font-family="sans-serif" font-size="11" lengthAdjust="spacing" textLength="14" x="820.25" y="1085.3867">no</text><rect fill="#F1F1F1" height="34.1328" rx="12.5" ry="12.5" style="stroke:#181818;stroke-width:0.5;" width="74" x="660.25" y="1109.707"/><text fill="#000000" font-family="sans-serif" font-size="12" lengthAdjust="spacing" textLength="54" x="670.25" y="1131.3086">WinGame</text><rect fill="#F1F1F1" height="34.1328" rx="12.5" ry="12.5" style="stroke:#181818;stroke-width:0.5;" width="95" x="782.75" y="1158.1846"/><text fill="#000000" font-family="sans-serif" font-size="12" lengthAdjust="spacing" textLength="75" x="792.75" y="1179.7861">RestartGame</text><polygon fill="#F1F1F1" points="787.25,1109.707,873.25,1109.707,885.25,1121.707,873.25,1133.707,787.25,1133.707,775.25,1121.707,787.25,1109.707" style="stroke:#181818;stroke-width:0.5;"/><text fill="#000000" font-family="sans-serif" font-size="11" lengthAdjust="spacing" textLength="14" x="834.25" y="1144.3418">no</text><text fill="#000000" font-family="sans-serif" font-size="11" lengthAdjust="spacing" textLength="86" x="787.25" y="1125.8643">haveMoreMoves</text><text fill="#000000" font-family="sans-serif" font-size="11" lengthAdjust="spacing" textLength="18" x="885.25" y="1119.3867">yes</text><polygon fill="#F1F1F1" points="763.75,689.7539,763.75,689.7539,775.75,701.7539,763.75,713.7539,763.75,713.7539,751.75,701.7539,763.75,689.7539" style="stroke:#181818;stroke-width:0.5;"/><ellipse cx="763.75" cy="1285.3174" rx="11" ry="11" style="stroke:#222222;stroke-width:1.0;fill:none;"/><ellipse cx="763.75" cy="1285.3174" fill="#222222" rx="6" ry="6" style="stroke:#111111;stroke-width:1.0;"/><line style="stroke:#181818;stroke-width:1.0;" x1="763.75" x2="763.75" y1="67.4883" y2="87.4883"/><polygon fill="#181818" points="759.75,77.4883,763.75,87.4883,767.75,77.4883,763.75,81.4883" style="stroke:#181818;stroke-width:1.0;"/><line style="stroke:#181818;stroke-width:1.0;" x1="763.75" x2="763.75" y1="121.6211" y2="141.6211"/><polygon fill="#181818" points="759.75,131.6211,763.75,141.6211,767.75,131.6211,763.75,135.6211" style="stroke:#181818;stroke-width:1.0;"/><line style="stroke:#181818;stroke-width:1.0;" x1="763.75" x2="763.75" y1="286.0215" y2="306.0215"/><polygon fill="#181818" points="759.75,296.0215,763.75,306.0215,767.75,296.0215,763.75,300.0215" style="stroke:#181818;stroke-width:1.0;"/><line style="stroke:#181818;stroke-width:1.0;" x1="763.75" x2="763.75" y1="397.0879" y2="429.2227"/><polygon fill="#181818" points="759.75,419.2227,763.75,429.2227,767.75,419.2227,763.75,423.2227" style="stroke:#181818;stroke-width:1.0;"/><line style="stroke:#181818;stroke-width:1.0;" x1="763.75" x2="763.75" y1="463.3555" y2="473.3555"/><line style="stroke:#181818;stroke-width:1.0;" x1="763.75" x2="884.75" y1="473.3555" y2="473.3555"/><polygon fill="#181818" points="880.75,437.8115,884.75,427.8115,888.75,437.8115,884.75,433.8115" style="stroke:#181818;stroke-width:1.0;"/><line style="stroke:#181818;stroke-width:1.0;" x1="884.75" x2="884.75" y1="385.0879" y2="473.3555"/><line style="stroke:#181818;stroke-width:1.0;" x1="884.75" x2="872.75" y1="385.0879" y2="385.0879"/><polygon fill="#181818" points="882.75,381.0879,872.75,385.0879,882.75,389.0879,878.75,385.0879" style="stroke:#181818;stroke-width:1.0;"/><line style="stroke:#181818;stroke-width:1.0;" x1="654.75" x2="642.75" y1="385.0879" y2="385.0879"/><polygon fill="#181818" points="638.75,423.8115,642.75,433.8115,646.75,423.8115,642.75,427.8115" style="stroke:#181818;stroke-width:1.0;"/><line style="stroke:#181818;stroke-width:1.0;" x1="642.75" x2="642.75" y1="385.0879" y2="485.3555"/><line style="stroke:#181818;stroke-width:1.0;" x1="642.75" x2="896.75" y1="485.3555" y2="485.3555"/><line style="stroke:#181818;stroke-width:1.0;" x1="896.75" x2="896.75" y1="207.7539" y2="485.3555"/><line style="stroke:#181818;stroke-width:1.0;" x1="896.75" x2="843.25" y1="207.7539" y2="207.7539"/><polygon fill="#181818" points="853.25,203.7539,843.25,207.7539,853.25,211.7539,849.25,207.7539" style="stroke:#181818;stroke-width:1.0;"/><line style="stroke:#181818;stroke-width:1.0;" x1="763.75" x2="763.75" y1="340.1543" y2="373.0879"/><polygon fill="#181818" points="759.75,363.0879,763.75,373.0879,767.75,363.0879,763.75,367.0879" style="stroke:#181818;stroke-width:1.0;"/><line style="stroke:#181818;stroke-width:1.0;" x1="763.75" x2="763.75" y1="219.7539" y2="251.8887"/><polygon fill="#181818" points="759.75,241.8887,763.75,251.8887,767.75,241.8887,763.75,245.8887" style="stroke:#181818;stroke-width:1.0;"/><line style="stroke:#181818;stroke-width:1.0;" x1="684.25" x2="618.75" y1="207.7539" y2="207.7539"/><polygon fill="#181818" points="614.75,343.0879,618.75,353.0879,622.75,343.0879,618.75,347.0879" style="stroke:#181818;stroke-width:1.0;"/><line style="stroke:#181818;stroke-width:1.0;" x1="618.75" x2="618.75" y1="207.7539" y2="507.3555"/><line style="stroke:#181818;stroke-width:1.0;" x1="618.75" x2="763.75" y1="507.3555" y2="507.3555"/><line style="stroke:#181818;stroke-width:1.0;" x1="763.75" x2="763.75" y1="507.3555" y2="527.3555"/><polygon fill="#181818" points="759.75,517.3555,763.75,527.3555,767.75,517.3555,763.75,521.3555" style="stroke:#181818;stroke-width:1.0;"/><line style="stroke:#181818;stroke-width:1.0;" x1="763.75" x2="763.75" y1="175.7539" y2="195.7539"/><polygon fill="#181818" points="759.75,185.7539,763.75,195.7539,767.75,185.7539,763.75,189.7539" style="stroke:#181818;stroke-width:1.0;"/><line style="stroke:#181818;stroke-width:1.0;" x1="763.75" x2="763.75" y1="561.4883" y2="581.4883"/><polygon fill="#181818" points="759.75,571.4883,763.75,581.4883,767.75,571.4883,763.75,575.4883" style="stroke:#181818;stroke-width:1.0;"/><line style="stroke:#181818;stroke-width:1.0;" x1="763.75" x2="763.75" y1="615.6211" y2="635.6211"/><polygon fill="#181818" points="759.75,625.6211,763.75,635.6211,767.75,625.6211,763.75,629.6211" style="stroke:#181818;stroke-width:1.0;"/><line style="stroke:#181818;stroke-width:1.0;" x1="141.5" x2="141.5" y1="847.6641" y2="872.1416"/><polygon fill="#181818" points="137.5,862.1416,141.5,872.1416,145.5,862.1416,141.5,866.1416" style="stroke:#181818;stroke-width:1.0;"/><line style="stroke:#181818;stroke-width:1.0;" x1="247" x2="259" y1="834.709" y2="834.709"/><polygon fill="#181818" points="255,878.7305,259,888.7305,263,878.7305,259,882.7305" style="stroke:#181818;stroke-width:1.0;"/><line style="stroke:#181818;stroke-width:1.0;" x1="259" x2="259" y1="834.709" y2="942.752"/><line style="stroke:#181818;stroke-width:1.0;" x1="259" x2="153.5" y1="942.752" y2="942.752"/><polygon fill="#181818" points="163.5,938.752,153.5,942.752,163.5,946.752,159.5,942.752" style="stroke:#181818;stroke-width:1.0;"/><line style="stroke:#181818;stroke-width:1.0;" x1="141.5" x2="141.5" y1="906.2744" y2="930.752"/><polygon fill="#181818" points="137.5,920.752,141.5,930.752,145.5,920.752,141.5,924.752" style="stroke:#181818;stroke-width:1.0;"/><line style="stroke:#181818;stroke-width:1.0;" x1="377" x2="377" y1="847.6641" y2="872.1416"/><polygon fill="#181818" points="373,862.1416,377,872.1416,381,862.1416,377,866.1416" style="stroke:#181818;stroke-width:1.0;"/><line style="stroke:#181818;stroke-width:1.0;" x1="475" x2="487" y1="834.709" y2="834.709"/><polygon fill="#181818" points="483,878.7305,487,888.7305,491,878.7305,487,882.7305" style="stroke:#181818;stroke-width:1.0;"/><line style="stroke:#181818;stroke-width:1.0;" x1="487" x2="487" y1="834.709" y2="942.752"/><line style="stroke:#181818;stroke-width:1.0;" x1="487" x2="389" y1="942.752" y2="942.752"/><polygon fill="#181818" points="399,938.752,389,942.752,399,946.752,395,942.752" style="stroke:#181818;stroke-width:1.0;"/><line style="stroke:#181818;stroke-width:1.0;" x1="377" x2="377" y1="906.2744" y2="930.752"/><polygon fill="#181818" points="373,920.752,377,930.752,381,920.752,377,924.752" style="stroke:#181818;stroke-width:1.0;"/><line style="stroke:#181818;stroke-width:1.0;" x1="218" x2="141.5" y1="789.7539" y2="789.7539"/><line style="stroke:#181818;stroke-width:1.0;" x1="141.5" x2="141.5" y1="789.7539" y2="821.7539"/><polygon fill="#181818" points="137.5,811.7539,141.5,821.7539,145.5,811.7539,141.5,815.7539" style="stroke:#181818;stroke-width:1.0;"/><line style="stroke:#181818;stroke-width:1.0;" x1="305" x2="377" y1="789.7539" y2="789.7539"/><line style="stroke:#181818;stroke-width:1.0;" x1="377" x2="377" y1="789.7539" y2="821.7539"/><polygon fill="#181818" points="373,811.7539,377,821.7539,381,811.7539,377,815.7539" style="stroke:#181818;stroke-width:1.0;"/><line style="stroke:#181818;stroke-width:1.0;" x1="141.5" x2="141.5" y1="954.752" y2="1009.707"/><line style="stroke:#181818;stroke-width:1.0;" x1="141.5" x2="249.5" y1="1009.707" y2="1009.707"/><polygon fill="#181818" points="239.5,1005.707,249.5,1009.707,239.5,1013.707,243.5,1009.707" style="stroke:#181818;stroke-width:1.0;"/><line style="stroke:#181818;stroke-width:1.0;" x1="377" x2="377" y1="954.752" y2="1009.707"/><line style="stroke:#181818;stroke-width:1.0;" x1="377" x2="273.5" y1="1009.707" y2="1009.707"/><polygon fill="#181818" points="283.5,1005.707,273.5,1009.707,283.5,1013.707,279.5,1009.707" style="stroke:#181818;stroke-width:1.0;"/><line style="stroke:#181818;stroke-width:1.0;" x1="570.5" x2="560.5" y1="834.709" y2="834.709"/><line style="stroke:#181818;stroke-width:1.0;" x1="560.5" x2="560.5" y1="834.709" y2="857.6641"/><polygon fill="#181818" points="556.5,847.6641,560.5,857.6641,564.5,847.6641,560.5,851.6641" style="stroke:#181818;stroke-width:1.0;"/><line style="stroke:#181818;stroke-width:1.0;" x1="781.5" x2="791.5" y1="834.709" y2="834.709"/><line style="stroke:#181818;stroke-width:1.0;" x1="791.5" x2="791.5" y1="834.709" y2="857.6641"/><polygon fill="#181818" points="787.5,847.6641,791.5,857.6641,795.5,847.6641,791.5,851.6641" style="stroke:#181818;stroke-width:1.0;"/><line style="stroke:#181818;stroke-width:1.0;" x1="560.5" x2="560.5" y1="891.7969" y2="909.7969"/><line style="stroke:#181818;stroke-width:1.0;" x1="560.5" x2="664" y1="909.7969" y2="909.7969"/><polygon fill="#181818" points="654,905.7969,664,909.7969,654,913.7969,658,909.7969" style="stroke:#181818;stroke-width:1.0;"/><line style="stroke:#181818;stroke-width:1.0;" x1="791.5" x2="791.5" y1="891.7969" y2="909.7969"/><line style="stroke:#181818;stroke-width:1.0;" x1="791.5" x2="688" y1="909.7969" y2="909.7969"/><polygon fill="#181818" points="698,905.7969,688,909.7969,698,913.7969,694,909.7969" style="stroke:#181818;stroke-width:1.0;"/><line style="stroke:#181818;stroke-width:1.0;" x1="987" x2="977" y1="834.709" y2="834.709"/><line style="stroke:#181818;stroke-width:1.0;" x1="977" x2="977" y1="834.709" y2="857.6641"/><polygon fill="#181818" points="973,847.6641,977,857.6641,981,847.6641,977,851.6641" style="stroke:#181818;stroke-width:1.0;"/><line style="stroke:#181818;stroke-width:1.0;" x1="1183" x2="1193" y1="834.709" y2="834.709"/><line style="stroke:#181818;stroke-width:1.0;" x1="1193" x2="1193" y1="834.709" y2="857.6641"/><polygon fill="#181818" points="1189,847.6641,1193,857.6641,1197,847.6641,1193,851.6641" style="stroke:#181818;stroke-width:1.0;"/><line style="stroke:#181818;stroke-width:1.0;" x1="977" x2="977" y1="891.7969" y2="909.7969"/><line style="stroke:#181818;stroke-width:1.0;" x1="977" x2="1073" y1="909.7969" y2="909.7969"/><polygon fill="#181818" points="1063,905.7969,1073,909.7969,1063,913.7969,1067,909.7969" style="stroke:#181818;stroke-width:1.0;"/><line style="stroke:#181818;stroke-width:1.0;" x1="1193" x2="1193" y1="891.7969" y2="909.7969"/><line style="stroke:#181818;stroke-width:1.0;" x1="1193" x2="1097" y1="909.7969" y2="909.7969"/><polygon fill="#181818" points="1107,905.7969,1097,909.7969,1107,913.7969,1103,909.7969" style="stroke:#181818;stroke-width:1.0;"/><line style="stroke:#181818;stroke-width:1.0;" x1="829.25" x2="676" y1="789.7539" y2="789.7539"/><line style="stroke:#181818;stroke-width:1.0;" x1="676" x2="676" y1="789.7539" y2="821.7539"/><polygon fill="#181818" points="672,811.7539,676,821.7539,680,811.7539,676,815.7539" style="stroke:#181818;stroke-width:1.0;"/><line style="stroke:#181818;stroke-width:1.0;" x1="929.25" x2="1085" y1="789.7539" y2="789.7539"/><line style="stroke:#181818;stroke-width:1.0;" x1="1085" x2="1085" y1="789.7539" y2="821.7539"/><polygon fill="#181818" points="1081,811.7539,1085,821.7539,1089,811.7539,1085,815.7539" style="stroke:#181818;stroke-width:1.0;"/><line style="stroke:#181818;stroke-width:1.0;" x1="676" x2="676" y1="921.7969" y2="976.752"/><line style="stroke:#181818;stroke-width:1.0;" x1="676" x2="867.25" y1="976.752" y2="976.752"/><polygon fill="#181818" points="857.25,972.752,867.25,976.752,857.25,980.752,861.25,976.752" style="stroke:#181818;stroke-width:1.0;"/><line style="stroke:#181818;stroke-width:1.0;" x1="1085" x2="1085" y1="921.7969" y2="976.752"/><line style="stroke:#181818;stroke-width:1.0;" x1="1085" x2="891.25" y1="976.752" y2="976.752"/><polygon fill="#181818" points="901.25,972.752,891.25,976.752,901.25,980.752,897.25,976.752" style="stroke:#181818;stroke-width:1.0;"/><line style="stroke:#181818;stroke-width:1.0;" x1="1371.5" x2="1371.5" y1="845.7539" y2="870.2314"/><polygon fill="#181818" points="1367.5,860.2314,1371.5,870.2314,1375.5,860.2314,1371.5,864.2314" style="stroke:#181818;stroke-width:1.0;"/><line style="stroke:#181818;stroke-width:1.0;" x1="1475.5" x2="1487.5" y1="833.7539" y2="833.7539"/><polygon fill="#181818" points="1483.5,877.2979,1487.5,887.2979,1491.5,877.2979,1487.5,881.2979" style="stroke:#181818;stroke-width:1.0;"/><line style="stroke:#181818;stroke-width:1.0;" x1="1487.5" x2="1487.5" y1="833.7539" y2="940.8418"/><line style="stroke:#181818;stroke-width:1.0;" x1="1487.5" x2="1383.5" y1="940.8418" y2="940.8418"/><polygon fill="#181818" points="1393.5,936.8418,1383.5,940.8418,1393.5,944.8418,1389.5,940.8418" style="stroke:#181818;stroke-width:1.0;"/><line style="stroke:#181818;stroke-width:1.0;" x1="1371.5" x2="1371.5" y1="904.3643" y2="928.8418"/><polygon fill="#181818" points="1367.5,918.8418,1371.5,928.8418,1375.5,918.8418,1371.5,922.8418" style="stroke:#181818;stroke-width:1.0;"/><line style="stroke:#181818;stroke-width:1.0;" x1="1371.5" x2="1371.5" y1="801.7539" y2="821.7539"/><polygon fill="#181818" points="1367.5,811.7539,1371.5,821.7539,1375.5,811.7539,1371.5,815.7539" style="stroke:#181818;stroke-width:1.0;"/><line style="stroke:#181818;stroke-width:1.0;" x1="1377.5" x2="1377.5" y1="952.8418" y2="995.7969"/><polygon fill="#181818" points="1373.5,985.7969,1377.5,995.7969,1381.5,985.7969,1377.5,989.7969" style="stroke:#181818;stroke-width:1.0;"/><line style="stroke:#181818;stroke-width:1.0;" x1="712.25" x2="261.5" y1="745.7539" y2="745.7539"/><line style="stroke:#181818;stroke-width:1.0;" x1="261.5" x2="261.5" y1="745.7539" y2="777.7539"/><polygon fill="#181818" points="257.5,767.7539,261.5,777.7539,265.5,767.7539,261.5,771.7539" style="stroke:#181818;stroke-width:1.0;"/><line style="stroke:#181818;stroke-width:1.0;" x1="815.25" x2="1377.5" y1="745.7539" y2="745.7539"/><line style="stroke:#181818;stroke-width:1.0;" x1="1377.5" x2="1377.5" y1="745.7539" y2="777.7539"/><polygon fill="#181818" points="1373.5,767.7539,1377.5,777.7539,1381.5,767.7539,1377.5,771.7539" style="stroke:#181818;stroke-width:1.0;"/><line style="stroke:#181818;stroke-width:1.0;" x1="879.25" x2="879.25" y1="745.7539" y2="777.7539"/><polygon fill="#181818" points="875.25,767.7539,879.25,777.7539,883.25,767.7539,879.25,771.7539" style="stroke:#181818;stroke-width:1.0;"/><line style="stroke:#181818;stroke-width:1.0;" x1="261.5" x2="261.5" y1="1021.707" y2="1043.707"/><line style="stroke:#181818;stroke-width:1.0;" x1="261.5" x2="751.75" y1="1043.707" y2="1043.707"/><polygon fill="#181818" points="741.75,1039.707,751.75,1043.707,741.75,1047.707,745.75,1043.707" style="stroke:#181818;stroke-width:1.0;"/><line style="stroke:#181818;stroke-width:1.0;" x1="1377.5" x2="1377.5" y1="1019.7969" y2="1043.707"/><line style="stroke:#181818;stroke-width:1.0;" x1="1377.5" x2="775.75" y1="1043.707" y2="1043.707"/><polygon fill="#181818" points="785.75,1039.707,775.75,1043.707,785.75,1047.707,781.75,1043.707" style="stroke:#181818;stroke-width:1.0;"/><line style="stroke:#181818;stroke-width:1.0;" x1="879.25" x2="879.25" y1="988.752" y2="1043.707"/><polygon fill="#181818" points="875.25,1033.707,879.25,1043.707,883.25,1033.707,879.25,1037.707" style="stroke:#181818;stroke-width:1.0;"/><line style="stroke:#181818;stroke-width:1.0;" x1="697.25" x2="697.25" y1="1143.8398" y2="1178.8398"/><line style="stroke:#181818;stroke-width:1.0;" x1="697.25" x2="24" y1="1178.8398" y2="1178.8398"/><polygon fill="#181818" points="34,1174.8398,24,1178.8398,34,1182.8398,30,1178.8398" style="stroke:#181818;stroke-width:1.0;"/><line style="stroke:#181818;stroke-width:1.0;" x1="830.25" x2="830.25" y1="1192.3174" y2="1206.3174"/><line style="stroke:#181818;stroke-width:1.0;" x1="830.25" x2="24" y1="1206.3174" y2="1206.3174"/><polygon fill="#181818" points="34,1202.3174,24,1206.3174,34,1210.3174,30,1206.3174" style="stroke:#181818;stroke-width:1.0;"/><line style="stroke:#181818;stroke-width:1.0;" x1="830.25" x2="830.25" y1="1133.707" y2="1158.1846"/><polygon fill="#181818" points="826.25,1148.1846,830.25,1158.1846,834.25,1148.1846,830.25,1152.1846" style="stroke:#181818;stroke-width:1.0;"/><line style="stroke:#181818;stroke-width:1.0;" x1="885.25" x2="1499.5" y1="1121.707" y2="1121.707"/><line style="stroke:#181818;stroke-width:1.0;" x1="1499.5" x2="1499.5" y1="701.7539" y2="1121.707"/><line style="stroke:#181818;stroke-width:1.0;" x1="1499.5" x2="775.75" y1="701.7539" y2="701.7539"/><polygon fill="#181818" points="785.75,697.7539,775.75,701.7539,785.75,705.7539,781.75,701.7539" style="stroke:#181818;stroke-width:1.0;"/><line style="stroke:#181818;stroke-width:1.0;" x1="707.25" x2="697.25" y1="1087.707" y2="1087.707"/><line style="stroke:#181818;stroke-width:1.0;" x1="697.25" x2="697.25" y1="1087.707" y2="1109.707"/><polygon fill="#181818" points="693.25,1099.707,697.25,1109.707,701.25,1099.707,697.25,1103.707" style="stroke:#181818;stroke-width:1.0;"/><line style="stroke:#181818;stroke-width:1.0;" x1="820.25" x2="830.25" y1="1087.707" y2="1087.707"/><line style="stroke:#181818;stroke-width:1.0;" x1="830.25" x2="830.25" y1="1087.707" y2="1109.707"/><polygon fill="#181818" points="826.25,1099.707,830.25,1109.707,834.25,1099.707,830.25,1103.707" style="stroke:#181818;stroke-width:1.0;"/><line style="stroke:#181818;stroke-width:1.0;" x1="763.75" x2="763.75" y1="1055.707" y2="1075.707"/><polygon fill="#181818" points="759.75,1065.707,763.75,1075.707,767.75,1065.707,763.75,1069.707" style="stroke:#181818;stroke-width:1.0;"/><line style="stroke:#181818;stroke-width:1.0;" x1="763.75" x2="763.75" y1="713.7539" y2="733.7539"/><polygon fill="#181818" points="759.75,723.7539,763.75,733.7539,767.75,723.7539,763.75,727.7539" style="stroke:#181818;stroke-width:1.0;"/><line style="stroke:#181818;stroke-width:1.0;" x1="751.75" x2="24" y1="701.7539" y2="701.7539"/><polygon fill="#181818" points="20,1006.752,24,1016.752,28,1006.752,24,1010.752" style="stroke:#181818;stroke-width:1.0;"/><line style="stroke:#181818;stroke-width:1.0;" x1="24" x2="24" y1="701.7539" y2="1254.3174"/><line style="stroke:#181818;stroke-width:1.0;" x1="24" x2="763.75" y1="1254.3174" y2="1254.3174"/><line style="stroke:#181818;stroke-width:1.0;" x1="763.75" x2="763.75" y1="1254.3174" y2="1274.3174"/><polygon fill="#181818" points="759.75,1264.3174,763.75,1274.3174,767.75,1264.3174,763.75,1268.3174" style="stroke:#181818;stroke-width:1.0;"/><line style="stroke:#181818;stroke-width:1.0;" x1="763.75" x2="763.75" y1="669.7539" y2="689.7539"/><polygon fill="#181818" points="759.75,679.7539,763.75,689.7539,767.75,679.7539,763.75,683.7539" style="stroke:#181818;stroke-width:1.0;"/><!--MD5=[b944f6a9d04a681d1683d730448f35d9]
@startuml DetailActivityDiagram
title Klondike  - Detail Activity Diagram
!pragma layout smetana

start

:Shuffle;
:DealToPile Pile1;

while (areSeven Pile on Klondike)  is (No)
  :move toNext Pile;
  :DealToPile;
  while (areIn Pile oneCardMoreThanLast Pile)  is (No)
    :DealToPile;
  endwhile (Yes)
endwhile (Yes)

:turnUp firstCard on each Pile;
:DealToStock;
:DealToWaste;

while ()
  switch (isSelectedCard)
    case ()
      switch (isCardInPile)
        case ()
          if (< CardNumber AND DiferentColor \n OR CardNumer is K) then (yes)
           :PileToPileMove;
          else (no)
          endif
        case ()
          if (> CardNumber AND SameColor \n OR CardNumer is A) then (yes)
           :PileToFoundationMove;
          else (no)
          endif
      endswitch
    case ()
      switch (isCardInWaste)
        case ()
          if (< CardNumber AND DiferentColor \n OR CardNumer is K) then (yes)
           :WasteToPileMove;
          else (no)
            :WasteToStockMove;
          endif
        case ()
          if (> CardNumber AND SameColor \n OR CardNumer is A) then (yes)
           :WasteToFoundationMove;
          else (no)
            :WasteToStockMove;
          endif
      endswitch
    case ()
      switch (isCardInFoundation)
        case ()
          if (< CardNumber AND DiferentColor) then (yes)
           :FoudationToPileMove;
          else (no)
          endif
      endswitch
  endswitch

  if (isFoundationFull) then (yes)
    :WinGame;
    break;
  else (no)
    if (haveMoreMoves) then (no)
      :RestartGame;
      break;
    else (yes)
    endif
  endif
endwhile

stop

@enduml

PlantUML version 1.2022.5(Sat Apr 30 05:55:52 ECT 2022)
(GPL source distribution)
Java Runtime: OpenJDK Runtime Environment
JVM: OpenJDK 64-Bit Server VM
Default Encoding: UTF-8
Language: es
Country: EC
--></g></svg>