<?xml version="1.0" encoding="UTF-8" standalone="no"?><svg xmlns="http://www.w3.org/2000/svg" xmlns:xlink="http://www.w3.org/1999/xlink" contentStyleType="text/css" height="510px" preserveAspectRatio="none" style="width:408px;height:510px;background:#FFFFFF;" version="1.1" viewBox="0 0 408 510" width="408px" zoomAndPan="magnify"><defs/><g><rect height="26.4883" style="stroke:#00000000;stroke-width:1.0;fill:none;" width="359" x="17.5" y="5"/><text fill="#000000" font-family="sans-serif" font-size="14" font-weight="bold" lengthAdjust="spacing" textLength="349" x="22.5" y="23.5352">Klondike - PileToPileMove  - Use Case Diagram</text><g id="IN_GAME"><rect fill="#F1F1F1" height="50" rx="12.5" ry="12.5" style="stroke:#181818;stroke-width:0.5;" width="81" x="135.5" y="99.4883"/><line style="stroke:#181818;stroke-width:0.5;" x1="135.5" x2="216.5" y1="125.9766" y2="125.9766"/><text fill="#000000" font-family="sans-serif" font-size="14" lengthAdjust="spacing" textLength="61" x="145.5" y="118.0234">IN_GAME</text></g><g id="CARD_IN_PILE"><rect fill="#F1F1F1" height="50" rx="12.5" ry="12.5" style="stroke:#181818;stroke-width:0.5;" width="114" x="119" y="202.4883"/><line style="stroke:#181818;stroke-width:0.5;" x1="119" x2="233" y1="228.9766" y2="228.9766"/><text fill="#000000" font-family="sans-serif" font-size="14" lengthAdjust="spacing" textLength="94" x="129" y="221.0234">CARD_IN_PILE</text></g><g id="elem_if"><polygon fill="#F1F1F1" points="176,320.4883,188,332.4883,176,344.4883,164,332.4883,176,320.4883" style="stroke:#181818;stroke-width:0.5;"/></g><g id="CARD_IN_ANOTHER_PILE"><rect fill="#F1F1F1" height="50" rx="12.5" ry="12.5" style="stroke:#181818;stroke-width:0.5;" width="188" x="7" y="397.4883"/><line style="stroke:#181818;stroke-width:0.5;" x1="7" x2="195" y1="423.9766" y2="423.9766"/><text fill="#000000" font-family="sans-serif" font-size="14" lengthAdjust="spacing" textLength="168" x="17" y="416.0234">CARD_IN_ANOTHER_PILE</text></g><ellipse cx="176" cy="48.4883" fill="#222222" rx="10" ry="10" style="stroke:none;stroke-width:1.0;"/><ellipse cx="192" cy="494.4883" fill="none" rx="10" ry="10" style="stroke:#222222;stroke-width:1.0;"/><ellipse cx="192.5" cy="494.9883" fill="#222222" rx="6" ry="6" style="stroke:none;stroke-width:1.0;"/><path d="M176,62.7383 C176,72.4678 176,86.872 176,99.2127 " fill="none" style="stroke:#181818;stroke-width:1.0;"/><polygon fill="#181818" points="176,99.2127,180,90.2127,176,94.2127,172,90.2127,176,99.2127" style="stroke:#181818;stroke-width:1.0;"/><path d="M176,149.6803 C176,165.554 176,186.2392 176,202.1436 " fill="none" style="stroke:#181818;stroke-width:1.0;"/><polygon fill="#181818" points="176,202.1436,180,193.1436,176,197.1436,172,193.1436,176,202.1436" style="stroke:#181818;stroke-width:1.0;"/><text fill="#000000" font-family="sans-serif" font-size="13" lengthAdjust="spacing" textLength="208" x="177" y="181.0566">Player take card from Foundation</text><path d="M176,252.6372 C176,274.0429 176,304.3296 176,320.4258 " fill="none" style="stroke:#181818;stroke-width:1.0;"/><polygon fill="#181818" points="176,320.4258,180,311.4258,176,315.4258,172,311.4258,176,320.4258" style="stroke:#181818;stroke-width:1.0;"/><text fill="#000000" font-family="sans-serif" font-size="13" lengthAdjust="spacing" textLength="219" x="177" y="284.0566">[&lt; CardNumber AND DiferentColor</text><text fill="#000000" font-family="sans-serif" font-size="13" lengthAdjust="spacing" textLength="124" x="228.5" y="299.3672">OR CardNumer is K]</text><path d="M163.5959,337.2166 C151.417,341.4758 133.0977,349.5757 122,362.4883 C113.5668,372.3006 108.4362,385.7392 105.36,397.3126 " fill="none" style="stroke:#181818;stroke-width:1.0;"/><polygon fill="#181818" points="105.36,397.3126,111.5377,389.6421,106.6444,392.4804,103.8061,387.5871,105.36,397.3126" style="stroke:#181818;stroke-width:1.0;"/><text fill="#000000" font-family="sans-serif" font-size="13" lengthAdjust="spacing" textLength="93" x="123" y="376.0566">PileToPileMove</text><path d="M188.1751,338.3129 C197.9458,342.9135 210.9888,350.8736 217,362.4883 C238.3821,403.8025 211.7336,460.7701 198.561,484.4629 " fill="none" style="stroke:#181818;stroke-width:1.0;"/><polygon fill="#181818" points="198.561,484.4629,206.4303,478.5406,200.9906,480.0929,199.4383,474.6532,198.561,484.4629" style="stroke:#181818;stroke-width:1.0;"/><text fill="#000000" font-family="sans-serif" font-size="13" lengthAdjust="spacing" textLength="135" x="226" y="427.5566">TryAnotherMovement</text><path d="M131.5548,447.6635 C148.9038,461.3902 169.5138,477.697 181.6332,487.2859 " fill="none" style="stroke:#181818;stroke-width:1.0;"/><polygon fill="#181818" points="181.6332,487.2859,177.0571,478.5647,177.712,484.1835,172.0932,484.8385,181.6332,487.2859" style="stroke:#181818;stroke-width:1.0;"/><!--MD5=[9e106a6b3a2b29b71a47cbaae0d1b912]
@startuml UCPileToPileMove
!pragma layout smetana
title Klondike - PileToPileMove  - Use Case Diagram

state IN_GAME
state CARD_IN_PILE
state if <<choice>>
state CARD_IN_ANOTHER_PILE

[*] - -> IN_GAME
IN_GAME - -> CARD_IN_PILE: Player take card from Foundation
CARD_IN_PILE - -> if: [< CardNumber AND DiferentColor \n OR CardNumer is K]
if - -> CARD_IN_ANOTHER_PILE: PileToPileMove
if - -> [*]: TryAnotherMovement
CARD_IN_ANOTHER_PILE- -> [*]

@enduml

PlantUML version 1.2022.5(Sat Apr 30 05:55:52 ECT 2022)
(GPL source distribution)
Java Runtime: OpenJDK Runtime Environment
JVM: OpenJDK 64-Bit Server VM
Default Encoding: UTF-8
Language: es
Country: EC
--></g></svg>