<?xml version="1.0" encoding="UTF-8" standalone="no"?><svg xmlns="http://www.w3.org/2000/svg" xmlns:xlink="http://www.w3.org/1999/xlink" contentStyleType="text/css" height="217px" preserveAspectRatio="none" style="width:561px;height:217px;background:#FFFFFF;" version="1.1" viewBox="0 0 561 217" width="561px" zoomAndPan="magnify"><defs/><g><rect height="26.4883" style="stroke:#00000000;stroke-width:1.0;fill:none;" width="113" x="217" y="5"/><text fill="#000000" font-family="sans-serif" font-size="14" font-weight="bold" lengthAdjust="spacing" textLength="103" x="222" y="23.5352">Paquetes MVC</text><!--MD5=[027ebfd53c01aea08f474edbf35d0797]
cluster Models--><g id="cluster_Models"><path d="M8.5,43.4883 L61.5,43.4883 A3.75,3.75 0 0 1 64,45.9883 L71,65.9766 L551.5,65.9766 A2.5,2.5 0 0 1 554,68.4766 L554,207.9883 A2.5,2.5 0 0 1 551.5,210.4883 L8.5,210.4883 A2.5,2.5 0 0 1 6,207.9883 L6,45.9883 A2.5,2.5 0 0 1 8.5,43.4883 " style="stroke:#000000;stroke-width:1.5;fill:none;"/><line style="stroke:#000000;stroke-width:1.5;fill:none;" x1="6" x2="71" y1="65.9766" y2="65.9766"/><text fill="#000000" font-family="sans-serif" font-size="14" font-weight="bold" lengthAdjust="spacing" textLength="52" x="10" y="59.0234">Models</text></g><!--MD5=[d63f0e2cff0a030c2b832dd7cdde9bf8]
class StackModel--><g id="elem_StackModel"><rect codeLine="6" fill="#F1F1F1" height="48" id="StackModel" rx="2.5" ry="2.5" style="stroke:#181818;stroke-width:0.5;" width="110" x="307" y="70.4883"/><ellipse cx="322" cy="86.4883" fill="#ADD1B2" rx="11" ry="11" style="stroke:#181818;stroke-width:1.0;"/><path d="M324.4731,92.6313 Q323.8921,92.9302 323.2529,93.0796 Q322.6138,93.229 321.9082,93.229 Q319.4014,93.229 318.0815,91.5771 Q316.7617,89.9253 316.7617,86.8042 Q316.7617,83.6748 318.0815,82.0229 Q319.4014,80.3711 321.9082,80.3711 Q322.6138,80.3711 323.2612,80.5205 Q323.9087,80.6699 324.4731,80.9688 L324.4731,83.6914 Q323.8423,83.1104 323.2488,82.8406 Q322.6553,82.5708 322.0244,82.5708 Q320.6797,82.5708 319.9949,83.6375 Q319.3101,84.7041 319.3101,86.8042 Q319.3101,88.896 319.9949,89.9626 Q320.6797,91.0293 322.0244,91.0293 Q322.6553,91.0293 323.2488,90.7595 Q323.8423,90.4897 324.4731,89.9087 Z " fill="#000000"/><text fill="#000000" font-family="sans-serif" font-size="14" lengthAdjust="spacing" textLength="78" x="336" y="91.7793">StackModel</text><line style="stroke:#181818;stroke-width:0.5;" x1="308" x2="416" y1="102.4883" y2="102.4883"/><line style="stroke:#181818;stroke-width:0.5;" x1="308" x2="416" y1="110.4883" y2="110.4883"/></g><!--MD5=[01632ccb838a58e988d8c5c49aed9151]
class CardModel--><g id="elem_CardModel"><rect codeLine="7" fill="#F1F1F1" height="48" id="CardModel" rx="2.5" ry="2.5" style="stroke:#181818;stroke-width:0.5;" width="107" x="176.5" y="70.4883"/><ellipse cx="191.5" cy="86.4883" fill="#ADD1B2" rx="11" ry="11" style="stroke:#181818;stroke-width:1.0;"/><path d="M193.9731,92.6313 Q193.3921,92.9302 192.7529,93.0796 Q192.1138,93.229 191.4082,93.229 Q188.9014,93.229 187.5815,91.5771 Q186.2617,89.9253 186.2617,86.8042 Q186.2617,83.6748 187.5815,82.0229 Q188.9014,80.3711 191.4082,80.3711 Q192.1138,80.3711 192.7612,80.5205 Q193.4087,80.6699 193.9731,80.9688 L193.9731,83.6914 Q193.3423,83.1104 192.7488,82.8406 Q192.1553,82.5708 191.5244,82.5708 Q190.1797,82.5708 189.4949,83.6375 Q188.8101,84.7041 188.8101,86.8042 Q188.8101,88.896 189.4949,89.9626 Q190.1797,91.0293 191.5244,91.0293 Q192.1553,91.0293 192.7488,90.7595 Q193.3423,90.4897 193.9731,89.9087 Z " fill="#000000"/><text fill="#000000" font-family="sans-serif" font-size="14" lengthAdjust="spacing" textLength="75" x="205.5" y="91.7793">CardModel</text><line style="stroke:#181818;stroke-width:0.5;" x1="177.5" x2="282.5" y1="102.4883" y2="102.4883"/><line style="stroke:#181818;stroke-width:0.5;" x1="177.5" x2="282.5" y1="110.4883" y2="110.4883"/></g><!--MD5=[1e72b3cc921a55cc927271cbd5918086]
class PlayerModel--><g id="elem_PlayerModel"><rect codeLine="8" fill="#F1F1F1" height="48" id="PlayerModel" rx="2.5" ry="2.5" style="stroke:#181818;stroke-width:0.5;" width="115" x="33.5" y="70.4883"/><ellipse cx="48.5" cy="86.4883" fill="#ADD1B2" rx="11" ry="11" style="stroke:#181818;stroke-width:1.0;"/><path d="M50.9731,92.6313 Q50.3921,92.9302 49.7529,93.0796 Q49.1138,93.229 48.4082,93.229 Q45.9014,93.229 44.5815,91.5771 Q43.2617,89.9253 43.2617,86.8042 Q43.2617,83.6748 44.5815,82.0229 Q45.9014,80.3711 48.4082,80.3711 Q49.1138,80.3711 49.7612,80.5205 Q50.4087,80.6699 50.9731,80.9688 L50.9731,83.6914 Q50.3423,83.1104 49.7488,82.8406 Q49.1553,82.5708 48.5244,82.5708 Q47.1797,82.5708 46.4949,83.6375 Q45.8101,84.7041 45.8101,86.8042 Q45.8101,88.896 46.4949,89.9626 Q47.1797,91.0293 48.5244,91.0293 Q49.1553,91.0293 49.7488,90.7595 Q50.3423,90.4897 50.9731,89.9087 Z " fill="#000000"/><text fill="#000000" font-family="sans-serif" font-size="14" lengthAdjust="spacing" textLength="83" x="62.5" y="91.7793">PlayerModel</text><line style="stroke:#181818;stroke-width:0.5;" x1="34.5" x2="147.5" y1="102.4883" y2="102.4883"/><line style="stroke:#181818;stroke-width:0.5;" x1="34.5" x2="147.5" y1="110.4883" y2="110.4883"/></g><!--MD5=[5a845e892a5bbb68492d19369860ec46]
class WasteModel--><g id="elem_WasteModel"><rect codeLine="9" fill="#F1F1F1" height="48" id="WasteModel" rx="2.5" ry="2.5" style="stroke:#181818;stroke-width:0.5;" width="114" x="14" y="154.4883"/><ellipse cx="29" cy="170.4883" fill="#ADD1B2" rx="11" ry="11" style="stroke:#181818;stroke-width:1.0;"/><path d="M31.4731,176.6313 Q30.8921,176.9302 30.2529,177.0796 Q29.6138,177.229 28.9082,177.229 Q26.4014,177.229 25.0815,175.5771 Q23.7617,173.9253 23.7617,170.8042 Q23.7617,167.6748 25.0815,166.0229 Q26.4014,164.3711 28.9082,164.3711 Q29.6138,164.3711 30.2612,164.5205 Q30.9087,164.6699 31.4731,164.9688 L31.4731,167.6914 Q30.8423,167.1104 30.2488,166.8406 Q29.6553,166.5708 29.0244,166.5708 Q27.6797,166.5708 26.9949,167.6375 Q26.3101,168.7041 26.3101,170.8042 Q26.3101,172.896 26.9949,173.9626 Q27.6797,175.0293 29.0244,175.0293 Q29.6553,175.0293 30.2488,174.7595 Q30.8423,174.4897 31.4731,173.9087 Z " fill="#000000"/><text fill="#000000" font-family="sans-serif" font-size="14" lengthAdjust="spacing" textLength="82" x="43" y="175.7793">WasteModel</text><line style="stroke:#181818;stroke-width:0.5;" x1="15" x2="127" y1="186.4883" y2="186.4883"/><line style="stroke:#181818;stroke-width:0.5;" x1="15" x2="127" y1="194.4883" y2="194.4883"/></g><!--MD5=[66fbf4a293e9439a47b162be5edd7b1d]
class FoundationModel--><g id="elem_FoundationModel"><rect codeLine="10" fill="#F1F1F1" height="48" id="FoundationModel" rx="2.5" ry="2.5" style="stroke:#181818;stroke-width:0.5;" width="153" x="146.5" y="154.4883"/><ellipse cx="161.5" cy="170.4883" fill="#ADD1B2" rx="11" ry="11" style="stroke:#181818;stroke-width:1.0;"/><path d="M163.9731,176.6313 Q163.3921,176.9302 162.7529,177.0796 Q162.1138,177.229 161.4082,177.229 Q158.9014,177.229 157.5815,175.5771 Q156.2617,173.9253 156.2617,170.8042 Q156.2617,167.6748 157.5815,166.0229 Q158.9014,164.3711 161.4082,164.3711 Q162.1138,164.3711 162.7612,164.5205 Q163.4087,164.6699 163.9731,164.9688 L163.9731,167.6914 Q163.3423,167.1104 162.7488,166.8406 Q162.1553,166.5708 161.5244,166.5708 Q160.1797,166.5708 159.4949,167.6375 Q158.8101,168.7041 158.8101,170.8042 Q158.8101,172.896 159.4949,173.9626 Q160.1797,175.0293 161.5244,175.0293 Q162.1553,175.0293 162.7488,174.7595 Q163.3423,174.4897 163.9731,173.9087 Z " fill="#000000"/><text fill="#000000" font-family="sans-serif" font-size="14" lengthAdjust="spacing" textLength="121" x="175.5" y="175.7793">FoundationModel</text><line style="stroke:#181818;stroke-width:0.5;" x1="147.5" x2="298.5" y1="186.4883" y2="186.4883"/><line style="stroke:#181818;stroke-width:0.5;" x1="147.5" x2="298.5" y1="194.4883" y2="194.4883"/></g><!--MD5=[0c3d5d4b7b69caac30c25735c73fa698]
class PileModel--><g id="elem_PileModel"><rect codeLine="11" fill="#F1F1F1" height="48" id="PileModel" rx="2.5" ry="2.5" style="stroke:#181818;stroke-width:0.5;" width="98" x="318" y="154.4883"/><ellipse cx="333" cy="170.4883" fill="#ADD1B2" rx="11" ry="11" style="stroke:#181818;stroke-width:1.0;"/><path d="M335.4731,176.6313 Q334.8921,176.9302 334.2529,177.0796 Q333.6138,177.229 332.9082,177.229 Q330.4014,177.229 329.0815,175.5771 Q327.7617,173.9253 327.7617,170.8042 Q327.7617,167.6748 329.0815,166.0229 Q330.4014,164.3711 332.9082,164.3711 Q333.6138,164.3711 334.2612,164.5205 Q334.9087,164.6699 335.4731,164.9688 L335.4731,167.6914 Q334.8423,167.1104 334.2488,166.8406 Q333.6553,166.5708 333.0244,166.5708 Q331.6797,166.5708 330.9949,167.6375 Q330.3101,168.7041 330.3101,170.8042 Q330.3101,172.896 330.9949,173.9626 Q331.6797,175.0293 333.0244,175.0293 Q333.6553,175.0293 334.2488,174.7595 Q334.8423,174.4897 335.4731,173.9087 Z " fill="#000000"/><text fill="#000000" font-family="sans-serif" font-size="14" lengthAdjust="spacing" textLength="66" x="347" y="175.7793">PileModel</text><line style="stroke:#181818;stroke-width:0.5;" x1="319" x2="415" y1="186.4883" y2="186.4883"/><line style="stroke:#181818;stroke-width:0.5;" x1="319" x2="415" y1="194.4883" y2="194.4883"/></g><!--MD5=[c731506322bf6c3e4a248bceaddd3e44]
class StockModel--><g id="elem_StockModel"><rect codeLine="12" fill="#F1F1F1" height="48" id="StockModel" rx="2.5" ry="2.5" style="stroke:#181818;stroke-width:0.5;" width="111" x="434.5" y="154.4883"/><ellipse cx="449.5" cy="170.4883" fill="#ADD1B2" rx="11" ry="11" style="stroke:#181818;stroke-width:1.0;"/><path d="M451.9731,176.6313 Q451.3921,176.9302 450.7529,177.0796 Q450.1138,177.229 449.4082,177.229 Q446.9014,177.229 445.5815,175.5771 Q444.2617,173.9253 444.2617,170.8042 Q444.2617,167.6748 445.5815,166.0229 Q446.9014,164.3711 449.4082,164.3711 Q450.1138,164.3711 450.7612,164.5205 Q451.4087,164.6699 451.9731,164.9688 L451.9731,167.6914 Q451.3423,167.1104 450.7488,166.8406 Q450.1553,166.5708 449.5244,166.5708 Q448.1797,166.5708 447.4949,167.6375 Q446.8101,168.7041 446.8101,170.8042 Q446.8101,172.896 447.4949,173.9626 Q448.1797,175.0293 449.5244,175.0293 Q450.1553,175.0293 450.7488,174.7595 Q451.3423,174.4897 451.9731,173.9087 Z " fill="#000000"/><text fill="#000000" font-family="sans-serif" font-size="14" lengthAdjust="spacing" textLength="79" x="463.5" y="175.7793">StockModel</text><line style="stroke:#181818;stroke-width:0.5;" x1="435.5" x2="544.5" y1="186.4883" y2="186.4883"/><line style="stroke:#181818;stroke-width:0.5;" x1="435.5" x2="544.5" y1="194.4883" y2="194.4883"/></g><path d="M306.7349,114.1518 C301.7695,115.6754 296.8043,117.144 292,118.4883 C223.8934,137.5454 204.9336,134.8236 137,154.4883 C134.0861,155.3318 131.1119,156.2299 128.1169,157.1638 " fill="none" style="stroke:#181818;stroke-width:1.0;"/><polygon fill="#FFFFFF" points="306.7349,114.1518,289.6787,113.1095,293.199,124.5815,306.7349,114.1518" style="stroke:#181818;stroke-width:1.0;"/><path d="M322.9108,118.5481 C303.9604,129.7274 281.2525,143.1235 262.2774,154.3175 " fill="none" style="stroke:#181818;stroke-width:1.0;"/><polygon fill="#FFFFFF" points="322.9108,118.5481,306.0815,121.5099,312.1787,131.8455,322.9108,118.5481" style="stroke:#181818;stroke-width:1.0;"/><path d="M363.4194,118.7669 C364.1008,129.9413 364.9148,143.2904 365.5943,154.4353 " fill="none" style="stroke:#181818;stroke-width:1.0;"/><polygon fill="#FFFFFF" points="363.4194,118.7669,358.4043,135.1024,370.3821,134.372,363.4194,118.7669" style="stroke:#181818;stroke-width:1.0;"/><path d="M397.9958,118.5481 C415.4465,129.7274 436.3574,143.1235 453.8309,154.3175 " fill="none" style="stroke:#181818;stroke-width:1.0;"/><polygon fill="#FFFFFF" points="397.9958,118.5481,408.2317,132.2311,414.7048,122.1267,397.9958,118.5481" style="stroke:#181818;stroke-width:1.0;"/><!--MD5=[affd432be27a478a2892d8e4ccd34bd3]
@startuml ArquitecturaMVC
!pragma layout smetana
title Paquetes MVC
top to bottom direction

package Models {
    class StackModel
    class CardModel
    class PlayerModel
    class WasteModel
    class FoundationModel
    class PileModel
    class StockModel
    StackModel <|-down- WasteModel
    StackModel <|-down- FoundationModel
    StackModel <|-down- PileModel
    StackModel <|-down- StockModel
}

@enduml 

PlantUML version 1.2022.5(Sat Apr 30 05:55:52 ECT 2022)
(GPL source distribution)
Java Runtime: OpenJDK Runtime Environment
JVM: OpenJDK 64-Bit Server VM
Default Encoding: UTF-8
Language: es
Country: EC
--></g></svg>