<?xml version="1.0" encoding="UTF-8" standalone="no"?><svg xmlns="http://www.w3.org/2000/svg" xmlns:xlink="http://www.w3.org/1999/xlink" contentScriptType="application/ecmascript" contentStyleType="text/css" height="507px" preserveAspectRatio="none" style="width:1808px;height:507px;background:#FFFFFF;" version="1.1" viewBox="0 0 1808 507" width="1808px" zoomAndPan="magnify"><defs><filter height="300%" id="f1xl41gp79krss" width="300%" x="-1" y="-1"><feGaussianBlur result="blurOut" stdDeviation="2.0"/><feColorMatrix in="blurOut" result="blurOut2" type="matrix" values="0 0 0 0 0 0 0 0 0 0 0 0 0 0 0 0 0 0 .4 0"/><feOffset dx="4.0" dy="4.0" in="blurOut2" result="blurOut3"/><feBlend in="SourceGraphic" in2="blurOut3" mode="normal"/></filter></defs><g><text fill="#000000" font-family="sans-serif" font-size="18" lengthAdjust="spacing" textLength="248" x="773.5" y="17.4023">Klondike  - Objects Diagram</text><rect fill="#FEFECE" filter="url(#f1xl41gp79krss)" height="34.1328" style="stroke:#A80036;stroke-width:1.5;" width="68" x="804" y="88.8374"/><text fill="#000000" font-family="sans-serif" font-size="12" lengthAdjust="spacing" textLength="54" x="811" y="102.439">:Klondike</text><line style="stroke:#A80036;stroke-width:1.5;" x1="805" x2="871" y1="106.9702" y2="106.9702"/><rect fill="#FEFECE" filter="url(#f1xl41gp79krss)" height="34.1328" style="stroke:#A80036;stroke-width:1.5;" width="52" x="104" y="88.8374"/><text fill="#000000" font-family="sans-serif" font-size="12" lengthAdjust="spacing" textLength="38" x="111" y="102.439">:Waste</text><line style="stroke:#A80036;stroke-width:1.5;" x1="105" x2="155" y1="106.9702" y2="106.9702"/><rect fill="#FEFECE" filter="url(#f1xl41gp79krss)" height="34.1328" style="stroke:#A80036;stroke-width:1.5;" width="48" x="738" y="88.8374"/><text fill="#000000" font-family="sans-serif" font-size="12" lengthAdjust="spacing" textLength="34" x="745" y="102.439">:Stock</text><line style="stroke:#A80036;stroke-width:1.5;" x1="739" x2="785" y1="106.9702" y2="106.9702"/><rect fill="#FEFECE" filter="url(#f1xl41gp79krss)" height="34.1328" style="stroke:#A80036;stroke-width:1.5;" width="38" x="1441" y="185.8374"/><text fill="#000000" font-family="sans-serif" font-size="12" lengthAdjust="spacing" textLength="24" x="1448" y="199.439">:Pile</text><line style="stroke:#A80036;stroke-width:1.5;" x1="1442" x2="1478" y1="203.9702" y2="203.9702"/><rect fill="#FEFECE" filter="url(#f1xl41gp79krss)" height="34.1328" style="stroke:#A80036;stroke-width:1.5;" width="38" x="1640" y="185.8374"/><text fill="#000000" font-family="sans-serif" font-size="12" lengthAdjust="spacing" textLength="24" x="1647" y="199.439">:Pile</text><line style="stroke:#A80036;stroke-width:1.5;" x1="1641" x2="1677" y1="203.9702" y2="203.9702"/><rect fill="#FEFECE" filter="url(#f1xl41gp79krss)" height="34.1328" style="stroke:#A80036;stroke-width:1.5;" width="38" x="183" y="185.8374"/><text fill="#000000" font-family="sans-serif" font-size="12" lengthAdjust="spacing" textLength="24" x="190" y="199.439">:Pile</text><line style="stroke:#A80036;stroke-width:1.5;" x1="184" x2="220" y1="203.9702" y2="203.9702"/><rect fill="#FEFECE" filter="url(#f1xl41gp79krss)" height="34.1328" style="stroke:#A80036;stroke-width:1.5;" width="38" x="430" y="185.8374"/><text fill="#000000" font-family="sans-serif" font-size="12" lengthAdjust="spacing" textLength="24" x="437" y="199.439">:Pile</text><line style="stroke:#A80036;stroke-width:1.5;" x1="431" x2="467" y1="203.9702" y2="203.9702"/><rect fill="#FEFECE" filter="url(#f1xl41gp79krss)" height="34.1328" style="stroke:#A80036;stroke-width:1.5;" width="38" x="714" y="185.8374"/><text fill="#000000" font-family="sans-serif" font-size="12" lengthAdjust="spacing" textLength="24" x="721" y="199.439">:Pile</text><line style="stroke:#A80036;stroke-width:1.5;" x1="715" x2="751" y1="203.9702" y2="203.9702"/><rect fill="#FEFECE" filter="url(#f1xl41gp79krss)" height="34.1328" style="stroke:#A80036;stroke-width:1.5;" width="38" x="929" y="185.8374"/><text fill="#000000" font-family="sans-serif" font-size="12" lengthAdjust="spacing" textLength="24" x="936" y="199.439">:Pile</text><line style="stroke:#A80036;stroke-width:1.5;" x1="930" x2="966" y1="203.9702" y2="203.9702"/><rect fill="#FEFECE" filter="url(#f1xl41gp79krss)" height="34.1328" style="stroke:#A80036;stroke-width:1.5;" width="38" x="1213" y="185.8374"/><text fill="#000000" font-family="sans-serif" font-size="12" lengthAdjust="spacing" textLength="24" x="1220" y="199.439">:Pile</text><line style="stroke:#A80036;stroke-width:1.5;" x1="1214" x2="1250" y1="203.9702" y2="203.9702"/><rect fill="#FEFECE" filter="url(#f1xl41gp79krss)" height="34.1328" style="stroke:#A80036;stroke-width:1.5;" width="81" x="890.5" y="88.8374"/><text fill="#000000" font-family="sans-serif" font-size="12" lengthAdjust="spacing" textLength="67" x="897.5" y="102.439">:Foundation</text><line style="stroke:#A80036;stroke-width:1.5;" x1="891.5" x2="970.5" y1="106.9702" y2="106.9702"/><rect fill="#FEFECE" filter="url(#f1xl41gp79krss)" height="61.4648" style="stroke:#A80036;stroke-width:1.5;" width="92" x="416" y="75.3374"/><text fill="#000000" font-family="sans-serif" font-size="12" lengthAdjust="spacing" textLength="32" x="446" y="88.939">:Card</text><line style="stroke:#A80036;stroke-width:1.5;" x1="417" x2="507" y1="93.4702" y2="93.4702"/><text fill="#000000" font-family="sans-serif" font-size="10" lengthAdjust="spacing" textLength="67" x="422" y="107.1382">color: random</text><text fill="#000000" font-family="sans-serif" font-size="10" lengthAdjust="spacing" textLength="80" x="422" y="118.9155">number: random</text><text fill="#000000" font-family="sans-serif" font-size="10" lengthAdjust="spacing" textLength="62" x="422" y="130.6929">turned: false</text><rect fill="#FEFECE" filter="url(#f1xl41gp79krss)" height="61.4648" style="stroke:#A80036;stroke-width:1.5;" width="70" x="16" y="75.3374"/><text fill="#000000" font-family="sans-serif" font-size="12" lengthAdjust="spacing" textLength="32" x="35" y="88.939">:Card</text><line style="stroke:#A80036;stroke-width:1.5;" x1="17" x2="85" y1="93.4702" y2="93.4702"/><text fill="#000000" font-family="sans-serif" font-size="10" lengthAdjust="spacing" textLength="56" x="22" y="107.1382">color: black</text><text fill="#000000" font-family="sans-serif" font-size="10" lengthAdjust="spacing" textLength="49" x="22" y="118.9155">number: 7</text><text fill="#000000" font-family="sans-serif" font-size="10" lengthAdjust="spacing" textLength="58" x="22" y="130.6929">turned: true</text><rect fill="#FEFECE" filter="url(#f1xl41gp79krss)" height="61.4648" style="stroke:#A80036;stroke-width:1.5;" width="70" x="7" y="172.3374"/><text fill="#000000" font-family="sans-serif" font-size="12" lengthAdjust="spacing" textLength="32" x="26" y="185.939">:Card</text><line style="stroke:#A80036;stroke-width:1.5;" x1="8" x2="76" y1="190.4702" y2="190.4702"/><text fill="#000000" font-family="sans-serif" font-size="10" lengthAdjust="spacing" textLength="56" x="13" y="204.1382">color: black</text><text fill="#000000" font-family="sans-serif" font-size="10" lengthAdjust="spacing" textLength="49" x="13" y="215.9155">number: 4</text><text fill="#000000" font-family="sans-serif" font-size="10" lengthAdjust="spacing" textLength="58" x="13" y="227.6929">turned: true</text><rect fill="#FEFECE" filter="url(#f1xl41gp79krss)" height="61.4648" style="stroke:#A80036;stroke-width:1.5;" width="70" x="95" y="172.3374"/><text fill="#000000" font-family="sans-serif" font-size="12" lengthAdjust="spacing" textLength="32" x="114" y="185.939">:Card</text><line style="stroke:#A80036;stroke-width:1.5;" x1="96" x2="164" y1="190.4702" y2="190.4702"/><text fill="#000000" font-family="sans-serif" font-size="10" lengthAdjust="spacing" textLength="46" x="101" y="204.1382">color: red</text><text fill="#000000" font-family="sans-serif" font-size="10" lengthAdjust="spacing" textLength="51" x="101" y="215.9155">number: Q</text><text fill="#000000" font-family="sans-serif" font-size="10" lengthAdjust="spacing" textLength="58" x="101" y="227.6929">turned: true</text><rect fill="#FEFECE" filter="url(#f1xl41gp79krss)" height="61.4648" style="stroke:#A80036;stroke-width:1.5;" width="70" x="1488" y="269.3374"/><text fill="#000000" font-family="sans-serif" font-size="12" lengthAdjust="spacing" textLength="32" x="1507" y="282.939">:Card</text><line style="stroke:#A80036;stroke-width:1.5;" x1="1489" x2="1557" y1="287.4702" y2="287.4702"/><text fill="#000000" font-family="sans-serif" font-size="10" lengthAdjust="spacing" textLength="46" x="1494" y="301.1382">color: red</text><text fill="#000000" font-family="sans-serif" font-size="10" lengthAdjust="spacing" textLength="50" x="1494" y="312.9155">number: K</text><text fill="#000000" font-family="sans-serif" font-size="10" lengthAdjust="spacing" textLength="58" x="1494" y="324.6929">turned: true</text><rect fill="#FEFECE" filter="url(#f1xl41gp79krss)" height="61.4648" style="stroke:#A80036;stroke-width:1.5;" width="70" x="1724" y="269.3374"/><text fill="#000000" font-family="sans-serif" font-size="12" lengthAdjust="spacing" textLength="32" x="1743" y="282.939">:Card</text><line style="stroke:#A80036;stroke-width:1.5;" x1="1725" x2="1793" y1="287.4702" y2="287.4702"/><text fill="#000000" font-family="sans-serif" font-size="10" lengthAdjust="spacing" textLength="46" x="1730" y="301.1382">color: red</text><text fill="#000000" font-family="sans-serif" font-size="10" lengthAdjust="spacing" textLength="49" x="1730" y="312.9155">number: 9</text><text fill="#000000" font-family="sans-serif" font-size="10" lengthAdjust="spacing" textLength="58" x="1730" y="324.6929">turned: true</text><rect fill="#FEFECE" filter="url(#f1xl41gp79krss)" height="61.4648" style="stroke:#A80036;stroke-width:1.5;" width="92" x="1576" y="269.3374"/><text fill="#000000" font-family="sans-serif" font-size="12" lengthAdjust="spacing" textLength="32" x="1606" y="282.939">:Card</text><line style="stroke:#A80036;stroke-width:1.5;" x1="1577" x2="1667" y1="287.4702" y2="287.4702"/><text fill="#000000" font-family="sans-serif" font-size="10" lengthAdjust="spacing" textLength="67" x="1582" y="301.1382">color: random</text><text fill="#000000" font-family="sans-serif" font-size="10" lengthAdjust="spacing" textLength="80" x="1582" y="312.9155">number: random</text><text fill="#000000" font-family="sans-serif" font-size="10" lengthAdjust="spacing" textLength="62" x="1582" y="324.6929">turned: false</text><rect fill="#FEFECE" filter="url(#f1xl41gp79krss)" height="61.4648" style="stroke:#A80036;stroke-width:1.5;" width="70" x="30" y="269.3374"/><text fill="#000000" font-family="sans-serif" font-size="12" lengthAdjust="spacing" textLength="32" x="49" y="282.939">:Card</text><line style="stroke:#A80036;stroke-width:1.5;" x1="31" x2="99" y1="287.4702" y2="287.4702"/><text fill="#000000" font-family="sans-serif" font-size="10" lengthAdjust="spacing" textLength="56" x="36" y="301.1382">color: black</text><text fill="#000000" font-family="sans-serif" font-size="10" lengthAdjust="spacing" textLength="49" x="36" y="312.9155">number: 3</text><text fill="#000000" font-family="sans-serif" font-size="10" lengthAdjust="spacing" textLength="58" x="36" y="324.6929">turned: true</text><rect fill="#FEFECE" filter="url(#f1xl41gp79krss)" height="61.4648" style="stroke:#A80036;stroke-width:1.5;" width="92" x="156" y="269.3374"/><text fill="#000000" font-family="sans-serif" font-size="12" lengthAdjust="spacing" textLength="32" x="186" y="282.939">:Card</text><line style="stroke:#A80036;stroke-width:1.5;" x1="157" x2="247" y1="287.4702" y2="287.4702"/><text fill="#000000" font-family="sans-serif" font-size="10" lengthAdjust="spacing" textLength="67" x="162" y="301.1382">color: random</text><text fill="#000000" font-family="sans-serif" font-size="10" lengthAdjust="spacing" textLength="80" x="162" y="312.9155">number: random</text><text fill="#000000" font-family="sans-serif" font-size="10" lengthAdjust="spacing" textLength="62" x="162" y="324.6929">turned: false</text><rect fill="#FEFECE" filter="url(#f1xl41gp79krss)" height="61.4648" style="stroke:#A80036;stroke-width:1.5;" width="70" x="314" y="269.3374"/><text fill="#000000" font-family="sans-serif" font-size="12" lengthAdjust="spacing" textLength="32" x="333" y="282.939">:Card</text><line style="stroke:#A80036;stroke-width:1.5;" x1="315" x2="383" y1="287.4702" y2="287.4702"/><text fill="#000000" font-family="sans-serif" font-size="10" lengthAdjust="spacing" textLength="46" x="320" y="301.1382">color: red</text><text fill="#000000" font-family="sans-serif" font-size="10" lengthAdjust="spacing" textLength="46" x="320" y="312.9155">number: J</text><text fill="#000000" font-family="sans-serif" font-size="10" lengthAdjust="spacing" textLength="58" x="320" y="324.6929">turned: true</text><rect fill="#FEFECE" filter="url(#f1xl41gp79krss)" height="61.4648" style="stroke:#A80036;stroke-width:1.5;" width="92" x="440" y="269.3374"/><text fill="#000000" font-family="sans-serif" font-size="12" lengthAdjust="spacing" textLength="32" x="470" y="282.939">:Card</text><line style="stroke:#A80036;stroke-width:1.5;" x1="441" x2="531" y1="287.4702" y2="287.4702"/><text fill="#000000" font-family="sans-serif" font-size="10" lengthAdjust="spacing" textLength="67" x="446" y="301.1382">color: random</text><text fill="#000000" font-family="sans-serif" font-size="10" lengthAdjust="spacing" textLength="80" x="446" y="312.9155">number: random</text><text fill="#000000" font-family="sans-serif" font-size="10" lengthAdjust="spacing" textLength="62" x="446" y="324.6929">turned: false</text><rect fill="#FEFECE" filter="url(#f1xl41gp79krss)" height="61.4648" style="stroke:#A80036;stroke-width:1.5;" width="70" x="598" y="269.3374"/><text fill="#000000" font-family="sans-serif" font-size="12" lengthAdjust="spacing" textLength="32" x="617" y="282.939">:Card</text><line style="stroke:#A80036;stroke-width:1.5;" x1="599" x2="667" y1="287.4702" y2="287.4702"/><text fill="#000000" font-family="sans-serif" font-size="10" lengthAdjust="spacing" textLength="56" x="604" y="301.1382">color: black</text><text fill="#000000" font-family="sans-serif" font-size="10" lengthAdjust="spacing" textLength="49" x="604" y="312.9155">number: 9</text><text fill="#000000" font-family="sans-serif" font-size="10" lengthAdjust="spacing" textLength="58" x="604" y="324.6929">turned: true</text><rect fill="#FEFECE" filter="url(#f1xl41gp79krss)" height="61.4648" style="stroke:#A80036;stroke-width:1.5;" width="92" x="724" y="269.3374"/><text fill="#000000" font-family="sans-serif" font-size="12" lengthAdjust="spacing" textLength="32" x="754" y="282.939">:Card</text><line style="stroke:#A80036;stroke-width:1.5;" x1="725" x2="815" y1="287.4702" y2="287.4702"/><text fill="#000000" font-family="sans-serif" font-size="10" lengthAdjust="spacing" textLength="67" x="730" y="301.1382">color: random</text><text fill="#000000" font-family="sans-serif" font-size="10" lengthAdjust="spacing" textLength="80" x="730" y="312.9155">number: random</text><text fill="#000000" font-family="sans-serif" font-size="10" lengthAdjust="spacing" textLength="62" x="730" y="324.6929">turned: false</text><rect fill="#FEFECE" filter="url(#f1xl41gp79krss)" height="61.4648" style="stroke:#A80036;stroke-width:1.5;" width="70" x="882" y="269.3374"/><text fill="#000000" font-family="sans-serif" font-size="12" lengthAdjust="spacing" textLength="32" x="901" y="282.939">:Card</text><line style="stroke:#A80036;stroke-width:1.5;" x1="883" x2="951" y1="287.4702" y2="287.4702"/><text fill="#000000" font-family="sans-serif" font-size="10" lengthAdjust="spacing" textLength="46" x="888" y="301.1382">color: red</text><text fill="#000000" font-family="sans-serif" font-size="10" lengthAdjust="spacing" textLength="49" x="888" y="312.9155">number: 7</text><text fill="#000000" font-family="sans-serif" font-size="10" lengthAdjust="spacing" textLength="58" x="888" y="324.6929">turned: true</text><rect fill="#FEFECE" filter="url(#f1xl41gp79krss)" height="61.4648" style="stroke:#A80036;stroke-width:1.5;" width="92" x="1008" y="269.3374"/><text fill="#000000" font-family="sans-serif" font-size="12" lengthAdjust="spacing" textLength="32" x="1038" y="282.939">:Card</text><line style="stroke:#A80036;stroke-width:1.5;" x1="1009" x2="1099" y1="287.4702" y2="287.4702"/><text fill="#000000" font-family="sans-serif" font-size="10" lengthAdjust="spacing" textLength="67" x="1014" y="301.1382">color: random</text><text fill="#000000" font-family="sans-serif" font-size="10" lengthAdjust="spacing" textLength="80" x="1014" y="312.9155">number: random</text><text fill="#000000" font-family="sans-serif" font-size="10" lengthAdjust="spacing" textLength="62" x="1014" y="324.6929">turned: false</text><rect fill="#FEFECE" filter="url(#f1xl41gp79krss)" height="61.4648" style="stroke:#A80036;stroke-width:1.5;" width="70" x="1166" y="269.3374"/><text fill="#000000" font-family="sans-serif" font-size="12" lengthAdjust="spacing" textLength="32" x="1185" y="282.939">:Card</text><line style="stroke:#A80036;stroke-width:1.5;" x1="1167" x2="1235" y1="287.4702" y2="287.4702"/><text fill="#000000" font-family="sans-serif" font-size="10" lengthAdjust="spacing" textLength="46" x="1172" y="301.1382">color: red</text><text fill="#000000" font-family="sans-serif" font-size="10" lengthAdjust="spacing" textLength="50" x="1172" y="312.9155">number: A</text><text fill="#000000" font-family="sans-serif" font-size="10" lengthAdjust="spacing" textLength="58" x="1172" y="324.6929">turned: true</text><rect fill="#FEFECE" filter="url(#f1xl41gp79krss)" height="61.4648" style="stroke:#A80036;stroke-width:1.5;" width="92" x="1292" y="269.3374"/><text fill="#000000" font-family="sans-serif" font-size="12" lengthAdjust="spacing" textLength="32" x="1322" y="282.939">:Card</text><line style="stroke:#A80036;stroke-width:1.5;" x1="1293" x2="1383" y1="287.4702" y2="287.4702"/><text fill="#000000" font-family="sans-serif" font-size="10" lengthAdjust="spacing" textLength="67" x="1298" y="301.1382">color: random</text><text fill="#000000" font-family="sans-serif" font-size="10" lengthAdjust="spacing" textLength="80" x="1298" y="312.9155">number: random</text><text fill="#000000" font-family="sans-serif" font-size="10" lengthAdjust="spacing" textLength="62" x="1298" y="324.6929">turned: false</text><path d="M989.5,93.3374 L989.5,118.6479 L1064.5,118.6479 L1064.5,103.3374 L1054.5,93.3374 L989.5,93.3374 " fill="#FBFB77" filter="url(#f1xl41gp79krss)" style="stroke:#A80036;stroke-width:1.0;"/><path d="M1054.5,93.3374 L1054.5,103.3374 L1064.5,103.3374 L1054.5,93.3374 " fill="#FBFB77" style="stroke:#A80036;stroke-width:1.0;"/><text fill="#000000" font-family="sans-serif" font-size="13" lengthAdjust="spacing" textLength="54" x="995.5" y="110.9057">Is Empty</text><path d="M574,85.3374 L574,125.9585 L720,125.9585 L720,95.3374 L710,85.3374 L574,85.3374 " fill="#FBFB77" filter="url(#f1xl41gp79krss)" style="stroke:#A80036;stroke-width:1.0;"/><path d="M710,85.3374 L710,95.3374 L720,95.3374 L710,85.3374 " fill="#FBFB77" style="stroke:#A80036;stroke-width:1.0;"/><text fill="#000000" font-family="sans-serif" font-size="13" lengthAdjust="spacing" textLength="88" x="580" y="102.9057">Stock have 21</text><text fill="#000000" font-family="sans-serif" font-size="13" lengthAdjust="spacing" textLength="121" x="584" y="118.2163">cards turned down.</text><path d="M526.5,93.3374 L526.5,118.6479 L555.5,118.6479 L555.5,103.3374 L545.5,93.3374 L526.5,93.3374 " fill="#FBFB77" filter="url(#f1xl41gp79krss)" style="stroke:#A80036;stroke-width:1.0;"/><path d="M545.5,93.3374 L545.5,103.3374 L555.5,103.3374 L545.5,93.3374 " fill="#FBFB77" style="stroke:#A80036;stroke-width:1.0;"/><text fill="#000000" font-family="sans-serif" font-size="13" lengthAdjust="spacing" textLength="8" x="532.5" y="110.9057">1</text><path d="M266.5,287.3374 L266.5,312.6479 L295.5,312.6479 L295.5,297.3374 L285.5,287.3374 L266.5,287.3374 " fill="#FBFB77" filter="url(#f1xl41gp79krss)" style="stroke:#A80036;stroke-width:1.0;"/><path d="M285.5,287.3374 L285.5,297.3374 L295.5,297.3374 L285.5,287.3374 " fill="#FBFB77" style="stroke:#A80036;stroke-width:1.0;"/><text fill="#000000" font-family="sans-serif" font-size="13" lengthAdjust="spacing" textLength="8" x="272.5" y="304.9057">2</text><path d="M550.5,287.3374 L550.5,312.6479 L579.5,312.6479 L579.5,297.3374 L569.5,287.3374 L550.5,287.3374 " fill="#FBFB77" filter="url(#f1xl41gp79krss)" style="stroke:#A80036;stroke-width:1.0;"/><path d="M569.5,287.3374 L569.5,297.3374 L579.5,297.3374 L569.5,287.3374 " fill="#FBFB77" style="stroke:#A80036;stroke-width:1.0;"/><text fill="#000000" font-family="sans-serif" font-size="13" lengthAdjust="spacing" textLength="8" x="556.5" y="304.9057">3</text><path d="M834.5,287.3374 L834.5,312.6479 L863.5,312.6479 L863.5,297.3374 L853.5,287.3374 L834.5,287.3374 " fill="#FBFB77" filter="url(#f1xl41gp79krss)" style="stroke:#A80036;stroke-width:1.0;"/><path d="M853.5,287.3374 L853.5,297.3374 L863.5,297.3374 L853.5,287.3374 " fill="#FBFB77" style="stroke:#A80036;stroke-width:1.0;"/><text fill="#000000" font-family="sans-serif" font-size="13" lengthAdjust="spacing" textLength="8" x="840.5" y="304.9057">4</text><path d="M1118.5,287.3374 L1118.5,312.6479 L1147.5,312.6479 L1147.5,297.3374 L1137.5,287.3374 L1118.5,287.3374 " fill="#FBFB77" filter="url(#f1xl41gp79krss)" style="stroke:#A80036;stroke-width:1.0;"/><path d="M1137.5,287.3374 L1137.5,297.3374 L1147.5,297.3374 L1137.5,287.3374 " fill="#FBFB77" style="stroke:#A80036;stroke-width:1.0;"/><text fill="#000000" font-family="sans-serif" font-size="13" lengthAdjust="spacing" textLength="8" x="1124.5" y="304.9057">5</text><path d="M1402.5,287.3374 L1402.5,312.6479 L1431.5,312.6479 L1431.5,297.3374 L1421.5,287.3374 L1402.5,287.3374 " fill="#FBFB77" filter="url(#f1xl41gp79krss)" style="stroke:#A80036;stroke-width:1.0;"/><path d="M1421.5,287.3374 L1421.5,297.3374 L1431.5,297.3374 L1421.5,287.3374 " fill="#FBFB77" style="stroke:#A80036;stroke-width:1.0;"/><text fill="#000000" font-family="sans-serif" font-size="13" lengthAdjust="spacing" textLength="8" x="1408.5" y="304.9057">6</text><path d="M804,366.3374 L804,498.8218 L1156,498.8218 L1156,376.3374 L1146,366.3374 L804,366.3374 " fill="#FBFB77" filter="url(#f1xl41gp79krss)" style="stroke:#A80036;stroke-width:1.0;"/><path d="M1146,366.3374 L1146,376.3374 L1156,376.3374 L1146,366.3374 " fill="#FBFB77" style="stroke:#A80036;stroke-width:1.0;"/><text fill="#000000" font-family="sans-serif" font-size="13" lengthAdjust="spacing" textLength="175" x="810" y="383.9057">Pile1 have 1 card turned up.</text><text fill="#000000" font-family="sans-serif" font-size="13" lengthAdjust="spacing" textLength="324" x="810" y="399.2163">Pile2 have 1 card turned up and 1 card turned down</text><text fill="#000000" font-family="sans-serif" font-size="13" lengthAdjust="spacing" textLength="331" x="810" y="414.5268">Pile3 have 1 card turned up and 2 cards turned down</text><text fill="#000000" font-family="sans-serif" font-size="13" lengthAdjust="spacing" textLength="331" x="810" y="429.8374">Pile4 have 1 card turned up and 3 cards turned down</text><text fill="#000000" font-family="sans-serif" font-size="13" lengthAdjust="spacing" textLength="331" x="810" y="445.1479">Pile5 have 1 card turned up and 4 cards turned down</text><text fill="#000000" font-family="sans-serif" font-size="13" lengthAdjust="spacing" textLength="331" x="810" y="460.4585">Pile6 have 1 card turned up and 5 cards turned down</text><text fill="#000000" font-family="sans-serif" font-size="13" lengthAdjust="spacing" textLength="331" x="810" y="475.769">Pile7 have 1 card turned up and 6 cards turned down</text><text fill="#000000" font-family="sans-serif" font-size="13" lengthAdjust="spacing" textLength="4" x="810" y="491.0796">.</text><path d="M872.1484,105.8374 C878.1255,105.8374 884.1027,105.8374 890.0798,105.8374 " fill="none" style="stroke:#A80036;stroke-width:1.0;"/><polygon fill="#A80036" points="872.1484,105.8374,878.1484,109.8374,884.1484,105.8374,878.1484,101.8374,872.1484,105.8374" style="stroke:#A80036;stroke-width:1.0;"/><polygon fill="#A80036" points="890.0798,105.8374,881.0798,101.8374,885.0798,105.8374,881.0798,109.8374,890.0798,105.8374" style="stroke:#A80036;stroke-width:1.0;"/><path d="M786.0469,105.8374 C791.9998,105.8374 797.9528,105.8374 803.9058,105.8374 " fill="none" style="stroke:#A80036;stroke-width:1.0;"/><polygon fill="#A80036" points="786.0469,105.8374,795.0469,109.8374,791.0469,105.8374,795.0469,101.8374,786.0469,105.8374" style="stroke:#A80036;stroke-width:1.0;"/><polygon fill="#A80036" points="803.9058,105.8374,797.9058,101.8374,791.9058,105.8374,797.9058,109.8374,803.9058,105.8374" style="stroke:#A80036;stroke-width:1.0;"/><path d="M156.2293,99.8668 C206.3612,88.7957 319.3956,65.4704 416,57.3374 C497.9324,50.4396 709.5004,27.1992 786,57.3374 C801.8504,63.5819 815.7227,77.1876 825.1436,88.4036 " fill="none" style="stroke:#A80036;stroke-width:1.0;"/><polygon fill="#A80036" points="156.2293,99.8668,165.8801,101.8319,161.1117,98.7885,164.155,94.0201,156.2293,99.8668" style="stroke:#A80036;stroke-width:1.0;"/><polygon fill="#A80036" points="825.1436,88.4036,824.3475,81.2366,817.4255,79.2149,818.2217,86.3819,825.1436,88.4036" style="stroke:#A80036;stroke-width:1.0;"/><path d="M971.875,105.8374 C977.6172,105.8374 983.3594,105.8374 989.1016,105.8374 " fill="none" style="stroke:#A80036;stroke-width:1.0;stroke-dasharray:7.0,7.0;"/><path d="M857.4542,122.9064 C864.7295,128.0687 873.3382,133.2462 882,136.3374 C1040.942,193.0598 1092.4676,152.0178 1260,172.3374 C1326.5493,180.409 1405.1257,192.8576 1440.7375,198.6588 " fill="none" style="stroke:#A80036;stroke-width:1.0;"/><polygon fill="#A80036" points="857.4542,122.9064,860.0328,129.6407,867.2409,129.8506,864.6623,123.1163,857.4542,122.9064" style="stroke:#A80036;stroke-width:1.0;"/><polygon fill="#A80036" points="1440.7375,198.6588,1432.4977,193.2638,1435.8026,197.8549,1431.2115,201.1597,1440.7375,198.6588" style="stroke:#A80036;stroke-width:1.0;"/><path d="M857.3944,123.0788 C864.6641,128.2572 873.2845,133.4009 882,136.3374 C1009.8429,179.4107 1353.9883,156.8462 1488,172.3374 C1543.5141,178.7546 1608.3612,191.3611 1639.8675,197.8178 " fill="none" style="stroke:#A80036;stroke-width:1.0;"/><polygon fill="#A80036" points="857.3944,123.0788,859.9606,129.8178,867.1682,130.041,864.6021,123.302,857.3944,123.0788" style="stroke:#A80036;stroke-width:1.0;"/><polygon fill="#A80036" points="1639.8675,197.8178,1631.8538,192.0924,1634.9693,196.814,1630.2477,199.9295,1639.8675,197.8178" style="stroke:#A80036;stroke-width:1.0;"/><path d="M819.0365,122.9048 C811.9311,128.0669 803.5086,133.2447 795,136.3374 C638.0554,193.3832 586.8888,153.1875 421,172.3374 C346.8738,180.8944 258.9683,193.4774 221.0105,199.0294 " fill="none" style="stroke:#A80036;stroke-width:1.0;"/><polygon fill="#A80036" points="819.0365,122.9048,811.8313,123.1952,809.3281,129.9579,816.5334,129.6675,819.0365,122.9048" style="stroke:#A80036;stroke-width:1.0;"/><polygon fill="#A80036" points="221.0105,199.0294,230.4946,201.6847,225.9578,198.3057,229.3368,193.7689,221.0105,199.0294" style="stroke:#A80036;stroke-width:1.0;"/><path d="M818.0092,123.0918 C811.0775,128.0165 803.0245,132.9994 795,136.3374 C677.3069,185.294 521.8113,197.9532 468.1598,200.9656 " fill="none" style="stroke:#A80036;stroke-width:1.0;"/><polygon fill="#A80036" points="818.0092,123.0918,810.8013,123.306,808.2268,130.0419,815.4347,129.8276,818.0092,123.0918" style="stroke:#A80036;stroke-width:1.0;"/><polygon fill="#A80036" points="468.1598,200.9656,477.3698,204.4548,473.1519,200.6853,476.9214,196.4673,468.1598,200.9656" style="stroke:#A80036;stroke-width:1.0;"/><path d="M820.1882,122.9528 C800.88,140.4222 770.2415,168.1427 750.8992,185.6429 " fill="none" style="stroke:#A80036;stroke-width:1.0;"/><polygon fill="#A80036" points="820.1882,122.9528,813.0553,124.0122,811.2898,131.0038,818.4226,129.9445,820.1882,122.9528" style="stroke:#A80036;stroke-width:1.0;"/><polygon fill="#A80036" points="750.8992,185.6429,760.2567,182.5708,754.6069,182.2883,754.8894,176.6385,750.8992,185.6429" style="stroke:#A80036;stroke-width:1.0;"/><path d="M856.66,122.9528 C876.8876,140.4222 908.9851,168.1427 929.2485,185.6429 " fill="none" style="stroke:#A80036;stroke-width:1.0;"/><polygon fill="#A80036" points="856.66,122.9528,858.5865,129.9019,865.7419,130.7963,863.8154,123.8473,856.66,122.9528" style="stroke:#A80036;stroke-width:1.0;"/><polygon fill="#A80036" points="929.2485,185.6429,925.0515,176.733,925.4643,182.3748,919.8226,182.7876,929.2485,185.6429" style="stroke:#A80036;stroke-width:1.0;"/><path d="M858.5,123.0907 C865.5958,128.0154 873.8266,132.9986 882,136.3374 C1001.3205,185.0797 1158.4459,197.8737 1212.6463,200.9434 " fill="none" style="stroke:#A80036;stroke-width:1.0;"/><polygon fill="#A80036" points="858.5,123.0907,861.1485,129.7978,868.3583,129.9327,865.7098,123.2256,858.5,123.0907" style="stroke:#A80036;stroke-width:1.0;"/><polygon fill="#A80036" points="1212.6463,200.9434,1203.8869,196.4409,1207.6543,200.6607,1203.4345,204.4281,1212.6463,200.9434" style="stroke:#A80036;stroke-width:1.0;"/><path d="M494.15,75.1334 C503.6837,67.8838 514.6353,61.1571 526,57.3374 C566.8647,43.6026 680.7874,39.4225 720,57.3374 C733.9812,63.7249 745.0936,77.3194 752.3674,88.4947 " fill="none" style="stroke:#A80036;stroke-width:1.0;"/><path d="M494.15,75.1334 C503.6837,67.8838 514.6353,61.1571 526,57.3374 C560.1092,45.8732 598.5251,67.3589 622.74,85.287 " fill="none" style="stroke:#A80036;stroke-width:1.0;stroke-dasharray:7.0,7.0;"/><path d="M86.1797,105.8374 C92.1137,105.8374 98.0477,105.8374 103.9817,105.8374 " fill="none" style="stroke:#A80036;stroke-width:1.0;"/><path d="M115.072,122.9528 C102.6167,136.3989 84.5357,155.9182 69.4761,172.1757 " fill="none" style="stroke:#A80036;stroke-width:1.0;"/><path d="M130,122.9528 C130,136.3989 130,155.9182 130,172.1757 " fill="none" style="stroke:#A80036;stroke-width:1.0;"/><path d="M1470.6871,219.9528 C1479.604,233.3989 1492.5483,252.9182 1503.3296,269.1757 " fill="none" style="stroke:#A80036;stroke-width:1.0;"/><path d="M1675.9636,219.9528 C1690.1174,233.3989 1710.664,252.9182 1727.7771,269.1757 " fill="none" style="stroke:#A80036;stroke-width:1.0;"/><path d="M1652.7235,219.9528 C1647.4866,233.3989 1639.8843,252.9182 1633.5525,269.1757 " fill="none" style="stroke:#A80036;stroke-width:1.0;"/><path d="M508.2891,105.8374 C514.3372,105.8374 520.3853,105.8374 526.4334,105.8374 " fill="none" style="stroke:#A80036;stroke-width:1.0;stroke-dasharray:7.0,7.0;"/><path d="M188.2025,219.9474 C183.8902,224.535 178.9577,229.3614 174,233.3374 C149.7397,252.7937 140.6547,253.3174 114,269.3374 C109.4893,272.0484 104.7461,274.9013 100.0599,277.7212 " fill="none" style="stroke:#A80036;stroke-width:1.0;"/><path d="M202,219.9528 C202,233.3989 202,252.9182 202,269.1757 " fill="none" style="stroke:#A80036;stroke-width:1.0;"/><path d="M248.2891,299.8374 C254.3372,299.8374 260.3853,299.8374 266.4334,299.8374 " fill="none" style="stroke:#A80036;stroke-width:1.0;stroke-dasharray:7.0,7.0;"/><path d="M432.0364,219.9528 C417.8826,233.3989 397.336,252.9182 380.2229,269.1757 " fill="none" style="stroke:#A80036;stroke-width:1.0;"/><path d="M455.2765,219.9528 C460.5134,233.3989 468.1157,252.9182 474.4475,269.1757 " fill="none" style="stroke:#A80036;stroke-width:1.0;"/><path d="M532.2891,299.8374 C538.3372,299.8374 544.3853,299.8374 550.4334,299.8374 " fill="none" style="stroke:#A80036;stroke-width:1.0;stroke-dasharray:7.0,7.0;"/><path d="M716.0364,219.9528 C701.8826,233.3989 681.336,252.9182 664.2229,269.1757 " fill="none" style="stroke:#A80036;stroke-width:1.0;"/><path d="M739.2765,219.9528 C744.5134,233.3989 752.1157,252.9182 758.4475,269.1757 " fill="none" style="stroke:#A80036;stroke-width:1.0;"/><path d="M816.2891,299.8374 C822.3372,299.8374 828.3853,299.8374 834.4334,299.8374 " fill="none" style="stroke:#A80036;stroke-width:1.0;stroke-dasharray:7.0,7.0;"/><path d="M942.7413,219.9528 C938.3536,233.3989 931.9842,252.9182 926.6791,269.1757 " fill="none" style="stroke:#A80036;stroke-width:1.0;"/><path d="M965.9815,219.9528 C980.9845,233.3989 1002.7638,252.9182 1020.9038,269.1757 " fill="none" style="stroke:#A80036;stroke-width:1.0;"/><path d="M1100.2891,299.8374 C1106.3372,299.8374 1112.3853,299.8374 1118.4334,299.8374 " fill="none" style="stroke:#A80036;stroke-width:1.0;stroke-dasharray:7.0,7.0;"/><path d="M1226.7413,219.9528 C1222.3536,233.3989 1215.9842,252.9182 1210.6791,269.1757 " fill="none" style="stroke:#A80036;stroke-width:1.0;"/><path d="M1249.9815,219.9528 C1264.9845,233.3989 1286.7638,252.9182 1304.9038,269.1757 " fill="none" style="stroke:#A80036;stroke-width:1.0;"/><path d="M1384.2891,299.8374 C1390.3372,299.8374 1396.3853,299.8374 1402.4334,299.8374 " fill="none" style="stroke:#A80036;stroke-width:1.0;stroke-dasharray:7.0,7.0;"/><path d="M1462.7865,219.8436 C1466.4322,246.4908 1469.3717,300.0104 1441,330.3374 C1402.0628,371.9581 1269.2927,398.1706 1156.1779,413.4298 " fill="none" style="stroke:#A80036;stroke-width:1.0;stroke-dasharray:7.0,7.0;"/><path d="M1668.3583,220.0417 C1682.265,246.4978 1704.0026,299.1399 1677,330.3374 C1610.9341,406.6667 1340.1088,426.5493 1156.1585,431.0468 " fill="none" style="stroke:#A80036;stroke-width:1.0;stroke-dasharray:7.0,7.0;"/><path d="M187.4486,219.9706 C171.8804,237.4134 149.1213,263.5122 147,269.3374 C137.723,294.8119 129.0203,310.046 147,330.3374 C189.7806,378.6184 572.134,408.4392 803.6832,422.2318 " fill="none" style="stroke:#A80036;stroke-width:1.0;stroke-dasharray:7.0,7.0;"/><path d="M439.7759,219.9278 C426.0621,246.2201 404.5955,298.6321 431,330.3374 C477.9791,386.7477 661.6267,411.7637 803.7297,422.7873 " fill="none" style="stroke:#A80036;stroke-width:1.0;stroke-dasharray:7.0,7.0;"/><path d="M724.0337,220.2519 C711.2719,246.0813 691.8411,296.7268 715,330.3374 C736.4405,361.454 768.844,382.9909 803.7099,397.8954 " fill="none" style="stroke:#A80036;stroke-width:1.0;stroke-dasharray:7.0,7.0;"/><path d="M951.5625,219.9245 C954.4009,233.1448 958.3284,252.3885 961,269.3374 C966.0044,301.0861 970.3061,336.5265 973.5445,366.1445 " fill="none" style="stroke:#A80036;stroke-width:1.0;stroke-dasharray:7.0,7.0;"/><path d="M1239.7928,219.8701 C1251.0653,245.6195 1268.174,296.7049 1245,330.3374 C1223.5595,361.454 1191.156,382.9909 1156.2901,397.8954 " fill="none" style="stroke:#A80036;stroke-width:1.0;stroke-dasharray:7.0,7.0;"/><!--MD5=[a904bb37189a202275fa951387dffc3e]
@startuml ObjectDiagram
title Klondike  - Objects Diagram
!pragma layout smetana

object ":Klondike" as Klondike
object ":Waste" as Waste
object ":Stock" as Stock
object ":Pile" as Pile3
object ":Pile" as Pile4
object ":Pile" as Pile5
object ":Pile" as Pile6
object ":Pile" as Pile7
object ":Pile" as Pile8
object ":Pile" as Pile9
object ":Foundation" as Foundation

object ":Card" as Card1 {
    color: random
    number: random
    turned: false
}

object ":Card" as Card21 {
    color: black
    number: 7
    turned: true
}

object ":Card" as Card22 {
    color: black
    number: 4
    turned: true
}

object ":Card" as Card23 {
    color: red
    number: Q
    turned: true
}

object ":Card" as Card3 {
    color: red
    number: K
    turned: true
}

object ":Card" as Card4 {
    color: red
    number: 9
    turned: true
}

object ":Card" as Card41 {
    color: random
    number: random
    turned: false
}

object ":Card" as Card5 {
    color: black
    number: 3
    turned: true
}

object ":Card" as Card51 {
    color: random
    number: random
    turned: false
}

object ":Card" as Card6 {
    color: red
    number: J
    turned: true
}

object ":Card" as Card61 {
    color: random
    number: random
    turned: false
}

object ":Card" as Card7 {
    color: black
    number: 9
    turned: true
}

object ":Card" as Card71 {
    color: random
    number: random
    turned: false
}

object ":Card" as Card8 {
    color: red
    number: 7
    turned: true
}

object ":Card" as Card81 {
    color: random
    number: random
    turned: false
}

object ":Card" as Card9 {
    color: red
    number: A
    turned: true
}

object ":Card" as Card91 {
    color: random
    number: random
    turned: false
}

Klondike *-right-> Foundation
Klondike *-left-> Stock
Klondike *-left-> Waste
note  "Is Empty" as FNote
Foundation .right FNote
Klondike *- -> Pile3
Klondike *- -> Pile4
Klondike *- -> Pile5
Klondike *- -> Pile6
Klondike *- -> Pile7
Klondike *- -> Pile8
Klondike *- -> Pile9

Stock -left- Card1
note "Stock have 21\n cards turned down." as C1N
Card1 . C1N

Waste -left- Card21
Waste - - Card22
Waste - - Card23

Pile3 -down-  Card3

Pile4 - -  Card4
Pile4 - -  Card41
note "1" as C4N
Card1 . C4N

Pile5 - -  Card5
Pile5 - -  Card51
note "2" as C5N
Card51 . C5N

Pile6 - -  Card6
Pile6 - -  Card61
note "3" as C6N
Card61 . C6N

Pile7 - -  Card7
Pile7 - -  Card71
note "4" as C7N
Card71 . C7N

Pile8 - -  Card8
Pile8 - -  Card81
note "5" as C8N
Card81 . C8N

Pile9 - -  Card9
Pile9 - -  Card91
note "6" as C9N
Card91 . C9N

note "Pile1 have 1 card turned up.\nPile2 have 1 card turned up and 1 card turned down\nPile3 have 1 card turned up and 2 cards turned down\nPile4 have 1 card turned up and 3 cards turned down\nPile5 have 1 card turned up and 4 cards turned down\nPile6 have 1 card turned up and 5 cards turned down\nPile7 have 1 card turned up and 6 cards turned down\n." as PNote
Pile3 ... PNote
Pile4 ... PNote
Pile5 ... PNote
Pile6 ... PNote
Pile7 ... PNote
Pile8 ... PNote
Pile9 ... PNote

@enduml

PlantUML version 1.2022.0(Tue Jan 11 11:16:42 ECT 2022)
(GPL source distribution)
Java Runtime: OpenJDK Runtime Environment
JVM: OpenJDK 64-Bit Server VM
Default Encoding: UTF-8
Language: es
Country: EC
--></g></svg>