<?xml version="1.0" encoding="UTF-8" standalone="no"?><svg xmlns="http://www.w3.org/2000/svg" xmlns:xlink="http://www.w3.org/1999/xlink" contentScriptType="application/ecmascript" contentStyleType="text/css" height="377px" preserveAspectRatio="none" style="width:369px;height:377px;background:#FFFFFF;" version="1.1" viewBox="0 0 369 377" width="369px" zoomAndPan="magnify"><defs><filter height="300%" id="f1kl3q57jyitqn" width="300%" x="-1" y="-1"><feGaussianBlur result="blurOut" stdDeviation="2.0"/><feColorMatrix in="blurOut" result="blurOut2" type="matrix" values="0 0 0 0 0 0 0 0 0 0 0 0 0 0 0 0 0 0 .4 0"/><feOffset dx="4.0" dy="4.0" in="blurOut2" result="blurOut3"/><feBlend in="SourceGraphic" in2="blurOut3" mode="normal"/></filter></defs><g><text fill="#000000" font-family="sans-serif" font-size="18" lengthAdjust="spacing" textLength="360" x="2" y="17.4023">Klondike  - DealStock - Context Diagram</text><!--MD5=[de2effd8dc5bf946a609466312d0f75f]
entity Player--><ellipse cx="144.75" cy="115.1875" fill="#FEFECE" filter="url(#f1kl3q57jyitqn)" rx="8" ry="8" style="stroke:#A80036;stroke-width:1.5;"/><path d="M144.75,123.1875 L144.75,150.1875 M131.75,131.1875 L157.75,131.1875 M144.75,150.1875 L131.75,165.1875 M144.75,150.1875 L157.75,165.1875 " fill="none" filter="url(#f1kl3q57jyitqn)" style="stroke:#A80036;stroke-width:1.5;"/><text fill="#000000" font-family="sans-serif" font-size="14" lengthAdjust="spacing" textLength="41" x="124.25" y="184.2227">Player</text><!--MD5=[0f13da524718cfa35bb6930040822af4]
entity DeckView--><rect fill="#FEFECE" filter="url(#f1kl3q57jyitqn)" height="36.4883" style="stroke:#000000;stroke-width:1.5;" width="85" x="135.25" y="239.6875"/><text fill="#000000" font-family="sans-serif" font-size="14" lengthAdjust="spacing" textLength="65" x="145.25" y="263.2227">DeckView</text><!--MD5=[5360735e6fb9718aef7f44e3d845f0ab]
entity DealStockController--><rect fill="#FEFECE" filter="url(#f1kl3q57jyitqn)" height="36.4883" style="stroke:#000000;stroke-width:1.5;" width="157" x="99.25" y="328.6875"/><text fill="#000000" font-family="sans-serif" font-size="14" lengthAdjust="spacing" textLength="137" x="109.25" y="352.2227">DealStockController</text><!--MD5=[8283ea39739ba8606af0d2930335bf54]
entity Stock--><rect fill="#FEFECE" filter="url(#f1kl3q57jyitqn)" height="36.4883" style="stroke:#000000;stroke-width:1.5;" width="57" x="183.25" y="32.6875"/><text fill="#000000" font-family="sans-serif" font-size="14" lengthAdjust="spacing" textLength="37" x="193.25" y="56.2227">Stock</text><path d="M140.0596,186.8846 C140.0679,198.4423 141.4639,210.8635 145.75,221.6875 C148.3568,228.2708 152.8235,234.3808 157.6063,239.5926 " fill="none" style="stroke:#A80036;stroke-width:1.0;"/><polygon fill="#A80036" points="157.6063,239.5926,154.4683,230.257,154.2257,235.9087,148.574,235.6661,157.6063,239.5926" style="stroke:#A80036;stroke-width:1.0;"/><text fill="#000000" font-family="sans-serif" font-size="13" lengthAdjust="spacing" textLength="50" x="146.75" y="218.2559">DealPile</text><path d="M177.75,275.8759 C177.75,291.1282 177.75,313.2933 177.75,328.5348 " fill="none" style="stroke:#A80036;stroke-width:1.0;"/><polygon fill="#A80036" points="177.75,328.5348,181.75,319.5348,177.75,323.5348,173.75,319.5348,177.75,328.5348" style="stroke:#A80036;stroke-width:1.0;"/><text fill="#000000" font-family="sans-serif" font-size="13" lengthAdjust="spacing" textLength="50" x="178.75" y="307.2559">DealPile</text><path d="M212.7608,69.0432 C214.0537,100.3335 214.4131,167.9453 197.75,221.6875 C195.8432,227.8373 192.7239,234.0872 189.5099,239.571 " fill="none" style="stroke:#A80036;stroke-width:1.0;stroke-dasharray:7.0,7.0;"/><polygon fill="#A80036" points="212.7608,69.0432,209.1358,78.2007,212.9673,74.039,217.129,77.8704,212.7608,69.0432" style="stroke:#A80036;stroke-width:1.0;"/><text fill="#000000" font-family="sans-serif" font-size="13" lengthAdjust="spacing" textLength="63" x="213.75" y="151.2559">setCards()</text><!--MD5=[f2edc1642187b0bcb0ca8ec87f233302]
@startuml ContextDiagram
!pragma layout smetana
title Klondike  - DealStock - Context Diagram
left to right direction

actor Player
rectangle DeckView
rectangle DealStockController
rectangle Stock

Player - -> DeckView: DealPile
DeckView - -> DealStockController: DealPile
DeckView -up..> Stock: setCards()

@enduml

PlantUML version 1.2022.0(Tue Jan 11 11:16:42 ECT 2022)
(GPL source distribution)
Java Runtime: OpenJDK Runtime Environment
JVM: OpenJDK 64-Bit Server VM
Default Encoding: UTF-8
Language: es
Country: EC
--></g></svg>