<?xml version="1.0" encoding="UTF-8" standalone="no"?><svg xmlns="http://www.w3.org/2000/svg" xmlns:xlink="http://www.w3.org/1999/xlink" contentStyleType="text/css" height="360px" preserveAspectRatio="none" style="width:892px;height:360px;background:#FFFFFF;" version="1.1" viewBox="0 0 892 360" width="892px" zoomAndPan="magnify"><defs/><g><rect height="26.4883" style="stroke:#00000000;stroke-width:1.0;fill:none;" width="314" x="282" y="5"/><text fill="#000000" font-family="sans-serif" font-size="14" font-weight="bold" lengthAdjust="spacing" textLength="304" x="287" y="23.5352">Klondike  - Objects Diagram - Final State</text><g id="elem_Klondike"><rect fill="#F1F1F1" height="36.4883" style="stroke:#181818;stroke-width:0.5;" width="78" x="289" y="42.9766"/><text fill="#000000" font-family="sans-serif" font-size="14" lengthAdjust="spacing" textLength="64" x="296" y="58.5117">:Klondike</text><line style="stroke:#181818;stroke-width:0.5;" x1="290" x2="366" y1="63.4648" y2="63.4648"/></g><g id="elem_Waste"><rect fill="#F1F1F1" height="36.4883" style="stroke:#181818;stroke-width:0.5;" width="58" x="385" y="42.9766"/><text fill="#000000" font-family="sans-serif" font-size="14" lengthAdjust="spacing" textLength="44" x="392" y="58.5117">:Waste</text><line style="stroke:#181818;stroke-width:0.5;" x1="386" x2="442" y1="63.4648" y2="63.4648"/></g><g id="elem_Stock"><rect fill="#F1F1F1" height="36.4883" style="stroke:#181818;stroke-width:0.5;" width="55" x="215.5" y="42.9766"/><text fill="#000000" font-family="sans-serif" font-size="14" lengthAdjust="spacing" textLength="41" x="222.5" y="58.5117">:Stock</text><line style="stroke:#181818;stroke-width:0.5;" x1="216.5" x2="269.5" y1="63.4648" y2="63.4648"/></g><g id="elem_Pile3"><rect fill="#F1F1F1" height="36.4883" style="stroke:#181818;stroke-width:0.5;" width="42" x="7" y="114.9766"/><text fill="#000000" font-family="sans-serif" font-size="14" lengthAdjust="spacing" textLength="28" x="14" y="130.5117">:Pile</text><line style="stroke:#181818;stroke-width:0.5;" x1="8" x2="48" y1="135.4648" y2="135.4648"/></g><g id="elem_Pile4"><rect fill="#F1F1F1" height="36.4883" style="stroke:#181818;stroke-width:0.5;" width="42" x="67" y="114.9766"/><text fill="#000000" font-family="sans-serif" font-size="14" lengthAdjust="spacing" textLength="28" x="74" y="130.5117">:Pile</text><line style="stroke:#181818;stroke-width:0.5;" x1="68" x2="108" y1="135.4648" y2="135.4648"/></g><g id="elem_Pile5"><rect fill="#F1F1F1" height="36.4883" style="stroke:#181818;stroke-width:0.5;" width="42" x="127" y="114.9766"/><text fill="#000000" font-family="sans-serif" font-size="14" lengthAdjust="spacing" textLength="28" x="134" y="130.5117">:Pile</text><line style="stroke:#181818;stroke-width:0.5;" x1="128" x2="168" y1="135.4648" y2="135.4648"/></g><g id="elem_Pile6"><rect fill="#F1F1F1" height="36.4883" style="stroke:#181818;stroke-width:0.5;" width="42" x="187" y="114.9766"/><text fill="#000000" font-family="sans-serif" font-size="14" lengthAdjust="spacing" textLength="28" x="194" y="130.5117">:Pile</text><line style="stroke:#181818;stroke-width:0.5;" x1="188" x2="228" y1="135.4648" y2="135.4648"/></g><g id="elem_Pile7"><rect fill="#F1F1F1" height="36.4883" style="stroke:#181818;stroke-width:0.5;" width="42" x="247" y="114.9766"/><text fill="#000000" font-family="sans-serif" font-size="14" lengthAdjust="spacing" textLength="28" x="254" y="130.5117">:Pile</text><line style="stroke:#181818;stroke-width:0.5;" x1="248" x2="288" y1="135.4648" y2="135.4648"/></g><g id="elem_Pile8"><rect fill="#F1F1F1" height="36.4883" style="stroke:#181818;stroke-width:0.5;" width="42" x="307" y="114.9766"/><text fill="#000000" font-family="sans-serif" font-size="14" lengthAdjust="spacing" textLength="28" x="314" y="130.5117">:Pile</text><line style="stroke:#181818;stroke-width:0.5;" x1="308" x2="348" y1="135.4648" y2="135.4648"/></g><g id="elem_Pile9"><rect fill="#F1F1F1" height="36.4883" style="stroke:#181818;stroke-width:0.5;" width="42" x="367" y="114.9766"/><text fill="#000000" font-family="sans-serif" font-size="14" lengthAdjust="spacing" textLength="28" x="374" y="130.5117">:Pile</text><line style="stroke:#181818;stroke-width:0.5;" x1="368" x2="408" y1="135.4648" y2="135.4648"/></g><g id="elem_Foundation1"><rect fill="#F1F1F1" height="36.4883" style="stroke:#181818;stroke-width:0.5;" width="97" x="291.5" y="186.9766"/><text fill="#000000" font-family="sans-serif" font-size="14" lengthAdjust="spacing" textLength="83" x="298.5" y="202.5117">:Foundation</text><line style="stroke:#181818;stroke-width:0.5;" x1="292.5" x2="387.5" y1="207.4648" y2="207.4648"/></g><g id="elem_Foundation2"><rect fill="#F1F1F1" height="36.4883" style="stroke:#181818;stroke-width:0.5;" width="97" x="406.5" y="186.9766"/><text fill="#000000" font-family="sans-serif" font-size="14" lengthAdjust="spacing" textLength="83" x="413.5" y="202.5117">:Foundation</text><line style="stroke:#181818;stroke-width:0.5;" x1="407.5" x2="502.5" y1="207.4648" y2="207.4648"/></g><g id="elem_Foundation3"><rect fill="#F1F1F1" height="36.4883" style="stroke:#181818;stroke-width:0.5;" width="97" x="521.5" y="186.9766"/><text fill="#000000" font-family="sans-serif" font-size="14" lengthAdjust="spacing" textLength="83" x="528.5" y="202.5117">:Foundation</text><line style="stroke:#181818;stroke-width:0.5;" x1="522.5" x2="617.5" y1="207.4648" y2="207.4648"/></g><g id="elem_Foundation4"><rect fill="#F1F1F1" height="36.4883" style="stroke:#181818;stroke-width:0.5;" width="97" x="636.5" y="186.9766"/><text fill="#000000" font-family="sans-serif" font-size="14" lengthAdjust="spacing" textLength="83" x="643.5" y="202.5117">:Foundation</text><line style="stroke:#181818;stroke-width:0.5;" x1="637.5" x2="732.5" y1="207.4648" y2="207.4648"/></g><g id="elem_Card1"><rect fill="#F1F1F1" height="94.4414" style="stroke:#181818;stroke-width:0.5;" width="128" x="141" y="258.9766"/><text fill="#000000" font-family="sans-serif" font-size="14" lengthAdjust="spacing" textLength="37" x="186.5" y="274.5117">:Card</text><line style="stroke:#181818;stroke-width:0.5;" x1="142" x2="268" y1="279.4648" y2="279.4648"/><text fill="#000000" font-family="sans-serif" font-size="14" lengthAdjust="spacing" textLength="110" x="147" y="297">figure: diamond</text><text fill="#000000" font-family="sans-serif" font-size="14" lengthAdjust="spacing" textLength="66" x="147" y="313.4883">color: red</text><text fill="#000000" font-family="sans-serif" font-size="14" lengthAdjust="spacing" textLength="116" x="147" y="329.9766">number: random</text><text fill="#000000" font-family="sans-serif" font-size="14" lengthAdjust="spacing" textLength="82" x="147" y="346.4648">turned: true</text></g><g id="elem_Card2"><rect fill="#F1F1F1" height="94.4414" style="stroke:#181818;stroke-width:0.5;" width="128" x="287" y="258.9766"/><text fill="#000000" font-family="sans-serif" font-size="14" lengthAdjust="spacing" textLength="37" x="332.5" y="274.5117">:Card</text><line style="stroke:#181818;stroke-width:0.5;" x1="288" x2="414" y1="279.4648" y2="279.4648"/><text fill="#000000" font-family="sans-serif" font-size="14" lengthAdjust="spacing" textLength="85" x="293" y="297">figure: heart</text><text fill="#000000" font-family="sans-serif" font-size="14" lengthAdjust="spacing" textLength="66" x="293" y="313.4883">color: red</text><text fill="#000000" font-family="sans-serif" font-size="14" lengthAdjust="spacing" textLength="116" x="293" y="329.9766">number: random</text><text fill="#000000" font-family="sans-serif" font-size="14" lengthAdjust="spacing" textLength="82" x="293" y="346.4648">turned: true</text></g><g id="elem_Card3"><rect fill="#F1F1F1" height="94.4414" style="stroke:#181818;stroke-width:0.5;" width="128" x="611" y="258.9766"/><text fill="#000000" font-family="sans-serif" font-size="14" lengthAdjust="spacing" textLength="37" x="656.5" y="274.5117">:Card</text><line style="stroke:#181818;stroke-width:0.5;" x1="612" x2="738" y1="279.4648" y2="279.4648"/><text fill="#000000" font-family="sans-serif" font-size="14" lengthAdjust="spacing" textLength="90" x="617" y="297">figure: clover</text><text fill="#000000" font-family="sans-serif" font-size="14" lengthAdjust="spacing" textLength="79" x="617" y="313.4883">color: black</text><text fill="#000000" font-family="sans-serif" font-size="14" lengthAdjust="spacing" textLength="116" x="617" y="329.9766">number: random</text><text fill="#000000" font-family="sans-serif" font-size="14" lengthAdjust="spacing" textLength="82" x="617" y="346.4648">turned: true</text></g><g id="elem_Card4"><rect fill="#F1F1F1" height="94.4414" style="stroke:#181818;stroke-width:0.5;" width="128" x="757" y="258.9766"/><text fill="#000000" font-family="sans-serif" font-size="14" lengthAdjust="spacing" textLength="37" x="802.5" y="274.5117">:Card</text><line style="stroke:#181818;stroke-width:0.5;" x1="758" x2="884" y1="279.4648" y2="279.4648"/><text fill="#000000" font-family="sans-serif" font-size="14" lengthAdjust="spacing" textLength="85" x="763" y="297">figure: heart</text><text fill="#000000" font-family="sans-serif" font-size="14" lengthAdjust="spacing" textLength="79" x="763" y="313.4883">color: black</text><text fill="#000000" font-family="sans-serif" font-size="14" lengthAdjust="spacing" textLength="116" x="763" y="329.9766">number: random</text><text fill="#000000" font-family="sans-serif" font-size="14" lengthAdjust="spacing" textLength="82" x="763" y="346.4648">turned: true</text></g><g id="elem_FNote"><path d="M433.5,285.4766 L433.5,326.0977 L592.5,326.0977 L592.5,295.4766 L582.5,285.4766 L433.5,285.4766 " fill="#FEFFDD" style="stroke:#181818;stroke-width:0.5;"/><path d="M582.5,285.4766 L582.5,295.4766 L592.5,295.4766 L582.5,285.4766 " fill="#FEFFDD" style="stroke:#181818;stroke-width:1.0;"/><text fill="#000000" font-family="sans-serif" font-size="13" lengthAdjust="spacing" textLength="138" x="439.5" y="303.0449">13 cards in ascending</text><text fill="#000000" font-family="sans-serif" font-size="13" lengthAdjust="spacing" textLength="115" x="439.5" y="318.3555">order of each suit.</text></g><path d="M365.2413,79.1831 C387.2298,90.1926 411.9258,104.3503 418,114.9766 C425.9403,128.8673 425.4874,136.8366 418,150.9766 C409.8022,166.4581 394.8308,178.257 380.1803,186.7472 " fill="none" style="stroke:#181818;stroke-width:1.0;"/><polygon fill="#181818" points="365.2413,79.1831,368.8155,85.4461,375.9714,84.5556,372.3972,78.2926,365.2413,79.1831" style="stroke:#181818;stroke-width:1.0;"/><polygon fill="#181818" points="380.1803,186.7472,389.9728,185.6954,384.5063,184.2402,385.9616,178.7737,380.1803,186.7472" style="stroke:#181818;stroke-width:1.0;"/><path d="M367.0667,77.144 C393.7545,88.256 425.8745,103.3624 435,114.9766 C451.3398,135.7726 454.8723,167.3104 455.3536,186.7256 " fill="none" style="stroke:#181818;stroke-width:1.0;"/><polygon fill="#181818" points="367.0667,77.144,371.0682,83.143,378.1448,81.7566,374.1433,75.7576,367.0667,77.144" style="stroke:#181818;stroke-width:1.0;"/><polygon fill="#181818" points="455.3536,186.7256,459.1293,177.6292,455.2297,181.7272,451.1318,177.8275,455.3536,186.7256" style="stroke:#181818;stroke-width:1.0;"/><path d="M367.0193,76.6378 C398.8904,88.8647 441.1613,105.7286 457,114.9766 C493.0141,136.0046 530.1285,167.4718 551.5817,186.8097 " fill="none" style="stroke:#181818;stroke-width:1.0;"/><polygon fill="#181818" points="367.0193,76.6378,371.1885,82.5215,378.2231,80.936,374.0539,75.0523,367.0193,76.6378" style="stroke:#181818;stroke-width:1.0;"/><polygon fill="#181818" points="551.5817,186.8097,547.5749,177.8128,547.8679,183.462,542.2186,183.755,551.5817,186.8097" style="stroke:#181818;stroke-width:1.0;"/><path d="M367.2369,76.0571 C370.1963,77.0627 373.1419,78.0459 376,78.9766 C429.3506,96.3479 444.602,94.9143 497,114.9766 C553.1506,136.4756 615.787,167.6568 652.7205,186.8315 " fill="none" style="stroke:#181818;stroke-width:1.0;"/><polygon fill="#181818" points="367.2369,76.0571,371.631,81.7747,378.5989,79.9177,374.2048,74.2,367.2369,76.0571" style="stroke:#181818;stroke-width:1.0;"/><polygon fill="#181818" points="652.7205,186.8315,646.5759,179.1345,648.2829,184.5277,642.8898,186.2347,652.7205,186.8315" style="stroke:#181818;stroke-width:1.0;"/><path d="M270.5586,60.9766 C276.6917,60.9766 282.8247,60.9766 288.9578,60.9766 " fill="none" style="stroke:#181818;stroke-width:1.0;"/><polygon fill="#181818" points="270.5586,60.9766,279.5586,64.9766,275.5586,60.9766,279.5586,56.9766,270.5586,60.9766" style="stroke:#181818;stroke-width:1.0;"/><polygon fill="#181818" points="288.9578,60.9766,282.9578,56.9766,276.9578,60.9766,282.9578,64.9766,288.9578,60.9766" style="stroke:#181818;stroke-width:1.0;"/><path d="M367.3047,60.9766 C373.1416,60.9766 378.9785,60.9766 384.8154,60.9766 " fill="none" style="stroke:#181818;stroke-width:1.0;"/><polygon fill="#181818" points="367.3047,60.9766,373.3047,64.9766,379.3047,60.9766,373.3047,56.9766,367.3047,60.9766" style="stroke:#181818;stroke-width:1.0;"/><polygon fill="#181818" points="384.8154,60.9766,375.8154,56.9766,379.8154,60.9766,375.8154,64.9766,384.8154,60.9766" style="stroke:#181818;stroke-width:1.0;"/><path d="M369.7398,222.9953 C400.0746,240.3545 447.0841,267.2559 478.9063,285.4663 " fill="none" style="stroke:#181818;stroke-width:1.0;stroke-dasharray:7.0,7.0;"/><path d="M465.1028,223.221 C475.229,240.5055 490.8,267.0834 501.4196,285.21 " fill="none" style="stroke:#181818;stroke-width:1.0;stroke-dasharray:7.0,7.0;"/><path d="M560.0714,223.221 C550.1197,240.5055 534.8173,267.0834 524.3807,285.21 " fill="none" style="stroke:#181818;stroke-width:1.0;stroke-dasharray:7.0,7.0;"/><path d="M655.4321,222.9953 C625.2726,240.3545 578.5349,267.2559 546.8966,285.4663 " fill="none" style="stroke:#181818;stroke-width:1.0;stroke-dasharray:7.0,7.0;"/><path d="M316.7927,222.9953 C303.2229,232.9464 285.3772,246.0333 267.9393,258.8211 " fill="none" style="stroke:#181818;stroke-width:1.0;"/><polygon fill="#181818" points="316.7927,222.9953,309.5888,223.3178,307.1158,230.0916,314.3197,229.7691,316.7927,222.9953" style="stroke:#181818;stroke-width:1.0;"/><polygon fill="#181818" points="267.9393,258.8211,277.5624,256.7244,271.9713,255.8643,272.8315,250.2732,267.9393,258.8211" style="stroke:#181818;stroke-width:1.0;"/><path d="M436.8846,223.221 C426.5256,233.082 412.9889,245.9679 399.736,258.5836 " fill="none" style="stroke:#181818;stroke-width:1.0;"/><polygon fill="#181818" points="436.8846,223.221,429.7808,224.4607,428.1929,231.4948,435.2967,230.2551,436.8846,223.221" style="stroke:#181818;stroke-width:1.0;"/><polygon fill="#181818" points="399.736,258.5836,409.0127,255.2755,403.3576,255.1362,403.4968,249.4811,399.736,258.5836" style="stroke:#181818;stroke-width:1.0;"/><path d="M588.2896,223.221 C598.7482,233.082 612.4151,245.9679 625.7953,258.5836 " fill="none" style="stroke:#181818;stroke-width:1.0;"/><polygon fill="#181818" points="588.2896,223.221,589.9111,230.2475,597.0207,231.4532,595.3992,224.4268,588.2896,223.221" style="stroke:#181818;stroke-width:1.0;"/><polygon fill="#181818" points="625.7953,258.5836,621.9911,249.4991,622.1574,255.1535,616.503,255.3198,625.7953,258.5836" style="stroke:#181818;stroke-width:1.0;"/><path d="M708.3792,222.9953 C722.0495,232.9464 740.0274,246.0333 757.5945,258.8211 " fill="none" style="stroke:#181818;stroke-width:1.0;"/><polygon fill="#181818" points="708.3792,222.9953,710.876,229.7603,718.081,230.0576,715.5842,223.2925,708.3792,222.9953" style="stroke:#181818;stroke-width:1.0;"/><polygon fill="#181818" points="757.5945,258.8211,752.6723,250.2904,753.5521,255.8784,747.9641,256.7583,757.5945,258.8211" style="stroke:#181818;stroke-width:1.0;"/><path d="M288.8661,76.2204 C285.5498,77.2238 282.2299,78.1597 279,78.9766 C182.5208,103.3767 151.8692,81.9285 58,114.9766 C55.0637,116.0103 52.0825,117.3255 49.1958,118.7652 " fill="none" style="stroke:#181818;stroke-width:1.0;"/><polygon fill="#181818" points="288.8661,76.2204,281.9648,74.1294,277.3803,79.6956,284.2816,81.7866,288.8661,76.2204" style="stroke:#181818;stroke-width:1.0;"/><polygon fill="#181818" points="49.1958,118.7652,59.0349,118.3281,53.6702,116.5337,55.4645,111.169,49.1958,118.7652" style="stroke:#181818;stroke-width:1.0;"/><path d="M288.8106,76.0138 C285.5065,77.0628 282.2047,78.0656 279,78.9766 C208.4718,99.0257 186.4197,88.6147 118,114.9766 C115.0952,116.0958 112.1327,117.4617 109.2558,118.928 " fill="none" style="stroke:#181818;stroke-width:1.0;"/><polygon fill="#181818" points="288.8106,76.0138,281.8815,74.0169,277.3732,79.645,284.3023,81.6419,288.8106,76.0138" style="stroke:#181818;stroke-width:1.0;"/><polygon fill="#181818" points="109.2558,118.928,119.0907,118.405,113.7105,116.6575,115.458,111.2774,109.2558,118.928" style="stroke:#181818;stroke-width:1.0;"/><path d="M288.8828,75.6064 C246.2282,90.4978 183.2779,112.5714 178,114.9766 C175.0584,116.3171 172.0229,117.8485 169.0641,119.4306 " fill="none" style="stroke:#181818;stroke-width:1.0;"/><polygon fill="#181818" points="288.8828,75.6064,281.8997,73.8076,277.5534,79.5617,284.5365,81.3605,288.8828,75.6064" style="stroke:#181818;stroke-width:1.0;"/><polygon fill="#181818" points="169.0641,119.4306,178.8868,118.7142,173.4733,117.073,175.1146,111.6594,169.0641,119.4306" style="stroke:#181818;stroke-width:1.0;"/><path d="M298.6447,79.1005 C277.1349,91.6479 248.4425,108.3851 229.1505,119.6388 " fill="none" style="stroke:#181818;stroke-width:1.0;"/><polygon fill="#181818" points="298.6447,79.1005,291.4465,78.6686,288.2794,85.1469,295.4775,85.5788,298.6447,79.1005" style="stroke:#181818;stroke-width:1.0;"/><polygon fill="#181818" points="229.1505,119.6388,238.9399,118.5591,233.4693,117.1194,234.909,111.6488,229.1505,119.6388" style="stroke:#181818;stroke-width:1.0;"/><path d="M313.1685,79.2799 C303.8682,90.1303 291.9286,104.0598 282.6609,114.8722 " fill="none" style="stroke:#181818;stroke-width:1.0;"/><polygon fill="#181818" points="313.1685,79.2799,306.2268,81.2323,305.359,88.391,312.3008,86.4386,313.1685,79.2799" style="stroke:#181818;stroke-width:1.0;"/><polygon fill="#181818" points="282.6609,114.8722,291.555,110.6421,285.9148,111.0759,285.481,105.4358,282.6609,114.8722" style="stroke:#181818;stroke-width:1.0;"/><path d="M328,79.2799 C328,90.1303 328,104.0598 328,114.8722 " fill="none" style="stroke:#181818;stroke-width:1.0;"/><polygon fill="#181818" points="328,79.2799,324,85.2799,328,91.2799,332,85.2799,328,79.2799" style="stroke:#181818;stroke-width:1.0;"/><polygon fill="#181818" points="328,114.8722,332,105.8722,328,109.8722,324,105.8722,328,114.8722" style="stroke:#181818;stroke-width:1.0;"/><path d="M342.8315,79.2799 C352.1318,90.1303 364.0714,104.0598 373.3391,114.8722 " fill="none" style="stroke:#181818;stroke-width:1.0;"/><polygon fill="#181818" points="342.8315,79.2799,343.6992,86.4386,350.641,88.391,349.7732,81.2323,342.8315,79.2799" style="stroke:#181818;stroke-width:1.0;"/><polygon fill="#181818" points="373.3391,114.8722,370.519,105.4358,370.0852,111.0759,364.445,110.6421,373.3391,114.8722" style="stroke:#181818;stroke-width:1.0;"/><!--MD5=[b168679e3cf209b699534150d69a594a]
@startuml ObjectDiagramFinalState
title Klondike  - Objects Diagram - Final State
!pragma layout smetana

object ":Klondike" as Klondike
object ":Waste" as Waste
object ":Stock" as Stock
object ":Pile" as Pile3
object ":Pile" as Pile4
object ":Pile" as Pile5
object ":Pile" as Pile6
object ":Pile" as Pile7
object ":Pile" as Pile8
object ":Pile" as Pile9
object ":Foundation" as Foundation1
object ":Foundation" as Foundation2
object ":Foundation" as Foundation3
object ":Foundation" as Foundation4

object ":Card" as Card1 {
    figure: diamond
    color: red
    number: random
    turned: true
}
object ":Card" as Card2 {
    figure: heart
    color: red
    number: random
    turned: true
}

object ":Card" as Card3 {
    figure: clover
    color: black
    number: random
    turned: true
}

object ":Card" as Card4 {
    figure: heart
    color: black
    number: random
    turned: true
}

Klondike *-down- -> Foundation1
Klondike *-down- -> Foundation2
Klondike *-down- -> Foundation3
Klondike *-down- -> Foundation4
Klondike *-left-> Stock
Klondike *-right-> Waste

note  "13 cards in ascending\norder of each suit." as FNote
Foundation1 .down. FNote
Foundation2 .down. FNote
Foundation3 .down. FNote
Foundation4 .down. FNote

Foundation1 *-down-> Card1
Foundation2 *-down-> Card2
Foundation3 *-down-> Card3
Foundation4 *-down-> Card4

Klondike *- -> Pile3
Klondike *- -> Pile4
Klondike *- -> Pile5
Klondike *- -> Pile6
Klondike *- -> Pile7
Klondike *- -> Pile8
Klondike *- -> Pile9

@enduml

PlantUML version 1.2022.5(Sat Apr 30 05:55:52 ECT 2022)
(GPL source distribution)
Java Runtime: OpenJDK Runtime Environment
JVM: OpenJDK 64-Bit Server VM
Default Encoding: UTF-8
Language: es
Country: EC
--></g></svg>