<?xml version="1.0" encoding="UTF-8" standalone="no"?><svg xmlns="http://www.w3.org/2000/svg" xmlns:xlink="http://www.w3.org/1999/xlink" contentStyleType="text/css" height="301px" preserveAspectRatio="none" style="width:2040px;height:301px;background:#FFFFFF;" version="1.1" viewBox="0 0 2040 301" width="2040px" zoomAndPan="magnify"><defs/><g><rect height="26.4883" style="stroke:#00000000;stroke-width:1.0;fill:none;" width="113" x="956.5" y="5"/><text fill="#000000" font-family="sans-serif" font-size="14" font-weight="bold" lengthAdjust="spacing" textLength="103" x="961.5" y="23.5352">Paquetes MVC</text><!--MD5=[999f80192410ad58725ac6d158b21eb2]
cluster Views--><g id="cluster_Views"><path d="M8.5,43.4883 L52.5,43.4883 A3.75,3.75 0 0 1 55,45.9883 L62,65.9766 L511.5,65.9766 A2.5,2.5 0 0 1 514,68.4766 L514,207.9883 A2.5,2.5 0 0 1 511.5,210.4883 L8.5,210.4883 A2.5,2.5 0 0 1 6,207.9883 L6,45.9883 A2.5,2.5 0 0 1 8.5,43.4883 " style="stroke:#000000;stroke-width:1.5;fill:none;"/><line style="stroke:#000000;stroke-width:1.5;fill:none;" x1="6" x2="62" y1="65.9766" y2="65.9766"/><text fill="#000000" font-family="sans-serif" font-size="14" font-weight="bold" lengthAdjust="spacing" textLength="43" x="10" y="59.0234">Views</text></g><!--MD5=[ed1d20ea533a2a0e7df5ba3c35e56ced]
cluster Controllers--><g id="cluster_Controllers"><path d="M524.5,43.4883 L606.5,43.4883 A3.75,3.75 0 0 1 609,45.9883 L616,65.9766 L1474.5,65.9766 A2.5,2.5 0 0 1 1477,68.4766 L1477,291.9883 A2.5,2.5 0 0 1 1474.5,294.4883 L524.5,294.4883 A2.5,2.5 0 0 1 522,291.9883 L522,45.9883 A2.5,2.5 0 0 1 524.5,43.4883 " style="stroke:#000000;stroke-width:1.5;fill:none;"/><line style="stroke:#000000;stroke-width:1.5;fill:none;" x1="522" x2="616" y1="65.9766" y2="65.9766"/><text fill="#000000" font-family="sans-serif" font-size="14" font-weight="bold" lengthAdjust="spacing" textLength="81" x="526" y="59.0234">Controllers</text></g><!--MD5=[027ebfd53c01aea08f474edbf35d0797]
cluster Models--><g id="cluster_Models"><path d="M1487.5,43.4883 L1540.5,43.4883 A3.75,3.75 0 0 1 1543,45.9883 L1550,65.9766 L2030.5,65.9766 A2.5,2.5 0 0 1 2033,68.4766 L2033,207.9883 A2.5,2.5 0 0 1 2030.5,210.4883 L1487.5,210.4883 A2.5,2.5 0 0 1 1485,207.9883 L1485,45.9883 A2.5,2.5 0 0 1 1487.5,43.4883 " style="stroke:#000000;stroke-width:1.5;fill:none;"/><line style="stroke:#000000;stroke-width:1.5;fill:none;" x1="1485" x2="1550" y1="65.9766" y2="65.9766"/><text fill="#000000" font-family="sans-serif" font-size="14" font-weight="bold" lengthAdjust="spacing" textLength="52" x="1489" y="59.0234">Models</text></g><!--MD5=[76f994b4c1dd28b08e5b6d74bcdea3a4]
class KlondikeView--><g id="elem_KlondikeView"><rect codeLine="7" fill="#F1F1F1" height="48" id="KlondikeView" rx="2.5" ry="2.5" style="stroke:#181818;stroke-width:0.5;" width="124" x="181" y="70.4883"/><ellipse cx="196" cy="86.4883" fill="#ADD1B2" rx="11" ry="11" style="stroke:#181818;stroke-width:1.0;"/><path d="M198.4731,92.6313 Q197.8921,92.9302 197.2529,93.0796 Q196.6138,93.229 195.9082,93.229 Q193.4014,93.229 192.0815,91.5771 Q190.7617,89.9253 190.7617,86.8042 Q190.7617,83.6748 192.0815,82.0229 Q193.4014,80.3711 195.9082,80.3711 Q196.6138,80.3711 197.2612,80.5205 Q197.9087,80.6699 198.4731,80.9688 L198.4731,83.6914 Q197.8423,83.1104 197.2488,82.8406 Q196.6553,82.5708 196.0244,82.5708 Q194.6797,82.5708 193.9949,83.6375 Q193.3101,84.7041 193.3101,86.8042 Q193.3101,88.896 193.9949,89.9626 Q194.6797,91.0293 196.0244,91.0293 Q196.6553,91.0293 197.2488,90.7595 Q197.8423,90.4897 198.4731,89.9087 Z " fill="#000000"/><text fill="#000000" font-family="sans-serif" font-size="14" lengthAdjust="spacing" textLength="92" x="210" y="91.7793">KlondikeView</text><line style="stroke:#181818;stroke-width:0.5;" x1="182" x2="304" y1="102.4883" y2="102.4883"/><line style="stroke:#181818;stroke-width:0.5;" x1="182" x2="304" y1="110.4883" y2="110.4883"/></g><!--MD5=[b82eaa36db8a0d76f3868c5da7ce8ca7]
class WasteView--><g id="elem_WasteView"><rect codeLine="8" fill="#F1F1F1" height="48" id="WasteView" rx="2.5" ry="2.5" style="stroke:#181818;stroke-width:0.5;" width="104" x="14" y="154.4883"/><ellipse cx="29" cy="170.4883" fill="#ADD1B2" rx="11" ry="11" style="stroke:#181818;stroke-width:1.0;"/><path d="M31.4731,176.6313 Q30.8921,176.9302 30.2529,177.0796 Q29.6138,177.229 28.9082,177.229 Q26.4014,177.229 25.0815,175.5771 Q23.7617,173.9253 23.7617,170.8042 Q23.7617,167.6748 25.0815,166.0229 Q26.4014,164.3711 28.9082,164.3711 Q29.6138,164.3711 30.2612,164.5205 Q30.9087,164.6699 31.4731,164.9688 L31.4731,167.6914 Q30.8423,167.1104 30.2488,166.8406 Q29.6553,166.5708 29.0244,166.5708 Q27.6797,166.5708 26.9949,167.6375 Q26.3101,168.7041 26.3101,170.8042 Q26.3101,172.896 26.9949,173.9626 Q27.6797,175.0293 29.0244,175.0293 Q29.6553,175.0293 30.2488,174.7595 Q30.8423,174.4897 31.4731,173.9087 Z " fill="#000000"/><text fill="#000000" font-family="sans-serif" font-size="14" lengthAdjust="spacing" textLength="72" x="43" y="175.7793">WasteView</text><line style="stroke:#181818;stroke-width:0.5;" x1="15" x2="117" y1="186.4883" y2="186.4883"/><line style="stroke:#181818;stroke-width:0.5;" x1="15" x2="117" y1="194.4883" y2="194.4883"/></g><!--MD5=[c0ed3c2faa98f17089402fed9230ed1e]
class StockView--><g id="elem_StockView"><rect codeLine="9" fill="#F1F1F1" height="48" id="StockView" rx="2.5" ry="2.5" style="stroke:#181818;stroke-width:0.5;" width="101" x="136.5" y="154.4883"/><ellipse cx="151.5" cy="170.4883" fill="#ADD1B2" rx="11" ry="11" style="stroke:#181818;stroke-width:1.0;"/><path d="M153.9731,176.6313 Q153.3921,176.9302 152.7529,177.0796 Q152.1138,177.229 151.4082,177.229 Q148.9014,177.229 147.5815,175.5771 Q146.2617,173.9253 146.2617,170.8042 Q146.2617,167.6748 147.5815,166.0229 Q148.9014,164.3711 151.4082,164.3711 Q152.1138,164.3711 152.7612,164.5205 Q153.4087,164.6699 153.9731,164.9688 L153.9731,167.6914 Q153.3423,167.1104 152.7488,166.8406 Q152.1553,166.5708 151.5244,166.5708 Q150.1797,166.5708 149.4949,167.6375 Q148.8101,168.7041 148.8101,170.8042 Q148.8101,172.896 149.4949,173.9626 Q150.1797,175.0293 151.5244,175.0293 Q152.1553,175.0293 152.7488,174.7595 Q153.3423,174.4897 153.9731,173.9087 Z " fill="#000000"/><text fill="#000000" font-family="sans-serif" font-size="14" lengthAdjust="spacing" textLength="69" x="165.5" y="175.7793">StockView</text><line style="stroke:#181818;stroke-width:0.5;" x1="137.5" x2="236.5" y1="186.4883" y2="186.4883"/><line style="stroke:#181818;stroke-width:0.5;" x1="137.5" x2="236.5" y1="194.4883" y2="194.4883"/></g><!--MD5=[cdff5bdf89a25a41e770b87ac92ad7cf]
class PilaView--><g id="elem_PilaView"><rect codeLine="10" fill="#F1F1F1" height="48" id="PilaView" rx="2.5" ry="2.5" style="stroke:#181818;stroke-width:0.5;" width="88" x="256" y="154.4883"/><ellipse cx="271" cy="170.4883" fill="#ADD1B2" rx="11" ry="11" style="stroke:#181818;stroke-width:1.0;"/><path d="M273.4731,176.6313 Q272.8921,176.9302 272.2529,177.0796 Q271.6138,177.229 270.9082,177.229 Q268.4014,177.229 267.0815,175.5771 Q265.7617,173.9253 265.7617,170.8042 Q265.7617,167.6748 267.0815,166.0229 Q268.4014,164.3711 270.9082,164.3711 Q271.6138,164.3711 272.2612,164.5205 Q272.9087,164.6699 273.4731,164.9688 L273.4731,167.6914 Q272.8423,167.1104 272.2488,166.8406 Q271.6553,166.5708 271.0244,166.5708 Q269.6797,166.5708 268.9949,167.6375 Q268.3101,168.7041 268.3101,170.8042 Q268.3101,172.896 268.9949,173.9626 Q269.6797,175.0293 271.0244,175.0293 Q271.6553,175.0293 272.2488,174.7595 Q272.8423,174.4897 273.4731,173.9087 Z " fill="#000000"/><text fill="#000000" font-family="sans-serif" font-size="14" lengthAdjust="spacing" textLength="56" x="285" y="175.7793">PilaView</text><line style="stroke:#181818;stroke-width:0.5;" x1="257" x2="343" y1="186.4883" y2="186.4883"/><line style="stroke:#181818;stroke-width:0.5;" x1="257" x2="343" y1="194.4883" y2="194.4883"/></g><!--MD5=[960235927fb61f74e68df7a76c84005b]
class FoundationView--><g id="elem_FoundationView"><rect codeLine="11" fill="#F1F1F1" height="48" id="FoundationView" rx="2.5" ry="2.5" style="stroke:#181818;stroke-width:0.5;" width="143" x="362.5" y="154.4883"/><ellipse cx="377.5" cy="170.4883" fill="#ADD1B2" rx="11" ry="11" style="stroke:#181818;stroke-width:1.0;"/><path d="M379.9731,176.6313 Q379.3921,176.9302 378.7529,177.0796 Q378.1138,177.229 377.4082,177.229 Q374.9014,177.229 373.5815,175.5771 Q372.2617,173.9253 372.2617,170.8042 Q372.2617,167.6748 373.5815,166.0229 Q374.9014,164.3711 377.4082,164.3711 Q378.1138,164.3711 378.7612,164.5205 Q379.4087,164.6699 379.9731,164.9688 L379.9731,167.6914 Q379.3423,167.1104 378.7488,166.8406 Q378.1553,166.5708 377.5244,166.5708 Q376.1797,166.5708 375.4949,167.6375 Q374.8101,168.7041 374.8101,170.8042 Q374.8101,172.896 375.4949,173.9626 Q376.1797,175.0293 377.5244,175.0293 Q378.1553,175.0293 378.7488,174.7595 Q379.3423,174.4897 379.9731,173.9087 Z " fill="#000000"/><text fill="#000000" font-family="sans-serif" font-size="14" lengthAdjust="spacing" textLength="111" x="391.5" y="175.7793">FoundationView</text><line style="stroke:#181818;stroke-width:0.5;" x1="363.5" x2="504.5" y1="186.4883" y2="186.4883"/><line style="stroke:#181818;stroke-width:0.5;" x1="363.5" x2="504.5" y1="194.4883" y2="194.4883"/></g><!--MD5=[2f72331edfc22a0f7db898a5844ea1e6]
class LoguinView--><g id="elem_LoguinView"><rect codeLine="12" fill="#F1F1F1" height="48" id="LoguinView" rx="2.5" ry="2.5" style="stroke:#181818;stroke-width:0.5;" width="111" x="323.5" y="70.4883"/><ellipse cx="338.5" cy="86.4883" fill="#ADD1B2" rx="11" ry="11" style="stroke:#181818;stroke-width:1.0;"/><path d="M340.9731,92.6313 Q340.3921,92.9302 339.7529,93.0796 Q339.1138,93.229 338.4082,93.229 Q335.9014,93.229 334.5815,91.5771 Q333.2617,89.9253 333.2617,86.8042 Q333.2617,83.6748 334.5815,82.0229 Q335.9014,80.3711 338.4082,80.3711 Q339.1138,80.3711 339.7612,80.5205 Q340.4087,80.6699 340.9731,80.9688 L340.9731,83.6914 Q340.3423,83.1104 339.7488,82.8406 Q339.1553,82.5708 338.5244,82.5708 Q337.1797,82.5708 336.4949,83.6375 Q335.8101,84.7041 335.8101,86.8042 Q335.8101,88.896 336.4949,89.9626 Q337.1797,91.0293 338.5244,91.0293 Q339.1553,91.0293 339.7488,90.7595 Q340.3423,90.4897 340.9731,89.9087 Z " fill="#000000"/><text fill="#000000" font-family="sans-serif" font-size="14" lengthAdjust="spacing" textLength="79" x="352.5" y="91.7793">LoguinView</text><line style="stroke:#181818;stroke-width:0.5;" x1="324.5" x2="433.5" y1="102.4883" y2="102.4883"/><line style="stroke:#181818;stroke-width:0.5;" x1="324.5" x2="433.5" y1="110.4883" y2="110.4883"/></g><!--MD5=[5103e3471bf31fadd75905833dcba617]
class LoginController--><g id="elem_LoginController"><rect codeLine="24" fill="#F1F1F1" height="48" id="LoginController" rx="2.5" ry="2.5" style="stroke:#181818;stroke-width:0.5;" width="140" x="530" y="70.4883"/><ellipse cx="545" cy="86.4883" fill="#ADD1B2" rx="11" ry="11" style="stroke:#181818;stroke-width:1.0;"/><path d="M547.4731,92.6313 Q546.8921,92.9302 546.2529,93.0796 Q545.6138,93.229 544.9082,93.229 Q542.4014,93.229 541.0815,91.5771 Q539.7617,89.9253 539.7617,86.8042 Q539.7617,83.6748 541.0815,82.0229 Q542.4014,80.3711 544.9082,80.3711 Q545.6138,80.3711 546.2612,80.5205 Q546.9087,80.6699 547.4731,80.9688 L547.4731,83.6914 Q546.8423,83.1104 546.2488,82.8406 Q545.6553,82.5708 545.0244,82.5708 Q543.6797,82.5708 542.9949,83.6375 Q542.3101,84.7041 542.3101,86.8042 Q542.3101,88.896 542.9949,89.9626 Q543.6797,91.0293 545.0244,91.0293 Q545.6553,91.0293 546.2488,90.7595 Q546.8423,90.4897 547.4731,89.9087 Z " fill="#000000"/><text fill="#000000" font-family="sans-serif" font-size="14" lengthAdjust="spacing" textLength="108" x="559" y="91.7793">LoginController</text><line style="stroke:#181818;stroke-width:0.5;" x1="531" x2="669" y1="102.4883" y2="102.4883"/><line style="stroke:#181818;stroke-width:0.5;" x1="531" x2="669" y1="110.4883" y2="110.4883"/></g><!--MD5=[53946fc74ec193ea45aa1e1dd2faac24]
class DealToWasteController--><g id="elem_DealToWasteController"><rect codeLine="25" fill="#F1F1F1" height="48" id="DealToWasteController" rx="2.5" ry="2.5" style="stroke:#181818;stroke-width:0.5;" width="190" x="688" y="70.4883"/><ellipse cx="703" cy="86.4883" fill="#ADD1B2" rx="11" ry="11" style="stroke:#181818;stroke-width:1.0;"/><path d="M705.4731,92.6313 Q704.8921,92.9302 704.2529,93.0796 Q703.6138,93.229 702.9082,93.229 Q700.4014,93.229 699.0815,91.5771 Q697.7617,89.9253 697.7617,86.8042 Q697.7617,83.6748 699.0815,82.0229 Q700.4014,80.3711 702.9082,80.3711 Q703.6138,80.3711 704.2612,80.5205 Q704.9087,80.6699 705.4731,80.9688 L705.4731,83.6914 Q704.8423,83.1104 704.2488,82.8406 Q703.6553,82.5708 703.0244,82.5708 Q701.6797,82.5708 700.9949,83.6375 Q700.3101,84.7041 700.3101,86.8042 Q700.3101,88.896 700.9949,89.9626 Q701.6797,91.0293 703.0244,91.0293 Q703.6553,91.0293 704.2488,90.7595 Q704.8423,90.4897 705.4731,89.9087 Z " fill="#000000"/><text fill="#000000" font-family="sans-serif" font-size="14" lengthAdjust="spacing" textLength="158" x="717" y="91.7793">DealToWasteController</text><line style="stroke:#181818;stroke-width:0.5;" x1="689" x2="877" y1="102.4883" y2="102.4883"/><line style="stroke:#181818;stroke-width:0.5;" x1="689" x2="877" y1="110.4883" y2="110.4883"/></g><!--MD5=[497dab835c373d681178775bd429c93d]
class PileToPileMoveController--><g id="elem_PileToPileMoveController"><rect codeLine="26" fill="#F1F1F1" height="48" id="PileToPileMoveController" rx="2.5" ry="2.5" style="stroke:#181818;stroke-width:0.5;" width="204" x="896" y="70.4883"/><ellipse cx="911" cy="86.4883" fill="#ADD1B2" rx="11" ry="11" style="stroke:#181818;stroke-width:1.0;"/><path d="M913.4731,92.6313 Q912.8921,92.9302 912.2529,93.0796 Q911.6138,93.229 910.9082,93.229 Q908.4014,93.229 907.0815,91.5771 Q905.7617,89.9253 905.7617,86.8042 Q905.7617,83.6748 907.0815,82.0229 Q908.4014,80.3711 910.9082,80.3711 Q911.6138,80.3711 912.2612,80.5205 Q912.9087,80.6699 913.4731,80.9688 L913.4731,83.6914 Q912.8423,83.1104 912.2488,82.8406 Q911.6553,82.5708 911.0244,82.5708 Q909.6797,82.5708 908.9949,83.6375 Q908.3101,84.7041 908.3101,86.8042 Q908.3101,88.896 908.9949,89.9626 Q909.6797,91.0293 911.0244,91.0293 Q911.6553,91.0293 912.2488,90.7595 Q912.8423,90.4897 913.4731,89.9087 Z " fill="#000000"/><text fill="#000000" font-family="sans-serif" font-size="14" lengthAdjust="spacing" textLength="172" x="925" y="91.7793">PileToPileMoveController</text><line style="stroke:#181818;stroke-width:0.5;" x1="897" x2="1099" y1="102.4883" y2="102.4883"/><line style="stroke:#181818;stroke-width:0.5;" x1="897" x2="1099" y1="110.4883" y2="110.4883"/></g><!--MD5=[551f7bc5b114ee47012c884e6c567313]
class PileToFoundationMoveController--><g id="elem_PileToFoundationMoveController"><rect codeLine="27" fill="#F1F1F1" height="48" id="PileToFoundationMoveController" rx="2.5" ry="2.5" style="stroke:#181818;stroke-width:0.5;" width="259" x="1118.5" y="70.4883"/><ellipse cx="1133.5" cy="86.4883" fill="#ADD1B2" rx="11" ry="11" style="stroke:#181818;stroke-width:1.0;"/><path d="M1135.9731,92.6313 Q1135.3921,92.9302 1134.7529,93.0796 Q1134.1138,93.229 1133.4082,93.229 Q1130.9014,93.229 1129.5815,91.5771 Q1128.2617,89.9253 1128.2617,86.8042 Q1128.2617,83.6748 1129.5815,82.0229 Q1130.9014,80.3711 1133.4082,80.3711 Q1134.1138,80.3711 1134.7612,80.5205 Q1135.4087,80.6699 1135.9731,80.9688 L1135.9731,83.6914 Q1135.3423,83.1104 1134.7488,82.8406 Q1134.1553,82.5708 1133.5244,82.5708 Q1132.1797,82.5708 1131.4949,83.6375 Q1130.8101,84.7041 1130.8101,86.8042 Q1130.8101,88.896 1131.4949,89.9626 Q1132.1797,91.0293 1133.5244,91.0293 Q1134.1553,91.0293 1134.7488,90.7595 Q1135.3423,90.4897 1135.9731,89.9087 Z " fill="#000000"/><text fill="#000000" font-family="sans-serif" font-size="14" lengthAdjust="spacing" textLength="227" x="1147.5" y="91.7793">PileToFoundationMoveController</text><line style="stroke:#181818;stroke-width:0.5;" x1="1119.5" x2="1376.5" y1="102.4883" y2="102.4883"/><line style="stroke:#181818;stroke-width:0.5;" x1="1119.5" x2="1376.5" y1="110.4883" y2="110.4883"/></g><!--MD5=[aab9612c5d46aa221e996c7d0ed5d7ab]
class UndoController--><g id="elem_UndoController"><rect codeLine="28" fill="#F1F1F1" height="48" id="UndoController" rx="2.5" ry="2.5" style="stroke:#181818;stroke-width:0.5;" width="139" x="530.5" y="154.4883"/><ellipse cx="545.5" cy="170.4883" fill="#ADD1B2" rx="11" ry="11" style="stroke:#181818;stroke-width:1.0;"/><path d="M547.9731,176.6313 Q547.3921,176.9302 546.7529,177.0796 Q546.1138,177.229 545.4082,177.229 Q542.9014,177.229 541.5815,175.5771 Q540.2617,173.9253 540.2617,170.8042 Q540.2617,167.6748 541.5815,166.0229 Q542.9014,164.3711 545.4082,164.3711 Q546.1138,164.3711 546.7612,164.5205 Q547.4087,164.6699 547.9731,164.9688 L547.9731,167.6914 Q547.3423,167.1104 546.7488,166.8406 Q546.1553,166.5708 545.5244,166.5708 Q544.1797,166.5708 543.4949,167.6375 Q542.8101,168.7041 542.8101,170.8042 Q542.8101,172.896 543.4949,173.9626 Q544.1797,175.0293 545.5244,175.0293 Q546.1553,175.0293 546.7488,174.7595 Q547.3423,174.4897 547.9731,173.9087 Z " fill="#000000"/><text fill="#000000" font-family="sans-serif" font-size="14" lengthAdjust="spacing" textLength="107" x="559.5" y="175.7793">UndoController</text><line style="stroke:#181818;stroke-width:0.5;" x1="531.5" x2="668.5" y1="186.4883" y2="186.4883"/><line style="stroke:#181818;stroke-width:0.5;" x1="531.5" x2="668.5" y1="194.4883" y2="194.4883"/></g><!--MD5=[319e93a60515c175807e2d1fbd5079c2]
class FoundationToPileMoveController--><g id="elem_FoundationToPileMoveController"><rect codeLine="29" fill="#F1F1F1" height="48" id="FoundationToPileMoveController" rx="2.5" ry="2.5" style="stroke:#181818;stroke-width:0.5;" width="259" x="687.5" y="154.4883"/><ellipse cx="702.5" cy="170.4883" fill="#ADD1B2" rx="11" ry="11" style="stroke:#181818;stroke-width:1.0;"/><path d="M704.9731,176.6313 Q704.3921,176.9302 703.7529,177.0796 Q703.1138,177.229 702.4082,177.229 Q699.9014,177.229 698.5815,175.5771 Q697.2617,173.9253 697.2617,170.8042 Q697.2617,167.6748 698.5815,166.0229 Q699.9014,164.3711 702.4082,164.3711 Q703.1138,164.3711 703.7612,164.5205 Q704.4087,164.6699 704.9731,164.9688 L704.9731,167.6914 Q704.3423,167.1104 703.7488,166.8406 Q703.1553,166.5708 702.5244,166.5708 Q701.1797,166.5708 700.4949,167.6375 Q699.8101,168.7041 699.8101,170.8042 Q699.8101,172.896 700.4949,173.9626 Q701.1797,175.0293 702.5244,175.0293 Q703.1553,175.0293 703.7488,174.7595 Q704.3423,174.4897 704.9731,173.9087 Z " fill="#000000"/><text fill="#000000" font-family="sans-serif" font-size="14" lengthAdjust="spacing" textLength="227" x="716.5" y="175.7793">FoundationToPileMoveController</text><line style="stroke:#181818;stroke-width:0.5;" x1="688.5" x2="945.5" y1="186.4883" y2="186.4883"/><line style="stroke:#181818;stroke-width:0.5;" x1="688.5" x2="945.5" y1="194.4883" y2="194.4883"/></g><!--MD5=[fa5b10279f622d462eeba81aa8a9007b]
class WasteToPileMoveController--><g id="elem_WasteToPileMoveController"><rect codeLine="30" fill="#F1F1F1" height="48" id="WasteToPileMoveController" rx="2.5" ry="2.5" style="stroke:#181818;stroke-width:0.5;" width="220" x="965" y="154.4883"/><ellipse cx="980" cy="170.4883" fill="#ADD1B2" rx="11" ry="11" style="stroke:#181818;stroke-width:1.0;"/><path d="M982.4731,176.6313 Q981.8921,176.9302 981.2529,177.0796 Q980.6138,177.229 979.9082,177.229 Q977.4014,177.229 976.0815,175.5771 Q974.7617,173.9253 974.7617,170.8042 Q974.7617,167.6748 976.0815,166.0229 Q977.4014,164.3711 979.9082,164.3711 Q980.6138,164.3711 981.2612,164.5205 Q981.9087,164.6699 982.4731,164.9688 L982.4731,167.6914 Q981.8423,167.1104 981.2488,166.8406 Q980.6553,166.5708 980.0244,166.5708 Q978.6797,166.5708 977.9949,167.6375 Q977.3101,168.7041 977.3101,170.8042 Q977.3101,172.896 977.9949,173.9626 Q978.6797,175.0293 980.0244,175.0293 Q980.6553,175.0293 981.2488,174.7595 Q981.8423,174.4897 982.4731,173.9087 Z " fill="#000000"/><text fill="#000000" font-family="sans-serif" font-size="14" lengthAdjust="spacing" textLength="188" x="994" y="175.7793">WasteToPileMoveController</text><line style="stroke:#181818;stroke-width:0.5;" x1="966" x2="1184" y1="186.4883" y2="186.4883"/><line style="stroke:#181818;stroke-width:0.5;" x1="966" x2="1184" y1="194.4883" y2="194.4883"/></g><!--MD5=[dc83ec4641633f17d4130311152f32b8]
class WasteToFondationMoveController--><g id="elem_WasteToFondationMoveController"><rect codeLine="31" fill="#F1F1F1" height="48" id="WasteToFondationMoveController" rx="2.5" ry="2.5" style="stroke:#181818;stroke-width:0.5;" width="266" x="1203" y="154.4883"/><ellipse cx="1218" cy="170.4883" fill="#ADD1B2" rx="11" ry="11" style="stroke:#181818;stroke-width:1.0;"/><path d="M1220.4731,176.6313 Q1219.8921,176.9302 1219.2529,177.0796 Q1218.6138,177.229 1217.9082,177.229 Q1215.4014,177.229 1214.0815,175.5771 Q1212.7617,173.9253 1212.7617,170.8042 Q1212.7617,167.6748 1214.0815,166.0229 Q1215.4014,164.3711 1217.9082,164.3711 Q1218.6138,164.3711 1219.2612,164.5205 Q1219.9087,164.6699 1220.4731,164.9688 L1220.4731,167.6914 Q1219.8423,167.1104 1219.2488,166.8406 Q1218.6553,166.5708 1218.0244,166.5708 Q1216.6797,166.5708 1215.9949,167.6375 Q1215.3101,168.7041 1215.3101,170.8042 Q1215.3101,172.896 1215.9949,173.9626 Q1216.6797,175.0293 1218.0244,175.0293 Q1218.6553,175.0293 1219.2488,174.7595 Q1219.8423,174.4897 1220.4731,173.9087 Z " fill="#000000"/><text fill="#000000" font-family="sans-serif" font-size="14" lengthAdjust="spacing" textLength="234" x="1232" y="175.7793">WasteToFondationMoveController</text><line style="stroke:#181818;stroke-width:0.5;" x1="1204" x2="1468" y1="186.4883" y2="186.4883"/><line style="stroke:#181818;stroke-width:0.5;" x1="1204" x2="1468" y1="194.4883" y2="194.4883"/></g><!--MD5=[f0c0608cbebaa9b6962ac7aa45658198]
class WasteToStockMoveController--><g id="elem_WasteToStockMoveController"><rect codeLine="32" fill="#F1F1F1" height="48" id="WasteToStockMoveController" rx="2.5" ry="2.5" style="stroke:#181818;stroke-width:0.5;" width="233" x="530.5" y="238.4883"/><ellipse cx="545.5" cy="254.4883" fill="#ADD1B2" rx="11" ry="11" style="stroke:#181818;stroke-width:1.0;"/><path d="M547.9731,260.6313 Q547.3921,260.9302 546.7529,261.0796 Q546.1138,261.229 545.4082,261.229 Q542.9014,261.229 541.5815,259.5771 Q540.2617,257.9253 540.2617,254.8042 Q540.2617,251.6748 541.5815,250.0229 Q542.9014,248.3711 545.4082,248.3711 Q546.1138,248.3711 546.7612,248.5205 Q547.4087,248.6699 547.9731,248.9688 L547.9731,251.6914 Q547.3423,251.1104 546.7488,250.8406 Q546.1553,250.5708 545.5244,250.5708 Q544.1797,250.5708 543.4949,251.6375 Q542.8101,252.7041 542.8101,254.8042 Q542.8101,256.896 543.4949,257.9626 Q544.1797,259.0293 545.5244,259.0293 Q546.1553,259.0293 546.7488,258.7595 Q547.3423,258.4897 547.9731,257.9087 Z " fill="#000000"/><text fill="#000000" font-family="sans-serif" font-size="14" lengthAdjust="spacing" textLength="201" x="559.5" y="259.7793">WasteToStockMoveController</text><line style="stroke:#181818;stroke-width:0.5;" x1="531.5" x2="762.5" y1="270.4883" y2="270.4883"/><line style="stroke:#181818;stroke-width:0.5;" x1="531.5" x2="762.5" y1="278.4883" y2="278.4883"/></g><!--MD5=[09632e2f294dd01282ddf91519a686d7]
class RedoController--><g id="elem_RedoController"><rect codeLine="33" fill="#F1F1F1" height="48" id="RedoController" rx="2.5" ry="2.5" style="stroke:#181818;stroke-width:0.5;" width="137" x="781.5" y="238.4883"/><ellipse cx="796.5" cy="254.4883" fill="#ADD1B2" rx="11" ry="11" style="stroke:#181818;stroke-width:1.0;"/><path d="M798.9731,260.6313 Q798.3921,260.9302 797.7529,261.0796 Q797.1138,261.229 796.4082,261.229 Q793.9014,261.229 792.5815,259.5771 Q791.2617,257.9253 791.2617,254.8042 Q791.2617,251.6748 792.5815,250.0229 Q793.9014,248.3711 796.4082,248.3711 Q797.1138,248.3711 797.7612,248.5205 Q798.4087,248.6699 798.9731,248.9688 L798.9731,251.6914 Q798.3423,251.1104 797.7488,250.8406 Q797.1553,250.5708 796.5244,250.5708 Q795.1797,250.5708 794.4949,251.6375 Q793.8101,252.7041 793.8101,254.8042 Q793.8101,256.896 794.4949,257.9626 Q795.1797,259.0293 796.5244,259.0293 Q797.1553,259.0293 797.7488,258.7595 Q798.3423,258.4897 798.9731,257.9087 Z " fill="#000000"/><text fill="#000000" font-family="sans-serif" font-size="14" lengthAdjust="spacing" textLength="105" x="810.5" y="259.7793">RedoController</text><line style="stroke:#181818;stroke-width:0.5;" x1="782.5" x2="917.5" y1="270.4883" y2="270.4883"/><line style="stroke:#181818;stroke-width:0.5;" x1="782.5" x2="917.5" y1="278.4883" y2="278.4883"/></g><!--MD5=[a9d729ecd171fe3a8f4459bd05145371]
class RestartGameController--><g id="elem_RestartGameController"><rect codeLine="34" fill="#F1F1F1" height="48" id="RestartGameController" rx="2.5" ry="2.5" style="stroke:#181818;stroke-width:0.5;" width="189" x="936.5" y="238.4883"/><ellipse cx="951.5" cy="254.4883" fill="#ADD1B2" rx="11" ry="11" style="stroke:#181818;stroke-width:1.0;"/><path d="M953.9731,260.6313 Q953.3921,260.9302 952.7529,261.0796 Q952.1138,261.229 951.4082,261.229 Q948.9014,261.229 947.5815,259.5771 Q946.2617,257.9253 946.2617,254.8042 Q946.2617,251.6748 947.5815,250.0229 Q948.9014,248.3711 951.4082,248.3711 Q952.1138,248.3711 952.7612,248.5205 Q953.4087,248.6699 953.9731,248.9688 L953.9731,251.6914 Q953.3423,251.1104 952.7488,250.8406 Q952.1553,250.5708 951.5244,250.5708 Q950.1797,250.5708 949.4949,251.6375 Q948.8101,252.7041 948.8101,254.8042 Q948.8101,256.896 949.4949,257.9626 Q950.1797,259.0293 951.5244,259.0293 Q952.1553,259.0293 952.7488,258.7595 Q953.3423,258.4897 953.9731,257.9087 Z " fill="#000000"/><text fill="#000000" font-family="sans-serif" font-size="14" lengthAdjust="spacing" textLength="157" x="965.5" y="259.7793">RestartGameController</text><line style="stroke:#181818;stroke-width:0.5;" x1="937.5" x2="1124.5" y1="270.4883" y2="270.4883"/><line style="stroke:#181818;stroke-width:0.5;" x1="937.5" x2="1124.5" y1="278.4883" y2="278.4883"/></g><!--MD5=[d63f0e2cff0a030c2b832dd7cdde9bf8]
class StackModel--><g id="elem_StackModel"><rect codeLine="37" fill="#F1F1F1" height="48" id="StackModel" rx="2.5" ry="2.5" style="stroke:#181818;stroke-width:0.5;" width="110" x="1786" y="70.4883"/><ellipse cx="1801" cy="86.4883" fill="#ADD1B2" rx="11" ry="11" style="stroke:#181818;stroke-width:1.0;"/><path d="M1803.4731,92.6313 Q1802.8921,92.9302 1802.2529,93.0796 Q1801.6138,93.229 1800.9082,93.229 Q1798.4014,93.229 1797.0815,91.5771 Q1795.7617,89.9253 1795.7617,86.8042 Q1795.7617,83.6748 1797.0815,82.0229 Q1798.4014,80.3711 1800.9082,80.3711 Q1801.6138,80.3711 1802.2612,80.5205 Q1802.9087,80.6699 1803.4731,80.9688 L1803.4731,83.6914 Q1802.8423,83.1104 1802.2488,82.8406 Q1801.6553,82.5708 1801.0244,82.5708 Q1799.6797,82.5708 1798.9949,83.6375 Q1798.3101,84.7041 1798.3101,86.8042 Q1798.3101,88.896 1798.9949,89.9626 Q1799.6797,91.0293 1801.0244,91.0293 Q1801.6553,91.0293 1802.2488,90.7595 Q1802.8423,90.4897 1803.4731,89.9087 Z " fill="#000000"/><text fill="#000000" font-family="sans-serif" font-size="14" lengthAdjust="spacing" textLength="78" x="1815" y="91.7793">StackModel</text><line style="stroke:#181818;stroke-width:0.5;" x1="1787" x2="1895" y1="102.4883" y2="102.4883"/><line style="stroke:#181818;stroke-width:0.5;" x1="1787" x2="1895" y1="110.4883" y2="110.4883"/></g><!--MD5=[01632ccb838a58e988d8c5c49aed9151]
class CardModel--><g id="elem_CardModel"><rect codeLine="38" fill="#F1F1F1" height="48" id="CardModel" rx="2.5" ry="2.5" style="stroke:#181818;stroke-width:0.5;" width="107" x="1655.5" y="70.4883"/><ellipse cx="1670.5" cy="86.4883" fill="#ADD1B2" rx="11" ry="11" style="stroke:#181818;stroke-width:1.0;"/><path d="M1672.9731,92.6313 Q1672.3921,92.9302 1671.7529,93.0796 Q1671.1138,93.229 1670.4082,93.229 Q1667.9014,93.229 1666.5815,91.5771 Q1665.2617,89.9253 1665.2617,86.8042 Q1665.2617,83.6748 1666.5815,82.0229 Q1667.9014,80.3711 1670.4082,80.3711 Q1671.1138,80.3711 1671.7612,80.5205 Q1672.4087,80.6699 1672.9731,80.9688 L1672.9731,83.6914 Q1672.3423,83.1104 1671.7488,82.8406 Q1671.1553,82.5708 1670.5244,82.5708 Q1669.1797,82.5708 1668.4949,83.6375 Q1667.8101,84.7041 1667.8101,86.8042 Q1667.8101,88.896 1668.4949,89.9626 Q1669.1797,91.0293 1670.5244,91.0293 Q1671.1553,91.0293 1671.7488,90.7595 Q1672.3423,90.4897 1672.9731,89.9087 Z " fill="#000000"/><text fill="#000000" font-family="sans-serif" font-size="14" lengthAdjust="spacing" textLength="75" x="1684.5" y="91.7793">CardModel</text><line style="stroke:#181818;stroke-width:0.5;" x1="1656.5" x2="1761.5" y1="102.4883" y2="102.4883"/><line style="stroke:#181818;stroke-width:0.5;" x1="1656.5" x2="1761.5" y1="110.4883" y2="110.4883"/></g><!--MD5=[1e72b3cc921a55cc927271cbd5918086]
class PlayerModel--><g id="elem_PlayerModel"><rect codeLine="39" fill="#F1F1F1" height="48" id="PlayerModel" rx="2.5" ry="2.5" style="stroke:#181818;stroke-width:0.5;" width="115" x="1512.5" y="70.4883"/><ellipse cx="1527.5" cy="86.4883" fill="#ADD1B2" rx="11" ry="11" style="stroke:#181818;stroke-width:1.0;"/><path d="M1529.9731,92.6313 Q1529.3921,92.9302 1528.7529,93.0796 Q1528.1138,93.229 1527.4082,93.229 Q1524.9014,93.229 1523.5815,91.5771 Q1522.2617,89.9253 1522.2617,86.8042 Q1522.2617,83.6748 1523.5815,82.0229 Q1524.9014,80.3711 1527.4082,80.3711 Q1528.1138,80.3711 1528.7612,80.5205 Q1529.4087,80.6699 1529.9731,80.9688 L1529.9731,83.6914 Q1529.3423,83.1104 1528.7488,82.8406 Q1528.1553,82.5708 1527.5244,82.5708 Q1526.1797,82.5708 1525.4949,83.6375 Q1524.8101,84.7041 1524.8101,86.8042 Q1524.8101,88.896 1525.4949,89.9626 Q1526.1797,91.0293 1527.5244,91.0293 Q1528.1553,91.0293 1528.7488,90.7595 Q1529.3423,90.4897 1529.9731,89.9087 Z " fill="#000000"/><text fill="#000000" font-family="sans-serif" font-size="14" lengthAdjust="spacing" textLength="83" x="1541.5" y="91.7793">PlayerModel</text><line style="stroke:#181818;stroke-width:0.5;" x1="1513.5" x2="1626.5" y1="102.4883" y2="102.4883"/><line style="stroke:#181818;stroke-width:0.5;" x1="1513.5" x2="1626.5" y1="110.4883" y2="110.4883"/></g><!--MD5=[5a845e892a5bbb68492d19369860ec46]
class WasteModel--><g id="elem_WasteModel"><rect codeLine="40" fill="#F1F1F1" height="48" id="WasteModel" rx="2.5" ry="2.5" style="stroke:#181818;stroke-width:0.5;" width="114" x="1493" y="154.4883"/><ellipse cx="1508" cy="170.4883" fill="#ADD1B2" rx="11" ry="11" style="stroke:#181818;stroke-width:1.0;"/><path d="M1510.4731,176.6313 Q1509.8921,176.9302 1509.2529,177.0796 Q1508.6138,177.229 1507.9082,177.229 Q1505.4014,177.229 1504.0815,175.5771 Q1502.7617,173.9253 1502.7617,170.8042 Q1502.7617,167.6748 1504.0815,166.0229 Q1505.4014,164.3711 1507.9082,164.3711 Q1508.6138,164.3711 1509.2612,164.5205 Q1509.9087,164.6699 1510.4731,164.9688 L1510.4731,167.6914 Q1509.8423,167.1104 1509.2488,166.8406 Q1508.6553,166.5708 1508.0244,166.5708 Q1506.6797,166.5708 1505.9949,167.6375 Q1505.3101,168.7041 1505.3101,170.8042 Q1505.3101,172.896 1505.9949,173.9626 Q1506.6797,175.0293 1508.0244,175.0293 Q1508.6553,175.0293 1509.2488,174.7595 Q1509.8423,174.4897 1510.4731,173.9087 Z " fill="#000000"/><text fill="#000000" font-family="sans-serif" font-size="14" lengthAdjust="spacing" textLength="82" x="1522" y="175.7793">WasteModel</text><line style="stroke:#181818;stroke-width:0.5;" x1="1494" x2="1606" y1="186.4883" y2="186.4883"/><line style="stroke:#181818;stroke-width:0.5;" x1="1494" x2="1606" y1="194.4883" y2="194.4883"/></g><!--MD5=[66fbf4a293e9439a47b162be5edd7b1d]
class FoundationModel--><g id="elem_FoundationModel"><rect codeLine="41" fill="#F1F1F1" height="48" id="FoundationModel" rx="2.5" ry="2.5" style="stroke:#181818;stroke-width:0.5;" width="153" x="1625.5" y="154.4883"/><ellipse cx="1640.5" cy="170.4883" fill="#ADD1B2" rx="11" ry="11" style="stroke:#181818;stroke-width:1.0;"/><path d="M1642.9731,176.6313 Q1642.3921,176.9302 1641.7529,177.0796 Q1641.1138,177.229 1640.4082,177.229 Q1637.9014,177.229 1636.5815,175.5771 Q1635.2617,173.9253 1635.2617,170.8042 Q1635.2617,167.6748 1636.5815,166.0229 Q1637.9014,164.3711 1640.4082,164.3711 Q1641.1138,164.3711 1641.7612,164.5205 Q1642.4087,164.6699 1642.9731,164.9688 L1642.9731,167.6914 Q1642.3423,167.1104 1641.7488,166.8406 Q1641.1553,166.5708 1640.5244,166.5708 Q1639.1797,166.5708 1638.4949,167.6375 Q1637.8101,168.7041 1637.8101,170.8042 Q1637.8101,172.896 1638.4949,173.9626 Q1639.1797,175.0293 1640.5244,175.0293 Q1641.1553,175.0293 1641.7488,174.7595 Q1642.3423,174.4897 1642.9731,173.9087 Z " fill="#000000"/><text fill="#000000" font-family="sans-serif" font-size="14" lengthAdjust="spacing" textLength="121" x="1654.5" y="175.7793">FoundationModel</text><line style="stroke:#181818;stroke-width:0.5;" x1="1626.5" x2="1777.5" y1="186.4883" y2="186.4883"/><line style="stroke:#181818;stroke-width:0.5;" x1="1626.5" x2="1777.5" y1="194.4883" y2="194.4883"/></g><!--MD5=[0c3d5d4b7b69caac30c25735c73fa698]
class PileModel--><g id="elem_PileModel"><rect codeLine="42" fill="#F1F1F1" height="48" id="PileModel" rx="2.5" ry="2.5" style="stroke:#181818;stroke-width:0.5;" width="98" x="1797" y="154.4883"/><ellipse cx="1812" cy="170.4883" fill="#ADD1B2" rx="11" ry="11" style="stroke:#181818;stroke-width:1.0;"/><path d="M1814.4731,176.6313 Q1813.8921,176.9302 1813.2529,177.0796 Q1812.6138,177.229 1811.9082,177.229 Q1809.4014,177.229 1808.0815,175.5771 Q1806.7617,173.9253 1806.7617,170.8042 Q1806.7617,167.6748 1808.0815,166.0229 Q1809.4014,164.3711 1811.9082,164.3711 Q1812.6138,164.3711 1813.2612,164.5205 Q1813.9087,164.6699 1814.4731,164.9688 L1814.4731,167.6914 Q1813.8423,167.1104 1813.2488,166.8406 Q1812.6553,166.5708 1812.0244,166.5708 Q1810.6797,166.5708 1809.9949,167.6375 Q1809.3101,168.7041 1809.3101,170.8042 Q1809.3101,172.896 1809.9949,173.9626 Q1810.6797,175.0293 1812.0244,175.0293 Q1812.6553,175.0293 1813.2488,174.7595 Q1813.8423,174.4897 1814.4731,173.9087 Z " fill="#000000"/><text fill="#000000" font-family="sans-serif" font-size="14" lengthAdjust="spacing" textLength="66" x="1826" y="175.7793">PileModel</text><line style="stroke:#181818;stroke-width:0.5;" x1="1798" x2="1894" y1="186.4883" y2="186.4883"/><line style="stroke:#181818;stroke-width:0.5;" x1="1798" x2="1894" y1="194.4883" y2="194.4883"/></g><!--MD5=[c731506322bf6c3e4a248bceaddd3e44]
class StockModel--><g id="elem_StockModel"><rect codeLine="43" fill="#F1F1F1" height="48" id="StockModel" rx="2.5" ry="2.5" style="stroke:#181818;stroke-width:0.5;" width="111" x="1913.5" y="154.4883"/><ellipse cx="1928.5" cy="170.4883" fill="#ADD1B2" rx="11" ry="11" style="stroke:#181818;stroke-width:1.0;"/><path d="M1930.9731,176.6313 Q1930.3921,176.9302 1929.7529,177.0796 Q1929.1138,177.229 1928.4082,177.229 Q1925.9014,177.229 1924.5815,175.5771 Q1923.2617,173.9253 1923.2617,170.8042 Q1923.2617,167.6748 1924.5815,166.0229 Q1925.9014,164.3711 1928.4082,164.3711 Q1929.1138,164.3711 1929.7612,164.5205 Q1930.4087,164.6699 1930.9731,164.9688 L1930.9731,167.6914 Q1930.3423,167.1104 1929.7488,166.8406 Q1929.1553,166.5708 1928.5244,166.5708 Q1927.1797,166.5708 1926.4949,167.6375 Q1925.8101,168.7041 1925.8101,170.8042 Q1925.8101,172.896 1926.4949,173.9626 Q1927.1797,175.0293 1928.5244,175.0293 Q1929.1553,175.0293 1929.7488,174.7595 Q1930.3423,174.4897 1930.9731,173.9087 Z " fill="#000000"/><text fill="#000000" font-family="sans-serif" font-size="14" lengthAdjust="spacing" textLength="79" x="1942.5" y="175.7793">StockModel</text><line style="stroke:#181818;stroke-width:0.5;" x1="1914.5" x2="2023.5" y1="186.4883" y2="186.4883"/><line style="stroke:#181818;stroke-width:0.5;" x1="1914.5" x2="2023.5" y1="194.4883" y2="194.4883"/></g><path d="M193.2246,118.5481 C168.9913,129.7748 139.9326,143.237 115.7082,154.4596 " fill="none" style="stroke:#181818;stroke-width:1.0;"/><polygon fill="#181818" points="115.7082,154.4596,125.5558,154.3059,120.245,152.3578,122.193,147.047,115.7082,154.4596" style="stroke:#181818;stroke-width:1.0;"/><path d="M227.1024,118.7669 C219.4711,129.9413 210.3546,143.2904 202.7435,154.4353 " fill="none" style="stroke:#181818;stroke-width:1.0;"/><polygon fill="#181818" points="202.7435,154.4353,211.1223,149.259,205.5633,150.3063,204.5159,144.7473,202.7435,154.4353" style="stroke:#181818;stroke-width:1.0;"/><path d="M259.1814,118.7669 C266.949,129.9413 276.2283,143.2904 283.9754,154.4353 " fill="none" style="stroke:#181818;stroke-width:1.0;"/><polygon fill="#181818" points="283.9754,154.4353,282.1229,144.7623,281.1215,150.3298,275.554,149.3284,283.9754,154.4353" style="stroke:#181818;stroke-width:1.0;"/><path d="M296.7124,118.5481 C322.8625,129.7748 354.2197,143.237 380.3601,154.4596 " fill="none" style="stroke:#181818;stroke-width:1.0;"/><polygon fill="#181818" points="380.3601,154.4596,373.6681,147.2336,375.7656,152.4871,370.5121,154.5847,380.3601,154.4596" style="stroke:#181818;stroke-width:1.0;"/><path d="M305.1563,94.4883 C311.2137,94.4883 317.2712,94.4883 323.3287,94.4883 " fill="none" style="stroke:#181818;stroke-width:1.0;stroke-dasharray:7.0,7.0;"/><polygon fill="#181818" points="323.3287,94.4883,314.3287,90.4883,318.3287,94.4883,314.3287,98.4883,323.3287,94.4883" style="stroke:#181818;stroke-width:1.0;"/><path d="M1785.7349,114.1518 C1780.7695,115.6754 1775.8043,117.144 1771,118.4883 C1702.8934,137.5454 1683.9336,134.8236 1616,154.4883 C1613.0861,155.3318 1610.1119,156.2299 1607.1169,157.1638 " fill="none" style="stroke:#181818;stroke-width:1.0;"/><polygon fill="#FFFFFF" points="1785.7349,114.1518,1768.6787,113.1095,1772.199,124.5815,1785.7349,114.1518" style="stroke:#181818;stroke-width:1.0;"/><path d="M1801.9108,118.5481 C1782.9604,129.7274 1760.2525,143.1235 1741.2774,154.3175 " fill="none" style="stroke:#181818;stroke-width:1.0;"/><polygon fill="#FFFFFF" points="1801.9108,118.5481,1785.0815,121.5099,1791.1787,131.8455,1801.9108,118.5481" style="stroke:#181818;stroke-width:1.0;"/><path d="M1842.4194,118.7669 C1843.1008,129.9413 1843.9148,143.2904 1844.5943,154.4353 " fill="none" style="stroke:#181818;stroke-width:1.0;"/><polygon fill="#FFFFFF" points="1842.4194,118.7669,1837.4043,135.1024,1849.3821,134.372,1842.4194,118.7669" style="stroke:#181818;stroke-width:1.0;"/><path d="M1876.9958,118.5481 C1894.4465,129.7274 1915.3574,143.1235 1932.8309,154.3175 " fill="none" style="stroke:#181818;stroke-width:1.0;"/><polygon fill="#FFFFFF" points="1876.9958,118.5481,1887.2317,132.2311,1893.7048,122.1267,1876.9958,118.5481" style="stroke:#181818;stroke-width:1.0;"/><!--MD5=[f86403907ac5397417dd57861d462ffd]
@startuml ArquitecturaMVC
!pragma layout smetana
title Paquetes MVC
top to bottom direction
' left to right direction

package Views {
    class KlondikeView
    class WasteView
    class StockView
    class PilaView
    class FoundationView
    class LoguinView

    KlondikeView O-down-> WasteView
    KlondikeView O-down-> StockView
    KlondikeView O-down-> PilaView
    KlondikeView O-down-> FoundationView

    KlondikeView .right.> LoguinView

}

package Controllers {
    class LoginController
    class DealToWasteController
    class PileToPileMoveController
    class PileToFoundationMoveController
    class UndoController
    class FoundationToPileMoveController
    class WasteToPileMoveController
    class WasteToFondationMoveController
    class WasteToStockMoveController
    class RedoController
    class RestartGameController
} 
package Models {
    class StackModel
    class CardModel
    class PlayerModel
    class WasteModel
    class FoundationModel
    class PileModel
    class StockModel
    StackModel <|-down- WasteModel
    StackModel <|-down- FoundationModel
    StackModel <|-down- PileModel
    StackModel <|-down- StockModel
}

@enduml 

@startuml ArquitecturaMVC
!pragma layout smetana
title Paquetes MVC
top to bottom direction

package Views {
    class KlondikeView
    class WasteView
    class StockView
    class PilaView
    class FoundationView
    class LoguinView

    KlondikeView O-down-> WasteView
    KlondikeView O-down-> StockView
    KlondikeView O-down-> PilaView
    KlondikeView O-down-> FoundationView

    KlondikeView .right.> LoguinView

}

package Controllers {
    class LoginController
    class DealToWasteController
    class PileToPileMoveController
    class PileToFoundationMoveController
    class UndoController
    class FoundationToPileMoveController
    class WasteToPileMoveController
    class WasteToFondationMoveController
    class WasteToStockMoveController
    class RedoController
    class RestartGameController
} 
package Models {
    class StackModel
    class CardModel
    class PlayerModel
    class WasteModel
    class FoundationModel
    class PileModel
    class StockModel
    StackModel <|-down- WasteModel
    StackModel <|-down- FoundationModel
    StackModel <|-down- PileModel
    StackModel <|-down- StockModel
}

@enduml 

PlantUML version 1.2022.5(Sat Apr 30 05:55:52 ECT 2022)
(GPL source distribution)
Java Runtime: OpenJDK Runtime Environment
JVM: OpenJDK 64-Bit Server VM
Default Encoding: UTF-8
Language: es
Country: EC
--></g></svg>