<?xml version="1.0" encoding="UTF-8" standalone="no"?><svg xmlns="http://www.w3.org/2000/svg" xmlns:xlink="http://www.w3.org/1999/xlink" contentScriptType="application/ecmascript" contentStyleType="text/css" height="201px" preserveAspectRatio="none" style="width:1191px;height:201px;background:#FFFFFF;" version="1.1" viewBox="0 0 1191 201" width="1191px" zoomAndPan="magnify"><defs><filter height="300%" id="frt03lg4en5r9" width="300%" x="-1" y="-1"><feGaussianBlur result="blurOut" stdDeviation="2.0"/><feColorMatrix in="blurOut" result="blurOut2" type="matrix" values="0 0 0 0 0 0 0 0 0 0 0 0 0 0 0 0 0 0 .4 0"/><feOffset dx="4.0" dy="4.0" in="blurOut2" result="blurOut3"/><feBlend in="SourceGraphic" in2="blurOut3" mode="normal"/></filter></defs><g><text fill="#000000" font-family="sans-serif" font-size="18" lengthAdjust="spacing" textLength="124" x="527" y="17.4023">Paquetes MVC</text><!--MD5=[999f80192410ad58725ac6d158b21eb2]
cluster Views--><polygon fill="#FFFFFF" filter="url(#frt03lg4en5r9)" points="16,27.1992,65,27.1992,72,49.6875,239,49.6875,239,194.1992,16,194.1992,16,27.1992" style="stroke:#000000;stroke-width:1.5;"/><line style="stroke:#000000;stroke-width:1.5;" x1="16" x2="72" y1="49.6875" y2="49.6875"/><text fill="#000000" font-family="sans-serif" font-size="14" font-weight="bold" lengthAdjust="spacing" textLength="43" x="20" y="42.7344">Views</text><!--MD5=[ed1d20ea533a2a0e7df5ba3c35e56ced]
cluster Controllers--><polygon fill="#FFFFFF" filter="url(#frt03lg4en5r9)" points="247,27.1992,334,27.1992,341,49.6875,685,49.6875,685,194.1992,247,194.1992,247,27.1992" style="stroke:#000000;stroke-width:1.5;"/><line style="stroke:#000000;stroke-width:1.5;" x1="247" x2="341" y1="49.6875" y2="49.6875"/><text fill="#000000" font-family="sans-serif" font-size="14" font-weight="bold" lengthAdjust="spacing" textLength="81" x="251" y="42.7344">Controllers</text><!--MD5=[027ebfd53c01aea08f474edbf35d0797]
cluster Models--><polygon fill="#FFFFFF" filter="url(#frt03lg4en5r9)" points="693,27.1992,751,27.1992,758,49.6875,1174,49.6875,1174,194.1992,693,194.1992,693,27.1992" style="stroke:#000000;stroke-width:1.5;"/><line style="stroke:#000000;stroke-width:1.5;" x1="693" x2="758" y1="49.6875" y2="49.6875"/><text fill="#000000" font-family="sans-serif" font-size="14" font-weight="bold" lengthAdjust="spacing" textLength="52" x="697" y="42.7344">Models</text><!--MD5=[c6ca95af67616d9b7b5f72956adc1c8e]
class DeckView--><rect codeLine="6" fill="#FEFECE" filter="url(#frt03lg4en5r9)" height="48" id="DeckView" style="stroke:#A80036;stroke-width:1.5;" width="88" x="24" y="54.1992"/><ellipse cx="39" cy="70.1992" fill="#ADD1B2" rx="11" ry="11" style="stroke:#A80036;stroke-width:1.0;"/><path d="M41.4731,76.3423 Q40.8921,76.6411 40.2529,76.7905 Q39.6138,76.9399 38.9082,76.9399 Q36.4014,76.9399 35.0815,75.2881 Q33.7617,73.6362 33.7617,70.5151 Q33.7617,67.3857 35.0815,65.7339 Q36.4014,64.082 38.9082,64.082 Q39.6138,64.082 40.2612,64.2314 Q40.9087,64.3809 41.4731,64.6797 L41.4731,67.4023 Q40.8423,66.8213 40.2488,66.5515 Q39.6553,66.2817 39.0244,66.2817 Q37.6797,66.2817 36.9949,67.3484 Q36.3101,68.415 36.3101,70.5151 Q36.3101,72.6069 36.9949,73.6736 Q37.6797,74.7402 39.0244,74.7402 Q39.6553,74.7402 40.2488,74.4705 Q40.8423,74.2007 41.4731,73.6196 Z " fill="#000000"/><text fill="#000000" font-family="sans-serif" font-size="12" lengthAdjust="spacing" textLength="56" x="53" y="74.7344">DeckView</text><line style="stroke:#A80036;stroke-width:1.5;" x1="25" x2="111" y1="86.1992" y2="86.1992"/><line style="stroke:#A80036;stroke-width:1.5;" x1="25" x2="111" y1="94.1992" y2="94.1992"/><!--MD5=[c0ed3c2faa98f17089402fed9230ed1e]
class StockView--><rect codeLine="7" fill="#FEFECE" filter="url(#frt03lg4en5r9)" height="48" id="StockView" style="stroke:#A80036;stroke-width:1.5;" width="89" x="130.5" y="54.1992"/><ellipse cx="145.5" cy="70.1992" fill="#ADD1B2" rx="11" ry="11" style="stroke:#A80036;stroke-width:1.0;"/><path d="M147.9731,76.3423 Q147.3921,76.6411 146.7529,76.7905 Q146.1138,76.9399 145.4082,76.9399 Q142.9014,76.9399 141.5815,75.2881 Q140.2617,73.6362 140.2617,70.5151 Q140.2617,67.3857 141.5815,65.7339 Q142.9014,64.082 145.4082,64.082 Q146.1138,64.082 146.7612,64.2314 Q147.4087,64.3809 147.9731,64.6797 L147.9731,67.4023 Q147.3423,66.8213 146.7488,66.5515 Q146.1553,66.2817 145.5244,66.2817 Q144.1797,66.2817 143.4949,67.3484 Q142.8101,68.415 142.8101,70.5151 Q142.8101,72.6069 143.4949,73.6736 Q144.1797,74.7402 145.5244,74.7402 Q146.1553,74.7402 146.7488,74.4705 Q147.3423,74.2007 147.9731,73.6196 Z " fill="#000000"/><text fill="#000000" font-family="sans-serif" font-size="12" lengthAdjust="spacing" textLength="57" x="159.5" y="74.7344">StockView</text><line style="stroke:#A80036;stroke-width:1.5;" x1="131.5" x2="218.5" y1="86.1992" y2="86.1992"/><line style="stroke:#A80036;stroke-width:1.5;" x1="131.5" x2="218.5" y1="94.1992" y2="94.1992"/><!--MD5=[cdff5bdf89a25a41e770b87ac92ad7cf]
class PilaView--><rect codeLine="8" fill="#FEFECE" filter="url(#frt03lg4en5r9)" height="48" id="PilaView" style="stroke:#A80036;stroke-width:1.5;" width="79" x="24.5" y="138.1992"/><ellipse cx="39.5" cy="154.1992" fill="#ADD1B2" rx="11" ry="11" style="stroke:#A80036;stroke-width:1.0;"/><path d="M41.9731,160.3423 Q41.3921,160.6411 40.7529,160.7905 Q40.1138,160.9399 39.4082,160.9399 Q36.9014,160.9399 35.5815,159.2881 Q34.2617,157.6362 34.2617,154.5151 Q34.2617,151.3857 35.5815,149.7339 Q36.9014,148.082 39.4082,148.082 Q40.1138,148.082 40.7612,148.2314 Q41.4087,148.3809 41.9731,148.6797 L41.9731,151.4023 Q41.3423,150.8213 40.7488,150.5515 Q40.1553,150.2817 39.5244,150.2817 Q38.1797,150.2817 37.4949,151.3484 Q36.8101,152.415 36.8101,154.5151 Q36.8101,156.6069 37.4949,157.6736 Q38.1797,158.7402 39.5244,158.7402 Q40.1553,158.7402 40.7488,158.4705 Q41.3423,158.2007 41.9731,157.6196 Z " fill="#000000"/><text fill="#000000" font-family="sans-serif" font-size="12" lengthAdjust="spacing" textLength="47" x="53.5" y="158.7344">PilaView</text><line style="stroke:#A80036;stroke-width:1.5;" x1="25.5" x2="102.5" y1="170.1992" y2="170.1992"/><line style="stroke:#A80036;stroke-width:1.5;" x1="25.5" x2="102.5" y1="178.1992" y2="178.1992"/><!--MD5=[9d7740dfef204d9f3d005722ed08e3fe]
class CimientoView--><rect codeLine="9" fill="#FEFECE" filter="url(#frt03lg4en5r9)" height="48" id="CimientoView" style="stroke:#A80036;stroke-width:1.5;" width="109" x="121.5" y="138.1992"/><ellipse cx="136.5" cy="154.1992" fill="#ADD1B2" rx="11" ry="11" style="stroke:#A80036;stroke-width:1.0;"/><path d="M138.9731,160.3423 Q138.3921,160.6411 137.7529,160.7905 Q137.1138,160.9399 136.4082,160.9399 Q133.9014,160.9399 132.5815,159.2881 Q131.2617,157.6362 131.2617,154.5151 Q131.2617,151.3857 132.5815,149.7339 Q133.9014,148.082 136.4082,148.082 Q137.1138,148.082 137.7612,148.2314 Q138.4087,148.3809 138.9731,148.6797 L138.9731,151.4023 Q138.3423,150.8213 137.7488,150.5515 Q137.1553,150.2817 136.5244,150.2817 Q135.1797,150.2817 134.4949,151.3484 Q133.8101,152.415 133.8101,154.5151 Q133.8101,156.6069 134.4949,157.6736 Q135.1797,158.7402 136.5244,158.7402 Q137.1553,158.7402 137.7488,158.4705 Q138.3423,158.2007 138.9731,157.6196 Z " fill="#000000"/><text fill="#000000" font-family="sans-serif" font-size="12" lengthAdjust="spacing" textLength="77" x="150.5" y="158.7344">CimientoView</text><line style="stroke:#A80036;stroke-width:1.5;" x1="122.5" x2="229.5" y1="170.1992" y2="170.1992"/><line style="stroke:#A80036;stroke-width:1.5;" x1="122.5" x2="229.5" y1="178.1992" y2="178.1992"/><!--MD5=[12d4b6476fb77632f41730bee3522cb1]
class ShuffleController--><rect codeLine="13" fill="#FEFECE" filter="url(#frt03lg4en5r9)" height="48" id="ShuffleController" style="stroke:#A80036;stroke-width:1.5;" width="126" x="255" y="54.1992"/><ellipse cx="270" cy="70.1992" fill="#ADD1B2" rx="11" ry="11" style="stroke:#A80036;stroke-width:1.0;"/><path d="M272.4731,76.3423 Q271.8921,76.6411 271.2529,76.7905 Q270.6138,76.9399 269.9082,76.9399 Q267.4014,76.9399 266.0815,75.2881 Q264.7617,73.6362 264.7617,70.5151 Q264.7617,67.3857 266.0815,65.7339 Q267.4014,64.082 269.9082,64.082 Q270.6138,64.082 271.2612,64.2314 Q271.9087,64.3809 272.4731,64.6797 L272.4731,67.4023 Q271.8423,66.8213 271.2488,66.5515 Q270.6553,66.2817 270.0244,66.2817 Q268.6797,66.2817 267.9949,67.3484 Q267.3101,68.415 267.3101,70.5151 Q267.3101,72.6069 267.9949,73.6736 Q268.6797,74.7402 270.0244,74.7402 Q270.6553,74.7402 271.2488,74.4705 Q271.8423,74.2007 272.4731,73.6196 Z " fill="#000000"/><text fill="#000000" font-family="sans-serif" font-size="12" lengthAdjust="spacing" textLength="94" x="284" y="74.7344">ShuffleController</text><line style="stroke:#A80036;stroke-width:1.5;" x1="256" x2="380" y1="86.1992" y2="86.1992"/><line style="stroke:#A80036;stroke-width:1.5;" x1="256" x2="380" y1="94.1992" y2="94.1992"/><!--MD5=[f63deb306b81743b6446f40ddff410ed]
class DealController--><rect codeLine="14" fill="#FEFECE" filter="url(#frt03lg4en5r9)" height="48" id="DealController" style="stroke:#A80036;stroke-width:1.5;" width="114" x="399" y="54.1992"/><ellipse cx="414" cy="70.1992" fill="#ADD1B2" rx="11" ry="11" style="stroke:#A80036;stroke-width:1.0;"/><path d="M416.4731,76.3423 Q415.8921,76.6411 415.2529,76.7905 Q414.6138,76.9399 413.9082,76.9399 Q411.4014,76.9399 410.0815,75.2881 Q408.7617,73.6362 408.7617,70.5151 Q408.7617,67.3857 410.0815,65.7339 Q411.4014,64.082 413.9082,64.082 Q414.6138,64.082 415.2612,64.2314 Q415.9087,64.3809 416.4731,64.6797 L416.4731,67.4023 Q415.8423,66.8213 415.2488,66.5515 Q414.6553,66.2817 414.0244,66.2817 Q412.6797,66.2817 411.9949,67.3484 Q411.3101,68.415 411.3101,70.5151 Q411.3101,72.6069 411.9949,73.6736 Q412.6797,74.7402 414.0244,74.7402 Q414.6553,74.7402 415.2488,74.4705 Q415.8423,74.2007 416.4731,73.6196 Z " fill="#000000"/><text fill="#000000" font-family="sans-serif" font-size="12" lengthAdjust="spacing" textLength="82" x="428" y="74.7344">DealController</text><line style="stroke:#A80036;stroke-width:1.5;" x1="400" x2="512" y1="86.1992" y2="86.1992"/><line style="stroke:#A80036;stroke-width:1.5;" x1="400" x2="512" y1="94.1992" y2="94.1992"/><!--MD5=[acc24afc00c716a80a5067d93fd90db4]
class MoveCardController--><rect codeLine="15" fill="#FEFECE" filter="url(#frt03lg4en5r9)" height="48" id="MoveCardController" style="stroke:#A80036;stroke-width:1.5;" width="146" x="531" y="54.1992"/><ellipse cx="546" cy="70.1992" fill="#ADD1B2" rx="11" ry="11" style="stroke:#A80036;stroke-width:1.0;"/><path d="M548.4731,76.3423 Q547.8921,76.6411 547.2529,76.7905 Q546.6138,76.9399 545.9082,76.9399 Q543.4014,76.9399 542.0815,75.2881 Q540.7617,73.6362 540.7617,70.5151 Q540.7617,67.3857 542.0815,65.7339 Q543.4014,64.082 545.9082,64.082 Q546.6138,64.082 547.2612,64.2314 Q547.9087,64.3809 548.4731,64.6797 L548.4731,67.4023 Q547.8423,66.8213 547.2488,66.5515 Q546.6553,66.2817 546.0244,66.2817 Q544.6797,66.2817 543.9949,67.3484 Q543.3101,68.415 543.3101,70.5151 Q543.3101,72.6069 543.9949,73.6736 Q544.6797,74.7402 546.0244,74.7402 Q546.6553,74.7402 547.2488,74.4705 Q547.8423,74.2007 548.4731,73.6196 Z " fill="#000000"/><text fill="#000000" font-family="sans-serif" font-size="12" lengthAdjust="spacing" textLength="114" x="560" y="74.7344">MoveCardController</text><line style="stroke:#A80036;stroke-width:1.5;" x1="532" x2="676" y1="86.1992" y2="86.1992"/><line style="stroke:#A80036;stroke-width:1.5;" x1="532" x2="676" y1="94.1992" y2="94.1992"/><!--MD5=[484b329655c0dc250c6d0ad21bd61169]
class MovePileController--><rect codeLine="16" fill="#FEFECE" filter="url(#frt03lg4en5r9)" height="48" id="MovePileController" style="stroke:#A80036;stroke-width:1.5;" width="138" x="255" y="138.1992"/><ellipse cx="270" cy="154.1992" fill="#ADD1B2" rx="11" ry="11" style="stroke:#A80036;stroke-width:1.0;"/><path d="M272.4731,160.3423 Q271.8921,160.6411 271.2529,160.7905 Q270.6138,160.9399 269.9082,160.9399 Q267.4014,160.9399 266.0815,159.2881 Q264.7617,157.6362 264.7617,154.5151 Q264.7617,151.3857 266.0815,149.7339 Q267.4014,148.082 269.9082,148.082 Q270.6138,148.082 271.2612,148.2314 Q271.9087,148.3809 272.4731,148.6797 L272.4731,151.4023 Q271.8423,150.8213 271.2488,150.5515 Q270.6553,150.2817 270.0244,150.2817 Q268.6797,150.2817 267.9949,151.3484 Q267.3101,152.415 267.3101,154.5151 Q267.3101,156.6069 267.9949,157.6736 Q268.6797,158.7402 270.0244,158.7402 Q270.6553,158.7402 271.2488,158.4705 Q271.8423,158.2007 272.4731,157.6196 Z " fill="#000000"/><text fill="#000000" font-family="sans-serif" font-size="12" lengthAdjust="spacing" textLength="106" x="284" y="158.7344">MovePileController</text><line style="stroke:#A80036;stroke-width:1.5;" x1="256" x2="392" y1="170.1992" y2="170.1992"/><line style="stroke:#A80036;stroke-width:1.5;" x1="256" x2="392" y1="178.1992" y2="178.1992"/><!--MD5=[8ac7c2d83f33accfe92b31c290c42b38]
class ResetDeckController--><rect codeLine="17" fill="#FEFECE" filter="url(#frt03lg4en5r9)" height="48" id="ResetDeckController" style="stroke:#A80036;stroke-width:1.5;" width="149" x="411.5" y="138.1992"/><ellipse cx="426.5" cy="154.1992" fill="#ADD1B2" rx="11" ry="11" style="stroke:#A80036;stroke-width:1.0;"/><path d="M428.9731,160.3423 Q428.3921,160.6411 427.7529,160.7905 Q427.1138,160.9399 426.4082,160.9399 Q423.9014,160.9399 422.5815,159.2881 Q421.2617,157.6362 421.2617,154.5151 Q421.2617,151.3857 422.5815,149.7339 Q423.9014,148.082 426.4082,148.082 Q427.1138,148.082 427.7612,148.2314 Q428.4087,148.3809 428.9731,148.6797 L428.9731,151.4023 Q428.3423,150.8213 427.7488,150.5515 Q427.1553,150.2817 426.5244,150.2817 Q425.1797,150.2817 424.4949,151.3484 Q423.8101,152.415 423.8101,154.5151 Q423.8101,156.6069 424.4949,157.6736 Q425.1797,158.7402 426.5244,158.7402 Q427.1553,158.7402 427.7488,158.4705 Q428.3423,158.2007 428.9731,157.6196 Z " fill="#000000"/><text fill="#000000" font-family="sans-serif" font-size="12" lengthAdjust="spacing" textLength="117" x="440.5" y="158.7344">ResetDeckController</text><line style="stroke:#A80036;stroke-width:1.5;" x1="412.5" x2="559.5" y1="170.1992" y2="170.1992"/><line style="stroke:#A80036;stroke-width:1.5;" x1="412.5" x2="559.5" y1="178.1992" y2="178.1992"/><!--MD5=[d63f0e2cff0a030c2b832dd7cdde9bf8]
class StackModel--><rect codeLine="21" fill="#FEFECE" filter="url(#frt03lg4en5r9)" height="48" id="StackModel" style="stroke:#A80036;stroke-width:1.5;" width="97" x="955.5" y="54.1992"/><ellipse cx="970.5" cy="70.1992" fill="#ADD1B2" rx="11" ry="11" style="stroke:#A80036;stroke-width:1.0;"/><path d="M972.9731,76.3423 Q972.3921,76.6411 971.7529,76.7905 Q971.1138,76.9399 970.4082,76.9399 Q967.9014,76.9399 966.5815,75.2881 Q965.2617,73.6362 965.2617,70.5151 Q965.2617,67.3857 966.5815,65.7339 Q967.9014,64.082 970.4082,64.082 Q971.1138,64.082 971.7612,64.2314 Q972.4087,64.3809 972.9731,64.6797 L972.9731,67.4023 Q972.3423,66.8213 971.7488,66.5515 Q971.1553,66.2817 970.5244,66.2817 Q969.1797,66.2817 968.4949,67.3484 Q967.8101,68.415 967.8101,70.5151 Q967.8101,72.6069 968.4949,73.6736 Q969.1797,74.7402 970.5244,74.7402 Q971.1553,74.7402 971.7488,74.4705 Q972.3423,74.2007 972.9731,73.6196 Z " fill="#000000"/><text fill="#000000" font-family="sans-serif" font-size="12" lengthAdjust="spacing" textLength="65" x="984.5" y="74.7344">StackModel</text><line style="stroke:#A80036;stroke-width:1.5;" x1="956.5" x2="1051.5" y1="86.1992" y2="86.1992"/><line style="stroke:#A80036;stroke-width:1.5;" x1="956.5" x2="1051.5" y1="94.1992" y2="94.1992"/><!--MD5=[01632ccb838a58e988d8c5c49aed9151]
class CardModel--><rect codeLine="22" fill="#FEFECE" filter="url(#frt03lg4en5r9)" height="48" id="CardModel" style="stroke:#A80036;stroke-width:1.5;" width="95" x="839.5" y="54.1992"/><ellipse cx="854.5" cy="70.1992" fill="#ADD1B2" rx="11" ry="11" style="stroke:#A80036;stroke-width:1.0;"/><path d="M856.9731,76.3423 Q856.3921,76.6411 855.7529,76.7905 Q855.1138,76.9399 854.4082,76.9399 Q851.9014,76.9399 850.5815,75.2881 Q849.2617,73.6362 849.2617,70.5151 Q849.2617,67.3857 850.5815,65.7339 Q851.9014,64.082 854.4082,64.082 Q855.1138,64.082 855.7612,64.2314 Q856.4087,64.3809 856.9731,64.6797 L856.9731,67.4023 Q856.3423,66.8213 855.7488,66.5515 Q855.1553,66.2817 854.5244,66.2817 Q853.1797,66.2817 852.4949,67.3484 Q851.8101,68.415 851.8101,70.5151 Q851.8101,72.6069 852.4949,73.6736 Q853.1797,74.7402 854.5244,74.7402 Q855.1553,74.7402 855.7488,74.4705 Q856.3423,74.2007 856.9731,73.6196 Z " fill="#000000"/><text fill="#000000" font-family="sans-serif" font-size="12" lengthAdjust="spacing" textLength="63" x="868.5" y="74.7344">CardModel</text><line style="stroke:#A80036;stroke-width:1.5;" x1="840.5" x2="933.5" y1="86.1992" y2="86.1992"/><line style="stroke:#A80036;stroke-width:1.5;" x1="840.5" x2="933.5" y1="94.1992" y2="94.1992"/><!--MD5=[1e72b3cc921a55cc927271cbd5918086]
class PlayerModel--><rect codeLine="23" fill="#FEFECE" filter="url(#frt03lg4en5r9)" height="48" id="PlayerModel" style="stroke:#A80036;stroke-width:1.5;" width="102" x="713" y="54.1992"/><ellipse cx="728" cy="70.1992" fill="#ADD1B2" rx="11" ry="11" style="stroke:#A80036;stroke-width:1.0;"/><path d="M730.4731,76.3423 Q729.8921,76.6411 729.2529,76.7905 Q728.6138,76.9399 727.9082,76.9399 Q725.4014,76.9399 724.0815,75.2881 Q722.7617,73.6362 722.7617,70.5151 Q722.7617,67.3857 724.0815,65.7339 Q725.4014,64.082 727.9082,64.082 Q728.6138,64.082 729.2612,64.2314 Q729.9087,64.3809 730.4731,64.6797 L730.4731,67.4023 Q729.8423,66.8213 729.2488,66.5515 Q728.6553,66.2817 728.0244,66.2817 Q726.6797,66.2817 725.9949,67.3484 Q725.3101,68.415 725.3101,70.5151 Q725.3101,72.6069 725.9949,73.6736 Q726.6797,74.7402 728.0244,74.7402 Q728.6553,74.7402 729.2488,74.4705 Q729.8423,74.2007 730.4731,73.6196 Z " fill="#000000"/><text fill="#000000" font-family="sans-serif" font-size="12" lengthAdjust="spacing" textLength="70" x="742" y="74.7344">PlayerModel</text><line style="stroke:#A80036;stroke-width:1.5;" x1="714" x2="814" y1="86.1992" y2="86.1992"/><line style="stroke:#A80036;stroke-width:1.5;" x1="714" x2="814" y1="94.1992" y2="94.1992"/><!--MD5=[ed35aacb689a128fbc8d2b3327797b77]
class DeckModel--><rect codeLine="24" fill="#FEFECE" filter="url(#frt03lg4en5r9)" height="48" id="DeckModel" style="stroke:#A80036;stroke-width:1.5;" width="96" x="701" y="138.1992"/><ellipse cx="716" cy="154.1992" fill="#ADD1B2" rx="11" ry="11" style="stroke:#A80036;stroke-width:1.0;"/><path d="M718.4731,160.3423 Q717.8921,160.6411 717.2529,160.7905 Q716.6138,160.9399 715.9082,160.9399 Q713.4014,160.9399 712.0815,159.2881 Q710.7617,157.6362 710.7617,154.5151 Q710.7617,151.3857 712.0815,149.7339 Q713.4014,148.082 715.9082,148.082 Q716.6138,148.082 717.2612,148.2314 Q717.9087,148.3809 718.4731,148.6797 L718.4731,151.4023 Q717.8423,150.8213 717.2488,150.5515 Q716.6553,150.2817 716.0244,150.2817 Q714.6797,150.2817 713.9949,151.3484 Q713.3101,152.415 713.3101,154.5151 Q713.3101,156.6069 713.9949,157.6736 Q714.6797,158.7402 716.0244,158.7402 Q716.6553,158.7402 717.2488,158.4705 Q717.8423,158.2007 718.4731,157.6196 Z " fill="#000000"/><text fill="#000000" font-family="sans-serif" font-size="12" lengthAdjust="spacing" textLength="64" x="730" y="158.7344">DeckModel</text><line style="stroke:#A80036;stroke-width:1.5;" x1="702" x2="796" y1="170.1992" y2="170.1992"/><line style="stroke:#A80036;stroke-width:1.5;" x1="702" x2="796" y1="178.1992" y2="178.1992"/><!--MD5=[66fbf4a293e9439a47b162be5edd7b1d]
class FoundationModel--><rect codeLine="25" fill="#FEFECE" filter="url(#frt03lg4en5r9)" height="48" id="FoundationModel" style="stroke:#A80036;stroke-width:1.5;" width="130" x="815" y="138.1992"/><ellipse cx="830" cy="154.1992" fill="#ADD1B2" rx="11" ry="11" style="stroke:#A80036;stroke-width:1.0;"/><path d="M832.4731,160.3423 Q831.8921,160.6411 831.2529,160.7905 Q830.6138,160.9399 829.9082,160.9399 Q827.4014,160.9399 826.0815,159.2881 Q824.7617,157.6362 824.7617,154.5151 Q824.7617,151.3857 826.0815,149.7339 Q827.4014,148.082 829.9082,148.082 Q830.6138,148.082 831.2612,148.2314 Q831.9087,148.3809 832.4731,148.6797 L832.4731,151.4023 Q831.8423,150.8213 831.2488,150.5515 Q830.6553,150.2817 830.0244,150.2817 Q828.6797,150.2817 827.9949,151.3484 Q827.3101,152.415 827.3101,154.5151 Q827.3101,156.6069 827.9949,157.6736 Q828.6797,158.7402 830.0244,158.7402 Q830.6553,158.7402 831.2488,158.4705 Q831.8423,158.2007 832.4731,157.6196 Z " fill="#000000"/><text fill="#000000" font-family="sans-serif" font-size="12" lengthAdjust="spacing" textLength="98" x="844" y="158.7344">FoundationModel</text><line style="stroke:#A80036;stroke-width:1.5;" x1="816" x2="944" y1="170.1992" y2="170.1992"/><line style="stroke:#A80036;stroke-width:1.5;" x1="816" x2="944" y1="178.1992" y2="178.1992"/><!--MD5=[0c3d5d4b7b69caac30c25735c73fa698]
class PileModel--><rect codeLine="26" fill="#FEFECE" filter="url(#frt03lg4en5r9)" height="48" id="PileModel" style="stroke:#A80036;stroke-width:1.5;" width="87" x="963.5" y="138.1992"/><ellipse cx="978.5" cy="154.1992" fill="#ADD1B2" rx="11" ry="11" style="stroke:#A80036;stroke-width:1.0;"/><path d="M980.9731,160.3423 Q980.3921,160.6411 979.7529,160.7905 Q979.1138,160.9399 978.4082,160.9399 Q975.9014,160.9399 974.5815,159.2881 Q973.2617,157.6362 973.2617,154.5151 Q973.2617,151.3857 974.5815,149.7339 Q975.9014,148.082 978.4082,148.082 Q979.1138,148.082 979.7612,148.2314 Q980.4087,148.3809 980.9731,148.6797 L980.9731,151.4023 Q980.3423,150.8213 979.7488,150.5515 Q979.1553,150.2817 978.5244,150.2817 Q977.1797,150.2817 976.4949,151.3484 Q975.8101,152.415 975.8101,154.5151 Q975.8101,156.6069 976.4949,157.6736 Q977.1797,158.7402 978.5244,158.7402 Q979.1553,158.7402 979.7488,158.4705 Q980.3423,158.2007 980.9731,157.6196 Z " fill="#000000"/><text fill="#000000" font-family="sans-serif" font-size="12" lengthAdjust="spacing" textLength="55" x="992.5" y="158.7344">PileModel</text><line style="stroke:#A80036;stroke-width:1.5;" x1="964.5" x2="1049.5" y1="170.1992" y2="170.1992"/><line style="stroke:#A80036;stroke-width:1.5;" x1="964.5" x2="1049.5" y1="178.1992" y2="178.1992"/><!--MD5=[c731506322bf6c3e4a248bceaddd3e44]
class StockModel--><rect codeLine="27" fill="#FEFECE" filter="url(#frt03lg4en5r9)" height="48" id="StockModel" style="stroke:#A80036;stroke-width:1.5;" width="97" x="1068.5" y="138.1992"/><ellipse cx="1083.5" cy="154.1992" fill="#ADD1B2" rx="11" ry="11" style="stroke:#A80036;stroke-width:1.0;"/><path d="M1085.9731,160.3423 Q1085.3921,160.6411 1084.7529,160.7905 Q1084.1138,160.9399 1083.4082,160.9399 Q1080.9014,160.9399 1079.5815,159.2881 Q1078.2617,157.6362 1078.2617,154.5151 Q1078.2617,151.3857 1079.5815,149.7339 Q1080.9014,148.082 1083.4082,148.082 Q1084.1138,148.082 1084.7612,148.2314 Q1085.4087,148.3809 1085.9731,148.6797 L1085.9731,151.4023 Q1085.3423,150.8213 1084.7488,150.5515 Q1084.1553,150.2817 1083.5244,150.2817 Q1082.1797,150.2817 1081.4949,151.3484 Q1080.8101,152.415 1080.8101,154.5151 Q1080.8101,156.6069 1081.4949,157.6736 Q1082.1797,158.7402 1083.5244,158.7402 Q1084.1553,158.7402 1084.7488,158.4705 Q1085.3423,158.2007 1085.9731,157.6196 Z " fill="#000000"/><text fill="#000000" font-family="sans-serif" font-size="12" lengthAdjust="spacing" textLength="65" x="1097.5" y="158.7344">StockModel</text><line style="stroke:#A80036;stroke-width:1.5;" x1="1069.5" x2="1164.5" y1="170.1992" y2="170.1992"/><line style="stroke:#A80036;stroke-width:1.5;" x1="1069.5" x2="1164.5" y1="178.1992" y2="178.1992"/><path d="M955.2136,98.1029 C951.1003,99.5415 946.9896,100.9267 943,102.1992 C883.0212,121.3304 865.7552,118.3807 806,138.1992 C803.0627,139.1734 800.0595,140.222 797.0429,141.3157 " fill="none" style="stroke:#A80036;stroke-width:1.0;"/><polygon fill="#FFFFFF" points="955.2136,98.1029,938.1298,97.7215,942.0915,109.0487,955.2136,98.1029" style="stroke:#A80036;stroke-width:1.0;"/><path d="M969.1291,102.259 C952.2237,113.4384 931.9663,126.8344 915.0388,138.0284 " fill="none" style="stroke:#A80036;stroke-width:1.0;"/><polygon fill="#FFFFFF" points="969.1291,102.259,952.4737,106.0798,959.0928,116.0892,969.1291,102.259" style="stroke:#A80036;stroke-width:1.0;"/><path d="M1004.8517,102.4778 C1005.2605,113.6522 1005.7489,127.0014 1006.1566,138.1463 " fill="none" style="stroke:#A80036;stroke-width:1.0;"/><polygon fill="#FFFFFF" points="1004.8517,102.4778,999.4406,118.6865,1011.4326,118.2477,1004.8517,102.4778" style="stroke:#A80036;stroke-width:1.0;"/><path d="M1035.7775,102.259 C1051.1832,113.4384 1069.6436,126.8344 1085.0695,138.0284 " fill="none" style="stroke:#A80036;stroke-width:1.0;"/><polygon fill="#FFFFFF" points="1035.7775,102.259,1045.2033,116.5123,1052.2511,106.8,1035.7775,102.259" style="stroke:#A80036;stroke-width:1.0;"/><!--MD5=[1d812b65285b51ec1a68d8d31e77cd9b]
@startuml ArquitecturaMVC
!pragma layout smetana
title Paquetes MVC
top to bottom direction
' left to right direction
package Views {
    class DeckView
    class StockView
    class PilaView
    class CimientoView
}
top to bottom direction
package Controllers {
    class ShuffleController
    class DealController
    class MoveCardController
    class MovePileController
    class ResetDeckController
}
top to bottom direction
package Models {
    class StackModel
    class CardModel
    class PlayerModel
    class DeckModel
    class FoundationModel
    class PileModel
    class StockModel
    StackModel <|-down- DeckModel
    StackModel <|-down- FoundationModel
    StackModel <|-down- PileModel
    StackModel <|-down- StockModel
}
 
@enduml 

@startuml ArquitecturaMVC
!pragma layout smetana
title Paquetes MVC
top to bottom direction
package Views {
    class DeckView
    class StockView
    class PilaView
    class CimientoView
}
top to bottom direction
package Controllers {
    class ShuffleController
    class DealController
    class MoveCardController
    class MovePileController
    class ResetDeckController
}
top to bottom direction
package Models {
    class StackModel
    class CardModel
    class PlayerModel
    class DeckModel
    class FoundationModel
    class PileModel
    class StockModel
    StackModel <|-down- DeckModel
    StackModel <|-down- FoundationModel
    StackModel <|-down- PileModel
    StackModel <|-down- StockModel
}
 
@enduml 

PlantUML version 1.2022.0(Tue Jan 11 11:16:42 ECT 2022)
(GPL source distribution)
Java Runtime: OpenJDK Runtime Environment
JVM: OpenJDK 64-Bit Server VM
Default Encoding: UTF-8
Language: es
Country: EC
--></g></svg>