<?xml version="1.0" encoding="UTF-8" standalone="no"?><svg xmlns="http://www.w3.org/2000/svg" xmlns:xlink="http://www.w3.org/1999/xlink" contentStyleType="text/css" height="495px" preserveAspectRatio="none" style="width:411px;height:495px;background:#FFFFFF;" version="1.1" viewBox="0 0 411 495" width="411px" zoomAndPan="magnify"><defs/><g><rect height="26.4883" style="stroke:#00000000;stroke-width:1.0;fill:none;" width="393" x="5" y="5"/><text fill="#000000" font-family="sans-serif" font-size="14" font-weight="bold" lengthAdjust="spacing" textLength="383" x="10" y="23.5352">Klondike  - WasteToStockMove - User Case Diagram</text><g id="IN_GAME"><rect fill="#F1F1F1" height="50" rx="12.5" ry="12.5" style="stroke:#181818;stroke-width:0.5;" width="81" x="126.5" y="99.4883"/><line style="stroke:#181818;stroke-width:0.5;" x1="126.5" x2="207.5" y1="125.9766" y2="125.9766"/><text fill="#000000" font-family="sans-serif" font-size="14" lengthAdjust="spacing" textLength="61" x="136.5" y="118.0234">IN_GAME</text></g><g id="CARDS_IN_WASTE"><rect fill="#F1F1F1" height="50" rx="12.5" ry="12.5" style="stroke:#181818;stroke-width:0.5;" width="142" x="96" y="202.4883"/><line style="stroke:#181818;stroke-width:0.5;" x1="96" x2="238" y1="228.9766" y2="228.9766"/><text fill="#000000" font-family="sans-serif" font-size="14" lengthAdjust="spacing" textLength="122" x="106" y="221.0234">CARDS_IN_WASTE</text></g><g id="elem_if"><polygon fill="#F1F1F1" points="167,305.4883,179,317.4883,167,329.4883,155,317.4883,167,305.4883" style="stroke:#181818;stroke-width:0.5;"/></g><g id="CARDS_IN_STOCK"><rect fill="#F1F1F1" height="50" rx="12.5" ry="12.5" style="stroke:#181818;stroke-width:0.5;" width="142" x="43" y="382.4883"/><line style="stroke:#181818;stroke-width:0.5;" x1="43" x2="185" y1="408.9766" y2="408.9766"/><text fill="#000000" font-family="sans-serif" font-size="14" lengthAdjust="spacing" textLength="122" x="53" y="401.0234">CARDS_IN_STOCK</text></g><ellipse cx="167" cy="48.4883" fill="#222222" rx="10" ry="10" style="stroke:none;stroke-width:1.0;"/><ellipse cx="199" cy="479.4883" fill="none" rx="10" ry="10" style="stroke:#222222;stroke-width:1.0;"/><ellipse cx="199.5" cy="479.9883" fill="#222222" rx="6" ry="6" style="stroke:none;stroke-width:1.0;"/><path d="M167,62.7383 C167,72.4678 167,86.872 167,99.2127 " fill="none" style="stroke:#181818;stroke-width:1.0;"/><polygon fill="#181818" points="167,99.2127,171,90.2127,167,94.2127,163,90.2127,167,99.2127" style="stroke:#181818;stroke-width:1.0;"/><path d="M167,149.6803 C167,165.554 167,186.2392 167,202.1436 " fill="none" style="stroke:#181818;stroke-width:1.0;"/><polygon fill="#181818" points="167,202.1436,171,193.1436,167,197.1436,163,193.1436,167,202.1436" style="stroke:#181818;stroke-width:1.0;"/><text fill="#000000" font-family="sans-serif" font-size="13" lengthAdjust="spacing" textLength="205" x="168" y="181.0566">PlayerRequireMoveWasteToStock</text><path d="M167,252.5347 C167,269.6334 167,291.8326 167,305.074 " fill="none" style="stroke:#181818;stroke-width:1.0;"/><polygon fill="#181818" points="167,305.074,171,296.074,167,300.074,163,296.074,167,305.074" style="stroke:#181818;stroke-width:1.0;"/><text fill="#000000" font-family="sans-serif" font-size="13" lengthAdjust="spacing" textLength="93" x="168" y="284.0566">[isStockEmpty]</text><path d="M154.8764,319.6929 C138.9228,322.0021 111.4514,328.6416 99,347.4883 C92.1837,357.8056 94.7311,371.016 99.5069,382.32 " fill="none" style="stroke:#181818;stroke-width:1.0;"/><polygon fill="#181818" points="99.5069,382.32,99.6889,372.4728,97.561,377.7142,92.3196,375.5863,99.5069,382.32" style="stroke:#181818;stroke-width:1.0;"/><text fill="#000000" font-family="sans-serif" font-size="13" lengthAdjust="spacing" textLength="121" x="100" y="361.0566">WasteToStockMove</text><path d="M179.1818,321.0317 C192.3662,324.5061 212.7444,332.1446 222,347.4883 C245.9653,387.2171 219.1005,445.0517 205.6973,469.2188 " fill="none" style="stroke:#181818;stroke-width:1.0;"/><polygon fill="#181818" points="205.6973,469.2188,213.5604,463.2882,208.1223,464.8462,206.5644,459.4081,205.6973,469.2188" style="stroke:#181818;stroke-width:1.0;"/><text fill="#000000" font-family="sans-serif" font-size="13" lengthAdjust="spacing" textLength="135" x="232" y="412.5566">TryAnotherMovement</text><path d="M142.7771,432.8642 C158.767,446.4086 177.6601,462.4122 188.968,471.9906 " fill="none" style="stroke:#181818;stroke-width:1.0;"/><polygon fill="#181818" points="188.968,471.9906,184.686,463.1213,185.1528,468.7589,179.5153,469.2257,188.968,471.9906" style="stroke:#181818;stroke-width:1.0;"/><!--MD5=[0e85388c60401c0e6a959694c4950728]
@startuml UCWasteToStockMove
!pragma layout smetana
title Klondike  - WasteToStockMove - User Case Diagram

state IN_GAME
state CARDS_IN_WASTE
state if <<choice>>
state CARDS_IN_STOCK

[*] - -> IN_GAME
IN_GAME - -> CARDS_IN_WASTE: PlayerRequireMoveWasteToStock
CARDS_IN_WASTE - -> if: [isStockEmpty]
if - -> CARDS_IN_STOCK: WasteToStockMove
if - -> [*]: TryAnotherMovement
CARDS_IN_STOCK - -> [*]

@enduml

PlantUML version 1.2022.5(Sat Apr 30 05:55:52 ECT 2022)
(GPL source distribution)
Java Runtime: OpenJDK Runtime Environment
JVM: OpenJDK 64-Bit Server VM
Default Encoding: UTF-8
Language: es
Country: EC
--></g></svg>