<?xml version="1.0" encoding="UTF-8" standalone="no"?><svg xmlns="http://www.w3.org/2000/svg" xmlns:xlink="http://www.w3.org/1999/xlink" contentScriptType="application/ecmascript" contentStyleType="text/css" height="568px" preserveAspectRatio="none" style="width:537px;height:568px;background:#FFFFFF;" version="1.1" viewBox="0 0 537 568" width="537px" zoomAndPan="magnify"><defs><filter height="300%" id="fj766ekjcpsis" width="300%" x="-1" y="-1"><feGaussianBlur result="blurOut" stdDeviation="2.0"/><feColorMatrix in="blurOut" result="blurOut2" type="matrix" values="0 0 0 0 0 0 0 0 0 0 0 0 0 0 0 0 0 0 .4 0"/><feOffset dx="4.0" dy="4.0" in="blurOut2" result="blurOut3"/><feBlend in="SourceGraphic" in2="blurOut3" mode="normal"/></filter></defs><g><text fill="#000000" font-family="sans-serif" font-size="18" lengthAdjust="spacing" textLength="528" x="2" y="17.4023">Klondike  - Case of Use Diagram - UseCaseWasteToPileMove</text><g id="IN_GAME"><rect fill="#FEFECE" filter="url(#fj766ekjcpsis)" height="50" rx="12.5" ry="12.5" style="stroke:#A80036;stroke-width:1.5;" width="81" x="170.173" y="89.1992"/><line style="stroke:#A80036;stroke-width:1.5;" x1="170.173" x2="251.173" y1="115.6875" y2="115.6875"/><text fill="#000000" font-family="sans-serif" font-size="14" lengthAdjust="spacing" textLength="61" x="180.173" y="107.7344">IN_GAME</text></g><g id="CARD_SELECTED"><rect fill="#FEFECE" filter="url(#fj766ekjcpsis)" height="50" rx="12.5" ry="12.5" style="stroke:#A80036;stroke-width:1.5;" width="134" x="143.673" y="192.1992"/><line style="stroke:#A80036;stroke-width:1.5;" x1="143.673" x2="277.673" y1="218.6875" y2="218.6875"/><text fill="#000000" font-family="sans-serif" font-size="14" lengthAdjust="spacing" textLength="114" x="153.673" y="210.7344">CARD_SELECTED</text></g><polygon fill="#FEFECE" filter="url(#fj766ekjcpsis)" points="210.673,295.1992,222.673,307.1992,210.673,319.1992,198.673,307.1992,210.673,295.1992" style="stroke:#A80036;stroke-width:1.5;"/><polygon fill="#FEFECE" filter="url(#fj766ekjcpsis)" points="81.673,372.1992,93.673,384.1992,81.673,396.1992,69.673,384.1992,81.673,372.1992" style="stroke:#A80036;stroke-width:1.5;"/><g id="CardToPile"><rect fill="#FEFECE" filter="url(#fj766ekjcpsis)" height="50" rx="12.5" ry="12.5" style="stroke:#A80036;stroke-width:1.5;" width="95" x="110.173" y="449.1992"/><line style="stroke:#A80036;stroke-width:1.5;" x1="110.173" x2="205.173" y1="475.6875" y2="475.6875"/><text fill="#000000" font-family="sans-serif" font-size="14" lengthAdjust="spacing" textLength="75" x="120.173" y="467.7344">CardToPile</text></g><ellipse cx="210.673" cy="38.1992" fill="#000000" filter="url(#fj766ekjcpsis)" rx="10" ry="10" style="stroke:none;stroke-width:1.0;"/><ellipse cx="106.673" cy="546.1992" filter="url(#fj766ekjcpsis)" rx="10" ry="10" style="stroke:#000000;stroke-width:1.0;fill:none;"/><ellipse cx="107.173" cy="546.6992" fill="#000000" rx="6" ry="6" style="stroke:none;stroke-width:1.0;"/><path d="M210.673,52.4492 C210.673,62.1787 210.673,76.5829 210.673,88.9237 " fill="none" style="stroke:#A80036;stroke-width:1.0;"/><polygon fill="#A80036" points="210.673,88.9237,214.673,79.9237,210.673,83.9237,206.673,79.9237,210.673,88.9237" style="stroke:#A80036;stroke-width:1.0;"/><path d="M210.673,139.3912 C210.673,155.265 210.673,175.9501 210.673,191.8546 " fill="none" style="stroke:#A80036;stroke-width:1.0;"/><polygon fill="#A80036" points="210.673,191.8546,214.673,182.8546,210.673,186.8546,206.673,182.8546,210.673,191.8546" style="stroke:#A80036;stroke-width:1.0;"/><text fill="#000000" font-family="sans-serif" font-size="13" lengthAdjust="spacing" textLength="136" x="211.673" y="170.7676">Take card from Waste</text><path d="M210.673,242.2456 C210.673,259.3443 210.673,281.5435 210.673,294.785 " fill="none" style="stroke:#A80036;stroke-width:1.0;"/><polygon fill="#A80036" points="210.673,294.785,214.673,285.785,210.673,289.785,206.673,285.785,210.673,294.785" style="stroke:#A80036;stroke-width:1.0;"/><text fill="#000000" font-family="sans-serif" font-size="13" lengthAdjust="spacing" textLength="168" x="211.673" y="273.7676">[is"K"AndSomePileIsEmpty]</text><path d="M198.5072,308.4062 C163.7605,309.2794 65.3096,313.8103 45.673,337.1992 C34.327,350.7132 55.0356,367.1075 69.4661,376.2235 " fill="none" style="stroke:#A80036;stroke-width:1.0;"/><polygon fill="#A80036" points="69.4661,376.2235,63.9935,368.0351,65.2389,373.5531,59.7209,374.7986,69.4661,376.2235" style="stroke:#A80036;stroke-width:1.0;"/><text fill="#000000" font-family="sans-serif" font-size="13" lengthAdjust="spacing" textLength="316" x="46.673" y="350.7676">[isPreviousNumberAndDiferentColorInAnotherPile]</text><path d="M222.901,308.5917 C255.9434,309.9345 345.7379,315.5453 363.673,337.1992 C368.4925,343.018 365.8187,346.9548 363.673,354.1992 C352.0847,393.3234 346.6695,407.1947 313.673,431.1992 C281.9197,454.2993 238.2413,464.6947 205.1774,469.3726 " fill="none" style="stroke:#A80036;stroke-width:1.0;"/><polygon fill="#A80036" points="205.1774,469.3726,214.649,472.0724,210.1281,468.6722,213.5283,464.1513,205.1774,469.3726" style="stroke:#A80036;stroke-width:1.0;"/><text fill="#000000" font-family="sans-serif" font-size="13" lengthAdjust="spacing" textLength="150" x="358.673" y="389.2676">MoveCardToAnotherPile</text><path d="M91.2984,396.3445 C102.6421,409.4792 121.8234,431.6892 136.6572,448.8652 " fill="none" style="stroke:#A80036;stroke-width:1.0;"/><polygon fill="#A80036" points="136.6572,448.8652,133.802,439.4393,133.3891,445.0811,127.7474,444.6683,136.6572,448.8652" style="stroke:#A80036;stroke-width:1.0;"/><text fill="#000000" font-family="sans-serif" font-size="13" lengthAdjust="spacing" textLength="188" x="120.673" y="427.7676">MoveCardToEmptyFoundation</text><path d="M83.3913,396.3341 C87.9584,425.929 100.3618,506.3026 104.9426,535.9864 " fill="none" style="stroke:#A80036;stroke-width:1.0;"/><polygon fill="#A80036" points="104.9426,535.9864,107.5232,526.4816,104.18,531.0449,99.6168,527.7017,104.9426,535.9864" style="stroke:#A80036;stroke-width:1.0;"/><path d="M140.4067,499.5751 C131.6219,511.9772 121.3766,526.4412 114.5021,536.1463 " fill="none" style="stroke:#A80036;stroke-width:1.0;"/><polygon fill="#A80036" points="114.5021,536.1463,122.9684,531.1142,117.3922,532.0662,116.4402,526.49,114.5021,536.1463" style="stroke:#A80036;stroke-width:1.0;"/><!--MD5=[c2ff22ba8377948d4ca72a0138626d73]
@startuml UseCaseWasteToPileMove
!pragma layout smetana
title Klondike  - Case of Use Diagram - UseCaseWasteToPileMove


state IN_GAME
state CARD_SELECTED
state if <<choice>>
state if2 <<choice>>

state CardToPile

[*] - -> IN_GAME
IN_GAME - -> CARD_SELECTED: Take card from Waste
CARD_SELECTED - -> if: [is"K"AndSomePileIsEmpty]
if - -> if2:[isPreviousNumberAndDiferentColorInAnotherPile]
if - -> CardToPile: MoveCardToAnotherPile
if2 - -> CardToPile: MoveCardToEmptyFoundation
if2 - -> [*]

CardToPile- -> [*]

@enduml

PlantUML version 1.2022.0(Tue Jan 11 11:16:42 ECT 2022)
(GPL source distribution)
Java Runtime: OpenJDK Runtime Environment
JVM: OpenJDK 64-Bit Server VM
Default Encoding: UTF-8
Language: es
Country: EC
--></g></svg>