<?xml version="1.0" encoding="UTF-8" standalone="no"?><svg xmlns="http://www.w3.org/2000/svg" xmlns:xlink="http://www.w3.org/1999/xlink" contentScriptType="application/ecmascript" contentStyleType="text/css" height="377px" preserveAspectRatio="none" style="width:351px;height:377px;background:#FFFFFF;" version="1.1" viewBox="0 0 351 377" width="351px" zoomAndPan="magnify"><defs><filter height="300%" id="fv4m9gwlv7jc5" width="300%" x="-1" y="-1"><feGaussianBlur result="blurOut" stdDeviation="2.0"/><feColorMatrix in="blurOut" result="blurOut2" type="matrix" values="0 0 0 0 0 0 0 0 0 0 0 0 0 0 0 0 0 0 .4 0"/><feOffset dx="4.0" dy="4.0" in="blurOut2" result="blurOut3"/><feBlend in="SourceGraphic" in2="blurOut3" mode="normal"/></filter></defs><g><text fill="#000000" font-family="sans-serif" font-size="18" lengthAdjust="spacing" textLength="342" x="2" y="17.4023">Klondike  - DealPile - Context Diagram</text><!--MD5=[de2effd8dc5bf946a609466312d0f75f]
entity Player--><ellipse cx="132.5" cy="115.1875" fill="#FEFECE" filter="url(#fv4m9gwlv7jc5)" rx="8" ry="8" style="stroke:#A80036;stroke-width:1.5;"/><path d="M132.5,123.1875 L132.5,150.1875 M119.5,131.1875 L145.5,131.1875 M132.5,150.1875 L119.5,165.1875 M132.5,150.1875 L145.5,165.1875 " fill="none" filter="url(#fv4m9gwlv7jc5)" style="stroke:#A80036;stroke-width:1.5;"/><text fill="#000000" font-family="sans-serif" font-size="14" lengthAdjust="spacing" textLength="41" x="112" y="184.2227">Player</text><!--MD5=[0f13da524718cfa35bb6930040822af4]
entity DeckView--><rect fill="#FEFECE" filter="url(#fv4m9gwlv7jc5)" height="36.4883" style="stroke:#000000;stroke-width:1.5;" width="85" x="123" y="239.6875"/><text fill="#000000" font-family="sans-serif" font-size="14" lengthAdjust="spacing" textLength="65" x="133" y="263.2227">DeckView</text><!--MD5=[3c5d4cc8ce585902ef56b68cccd48fcf]
entity DealPileController--><rect fill="#FEFECE" filter="url(#fv4m9gwlv7jc5)" height="36.4883" style="stroke:#000000;stroke-width:1.5;" width="144" x="93.5" y="328.6875"/><text fill="#000000" font-family="sans-serif" font-size="14" lengthAdjust="spacing" textLength="124" x="103.5" y="352.2227">DealPileController</text><!--MD5=[136d3843510b2c22c07ad37b900f1a31]
entity Pile--><rect fill="#FEFECE" filter="url(#fv4m9gwlv7jc5)" height="36.4883" style="stroke:#000000;stroke-width:1.5;" width="44" x="177.5" y="32.6875"/><text fill="#000000" font-family="sans-serif" font-size="14" lengthAdjust="spacing" textLength="24" x="187.5" y="56.2227">Pile</text><path d="M127.8096,186.8846 C127.8179,198.4423 129.2139,210.8635 133.5,221.6875 C136.1068,228.2708 140.5735,234.3808 145.3563,239.5926 " fill="none" style="stroke:#A80036;stroke-width:1.0;"/><polygon fill="#A80036" points="145.3563,239.5926,142.2183,230.257,141.9757,235.9087,136.324,235.6661,145.3563,239.5926" style="stroke:#A80036;stroke-width:1.0;"/><text fill="#000000" font-family="sans-serif" font-size="13" lengthAdjust="spacing" textLength="50" x="134.5" y="218.2559">DealPile</text><path d="M165.5,275.8759 C165.5,291.1282 165.5,313.2933 165.5,328.5348 " fill="none" style="stroke:#A80036;stroke-width:1.0;"/><polygon fill="#A80036" points="165.5,328.5348,169.5,319.5348,165.5,323.5348,161.5,319.5348,165.5,328.5348" style="stroke:#A80036;stroke-width:1.0;"/><text fill="#000000" font-family="sans-serif" font-size="13" lengthAdjust="spacing" textLength="50" x="166.5" y="307.2559">DealPile</text><path d="M200.5108,69.0432 C201.8037,100.3335 202.1631,167.9453 185.5,221.6875 C183.5932,227.8373 180.4739,234.0872 177.2599,239.571 " fill="none" style="stroke:#A80036;stroke-width:1.0;stroke-dasharray:7.0,7.0;"/><polygon fill="#A80036" points="200.5108,69.0432,196.8858,78.2007,200.7173,74.039,204.879,77.8704,200.5108,69.0432" style="stroke:#A80036;stroke-width:1.0;"/><text fill="#000000" font-family="sans-serif" font-size="13" lengthAdjust="spacing" textLength="63" x="201.5" y="151.2559">setCards()</text><!--MD5=[3d0aa9c110013da676f3547e25ca5f9c]
@startuml ContextDiagram
!pragma layout smetana
title Klondike  - DealPile - Context Diagram
left to right direction

actor Player
rectangle DeckView
rectangle DealPileController
rectangle Pile

Player - -> DeckView: DealPile
DeckView - -> DealPileController: DealPile
DeckView -up..> Pile: setCards()

@enduml

PlantUML version 1.2022.0(Tue Jan 11 11:16:42 ECT 2022)
(GPL source distribution)
Java Runtime: OpenJDK Runtime Environment
JVM: OpenJDK 64-Bit Server VM
Default Encoding: UTF-8
Language: es
Country: EC
--></g></svg>