<?xml version="1.0" encoding="UTF-8" standalone="no"?><svg xmlns="http://www.w3.org/2000/svg" xmlns:xlink="http://www.w3.org/1999/xlink" contentScriptType="application/ecmascript" contentStyleType="text/css" height="713px" preserveAspectRatio="none" style="width:843px;height:713px;background:#FFFFFF;" version="1.1" viewBox="0 0 843 713" width="843px" zoomAndPan="magnify"><defs><filter height="300%" id="fyhaa5p0pu99c" width="300%" x="-1" y="-1"><feGaussianBlur result="blurOut" stdDeviation="2.0"/><feColorMatrix in="blurOut" result="blurOut2" type="matrix" values="0 0 0 0 0 0 0 0 0 0 0 0 0 0 0 0 0 0 .4 0"/><feOffset dx="4.0" dy="4.0" in="blurOut2" result="blurOut3"/><feBlend in="SourceGraphic" in2="blurOut3" mode="normal"/></filter></defs><g><g id="State1"><rect fill="#FEFECE" filter="url(#fyhaa5p0pu99c)" height="50" rx="12.5" ry="12.5" style="stroke:#A80036;stroke-width:1.5;" width="63" x="496" y="84"/><line style="stroke:#A80036;stroke-width:1.5;" x1="496" x2="559" y1="110.4883" y2="110.4883"/><text fill="#000000" font-family="sans-serif" font-size="14" lengthAdjust="spacing" textLength="43" x="506" y="102.5352">State1</text></g><polygon fill="#FEFECE" filter="url(#fyhaa5p0pu99c)" points="253.5,187,265.5,199,253.5,211,241.5,199,253.5,187" style="stroke:#A80036;stroke-width:1.5;"/><polygon fill="#FEFECE" filter="url(#fyhaa5p0pu99c)" points="253.5,264,265.5,276,253.5,288,241.5,276,253.5,264" style="stroke:#A80036;stroke-width:1.5;"/><polygon fill="#FEFECE" filter="url(#fyhaa5p0pu99c)" points="306.5,374,318.5,386,306.5,398,294.5,386,306.5,374" style="stroke:#A80036;stroke-width:1.5;"/><polygon fill="#FEFECE" filter="url(#fyhaa5p0pu99c)" points="314.5,484,326.5,496,314.5,508,302.5,496,314.5,484" style="stroke:#A80036;stroke-width:1.5;"/><g id="State2"><rect fill="#FEFECE" filter="url(#fyhaa5p0pu99c)" height="50" rx="12.5" ry="12.5" style="stroke:#A80036;stroke-width:1.5;" width="63" x="7" y="306"/><line style="stroke:#A80036;stroke-width:1.5;" x1="7" x2="70" y1="332.4883" y2="332.4883"/><text fill="#000000" font-family="sans-serif" font-size="14" lengthAdjust="spacing" textLength="43" x="17" y="324.5352">State2</text></g><g id="State3"><rect fill="#FEFECE" filter="url(#fyhaa5p0pu99c)" height="50" rx="12.5" ry="12.5" style="stroke:#A80036;stroke-width:1.5;" width="63" x="62" y="416"/><line style="stroke:#A80036;stroke-width:1.5;" x1="62" x2="125" y1="442.4883" y2="442.4883"/><text fill="#000000" font-family="sans-serif" font-size="14" lengthAdjust="spacing" textLength="43" x="72" y="434.5352">State3</text></g><g id="State4"><rect fill="#FEFECE" filter="url(#fyhaa5p0pu99c)" height="50" rx="12.5" ry="12.5" style="stroke:#A80036;stroke-width:1.5;" width="63" x="113" y="526"/><line style="stroke:#A80036;stroke-width:1.5;" x1="113" x2="176" y1="552.4883" y2="552.4883"/><text fill="#000000" font-family="sans-serif" font-size="14" lengthAdjust="spacing" textLength="43" x="123" y="544.5352">State4</text></g><g id="State5"><rect fill="#FEFECE" filter="url(#fyhaa5p0pu99c)" height="50" rx="12.5" ry="12.5" style="stroke:#A80036;stroke-width:1.5;" width="63" x="196" y="594"/><line style="stroke:#A80036;stroke-width:1.5;" x1="196" x2="259" y1="620.4883" y2="620.4883"/><text fill="#000000" font-family="sans-serif" font-size="14" lengthAdjust="spacing" textLength="43" x="206" y="612.5352">State5</text></g><ellipse cx="527.5" cy="17" fill="#000000" filter="url(#fyhaa5p0pu99c)" rx="10" ry="10" style="stroke:none;stroke-width:1.0;"/><ellipse cx="116.5" cy="691" filter="url(#fyhaa5p0pu99c)" rx="10" ry="10" style="stroke:#000000;stroke-width:1.0;fill:none;"/><ellipse cx="117" cy="691.5" fill="#000000" rx="6" ry="6" style="stroke:none;stroke-width:1.0;"/><path d="M527.5,31.1453 C527.5,44.28 527.5,66.4899 527.5,83.666 " fill="none" style="stroke:#A80036;stroke-width:1.0;"/><polygon fill="#A80036" points="527.5,83.666,531.5,74.666,527.5,78.666,523.5,74.666,527.5,83.666" style="stroke:#A80036;stroke-width:1.0;"/><text fill="#000000" font-family="sans-serif" font-size="13" lengthAdjust="spacing" textLength="66" x="528.5" y="62.5684">SelectCard</text><path d="M495.8337,112.679 C454.582,117.0122 380.8447,127.6725 322.5,152 C300.973,160.9759 279.0599,177.0125 265.8699,187.5791 " fill="none" style="stroke:#A80036;stroke-width:1.0;"/><polygon fill="#A80036" points="265.8699,187.5791,275.3948,185.0739,269.7722,184.453,270.3931,178.8303,265.8699,187.5791" style="stroke:#A80036;stroke-width:1.0;"/><text fill="#000000" font-family="sans-serif" font-size="13" lengthAdjust="spacing" textLength="316" x="323.5" y="165.5684">[isPreviousNumberAndDiferentColorInAnotherPile]</text><path d="M253.5,211.0665 C253.5,225.2465 253.5,249.6862 253.5,263.8881 " fill="none" style="stroke:#A80036;stroke-width:1.0;"/><polygon fill="#A80036" points="253.5,263.8881,257.5,254.8881,253.5,258.8881,249.5,254.8881,253.5,263.8881" style="stroke:#A80036;stroke-width:1.0;"/><text fill="#000000" font-family="sans-serif" font-size="13" lengthAdjust="spacing" textLength="64" x="254.5" y="242.5684">[isCardAs]</text><path d="M241.1053,200.9779 C208.4241,203.7601 120.8211,212.5978 97.5,229 C70.9233,247.692 54.5206,282.4721 45.9559,305.9287 " fill="none" style="stroke:#A80036;stroke-width:1.0;"/><polygon fill="#A80036" points="45.9559,305.9287,52.8001,298.8465,47.6708,301.2319,45.2854,296.1026,45.9559,305.9287" style="stroke:#A80036;stroke-width:1.0;"/><text fill="#000000" font-family="sans-serif" font-size="13" lengthAdjust="spacing" textLength="150" x="98.5" y="242.5684">MoveCardToAnotherPile</text><path d="M241.4801,277.2317 C207.15,278.1717 109.8816,282.8657 90.5,306 C64.8714,336.5907 74.9275,386.3332 84.3584,415.8381 " fill="none" style="stroke:#A80036;stroke-width:1.0;"/><polygon fill="#A80036" points="84.3584,415.8381,85.4283,406.0476,82.8361,411.0755,77.8081,408.4833,84.3584,415.8381" style="stroke:#A80036;stroke-width:1.0;"/><text fill="#000000" font-family="sans-serif" font-size="13" lengthAdjust="spacing" textLength="188" x="91.5" y="336.0684">MoveCardToEmptyFoundation</text><path d="M265.6381,285.6974 C272.0998,290.9108 279.6847,298.0601 284.5,306 C297.7151,327.7904 303.2057,357.7319 305.313,373.7723 " fill="none" style="stroke:#A80036;stroke-width:1.0;"/><polygon fill="#A80036" points="305.313,373.7723,308.1066,364.3279,304.6617,368.8149,300.1748,365.37,305.313,373.7723" style="stroke:#A80036;stroke-width:1.0;"/><text fill="#000000" font-family="sans-serif" font-size="13" lengthAdjust="spacing" textLength="331" x="303.5" y="336.0684">[isNextNumberAndSameColorThatCardInFoundation]</text><path d="M294.2214,387.6929 C262.7581,389.7339 180.4583,396.8309 162.5,416 C134.8172,445.5492 136.2685,496.1182 140.1604,525.9629 " fill="none" style="stroke:#A80036;stroke-width:1.0;"/><polygon fill="#A80036" points="140.1604,525.9629,142.963,516.5212,139.5138,521.0048,135.0302,517.5557,140.1604,525.9629" style="stroke:#A80036;stroke-width:1.0;"/><text fill="#000000" font-family="sans-serif" font-size="13" lengthAdjust="spacing" textLength="141" x="163.5" y="446.0684">MoveCardToFundation</text><path d="M307.326,398.1511 C308.859,418.8465 312.1279,462.9763 313.6665,483.7477 " fill="none" style="stroke:#A80036;stroke-width:1.0;"/><polygon fill="#A80036" points="313.6665,483.7477,316.9907,474.4768,313.2971,478.7614,309.0126,475.0678,313.6665,483.7477" style="stroke:#A80036;stroke-width:1.0;"/><text fill="#000000" font-family="sans-serif" font-size="13" lengthAdjust="spacing" textLength="168" x="313.5" y="446.0684">[is"K"AndSomePileIsEmpty]</text><path d="M306.4712,508.1665 C292.5895,527.4732 263.7959,567.5194 245.0796,593.5503 " fill="none" style="stroke:#A80036;stroke-width:1.0;"/><polygon fill="#A80036" points="245.0796,593.5503,253.5812,588.5781,247.9984,589.4907,247.0859,583.9079,245.0796,593.5503" style="stroke:#A80036;stroke-width:1.0;"/><text fill="#000000" font-family="sans-serif" font-size="13" lengthAdjust="spacing" textLength="147" x="294.5" y="556.0684">[MoveCardToEmptyPile]</text><path d="M326.6008,493.8624 C387.1682,487.8434 654.5,457.2953 654.5,387 C654.5,198 654.5,198 654.5,198 C654.5,176.6297 655.1478,167.5606 640.5,152 C619.1252,129.2931 584.3521,118.7905 559.018,113.9779 " fill="none" style="stroke:#A80036;stroke-width:1.0;"/><polygon fill="#A80036" points="559.018,113.9779,567.1134,119.5873,563.9302,114.911,568.6064,111.7278,559.018,113.9779" style="stroke:#A80036;stroke-width:1.0;"/><text fill="#000000" font-family="sans-serif" font-size="13" lengthAdjust="spacing" textLength="180" x="655.5" y="281.0684">SelectNewCardOfAnotherPile</text><path d="M95.7472,466.4262 C100.619,519.3807 111.9946,643.0279 115.4719,680.8253 " fill="none" style="stroke:#A80036;stroke-width:1.0;"/><polygon fill="#A80036" points="115.4719,680.8253,118.6306,671.4967,115.0139,675.8463,110.6642,672.2296,115.4719,680.8253" style="stroke:#A80036;stroke-width:1.0;"/><path d="M39.899,356.0118 C41.0525,377.8917 42.5,411.1052 42.5,440 C42.5,440 42.5,440 42.5,620 C42.5,655.1328 85.8774,678.6736 106.2106,687.7784 " fill="none" style="stroke:#A80036;stroke-width:1.0;"/><polygon fill="#A80036" points="106.2106,687.7784,99.6312,680.4496,101.6472,685.735,96.3618,687.751,106.2106,687.7784" style="stroke:#A80036;stroke-width:1.0;"/><path d="M139.6866,576.0669 C133.5573,606.7133 123.2219,658.3903 118.7139,680.9304 " fill="none" style="stroke:#A80036;stroke-width:1.0;"/><polygon fill="#A80036" points="118.7139,680.9304,124.4013,672.8896,119.6945,676.0275,116.5566,671.3207,118.7139,680.9304" style="stroke:#A80036;stroke-width:1.0;"/><path d="M195.9888,640.4397 C172.6583,655.573 142.3247,675.2489 126.7375,685.3595 " fill="none" style="stroke:#A80036;stroke-width:1.0;"/><polygon fill="#A80036" points="126.7375,685.3595,136.4649,683.8176,130.9323,682.6385,132.1113,677.1059,126.7375,685.3595" style="stroke:#A80036;stroke-width:1.0;"/><!--MD5=[f605376cfc27ef1917b4936e76e07e85]
@startuml UseCaseMoveCard 
!pragma layout smetana
state State1
state if <<choice>>
state if2 <<choice>>
state if3 <<choice>>
state if4 <<choice>>
state State2
state State3
state State4
state State5
[*] - -> State1: SelectCard 
State1 - -> if: [isPreviousNumberAndDiferentColorInAnotherPile]
if - -> if2: [isCardAs]
if - -> State2: MoveCardToAnotherPile
if2 - -> State3: MoveCardToEmptyFoundation
if2 - -> if3: [isNextNumberAndSameColorThatCardInFoundation]
if3 - ->State4: MoveCardToFundation
if3 - -> if4: [is"K"AndSomePileIsEmpty]
if4 - -> State5: [MoveCardToEmptyPile]
if4 - -> State1: SelectNewCardOfAnotherPile
State3 - ->[*]
State2- -> [*]
State4 - -> [*]
State5 - -> [*]
@enduml

PlantUML version 1.2022.0(Tue Jan 11 11:16:42 ECT 2022)
(GPL source distribution)
Java Runtime: OpenJDK Runtime Environment
JVM: OpenJDK 64-Bit Server VM
Default Encoding: UTF-8
Language: es
Country: EC
--></g></svg>