<?xml version="1.0" encoding="UTF-8" standalone="no"?><svg xmlns="http://www.w3.org/2000/svg" xmlns:xlink="http://www.w3.org/1999/xlink" contentStyleType="text/css" height="510px" preserveAspectRatio="none" style="width:399px;height:510px;background:#FFFFFF;" version="1.1" viewBox="0 0 399 510" width="399px" zoomAndPan="magnify"><defs/><g><rect height="26.4883" style="stroke:#00000000;stroke-width:1.0;fill:none;" width="381" x="5" y="5"/><text fill="#000000" font-family="sans-serif" font-size="14" font-weight="bold" lengthAdjust="spacing" textLength="371" x="10" y="23.5352">Klondike  - WasteToPileMove - User Case Diagram</text><g id="IN_GAME"><rect fill="#F1F1F1" height="50" rx="12.5" ry="12.5" style="stroke:#181818;stroke-width:0.5;" width="81" x="101" y="99.4883"/><line style="stroke:#181818;stroke-width:0.5;" x1="101" x2="182" y1="125.9766" y2="125.9766"/><text fill="#000000" font-family="sans-serif" font-size="14" lengthAdjust="spacing" textLength="61" x="111" y="118.0234">IN_GAME</text></g><g id="CARD_IN_WASTE"><rect fill="#F1F1F1" height="50" rx="12.5" ry="12.5" style="stroke:#181818;stroke-width:0.5;" width="134" x="74.5" y="202.4883"/><line style="stroke:#181818;stroke-width:0.5;" x1="74.5" x2="208.5" y1="228.9766" y2="228.9766"/><text fill="#000000" font-family="sans-serif" font-size="14" lengthAdjust="spacing" textLength="114" x="84.5" y="221.0234">CARD_IN_WASTE</text></g><g id="elem_if"><polygon fill="#F1F1F1" points="141.5,320.4883,153.5,332.4883,141.5,344.4883,129.5,332.4883,141.5,320.4883" style="stroke:#181818;stroke-width:0.5;"/></g><g id="CARD_IN_PILE"><rect fill="#F1F1F1" height="50" rx="12.5" ry="12.5" style="stroke:#181818;stroke-width:0.5;" width="114" x="38.5" y="397.4883"/><line style="stroke:#181818;stroke-width:0.5;" x1="38.5" x2="152.5" y1="423.9766" y2="423.9766"/><text fill="#000000" font-family="sans-serif" font-size="14" lengthAdjust="spacing" textLength="94" x="48.5" y="416.0234">CARD_IN_PILE</text></g><ellipse cx="141.5" cy="48.4883" fill="#222222" rx="10" ry="10" style="stroke:none;stroke-width:1.0;"/><ellipse cx="170.5" cy="494.4883" fill="none" rx="10" ry="10" style="stroke:#222222;stroke-width:1.0;"/><ellipse cx="171" cy="494.9883" fill="#222222" rx="6" ry="6" style="stroke:none;stroke-width:1.0;"/><path d="M141.5,62.7383 C141.5,72.4678 141.5,86.872 141.5,99.2127 " fill="none" style="stroke:#181818;stroke-width:1.0;"/><polygon fill="#181818" points="141.5,99.2127,145.5,90.2127,141.5,94.2127,137.5,90.2127,141.5,99.2127" style="stroke:#181818;stroke-width:1.0;"/><path d="M141.5,149.6803 C141.5,165.554 141.5,186.2392 141.5,202.1436 " fill="none" style="stroke:#181818;stroke-width:1.0;"/><polygon fill="#181818" points="141.5,202.1436,145.5,193.1436,141.5,197.1436,137.5,193.1436,141.5,202.1436" style="stroke:#181818;stroke-width:1.0;"/><text fill="#000000" font-family="sans-serif" font-size="13" lengthAdjust="spacing" textLength="174" x="142.5" y="181.0566">Player take card from Waste</text><path d="M141.5,252.6372 C141.5,274.0429 141.5,304.3296 141.5,320.4258 " fill="none" style="stroke:#181818;stroke-width:1.0;"/><polygon fill="#181818" points="141.5,320.4258,145.5,311.4258,141.5,315.4258,137.5,311.4258,141.5,320.4258" style="stroke:#181818;stroke-width:1.0;"/><text fill="#000000" font-family="sans-serif" font-size="13" lengthAdjust="spacing" textLength="219" x="142.5" y="284.0566">[&lt; CardNumber AND DiferentColor</text><text fill="#000000" font-family="sans-serif" font-size="13" lengthAdjust="spacing" textLength="124" x="194" y="299.3672">OR CardNumer is K]</text><path d="M129.3334,335.3501 C114.8297,338.2922 91.2107,345.5368 80.5,362.4883 C73.8949,372.942 76.4604,386.1642 81.1937,397.4407 " fill="none" style="stroke:#181818;stroke-width:1.0;"/><polygon fill="#181818" points="81.1937,397.4407,81.3986,387.5939,79.2585,392.8303,74.0221,390.6902,81.1937,397.4407" style="stroke:#181818;stroke-width:1.0;"/><text fill="#000000" font-family="sans-serif" font-size="13" lengthAdjust="spacing" textLength="108" x="81.5" y="376.0566">WasteToPileMove</text><path d="M153.6989,336.8676 C165.4838,340.8553 182.6659,348.7485 190.5,362.4883 C213.3999,402.6512 188.9124,460.2485 176.641,484.2856 " fill="none" style="stroke:#181818;stroke-width:1.0;"/><polygon fill="#181818" points="176.641,484.2856,184.2959,478.0885,178.9145,479.8324,177.1707,474.451,176.641,484.2856" style="stroke:#181818;stroke-width:1.0;"/><text fill="#000000" font-family="sans-serif" font-size="13" lengthAdjust="spacing" textLength="135" x="200.5" y="427.5566">TryAnotherMovement</text><path d="M120.8916,447.8642 C134.3204,460.7559 150.0699,475.8754 160.1601,485.562 " fill="none" style="stroke:#181818;stroke-width:1.0;"/><polygon fill="#181818" points="160.1601,485.562,156.4378,476.4437,156.5532,482.0994,150.8975,482.2148,160.1601,485.562" style="stroke:#181818;stroke-width:1.0;"/><!--MD5=[038699f8ff8c2cce4f67bc5edc333a07]
@startuml UCWasteToPileMove
!pragma layout smetana
title Klondike  - WasteToPileMove - User Case Diagram

state IN_GAME
state CARD_IN_WASTE
state if <<choice>>
state CARD_IN_PILE

[*] - -> IN_GAME
IN_GAME - -> CARD_IN_WASTE: Player take card from Waste
CARD_IN_WASTE - -> if: [< CardNumber AND DiferentColor \n OR CardNumer is K]
if - -> CARD_IN_PILE: WasteToPileMove
if - -> [*]: TryAnotherMovement
CARD_IN_PILE - -> [*]

@enduml

PlantUML version 1.2022.5(Sat Apr 30 05:55:52 ECT 2022)
(GPL source distribution)
Java Runtime: OpenJDK Runtime Environment
JVM: OpenJDK 64-Bit Server VM
Default Encoding: UTF-8
Language: es
Country: EC
--></g></svg>