<?xml version="1.0" encoding="UTF-8" standalone="no"?><svg xmlns="http://www.w3.org/2000/svg" xmlns:xlink="http://www.w3.org/1999/xlink" contentScriptType="application/ecmascript" contentStyleType="text/css" height="563px" preserveAspectRatio="none" style="width:488px;height:563px;background:#FFFFFF;" version="1.1" viewBox="0 0 488 563" width="488px" zoomAndPan="magnify"><defs><filter height="300%" id="f13rj62nbtay2g" width="300%" x="-1" y="-1"><feGaussianBlur result="blurOut" stdDeviation="2.0"/><feColorMatrix in="blurOut" result="blurOut2" type="matrix" values="0 0 0 0 0 0 0 0 0 0 0 0 0 0 0 0 0 0 .4 0"/><feOffset dx="4.0" dy="4.0" in="blurOut2" result="blurOut3"/><feBlend in="SourceGraphic" in2="blurOut3" mode="normal"/></filter></defs><g><g id="IN_GAME"><rect fill="#FEFECE" filter="url(#f13rj62nbtay2g)" height="50" rx="12.5" ry="12.5" style="stroke:#A80036;stroke-width:1.5;" width="81" x="141.846" y="84"/><line style="stroke:#A80036;stroke-width:1.5;" x1="141.846" x2="222.846" y1="110.4883" y2="110.4883"/><text fill="#000000" font-family="sans-serif" font-size="14" lengthAdjust="spacing" textLength="61" x="151.846" y="102.5352">IN_GAME</text></g><g id="CARD_SELECTED"><rect fill="#FEFECE" filter="url(#f13rj62nbtay2g)" height="50" rx="12.5" ry="12.5" style="stroke:#A80036;stroke-width:1.5;" width="134" x="115.346" y="187"/><line style="stroke:#A80036;stroke-width:1.5;" x1="115.346" x2="249.346" y1="213.4883" y2="213.4883"/><text fill="#000000" font-family="sans-serif" font-size="14" lengthAdjust="spacing" textLength="114" x="125.346" y="205.5352">CARD_SELECTED</text></g><polygon fill="#FEFECE" filter="url(#f13rj62nbtay2g)" points="182.346,290,194.346,302,182.346,314,170.346,302,182.346,290" style="stroke:#A80036;stroke-width:1.5;"/><polygon fill="#FEFECE" filter="url(#f13rj62nbtay2g)" points="53.346,367,65.346,379,53.346,391,41.346,379,53.346,367" style="stroke:#A80036;stroke-width:1.5;"/><g id="CardToPile"><rect fill="#FEFECE" filter="url(#f13rj62nbtay2g)" height="50" rx="12.5" ry="12.5" style="stroke:#A80036;stroke-width:1.5;" width="95" x="81.846" y="444"/><line style="stroke:#A80036;stroke-width:1.5;" x1="81.846" x2="176.846" y1="470.4883" y2="470.4883"/><text fill="#000000" font-family="sans-serif" font-size="14" lengthAdjust="spacing" textLength="75" x="91.846" y="462.5352">CardToPile</text></g><ellipse cx="182.346" cy="17" fill="#000000" filter="url(#f13rj62nbtay2g)" rx="10" ry="10" style="stroke:none;stroke-width:1.0;"/><ellipse cx="78.346" cy="541" filter="url(#f13rj62nbtay2g)" rx="10" ry="10" style="stroke:#000000;stroke-width:1.0;fill:none;"/><ellipse cx="78.846" cy="541.5" fill="#000000" rx="6" ry="6" style="stroke:none;stroke-width:1.0;"/><path d="M182.346,31.1453 C182.346,44.28 182.346,66.4899 182.346,83.666 " fill="none" style="stroke:#A80036;stroke-width:1.0;"/><polygon fill="#A80036" points="182.346,83.666,186.346,74.666,182.346,78.666,178.346,74.666,182.346,83.666" style="stroke:#A80036;stroke-width:1.0;"/><text fill="#000000" font-family="sans-serif" font-size="13" lengthAdjust="spacing" textLength="66" x="183.346" y="62.5684">SelectCard</text><path d="M182.346,134.192 C182.346,150.0657 182.346,170.7509 182.346,186.6553 " fill="none" style="stroke:#A80036;stroke-width:1.0;"/><polygon fill="#A80036" points="182.346,186.6553,186.346,177.6553,182.346,181.6553,178.346,177.6553,182.346,186.6553" style="stroke:#A80036;stroke-width:1.0;"/><text fill="#000000" font-family="sans-serif" font-size="13" lengthAdjust="spacing" textLength="136" x="183.346" y="165.5684">Take card from Waste</text><path d="M182.346,237.0464 C182.346,254.1451 182.346,276.3443 182.346,289.5858 " fill="none" style="stroke:#A80036;stroke-width:1.0;"/><polygon fill="#A80036" points="182.346,289.5858,186.346,280.5858,182.346,284.5858,178.346,280.5858,182.346,289.5858" style="stroke:#A80036;stroke-width:1.0;"/><text fill="#000000" font-family="sans-serif" font-size="13" lengthAdjust="spacing" textLength="168" x="183.346" y="268.5684">[is"K"AndSomePileIsEmpty]</text><path d="M170.1802,303.207 C135.4335,304.0801 36.9826,308.6111 17.346,332 C6,345.514 26.7086,361.9083 41.1391,371.0243 " fill="none" style="stroke:#A80036;stroke-width:1.0;"/><polygon fill="#A80036" points="41.1391,371.0243,35.6665,362.8359,36.9119,368.3539,31.3939,369.5993,41.1391,371.0243" style="stroke:#A80036;stroke-width:1.0;"/><text fill="#000000" font-family="sans-serif" font-size="13" lengthAdjust="spacing" textLength="316" x="18.346" y="345.5684">[isPreviousNumberAndDiferentColorInAnotherPile]</text><path d="M194.574,303.3925 C227.6164,304.7353 317.4109,310.3461 335.346,332 C340.1655,337.8188 337.4917,341.7555 335.346,349 C323.7577,388.1242 318.3425,401.9955 285.346,426 C253.5927,449.1001 209.9143,459.4955 176.8504,464.1734 " fill="none" style="stroke:#A80036;stroke-width:1.0;"/><polygon fill="#A80036" points="176.8504,464.1734,186.322,466.8732,181.8011,463.4729,185.2013,458.952,176.8504,464.1734" style="stroke:#A80036;stroke-width:1.0;"/><text fill="#000000" font-family="sans-serif" font-size="13" lengthAdjust="spacing" textLength="150" x="330.346" y="384.0684">MoveCardToAnotherPile</text><path d="M62.9714,391.1453 C74.3151,404.28 93.4964,426.4899 108.3302,443.666 " fill="none" style="stroke:#A80036;stroke-width:1.0;"/><polygon fill="#A80036" points="108.3302,443.666,105.4749,434.2401,105.0621,439.8819,99.4204,439.469,108.3302,443.666" style="stroke:#A80036;stroke-width:1.0;"/><text fill="#000000" font-family="sans-serif" font-size="13" lengthAdjust="spacing" textLength="188" x="92.346" y="422.5684">MoveCardToEmptyFoundation</text><path d="M55.0643,391.1349 C59.6314,420.7298 72.0348,501.1034 76.6156,530.7872 " fill="none" style="stroke:#A80036;stroke-width:1.0;"/><polygon fill="#A80036" points="76.6156,530.7872,79.1962,521.2824,75.853,525.8457,71.2898,522.5025,76.6156,530.7872" style="stroke:#A80036;stroke-width:1.0;"/><path d="M112.0797,494.3759 C103.2949,506.778 93.0496,521.242 86.1751,530.9471 " fill="none" style="stroke:#A80036;stroke-width:1.0;"/><polygon fill="#A80036" points="86.1751,530.9471,94.6414,525.915,89.0652,526.867,88.1132,521.2908,86.1751,530.9471" style="stroke:#A80036;stroke-width:1.0;"/><!--MD5=[febc27f66ea7fa19cd8dd42d9e81d51e]
@startuml UseCaseWasteToPileMove
!pragma layout smetana
state IN_GAME
state CARD_SELECTED
state if <<choice>>
state if2 <<choice>>

state CardToPile

[*] - -> IN_GAME: SelectCard 
IN_GAME - -> CARD_SELECTED: Take card from Waste
CARD_SELECTED - -> if: [is"K"AndSomePileIsEmpty]
if - -> if2:[isPreviousNumberAndDiferentColorInAnotherPile]
if - -> CardToPile: MoveCardToAnotherPile
if2 - -> CardToPile: MoveCardToEmptyFoundation
if2 - -> [*]

CardToPile- -> [*]

@enduml

PlantUML version 1.2022.0(Tue Jan 11 11:16:42 ECT 2022)
(GPL source distribution)
Java Runtime: OpenJDK Runtime Environment
JVM: OpenJDK 64-Bit Server VM
Default Encoding: UTF-8
Language: es
Country: EC
--></g></svg>