<?xml version="1.0" encoding="UTF-8" standalone="no"?><svg xmlns="http://www.w3.org/2000/svg" xmlns:xlink="http://www.w3.org/1999/xlink" contentStyleType="text/css" height="264px" preserveAspectRatio="none" style="width:968px;height:264px;background:#FFFFFF;" version="1.1" viewBox="0 0 968 264" width="968px" zoomAndPan="magnify"><defs/><g><!--MD5=[ed1d20ea533a2a0e7df5ba3c35e56ced]
cluster Controllers--><g id="cluster_Controllers"><path d="M8.5,6 L90.5,6 A3.75,3.75 0 0 1 93,8.5 L100,28.4883 L958.5,28.4883 A2.5,2.5 0 0 1 961,30.9883 L961,254.5 A2.5,2.5 0 0 1 958.5,257 L8.5,257 A2.5,2.5 0 0 1 6,254.5 L6,8.5 A2.5,2.5 0 0 1 8.5,6 " style="stroke:#000000;stroke-width:1.5;fill:none;"/><line style="stroke:#000000;stroke-width:1.5;fill:none;" x1="6" x2="100" y1="28.4883" y2="28.4883"/><text fill="#000000" font-family="sans-serif" font-size="14" font-weight="bold" lengthAdjust="spacing" textLength="81" x="10" y="21.5352">Controllers</text></g><!--MD5=[5103e3471bf31fadd75905833dcba617]
class LoginController--><g id="elem_LoginController"><rect codeLine="6" fill="#F1F1F1" height="48" id="LoginController" rx="2.5" ry="2.5" style="stroke:#181818;stroke-width:0.5;" width="140" x="14" y="33"/><ellipse cx="29" cy="49" fill="#ADD1B2" rx="11" ry="11" style="stroke:#181818;stroke-width:1.0;"/><path d="M31.4731,55.1431 Q30.8921,55.4419 30.2529,55.5913 Q29.6138,55.7407 28.9082,55.7407 Q26.4014,55.7407 25.0815,54.0889 Q23.7617,52.437 23.7617,49.3159 Q23.7617,46.1865 25.0815,44.5347 Q26.4014,42.8828 28.9082,42.8828 Q29.6138,42.8828 30.2612,43.0322 Q30.9087,43.1816 31.4731,43.4805 L31.4731,46.2031 Q30.8423,45.6221 30.2488,45.3523 Q29.6553,45.0825 29.0244,45.0825 Q27.6797,45.0825 26.9949,46.1492 Q26.3101,47.2158 26.3101,49.3159 Q26.3101,51.4077 26.9949,52.4744 Q27.6797,53.541 29.0244,53.541 Q29.6553,53.541 30.2488,53.2712 Q30.8423,53.0015 31.4731,52.4204 Z " fill="#000000"/><text fill="#000000" font-family="sans-serif" font-size="14" lengthAdjust="spacing" textLength="108" x="43" y="54.291">LoginController</text><line style="stroke:#181818;stroke-width:0.5;" x1="15" x2="153" y1="65" y2="65"/><line style="stroke:#181818;stroke-width:0.5;" x1="15" x2="153" y1="73" y2="73"/></g><!--MD5=[53946fc74ec193ea45aa1e1dd2faac24]
class DealToWasteController--><g id="elem_DealToWasteController"><rect codeLine="7" fill="#F1F1F1" height="48" id="DealToWasteController" rx="2.5" ry="2.5" style="stroke:#181818;stroke-width:0.5;" width="190" x="172" y="33"/><ellipse cx="187" cy="49" fill="#ADD1B2" rx="11" ry="11" style="stroke:#181818;stroke-width:1.0;"/><path d="M189.4731,55.1431 Q188.8921,55.4419 188.2529,55.5913 Q187.6138,55.7407 186.9082,55.7407 Q184.4014,55.7407 183.0815,54.0889 Q181.7617,52.437 181.7617,49.3159 Q181.7617,46.1865 183.0815,44.5347 Q184.4014,42.8828 186.9082,42.8828 Q187.6138,42.8828 188.2612,43.0322 Q188.9087,43.1816 189.4731,43.4805 L189.4731,46.2031 Q188.8423,45.6221 188.2488,45.3523 Q187.6553,45.0825 187.0244,45.0825 Q185.6797,45.0825 184.9949,46.1492 Q184.3101,47.2158 184.3101,49.3159 Q184.3101,51.4077 184.9949,52.4744 Q185.6797,53.541 187.0244,53.541 Q187.6553,53.541 188.2488,53.2712 Q188.8423,53.0015 189.4731,52.4204 Z " fill="#000000"/><text fill="#000000" font-family="sans-serif" font-size="14" lengthAdjust="spacing" textLength="158" x="201" y="54.291">DealToWasteController</text><line style="stroke:#181818;stroke-width:0.5;" x1="173" x2="361" y1="65" y2="65"/><line style="stroke:#181818;stroke-width:0.5;" x1="173" x2="361" y1="73" y2="73"/></g><!--MD5=[497dab835c373d681178775bd429c93d]
class PileToPileMoveController--><g id="elem_PileToPileMoveController"><rect codeLine="8" fill="#F1F1F1" height="48" id="PileToPileMoveController" rx="2.5" ry="2.5" style="stroke:#181818;stroke-width:0.5;" width="204" x="380" y="33"/><ellipse cx="395" cy="49" fill="#ADD1B2" rx="11" ry="11" style="stroke:#181818;stroke-width:1.0;"/><path d="M397.4731,55.1431 Q396.8921,55.4419 396.2529,55.5913 Q395.6138,55.7407 394.9082,55.7407 Q392.4014,55.7407 391.0815,54.0889 Q389.7617,52.437 389.7617,49.3159 Q389.7617,46.1865 391.0815,44.5347 Q392.4014,42.8828 394.9082,42.8828 Q395.6138,42.8828 396.2612,43.0322 Q396.9087,43.1816 397.4731,43.4805 L397.4731,46.2031 Q396.8423,45.6221 396.2488,45.3523 Q395.6553,45.0825 395.0244,45.0825 Q393.6797,45.0825 392.9949,46.1492 Q392.3101,47.2158 392.3101,49.3159 Q392.3101,51.4077 392.9949,52.4744 Q393.6797,53.541 395.0244,53.541 Q395.6553,53.541 396.2488,53.2712 Q396.8423,53.0015 397.4731,52.4204 Z " fill="#000000"/><text fill="#000000" font-family="sans-serif" font-size="14" lengthAdjust="spacing" textLength="172" x="409" y="54.291">PileToPileMoveController</text><line style="stroke:#181818;stroke-width:0.5;" x1="381" x2="583" y1="65" y2="65"/><line style="stroke:#181818;stroke-width:0.5;" x1="381" x2="583" y1="73" y2="73"/></g><!--MD5=[551f7bc5b114ee47012c884e6c567313]
class PileToFoundationMoveController--><g id="elem_PileToFoundationMoveController"><rect codeLine="9" fill="#F1F1F1" height="48" id="PileToFoundationMoveController" rx="2.5" ry="2.5" style="stroke:#181818;stroke-width:0.5;" width="259" x="602.5" y="33"/><ellipse cx="617.5" cy="49" fill="#ADD1B2" rx="11" ry="11" style="stroke:#181818;stroke-width:1.0;"/><path d="M619.9731,55.1431 Q619.3921,55.4419 618.7529,55.5913 Q618.1138,55.7407 617.4082,55.7407 Q614.9014,55.7407 613.5815,54.0889 Q612.2617,52.437 612.2617,49.3159 Q612.2617,46.1865 613.5815,44.5347 Q614.9014,42.8828 617.4082,42.8828 Q618.1138,42.8828 618.7612,43.0322 Q619.4087,43.1816 619.9731,43.4805 L619.9731,46.2031 Q619.3423,45.6221 618.7488,45.3523 Q618.1553,45.0825 617.5244,45.0825 Q616.1797,45.0825 615.4949,46.1492 Q614.8101,47.2158 614.8101,49.3159 Q614.8101,51.4077 615.4949,52.4744 Q616.1797,53.541 617.5244,53.541 Q618.1553,53.541 618.7488,53.2712 Q619.3423,53.0015 619.9731,52.4204 Z " fill="#000000"/><text fill="#000000" font-family="sans-serif" font-size="14" lengthAdjust="spacing" textLength="227" x="631.5" y="54.291">PileToFoundationMoveController</text><line style="stroke:#181818;stroke-width:0.5;" x1="603.5" x2="860.5" y1="65" y2="65"/><line style="stroke:#181818;stroke-width:0.5;" x1="603.5" x2="860.5" y1="73" y2="73"/></g><!--MD5=[aab9612c5d46aa221e996c7d0ed5d7ab]
class UndoController--><g id="elem_UndoController"><rect codeLine="10" fill="#F1F1F1" height="48" id="UndoController" rx="2.5" ry="2.5" style="stroke:#181818;stroke-width:0.5;" width="139" x="14.5" y="117"/><ellipse cx="29.5" cy="133" fill="#ADD1B2" rx="11" ry="11" style="stroke:#181818;stroke-width:1.0;"/><path d="M31.9731,139.1431 Q31.3921,139.4419 30.7529,139.5913 Q30.1138,139.7407 29.4082,139.7407 Q26.9014,139.7407 25.5815,138.0889 Q24.2617,136.437 24.2617,133.3159 Q24.2617,130.1865 25.5815,128.5347 Q26.9014,126.8828 29.4082,126.8828 Q30.1138,126.8828 30.7612,127.0322 Q31.4087,127.1816 31.9731,127.4805 L31.9731,130.2031 Q31.3423,129.6221 30.7488,129.3523 Q30.1553,129.0825 29.5244,129.0825 Q28.1797,129.0825 27.4949,130.1492 Q26.8101,131.2158 26.8101,133.3159 Q26.8101,135.4077 27.4949,136.4744 Q28.1797,137.541 29.5244,137.541 Q30.1553,137.541 30.7488,137.2712 Q31.3423,137.0015 31.9731,136.4204 Z " fill="#000000"/><text fill="#000000" font-family="sans-serif" font-size="14" lengthAdjust="spacing" textLength="107" x="43.5" y="138.291">UndoController</text><line style="stroke:#181818;stroke-width:0.5;" x1="15.5" x2="152.5" y1="149" y2="149"/><line style="stroke:#181818;stroke-width:0.5;" x1="15.5" x2="152.5" y1="157" y2="157"/></g><!--MD5=[319e93a60515c175807e2d1fbd5079c2]
class FoundationToPileMoveController--><g id="elem_FoundationToPileMoveController"><rect codeLine="11" fill="#F1F1F1" height="48" id="FoundationToPileMoveController" rx="2.5" ry="2.5" style="stroke:#181818;stroke-width:0.5;" width="259" x="171.5" y="117"/><ellipse cx="186.5" cy="133" fill="#ADD1B2" rx="11" ry="11" style="stroke:#181818;stroke-width:1.0;"/><path d="M188.9731,139.1431 Q188.3921,139.4419 187.7529,139.5913 Q187.1138,139.7407 186.4082,139.7407 Q183.9014,139.7407 182.5815,138.0889 Q181.2617,136.437 181.2617,133.3159 Q181.2617,130.1865 182.5815,128.5347 Q183.9014,126.8828 186.4082,126.8828 Q187.1138,126.8828 187.7612,127.0322 Q188.4087,127.1816 188.9731,127.4805 L188.9731,130.2031 Q188.3423,129.6221 187.7488,129.3523 Q187.1553,129.0825 186.5244,129.0825 Q185.1797,129.0825 184.4949,130.1492 Q183.8101,131.2158 183.8101,133.3159 Q183.8101,135.4077 184.4949,136.4744 Q185.1797,137.541 186.5244,137.541 Q187.1553,137.541 187.7488,137.2712 Q188.3423,137.0015 188.9731,136.4204 Z " fill="#000000"/><text fill="#000000" font-family="sans-serif" font-size="14" lengthAdjust="spacing" textLength="227" x="200.5" y="138.291">FoundationToPileMoveController</text><line style="stroke:#181818;stroke-width:0.5;" x1="172.5" x2="429.5" y1="149" y2="149"/><line style="stroke:#181818;stroke-width:0.5;" x1="172.5" x2="429.5" y1="157" y2="157"/></g><!--MD5=[fa5b10279f622d462eeba81aa8a9007b]
class WasteToPileMoveController--><g id="elem_WasteToPileMoveController"><rect codeLine="12" fill="#F1F1F1" height="48" id="WasteToPileMoveController" rx="2.5" ry="2.5" style="stroke:#181818;stroke-width:0.5;" width="220" x="449" y="117"/><ellipse cx="464" cy="133" fill="#ADD1B2" rx="11" ry="11" style="stroke:#181818;stroke-width:1.0;"/><path d="M466.4731,139.1431 Q465.8921,139.4419 465.2529,139.5913 Q464.6138,139.7407 463.9082,139.7407 Q461.4014,139.7407 460.0815,138.0889 Q458.7617,136.437 458.7617,133.3159 Q458.7617,130.1865 460.0815,128.5347 Q461.4014,126.8828 463.9082,126.8828 Q464.6138,126.8828 465.2612,127.0322 Q465.9087,127.1816 466.4731,127.4805 L466.4731,130.2031 Q465.8423,129.6221 465.2488,129.3523 Q464.6553,129.0825 464.0244,129.0825 Q462.6797,129.0825 461.9949,130.1492 Q461.3101,131.2158 461.3101,133.3159 Q461.3101,135.4077 461.9949,136.4744 Q462.6797,137.541 464.0244,137.541 Q464.6553,137.541 465.2488,137.2712 Q465.8423,137.0015 466.4731,136.4204 Z " fill="#000000"/><text fill="#000000" font-family="sans-serif" font-size="14" lengthAdjust="spacing" textLength="188" x="478" y="138.291">WasteToPileMoveController</text><line style="stroke:#181818;stroke-width:0.5;" x1="450" x2="668" y1="149" y2="149"/><line style="stroke:#181818;stroke-width:0.5;" x1="450" x2="668" y1="157" y2="157"/></g><!--MD5=[dc83ec4641633f17d4130311152f32b8]
class WasteToFondationMoveController--><g id="elem_WasteToFondationMoveController"><rect codeLine="13" fill="#F1F1F1" height="48" id="WasteToFondationMoveController" rx="2.5" ry="2.5" style="stroke:#181818;stroke-width:0.5;" width="266" x="687" y="117"/><ellipse cx="702" cy="133" fill="#ADD1B2" rx="11" ry="11" style="stroke:#181818;stroke-width:1.0;"/><path d="M704.4731,139.1431 Q703.8921,139.4419 703.2529,139.5913 Q702.6138,139.7407 701.9082,139.7407 Q699.4014,139.7407 698.0815,138.0889 Q696.7617,136.437 696.7617,133.3159 Q696.7617,130.1865 698.0815,128.5347 Q699.4014,126.8828 701.9082,126.8828 Q702.6138,126.8828 703.2612,127.0322 Q703.9087,127.1816 704.4731,127.4805 L704.4731,130.2031 Q703.8423,129.6221 703.2488,129.3523 Q702.6553,129.0825 702.0244,129.0825 Q700.6797,129.0825 699.9949,130.1492 Q699.3101,131.2158 699.3101,133.3159 Q699.3101,135.4077 699.9949,136.4744 Q700.6797,137.541 702.0244,137.541 Q702.6553,137.541 703.2488,137.2712 Q703.8423,137.0015 704.4731,136.4204 Z " fill="#000000"/><text fill="#000000" font-family="sans-serif" font-size="14" lengthAdjust="spacing" textLength="234" x="716" y="138.291">WasteToFondationMoveController</text><line style="stroke:#181818;stroke-width:0.5;" x1="688" x2="952" y1="149" y2="149"/><line style="stroke:#181818;stroke-width:0.5;" x1="688" x2="952" y1="157" y2="157"/></g><!--MD5=[f0c0608cbebaa9b6962ac7aa45658198]
class WasteToStockMoveController--><g id="elem_WasteToStockMoveController"><rect codeLine="14" fill="#F1F1F1" height="48" id="WasteToStockMoveController" rx="2.5" ry="2.5" style="stroke:#181818;stroke-width:0.5;" width="233" x="14.5" y="201"/><ellipse cx="29.5" cy="217" fill="#ADD1B2" rx="11" ry="11" style="stroke:#181818;stroke-width:1.0;"/><path d="M31.9731,223.1431 Q31.3921,223.4419 30.7529,223.5913 Q30.1138,223.7407 29.4082,223.7407 Q26.9014,223.7407 25.5815,222.0889 Q24.2617,220.437 24.2617,217.3159 Q24.2617,214.1865 25.5815,212.5347 Q26.9014,210.8828 29.4082,210.8828 Q30.1138,210.8828 30.7612,211.0322 Q31.4087,211.1816 31.9731,211.4805 L31.9731,214.2031 Q31.3423,213.6221 30.7488,213.3523 Q30.1553,213.0825 29.5244,213.0825 Q28.1797,213.0825 27.4949,214.1492 Q26.8101,215.2158 26.8101,217.3159 Q26.8101,219.4077 27.4949,220.4744 Q28.1797,221.541 29.5244,221.541 Q30.1553,221.541 30.7488,221.2712 Q31.3423,221.0015 31.9731,220.4204 Z " fill="#000000"/><text fill="#000000" font-family="sans-serif" font-size="14" lengthAdjust="spacing" textLength="201" x="43.5" y="222.291">WasteToStockMoveController</text><line style="stroke:#181818;stroke-width:0.5;" x1="15.5" x2="246.5" y1="233" y2="233"/><line style="stroke:#181818;stroke-width:0.5;" x1="15.5" x2="246.5" y1="241" y2="241"/></g><!--MD5=[09632e2f294dd01282ddf91519a686d7]
class RedoController--><g id="elem_RedoController"><rect codeLine="15" fill="#F1F1F1" height="48" id="RedoController" rx="2.5" ry="2.5" style="stroke:#181818;stroke-width:0.5;" width="137" x="265.5" y="201"/><ellipse cx="280.5" cy="217" fill="#ADD1B2" rx="11" ry="11" style="stroke:#181818;stroke-width:1.0;"/><path d="M282.9731,223.1431 Q282.3921,223.4419 281.7529,223.5913 Q281.1138,223.7407 280.4082,223.7407 Q277.9014,223.7407 276.5815,222.0889 Q275.2617,220.437 275.2617,217.3159 Q275.2617,214.1865 276.5815,212.5347 Q277.9014,210.8828 280.4082,210.8828 Q281.1138,210.8828 281.7612,211.0322 Q282.4087,211.1816 282.9731,211.4805 L282.9731,214.2031 Q282.3423,213.6221 281.7488,213.3523 Q281.1553,213.0825 280.5244,213.0825 Q279.1797,213.0825 278.4949,214.1492 Q277.8101,215.2158 277.8101,217.3159 Q277.8101,219.4077 278.4949,220.4744 Q279.1797,221.541 280.5244,221.541 Q281.1553,221.541 281.7488,221.2712 Q282.3423,221.0015 282.9731,220.4204 Z " fill="#000000"/><text fill="#000000" font-family="sans-serif" font-size="14" lengthAdjust="spacing" textLength="105" x="294.5" y="222.291">RedoController</text><line style="stroke:#181818;stroke-width:0.5;" x1="266.5" x2="401.5" y1="233" y2="233"/><line style="stroke:#181818;stroke-width:0.5;" x1="266.5" x2="401.5" y1="241" y2="241"/></g><!--MD5=[a9d729ecd171fe3a8f4459bd05145371]
class RestartGameController--><g id="elem_RestartGameController"><rect codeLine="16" fill="#F1F1F1" height="48" id="RestartGameController" rx="2.5" ry="2.5" style="stroke:#181818;stroke-width:0.5;" width="189" x="420.5" y="201"/><ellipse cx="435.5" cy="217" fill="#ADD1B2" rx="11" ry="11" style="stroke:#181818;stroke-width:1.0;"/><path d="M437.9731,223.1431 Q437.3921,223.4419 436.7529,223.5913 Q436.1138,223.7407 435.4082,223.7407 Q432.9014,223.7407 431.5815,222.0889 Q430.2617,220.437 430.2617,217.3159 Q430.2617,214.1865 431.5815,212.5347 Q432.9014,210.8828 435.4082,210.8828 Q436.1138,210.8828 436.7612,211.0322 Q437.4087,211.1816 437.9731,211.4805 L437.9731,214.2031 Q437.3423,213.6221 436.7488,213.3523 Q436.1553,213.0825 435.5244,213.0825 Q434.1797,213.0825 433.4949,214.1492 Q432.8101,215.2158 432.8101,217.3159 Q432.8101,219.4077 433.4949,220.4744 Q434.1797,221.541 435.5244,221.541 Q436.1553,221.541 436.7488,221.2712 Q437.3423,221.0015 437.9731,220.4204 Z " fill="#000000"/><text fill="#000000" font-family="sans-serif" font-size="14" lengthAdjust="spacing" textLength="157" x="449.5" y="222.291">RestartGameController</text><line style="stroke:#181818;stroke-width:0.5;" x1="421.5" x2="608.5" y1="233" y2="233"/><line style="stroke:#181818;stroke-width:0.5;" x1="421.5" x2="608.5" y1="241" y2="241"/></g><!--MD5=[9fcb629bac4a6d9d6a5c6d78a004b973]
@startuml ArquitecturaMVC
!pragma layout smetana

top to bottom direction

package Controllers {
    class LoginController
    class DealToWasteController
    class PileToPileMoveController
    class PileToFoundationMoveController
    class UndoController
    class FoundationToPileMoveController
    class WasteToPileMoveController
    class WasteToFondationMoveController
    class WasteToStockMoveController
    class RedoController
    class RestartGameController
} 

@enduml 

PlantUML version 1.2022.5(Sat Apr 30 05:55:52 ECT 2022)
(GPL source distribution)
Java Runtime: OpenJDK Runtime Environment
JVM: OpenJDK 64-Bit Server VM
Default Encoding: UTF-8
Language: es
Country: EC
--></g></svg>