<?xml version="1.0" encoding="UTF-8" standalone="no"?><svg xmlns="http://www.w3.org/2000/svg" xmlns:xlink="http://www.w3.org/1999/xlink" contentScriptType="application/ecmascript" contentStyleType="text/css" height="386px" preserveAspectRatio="none" style="width:369px;height:386px;background:#FFFFFF;" version="1.1" viewBox="0 0 369 386" width="369px" zoomAndPan="magnify"><defs><filter height="300%" id="f7ckkjwhz36zq" width="300%" x="-1" y="-1"><feGaussianBlur result="blurOut" stdDeviation="2.0"/><feColorMatrix in="blurOut" result="blurOut2" type="matrix" values="0 0 0 0 0 0 0 0 0 0 0 0 0 0 0 0 0 0 .4 0"/><feOffset dx="4.0" dy="4.0" in="blurOut2" result="blurOut3"/><feBlend in="SourceGraphic" in2="blurOut3" mode="normal"/></filter></defs><g><text fill="#000000" font-family="sans-serif" font-size="18" lengthAdjust="spacing" textLength="360" x="2" y="17.4023">Klondike  - MoveCard - Context Diagram</text><!--MD5=[de2effd8dc5bf946a609466312d0f75f]
entity Player--><ellipse cx="150.25" cy="35.7344" fill="#FEFECE" filter="url(#f7ckkjwhz36zq)" rx="8" ry="8" style="stroke:#A80036;stroke-width:1.5;"/><path d="M150.25,43.7344 L150.25,70.7344 M137.25,51.7344 L163.25,51.7344 M150.25,70.7344 L137.25,85.7344 M150.25,70.7344 L163.25,85.7344 " fill="none" filter="url(#f7ckkjwhz36zq)" style="stroke:#A80036;stroke-width:1.5;"/><text fill="#000000" font-family="sans-serif" font-size="14" lengthAdjust="spacing" textLength="41" x="129.75" y="104.7695">Player</text><!--MD5=[ff3613030f0db05ca4997a5c6bbcb2ba]
entity PileView--><rect fill="#FEFECE" filter="url(#f7ckkjwhz36zq)" height="36.4883" style="stroke:#000000;stroke-width:1.5;" width="76" x="62.25" y="160.2344"/><text fill="#000000" font-family="sans-serif" font-size="14" lengthAdjust="spacing" textLength="56" x="72.25" y="183.7695">PileView</text><!--MD5=[a1b01087607f0408a408ca9c07636705]
entity MoveCardController--><rect fill="#FEFECE" filter="url(#f7ckkjwhz36zq)" height="36.4883" style="stroke:#000000;stroke-width:1.5;" width="159" x="46.75" y="249.2344"/><text fill="#000000" font-family="sans-serif" font-size="14" lengthAdjust="spacing" textLength="139" x="56.75" y="272.7695">MoveCardController</text><!--MD5=[bf8d9f239075996f82581534e1e22ec2]
entity Deck--><rect fill="#FEFECE" filter="url(#f7ckkjwhz36zq)" height="36.4883" style="stroke:#000000;stroke-width:1.5;" width="53" x="249.75" y="249.2344"/><text fill="#000000" font-family="sans-serif" font-size="14" lengthAdjust="spacing" textLength="33" x="259.75" y="272.7695">Deck</text><!--MD5=[29bc9878761f64e501795b1cfe944e29]
entity StockView--><rect fill="#FEFECE" filter="url(#f7ckkjwhz36zq)" height="36.4883" style="stroke:#000000;stroke-width:1.5;" width="89" x="156.75" y="160.2344"/><text fill="#000000" font-family="sans-serif" font-size="14" lengthAdjust="spacing" textLength="69" x="166.75" y="183.7695">StockView</text><!--MD5=[2bdd11f7ec6dc33c4fc76317ec21eb76]
entity Foundation--><rect fill="#FEFECE" filter="url(#f7ckkjwhz36zq)" height="36.4883" style="stroke:#000000;stroke-width:1.5;" width="99" x="31.75" y="338.2344"/><text fill="#000000" font-family="sans-serif" font-size="14" lengthAdjust="spacing" textLength="79" x="41.75" y="361.7695">Foundation</text><!--MD5=[136d3843510b2c22c07ad37b900f1a31]
entity Pile--><rect fill="#FEFECE" filter="url(#f7ckkjwhz36zq)" height="36.4883" style="stroke:#000000;stroke-width:1.5;" width="44" x="149.25" y="338.2344"/><text fill="#000000" font-family="sans-serif" font-size="14" lengthAdjust="spacing" textLength="24" x="159.25" y="361.7695">Pile</text><path d="M129.6782,92.432 C122.5402,102.13 115.1148,113.6924 110.25,125.2344 C105.6082,136.2473 103.102,149.4846 101.7594,159.8473 " fill="none" style="stroke:#A80036;stroke-width:1.0;"/><polygon fill="#A80036" points="101.7594,159.8473,106.8826,151.4358,102.4018,154.8887,98.9489,150.4079,101.7594,159.8473" style="stroke:#A80036;stroke-width:1.0;"/><text fill="#000000" font-family="sans-serif" font-size="13" lengthAdjust="spacing" textLength="63" x="111.25" y="138.8027">moveCard</text><path d="M98.0569,196.5267 C97.3602,206.8557 97.5604,220.091 101.25,231.2344 C103.3624,237.6143 107.0794,243.8342 111.0117,249.2181 " fill="none" style="stroke:#A80036;stroke-width:1.0;"/><polygon fill="#A80036" points="111.0117,249.2181,108.9335,239.591,108.0627,245.1804,102.4732,244.3095,111.0117,249.2181" style="stroke:#A80036;stroke-width:1.0;"/><text fill="#000000" font-family="sans-serif" font-size="13" lengthAdjust="spacing" textLength="63" x="102.25" y="227.8027">moveCard</text><path d="M168.6622,107.2664 C177.1076,125.3993 186.6798,145.9513 193.2532,160.0648 " fill="none" style="stroke:#A80036;stroke-width:1.0;"/><polygon fill="#A80036" points="193.2532,160.0648,193.0794,150.2175,191.1422,155.5323,185.8274,153.5951,193.2532,160.0648" style="stroke:#A80036;stroke-width:1.0;"/><text fill="#000000" font-family="sans-serif" font-size="13" lengthAdjust="spacing" textLength="63" x="186.25" y="138.8027">moveCard</text><path d="M191.2535,196.4295 C184.7542,206.9675 175.7455,220.4558 166.25,231.2344 C160.7602,237.4659 154.1866,243.6418 147.9697,249.0309 " fill="none" style="stroke:#A80036;stroke-width:1.0;"/><polygon fill="#A80036" points="147.9697,249.0309,157.3904,246.1583,151.7478,245.7559,152.1503,240.1133,147.9697,249.0309" style="stroke:#A80036;stroke-width:1.0;"/><text fill="#000000" font-family="sans-serif" font-size="13" lengthAdjust="spacing" textLength="63" x="180.25" y="227.8027">moveCard</text><path d="M228.336,196.2782 C235.3509,201.4898 242.5315,207.6125 248.25,214.2344 C257.2301,224.633 264.4808,238.3929 269.3521,249.1461 " fill="none" style="stroke:#A80036;stroke-width:1.0;stroke-dasharray:7.0,7.0;"/><polygon fill="#A80036" points="269.3521,249.1461,269.2819,239.2975,267.2889,244.5917,261.9947,242.5987,269.3521,249.1461" style="stroke:#A80036;stroke-width:1.0;"/><text fill="#000000" font-family="sans-serif" font-size="13" lengthAdjust="spacing" textLength="84" x="260.25" y="227.8027">getNewCard()</text><path d="M98.8371,285.5018 C93.0506,290.4929 87.6675,296.4536 84.25,303.2344 C78.8778,313.8936 78.248,327.3857 78.8984,337.9553 " fill="none" style="stroke:#A80036;stroke-width:1.0;stroke-dasharray:7.0,7.0;"/><polygon fill="#A80036" points="78.8984,337.9553,82.3381,328.7266,78.5913,332.9647,74.3532,329.2179,78.8984,337.9553" style="stroke:#A80036;stroke-width:1.0;"/><text fill="#000000" font-family="sans-serif" font-size="13" lengthAdjust="spacing" textLength="63" x="85.25" y="316.8027">moveCard</text><path d="M138.3541,285.3014 C142.0718,290.8864 146.0285,297.2065 149.25,303.2344 C155.2564,314.4733 160.8358,327.7071 164.8729,338.0115 " fill="none" style="stroke:#A80036;stroke-width:1.0;stroke-dasharray:7.0,7.0;"/><polygon fill="#A80036" points="164.8729,338.0115,165.3142,328.1726,163.049,333.3561,157.8655,331.0909,164.8729,338.0115" style="stroke:#A80036;stroke-width:1.0;"/><text fill="#000000" font-family="sans-serif" font-size="13" lengthAdjust="spacing" textLength="63" x="159.25" y="316.8027">moveCard</text><!--MD5=[da142c58fb03818e78e8b49eca6c5b45]
@startuml ContextDiagram
!pragma layout smetana
title Klondike  - MoveCard - Context Diagram
left to right direction

actor Player
rectangle PileView
rectangle MoveCardController
rectangle Deck
rectangle StockView
rectangle Foundation
rectangle Pile

Player - -> PileView: moveCard
PileView - -> MoveCardController: moveCard
Player - -> StockView: moveCard
StockView - -> MoveCardController: moveCard
StockView ..> Deck: getNewCard()
MoveCardController ..> Foundation: moveCard
MoveCardController ..> Pile: moveCard

@enduml

PlantUML version 1.2022.0(Tue Jan 11 11:16:42 ECT 2022)
(GPL source distribution)
Java Runtime: OpenJDK Runtime Environment
JVM: OpenJDK 64-Bit Server VM
Default Encoding: UTF-8
Language: es
Country: EC
--></g></svg>