<?xml version="1.0" encoding="UTF-8" standalone="no"?><svg xmlns="http://www.w3.org/2000/svg" xmlns:xlink="http://www.w3.org/1999/xlink" contentScriptType="application/ecmascript" contentStyleType="text/css" height="185px" preserveAspectRatio="none" style="width:772px;height:185px;background:#FFFFFF;" version="1.1" viewBox="0 0 772 185" width="772px" zoomAndPan="magnify"><defs><filter height="300%" id="f1xc8t4ukh0ojx" width="300%" x="-1" y="-1"><feGaussianBlur result="blurOut" stdDeviation="2.0"/><feColorMatrix in="blurOut" result="blurOut2" type="matrix" values="0 0 0 0 0 0 0 0 0 0 0 0 0 0 0 0 0 0 .4 0"/><feOffset dx="4.0" dy="4.0" in="blurOut2" result="blurOut3"/><feBlend in="SourceGraphic" in2="blurOut3" mode="normal"/></filter></defs><g><text fill="#000000" font-family="sans-serif" font-size="18" lengthAdjust="spacing" textLength="255" x="252.1033" y="17.4023">Klondike  - UseCase Diagram</text><!--MD5=[de2effd8dc5bf946a609466312d0f75f]
entity Player--><ellipse cx="366.5" cy="35.7344" fill="#FEFECE" filter="url(#f1xc8t4ukh0ojx)" rx="8" ry="8" style="stroke:#A80036;stroke-width:1.5;"/><path d="M366.5,43.7344 L366.5,70.7344 M353.5,51.7344 L379.5,51.7344 M366.5,70.7344 L353.5,85.7344 M366.5,70.7344 L379.5,85.7344 " fill="none" filter="url(#f1xc8t4ukh0ojx)" style="stroke:#A80036;stroke-width:1.5;"/><text fill="#000000" font-family="sans-serif" font-size="14" lengthAdjust="spacing" textLength="41" x="346" y="104.7695">Player</text><ellipse cx="51.4472" cy="158.3991" fill="#FEFECE" filter="url(#f1xc8t4ukh0ojx)" rx="45.4472" ry="14.6647" style="stroke:#A80036;stroke-width:1.5;"/><text fill="#000000" font-family="sans-serif" font-size="14" lengthAdjust="spacing" textLength="48" x="26.5068" y="161.9485">Shuffle</text><ellipse cx="174.3882" cy="158.0033" fill="#FEFECE" filter="url(#f1xc8t4ukh0ojx)" rx="59.3882" ry="14.7689" style="stroke:#A80036;stroke-width:1.5;"/><text fill="#000000" font-family="sans-serif" font-size="14" lengthAdjust="spacing" textLength="67" x="137.8882" y="162.0209">DealStock</text><ellipse cx="302.2967" cy="158.4252" fill="#FEFECE" filter="url(#f1xc8t4ukh0ojx)" rx="49.7967" ry="14.6909" style="stroke:#A80036;stroke-width:1.5;"/><text fill="#000000" font-family="sans-serif" font-size="14" lengthAdjust="spacing" textLength="54" x="272.854" y="162.3265">DealPile</text><ellipse cx="431.365" cy="158.0133" fill="#FEFECE" filter="url(#f1xc8t4ukh0ojx)" rx="60.865" ry="14.7789" style="stroke:#A80036;stroke-width:1.5;"/><text fill="#000000" font-family="sans-serif" font-size="14" lengthAdjust="spacing" textLength="69" x="393.865" y="162.0309">MoveCard</text><ellipse cx="564.7201" cy="158.464" fill="#FEFECE" filter="url(#f1xc8t4ukh0ojx)" rx="54.2201" ry="14.7296" style="stroke:#A80036;stroke-width:1.5;"/><text fill="#000000" font-family="sans-serif" font-size="14" lengthAdjust="spacing" textLength="60" x="531.7201" y="162.4816">MovePile</text><ellipse cx="698.6033" cy="158.0181" fill="#FEFECE" filter="url(#f1xc8t4ukh0ojx)" rx="61.6033" ry="14.7838" style="stroke:#A80036;stroke-width:1.5;"/><text fill="#000000" font-family="sans-serif" font-size="14" lengthAdjust="spacing" textLength="70" x="660.6033" y="162.0357">ResetDeck</text><path d="M345.832,73.6067 C295.668,87.8597 166.5055,124.5582 97.1459,144.2651 " fill="none" style="stroke:#A80036;stroke-width:1.0;"/><polygon fill="#A80036" points="97.1459,144.2651,106.8965,145.6531,101.9555,142.8986,104.71,137.9577,97.1459,144.2651" style="stroke:#A80036;stroke-width:1.0;"/><path d="M345.9526,77.3124 C311.997,93.1407 244.0193,124.8282 204.6253,143.1916 " fill="none" style="stroke:#A80036;stroke-width:1.0;"/><polygon fill="#A80036" points="204.6253,143.1916,214.4726,143.0145,209.1572,141.0791,211.0926,135.7636,204.6253,143.1916" style="stroke:#A80036;stroke-width:1.0;"/><path d="M345.8977,96.5454 C334.6429,112.2845 321.2244,131.0495 312.3182,143.5042 " fill="none" style="stroke:#A80036;stroke-width:1.0;"/><polygon fill="#A80036" points="312.3182,143.5042,320.807,138.51,315.2266,139.437,314.2996,133.8567,312.3182,143.5042" style="stroke:#A80036;stroke-width:1.0;"/><path d="M387.0664,96.0527 C398.3732,111.6213 411.9177,130.2711 421.0566,142.8547 " fill="none" style="stroke:#A80036;stroke-width:1.0;"/><polygon fill="#A80036" points="421.0566,142.8547,419.0044,133.222,418.1185,138.809,412.5314,137.923,421.0566,142.8547" style="stroke:#A80036;stroke-width:1.0;"/><path d="M387.3152,77.1433 C422.4634,93.031 493.7101,125.2359 534.3355,143.5994 " fill="none" style="stroke:#A80036;stroke-width:1.0;"/><polygon fill="#A80036" points="534.3355,143.5994,527.782,136.2474,529.7794,141.5399,524.4869,143.5373,534.3355,143.5994" style="stroke:#A80036;stroke-width:1.0;"/><path d="M387.2681,73.333 C438.4442,87.129 571.85,123.0923 646.3183,143.1673 " fill="none" style="stroke:#A80036;stroke-width:1.0;"/><polygon fill="#A80036" points="646.3183,143.1673,638.6697,136.9626,641.4907,141.8659,636.5874,144.6869,646.3183,143.1673" style="stroke:#A80036;stroke-width:1.0;"/><!--MD5=[3845273bb3d983360a91e7f4d7c61521]
@startuml ActorsDiagram
!pragma layout smetana
title Klondike  - UseCase Diagram
left to right direction


actor Player
usecase Shuffle
usecase DealStock
usecase DealPile
usecase MoveCard
usecase MovePile
usecase ResetDeck

Player - -> Shuffle
Player - -> DealStock
Player - -> DealPile
Player - -> MoveCard
Player - -> MovePile
Player - -> ResetDeck
@enduml

PlantUML version 1.2022.0(Tue Jan 11 11:16:42 ECT 2022)
(GPL source distribution)
Java Runtime: OpenJDK Runtime Environment
JVM: OpenJDK 64-Bit Server VM
Default Encoding: UTF-8
Language: es
Country: EC
--></g></svg>