<?xml version="1.0" encoding="UTF-8" standalone="no"?><svg xmlns="http://www.w3.org/2000/svg" xmlns:xlink="http://www.w3.org/1999/xlink" contentStyleType="text/css" height="205px" preserveAspectRatio="none" style="width:1898px;height:205px;background:#FFFFFF;" version="1.1" viewBox="0 0 1898 205" width="1898px" zoomAndPan="magnify"><defs/><g><rect height="26.4883" style="stroke:#00000000;stroke-width:1.0;fill:none;" width="306" x="789.1072" y="5"/><text fill="#000000" font-family="sans-serif" font-size="14" font-weight="bold" lengthAdjust="spacing" textLength="296" x="794.1072" y="23.5352">Klondike  - Actors and UseCase Diagram</text><!--MD5=[de2effd8dc5bf946a609466312d0f75f]
entity Player--><g id="elem_Player"><ellipse cx="969.5" cy="51.0234" fill="#F1F1F1" rx="8" ry="8" style="stroke:#181818;stroke-width:0.5;"/><path d="M969.5,59.0234 L969.5,86.0234 M956.5,67.0234 L982.5,67.0234 M969.5,86.0234 L956.5,101.0234 M969.5,86.0234 L982.5,101.0234 " fill="none" style="stroke:#181818;stroke-width:0.5;"/><text fill="#000000" font-family="sans-serif" font-size="14" lengthAdjust="spacing" textLength="41" x="949" y="116.0586">Player</text></g><g id="elem_Login"><ellipse cx="44.3553" cy="177.1824" fill="#F1F1F1" rx="38.3553" ry="14.659" style="stroke:#181818;stroke-width:0.5;"/><text fill="#000000" font-family="sans-serif" font-size="14" lengthAdjust="spacing" textLength="38" x="25.3553" y="180.4734">Login</text></g><g id="elem_StartGame"><ellipse cx="163.6108" cy="176.8456" fill="#F1F1F1" rx="62.1108" ry="14.8222" style="stroke:#181818;stroke-width:0.5;"/><text fill="#000000" font-family="sans-serif" font-size="14" lengthAdjust="spacing" textLength="71" x="125.1108" y="180.8632">StartGame</text></g><g id="elem_DealToWaste"><ellipse cx="311.468" cy="177.017" fill="#F1F1F1" rx="67.968" ry="15.9936" style="stroke:#181818;stroke-width:0.5;"/><text fill="#000000" font-family="sans-serif" font-size="14" lengthAdjust="spacing" textLength="88" x="264.5052" y="181.0268">DealToWaste</text></g><g id="elem_PileToPileMove"><ellipse cx="471.3433" cy="177.0921" fill="#F1F1F1" rx="73.3433" ry="17.0687" style="stroke:#181818;stroke-width:0.5;"/><text fill="#000000" font-family="sans-serif" font-size="14" lengthAdjust="spacing" textLength="102" x="420.2256" y="180.4157">PileToPileMove</text></g><g id="elem_PileToFoundationMove"><ellipse cx="660.5181" cy="176.8271" fill="#F1F1F1" rx="97.0181" ry="21.8036" style="stroke:#181818;stroke-width:0.5;"/><text fill="#000000" font-family="sans-serif" font-size="14" lengthAdjust="spacing" textLength="157" x="582.0181" y="180.1181">PileToFoundationMove</text></g><g id="elem_FoundationToPileMove"><ellipse cx="872.5181" cy="176.8271" fill="#F1F1F1" rx="97.0181" ry="21.8036" style="stroke:#181818;stroke-width:0.5;"/><text fill="#000000" font-family="sans-serif" font-size="14" lengthAdjust="spacing" textLength="157" x="794.0181" y="180.1181">FoundationToPileMove</text></g><g id="elem_WasteToPileMove"><ellipse cx="1067.4685" cy="176.9171" fill="#F1F1F1" rx="79.9685" ry="18.3937" style="stroke:#181818;stroke-width:0.5;"/><text fill="#000000" font-family="sans-serif" font-size="14" lengthAdjust="spacing" textLength="118" x="1008.4685" y="180.2081">WasteToPileMove</text></g><g id="elem_WasteToFondationMove"><ellipse cx="1265.6759" cy="176.9586" fill="#F1F1F1" rx="100.1759" ry="22.4352" style="stroke:#181818;stroke-width:0.5;"/><text fill="#000000" font-family="sans-serif" font-size="14" lengthAdjust="spacing" textLength="164" x="1183.6759" y="180.2496">WasteToFondationMove</text></g><g id="elem_WasteToStockMove"><ellipse cx="1469.5312" cy="177.0297" fill="#F1F1F1" rx="85.5312" ry="19.5062" style="stroke:#181818;stroke-width:0.5;"/><text fill="#000000" font-family="sans-serif" font-size="14" lengthAdjust="spacing" textLength="131" x="1404.0312" y="180.3207">WasteToStockMove</text></g><g id="elem_Undo"><ellipse cx="1610.6482" cy="177.1824" fill="#F1F1F1" rx="37.6482" ry="14.659" style="stroke:#181818;stroke-width:0.5;"/><text fill="#000000" font-family="sans-serif" font-size="14" lengthAdjust="spacing" textLength="37" x="1592.1482" y="180.4734">Undo</text></g><g id="elem_Redo"><ellipse cx="1702.734" cy="177.1824" fill="#F1F1F1" rx="36.234" ry="14.659" style="stroke:#181818;stroke-width:0.5;"/><text fill="#000000" font-family="sans-serif" font-size="14" lengthAdjust="spacing" textLength="35" x="1685.234" y="180.4734">Redo</text></g><g id="elem_RestartGame"><ellipse cx="1824.6072" cy="176.9449" fill="#F1F1F1" rx="67.6072" ry="15.9214" style="stroke:#181818;stroke-width:0.5;"/><text fill="#000000" font-family="sans-serif" font-size="14" lengthAdjust="spacing" textLength="87" x="1778.1072" y="180.9625">RestartGame</text></g><path d="M948.7109,82.3025 C832.4804,86.8013 262.2781,110.795 92.5,154.5234 C85.1607,156.4138 77.5348,159.3384 70.5797,162.4279 " fill="none" style="stroke:#181818;stroke-width:1.0;"/><polygon fill="#181818" points="70.5797,162.4279,80.4286,162.4298,75.1492,160.3981,77.1809,155.1187,70.5797,162.4279" style="stroke:#181818;stroke-width:1.0;"/><path d="M948.8238,82.103 C861.3918,84.8619 513.6958,98.9393 234.5,154.5234 C224.9002,156.4346 214.7428,159.1059 205.2048,161.9176 " fill="none" style="stroke:#181818;stroke-width:1.0;"/><polygon fill="#181818" points="205.2048,161.9176,214.9686,163.2096,210.0008,160.5038,212.7065,155.536,205.2048,161.9176" style="stroke:#181818;stroke-width:1.0;"/><path d="M948.9985,82.9999 C873.7014,88.6544 605.5142,110.8401 388.5,154.5234 C379.6558,156.3037 370.3387,158.566 361.3591,160.9508 " fill="none" style="stroke:#181818;stroke-width:1.0;"/><polygon fill="#181818" points="361.3591,160.9508,371.0843,162.5067,366.1916,159.6674,369.0308,154.7747,361.3591,160.9508" style="stroke:#181818;stroke-width:1.0;"/><path d="M948.6591,84.5902 C887.7108,93.6872 704.6275,121.929 554.5,154.5234 C546.9359,156.1657 539.0201,158.0279 531.2076,159.9529 " fill="none" style="stroke:#181818;stroke-width:1.0;"/><polygon fill="#181818" points="531.2076,159.9529,540.9032,161.6835,536.0624,158.7566,538.9893,153.9158,531.2076,159.9529" style="stroke:#181818;stroke-width:1.0;"/><path d="M948.7458,87.8706 C904.5653,101.3821 799.5155,133.509 729.1948,155.0148 " fill="none" style="stroke:#181818;stroke-width:1.0;"/><polygon fill="#181818" points="729.1948,155.0148,738.9711,156.2079,733.9762,153.5526,736.6315,148.5576,729.1948,155.0148" style="stroke:#181818;stroke-width:1.0;"/><path d="M948.9288,101.5645 C932.9125,117.168 910.732,138.7768 894.3896,154.698 " fill="none" style="stroke:#181818;stroke-width:1.0;"/><polygon fill="#181818" points="894.3896,154.698,903.6274,151.2827,897.971,151.2089,898.0449,145.5525,894.3896,154.698" style="stroke:#181818;stroke-width:1.0;"/><path d="M990.2833,101.5645 C1007.7008,118.3599 1032.3339,142.1132 1049.0598,158.2418 " fill="none" style="stroke:#181818;stroke-width:1.0;"/><polygon fill="#181818" points="1049.0598,158.2418,1045.3577,149.1152,1045.4605,154.7711,1039.8046,154.8739,1049.0598,158.2418" style="stroke:#181818;stroke-width:1.0;"/><path d="M990.3141,88.1685 C1032.8189,101.7384 1131.214,133.1517 1198.0654,154.4945 " fill="none" style="stroke:#181818;stroke-width:1.0;"/><polygon fill="#181818" points="1198.0654,154.4945,1190.7083,147.9468,1193.3023,152.9738,1188.2752,155.5678,1198.0654,154.4945" style="stroke:#181818;stroke-width:1.0;"/><path d="M990.2141,84.9242 C1049.98,94.8078 1227.8185,124.721 1374.5,154.5234 C1379.14,155.4662 1383.9015,156.4599 1388.7024,157.4822 " fill="none" style="stroke:#181818;stroke-width:1.0;"/><polygon fill="#181818" points="1388.7024,157.4822,1380.7328,151.6955,1383.8121,156.4409,1379.0667,159.5201,1388.7024,157.4822" style="stroke:#181818;stroke-width:1.0;"/><path d="M990.257,81.7275 C1067.6543,82.9752 1346.1843,91.8284 1564.5,154.5234 C1571.4478,156.5187 1578.6642,159.4416 1585.2644,162.4932 " fill="none" style="stroke:#181818;stroke-width:1.0;"/><polygon fill="#181818" points="1585.2644,162.4932,1578.774,155.0855,1580.726,160.3949,1575.4166,162.3469,1585.2644,162.4932" style="stroke:#181818;stroke-width:1.0;"/><path d="M990.2405,81.1916 C1074.9212,80.36 1402.0717,82.2587 1657.5,154.5234 C1664.3317,156.4562 1671.4039,159.3567 1677.8615,162.4067 " fill="none" style="stroke:#181818;stroke-width:1.0;"/><polygon fill="#181818" points="1677.8615,162.4067,1671.4318,154.9462,1673.3404,160.2714,1668.0153,162.18,1677.8615,162.4067" style="stroke:#181818;stroke-width:1.0;"/><path d="M990.1211,82.1065 C1080.456,84.9431 1450.0193,99.4928 1747.5,154.5234 C1756.644,156.215 1766.276,158.4938 1775.5141,160.9366 " fill="none" style="stroke:#181818;stroke-width:1.0;"/><polygon fill="#181818" points="1775.5141,160.9366,1767.8358,154.7688,1770.6803,159.6584,1765.7906,162.5029,1775.5141,160.9366" style="stroke:#181818;stroke-width:1.0;"/><!--MD5=[c812c449360378d08239f306e5e8e593]
@startuml ActorsDiagram
title Klondike  - Actors and UseCase Diagram
left to right direction
!pragma layout smetana

actor Player

usecase Login
usecase StartGame
usecase DealToWaste
usecase PileToPileMove
usecase PileToFoundationMove
usecase FoundationToPileMove
usecase WasteToPileMove
usecase WasteToFondationMove
usecase WasteToStockMove
usecase Undo
usecase Redo
usecase RestartGame

Player - -> Login
Player - -> StartGame
Player - -> DealToWaste
Player - -> PileToPileMove
Player - -> PileToFoundationMove
Player - ->  FoundationToPileMove
Player - ->  WasteToPileMove
Player - ->  WasteToFondationMove
Player - ->  WasteToStockMove
Player - ->  Undo
Player - ->  Redo
Player - ->  RestartGame

@enduml

PlantUML version 1.2022.5(Sat Apr 30 05:55:52 ECT 2022)
(GPL source distribution)
Java Runtime: OpenJDK Runtime Environment
JVM: OpenJDK 64-Bit Server VM
Default Encoding: UTF-8
Language: es
Country: EC
--></g></svg>