<?xml version="1.0" encoding="UTF-8" standalone="no"?><svg xmlns="http://www.w3.org/2000/svg" xmlns:xlink="http://www.w3.org/1999/xlink" contentScriptType="application/ecmascript" contentStyleType="text/css" height="200px" preserveAspectRatio="none" style="width:1762px;height:200px;background:#FFFFFF;" version="1.1" viewBox="0 0 1762 200" width="1762px" zoomAndPan="magnify"><defs><filter height="300%" id="fv0z6c67hb794" width="300%" x="-1" y="-1"><feGaussianBlur result="blurOut" stdDeviation="2.0"/><feColorMatrix in="blurOut" result="blurOut2" type="matrix" values="0 0 0 0 0 0 0 0 0 0 0 0 0 0 0 0 0 0 .4 0"/><feOffset dx="4.0" dy="4.0" in="blurOut2" result="blurOut3"/><feBlend in="SourceGraphic" in2="blurOut3" mode="normal"/></filter></defs><g><text fill="#000000" font-family="sans-serif" font-size="18" lengthAdjust="spacing" textLength="255" x="747.1072" y="17.4023">Klondike  - UseCase Diagram</text><!--MD5=[de2effd8dc5bf946a609466312d0f75f]
entity Player--><ellipse cx="925.5" cy="35.7344" fill="#FEFECE" filter="url(#fv0z6c67hb794)" rx="8" ry="8" style="stroke:#A80036;stroke-width:1.5;"/><path d="M925.5,43.7344 L925.5,70.7344 M912.5,51.7344 L938.5,51.7344 M925.5,70.7344 L912.5,85.7344 M925.5,70.7344 L938.5,85.7344 " fill="none" filter="url(#fv0z6c67hb794)" style="stroke:#A80036;stroke-width:1.5;"/><text fill="#000000" font-family="sans-serif" font-size="14" lengthAdjust="spacing" textLength="41" x="905" y="104.7695">Player</text><ellipse cx="44.3553" cy="165.8934" fill="#FEFECE" filter="url(#fv0z6c67hb794)" rx="38.3553" ry="14.659" style="stroke:#A80036;stroke-width:1.5;"/><text fill="#000000" font-family="sans-serif" font-size="14" lengthAdjust="spacing" textLength="38" x="25.3553" y="169.1844">Login</text><ellipse cx="169.468" cy="165.728" fill="#FEFECE" filter="url(#fv0z6c67hb794)" rx="67.968" ry="15.9936" style="stroke:#A80036;stroke-width:1.5;"/><text fill="#000000" font-family="sans-serif" font-size="14" lengthAdjust="spacing" textLength="88" x="122.5052" y="169.7378">DealToWaste</text><ellipse cx="329.3433" cy="165.803" fill="#FEFECE" filter="url(#fv0z6c67hb794)" rx="73.3433" ry="17.0687" style="stroke:#A80036;stroke-width:1.5;"/><text fill="#000000" font-family="sans-serif" font-size="14" lengthAdjust="spacing" textLength="102" x="278.2256" y="169.1266">PileToPileMove</text><ellipse cx="518.5181" cy="165.538" fill="#FEFECE" filter="url(#fv0z6c67hb794)" rx="97.0181" ry="21.8036" style="stroke:#A80036;stroke-width:1.5;"/><text fill="#000000" font-family="sans-serif" font-size="14" lengthAdjust="spacing" textLength="157" x="440.0181" y="168.829">PileToFoundationMove</text><ellipse cx="730.5181" cy="165.538" fill="#FEFECE" filter="url(#fv0z6c67hb794)" rx="97.0181" ry="21.8036" style="stroke:#A80036;stroke-width:1.5;"/><text fill="#000000" font-family="sans-serif" font-size="14" lengthAdjust="spacing" textLength="157" x="652.0181" y="168.829">FoundationToPileMove</text><ellipse cx="925.4685" cy="165.6281" fill="#FEFECE" filter="url(#fv0z6c67hb794)" rx="79.9685" ry="18.3937" style="stroke:#A80036;stroke-width:1.5;"/><text fill="#000000" font-family="sans-serif" font-size="14" lengthAdjust="spacing" textLength="118" x="866.4685" y="168.9191">WasteToPileMove</text><ellipse cx="1123.6759" cy="165.6695" fill="#FEFECE" filter="url(#fv0z6c67hb794)" rx="100.1759" ry="22.4352" style="stroke:#A80036;stroke-width:1.5;"/><text fill="#000000" font-family="sans-serif" font-size="14" lengthAdjust="spacing" textLength="164" x="1041.6759" y="168.9606">WasteToFondationMove</text><ellipse cx="1327.5312" cy="165.7406" fill="#FEFECE" filter="url(#fv0z6c67hb794)" rx="85.5312" ry="19.5062" style="stroke:#A80036;stroke-width:1.5;"/><text fill="#000000" font-family="sans-serif" font-size="14" lengthAdjust="spacing" textLength="131" x="1262.0312" y="169.0316">WasteToStockMove</text><ellipse cx="1468.6482" cy="165.8934" fill="#FEFECE" filter="url(#fv0z6c67hb794)" rx="37.6482" ry="14.659" style="stroke:#A80036;stroke-width:1.5;"/><text fill="#000000" font-family="sans-serif" font-size="14" lengthAdjust="spacing" textLength="37" x="1450.1482" y="169.1844">Undo</text><ellipse cx="1560.734" cy="165.8934" fill="#FEFECE" filter="url(#fv0z6c67hb794)" rx="36.234" ry="14.659" style="stroke:#A80036;stroke-width:1.5;"/><text fill="#000000" font-family="sans-serif" font-size="14" lengthAdjust="spacing" textLength="35" x="1543.234" y="169.1844">Redo</text><ellipse cx="1682.6072" cy="165.6558" fill="#FEFECE" filter="url(#fv0z6c67hb794)" rx="67.6072" ry="15.9214" style="stroke:#A80036;stroke-width:1.5;"/><text fill="#000000" font-family="sans-serif" font-size="14" lengthAdjust="spacing" textLength="87" x="1636.1072" y="169.6734">RestartGame</text><path d="M904.6561,68.6905 C791.8083,74.0075 253.1826,101.2189 92.5,143.2344 C85.1677,145.1516 77.5443,148.0857 70.5893,151.1757 " fill="none" style="stroke:#A80036;stroke-width:1.0;"/><polygon fill="#A80036" points="70.5893,151.1757,80.4381,151.177,75.1586,149.1456,77.19,143.8661,70.5893,151.1757" style="stroke:#A80036;stroke-width:1.0;"/><path d="M904.7619,68.8154 C821.4487,73.4156 503.2502,93.4535 246.5,143.2344 C237.5071,144.978 228.0331,147.2516 218.924,149.666 " fill="none" style="stroke:#A80036;stroke-width:1.0;"/><polygon fill="#A80036" points="218.924,149.666,228.6484,151.2267,223.7571,148.385,226.5987,143.4937,218.924,149.666" style="stroke:#A80036;stroke-width:1.0;"/><path d="M904.8366,69.9679 C835.1004,77.6773 602.1969,104.8214 412.5,143.2344 C404.6218,144.8297 396.3742,146.7086 388.2635,148.6805 " fill="none" style="stroke:#A80036;stroke-width:1.0;"/><polygon fill="#A80036" points="388.2635,148.6805,397.9537,150.4411,393.122,147.4993,396.0638,142.6675,388.2635,148.6805" style="stroke:#A80036;stroke-width:1.0;"/><path d="M904.7573,72.678 C850.7337,85.5534 703.2076,120.7132 606.909,143.6639 " fill="none" style="stroke:#A80036;stroke-width:1.0;"/><polygon fill="#A80036" points="606.909,143.6639,616.5911,145.4684,611.7727,142.5048,614.7364,137.6864,606.909,143.6639" style="stroke:#A80036;stroke-width:1.0;"/><path d="M904.6316,78.1151 C873.3877,93.6569 813.782,123.3069 773.0978,143.5447 " fill="none" style="stroke:#A80036;stroke-width:1.0;"/><polygon fill="#A80036" points="773.0978,143.5447,782.9374,143.1177,777.5745,141.3178,779.3744,135.955,773.0978,143.5447" style="stroke:#A80036;stroke-width:1.0;"/><path d="M925.5,107.4679 C925.5,121.2804 925.5,136.0741 925.5,147.1649 " fill="none" style="stroke:#A80036;stroke-width:1.0;"/><polygon fill="#A80036" points="925.5,147.1649,929.5,138.1649,925.5,142.1649,921.5,138.1649,925.5,147.1649" style="stroke:#A80036;stroke-width:1.0;"/><path d="M946.3152,77.9317 C977.6904,93.3024 1037.8302,122.7648 1079.2767,143.0694 " fill="none" style="stroke:#A80036;stroke-width:1.0;"/><polygon fill="#A80036" points="1079.2767,143.0694,1072.9543,135.5179,1074.7866,140.8697,1069.4347,142.7021,1079.2767,143.0694" style="stroke:#A80036;stroke-width:1.0;"/><path d="M946.2668,72.7453 C1001.896,86.1682 1156.4405,123.4588 1250.8054,146.2285 " fill="none" style="stroke:#A80036;stroke-width:1.0;"/><polygon fill="#A80036" points="1250.8054,146.2285,1242.9947,140.229,1245.9449,145.0557,1241.1182,148.0058,1250.8054,146.2285" style="stroke:#A80036;stroke-width:1.0;"/><path d="M946.3224,68.7667 C1015.4849,72.641 1243.3278,88.9875 1422.5,143.2344 C1429.2497,145.2779 1436.273,148.1439 1442.7398,151.1187 " fill="none" style="stroke:#A80036;stroke-width:1.0;"/><polygon fill="#A80036" points="1442.7398,151.1187,1436.2351,143.7235,1438.1974,149.0291,1432.8918,150.9914,1442.7398,151.1187" style="stroke:#A80036;stroke-width:1.0;"/><path d="M946.1014,68.0206 C1022.9149,69.5758 1299.3086,79.5449 1515.5,143.2344 C1522.3105,145.2407 1529.375,148.1677 1535.8321,151.2196 " fill="none" style="stroke:#A80036;stroke-width:1.0;"/><polygon fill="#A80036" points="1535.8321,151.2196,1529.4045,143.7573,1531.3116,149.083,1525.9859,150.9901,1535.8321,151.2196" style="stroke:#A80036;stroke-width:1.0;"/><path d="M946.2687,68.8125 C1029.7047,73.4012 1348.3723,93.4019 1605.5,143.2344 C1614.4931,144.9773 1623.9671,147.2505 1633.0763,149.6648 " fill="none" style="stroke:#A80036;stroke-width:1.0;"/><polygon fill="#A80036" points="1633.0763,149.6648,1625.4014,143.4926,1628.2431,148.3839,1623.3519,151.2256,1633.0763,149.6648" style="stroke:#A80036;stroke-width:1.0;"/><!--MD5=[995a0afa17cec00c244fd603b8244875]
@startuml ActorsDiagram
title Klondike  - UseCase Diagram
left to right direction
!pragma layout smetana

actor Player

usecase Login
usecase DealToWaste
usecase PileToPileMove
usecase PileToFoundationMove
usecase FoundationToPileMove
usecase WasteToPileMove
usecase WasteToFondationMove
usecase WasteToStockMove
usecase Undo
usecase Redo
usecase RestartGame

Player - -> Login
Player - -> DealToWaste
Player - -> PileToPileMove
Player - -> PileToFoundationMove
Player - ->  FoundationToPileMove
Player - ->  WasteToPileMove
Player - ->  WasteToFondationMove
Player - ->  WasteToStockMove
Player - ->  Undo
Player - ->  Redo
Player - ->  RestartGame

@enduml

PlantUML version 1.2022.0(Tue Jan 11 11:16:42 ECT 2022)
(GPL source distribution)
Java Runtime: OpenJDK Runtime Environment
JVM: OpenJDK 64-Bit Server VM
Default Encoding: UTF-8
Language: es
Country: EC
--></g></svg>