<?xml version="1.0" encoding="UTF-8" standalone="no"?><svg xmlns="http://www.w3.org/2000/svg" xmlns:xlink="http://www.w3.org/1999/xlink" contentScriptType="application/ecmascript" contentStyleType="text/css" height="200px" preserveAspectRatio="none" style="width:1904px;height:200px;background:#FFFFFF;" version="1.1" viewBox="0 0 1904 200" width="1904px" zoomAndPan="magnify"><defs><filter height="300%" id="f127uxdncmqkji" width="300%" x="-1" y="-1"><feGaussianBlur result="blurOut" stdDeviation="2.0"/><feColorMatrix in="blurOut" result="blurOut2" type="matrix" values="0 0 0 0 0 0 0 0 0 0 0 0 0 0 0 0 0 0 .4 0"/><feOffset dx="4.0" dy="4.0" in="blurOut2" result="blurOut3"/><feBlend in="SourceGraphic" in2="blurOut3" mode="normal"/></filter></defs><g><text fill="#000000" font-family="sans-serif" font-size="18" lengthAdjust="spacing" textLength="255" x="818.1072" y="17.4023">Klondike  - UseCase Diagram</text><!--MD5=[de2effd8dc5bf946a609466312d0f75f]
entity Player--><ellipse cx="969.5" cy="35.7344" fill="#FEFECE" filter="url(#f127uxdncmqkji)" rx="8" ry="8" style="stroke:#A80036;stroke-width:1.5;"/><path d="M969.5,43.7344 L969.5,70.7344 M956.5,51.7344 L982.5,51.7344 M969.5,70.7344 L956.5,85.7344 M969.5,70.7344 L982.5,85.7344 " fill="none" filter="url(#f127uxdncmqkji)" style="stroke:#A80036;stroke-width:1.5;"/><text fill="#000000" font-family="sans-serif" font-size="14" lengthAdjust="spacing" textLength="41" x="949" y="104.7695">Player</text><ellipse cx="44.3553" cy="165.8934" fill="#FEFECE" filter="url(#f127uxdncmqkji)" rx="38.3553" ry="14.659" style="stroke:#A80036;stroke-width:1.5;"/><text fill="#000000" font-family="sans-serif" font-size="14" lengthAdjust="spacing" textLength="38" x="25.3553" y="169.1844">Login</text><ellipse cx="163.6108" cy="165.5565" fill="#FEFECE" filter="url(#f127uxdncmqkji)" rx="62.1108" ry="14.8222" style="stroke:#A80036;stroke-width:1.5;"/><text fill="#000000" font-family="sans-serif" font-size="14" lengthAdjust="spacing" textLength="71" x="125.1108" y="169.5741">StartGame</text><ellipse cx="311.468" cy="165.728" fill="#FEFECE" filter="url(#f127uxdncmqkji)" rx="67.968" ry="15.9936" style="stroke:#A80036;stroke-width:1.5;"/><text fill="#000000" font-family="sans-serif" font-size="14" lengthAdjust="spacing" textLength="88" x="264.5052" y="169.7378">DealToWaste</text><ellipse cx="471.3433" cy="165.803" fill="#FEFECE" filter="url(#f127uxdncmqkji)" rx="73.3433" ry="17.0687" style="stroke:#A80036;stroke-width:1.5;"/><text fill="#000000" font-family="sans-serif" font-size="14" lengthAdjust="spacing" textLength="102" x="420.2256" y="169.1266">PileToPileMove</text><ellipse cx="660.5181" cy="165.538" fill="#FEFECE" filter="url(#f127uxdncmqkji)" rx="97.0181" ry="21.8036" style="stroke:#A80036;stroke-width:1.5;"/><text fill="#000000" font-family="sans-serif" font-size="14" lengthAdjust="spacing" textLength="157" x="582.0181" y="168.829">PileToFoundationMove</text><ellipse cx="872.5181" cy="165.538" fill="#FEFECE" filter="url(#f127uxdncmqkji)" rx="97.0181" ry="21.8036" style="stroke:#A80036;stroke-width:1.5;"/><text fill="#000000" font-family="sans-serif" font-size="14" lengthAdjust="spacing" textLength="157" x="794.0181" y="168.829">FoundationToPileMove</text><ellipse cx="1067.4685" cy="165.6281" fill="#FEFECE" filter="url(#f127uxdncmqkji)" rx="79.9685" ry="18.3937" style="stroke:#A80036;stroke-width:1.5;"/><text fill="#000000" font-family="sans-serif" font-size="14" lengthAdjust="spacing" textLength="118" x="1008.4685" y="168.9191">WasteToPileMove</text><ellipse cx="1265.6759" cy="165.6695" fill="#FEFECE" filter="url(#f127uxdncmqkji)" rx="100.1759" ry="22.4352" style="stroke:#A80036;stroke-width:1.5;"/><text fill="#000000" font-family="sans-serif" font-size="14" lengthAdjust="spacing" textLength="164" x="1183.6759" y="168.9606">WasteToFondationMove</text><ellipse cx="1469.5312" cy="165.7406" fill="#FEFECE" filter="url(#f127uxdncmqkji)" rx="85.5312" ry="19.5062" style="stroke:#A80036;stroke-width:1.5;"/><text fill="#000000" font-family="sans-serif" font-size="14" lengthAdjust="spacing" textLength="131" x="1404.0312" y="169.0316">WasteToStockMove</text><ellipse cx="1610.6482" cy="165.8934" fill="#FEFECE" filter="url(#f127uxdncmqkji)" rx="37.6482" ry="14.659" style="stroke:#A80036;stroke-width:1.5;"/><text fill="#000000" font-family="sans-serif" font-size="14" lengthAdjust="spacing" textLength="37" x="1592.1482" y="169.1844">Undo</text><ellipse cx="1702.734" cy="165.8934" fill="#FEFECE" filter="url(#f127uxdncmqkji)" rx="36.234" ry="14.659" style="stroke:#A80036;stroke-width:1.5;"/><text fill="#000000" font-family="sans-serif" font-size="14" lengthAdjust="spacing" textLength="35" x="1685.234" y="169.1844">Redo</text><ellipse cx="1824.6072" cy="165.6558" fill="#FEFECE" filter="url(#f127uxdncmqkji)" rx="67.6072" ry="15.9214" style="stroke:#A80036;stroke-width:1.5;"/><text fill="#000000" font-family="sans-serif" font-size="14" lengthAdjust="spacing" textLength="87" x="1778.1072" y="169.6734">RestartGame</text><path d="M948.7102,68.5802 C832.476,73.4511 262.2567,99.2552 92.5,143.2344 C85.1634,145.1351 77.5385,148.0633 70.5834,151.153 " fill="none" style="stroke:#A80036;stroke-width:1.0;"/><polygon fill="#A80036" points="70.5834,151.153,80.4322,151.1547,75.1528,149.1231,77.1844,143.8437,70.5834,151.153" style="stroke:#A80036;stroke-width:1.0;"/><path d="M948.8238,68.4086 C861.392,71.5629 513.6967,87.1612 234.5,143.2344 C224.9035,145.1617 214.7473,147.8396 205.2096,150.6525 " fill="none" style="stroke:#A80036;stroke-width:1.0;"/><polygon fill="#A80036" points="205.2096,150.6525,214.9735,151.9432,210.0054,149.2381,212.7105,144.27,205.2096,150.6525" style="stroke:#A80036;stroke-width:1.0;"/><path d="M948.74,69.3502 C873.093,75.4665 605.2894,99.1185 388.5,143.2344 C379.6596,145.0334 370.3444,147.3049 361.3654,149.693 " fill="none" style="stroke:#A80036;stroke-width:1.0;"/><polygon fill="#A80036" points="361.3654,149.693,371.0912,151.2453,366.1974,148.4078,369.0349,143.5141,361.3654,149.693" style="stroke:#A80036;stroke-width:1.0;"/><path d="M948.665,70.9685 C887.7327,80.546 704.6885,110.1674 554.5,143.2344 C546.9407,144.8987 539.0278,146.774 531.2168,148.7059 " fill="none" style="stroke:#A80036;stroke-width:1.0;"/><polygon fill="#A80036" points="531.2168,148.7059,540.914,150.428,536.0706,147.5054,538.9932,142.662,531.2168,148.7059" style="stroke:#A80036;stroke-width:1.0;"/><path d="M948.7458,74.2494 C904.227,88.2246 797.9032,121.6013 727.5856,143.6751 " fill="none" style="stroke:#A80036;stroke-width:1.0;"/><polygon fill="#A80036" points="727.5856,143.6751,737.3705,144.796,732.3561,142.1776,734.9744,137.1632,727.5856,143.6751" style="stroke:#A80036;stroke-width:1.0;"/><path d="M948.9288,88.3056 C932.69,104.5444 910.1146,127.1197 893.7121,143.5223 " fill="none" style="stroke:#A80036;stroke-width:1.0;"/><polygon fill="#A80036" points="893.7121,143.5223,902.9045,139.9867,897.2477,139.9867,897.2477,134.3299,893.7121,143.5223" style="stroke:#A80036;stroke-width:1.0;"/><path d="M990.2833,88.3056 C1007.9255,105.7678 1032.9708,130.5575 1049.7032,147.1192 " fill="none" style="stroke:#A80036;stroke-width:1.0;"/><polygon fill="#A80036" points="1049.7032,147.1192,1046.1206,137.9451,1046.1496,143.6018,1040.4928,143.6309,1049.7032,147.1192" style="stroke:#A80036;stroke-width:1.0;"/><path d="M990.3141,74.5552 C1033.1478,88.5919 1132.7405,121.2287 1199.612,143.1427 " fill="none" style="stroke:#A80036;stroke-width:1.0;"/><polygon fill="#A80036" points="1199.612,143.1427,1192.3051,136.5389,1194.8606,141.5857,1189.8139,144.1411,1199.612,143.1427" style="stroke:#A80036;stroke-width:1.0;"/><path d="M990.2071,71.306 C1049.9542,81.6734 1227.7476,112.961 1374.5,143.2344 C1379.1372,144.191 1383.8965,145.1955 1388.6957,146.2261 " fill="none" style="stroke:#A80036;stroke-width:1.0;"/><polygon fill="#A80036" points="1388.6957,146.2261,1380.7361,140.4257,1383.8071,145.1763,1379.0565,148.2474,1388.6957,146.2261" style="stroke:#A80036;stroke-width:1.0;"/><path d="M990.2581,68.0539 C1067.6595,69.7263 1346.2017,80.0552 1564.5,143.2344 C1571.4436,145.244 1578.6586,148.1721 1585.2587,151.2241 " fill="none" style="stroke:#A80036;stroke-width:1.0;"/><polygon fill="#A80036" points="1585.2587,151.2241,1578.7687,143.816,1580.7204,149.1255,1575.4109,151.0772,1585.2587,151.2241" style="stroke:#A80036;stroke-width:1.0;"/><path d="M990.2422,67.5026 C1074.9297,67.0746 1402.1029,70.4828 1657.5,143.2344 C1664.3283,145.1794 1671.3992,148.0844 1677.8567,151.1347 " fill="none" style="stroke:#A80036;stroke-width:1.0;"/><polygon fill="#A80036" points="1677.8567,151.1347,1671.4273,143.6739,1673.3357,148.9991,1668.0105,150.9075,1677.8567,151.1347" style="stroke:#A80036;stroke-width:1.0;"/><path d="M990.121,68.4069 C1080.4554,71.6306 1450.0169,87.7133 1747.5,143.2344 C1756.6413,144.9405 1766.272,147.2262 1775.5097,149.6713 " fill="none" style="stroke:#A80036;stroke-width:1.0;"/><polygon fill="#A80036" points="1775.5097,149.6713,1767.8328,143.5016,1770.6762,148.392,1765.7858,151.2353,1775.5097,149.6713" style="stroke:#A80036;stroke-width:1.0;"/><!--MD5=[13c8b0bcec75435d3123b0dcdf339013]
@startuml ActorsDiagram
title Klondike  - UseCase Diagram
left to right direction
!pragma layout smetana

actor Player

usecase Login
usecase StartGame
usecase DealToWaste
usecase PileToPileMove
usecase PileToFoundationMove
usecase FoundationToPileMove
usecase WasteToPileMove
usecase WasteToFondationMove
usecase WasteToStockMove
usecase Undo
usecase Redo
usecase RestartGame

Player - -> Login
Player - -> StartGame
Player - -> DealToWaste
Player - -> PileToPileMove
Player - -> PileToFoundationMove
Player - ->  FoundationToPileMove
Player - ->  WasteToPileMove
Player - ->  WasteToFondationMove
Player - ->  WasteToStockMove
Player - ->  Undo
Player - ->  Redo
Player - ->  RestartGame

@enduml

PlantUML version 1.2022.0(Tue Jan 11 11:16:42 ECT 2022)
(GPL source distribution)
Java Runtime: OpenJDK Runtime Environment
JVM: OpenJDK 64-Bit Server VM
Default Encoding: UTF-8
Language: es
Country: EC
--></g></svg>