<?xml version="1.0" encoding="UTF-8" standalone="no"?><svg xmlns="http://www.w3.org/2000/svg" xmlns:xlink="http://www.w3.org/1999/xlink" contentStyleType="text/css" height="1097px" preserveAspectRatio="none" style="width:924px;height:1097px;background:#FFFFFF;" version="1.1" viewBox="0 0 924 1097" width="924px" zoomAndPan="magnify"><defs/><g><rect height="26.4883" style="stroke:#00000000;stroke-width:1.0;fill:none;" width="232" x="344.5" y="15"/><text fill="#000000" font-family="sans-serif" font-size="14" font-weight="bold" lengthAdjust="spacing" textLength="222" x="349.5" y="33.5352">Klondike  - Activities Diagram</text><ellipse cx="468" cy="57.4883" fill="#222222" rx="10" ry="10" style="stroke:#222222;stroke-width:1.0;"/><rect fill="#F1F1F1" height="34.1328" rx="12.5" ry="12.5" style="stroke:#181818;stroke-width:0.5;" width="58" x="439" y="87.4883"/><text fill="#000000" font-family="sans-serif" font-size="12" lengthAdjust="spacing" textLength="38" x="449" y="109.0898">Shuffle</text><rect fill="#F1F1F1" height="34.1328" rx="12.5" ry="12.5" style="stroke:#181818;stroke-width:0.5;" width="113" x="411.5" y="141.6211"/><text fill="#000000" font-family="sans-serif" font-size="12" lengthAdjust="spacing" textLength="93" x="421.5" y="163.2227">DealToPile Pile1</text><rect fill="#F1F1F1" height="34.1328" rx="12.5" ry="12.5" style="stroke:#181818;stroke-width:0.5;" width="117" x="409.5" y="251.8887"/><text fill="#000000" font-family="sans-serif" font-size="12" lengthAdjust="spacing" textLength="97" x="419.5" y="273.4902">move toNext Pile</text><rect fill="#F1F1F1" height="34.1328" rx="12.5" ry="12.5" style="stroke:#181818;stroke-width:0.5;" width="81" x="427.5" y="306.0215"/><text fill="#000000" font-family="sans-serif" font-size="12" lengthAdjust="spacing" textLength="61" x="437.5" y="327.623">DealToPile</text><rect fill="#F1F1F1" height="34.1328" rx="12.5" ry="12.5" style="stroke:#181818;stroke-width:0.5;" width="81" x="427.5" y="429.2227"/><text fill="#000000" font-family="sans-serif" font-size="12" lengthAdjust="spacing" textLength="61" x="437.5" y="450.8242">DealToPile</text><polygon fill="#F1F1F1" points="371,373.0879,565,373.0879,577,385.0879,565,397.0879,371,397.0879,359,385.0879,371,373.0879" style="stroke:#181818;stroke-width:0.5;"/><text fill="#000000" font-family="sans-serif" font-size="11" lengthAdjust="spacing" textLength="15" x="472" y="407.7227">No</text><text fill="#000000" font-family="sans-serif" font-size="11" lengthAdjust="spacing" textLength="194" x="371" y="389.2451">areIn Pile oneCardMoreThanLast Pile</text><text fill="#000000" font-family="sans-serif" font-size="11" lengthAdjust="spacing" textLength="19" x="340" y="382.7676">Yes</text><polygon fill="#F1F1F1" points="400.5,195.7539,535.5,195.7539,547.5,207.7539,535.5,219.7539,400.5,219.7539,388.5,207.7539,400.5,195.7539" style="stroke:#181818;stroke-width:0.5;"/><text fill="#000000" font-family="sans-serif" font-size="11" lengthAdjust="spacing" textLength="15" x="472" y="230.3887">No</text><text fill="#000000" font-family="sans-serif" font-size="11" lengthAdjust="spacing" textLength="135" x="400.5" y="211.9111">areSeven Pile on Klondike</text><text fill="#000000" font-family="sans-serif" font-size="11" lengthAdjust="spacing" textLength="19" x="369.5" y="205.4336">Yes</text><rect fill="#F1F1F1" height="34.1328" rx="12.5" ry="12.5" style="stroke:#181818;stroke-width:0.5;" width="186" x="375" y="527.3555"/><text fill="#000000" font-family="sans-serif" font-size="12" lengthAdjust="spacing" textLength="166" x="385" y="548.957">turnUp firstCard on each Pile</text><rect fill="#F1F1F1" height="34.1328" rx="12.5" ry="12.5" style="stroke:#181818;stroke-width:0.5;" width="91" x="422.5" y="581.4883"/><text fill="#000000" font-family="sans-serif" font-size="12" lengthAdjust="spacing" textLength="71" x="432.5" y="603.0898">DealToStock</text><rect fill="#F1F1F1" height="34.1328" rx="12.5" ry="12.5" style="stroke:#181818;stroke-width:0.5;" width="95" x="420.5" y="635.6211"/><text fill="#000000" font-family="sans-serif" font-size="12" lengthAdjust="spacing" textLength="75" x="430.5" y="657.2227">DealToWaste</text><polygon fill="#F1F1F1" points="428.5,733.7539,507.5,733.7539,519.5,745.7539,507.5,757.7539,428.5,757.7539,416.5,745.7539,428.5,733.7539" style="stroke:#181818;stroke-width:0.5;"/><text fill="#000000" font-family="sans-serif" font-size="11" lengthAdjust="spacing" textLength="79" x="428.5" y="749.9111">isSelectedCard</text><rect fill="#F1F1F1" height="34.1328" rx="12.5" ry="12.5" style="stroke:#181818;stroke-width:0.5;" width="105" x="36" y="777.7539"/><text fill="#000000" font-family="sans-serif" font-size="12" lengthAdjust="spacing" textLength="85" x="46" y="799.3555">PileToPileMove</text><rect fill="#F1F1F1" height="34.1328" rx="12.5" ry="12.5" style="stroke:#181818;stroke-width:0.5;" width="148" x="151" y="777.7539"/><text fill="#000000" font-family="sans-serif" font-size="12" lengthAdjust="spacing" textLength="128" x="161" y="799.3555">PileToFoundationMove</text><rect fill="#F1F1F1" height="34.1328" rx="12.5" ry="12.5" style="stroke:#181818;stroke-width:0.5;" width="148" x="309" y="777.7539"/><text fill="#000000" font-family="sans-serif" font-size="12" lengthAdjust="spacing" textLength="128" x="319" y="799.3555">FoundationToPileMove</text><rect fill="#F1F1F1" height="34.1328" rx="12.5" ry="12.5" style="stroke:#181818;stroke-width:0.5;" width="155" x="477" y="777.7539"/><text fill="#000000" font-family="sans-serif" font-size="12" lengthAdjust="spacing" textLength="135" x="487" y="799.3555">WasteToFondationMove</text><rect fill="#F1F1F1" height="34.1328" rx="12.5" ry="12.5" style="stroke:#181818;stroke-width:0.5;" width="119" x="642" y="777.7539"/><text fill="#000000" font-family="sans-serif" font-size="12" lengthAdjust="spacing" textLength="99" x="652" y="799.3555">WasteToPileMove</text><rect fill="#F1F1F1" height="34.1328" rx="12.5" ry="12.5" style="stroke:#181818;stroke-width:0.5;" width="129" x="771" y="777.7539"/><text fill="#000000" font-family="sans-serif" font-size="12" lengthAdjust="spacing" textLength="109" x="781" y="799.3555">WasteToStockMove</text><polygon fill="#F1F1F1" points="468,821.8867,468,821.8867,480,833.8867,468,845.8867,468,845.8867,456,833.8867,468,821.8867" style="stroke:#181818;stroke-width:0.5;"/><polygon fill="#F1F1F1" points="423.5,865.8867,512.5,865.8867,524.5,877.8867,512.5,889.8867,423.5,889.8867,411.5,877.8867,423.5,865.8867" style="stroke:#181818;stroke-width:0.5;"/><text fill="#000000" font-family="sans-serif" font-size="11" lengthAdjust="spacing" textLength="89" x="423.5" y="882.0439">isFoundationFull</text><text fill="#000000" font-family="sans-serif" font-size="11" lengthAdjust="spacing" textLength="18" x="393.5" y="875.5664">yes</text><text fill="#000000" font-family="sans-serif" font-size="11" lengthAdjust="spacing" textLength="14" x="524.5" y="875.5664">no</text><rect fill="#F1F1F1" height="34.1328" rx="12.5" ry="12.5" style="stroke:#181818;stroke-width:0.5;" width="74" x="364.5" y="899.8867"/><text fill="#000000" font-family="sans-serif" font-size="12" lengthAdjust="spacing" textLength="54" x="374.5" y="921.4883">WinGame</text><rect fill="#F1F1F1" height="34.1328" rx="12.5" ry="12.5" style="stroke:#181818;stroke-width:0.5;" width="84" x="492.5" y="948.3643"/><text fill="#000000" font-family="sans-serif" font-size="12" lengthAdjust="spacing" textLength="64" x="502.5" y="969.9658">TryAnother</text><polygon fill="#F1F1F1" points="491.5,899.8867,577.5,899.8867,589.5,911.8867,577.5,923.8867,491.5,923.8867,479.5,911.8867,491.5,899.8867" style="stroke:#181818;stroke-width:0.5;"/><text fill="#000000" font-family="sans-serif" font-size="11" lengthAdjust="spacing" textLength="14" x="538.5" y="934.5215">no</text><text fill="#000000" font-family="sans-serif" font-size="11" lengthAdjust="spacing" textLength="86" x="491.5" y="916.0439">haveMoreMoves</text><text fill="#000000" font-family="sans-serif" font-size="11" lengthAdjust="spacing" textLength="18" x="589.5" y="909.5664">yes</text><polygon fill="#F1F1F1" points="468,689.7539,468,689.7539,480,701.7539,468,713.7539,468,713.7539,456,701.7539,468,689.7539" style="stroke:#181818;stroke-width:0.5;"/><ellipse cx="468" cy="1075.4971" rx="11" ry="11" style="stroke:#222222;stroke-width:1.0;fill:none;"/><ellipse cx="468" cy="1075.4971" fill="#222222" rx="6" ry="6" style="stroke:#111111;stroke-width:1.0;"/><line style="stroke:#181818;stroke-width:1.0;" x1="468" x2="468" y1="67.4883" y2="87.4883"/><polygon fill="#181818" points="464,77.4883,468,87.4883,472,77.4883,468,81.4883" style="stroke:#181818;stroke-width:1.0;"/><line style="stroke:#181818;stroke-width:1.0;" x1="468" x2="468" y1="121.6211" y2="141.6211"/><polygon fill="#181818" points="464,131.6211,468,141.6211,472,131.6211,468,135.6211" style="stroke:#181818;stroke-width:1.0;"/><line style="stroke:#181818;stroke-width:1.0;" x1="468" x2="468" y1="286.0215" y2="306.0215"/><polygon fill="#181818" points="464,296.0215,468,306.0215,472,296.0215,468,300.0215" style="stroke:#181818;stroke-width:1.0;"/><line style="stroke:#181818;stroke-width:1.0;" x1="468" x2="468" y1="397.0879" y2="429.2227"/><polygon fill="#181818" points="464,419.2227,468,429.2227,472,419.2227,468,423.2227" style="stroke:#181818;stroke-width:1.0;"/><line style="stroke:#181818;stroke-width:1.0;" x1="468" x2="468" y1="463.3555" y2="473.3555"/><line style="stroke:#181818;stroke-width:1.0;" x1="468" x2="589" y1="473.3555" y2="473.3555"/><polygon fill="#181818" points="585,437.8115,589,427.8115,593,437.8115,589,433.8115" style="stroke:#181818;stroke-width:1.0;"/><line style="stroke:#181818;stroke-width:1.0;" x1="589" x2="589" y1="385.0879" y2="473.3555"/><line style="stroke:#181818;stroke-width:1.0;" x1="589" x2="577" y1="385.0879" y2="385.0879"/><polygon fill="#181818" points="587,381.0879,577,385.0879,587,389.0879,583,385.0879" style="stroke:#181818;stroke-width:1.0;"/><line style="stroke:#181818;stroke-width:1.0;" x1="359" x2="347" y1="385.0879" y2="385.0879"/><polygon fill="#181818" points="343,423.8115,347,433.8115,351,423.8115,347,427.8115" style="stroke:#181818;stroke-width:1.0;"/><line style="stroke:#181818;stroke-width:1.0;" x1="347" x2="347" y1="385.0879" y2="485.3555"/><line style="stroke:#181818;stroke-width:1.0;" x1="347" x2="601" y1="485.3555" y2="485.3555"/><line style="stroke:#181818;stroke-width:1.0;" x1="601" x2="601" y1="207.7539" y2="485.3555"/><line style="stroke:#181818;stroke-width:1.0;" x1="601" x2="547.5" y1="207.7539" y2="207.7539"/><polygon fill="#181818" points="557.5,203.7539,547.5,207.7539,557.5,211.7539,553.5,207.7539" style="stroke:#181818;stroke-width:1.0;"/><line style="stroke:#181818;stroke-width:1.0;" x1="468" x2="468" y1="340.1543" y2="373.0879"/><polygon fill="#181818" points="464,363.0879,468,373.0879,472,363.0879,468,367.0879" style="stroke:#181818;stroke-width:1.0;"/><line style="stroke:#181818;stroke-width:1.0;" x1="468" x2="468" y1="219.7539" y2="251.8887"/><polygon fill="#181818" points="464,241.8887,468,251.8887,472,241.8887,468,245.8887" style="stroke:#181818;stroke-width:1.0;"/><line style="stroke:#181818;stroke-width:1.0;" x1="388.5" x2="323" y1="207.7539" y2="207.7539"/><polygon fill="#181818" points="319,343.0879,323,353.0879,327,343.0879,323,347.0879" style="stroke:#181818;stroke-width:1.0;"/><line style="stroke:#181818;stroke-width:1.0;" x1="323" x2="323" y1="207.7539" y2="507.3555"/><line style="stroke:#181818;stroke-width:1.0;" x1="323" x2="468" y1="507.3555" y2="507.3555"/><line style="stroke:#181818;stroke-width:1.0;" x1="468" x2="468" y1="507.3555" y2="527.3555"/><polygon fill="#181818" points="464,517.3555,468,527.3555,472,517.3555,468,521.3555" style="stroke:#181818;stroke-width:1.0;"/><line style="stroke:#181818;stroke-width:1.0;" x1="468" x2="468" y1="175.7539" y2="195.7539"/><polygon fill="#181818" points="464,185.7539,468,195.7539,472,185.7539,468,189.7539" style="stroke:#181818;stroke-width:1.0;"/><line style="stroke:#181818;stroke-width:1.0;" x1="468" x2="468" y1="561.4883" y2="581.4883"/><polygon fill="#181818" points="464,571.4883,468,581.4883,472,571.4883,468,575.4883" style="stroke:#181818;stroke-width:1.0;"/><line style="stroke:#181818;stroke-width:1.0;" x1="468" x2="468" y1="615.6211" y2="635.6211"/><polygon fill="#181818" points="464,625.6211,468,635.6211,472,625.6211,468,629.6211" style="stroke:#181818;stroke-width:1.0;"/><line style="stroke:#181818;stroke-width:1.0;" x1="416.5" x2="88.5" y1="745.7539" y2="745.7539"/><line style="stroke:#181818;stroke-width:1.0;" x1="88.5" x2="88.5" y1="745.7539" y2="777.7539"/><polygon fill="#181818" points="84.5,767.7539,88.5,777.7539,92.5,767.7539,88.5,771.7539" style="stroke:#181818;stroke-width:1.0;"/><line style="stroke:#181818;stroke-width:1.0;" x1="519.5" x2="835.5" y1="745.7539" y2="745.7539"/><line style="stroke:#181818;stroke-width:1.0;" x1="835.5" x2="835.5" y1="745.7539" y2="777.7539"/><polygon fill="#181818" points="831.5,767.7539,835.5,777.7539,839.5,767.7539,835.5,771.7539" style="stroke:#181818;stroke-width:1.0;"/><line style="stroke:#181818;stroke-width:1.0;" x1="225" x2="225" y1="745.7539" y2="777.7539"/><polygon fill="#181818" points="221,767.7539,225,777.7539,229,767.7539,225,771.7539" style="stroke:#181818;stroke-width:1.0;"/><line style="stroke:#181818;stroke-width:1.0;" x1="383" x2="383" y1="745.7539" y2="777.7539"/><polygon fill="#181818" points="379,767.7539,383,777.7539,387,767.7539,383,771.7539" style="stroke:#181818;stroke-width:1.0;"/><line style="stroke:#181818;stroke-width:1.0;" x1="554.5" x2="554.5" y1="745.7539" y2="777.7539"/><polygon fill="#181818" points="550.5,767.7539,554.5,777.7539,558.5,767.7539,554.5,771.7539" style="stroke:#181818;stroke-width:1.0;"/><line style="stroke:#181818;stroke-width:1.0;" x1="701.5" x2="701.5" y1="745.7539" y2="777.7539"/><polygon fill="#181818" points="697.5,767.7539,701.5,777.7539,705.5,767.7539,701.5,771.7539" style="stroke:#181818;stroke-width:1.0;"/><line style="stroke:#181818;stroke-width:1.0;" x1="88.5" x2="88.5" y1="811.8867" y2="833.8867"/><line style="stroke:#181818;stroke-width:1.0;" x1="88.5" x2="456" y1="833.8867" y2="833.8867"/><polygon fill="#181818" points="446,829.8867,456,833.8867,446,837.8867,450,833.8867" style="stroke:#181818;stroke-width:1.0;"/><line style="stroke:#181818;stroke-width:1.0;" x1="835.5" x2="835.5" y1="811.8867" y2="833.8867"/><line style="stroke:#181818;stroke-width:1.0;" x1="835.5" x2="480" y1="833.8867" y2="833.8867"/><polygon fill="#181818" points="490,829.8867,480,833.8867,490,837.8867,486,833.8867" style="stroke:#181818;stroke-width:1.0;"/><line style="stroke:#181818;stroke-width:1.0;" x1="225" x2="225" y1="811.8867" y2="833.8867"/><polygon fill="#181818" points="221,823.8867,225,833.8867,229,823.8867,225,827.8867" style="stroke:#181818;stroke-width:1.0;"/><line style="stroke:#181818;stroke-width:1.0;" x1="383" x2="383" y1="811.8867" y2="833.8867"/><polygon fill="#181818" points="379,823.8867,383,833.8867,387,823.8867,383,827.8867" style="stroke:#181818;stroke-width:1.0;"/><line style="stroke:#181818;stroke-width:1.0;" x1="554.5" x2="554.5" y1="811.8867" y2="833.8867"/><polygon fill="#181818" points="550.5,823.8867,554.5,833.8867,558.5,823.8867,554.5,827.8867" style="stroke:#181818;stroke-width:1.0;"/><line style="stroke:#181818;stroke-width:1.0;" x1="701.5" x2="701.5" y1="811.8867" y2="833.8867"/><polygon fill="#181818" points="697.5,823.8867,701.5,833.8867,705.5,823.8867,701.5,827.8867" style="stroke:#181818;stroke-width:1.0;"/><line style="stroke:#181818;stroke-width:1.0;" x1="401.5" x2="401.5" y1="934.0195" y2="969.0195"/><line style="stroke:#181818;stroke-width:1.0;" x1="401.5" x2="24" y1="969.0195" y2="969.0195"/><polygon fill="#181818" points="34,965.0195,24,969.0195,34,973.0195,30,969.0195" style="stroke:#181818;stroke-width:1.0;"/><line style="stroke:#181818;stroke-width:1.0;" x1="534.5" x2="534.5" y1="982.4971" y2="996.4971"/><line style="stroke:#181818;stroke-width:1.0;" x1="534.5" x2="24" y1="996.4971" y2="996.4971"/><polygon fill="#181818" points="34,992.4971,24,996.4971,34,1000.4971,30,996.4971" style="stroke:#181818;stroke-width:1.0;"/><line style="stroke:#181818;stroke-width:1.0;" x1="534.5" x2="534.5" y1="923.8867" y2="948.3643"/><polygon fill="#181818" points="530.5,938.3643,534.5,948.3643,538.5,938.3643,534.5,942.3643" style="stroke:#181818;stroke-width:1.0;"/><line style="stroke:#181818;stroke-width:1.0;" x1="589.5" x2="912" y1="911.8867" y2="911.8867"/><line style="stroke:#181818;stroke-width:1.0;" x1="912" x2="912" y1="701.7539" y2="911.8867"/><line style="stroke:#181818;stroke-width:1.0;" x1="912" x2="480" y1="701.7539" y2="701.7539"/><polygon fill="#181818" points="490,697.7539,480,701.7539,490,705.7539,486,701.7539" style="stroke:#181818;stroke-width:1.0;"/><line style="stroke:#181818;stroke-width:1.0;" x1="411.5" x2="401.5" y1="877.8867" y2="877.8867"/><line style="stroke:#181818;stroke-width:1.0;" x1="401.5" x2="401.5" y1="877.8867" y2="899.8867"/><polygon fill="#181818" points="397.5,889.8867,401.5,899.8867,405.5,889.8867,401.5,893.8867" style="stroke:#181818;stroke-width:1.0;"/><line style="stroke:#181818;stroke-width:1.0;" x1="524.5" x2="534.5" y1="877.8867" y2="877.8867"/><line style="stroke:#181818;stroke-width:1.0;" x1="534.5" x2="534.5" y1="877.8867" y2="899.8867"/><polygon fill="#181818" points="530.5,889.8867,534.5,899.8867,538.5,889.8867,534.5,893.8867" style="stroke:#181818;stroke-width:1.0;"/><line style="stroke:#181818;stroke-width:1.0;" x1="468" x2="468" y1="845.8867" y2="865.8867"/><polygon fill="#181818" points="464,855.8867,468,865.8867,472,855.8867,468,859.8867" style="stroke:#181818;stroke-width:1.0;"/><line style="stroke:#181818;stroke-width:1.0;" x1="468" x2="468" y1="713.7539" y2="733.7539"/><polygon fill="#181818" points="464,723.7539,468,733.7539,472,723.7539,468,727.7539" style="stroke:#181818;stroke-width:1.0;"/><line style="stroke:#181818;stroke-width:1.0;" x1="456" x2="24" y1="701.7539" y2="701.7539"/><polygon fill="#181818" points="20,835.3643,24,845.3643,28,835.3643,24,839.3643" style="stroke:#181818;stroke-width:1.0;"/><line style="stroke:#181818;stroke-width:1.0;" x1="24" x2="24" y1="701.7539" y2="1044.4971"/><line style="stroke:#181818;stroke-width:1.0;" x1="24" x2="468" y1="1044.4971" y2="1044.4971"/><line style="stroke:#181818;stroke-width:1.0;" x1="468" x2="468" y1="1044.4971" y2="1064.4971"/><polygon fill="#181818" points="464,1054.4971,468,1064.4971,472,1054.4971,468,1058.4971" style="stroke:#181818;stroke-width:1.0;"/><line style="stroke:#181818;stroke-width:1.0;" x1="468" x2="468" y1="669.7539" y2="689.7539"/><polygon fill="#181818" points="464,679.7539,468,689.7539,472,679.7539,468,683.7539" style="stroke:#181818;stroke-width:1.0;"/><!--MD5=[789ec0be589ab6ec0a870c2baedba36f]
@startuml ActivitiesDiagram
title Klondike  - Activities Diagram
!pragma layout smetana

start

:Shuffle;
:DealToPile Pile1;

while (areSeven Pile on Klondike)  is (No)
  :move toNext Pile;
  :DealToPile;
  while (areIn Pile oneCardMoreThanLast Pile)  is (No)
    :DealToPile;
  endwhile (Yes)
endwhile (Yes)

:turnUp firstCard on each Pile;
:DealToStock;
:DealToWaste;

while ()
  switch (isSelectedCard)
    case ()
      :PileToPileMove;
    case ()
      :PileToFoundationMove;
    case ()
      :FoundationToPileMove;
    case ()
      :WasteToFondationMove;
    case ()
      :WasteToPileMove;
    case ()
      :WasteToStockMove;
  endswitch

  if (isFoundationFull) then (yes)
    :WinGame;
    break;
  else (no)
    if (haveMoreMoves) then (no)
      :TryAnother;
      break;
    else (yes)
    endif
  endif
endwhile

stop

@enduml

PlantUML version 1.2022.5(Sat Apr 30 05:55:52 ECT 2022)
(GPL source distribution)
Java Runtime: OpenJDK Runtime Environment
JVM: OpenJDK 64-Bit Server VM
Default Encoding: UTF-8
Language: es
Country: EC
--></g></svg>