<?xml version="1.0" encoding="UTF-8" standalone="no"?><svg xmlns="http://www.w3.org/2000/svg" xmlns:xlink="http://www.w3.org/1999/xlink" contentScriptType="application/ecmascript" contentStyleType="text/css" height="1517px" preserveAspectRatio="none" style="width:1344px;height:1517px;background:#FFFFFF;" version="1.1" viewBox="0 0 1344 1517" width="1344px" zoomAndPan="magnify"><defs><filter height="300%" id="f10z7hnbp82tc6" width="300%" x="-1" y="-1"><feGaussianBlur result="blurOut" stdDeviation="2.0"/><feColorMatrix in="blurOut" result="blurOut2" type="matrix" values="0 0 0 0 0 0 0 0 0 0 0 0 0 0 0 0 0 0 .4 0"/><feOffset dx="4.0" dy="4.0" in="blurOut2" result="blurOut3"/><feBlend in="SourceGraphic" in2="blurOut3" mode="normal"/></filter></defs><g><ellipse cx="788" cy="20" fill="#000000" filter="url(#f10z7hnbp82tc6)" rx="10" ry="10" style="stroke:none;stroke-width:1.0;"/><rect fill="#FEFECE" filter="url(#f10z7hnbp82tc6)" height="34.1328" rx="12.5" ry="12.5" style="stroke:#A80036;stroke-width:1.5;" width="92" x="742" y="50"/><text fill="#000000" font-family="sans-serif" font-size="12" lengthAdjust="spacing" textLength="72" x="752" y="71.6016">shuffleCards</text><rect fill="#FEFECE" filter="url(#f10z7hnbp82tc6)" height="34.1328" rx="12.5" ry="12.5" style="stroke:#A80036;stroke-width:1.5;" width="120" x="728" y="104.1328"/><text fill="#000000" font-family="sans-serif" font-size="12" lengthAdjust="spacing" textLength="100" x="738" y="125.7344">dealCard to Pile1</text><rect fill="#FEFECE" filter="url(#f10z7hnbp82tc6)" height="34.1328" rx="12.5" ry="12.5" style="stroke:#A80036;stroke-width:1.5;" width="117" x="729.5" y="214.4004"/><text fill="#000000" font-family="sans-serif" font-size="12" lengthAdjust="spacing" textLength="97" x="739.5" y="236.002">move toNext Pile</text><rect fill="#FEFECE" filter="url(#f10z7hnbp82tc6)" height="34.1328" rx="12.5" ry="12.5" style="stroke:#A80036;stroke-width:1.5;" width="112" x="732" y="268.5332"/><text fill="#000000" font-family="sans-serif" font-size="12" lengthAdjust="spacing" textLength="92" x="742" y="290.1348">dealCard to Pile</text><rect fill="#FEFECE" filter="url(#f10z7hnbp82tc6)" height="34.1328" rx="12.5" ry="12.5" style="stroke:#A80036;stroke-width:1.5;" width="74" x="751" y="391.7344"/><text fill="#000000" font-family="sans-serif" font-size="12" lengthAdjust="spacing" textLength="54" x="761" y="413.3359">DealCard</text><polygon fill="#FEFECE" filter="url(#f10z7hnbp82tc6)" points="691,335.5996,885,335.5996,897,347.5996,885,359.5996,691,359.5996,679,347.5996,691,335.5996" style="stroke:#A80036;stroke-width:1.5;"/><text fill="#000000" font-family="sans-serif" font-size="11" lengthAdjust="spacing" textLength="15" x="792" y="370.2344">No</text><text fill="#000000" font-family="sans-serif" font-size="11" lengthAdjust="spacing" textLength="194" x="691" y="351.7568">areIn Pile oneCardMoreThanLast Pile</text><text fill="#000000" font-family="sans-serif" font-size="11" lengthAdjust="spacing" textLength="19" x="660" y="345.2793">Yes</text><polygon fill="#FEFECE" filter="url(#f10z7hnbp82tc6)" points="720.5,158.2656,855.5,158.2656,867.5,170.2656,855.5,182.2656,720.5,182.2656,708.5,170.2656,720.5,158.2656" style="stroke:#A80036;stroke-width:1.5;"/><text fill="#000000" font-family="sans-serif" font-size="11" lengthAdjust="spacing" textLength="15" x="792" y="192.9004">No</text><text fill="#000000" font-family="sans-serif" font-size="11" lengthAdjust="spacing" textLength="135" x="720.5" y="174.4229">areSeven Pile on Klondike</text><text fill="#000000" font-family="sans-serif" font-size="11" lengthAdjust="spacing" textLength="19" x="689.5" y="167.9453">Yes</text><rect fill="#FEFECE" filter="url(#f10z7hnbp82tc6)" height="34.1328" rx="12.5" ry="12.5" style="stroke:#A80036;stroke-width:1.5;" width="186" x="695" y="489.8672"/><text fill="#000000" font-family="sans-serif" font-size="12" lengthAdjust="spacing" textLength="166" x="705" y="511.4688">turnUp firstCard on each Pile</text><rect fill="#FEFECE" filter="url(#f10z7hnbp82tc6)" height="34.1328" rx="12.5" ry="12.5" style="stroke:#A80036;stroke-width:1.5;" width="194" x="691" y="544"/><text fill="#000000" font-family="sans-serif" font-size="12" lengthAdjust="spacing" textLength="174" x="701" y="565.6016">move remainingCards to Deck</text><path d="M941,602.5439 L941,611.1992 L921,615.1992 L941,619.1992 L941,627.8545 A0,0 0 0 0 941,627.8545 L1273,627.8545 A0,0 0 0 0 1273,627.8545 L1273,612.5439 L1263,602.5439 L941,602.5439 A0,0 0 0 0 941,602.5439 " fill="#FBFB77" filter="url(#f10z7hnbp82tc6)" style="stroke:#A80036;stroke-width:1.0;"/><path d="M1263,602.5439 L1263,612.5439 L1273,612.5439 L1263,602.5439 " fill="#FBFB77" style="stroke:#A80036;stroke-width:1.0;"/><text fill="#000000" font-family="sans-serif" font-size="13" lengthAdjust="spacing" textLength="311" x="947" y="620.1123">The stock is treated how a pile from this moment</text><rect fill="#FEFECE" filter="url(#f10z7hnbp82tc6)" height="34.1328" rx="12.5" ry="12.5" style="stroke:#A80036;stroke-width:1.5;" width="266" x="655" y="598.1328"/><text fill="#000000" font-family="sans-serif" font-size="12" lengthAdjust="spacing" textLength="246" x="665" y="619.7344">turnUp firstThreeCards from Deck to Stock</text><polygon fill="#FEFECE" filter="url(#f10z7hnbp82tc6)" points="756.5,764.5352,819.5,764.5352,831.5,776.5352,819.5,788.5352,756.5,788.5352,744.5,776.5352,756.5,764.5352" style="stroke:#A80036;stroke-width:1.5;"/><text fill="#000000" font-family="sans-serif" font-size="11" lengthAdjust="spacing" textLength="63" x="756.5" y="780.6924">Pile isEmpty</text><text fill="#000000" font-family="sans-serif" font-size="11" lengthAdjust="spacing" textLength="14" x="730.5" y="774.2148">no</text><text fill="#000000" font-family="sans-serif" font-size="11" lengthAdjust="spacing" textLength="18" x="831.5" y="774.2148">yes</text><polygon fill="#FEFECE" filter="url(#f10z7hnbp82tc6)" points="151,798.5352,533,798.5352,545,810.5352,533,822.5352,151,822.5352,139,810.5352,151,798.5352" style="stroke:#A80036;stroke-width:1.5;"/><text fill="#000000" font-family="sans-serif" font-size="11" lengthAdjust="spacing" textLength="382" x="151" y="814.6924">Card is thePrevious Number And DiferentColor that Card inAnother Pile</text><text fill="#000000" font-family="sans-serif" font-size="11" lengthAdjust="spacing" textLength="18" x="121" y="808.2148">yes</text><text fill="#000000" font-family="sans-serif" font-size="11" lengthAdjust="spacing" textLength="14" x="545" y="808.2148">no</text><rect fill="#FEFECE" filter="url(#f10z7hnbp82tc6)" height="34.1328" rx="12.5" ry="12.5" style="stroke:#A80036;stroke-width:1.5;" width="146" x="56" y="832.5352"/><text fill="#000000" font-family="sans-serif" font-size="12" lengthAdjust="spacing" textLength="126" x="66" y="854.1367">move Card toThis Pile</text><rect fill="#FEFECE" filter="url(#f10z7hnbp82tc6)" height="34.1328" rx="12.5" ry="12.5" style="stroke:#A80036;stroke-width:1.5;" width="111" x="73.5" y="901.668"/><text fill="#000000" font-family="sans-serif" font-size="12" lengthAdjust="spacing" textLength="91" x="83.5" y="923.2695">turnUpFirstCard</text><polygon fill="#FEFECE" filter="url(#f10z7hnbp82tc6)" points="519.5,832.5352,590.5,832.5352,602.5,844.5352,590.5,856.5352,519.5,856.5352,507.5,844.5352,519.5,832.5352" style="stroke:#A80036;stroke-width:1.5;"/><text fill="#000000" font-family="sans-serif" font-size="11" lengthAdjust="spacing" textLength="71" x="519.5" y="848.6924">is Card an AS</text><text fill="#000000" font-family="sans-serif" font-size="11" lengthAdjust="spacing" textLength="18" x="489.5" y="842.2148">yes</text><text fill="#000000" font-family="sans-serif" font-size="11" lengthAdjust="spacing" textLength="14" x="602.5" y="842.2148">no</text><rect fill="#FEFECE" filter="url(#f10z7hnbp82tc6)" height="34.1328" rx="12.5" ry="12.5" style="stroke:#A80036;stroke-width:1.5;" width="201" x="252" y="866.5352"/><text fill="#000000" font-family="sans-serif" font-size="12" lengthAdjust="spacing" textLength="181" x="262" y="888.1367">move Card toEmpty Foundation</text><rect fill="#FEFECE" filter="url(#f10z7hnbp82tc6)" height="34.1328" rx="12.5" ry="12.5" style="stroke:#A80036;stroke-width:1.5;" width="111" x="297" y="935.668"/><text fill="#000000" font-family="sans-serif" font-size="12" lengthAdjust="spacing" textLength="91" x="307" y="957.2695">turnUpFirstCard</text><polygon fill="#FEFECE" filter="url(#f10z7hnbp82tc6)" points="587.5,866.5352,927.5,866.5352,939.5,878.5352,927.5,890.5352,587.5,890.5352,575.5,878.5352,587.5,866.5352" style="stroke:#A80036;stroke-width:1.5;"/><text fill="#000000" font-family="sans-serif" font-size="11" lengthAdjust="spacing" textLength="340" x="587.5" y="882.6924">Card is theNext Number andSameColor that Card in Foundation</text><text fill="#000000" font-family="sans-serif" font-size="11" lengthAdjust="spacing" textLength="18" x="557.5" y="876.2148">yes</text><text fill="#000000" font-family="sans-serif" font-size="11" lengthAdjust="spacing" textLength="14" x="939.5" y="876.2148">no</text><rect fill="#FEFECE" filter="url(#f10z7hnbp82tc6)" height="34.1328" rx="12.5" ry="12.5" style="stroke:#A80036;stroke-width:1.5;" width="165" x="483" y="900.5352"/><text fill="#000000" font-family="sans-serif" font-size="12" lengthAdjust="spacing" textLength="145" x="493" y="922.1367">move Card to Foundation</text><rect fill="#FEFECE" filter="url(#f10z7hnbp82tc6)" height="34.1328" rx="12.5" ry="12.5" style="stroke:#A80036;stroke-width:1.5;" width="111" x="510" y="969.668"/><text fill="#000000" font-family="sans-serif" font-size="12" lengthAdjust="spacing" textLength="91" x="520" y="991.2695">turnUpFirstCard</text><polygon fill="#FEFECE" filter="url(#f10z7hnbp82tc6)" points="864,900.5352,1035,900.5352,1047,912.5352,1035,924.5352,864,924.5352,852,912.5352,864,900.5352" style="stroke:#A80036;stroke-width:1.5;"/><text fill="#000000" font-family="sans-serif" font-size="11" lengthAdjust="spacing" textLength="171" x="864" y="916.6924">Card is "K" andSomePile isEmpty</text><text fill="#000000" font-family="sans-serif" font-size="11" lengthAdjust="spacing" textLength="18" x="834" y="910.2148">yes</text><text fill="#000000" font-family="sans-serif" font-size="11" lengthAdjust="spacing" textLength="14" x="1047" y="910.2148">no</text><rect fill="#FEFECE" filter="url(#f10z7hnbp82tc6)" height="34.1328" rx="12.5" ry="12.5" style="stroke:#A80036;stroke-width:1.5;" width="158" x="763" y="934.5352"/><text fill="#000000" font-family="sans-serif" font-size="12" lengthAdjust="spacing" textLength="138" x="773" y="956.1367">move Card toEmpty Pile</text><rect fill="#FEFECE" filter="url(#f10z7hnbp82tc6)" height="34.1328" rx="12.5" ry="12.5" style="stroke:#A80036;stroke-width:1.5;" width="111" x="786.5" y="1003.668"/><text fill="#000000" font-family="sans-serif" font-size="12" lengthAdjust="spacing" textLength="91" x="796.5" y="1025.2695">turnUpFirstCard</text><rect fill="#FEFECE" filter="url(#f10z7hnbp82tc6)" height="34.1328" rx="12.5" ry="12.5" style="stroke:#A80036;stroke-width:1.5;" width="117" x="998.5" y="934.5352"/><text fill="#000000" font-family="sans-serif" font-size="12" lengthAdjust="spacing" textLength="97" x="1008.5" y="956.1367">move toNext Pile</text><polygon fill="#FEFECE" filter="url(#f10z7hnbp82tc6)" points="949.5,1043.8008,961.5,1055.8008,949.5,1067.8008,937.5,1055.8008,949.5,1043.8008" style="stroke:#A80036;stroke-width:1.5;"/><polygon fill="#FEFECE" filter="url(#f10z7hnbp82tc6)" points="757.5,1073.8008,769.5,1085.8008,757.5,1097.8008,745.5,1085.8008,757.5,1073.8008" style="stroke:#A80036;stroke-width:1.5;"/><polygon fill="#FEFECE" filter="url(#f10z7hnbp82tc6)" points="555,1103.8008,567,1115.8008,555,1127.8008,543,1115.8008,555,1103.8008" style="stroke:#A80036;stroke-width:1.5;"/><polygon fill="#FEFECE" filter="url(#f10z7hnbp82tc6)" points="342,1133.8008,354,1145.8008,342,1157.8008,330,1145.8008,342,1133.8008" style="stroke:#A80036;stroke-width:1.5;"/><rect fill="#FEFECE" filter="url(#f10z7hnbp82tc6)" height="34.1328" rx="12.5" ry="12.5" style="stroke:#A80036;stroke-width:1.5;" width="117" x="1175.5" y="798.5352"/><text fill="#000000" font-family="sans-serif" font-size="12" lengthAdjust="spacing" textLength="97" x="1185.5" y="820.1367">move toNext Pile</text><polygon fill="#FEFECE" filter="url(#f10z7hnbp82tc6)" points="788,1163.8008,800,1175.8008,788,1187.8008,776,1175.8008,788,1163.8008" style="stroke:#A80036;stroke-width:1.5;"/><polygon fill="#FEFECE" filter="url(#f10z7hnbp82tc6)" points="750.5,708.4004,825.5,708.4004,837.5,720.4004,825.5,732.4004,750.5,732.4004,738.5,720.4004,750.5,708.4004" style="stroke:#A80036;stroke-width:1.5;"/><text fill="#000000" font-family="sans-serif" font-size="11" lengthAdjust="spacing" textLength="15" x="792" y="743.0352">No</text><text fill="#000000" font-family="sans-serif" font-size="11" lengthAdjust="spacing" textLength="75" x="750.5" y="724.5576">areInEigth Pile</text><text fill="#000000" font-family="sans-serif" font-size="11" lengthAdjust="spacing" textLength="19" x="719.5" y="718.0801">Yes</text><rect fill="#FEFECE" filter="url(#f10z7hnbp82tc6)" height="34.1328" rx="12.5" ry="12.5" style="stroke:#A80036;stroke-width:1.5;" width="196" x="690" y="1229.8008"/><text fill="#000000" font-family="sans-serif" font-size="12" lengthAdjust="spacing" textLength="176" x="700" y="1251.4023">deal Cards from Deck to Stock</text><path d="M858,1288.3447 L858,1297 L838,1301 L858,1305 L858,1313.6553 A0,0 0 0 0 858,1313.6553 L1067,1313.6553 A0,0 0 0 0 1067,1313.6553 L1067,1298.3447 L1057,1288.3447 L858,1288.3447 A0,0 0 0 0 858,1288.3447 " fill="#FBFB77" filter="url(#f10z7hnbp82tc6)" style="stroke:#A80036;stroke-width:1.0;"/><path d="M1057,1288.3447 L1057,1298.3447 L1067,1298.3447 L1057,1288.3447 " fill="#FBFB77" style="stroke:#A80036;stroke-width:1.0;"/><text fill="#000000" font-family="sans-serif" font-size="13" lengthAdjust="spacing" textLength="188" x="864" y="1305.9131">The stock is the first pile now</text><rect fill="#FEFECE" filter="url(#f10z7hnbp82tc6)" height="34.1328" rx="12.5" ry="12.5" style="stroke:#A80036;stroke-width:1.5;" width="100" x="738" y="1283.9336"/><text fill="#000000" font-family="sans-serif" font-size="12" lengthAdjust="spacing" textLength="80" x="748" y="1305.5352">move to Stock</text><polygon fill="#FEFECE" filter="url(#f10z7hnbp82tc6)" points="752.5,652.2656,823.5,652.2656,835.5,664.2656,823.5,676.2656,752.5,676.2656,740.5,664.2656,752.5,652.2656" style="stroke:#A80036;stroke-width:1.5;"/><text fill="#000000" font-family="sans-serif" font-size="11" lengthAdjust="spacing" textLength="15" x="792" y="686.9004">No</text><text fill="#000000" font-family="sans-serif" font-size="11" lengthAdjust="spacing" textLength="71" x="752.5" y="668.4229">Deck isEmpty</text><text fill="#000000" font-family="sans-serif" font-size="11" lengthAdjust="spacing" textLength="19" x="721.5" y="661.9453">Yes</text><polygon fill="#FEFECE" filter="url(#f10z7hnbp82tc6)" points="735,1360.0664,841,1360.0664,853,1372.0664,841,1384.0664,735,1384.0664,723,1372.0664,735,1360.0664" style="stroke:#A80036;stroke-width:1.5;"/><text fill="#000000" font-family="sans-serif" font-size="11" lengthAdjust="spacing" textLength="106" x="735" y="1376.2236">Foundations areFull</text><text fill="#000000" font-family="sans-serif" font-size="11" lengthAdjust="spacing" textLength="18" x="705" y="1369.7461">yes</text><text fill="#000000" font-family="sans-serif" font-size="11" lengthAdjust="spacing" textLength="14" x="853" y="1369.7461">no</text><rect fill="#FEFECE" filter="url(#f10z7hnbp82tc6)" height="34.1328" rx="12.5" ry="12.5" style="stroke:#A80036;stroke-width:1.5;" width="67" x="679.5" y="1394.0664"/><text fill="#000000" font-family="sans-serif" font-size="12" lengthAdjust="spacing" textLength="47" x="689.5" y="1415.668">Play Win</text><rect fill="#FEFECE" filter="url(#f10z7hnbp82tc6)" height="34.1328" rx="12.5" ry="12.5" style="stroke:#A80036;stroke-width:1.5;" width="85" x="820.5" y="1394.0664"/><text fill="#000000" font-family="sans-serif" font-size="12" lengthAdjust="spacing" textLength="65" x="830.5" y="1415.668">Game Over</text><polygon fill="#FEFECE" filter="url(#f10z7hnbp82tc6)" points="788,1434.1992,800,1446.1992,788,1458.1992,776,1446.1992,788,1434.1992" style="stroke:#A80036;stroke-width:1.5;"/><ellipse cx="788" cy="1489.1992" fill="#FFFFFF" filter="url(#f10z7hnbp82tc6)" rx="11" ry="11" style="stroke:#000000;stroke-width:1.0;"/><ellipse cx="788" cy="1489.1992" fill="#000000" rx="6" ry="6" style="stroke:#7F7F7F;stroke-width:1.0;"/><line style="stroke:#A80036;stroke-width:1.5;" x1="788" x2="788" y1="30" y2="50"/><polygon fill="#A80036" points="784,40,788,50,792,40,788,44" style="stroke:#A80036;stroke-width:1.0;"/><line style="stroke:#A80036;stroke-width:1.5;" x1="788" x2="788" y1="84.1328" y2="104.1328"/><polygon fill="#A80036" points="784,94.1328,788,104.1328,792,94.1328,788,98.1328" style="stroke:#A80036;stroke-width:1.0;"/><line style="stroke:#A80036;stroke-width:1.5;" x1="788" x2="788" y1="248.5332" y2="268.5332"/><polygon fill="#A80036" points="784,258.5332,788,268.5332,792,258.5332,788,262.5332" style="stroke:#A80036;stroke-width:1.0;"/><line style="stroke:#A80036;stroke-width:1.5;" x1="788" x2="788" y1="359.5996" y2="391.7344"/><polygon fill="#A80036" points="784,381.7344,788,391.7344,792,381.7344,788,385.7344" style="stroke:#A80036;stroke-width:1.0;"/><line style="stroke:#A80036;stroke-width:1.5;" x1="788" x2="788" y1="425.8672" y2="435.8672"/><line style="stroke:#A80036;stroke-width:1.5;" x1="788" x2="909" y1="435.8672" y2="435.8672"/><polygon fill="#A80036" points="905,400.3232,909,390.3232,913,400.3232,909,396.3232" style="stroke:#A80036;stroke-width:1.5;"/><line style="stroke:#A80036;stroke-width:1.5;" x1="909" x2="909" y1="347.5996" y2="435.8672"/><line style="stroke:#A80036;stroke-width:1.5;" x1="909" x2="897" y1="347.5996" y2="347.5996"/><polygon fill="#A80036" points="907,343.5996,897,347.5996,907,351.5996,903,347.5996" style="stroke:#A80036;stroke-width:1.0;"/><line style="stroke:#A80036;stroke-width:1.5;" x1="679" x2="667" y1="347.5996" y2="347.5996"/><polygon fill="#A80036" points="663,386.3232,667,396.3232,671,386.3232,667,390.3232" style="stroke:#A80036;stroke-width:1.5;"/><line style="stroke:#A80036;stroke-width:1.5;" x1="667" x2="667" y1="347.5996" y2="447.8672"/><line style="stroke:#A80036;stroke-width:1.5;" x1="667" x2="921" y1="447.8672" y2="447.8672"/><line style="stroke:#A80036;stroke-width:1.5;" x1="921" x2="921" y1="170.2656" y2="447.8672"/><line style="stroke:#A80036;stroke-width:1.5;" x1="921" x2="867.5" y1="170.2656" y2="170.2656"/><polygon fill="#A80036" points="877.5,166.2656,867.5,170.2656,877.5,174.2656,873.5,170.2656" style="stroke:#A80036;stroke-width:1.0;"/><line style="stroke:#A80036;stroke-width:1.5;" x1="788" x2="788" y1="302.666" y2="335.5996"/><polygon fill="#A80036" points="784,325.5996,788,335.5996,792,325.5996,788,329.5996" style="stroke:#A80036;stroke-width:1.0;"/><line style="stroke:#A80036;stroke-width:1.5;" x1="788" x2="788" y1="182.2656" y2="214.4004"/><polygon fill="#A80036" points="784,204.4004,788,214.4004,792,204.4004,788,208.4004" style="stroke:#A80036;stroke-width:1.0;"/><line style="stroke:#A80036;stroke-width:1.5;" x1="708.5" x2="643" y1="170.2656" y2="170.2656"/><polygon fill="#A80036" points="639,305.5996,643,315.5996,647,305.5996,643,309.5996" style="stroke:#A80036;stroke-width:1.5;"/><line style="stroke:#A80036;stroke-width:1.5;" x1="643" x2="643" y1="170.2656" y2="469.8672"/><line style="stroke:#A80036;stroke-width:1.5;" x1="643" x2="788" y1="469.8672" y2="469.8672"/><line style="stroke:#A80036;stroke-width:1.5;" x1="788" x2="788" y1="469.8672" y2="489.8672"/><polygon fill="#A80036" points="784,479.8672,788,489.8672,792,479.8672,788,483.8672" style="stroke:#A80036;stroke-width:1.0;"/><line style="stroke:#A80036;stroke-width:1.5;" x1="788" x2="788" y1="138.2656" y2="158.2656"/><polygon fill="#A80036" points="784,148.2656,788,158.2656,792,148.2656,788,152.2656" style="stroke:#A80036;stroke-width:1.0;"/><line style="stroke:#A80036;stroke-width:1.5;" x1="788" x2="788" y1="524" y2="544"/><polygon fill="#A80036" points="784,534,788,544,792,534,788,538" style="stroke:#A80036;stroke-width:1.0;"/><line style="stroke:#A80036;stroke-width:1.5;" x1="788" x2="788" y1="578.1328" y2="598.1328"/><polygon fill="#A80036" points="784,588.1328,788,598.1328,792,588.1328,788,592.1328" style="stroke:#A80036;stroke-width:1.0;"/><line style="stroke:#A80036;stroke-width:1.5;" x1="129" x2="129" y1="866.668" y2="901.668"/><polygon fill="#A80036" points="125,891.668,129,901.668,133,891.668,129,895.668" style="stroke:#A80036;stroke-width:1.0;"/><line style="stroke:#A80036;stroke-width:1.5;" x1="352.5" x2="352.5" y1="900.668" y2="935.668"/><polygon fill="#A80036" points="348.5,925.668,352.5,935.668,356.5,925.668,352.5,929.668" style="stroke:#A80036;stroke-width:1.0;"/><line style="stroke:#A80036;stroke-width:1.5;" x1="565.5" x2="565.5" y1="934.668" y2="969.668"/><polygon fill="#A80036" points="561.5,959.668,565.5,969.668,569.5,959.668,565.5,963.668" style="stroke:#A80036;stroke-width:1.0;"/><line style="stroke:#A80036;stroke-width:1.5;" x1="842" x2="842" y1="968.668" y2="1003.668"/><polygon fill="#A80036" points="838,993.668,842,1003.668,846,993.668,842,997.668" style="stroke:#A80036;stroke-width:1.0;"/><line style="stroke:#A80036;stroke-width:1.5;" x1="852" x2="842" y1="912.5352" y2="912.5352"/><line style="stroke:#A80036;stroke-width:1.5;" x1="842" x2="842" y1="912.5352" y2="934.5352"/><polygon fill="#A80036" points="838,924.5352,842,934.5352,846,924.5352,842,928.5352" style="stroke:#A80036;stroke-width:1.0;"/><line style="stroke:#A80036;stroke-width:1.5;" x1="1047" x2="1057" y1="912.5352" y2="912.5352"/><line style="stroke:#A80036;stroke-width:1.5;" x1="1057" x2="1057" y1="912.5352" y2="934.5352"/><polygon fill="#A80036" points="1053,924.5352,1057,934.5352,1061,924.5352,1057,928.5352" style="stroke:#A80036;stroke-width:1.0;"/><line style="stroke:#A80036;stroke-width:1.5;" x1="842" x2="842" y1="1037.8008" y2="1055.8008"/><line style="stroke:#A80036;stroke-width:1.5;" x1="842" x2="937.5" y1="1055.8008" y2="1055.8008"/><polygon fill="#A80036" points="927.5,1051.8008,937.5,1055.8008,927.5,1059.8008,931.5,1055.8008" style="stroke:#A80036;stroke-width:1.0;"/><line style="stroke:#A80036;stroke-width:1.5;" x1="1057" x2="1057" y1="968.668" y2="1055.8008"/><line style="stroke:#A80036;stroke-width:1.5;" x1="1057" x2="961.5" y1="1055.8008" y2="1055.8008"/><polygon fill="#A80036" points="971.5,1051.8008,961.5,1055.8008,971.5,1059.8008,967.5,1055.8008" style="stroke:#A80036;stroke-width:1.0;"/><line style="stroke:#A80036;stroke-width:1.5;" x1="575.5" x2="565.5" y1="878.5352" y2="878.5352"/><line style="stroke:#A80036;stroke-width:1.5;" x1="565.5" x2="565.5" y1="878.5352" y2="900.5352"/><polygon fill="#A80036" points="561.5,890.5352,565.5,900.5352,569.5,890.5352,565.5,894.5352" style="stroke:#A80036;stroke-width:1.0;"/><line style="stroke:#A80036;stroke-width:1.5;" x1="939.5" x2="949.5" y1="878.5352" y2="878.5352"/><line style="stroke:#A80036;stroke-width:1.5;" x1="949.5" x2="949.5" y1="878.5352" y2="900.5352"/><polygon fill="#A80036" points="945.5,890.5352,949.5,900.5352,953.5,890.5352,949.5,894.5352" style="stroke:#A80036;stroke-width:1.0;"/><line style="stroke:#A80036;stroke-width:1.5;" x1="565.5" x2="565.5" y1="1003.8008" y2="1085.8008"/><line style="stroke:#A80036;stroke-width:1.5;" x1="565.5" x2="745.5" y1="1085.8008" y2="1085.8008"/><polygon fill="#A80036" points="735.5,1081.8008,745.5,1085.8008,735.5,1089.8008,739.5,1085.8008" style="stroke:#A80036;stroke-width:1.0;"/><line style="stroke:#A80036;stroke-width:1.5;" x1="949.5" x2="949.5" y1="1067.8008" y2="1085.8008"/><line style="stroke:#A80036;stroke-width:1.5;" x1="949.5" x2="769.5" y1="1085.8008" y2="1085.8008"/><polygon fill="#A80036" points="779.5,1081.8008,769.5,1085.8008,779.5,1089.8008,775.5,1085.8008" style="stroke:#A80036;stroke-width:1.0;"/><line style="stroke:#A80036;stroke-width:1.5;" x1="507.5" x2="352.5" y1="844.5352" y2="844.5352"/><line style="stroke:#A80036;stroke-width:1.5;" x1="352.5" x2="352.5" y1="844.5352" y2="866.5352"/><polygon fill="#A80036" points="348.5,856.5352,352.5,866.5352,356.5,856.5352,352.5,860.5352" style="stroke:#A80036;stroke-width:1.0;"/><line style="stroke:#A80036;stroke-width:1.5;" x1="602.5" x2="757.5" y1="844.5352" y2="844.5352"/><line style="stroke:#A80036;stroke-width:1.5;" x1="757.5" x2="757.5" y1="844.5352" y2="866.5352"/><polygon fill="#A80036" points="753.5,856.5352,757.5,866.5352,761.5,856.5352,757.5,860.5352" style="stroke:#A80036;stroke-width:1.0;"/><line style="stroke:#A80036;stroke-width:1.5;" x1="352.5" x2="352.5" y1="969.8008" y2="1115.8008"/><line style="stroke:#A80036;stroke-width:1.5;" x1="352.5" x2="543" y1="1115.8008" y2="1115.8008"/><polygon fill="#A80036" points="533,1111.8008,543,1115.8008,533,1119.8008,537,1115.8008" style="stroke:#A80036;stroke-width:1.0;"/><line style="stroke:#A80036;stroke-width:1.5;" x1="757.5" x2="757.5" y1="1097.8008" y2="1115.8008"/><line style="stroke:#A80036;stroke-width:1.5;" x1="757.5" x2="567" y1="1115.8008" y2="1115.8008"/><polygon fill="#A80036" points="577,1111.8008,567,1115.8008,577,1119.8008,573,1115.8008" style="stroke:#A80036;stroke-width:1.0;"/><line style="stroke:#A80036;stroke-width:1.5;" x1="139" x2="129" y1="810.5352" y2="810.5352"/><line style="stroke:#A80036;stroke-width:1.5;" x1="129" x2="129" y1="810.5352" y2="832.5352"/><polygon fill="#A80036" points="125,822.5352,129,832.5352,133,822.5352,129,826.5352" style="stroke:#A80036;stroke-width:1.0;"/><line style="stroke:#A80036;stroke-width:1.5;" x1="545" x2="555" y1="810.5352" y2="810.5352"/><line style="stroke:#A80036;stroke-width:1.5;" x1="555" x2="555" y1="810.5352" y2="832.5352"/><polygon fill="#A80036" points="551,822.5352,555,832.5352,559,822.5352,555,826.5352" style="stroke:#A80036;stroke-width:1.0;"/><line style="stroke:#A80036;stroke-width:1.5;" x1="129" x2="129" y1="935.8008" y2="1145.8008"/><line style="stroke:#A80036;stroke-width:1.5;" x1="129" x2="330" y1="1145.8008" y2="1145.8008"/><polygon fill="#A80036" points="320,1141.8008,330,1145.8008,320,1149.8008,324,1145.8008" style="stroke:#A80036;stroke-width:1.0;"/><line style="stroke:#A80036;stroke-width:1.5;" x1="555" x2="555" y1="1127.8008" y2="1145.8008"/><line style="stroke:#A80036;stroke-width:1.5;" x1="555" x2="354" y1="1145.8008" y2="1145.8008"/><polygon fill="#A80036" points="364,1141.8008,354,1145.8008,364,1149.8008,360,1145.8008" style="stroke:#A80036;stroke-width:1.0;"/><line style="stroke:#A80036;stroke-width:1.5;" x1="744.5" x2="342" y1="776.5352" y2="776.5352"/><line style="stroke:#A80036;stroke-width:1.5;" x1="342" x2="342" y1="776.5352" y2="798.5352"/><polygon fill="#A80036" points="338,788.5352,342,798.5352,346,788.5352,342,792.5352" style="stroke:#A80036;stroke-width:1.0;"/><line style="stroke:#A80036;stroke-width:1.5;" x1="831.5" x2="1234" y1="776.5352" y2="776.5352"/><line style="stroke:#A80036;stroke-width:1.5;" x1="1234" x2="1234" y1="776.5352" y2="798.5352"/><polygon fill="#A80036" points="1230,788.5352,1234,798.5352,1238,788.5352,1234,792.5352" style="stroke:#A80036;stroke-width:1.0;"/><line style="stroke:#A80036;stroke-width:1.5;" x1="342" x2="342" y1="1157.8008" y2="1175.8008"/><line style="stroke:#A80036;stroke-width:1.5;" x1="342" x2="776" y1="1175.8008" y2="1175.8008"/><polygon fill="#A80036" points="766,1171.8008,776,1175.8008,766,1179.8008,770,1175.8008" style="stroke:#A80036;stroke-width:1.0;"/><line style="stroke:#A80036;stroke-width:1.5;" x1="1234" x2="1234" y1="832.668" y2="1175.8008"/><line style="stroke:#A80036;stroke-width:1.5;" x1="1234" x2="800" y1="1175.8008" y2="1175.8008"/><polygon fill="#A80036" points="810,1171.8008,800,1175.8008,810,1179.8008,806,1175.8008" style="stroke:#A80036;stroke-width:1.0;"/><line style="stroke:#A80036;stroke-width:1.5;" x1="788" x2="788" y1="732.4004" y2="764.5352"/><polygon fill="#A80036" points="784,754.5352,788,764.5352,792,754.5352,788,758.5352" style="stroke:#A80036;stroke-width:1.0;"/><line style="stroke:#A80036;stroke-width:1.5;" x1="788" x2="788" y1="1187.8008" y2="1197.8008"/><line style="stroke:#A80036;stroke-width:1.5;" x1="788" x2="1306.5" y1="1197.8008" y2="1197.8008"/><polygon fill="#A80036" points="1302.5,967.6904,1306.5,957.6904,1310.5,967.6904,1306.5,963.6904" style="stroke:#A80036;stroke-width:1.5;"/><line style="stroke:#A80036;stroke-width:1.5;" x1="1306.5" x2="1306.5" y1="720.4004" y2="1197.8008"/><line style="stroke:#A80036;stroke-width:1.5;" x1="1306.5" x2="837.5" y1="720.4004" y2="720.4004"/><polygon fill="#A80036" points="847.5,716.4004,837.5,720.4004,847.5,724.4004,843.5,720.4004" style="stroke:#A80036;stroke-width:1.0;"/><line style="stroke:#A80036;stroke-width:1.5;" x1="738.5" x2="42" y1="720.4004" y2="720.4004"/><polygon fill="#A80036" points="38,953.6904,42,963.6904,46,953.6904,42,957.6904" style="stroke:#A80036;stroke-width:1.5;"/><line style="stroke:#A80036;stroke-width:1.5;" x1="42" x2="42" y1="720.4004" y2="1209.8008"/><line style="stroke:#A80036;stroke-width:1.5;" x1="42" x2="788" y1="1209.8008" y2="1209.8008"/><line style="stroke:#A80036;stroke-width:1.5;" x1="788" x2="788" y1="1209.8008" y2="1229.8008"/><polygon fill="#A80036" points="784,1219.8008,788,1229.8008,792,1219.8008,788,1223.8008" style="stroke:#A80036;stroke-width:1.0;"/><line style="stroke:#A80036;stroke-width:1.5;" x1="788" x2="788" y1="1263.9336" y2="1283.9336"/><polygon fill="#A80036" points="784,1273.9336,788,1283.9336,792,1273.9336,788,1277.9336" style="stroke:#A80036;stroke-width:1.0;"/><line style="stroke:#A80036;stroke-width:1.5;" x1="788" x2="788" y1="676.2656" y2="708.4004"/><polygon fill="#A80036" points="784,698.4004,788,708.4004,792,698.4004,788,702.4004" style="stroke:#A80036;stroke-width:1.0;"/><line style="stroke:#A80036;stroke-width:1.5;" x1="788" x2="788" y1="1318.0664" y2="1328.0664"/><line style="stroke:#A80036;stroke-width:1.5;" x1="788" x2="1318.5" y1="1328.0664" y2="1328.0664"/><polygon fill="#A80036" points="1314.5,1018.3457,1318.5,1008.3457,1322.5,1018.3457,1318.5,1014.3457" style="stroke:#A80036;stroke-width:1.5;"/><line style="stroke:#A80036;stroke-width:1.5;" x1="1318.5" x2="1318.5" y1="664.2656" y2="1328.0664"/><line style="stroke:#A80036;stroke-width:1.5;" x1="1318.5" x2="835.5" y1="664.2656" y2="664.2656"/><polygon fill="#A80036" points="845.5,660.2656,835.5,664.2656,845.5,668.2656,841.5,664.2656" style="stroke:#A80036;stroke-width:1.0;"/><line style="stroke:#A80036;stroke-width:1.5;" x1="740.5" x2="24" y1="664.2656" y2="664.2656"/><polygon fill="#A80036" points="20,1004.3457,24,1014.3457,28,1004.3457,24,1008.3457" style="stroke:#A80036;stroke-width:1.5;"/><line style="stroke:#A80036;stroke-width:1.5;" x1="24" x2="24" y1="664.2656" y2="1340.0664"/><line style="stroke:#A80036;stroke-width:1.5;" x1="24" x2="788" y1="1340.0664" y2="1340.0664"/><line style="stroke:#A80036;stroke-width:1.5;" x1="788" x2="788" y1="1340.0664" y2="1360.0664"/><polygon fill="#A80036" points="784,1350.0664,788,1360.0664,792,1350.0664,788,1354.0664" style="stroke:#A80036;stroke-width:1.0;"/><line style="stroke:#A80036;stroke-width:1.5;" x1="788" x2="788" y1="632.2656" y2="652.2656"/><polygon fill="#A80036" points="784,642.2656,788,652.2656,792,642.2656,788,646.2656" style="stroke:#A80036;stroke-width:1.0;"/><line style="stroke:#A80036;stroke-width:1.5;" x1="723" x2="713" y1="1372.0664" y2="1372.0664"/><line style="stroke:#A80036;stroke-width:1.5;" x1="713" x2="713" y1="1372.0664" y2="1394.0664"/><polygon fill="#A80036" points="709,1384.0664,713,1394.0664,717,1384.0664,713,1388.0664" style="stroke:#A80036;stroke-width:1.0;"/><line style="stroke:#A80036;stroke-width:1.5;" x1="853" x2="863" y1="1372.0664" y2="1372.0664"/><line style="stroke:#A80036;stroke-width:1.5;" x1="863" x2="863" y1="1372.0664" y2="1394.0664"/><polygon fill="#A80036" points="859,1384.0664,863,1394.0664,867,1384.0664,863,1388.0664" style="stroke:#A80036;stroke-width:1.0;"/><line style="stroke:#A80036;stroke-width:1.5;" x1="713" x2="713" y1="1428.1992" y2="1446.1992"/><line style="stroke:#A80036;stroke-width:1.5;" x1="713" x2="776" y1="1446.1992" y2="1446.1992"/><polygon fill="#A80036" points="766,1442.1992,776,1446.1992,766,1450.1992,770,1446.1992" style="stroke:#A80036;stroke-width:1.0;"/><line style="stroke:#A80036;stroke-width:1.5;" x1="863" x2="863" y1="1428.1992" y2="1446.1992"/><line style="stroke:#A80036;stroke-width:1.5;" x1="863" x2="800" y1="1446.1992" y2="1446.1992"/><polygon fill="#A80036" points="810,1442.1992,800,1446.1992,810,1450.1992,806,1446.1992" style="stroke:#A80036;stroke-width:1.0;"/><line style="stroke:#A80036;stroke-width:1.5;" x1="788" x2="788" y1="1458.1992" y2="1478.1992"/><polygon fill="#A80036" points="784,1468.1992,788,1478.1992,792,1468.1992,788,1472.1992" style="stroke:#A80036;stroke-width:1.0;"/><!--MD5=[ba13388f96e08283fe531daec924a297]
@startuml Actividades



start
:shuffleCards;
:dealCard to Pile1;

while (areSeven Pile on Klondike)  is (No)
  :move toNext Pile;
  :dealCard to Pile;
  while (areIn Pile oneCardMoreThanLast Pile)  is (No)
    :DealCard;
  endwhile (Yes)
endwhile (Yes)

:turnUp firstCard on each Pile;
:move remainingCards to Deck;
:turnUp firstThreeCards from Deck to Stock; 
note right: The stock is treated how a pile from this moment

while (Deck isEmpty) is (No)
  while (areInEigth Pile) is (No)
    if (Pile isEmpty) then (no)
      if (Card is thePrevious Number And DiferentColor that Card inAnother Pile) then (yes)
        :move Card toThis Pile;
        :turnUpFirstCard;
      else (no)
        if (is Card an AS) then (yes)
          :move Card toEmpty Foundation;
          :turnUpFirstCard;
        else (no)
          if (Card is theNext Number andSameColor that Card in Foundation) then (yes)
            :move Card to Foundation;
            :turnUpFirstCard;
          else (no)
            if (Card is "K" andSomePile isEmpty) then (yes) 
              :move Card toEmpty Pile;
              :turnUpFirstCard;
            else (no)
              :move toNext Pile;

             endif
           endif
         endif
      endif
    else (yes)
      :move toNext Pile;
    endif
  endwhile (Yes)
  :deal Cards from Deck to Stock; 
  :move to Stock; 
  note right: The stock is the first pile now
endwhile (Yes)
if (Foundations areFull) then (yes)
  :Play Win;
else (no)
  :Game Over;
endif

stop

@enduml 

PlantUML version 1.2022.0(Tue Jan 11 11:16:42 ECT 2022)
(GPL source distribution)
Java Runtime: OpenJDK Runtime Environment
JVM: OpenJDK 64-Bit Server VM
Default Encoding: UTF-8
Language: es
Country: EC
--></g></svg>