<?xml version="1.0" encoding="UTF-8" standalone="no"?><svg xmlns="http://www.w3.org/2000/svg" xmlns:xlink="http://www.w3.org/1999/xlink" contentScriptType="application/ecmascript" contentStyleType="text/css" height="1087px" preserveAspectRatio="none" style="width:938px;height:1087px;background:#FFFFFF;" version="1.1" viewBox="0 0 938 1087" width="938px" zoomAndPan="magnify"><defs><filter height="300%" id="f14af8moicvrdb" width="300%" x="-1" y="-1"><feGaussianBlur result="blurOut" stdDeviation="2.0"/><feColorMatrix in="blurOut" result="blurOut2" type="matrix" values="0 0 0 0 0 0 0 0 0 0 0 0 0 0 0 0 0 0 .4 0"/><feOffset dx="4.0" dy="4.0" in="blurOut2" result="blurOut3"/><feBlend in="SourceGraphic" in2="blurOut3" mode="normal"/></filter></defs><g><text fill="#000000" font-family="sans-serif" font-size="18" lengthAdjust="spacing" textLength="261" x="337.5" y="27.4023">Klondike  - Activities Diagram</text><ellipse cx="475" cy="41.1992" fill="#000000" filter="url(#f14af8moicvrdb)" rx="10" ry="10" style="stroke:none;stroke-width:1.0;"/><rect fill="#FEFECE" filter="url(#f14af8moicvrdb)" height="34.1328" rx="12.5" ry="12.5" style="stroke:#A80036;stroke-width:1.5;" width="58" x="446" y="71.1992"/><text fill="#000000" font-family="sans-serif" font-size="12" lengthAdjust="spacing" textLength="38" x="456" y="92.8008">Shuffle</text><rect fill="#FEFECE" filter="url(#f14af8moicvrdb)" height="34.1328" rx="12.5" ry="12.5" style="stroke:#A80036;stroke-width:1.5;" width="113" x="418.5" y="125.332"/><text fill="#000000" font-family="sans-serif" font-size="12" lengthAdjust="spacing" textLength="93" x="428.5" y="146.9336">DealToPile Pile1</text><rect fill="#FEFECE" filter="url(#f14af8moicvrdb)" height="34.1328" rx="12.5" ry="12.5" style="stroke:#A80036;stroke-width:1.5;" width="117" x="416.5" y="235.5996"/><text fill="#000000" font-family="sans-serif" font-size="12" lengthAdjust="spacing" textLength="97" x="426.5" y="257.2012">move toNext Pile</text><rect fill="#FEFECE" filter="url(#f14af8moicvrdb)" height="34.1328" rx="12.5" ry="12.5" style="stroke:#A80036;stroke-width:1.5;" width="81" x="434.5" y="289.7324"/><text fill="#000000" font-family="sans-serif" font-size="12" lengthAdjust="spacing" textLength="61" x="444.5" y="311.334">DealToPile</text><rect fill="#FEFECE" filter="url(#f14af8moicvrdb)" height="34.1328" rx="12.5" ry="12.5" style="stroke:#A80036;stroke-width:1.5;" width="81" x="434.5" y="412.9336"/><text fill="#000000" font-family="sans-serif" font-size="12" lengthAdjust="spacing" textLength="61" x="444.5" y="434.5352">DealToPile</text><polygon fill="#FEFECE" filter="url(#f14af8moicvrdb)" points="378,356.7988,572,356.7988,584,368.7988,572,380.7988,378,380.7988,366,368.7988,378,356.7988" style="stroke:#A80036;stroke-width:1.5;"/><text fill="#000000" font-family="sans-serif" font-size="11" lengthAdjust="spacing" textLength="15" x="479" y="391.4336">No</text><text fill="#000000" font-family="sans-serif" font-size="11" lengthAdjust="spacing" textLength="194" x="378" y="372.9561">areIn Pile oneCardMoreThanLast Pile</text><text fill="#000000" font-family="sans-serif" font-size="11" lengthAdjust="spacing" textLength="19" x="347" y="366.4785">Yes</text><polygon fill="#FEFECE" filter="url(#f14af8moicvrdb)" points="407.5,179.4648,542.5,179.4648,554.5,191.4648,542.5,203.4648,407.5,203.4648,395.5,191.4648,407.5,179.4648" style="stroke:#A80036;stroke-width:1.5;"/><text fill="#000000" font-family="sans-serif" font-size="11" lengthAdjust="spacing" textLength="15" x="479" y="214.0996">No</text><text fill="#000000" font-family="sans-serif" font-size="11" lengthAdjust="spacing" textLength="135" x="407.5" y="195.6221">areSeven Pile on Klondike</text><text fill="#000000" font-family="sans-serif" font-size="11" lengthAdjust="spacing" textLength="19" x="376.5" y="189.1445">Yes</text><rect fill="#FEFECE" filter="url(#f14af8moicvrdb)" height="34.1328" rx="12.5" ry="12.5" style="stroke:#A80036;stroke-width:1.5;" width="186" x="382" y="511.0664"/><text fill="#000000" font-family="sans-serif" font-size="12" lengthAdjust="spacing" textLength="166" x="392" y="532.668">turnUp firstCard on each Pile</text><rect fill="#FEFECE" filter="url(#f14af8moicvrdb)" height="34.1328" rx="12.5" ry="12.5" style="stroke:#A80036;stroke-width:1.5;" width="91" x="429.5" y="565.1992"/><text fill="#000000" font-family="sans-serif" font-size="12" lengthAdjust="spacing" textLength="71" x="439.5" y="586.8008">DealToStock</text><rect fill="#FEFECE" filter="url(#f14af8moicvrdb)" height="34.1328" rx="12.5" ry="12.5" style="stroke:#A80036;stroke-width:1.5;" width="95" x="427.5" y="619.332"/><text fill="#000000" font-family="sans-serif" font-size="12" lengthAdjust="spacing" textLength="75" x="437.5" y="640.9336">DealToWaste</text><polygon fill="#FEFECE" filter="url(#f14af8moicvrdb)" points="435.5,717.4648,514.5,717.4648,526.5,729.4648,514.5,741.4648,435.5,741.4648,423.5,729.4648,435.5,717.4648" style="stroke:#A80036;stroke-width:1.5;"/><text fill="#000000" font-family="sans-serif" font-size="11" lengthAdjust="spacing" textLength="79" x="435.5" y="733.6221">isSelectedCard</text><rect fill="#FEFECE" filter="url(#f14af8moicvrdb)" height="34.1328" rx="12.5" ry="12.5" style="stroke:#A80036;stroke-width:1.5;" width="105" x="36" y="761.4648"/><text fill="#000000" font-family="sans-serif" font-size="12" lengthAdjust="spacing" textLength="85" x="46" y="783.0664">PileToPileMove</text><rect fill="#FEFECE" filter="url(#f14af8moicvrdb)" height="34.1328" rx="12.5" ry="12.5" style="stroke:#A80036;stroke-width:1.5;" width="148" x="151" y="761.4648"/><text fill="#000000" font-family="sans-serif" font-size="12" lengthAdjust="spacing" textLength="128" x="161" y="783.0664">PileToFoundationMove</text><rect fill="#FEFECE" filter="url(#f14af8moicvrdb)" height="34.1328" rx="12.5" ry="12.5" style="stroke:#A80036;stroke-width:1.5;" width="162" x="309" y="761.4648"/><text fill="#000000" font-family="sans-serif" font-size="12" lengthAdjust="spacing" textLength="142" x="319" y="783.0664">FoundationToWasteMove</text><rect fill="#FEFECE" filter="url(#f14af8moicvrdb)" height="34.1328" rx="12.5" ry="12.5" style="stroke:#A80036;stroke-width:1.5;" width="155" x="491" y="761.4648"/><text fill="#000000" font-family="sans-serif" font-size="12" lengthAdjust="spacing" textLength="135" x="501" y="783.0664">WasteToFondationMove</text><rect fill="#FEFECE" filter="url(#f14af8moicvrdb)" height="34.1328" rx="12.5" ry="12.5" style="stroke:#A80036;stroke-width:1.5;" width="119" x="656" y="761.4648"/><text fill="#000000" font-family="sans-serif" font-size="12" lengthAdjust="spacing" textLength="99" x="666" y="783.0664">WasteToPileMove</text><rect fill="#FEFECE" filter="url(#f14af8moicvrdb)" height="34.1328" rx="12.5" ry="12.5" style="stroke:#A80036;stroke-width:1.5;" width="129" x="785" y="761.4648"/><text fill="#000000" font-family="sans-serif" font-size="12" lengthAdjust="spacing" textLength="109" x="795" y="783.0664">WasteToStockMove</text><polygon fill="#FEFECE" filter="url(#f14af8moicvrdb)" points="475,805.5977,475,805.5977,487,817.5977,475,829.5977,475,829.5977,463,817.5977,475,805.5977" style="stroke:#A80036;stroke-width:1.5;"/><polygon fill="#FEFECE" filter="url(#f14af8moicvrdb)" points="430.5,849.5977,519.5,849.5977,531.5,861.5977,519.5,873.5977,430.5,873.5977,418.5,861.5977,430.5,849.5977" style="stroke:#A80036;stroke-width:1.5;"/><text fill="#000000" font-family="sans-serif" font-size="11" lengthAdjust="spacing" textLength="89" x="430.5" y="865.7549">isFoundationFull</text><text fill="#000000" font-family="sans-serif" font-size="11" lengthAdjust="spacing" textLength="18" x="400.5" y="859.2773">yes</text><text fill="#000000" font-family="sans-serif" font-size="11" lengthAdjust="spacing" textLength="14" x="531.5" y="859.2773">no</text><rect fill="#FEFECE" filter="url(#f14af8moicvrdb)" height="34.1328" rx="12.5" ry="12.5" style="stroke:#A80036;stroke-width:1.5;" width="74" x="371.5" y="883.5977"/><text fill="#000000" font-family="sans-serif" font-size="12" lengthAdjust="spacing" textLength="54" x="381.5" y="905.1992">WinGame</text><rect fill="#FEFECE" filter="url(#f14af8moicvrdb)" height="34.1328" rx="12.5" ry="12.5" style="stroke:#A80036;stroke-width:1.5;" width="61" x="511" y="932.0752"/><text fill="#000000" font-family="sans-serif" font-size="12" lengthAdjust="spacing" textLength="41" x="521" y="953.6768">Restart</text><polygon fill="#FEFECE" filter="url(#f14af8moicvrdb)" points="498.5,883.5977,584.5,883.5977,596.5,895.5977,584.5,907.5977,498.5,907.5977,486.5,895.5977,498.5,883.5977" style="stroke:#A80036;stroke-width:1.5;"/><text fill="#000000" font-family="sans-serif" font-size="11" lengthAdjust="spacing" textLength="14" x="545.5" y="918.2324">no</text><text fill="#000000" font-family="sans-serif" font-size="11" lengthAdjust="spacing" textLength="86" x="498.5" y="899.7549">haveMoreMoves</text><text fill="#000000" font-family="sans-serif" font-size="11" lengthAdjust="spacing" textLength="18" x="596.5" y="893.2773">yes</text><polygon fill="#FEFECE" filter="url(#f14af8moicvrdb)" points="475,673.4648,475,673.4648,487,685.4648,475,697.4648,475,697.4648,463,685.4648,475,673.4648" style="stroke:#A80036;stroke-width:1.5;"/><ellipse cx="475" cy="1059.208" fill="#FFFFFF" filter="url(#f14af8moicvrdb)" rx="11" ry="11" style="stroke:#000000;stroke-width:1.0;"/><ellipse cx="475" cy="1059.208" fill="#000000" rx="6" ry="6" style="stroke:#7F7F7F;stroke-width:1.0;"/><line style="stroke:#A80036;stroke-width:1.5;" x1="475" x2="475" y1="51.1992" y2="71.1992"/><polygon fill="#A80036" points="471,61.1992,475,71.1992,479,61.1992,475,65.1992" style="stroke:#A80036;stroke-width:1.0;"/><line style="stroke:#A80036;stroke-width:1.5;" x1="475" x2="475" y1="105.332" y2="125.332"/><polygon fill="#A80036" points="471,115.332,475,125.332,479,115.332,475,119.332" style="stroke:#A80036;stroke-width:1.0;"/><line style="stroke:#A80036;stroke-width:1.5;" x1="475" x2="475" y1="269.7324" y2="289.7324"/><polygon fill="#A80036" points="471,279.7324,475,289.7324,479,279.7324,475,283.7324" style="stroke:#A80036;stroke-width:1.0;"/><line style="stroke:#A80036;stroke-width:1.5;" x1="475" x2="475" y1="380.7988" y2="412.9336"/><polygon fill="#A80036" points="471,402.9336,475,412.9336,479,402.9336,475,406.9336" style="stroke:#A80036;stroke-width:1.0;"/><line style="stroke:#A80036;stroke-width:1.5;" x1="475" x2="475" y1="447.0664" y2="457.0664"/><line style="stroke:#A80036;stroke-width:1.5;" x1="475" x2="596" y1="457.0664" y2="457.0664"/><polygon fill="#A80036" points="592,421.5225,596,411.5225,600,421.5225,596,417.5225" style="stroke:#A80036;stroke-width:1.5;"/><line style="stroke:#A80036;stroke-width:1.5;" x1="596" x2="596" y1="368.7988" y2="457.0664"/><line style="stroke:#A80036;stroke-width:1.5;" x1="596" x2="584" y1="368.7988" y2="368.7988"/><polygon fill="#A80036" points="594,364.7988,584,368.7988,594,372.7988,590,368.7988" style="stroke:#A80036;stroke-width:1.0;"/><line style="stroke:#A80036;stroke-width:1.5;" x1="366" x2="354" y1="368.7988" y2="368.7988"/><polygon fill="#A80036" points="350,407.5225,354,417.5225,358,407.5225,354,411.5225" style="stroke:#A80036;stroke-width:1.5;"/><line style="stroke:#A80036;stroke-width:1.5;" x1="354" x2="354" y1="368.7988" y2="469.0664"/><line style="stroke:#A80036;stroke-width:1.5;" x1="354" x2="608" y1="469.0664" y2="469.0664"/><line style="stroke:#A80036;stroke-width:1.5;" x1="608" x2="608" y1="191.4648" y2="469.0664"/><line style="stroke:#A80036;stroke-width:1.5;" x1="608" x2="554.5" y1="191.4648" y2="191.4648"/><polygon fill="#A80036" points="564.5,187.4648,554.5,191.4648,564.5,195.4648,560.5,191.4648" style="stroke:#A80036;stroke-width:1.0;"/><line style="stroke:#A80036;stroke-width:1.5;" x1="475" x2="475" y1="323.8652" y2="356.7988"/><polygon fill="#A80036" points="471,346.7988,475,356.7988,479,346.7988,475,350.7988" style="stroke:#A80036;stroke-width:1.0;"/><line style="stroke:#A80036;stroke-width:1.5;" x1="475" x2="475" y1="203.4648" y2="235.5996"/><polygon fill="#A80036" points="471,225.5996,475,235.5996,479,225.5996,475,229.5996" style="stroke:#A80036;stroke-width:1.0;"/><line style="stroke:#A80036;stroke-width:1.5;" x1="395.5" x2="330" y1="191.4648" y2="191.4648"/><polygon fill="#A80036" points="326,326.7988,330,336.7988,334,326.7988,330,330.7988" style="stroke:#A80036;stroke-width:1.5;"/><line style="stroke:#A80036;stroke-width:1.5;" x1="330" x2="330" y1="191.4648" y2="491.0664"/><line style="stroke:#A80036;stroke-width:1.5;" x1="330" x2="475" y1="491.0664" y2="491.0664"/><line style="stroke:#A80036;stroke-width:1.5;" x1="475" x2="475" y1="491.0664" y2="511.0664"/><polygon fill="#A80036" points="471,501.0664,475,511.0664,479,501.0664,475,505.0664" style="stroke:#A80036;stroke-width:1.0;"/><line style="stroke:#A80036;stroke-width:1.5;" x1="475" x2="475" y1="159.4648" y2="179.4648"/><polygon fill="#A80036" points="471,169.4648,475,179.4648,479,169.4648,475,173.4648" style="stroke:#A80036;stroke-width:1.0;"/><line style="stroke:#A80036;stroke-width:1.5;" x1="475" x2="475" y1="545.1992" y2="565.1992"/><polygon fill="#A80036" points="471,555.1992,475,565.1992,479,555.1992,475,559.1992" style="stroke:#A80036;stroke-width:1.0;"/><line style="stroke:#A80036;stroke-width:1.5;" x1="475" x2="475" y1="599.332" y2="619.332"/><polygon fill="#A80036" points="471,609.332,475,619.332,479,609.332,475,613.332" style="stroke:#A80036;stroke-width:1.0;"/><line style="stroke:#A80036;stroke-width:1.5;" x1="423.5" x2="88.5" y1="729.4648" y2="729.4648"/><line style="stroke:#A80036;stroke-width:1.5;" x1="88.5" x2="88.5" y1="729.4648" y2="761.4648"/><polygon fill="#A80036" points="84.5,751.4648,88.5,761.4648,92.5,751.4648,88.5,755.4648" style="stroke:#A80036;stroke-width:1.0;"/><line style="stroke:#A80036;stroke-width:1.5;" x1="526.5" x2="849.5" y1="729.4648" y2="729.4648"/><line style="stroke:#A80036;stroke-width:1.5;" x1="849.5" x2="849.5" y1="729.4648" y2="761.4648"/><polygon fill="#A80036" points="845.5,751.4648,849.5,761.4648,853.5,751.4648,849.5,755.4648" style="stroke:#A80036;stroke-width:1.0;"/><line style="stroke:#A80036;stroke-width:1.5;" x1="225" x2="225" y1="729.4648" y2="761.4648"/><polygon fill="#A80036" points="221,751.4648,225,761.4648,229,751.4648,225,755.4648" style="stroke:#A80036;stroke-width:1.0;"/><line style="stroke:#A80036;stroke-width:1.5;" x1="390" x2="390" y1="729.4648" y2="761.4648"/><polygon fill="#A80036" points="386,751.4648,390,761.4648,394,751.4648,390,755.4648" style="stroke:#A80036;stroke-width:1.0;"/><line style="stroke:#A80036;stroke-width:1.5;" x1="568.5" x2="568.5" y1="729.4648" y2="761.4648"/><polygon fill="#A80036" points="564.5,751.4648,568.5,761.4648,572.5,751.4648,568.5,755.4648" style="stroke:#A80036;stroke-width:1.0;"/><line style="stroke:#A80036;stroke-width:1.5;" x1="715.5" x2="715.5" y1="729.4648" y2="761.4648"/><polygon fill="#A80036" points="711.5,751.4648,715.5,761.4648,719.5,751.4648,715.5,755.4648" style="stroke:#A80036;stroke-width:1.0;"/><line style="stroke:#A80036;stroke-width:1.5;" x1="88.5" x2="88.5" y1="795.5977" y2="817.5977"/><line style="stroke:#A80036;stroke-width:1.5;" x1="88.5" x2="463" y1="817.5977" y2="817.5977"/><polygon fill="#A80036" points="453,813.5977,463,817.5977,453,821.5977,457,817.5977" style="stroke:#A80036;stroke-width:1.0;"/><line style="stroke:#A80036;stroke-width:1.5;" x1="849.5" x2="849.5" y1="795.5977" y2="817.5977"/><line style="stroke:#A80036;stroke-width:1.5;" x1="849.5" x2="487" y1="817.5977" y2="817.5977"/><polygon fill="#A80036" points="497,813.5977,487,817.5977,497,821.5977,493,817.5977" style="stroke:#A80036;stroke-width:1.0;"/><line style="stroke:#A80036;stroke-width:1.5;" x1="225" x2="225" y1="795.5977" y2="817.5977"/><polygon fill="#A80036" points="221,807.5977,225,817.5977,229,807.5977,225,811.5977" style="stroke:#A80036;stroke-width:1.0;"/><line style="stroke:#A80036;stroke-width:1.5;" x1="390" x2="390" y1="795.5977" y2="817.5977"/><polygon fill="#A80036" points="386,807.5977,390,817.5977,394,807.5977,390,811.5977" style="stroke:#A80036;stroke-width:1.0;"/><line style="stroke:#A80036;stroke-width:1.5;" x1="568.5" x2="568.5" y1="795.5977" y2="817.5977"/><polygon fill="#A80036" points="564.5,807.5977,568.5,817.5977,572.5,807.5977,568.5,811.5977" style="stroke:#A80036;stroke-width:1.0;"/><line style="stroke:#A80036;stroke-width:1.5;" x1="715.5" x2="715.5" y1="795.5977" y2="817.5977"/><polygon fill="#A80036" points="711.5,807.5977,715.5,817.5977,719.5,807.5977,715.5,811.5977" style="stroke:#A80036;stroke-width:1.0;"/><line style="stroke:#A80036;stroke-width:1.5;" x1="408.5" x2="408.5" y1="917.7305" y2="952.7305"/><line style="stroke:#A80036;stroke-width:1.5;" x1="408.5" x2="24" y1="952.7305" y2="952.7305"/><polygon fill="#A80036" points="34,948.7305,24,952.7305,34,956.7305,30,952.7305" style="stroke:#A80036;stroke-width:1.0;"/><line style="stroke:#A80036;stroke-width:1.5;" x1="541.5" x2="541.5" y1="966.208" y2="980.208"/><line style="stroke:#A80036;stroke-width:1.5;" x1="541.5" x2="24" y1="980.208" y2="980.208"/><polygon fill="#A80036" points="34,976.208,24,980.208,34,984.208,30,980.208" style="stroke:#A80036;stroke-width:1.0;"/><line style="stroke:#A80036;stroke-width:1.5;" x1="541.5" x2="541.5" y1="907.5977" y2="932.0752"/><polygon fill="#A80036" points="537.5,922.0752,541.5,932.0752,545.5,922.0752,541.5,926.0752" style="stroke:#A80036;stroke-width:1.0;"/><line style="stroke:#A80036;stroke-width:1.5;" x1="596.5" x2="926" y1="895.5977" y2="895.5977"/><line style="stroke:#A80036;stroke-width:1.5;" x1="926" x2="926" y1="685.4648" y2="895.5977"/><line style="stroke:#A80036;stroke-width:1.5;" x1="926" x2="487" y1="685.4648" y2="685.4648"/><polygon fill="#A80036" points="497,681.4648,487,685.4648,497,689.4648,493,685.4648" style="stroke:#A80036;stroke-width:1.0;"/><line style="stroke:#A80036;stroke-width:1.5;" x1="418.5" x2="408.5" y1="861.5977" y2="861.5977"/><line style="stroke:#A80036;stroke-width:1.5;" x1="408.5" x2="408.5" y1="861.5977" y2="883.5977"/><polygon fill="#A80036" points="404.5,873.5977,408.5,883.5977,412.5,873.5977,408.5,877.5977" style="stroke:#A80036;stroke-width:1.0;"/><line style="stroke:#A80036;stroke-width:1.5;" x1="531.5" x2="541.5" y1="861.5977" y2="861.5977"/><line style="stroke:#A80036;stroke-width:1.5;" x1="541.5" x2="541.5" y1="861.5977" y2="883.5977"/><polygon fill="#A80036" points="537.5,873.5977,541.5,883.5977,545.5,873.5977,541.5,877.5977" style="stroke:#A80036;stroke-width:1.0;"/><line style="stroke:#A80036;stroke-width:1.5;" x1="475" x2="475" y1="829.5977" y2="849.5977"/><polygon fill="#A80036" points="471,839.5977,475,849.5977,479,839.5977,475,843.5977" style="stroke:#A80036;stroke-width:1.0;"/><line style="stroke:#A80036;stroke-width:1.5;" x1="475" x2="475" y1="697.4648" y2="717.4648"/><polygon fill="#A80036" points="471,707.4648,475,717.4648,479,707.4648,475,711.4648" style="stroke:#A80036;stroke-width:1.0;"/><line style="stroke:#A80036;stroke-width:1.5;" x1="463" x2="24" y1="685.4648" y2="685.4648"/><polygon fill="#A80036" points="20,819.0752,24,829.0752,28,819.0752,24,823.0752" style="stroke:#A80036;stroke-width:1.5;"/><line style="stroke:#A80036;stroke-width:1.5;" x1="24" x2="24" y1="685.4648" y2="1028.208"/><line style="stroke:#A80036;stroke-width:1.5;" x1="24" x2="475" y1="1028.208" y2="1028.208"/><line style="stroke:#A80036;stroke-width:1.5;" x1="475" x2="475" y1="1028.208" y2="1048.208"/><polygon fill="#A80036" points="471,1038.208,475,1048.208,479,1038.208,475,1042.208" style="stroke:#A80036;stroke-width:1.0;"/><line style="stroke:#A80036;stroke-width:1.5;" x1="475" x2="475" y1="653.4648" y2="673.4648"/><polygon fill="#A80036" points="471,663.4648,475,673.4648,479,663.4648,475,667.4648" style="stroke:#A80036;stroke-width:1.0;"/><!--MD5=[4e7fa24d0d6420e83d6ff2dcf91120f7]
@startuml ActivitiesDiagram
title Klondike  - Activities Diagram
!pragma layout smetana

start

:Shuffle;
:DealToPile Pile1;

while (areSeven Pile on Klondike)  is (No)
  :move toNext Pile;
  :DealToPile;
  while (areIn Pile oneCardMoreThanLast Pile)  is (No)
    :DealToPile;
  endwhile (Yes)
endwhile (Yes)

:turnUp firstCard on each Pile;
:DealToStock;
:DealToWaste;

while ()
  switch (isSelectedCard)
    case ()
      :PileToPileMove;
    case ()
      :PileToFoundationMove;
    case ()
      :FoundationToWasteMove;
    case ()
      :WasteToFondationMove;
    case ()
      :WasteToPileMove;
    case ()
      :WasteToStockMove;
  endswitch

  if (isFoundationFull) then (yes)
    :WinGame;
    break;
  else (no)
    if (haveMoreMoves) then (no)
      :Restart;
      break;
    else (yes)
    endif
  endif
endwhile

stop

@enduml

PlantUML version 1.2022.0(Tue Jan 11 11:16:42 ECT 2022)
(GPL source distribution)
Java Runtime: OpenJDK Runtime Environment
JVM: OpenJDK 64-Bit Server VM
Default Encoding: UTF-8
Language: es
Country: EC
--></g></svg>