<?xml version="1.0" encoding="UTF-8" standalone="no"?><svg xmlns="http://www.w3.org/2000/svg" xmlns:xlink="http://www.w3.org/1999/xlink" contentScriptType="application/ecmascript" contentStyleType="text/css" height="1087px" preserveAspectRatio="none" style="width:924px;height:1087px;background:#FFFFFF;" version="1.1" viewBox="0 0 924 1087" width="924px" zoomAndPan="magnify"><defs><filter height="300%" id="fapq1s8fmio1f" width="300%" x="-1" y="-1"><feGaussianBlur result="blurOut" stdDeviation="2.0"/><feColorMatrix in="blurOut" result="blurOut2" type="matrix" values="0 0 0 0 0 0 0 0 0 0 0 0 0 0 0 0 0 0 .4 0"/><feOffset dx="4.0" dy="4.0" in="blurOut2" result="blurOut3"/><feBlend in="SourceGraphic" in2="blurOut3" mode="normal"/></filter></defs><g><text fill="#000000" font-family="sans-serif" font-size="18" lengthAdjust="spacing" textLength="261" x="330.5" y="27.4023">Klondike  - Activities Diagram</text><ellipse cx="468" cy="41.1992" fill="#000000" filter="url(#fapq1s8fmio1f)" rx="10" ry="10" style="stroke:none;stroke-width:1.0;"/><rect fill="#FEFECE" filter="url(#fapq1s8fmio1f)" height="34.1328" rx="12.5" ry="12.5" style="stroke:#A80036;stroke-width:1.5;" width="58" x="439" y="71.1992"/><text fill="#000000" font-family="sans-serif" font-size="12" lengthAdjust="spacing" textLength="38" x="449" y="92.8008">Shuffle</text><rect fill="#FEFECE" filter="url(#fapq1s8fmio1f)" height="34.1328" rx="12.5" ry="12.5" style="stroke:#A80036;stroke-width:1.5;" width="113" x="411.5" y="125.332"/><text fill="#000000" font-family="sans-serif" font-size="12" lengthAdjust="spacing" textLength="93" x="421.5" y="146.9336">DealToPile Pile1</text><rect fill="#FEFECE" filter="url(#fapq1s8fmio1f)" height="34.1328" rx="12.5" ry="12.5" style="stroke:#A80036;stroke-width:1.5;" width="117" x="409.5" y="235.5996"/><text fill="#000000" font-family="sans-serif" font-size="12" lengthAdjust="spacing" textLength="97" x="419.5" y="257.2012">move toNext Pile</text><rect fill="#FEFECE" filter="url(#fapq1s8fmio1f)" height="34.1328" rx="12.5" ry="12.5" style="stroke:#A80036;stroke-width:1.5;" width="81" x="427.5" y="289.7324"/><text fill="#000000" font-family="sans-serif" font-size="12" lengthAdjust="spacing" textLength="61" x="437.5" y="311.334">DealToPile</text><rect fill="#FEFECE" filter="url(#fapq1s8fmio1f)" height="34.1328" rx="12.5" ry="12.5" style="stroke:#A80036;stroke-width:1.5;" width="81" x="427.5" y="412.9336"/><text fill="#000000" font-family="sans-serif" font-size="12" lengthAdjust="spacing" textLength="61" x="437.5" y="434.5352">DealToPile</text><polygon fill="#FEFECE" filter="url(#fapq1s8fmio1f)" points="371,356.7988,565,356.7988,577,368.7988,565,380.7988,371,380.7988,359,368.7988,371,356.7988" style="stroke:#A80036;stroke-width:1.5;"/><text fill="#000000" font-family="sans-serif" font-size="11" lengthAdjust="spacing" textLength="15" x="472" y="391.4336">No</text><text fill="#000000" font-family="sans-serif" font-size="11" lengthAdjust="spacing" textLength="194" x="371" y="372.9561">areIn Pile oneCardMoreThanLast Pile</text><text fill="#000000" font-family="sans-serif" font-size="11" lengthAdjust="spacing" textLength="19" x="340" y="366.4785">Yes</text><polygon fill="#FEFECE" filter="url(#fapq1s8fmio1f)" points="400.5,179.4648,535.5,179.4648,547.5,191.4648,535.5,203.4648,400.5,203.4648,388.5,191.4648,400.5,179.4648" style="stroke:#A80036;stroke-width:1.5;"/><text fill="#000000" font-family="sans-serif" font-size="11" lengthAdjust="spacing" textLength="15" x="472" y="214.0996">No</text><text fill="#000000" font-family="sans-serif" font-size="11" lengthAdjust="spacing" textLength="135" x="400.5" y="195.6221">areSeven Pile on Klondike</text><text fill="#000000" font-family="sans-serif" font-size="11" lengthAdjust="spacing" textLength="19" x="369.5" y="189.1445">Yes</text><rect fill="#FEFECE" filter="url(#fapq1s8fmio1f)" height="34.1328" rx="12.5" ry="12.5" style="stroke:#A80036;stroke-width:1.5;" width="186" x="375" y="511.0664"/><text fill="#000000" font-family="sans-serif" font-size="12" lengthAdjust="spacing" textLength="166" x="385" y="532.668">turnUp firstCard on each Pile</text><rect fill="#FEFECE" filter="url(#fapq1s8fmio1f)" height="34.1328" rx="12.5" ry="12.5" style="stroke:#A80036;stroke-width:1.5;" width="91" x="422.5" y="565.1992"/><text fill="#000000" font-family="sans-serif" font-size="12" lengthAdjust="spacing" textLength="71" x="432.5" y="586.8008">DealToStock</text><rect fill="#FEFECE" filter="url(#fapq1s8fmio1f)" height="34.1328" rx="12.5" ry="12.5" style="stroke:#A80036;stroke-width:1.5;" width="95" x="420.5" y="619.332"/><text fill="#000000" font-family="sans-serif" font-size="12" lengthAdjust="spacing" textLength="75" x="430.5" y="640.9336">DealToWaste</text><polygon fill="#FEFECE" filter="url(#fapq1s8fmio1f)" points="428.5,717.4648,507.5,717.4648,519.5,729.4648,507.5,741.4648,428.5,741.4648,416.5,729.4648,428.5,717.4648" style="stroke:#A80036;stroke-width:1.5;"/><text fill="#000000" font-family="sans-serif" font-size="11" lengthAdjust="spacing" textLength="79" x="428.5" y="733.6221">isSelectedCard</text><rect fill="#FEFECE" filter="url(#fapq1s8fmio1f)" height="34.1328" rx="12.5" ry="12.5" style="stroke:#A80036;stroke-width:1.5;" width="105" x="36" y="761.4648"/><text fill="#000000" font-family="sans-serif" font-size="12" lengthAdjust="spacing" textLength="85" x="46" y="783.0664">PileToPileMove</text><rect fill="#FEFECE" filter="url(#fapq1s8fmio1f)" height="34.1328" rx="12.5" ry="12.5" style="stroke:#A80036;stroke-width:1.5;" width="148" x="151" y="761.4648"/><text fill="#000000" font-family="sans-serif" font-size="12" lengthAdjust="spacing" textLength="128" x="161" y="783.0664">PileToFoundationMove</text><rect fill="#FEFECE" filter="url(#fapq1s8fmio1f)" height="34.1328" rx="12.5" ry="12.5" style="stroke:#A80036;stroke-width:1.5;" width="148" x="309" y="761.4648"/><text fill="#000000" font-family="sans-serif" font-size="12" lengthAdjust="spacing" textLength="128" x="319" y="783.0664">FoundationToPileMove</text><rect fill="#FEFECE" filter="url(#fapq1s8fmio1f)" height="34.1328" rx="12.5" ry="12.5" style="stroke:#A80036;stroke-width:1.5;" width="155" x="477" y="761.4648"/><text fill="#000000" font-family="sans-serif" font-size="12" lengthAdjust="spacing" textLength="135" x="487" y="783.0664">WasteToFondationMove</text><rect fill="#FEFECE" filter="url(#fapq1s8fmio1f)" height="34.1328" rx="12.5" ry="12.5" style="stroke:#A80036;stroke-width:1.5;" width="119" x="642" y="761.4648"/><text fill="#000000" font-family="sans-serif" font-size="12" lengthAdjust="spacing" textLength="99" x="652" y="783.0664">WasteToPileMove</text><rect fill="#FEFECE" filter="url(#fapq1s8fmio1f)" height="34.1328" rx="12.5" ry="12.5" style="stroke:#A80036;stroke-width:1.5;" width="129" x="771" y="761.4648"/><text fill="#000000" font-family="sans-serif" font-size="12" lengthAdjust="spacing" textLength="109" x="781" y="783.0664">WasteToStockMove</text><polygon fill="#FEFECE" filter="url(#fapq1s8fmio1f)" points="468,805.5977,468,805.5977,480,817.5977,468,829.5977,468,829.5977,456,817.5977,468,805.5977" style="stroke:#A80036;stroke-width:1.5;"/><polygon fill="#FEFECE" filter="url(#fapq1s8fmio1f)" points="423.5,849.5977,512.5,849.5977,524.5,861.5977,512.5,873.5977,423.5,873.5977,411.5,861.5977,423.5,849.5977" style="stroke:#A80036;stroke-width:1.5;"/><text fill="#000000" font-family="sans-serif" font-size="11" lengthAdjust="spacing" textLength="89" x="423.5" y="865.7549">isFoundationFull</text><text fill="#000000" font-family="sans-serif" font-size="11" lengthAdjust="spacing" textLength="18" x="393.5" y="859.2773">yes</text><text fill="#000000" font-family="sans-serif" font-size="11" lengthAdjust="spacing" textLength="14" x="524.5" y="859.2773">no</text><rect fill="#FEFECE" filter="url(#fapq1s8fmio1f)" height="34.1328" rx="12.5" ry="12.5" style="stroke:#A80036;stroke-width:1.5;" width="74" x="364.5" y="883.5977"/><text fill="#000000" font-family="sans-serif" font-size="12" lengthAdjust="spacing" textLength="54" x="374.5" y="905.1992">WinGame</text><rect fill="#FEFECE" filter="url(#fapq1s8fmio1f)" height="34.1328" rx="12.5" ry="12.5" style="stroke:#A80036;stroke-width:1.5;" width="61" x="504" y="932.0752"/><text fill="#000000" font-family="sans-serif" font-size="12" lengthAdjust="spacing" textLength="41" x="514" y="953.6768">Restart</text><polygon fill="#FEFECE" filter="url(#fapq1s8fmio1f)" points="491.5,883.5977,577.5,883.5977,589.5,895.5977,577.5,907.5977,491.5,907.5977,479.5,895.5977,491.5,883.5977" style="stroke:#A80036;stroke-width:1.5;"/><text fill="#000000" font-family="sans-serif" font-size="11" lengthAdjust="spacing" textLength="14" x="538.5" y="918.2324">no</text><text fill="#000000" font-family="sans-serif" font-size="11" lengthAdjust="spacing" textLength="86" x="491.5" y="899.7549">haveMoreMoves</text><text fill="#000000" font-family="sans-serif" font-size="11" lengthAdjust="spacing" textLength="18" x="589.5" y="893.2773">yes</text><polygon fill="#FEFECE" filter="url(#fapq1s8fmio1f)" points="468,673.4648,468,673.4648,480,685.4648,468,697.4648,468,697.4648,456,685.4648,468,673.4648" style="stroke:#A80036;stroke-width:1.5;"/><ellipse cx="468" cy="1059.208" fill="#FFFFFF" filter="url(#fapq1s8fmio1f)" rx="11" ry="11" style="stroke:#000000;stroke-width:1.0;"/><ellipse cx="468" cy="1059.208" fill="#000000" rx="6" ry="6" style="stroke:#7F7F7F;stroke-width:1.0;"/><line style="stroke:#A80036;stroke-width:1.5;" x1="468" x2="468" y1="51.1992" y2="71.1992"/><polygon fill="#A80036" points="464,61.1992,468,71.1992,472,61.1992,468,65.1992" style="stroke:#A80036;stroke-width:1.0;"/><line style="stroke:#A80036;stroke-width:1.5;" x1="468" x2="468" y1="105.332" y2="125.332"/><polygon fill="#A80036" points="464,115.332,468,125.332,472,115.332,468,119.332" style="stroke:#A80036;stroke-width:1.0;"/><line style="stroke:#A80036;stroke-width:1.5;" x1="468" x2="468" y1="269.7324" y2="289.7324"/><polygon fill="#A80036" points="464,279.7324,468,289.7324,472,279.7324,468,283.7324" style="stroke:#A80036;stroke-width:1.0;"/><line style="stroke:#A80036;stroke-width:1.5;" x1="468" x2="468" y1="380.7988" y2="412.9336"/><polygon fill="#A80036" points="464,402.9336,468,412.9336,472,402.9336,468,406.9336" style="stroke:#A80036;stroke-width:1.0;"/><line style="stroke:#A80036;stroke-width:1.5;" x1="468" x2="468" y1="447.0664" y2="457.0664"/><line style="stroke:#A80036;stroke-width:1.5;" x1="468" x2="589" y1="457.0664" y2="457.0664"/><polygon fill="#A80036" points="585,421.5225,589,411.5225,593,421.5225,589,417.5225" style="stroke:#A80036;stroke-width:1.5;"/><line style="stroke:#A80036;stroke-width:1.5;" x1="589" x2="589" y1="368.7988" y2="457.0664"/><line style="stroke:#A80036;stroke-width:1.5;" x1="589" x2="577" y1="368.7988" y2="368.7988"/><polygon fill="#A80036" points="587,364.7988,577,368.7988,587,372.7988,583,368.7988" style="stroke:#A80036;stroke-width:1.0;"/><line style="stroke:#A80036;stroke-width:1.5;" x1="359" x2="347" y1="368.7988" y2="368.7988"/><polygon fill="#A80036" points="343,407.5225,347,417.5225,351,407.5225,347,411.5225" style="stroke:#A80036;stroke-width:1.5;"/><line style="stroke:#A80036;stroke-width:1.5;" x1="347" x2="347" y1="368.7988" y2="469.0664"/><line style="stroke:#A80036;stroke-width:1.5;" x1="347" x2="601" y1="469.0664" y2="469.0664"/><line style="stroke:#A80036;stroke-width:1.5;" x1="601" x2="601" y1="191.4648" y2="469.0664"/><line style="stroke:#A80036;stroke-width:1.5;" x1="601" x2="547.5" y1="191.4648" y2="191.4648"/><polygon fill="#A80036" points="557.5,187.4648,547.5,191.4648,557.5,195.4648,553.5,191.4648" style="stroke:#A80036;stroke-width:1.0;"/><line style="stroke:#A80036;stroke-width:1.5;" x1="468" x2="468" y1="323.8652" y2="356.7988"/><polygon fill="#A80036" points="464,346.7988,468,356.7988,472,346.7988,468,350.7988" style="stroke:#A80036;stroke-width:1.0;"/><line style="stroke:#A80036;stroke-width:1.5;" x1="468" x2="468" y1="203.4648" y2="235.5996"/><polygon fill="#A80036" points="464,225.5996,468,235.5996,472,225.5996,468,229.5996" style="stroke:#A80036;stroke-width:1.0;"/><line style="stroke:#A80036;stroke-width:1.5;" x1="388.5" x2="323" y1="191.4648" y2="191.4648"/><polygon fill="#A80036" points="319,326.7988,323,336.7988,327,326.7988,323,330.7988" style="stroke:#A80036;stroke-width:1.5;"/><line style="stroke:#A80036;stroke-width:1.5;" x1="323" x2="323" y1="191.4648" y2="491.0664"/><line style="stroke:#A80036;stroke-width:1.5;" x1="323" x2="468" y1="491.0664" y2="491.0664"/><line style="stroke:#A80036;stroke-width:1.5;" x1="468" x2="468" y1="491.0664" y2="511.0664"/><polygon fill="#A80036" points="464,501.0664,468,511.0664,472,501.0664,468,505.0664" style="stroke:#A80036;stroke-width:1.0;"/><line style="stroke:#A80036;stroke-width:1.5;" x1="468" x2="468" y1="159.4648" y2="179.4648"/><polygon fill="#A80036" points="464,169.4648,468,179.4648,472,169.4648,468,173.4648" style="stroke:#A80036;stroke-width:1.0;"/><line style="stroke:#A80036;stroke-width:1.5;" x1="468" x2="468" y1="545.1992" y2="565.1992"/><polygon fill="#A80036" points="464,555.1992,468,565.1992,472,555.1992,468,559.1992" style="stroke:#A80036;stroke-width:1.0;"/><line style="stroke:#A80036;stroke-width:1.5;" x1="468" x2="468" y1="599.332" y2="619.332"/><polygon fill="#A80036" points="464,609.332,468,619.332,472,609.332,468,613.332" style="stroke:#A80036;stroke-width:1.0;"/><line style="stroke:#A80036;stroke-width:1.5;" x1="416.5" x2="88.5" y1="729.4648" y2="729.4648"/><line style="stroke:#A80036;stroke-width:1.5;" x1="88.5" x2="88.5" y1="729.4648" y2="761.4648"/><polygon fill="#A80036" points="84.5,751.4648,88.5,761.4648,92.5,751.4648,88.5,755.4648" style="stroke:#A80036;stroke-width:1.0;"/><line style="stroke:#A80036;stroke-width:1.5;" x1="519.5" x2="835.5" y1="729.4648" y2="729.4648"/><line style="stroke:#A80036;stroke-width:1.5;" x1="835.5" x2="835.5" y1="729.4648" y2="761.4648"/><polygon fill="#A80036" points="831.5,751.4648,835.5,761.4648,839.5,751.4648,835.5,755.4648" style="stroke:#A80036;stroke-width:1.0;"/><line style="stroke:#A80036;stroke-width:1.5;" x1="225" x2="225" y1="729.4648" y2="761.4648"/><polygon fill="#A80036" points="221,751.4648,225,761.4648,229,751.4648,225,755.4648" style="stroke:#A80036;stroke-width:1.0;"/><line style="stroke:#A80036;stroke-width:1.5;" x1="383" x2="383" y1="729.4648" y2="761.4648"/><polygon fill="#A80036" points="379,751.4648,383,761.4648,387,751.4648,383,755.4648" style="stroke:#A80036;stroke-width:1.0;"/><line style="stroke:#A80036;stroke-width:1.5;" x1="554.5" x2="554.5" y1="729.4648" y2="761.4648"/><polygon fill="#A80036" points="550.5,751.4648,554.5,761.4648,558.5,751.4648,554.5,755.4648" style="stroke:#A80036;stroke-width:1.0;"/><line style="stroke:#A80036;stroke-width:1.5;" x1="701.5" x2="701.5" y1="729.4648" y2="761.4648"/><polygon fill="#A80036" points="697.5,751.4648,701.5,761.4648,705.5,751.4648,701.5,755.4648" style="stroke:#A80036;stroke-width:1.0;"/><line style="stroke:#A80036;stroke-width:1.5;" x1="88.5" x2="88.5" y1="795.5977" y2="817.5977"/><line style="stroke:#A80036;stroke-width:1.5;" x1="88.5" x2="456" y1="817.5977" y2="817.5977"/><polygon fill="#A80036" points="446,813.5977,456,817.5977,446,821.5977,450,817.5977" style="stroke:#A80036;stroke-width:1.0;"/><line style="stroke:#A80036;stroke-width:1.5;" x1="835.5" x2="835.5" y1="795.5977" y2="817.5977"/><line style="stroke:#A80036;stroke-width:1.5;" x1="835.5" x2="480" y1="817.5977" y2="817.5977"/><polygon fill="#A80036" points="490,813.5977,480,817.5977,490,821.5977,486,817.5977" style="stroke:#A80036;stroke-width:1.0;"/><line style="stroke:#A80036;stroke-width:1.5;" x1="225" x2="225" y1="795.5977" y2="817.5977"/><polygon fill="#A80036" points="221,807.5977,225,817.5977,229,807.5977,225,811.5977" style="stroke:#A80036;stroke-width:1.0;"/><line style="stroke:#A80036;stroke-width:1.5;" x1="383" x2="383" y1="795.5977" y2="817.5977"/><polygon fill="#A80036" points="379,807.5977,383,817.5977,387,807.5977,383,811.5977" style="stroke:#A80036;stroke-width:1.0;"/><line style="stroke:#A80036;stroke-width:1.5;" x1="554.5" x2="554.5" y1="795.5977" y2="817.5977"/><polygon fill="#A80036" points="550.5,807.5977,554.5,817.5977,558.5,807.5977,554.5,811.5977" style="stroke:#A80036;stroke-width:1.0;"/><line style="stroke:#A80036;stroke-width:1.5;" x1="701.5" x2="701.5" y1="795.5977" y2="817.5977"/><polygon fill="#A80036" points="697.5,807.5977,701.5,817.5977,705.5,807.5977,701.5,811.5977" style="stroke:#A80036;stroke-width:1.0;"/><line style="stroke:#A80036;stroke-width:1.5;" x1="401.5" x2="401.5" y1="917.7305" y2="952.7305"/><line style="stroke:#A80036;stroke-width:1.5;" x1="401.5" x2="24" y1="952.7305" y2="952.7305"/><polygon fill="#A80036" points="34,948.7305,24,952.7305,34,956.7305,30,952.7305" style="stroke:#A80036;stroke-width:1.0;"/><line style="stroke:#A80036;stroke-width:1.5;" x1="534.5" x2="534.5" y1="966.208" y2="980.208"/><line style="stroke:#A80036;stroke-width:1.5;" x1="534.5" x2="24" y1="980.208" y2="980.208"/><polygon fill="#A80036" points="34,976.208,24,980.208,34,984.208,30,980.208" style="stroke:#A80036;stroke-width:1.0;"/><line style="stroke:#A80036;stroke-width:1.5;" x1="534.5" x2="534.5" y1="907.5977" y2="932.0752"/><polygon fill="#A80036" points="530.5,922.0752,534.5,932.0752,538.5,922.0752,534.5,926.0752" style="stroke:#A80036;stroke-width:1.0;"/><line style="stroke:#A80036;stroke-width:1.5;" x1="589.5" x2="912" y1="895.5977" y2="895.5977"/><line style="stroke:#A80036;stroke-width:1.5;" x1="912" x2="912" y1="685.4648" y2="895.5977"/><line style="stroke:#A80036;stroke-width:1.5;" x1="912" x2="480" y1="685.4648" y2="685.4648"/><polygon fill="#A80036" points="490,681.4648,480,685.4648,490,689.4648,486,685.4648" style="stroke:#A80036;stroke-width:1.0;"/><line style="stroke:#A80036;stroke-width:1.5;" x1="411.5" x2="401.5" y1="861.5977" y2="861.5977"/><line style="stroke:#A80036;stroke-width:1.5;" x1="401.5" x2="401.5" y1="861.5977" y2="883.5977"/><polygon fill="#A80036" points="397.5,873.5977,401.5,883.5977,405.5,873.5977,401.5,877.5977" style="stroke:#A80036;stroke-width:1.0;"/><line style="stroke:#A80036;stroke-width:1.5;" x1="524.5" x2="534.5" y1="861.5977" y2="861.5977"/><line style="stroke:#A80036;stroke-width:1.5;" x1="534.5" x2="534.5" y1="861.5977" y2="883.5977"/><polygon fill="#A80036" points="530.5,873.5977,534.5,883.5977,538.5,873.5977,534.5,877.5977" style="stroke:#A80036;stroke-width:1.0;"/><line style="stroke:#A80036;stroke-width:1.5;" x1="468" x2="468" y1="829.5977" y2="849.5977"/><polygon fill="#A80036" points="464,839.5977,468,849.5977,472,839.5977,468,843.5977" style="stroke:#A80036;stroke-width:1.0;"/><line style="stroke:#A80036;stroke-width:1.5;" x1="468" x2="468" y1="697.4648" y2="717.4648"/><polygon fill="#A80036" points="464,707.4648,468,717.4648,472,707.4648,468,711.4648" style="stroke:#A80036;stroke-width:1.0;"/><line style="stroke:#A80036;stroke-width:1.5;" x1="456" x2="24" y1="685.4648" y2="685.4648"/><polygon fill="#A80036" points="20,819.0752,24,829.0752,28,819.0752,24,823.0752" style="stroke:#A80036;stroke-width:1.5;"/><line style="stroke:#A80036;stroke-width:1.5;" x1="24" x2="24" y1="685.4648" y2="1028.208"/><line style="stroke:#A80036;stroke-width:1.5;" x1="24" x2="468" y1="1028.208" y2="1028.208"/><line style="stroke:#A80036;stroke-width:1.5;" x1="468" x2="468" y1="1028.208" y2="1048.208"/><polygon fill="#A80036" points="464,1038.208,468,1048.208,472,1038.208,468,1042.208" style="stroke:#A80036;stroke-width:1.0;"/><line style="stroke:#A80036;stroke-width:1.5;" x1="468" x2="468" y1="653.4648" y2="673.4648"/><polygon fill="#A80036" points="464,663.4648,468,673.4648,472,663.4648,468,667.4648" style="stroke:#A80036;stroke-width:1.0;"/><!--MD5=[3682737bbbb95ece306d5ca5fd559025]
@startuml ActivitiesDiagram
title Klondike  - Activities Diagram
!pragma layout smetana

start

:Shuffle;
:DealToPile Pile1;

while (areSeven Pile on Klondike)  is (No)
  :move toNext Pile;
  :DealToPile;
  while (areIn Pile oneCardMoreThanLast Pile)  is (No)
    :DealToPile;
  endwhile (Yes)
endwhile (Yes)

:turnUp firstCard on each Pile;
:DealToStock;
:DealToWaste;

while ()
  switch (isSelectedCard)
    case ()
      :PileToPileMove;
    case ()
      :PileToFoundationMove;
    case ()
      :FoundationToPileMove;
    case ()
      :WasteToFondationMove;
    case ()
      :WasteToPileMove;
    case ()
      :WasteToStockMove;
  endswitch

  if (isFoundationFull) then (yes)
    :WinGame;
    break;
  else (no)
    if (haveMoreMoves) then (no)
      :Restart;
      break;
    else (yes)
    endif
  endif
endwhile

stop

@enduml

PlantUML version 1.2022.0(Tue Jan 11 11:16:42 ECT 2022)
(GPL source distribution)
Java Runtime: OpenJDK Runtime Environment
JVM: OpenJDK 64-Bit Server VM
Default Encoding: UTF-8
Language: es
Country: EC
--></g></svg>