<?xml version="1.0" encoding="UTF-8" standalone="no"?><svg xmlns="http://www.w3.org/2000/svg" xmlns:xlink="http://www.w3.org/1999/xlink" contentScriptType="application/ecmascript" contentStyleType="text/css" height="493px" preserveAspectRatio="none" style="width:588px;height:493px;background:#FFFFFF;" version="1.1" viewBox="0 0 588 493" width="588px" zoomAndPan="magnify"><defs><filter height="300%" id="fwutwa2wip9w8" width="300%" x="-1" y="-1"><feGaussianBlur result="blurOut" stdDeviation="2.0"/><feColorMatrix in="blurOut" result="blurOut2" type="matrix" values="0 0 0 0 0 0 0 0 0 0 0 0 0 0 0 0 0 0 .4 0"/><feOffset dx="4.0" dy="4.0" in="blurOut2" result="blurOut3"/><feBlend in="SourceGraphic" in2="blurOut3" mode="normal"/></filter></defs><g><g id="State1"><rect fill="#FEFECE" filter="url(#fwutwa2wip9w8)" height="50" rx="12.5" ry="12.5" style="stroke:#A80036;stroke-width:1.5;" width="63" x="212.9859" y="84"/><line style="stroke:#A80036;stroke-width:1.5;" x1="212.9859" x2="275.9859" y1="110.4883" y2="110.4883"/><text fill="#000000" font-family="sans-serif" font-size="14" lengthAdjust="spacing" textLength="43" x="222.9859" y="102.5352">State1</text></g><polygon fill="#FEFECE" filter="url(#fwutwa2wip9w8)" points="31.4859,187,43.4859,199,31.4859,211,19.4859,199,31.4859,187" style="stroke:#A80036;stroke-width:1.5;"/><polygon fill="#FEFECE" filter="url(#fwutwa2wip9w8)" points="179.4859,264,191.4859,276,179.4859,288,167.4859,276,179.4859,264" style="stroke:#A80036;stroke-width:1.5;"/><g id="State2"><rect fill="#FEFECE" filter="url(#fwutwa2wip9w8)" height="50" rx="12.5" ry="12.5" style="stroke:#A80036;stroke-width:1.5;" width="63" x="33.9859" y="306"/><line style="stroke:#A80036;stroke-width:1.5;" x1="33.9859" x2="96.9859" y1="332.4883" y2="332.4883"/><text fill="#000000" font-family="sans-serif" font-size="14" lengthAdjust="spacing" textLength="43" x="43.9859" y="324.5352">State2</text></g><g id="State3"><rect fill="#FEFECE" filter="url(#fwutwa2wip9w8)" height="50" rx="12.5" ry="12.5" style="stroke:#A80036;stroke-width:1.5;" width="63" x="113.9859" y="374"/><line style="stroke:#A80036;stroke-width:1.5;" x1="113.9859" x2="176.9859" y1="400.4883" y2="400.4883"/><text fill="#000000" font-family="sans-serif" font-size="14" lengthAdjust="spacing" textLength="43" x="123.9859" y="392.5352">State3</text></g><ellipse cx="244.4859" cy="17" fill="#000000" filter="url(#fwutwa2wip9w8)" rx="10" ry="10" style="stroke:none;stroke-width:1.0;"/><ellipse cx="101.4859" cy="471" filter="url(#fwutwa2wip9w8)" rx="10" ry="10" style="stroke:#000000;stroke-width:1.0;fill:none;"/><ellipse cx="101.9859" cy="471.5" fill="#000000" rx="6" ry="6" style="stroke:none;stroke-width:1.0;"/><path d="M244.4859,31.1453 C244.4859,44.28 244.4859,66.4899 244.4859,83.666 " fill="none" style="stroke:#A80036;stroke-width:1.0;"/><polygon fill="#A80036" points="244.4859,83.666,248.4859,74.666,244.4859,78.666,240.4859,74.666,244.4859,83.666" style="stroke:#A80036;stroke-width:1.0;"/><text fill="#000000" font-family="sans-serif" font-size="13" lengthAdjust="spacing" textLength="59" x="245.4859" y="62.5684">SelectPile</text><path d="M212.7847,111.5716 C159.4199,114.9469 55.2264,124.9179 32.4859,152 C24.4727,161.5431 25.8542,176.5371 28.1563,186.795 " fill="none" style="stroke:#A80036;stroke-width:1.0;"/><polygon fill="#A80036" points="28.1563,186.795,30.0884,177.1375,27.0614,181.9163,22.2826,178.8893,28.1563,186.795" style="stroke:#A80036;stroke-width:1.0;"/><text fill="#000000" font-family="sans-serif" font-size="13" lengthAdjust="spacing" textLength="410" x="33.4859" y="165.5684">[isFirstCardOfPilePreviousNumberAndDiferentColorInAnotherPile]</text><path d="M43.72,199.4933 C68.0993,199.1311 123.3256,201.6318 157.4859,229 C168.4016,237.7453 174.2235,253.218 177.0812,263.7826 " fill="none" style="stroke:#A80036;stroke-width:1.0;"/><polygon fill="#A80036" points="177.0812,263.7826,178.5924,254.0504,175.7756,258.9561,170.8699,256.1393,177.0812,263.7826" style="stroke:#A80036;stroke-width:1.0;"/><text fill="#000000" font-family="sans-serif" font-size="13" lengthAdjust="spacing" textLength="262" x="171.4859" y="242.5684">[isFirstCardOfPile"K"AndSomePileIsEmpty]</text><path d="M19.8454,211.0252 C15.3851,216.032 10.8116,222.325 8.4859,229 C6,236.1349 6.2668,238.7777 8.4859,246 C15.3702,268.406 30.4864,290.2034 43.4227,305.977 " fill="none" style="stroke:#A80036;stroke-width:1.0;"/><polygon fill="#A80036" points="43.4227,305.977,40.8083,296.4814,40.252,302.1109,34.6226,301.5546,43.4227,305.977" style="stroke:#A80036;stroke-width:1.0;"/><text fill="#000000" font-family="sans-serif" font-size="13" lengthAdjust="spacing" textLength="143" x="9.4859" y="242.5684">MovePileToAnotherPile</text><path d="M176.3482,288.1665 C170.9232,307.4732 159.6705,347.5194 152.3561,373.5503 " fill="none" style="stroke:#A80036;stroke-width:1.0;"/><polygon fill="#A80036" points="152.3561,373.5503,158.6416,365.9679,153.7086,368.7367,150.9398,363.8038,152.3561,373.5503" style="stroke:#A80036;stroke-width:1.0;"/><text fill="#000000" font-family="sans-serif" font-size="13" lengthAdjust="spacing" textLength="132" x="172.4859" y="336.0684">MovePileToEmptyPile</text><path d="M191.7114,274.5298 C240.7137,272.5267 421.1099,263.9723 438.4859,246 C499.4482,182.9454 459.7945,170.8573 444.4859,152 C423.6336,126.3138 327.0167,115.7623 276.0937,111.9264 " fill="none" style="stroke:#A80036;stroke-width:1.0;"/><polygon fill="#A80036" points="276.0937,111.9264,284.7678,116.5911,281.0796,112.302,285.3687,108.6137,276.0937,111.9264" style="stroke:#A80036;stroke-width:1.0;"/><text fill="#000000" font-family="sans-serif" font-size="13" lengthAdjust="spacing" textLength="109" x="471.4859" y="204.0684">SelectAnotherPile</text><path d="M130.5895,424.3759 C123.0104,436.778 114.1714,451.242 108.2404,460.9471 " fill="none" style="stroke:#A80036;stroke-width:1.0;"/><polygon fill="#A80036" points="108.2404,460.9471,116.3466,455.3534,110.8477,456.6807,109.5204,451.1818,108.2404,460.9471" style="stroke:#A80036;stroke-width:1.0;"/><path d="M71.6745,356.0669 C79.555,386.7133 92.8434,438.3903 98.6394,460.9304 " fill="none" style="stroke:#A80036;stroke-width:1.0;"/><polygon fill="#A80036" points="98.6394,460.9304,100.272,451.2178,97.3942,456.0879,92.5241,453.2101,98.6394,460.9304" style="stroke:#A80036;stroke-width:1.0;"/><!--MD5=[97777b96f04b1bbf4959b48725c92187]
@startuml UseCaseMovePile
!pragma layout smetana
state State1
state if <<choice>>
state if2 <<choice>>
state State2
state State3
[*] - -> State1: SelectPile
State1 - -> if: [isFirstCardOfPilePreviousNumberAndDiferentColorInAnotherPile]
if - -> if2: [isFirstCardOfPile"K"AndSomePileIsEmpty]
if - -> State2: MovePileToAnotherPile
if2 - -> State3: MovePileToEmptyPile
if2 - -> State1: SelectAnotherPile
State3 - ->[*]
State2- -> [*]

@enduml

PlantUML version 1.2022.0(Tue Jan 11 11:16:42 ECT 2022)
(GPL source distribution)
Java Runtime: OpenJDK Runtime Environment
JVM: OpenJDK 64-Bit Server VM
Default Encoding: UTF-8
Language: es
Country: EC
--></g></svg>